<svg xmlns="http://www.w3.org/2000/svg" width="512" height="512">
 <g transform="translate(0,-540.36218)">
  <path fill="#5c805a" fill-rule="evenodd" color="#000" d="M 119.654,625.452 H391.752 V1007.78 H119.654 z"/>
  <path d="m 214.80679 546.0666 c -21.77689 0 -39.3579 17.22146 -40.05716 38.82236 l -27.11639 0 c -30.64603 0 -55.31938 24.67336 -55.31938 55.3194 l 0 351.13 c 0 30.64604 24.673352 55.31934 55.31938 55.31934 l 216.73351 0 c 30.64603 0 55.31938 -24.6733 55.31938 -55.31934 l 0 -351.13 c 0 -30.64604 -24.67335 -55.3194 -55.31938 -55.3194 l -25.68401 0 c -0.69925 -21.6009 -18.28028 -38.82236 -40.05717 -38.82236 l -83.81878 0 z m -89.74583 81.74429 261.87807 0 0 379.33301 -261.87807 0 0 -379.33301 z" fill="#fff8eb" fill-rule="evenodd" color="#000"/>
  <path d="m 243.22579 660.74613 -48.28241 151.14491 56.67935 0 -44.90009 167.56942 110.33398 -191.10404 -65.98638 0 62.57591 -129.37823 z" fill="#ffd459" stroke="#ffd459" stroke-width="1.469465"/>
 </g>
</svg>
