<?xml version="1.0" encoding="UTF-8" standalone="no"?>
<!-- Created with Inkscape (http://www.inkscape.org/) -->

<svg
   xmlns:dc="http://purl.org/dc/elements/1.1/"
   xmlns:cc="http://creativecommons.org/ns#"
   xmlns:rdf="http://www.w3.org/1999/02/22-rdf-syntax-ns#"
   xmlns:svg="http://www.w3.org/2000/svg"
   xmlns="http://www.w3.org/2000/svg"
   xmlns:sodipodi="http://sodipodi.sourceforge.net/DTD/sodipodi-0.dtd"
   xmlns:inkscape="http://www.inkscape.org/namespaces/inkscape"
   width="512"
   height="512"
   id="svg2"
   version="1.1"
   inkscape:version="0.48.4 r9939"
   sodipodi:docname="battery-charging-080.svg">
  <defs
     id="defs4" />
  <sodipodi:namedview
     id="base"
     pagecolor="#ffffff"
     bordercolor="#666666"
     borderopacity="1.0"
     inkscape:pageopacity="0.0"
     inkscape:pageshadow="2"
     inkscape:zoom="0.7"
     inkscape:cx="327.88053"
     inkscape:cy="222.16239"
     inkscape:document-units="px"
     inkscape:current-layer="layer1"
     showgrid="false"
     inkscape:window-width="1309"
     inkscape:window-height="750"
     inkscape:window-x="55"
     inkscape:window-y="-3"
     inkscape:window-maximized="1"
     showguides="true"
     inkscape:guide-bbox="true" />
  <metadata
     id="metadata7">
    <rdf:RDF>
      <cc:Work
         rdf:about="">
        <dc:format>image/svg+xml</dc:format>
        <dc:type
           rdf:resource="http://purl.org/dc/dcmitype/StillImage" />
        <dc:title></dc:title>
      </cc:Work>
    </rdf:RDF>
  </metadata>
  <g
     inkscape:label="Layer 1"
     inkscape:groupmode="layer"
     id="layer1"
     transform="translate(0,-540.36218)">
    <rect
       style="color:#000000;fill:#999647;fill-opacity:1;fill-rule:evenodd;stroke:none;stroke-width:1px;marker:none;visibility:visible;display:inline;overflow:visible;enable-background:accumulate"
       id="rect3772"
       width="272.09848"
       height="309.47037"
       x="119.65402"
       y="698.30914"
       ry="0" />
    <path
       inkscape:connector-curvature="0"
       style="color:#000000;fill:#fff8eb;fill-opacity:1;fill-rule:evenodd;stroke:none;stroke-width:1px;marker:none;visibility:visible;display:inline;overflow:visible;enable-background:accumulate"
       d="m 214.80679,546.0666 c -21.77689,0 -39.3579,17.22146 -40.05716,38.82236 l -27.11639,0 c -30.64603,0 -55.319382,24.67336 -55.319382,55.3194 l 0,351.13 c 0,30.64604 24.673352,55.31934 55.319382,55.31934 l 216.73351,0 c 30.64603,0 55.31938,-24.6733 55.31938,-55.31934 l 0,-351.13 c 0,-30.64604 -24.67335,-55.3194 -55.31938,-55.3194 l -25.68401,0 c -0.69925,-21.6009 -18.28028,-38.82236 -40.05717,-38.82236 l -83.81878,0 z m -89.74583,81.74429 261.87807,0 0,379.33301 -261.87807,0 0,-379.33301 z"
       id="rect2995" />
    <path
       style="fill:#ffd459;stroke:#ffd459;stroke-width:1.46946454px;stroke-linecap:butt;stroke-linejoin:miter;stroke-opacity:1"
       d="m 243.2258,660.74616 -48.28241,151.14491 56.67935,0 -44.90009,167.56942 110.33398,-191.10404 -65.98638,0 62.57591,-129.37823 z"
       id="path2984"
       inkscape:connector-curvature="0"
       sodipodi:nodetypes="cccccccc" />
  </g>
</svg>
