<?xml version="1.0" encoding="UTF-8" standalone="no"?>
<!-- Created with Inkscape (http://www.inkscape.org/) -->

<svg
   xmlns:dc="http://purl.org/dc/elements/1.1/"
   xmlns:cc="http://creativecommons.org/ns#"
   xmlns:rdf="http://www.w3.org/1999/02/22-rdf-syntax-ns#"
   xmlns:svg="http://www.w3.org/2000/svg"
   xmlns="http://www.w3.org/2000/svg"
   xmlns:sodipodi="http://sodipodi.sourceforge.net/DTD/sodipodi-0.dtd"
   xmlns:inkscape="http://www.inkscape.org/namespaces/inkscape"
   width="512"
   height="512"
   id="svg2"
   version="1.1"
   inkscape:version="0.48.4 r9939"
   sodipodi:docname="dialog-password.svg">
  <defs
     id="defs4" />
  <sodipodi:namedview
     id="base"
     pagecolor="#ffffff"
     bordercolor="#666666"
     borderopacity="1.0"
     inkscape:pageopacity="0.0"
     inkscape:pageshadow="2"
     inkscape:zoom="0.49497475"
     inkscape:cx="210.04847"
     inkscape:cy="225.82824"
     inkscape:document-units="px"
     inkscape:current-layer="layer1"
     showgrid="false"
     inkscape:window-width="1309"
     inkscape:window-height="750"
     inkscape:window-x="55"
     inkscape:window-y="-3"
     inkscape:window-maximized="1" />
  <metadata
     id="metadata7">
    <rdf:RDF>
      <cc:Work
         rdf:about="">
        <dc:format>image/svg+xml</dc:format>
        <dc:type
           rdf:resource="http://purl.org/dc/dcmitype/StillImage" />
        <dc:title />
      </cc:Work>
    </rdf:RDF>
  </metadata>
  <g
     inkscape:label="Layer 1"
     inkscape:groupmode="layer"
     id="layer1"
     transform="translate(0,-540.36218)">
    <path
       sodipodi:type="arc"
       style="fill:#cd1d31;fill-rule:evenodd;stroke:none"
       id="path2985"
       sodipodi:cx="202.85715"
       sodipodi:cy="-316.57144"
       sodipodi:rx="360"
       sodipodi:ry="360"
       d="m 562.85715,-316.57144 c 0,198.82251 -161.17749,359.999998 -360,359.999998 -198.8225127,0 -360,-161.177488 -360,-359.999998 0,-198.82251 161.1774873,-360 360,-360 198.82251,0 360,161.17749 360,360 z"
       transform="matrix(0.69444444,0,0,0.69444444,115.12698,1016.2035)" />
    <g
       id="g3796"
       transform="matrix(1.2062505,0,0,1.2062505,-606.57906,-165.30597)"
       style="fill:#fff8eb">
      <path
         id="path2995"
         d="m 785.49702,668.11073 c 46.46412,5.60569 79.60503,47.80714 73.99934,94.27126 -5.60569,46.46413 -47.8359,79.60156 -94.30002,73.99588 -6.83469,-0.82458 -13.38296,-2.44599 -19.55899,-4.75225 l -16.44238,13.18849 -29.72293,0.41135 -6.2548,26.93464 -27.72918,0.33094 -7.30893,27.44936 -28.36186,0.2546 -7.22914,26.78795 -52.52046,-9.66257 1.59718,-54.83572 120.34643,-94.72051 c -1.53688,-8.26365 -1.842,-16.89727 -0.78206,-25.68284 5.60569,-46.46412 47.80367,-79.57627 94.2678,-73.97058 z m 17.82461,40.16847 c -13.97207,-1.68567 -26.64302,8.25704 -28.32869,22.22911 -1.68566,13.97207 8.25357,26.67177 22.22564,28.35743 13.97207,1.68567 26.67525,-8.28232 28.36091,-22.25439 1.68567,-13.97207 -8.28579,-26.64649 -22.25786,-28.33215 z"
         style="fill:#fff8eb;stroke:none"
         inkscape:connector-curvature="0" />
      <path
         inkscape:connector-curvature="0"
         id="path3772"
         d="m 776.02617,685.70593 c -33.72074,-0.63594 -63.09205,24.35735 -67.21875,58.5625 -4.40181,36.4855 21.60825,69.62944 58.09375,74.03125 36.4855,4.40181 69.62944,-21.60825 74.03125,-58.09375 4.40181,-36.4855 -21.60825,-69.62944 -58.09375,-74.03125 -2.28034,-0.27511 -4.56445,-0.42635 -6.8125,-0.46875 z m 23.5,22.21875 c 1.28705,-0.0406 2.58852,0.0285 3.90625,0.1875 14.05578,1.69577 24.07077,14.47547 22.375,28.53125 -1.69577,14.05578 -14.44422,24.07077 -28.5,22.375 -14.05578,-1.69577 -24.10202,-14.47547 -22.40625,-28.53125 1.53679,-12.73805 12.18353,-22.16973 24.625,-22.5625 z"
         style="fill:#fff8eb;fill-opacity:0.23529412;fill-rule:evenodd;stroke:none" />
    </g>
  </g>
</svg>
