<svg xmlns="http://www.w3.org/2000/svg" xmlns:xlink="http://www.w3.org/1999/xlink" width="512" height="512">
 <defs>
  <linearGradient id="0">
   <stop stop-color="#359cc9"/>
   <stop offset="1" stop-color="#0078ad"/>
  </linearGradient>
  <filter x="-0.192" y="-0.192" width="1.384" height="1.384" color-interpolation-filters="sRGB">
   <feGaussianBlur stdDeviation="5.28"/>
  </filter>
  <clipPath>
   <rect width="84" height="84" rx="6" x="6" y="6" fill="#fff"/>
  </clipPath>
  <filter color-interpolation-filters="sRGB">
   <feGaussianBlur stdDeviation="1.71"/>
  </filter>
  <clipPath>
   <rect width="84" height="84" rx="6" x="6" y="6" fill="#fff"/>
  </clipPath>
  <clipPath>
   <rect width="84" height="84" rx="6" x="6" y="6" fill="#fff"/>
  </clipPath>
  <clipPath>
   <rect y="6" x="6" rx="6" height="84" width="84" fill="#fff"/>
  </clipPath>
  <clipPath>
   <rect width="84" height="84" rx="6" x="6" y="6" fill="#fff"/>
  </clipPath>
  <clipPath>
   <rect y="6" x="6" rx="6" height="84" width="84" fill="#fff"/>
  </clipPath>
  <radialGradient xlink:href="#0" id="1" cx="202.85715" cy="-316.57144" r="360" gradientUnits="userSpaceOnUse"/>
 </defs>
 <g transform="translate(0,-540.36218)">
  <path d="m 562.85715 -316.57144 c 0 198.82251 -161.17749 360 -360 360 -198.82251 0 -360 -161.17749 -360 -360 0 -198.82251 161.17749 -360 360 -360 198.82251 0 360 161.17749 360 360 z" transform="matrix(0.69444444,0,0,0.69444444,115.12698,1016.2035)" fill="url(#1)" fill-rule="evenodd"/>
  <text y="769.89191" x="344.33511" fill="#fff8eb" font-family="Gentium Book Basic" word-spacing="0" line-height="125%" letter-spacing="0" font-size="162.28572"><tspan y="769.89191" x="344.33511"/>
  </text>
  <text transform="scale(4.0128361,0.24920031)" font-size="58.966351" y="2650.9758" x="333.3078" fill="#fff8eb" font-family="Arial" text-anchor="middle"/>
  <text y="813.01349" x="949.15436" fill="#fff8eb" font-family="Gentium Book Basic" word-spacing="0" line-height="125%" letter-spacing="0" font-size="162.28572"><tspan y="813.01349" x="949.15436"/>
  </text>
  <text transform="scale(4.0128361,0.24920031)" font-size="58.966351" y="2824.0159" x="484.0289" fill="#fff8eb" font-family="Arial" text-anchor="middle"/>
  <text y="712.54462" x="1679.1272" fill="#fff8eb" font-family="Gentium Book Basic" word-spacing="0" line-height="125%" letter-spacing="0" font-size="162.28572"><tspan y="712.54462" x="1679.1272"/>
  </text>
  <text transform="scale(4.0128361,0.24920031)" font-size="58.966351" y="2420.8503" x="665.93842" fill="#fff8eb" font-family="Arial" text-anchor="middle"/>
  <text y="669.83276" x="971.43988" fill="#fff8eb" font-family="Gentium Book Basic" word-spacing="0" line-height="125%" letter-spacing="0" font-size="162.28572"><tspan y="669.83276" x="971.43988"/>
  </text>
  <text transform="scale(4.0128361,0.24920031)" font-size="58.966351" y="2249.4548" x="489.58249" fill="#fff8eb" font-family="Arial" text-anchor="middle"/>
  <text y="569.36383" x="1701.4128" fill="#fff8eb" font-family="Gentium Book Basic" word-spacing="0" line-height="125%" letter-spacing="0" font-size="162.28572"><tspan y="569.36383" x="1701.4128"/>
  </text>
  <text transform="scale(4.0128361,0.24920031)" font-size="58.966351" y="1846.2894" x="671.492" fill="#fff8eb" font-family="Arial" text-anchor="middle"/>
  <text y="1036.5042" x="-1470.9465" fill="#fff8eb" font-family="Gentium Book Basic" word-spacing="0" line-height="125%" letter-spacing="0" font-size="162.28572"><tspan y="1036.5042" x="-1470.9465"/>
  </text>
  <text transform="scale(4.0128361,0.24920031)" font-size="58.966351" y="3720.8472" x="-119.06095" fill="#fff8eb" font-family="Arial" text-anchor="middle"/>
  <path d="m 256 572.06307 c -123.86951 0 -224.29911 100.4296 -224.29911 224.29911 0 123.8695 100.4296 224.29912 224.29911 224.29912 123.86951 0 224.29911 -100.42962 224.29911 -224.29912 0 -123.86951 -100.4296 -224.29911 -224.29911 -224.29911 z m 0 38.96602 c 102.36678 0 185.33309 82.96631 185.33309 185.33309 0 102.36678 -82.96631 185.33309 -185.33309 185.33309 -102.36678 0 -185.33309 -82.96631 -185.33309 -185.33309 C 70.66691 693.9954 153.63322 611.02909 256 611.02909 z" fill="#fff8eb" fill-rule="evenodd"/>
  <text x="193.77956" y="923.59174" fill="#fff8eb" font-family="URW Bookman L" word-spacing="0" line-height="125%" font-weight="bold" letter-spacing="0" font-size="348.57401"><tspan x="193.77956" y="923.59174">i</tspan>
  </text>
 </g>
</svg>
