<?xml version="1.0" encoding="UTF-8" standalone="no"?>
<!-- Created with Inkscape (http://www.inkscape.org/) -->

<svg
   xmlns:dc="http://purl.org/dc/elements/1.1/"
   xmlns:cc="http://creativecommons.org/ns#"
   xmlns:rdf="http://www.w3.org/1999/02/22-rdf-syntax-ns#"
   xmlns:svg="http://www.w3.org/2000/svg"
   xmlns="http://www.w3.org/2000/svg"
   xmlns:sodipodi="http://sodipodi.sourceforge.net/DTD/sodipodi-0.dtd"
   xmlns:inkscape="http://www.inkscape.org/namespaces/inkscape"
   width="512"
   height="512"
   id="svg2"
   version="1.1"
   inkscape:version="0.48.4 r9939"
   sodipodi:docname="mail-queued.svg">
  <defs
     id="defs4" />
  <sodipodi:namedview
     id="base"
     pagecolor="#ffffff"
     bordercolor="#666666"
     borderopacity="1.0"
     inkscape:pageopacity="0.0"
     inkscape:pageshadow="2"
     inkscape:zoom="0.5"
     inkscape:cx="541.31363"
     inkscape:cy="176.37849"
     inkscape:document-units="px"
     inkscape:current-layer="layer1"
     showgrid="false"
     inkscape:window-width="1309"
     inkscape:window-height="750"
     inkscape:window-x="55"
     inkscape:window-y="-3"
     inkscape:window-maximized="1" />
  <metadata
     id="metadata7">
    <rdf:RDF>
      <cc:Work
         rdf:about="">
        <dc:format>image/svg+xml</dc:format>
        <dc:type
           rdf:resource="http://purl.org/dc/dcmitype/StillImage" />
        <dc:title />
      </cc:Work>
    </rdf:RDF>
  </metadata>
  <g
     inkscape:label="Layer 1"
     inkscape:groupmode="layer"
     id="layer1"
     transform="translate(0,-540.36218)">
    <g
       id="g3911"
       transform="matrix(0,-4.2349984,4.2349984,0,-4385.142,8054.7463)">
      <path
         sodipodi:type="arc"
         style="fill:#fff8eb;fill-rule:evenodd;stroke:none"
         id="path3004"
         sodipodi:cx="202.85715"
         sodipodi:cy="-316.57144"
         sodipodi:rx="360"
         sodipodi:ry="360"
         d="m 562.85715,-316.57144 c 0,198.82251 -161.17749,359.999998 -360,359.999998 -198.8225127,0 -360,-161.177488 -360,-359.999998 0,-198.82251 161.1774873,-360 360,-360 198.82251,0 360,161.17749 360,360 z"
         transform="matrix(0.1639775,0,0,0.1639775,1680.6408,1147.8123)" />
      <path
         inkscape:connector-curvature="0"
         style="font-size:medium;font-style:normal;font-variant:normal;font-weight:normal;font-stretch:normal;text-indent:0;text-align:start;text-decoration:none;line-height:normal;letter-spacing:normal;word-spacing:normal;text-transform:none;direction:ltr;block-progression:tb;writing-mode:lr-tb;text-anchor:start;baseline-shift:baseline;color:#000000;fill:#32465c;fill-opacity:1;fill-rule:evenodd;stroke:none;stroke-width:1;marker:none;visibility:visible;display:inline;overflow:visible;enable-background:accumulate;font-family:Sans;-inkscape-font-specification:Sans"
         d="m 1670.0107,1129.2884 c -0.203,-0.2672 -0.3955,-0.5416 -0.5937,-0.8125 l 34.0624,-34.0313 c 5.7768,-5.7766 15.0672,-5.7766 20.8438,0 l 34.0625,34.0313 c -0.1987,0.2714 -0.3902,0.5448 -0.5937,0.8125 l -34.1563,-34.1563 c -5.3976,-5.3977 -14.071,-5.3977 -19.4687,0 l -34.1563,34.1563 z"
         id="path3871" />
      <path
         style="fill:#fff8eb;fill-opacity:1;fill-rule:evenodd;stroke:none"
         d="m 1716.8345,1151.0071 c 0.7228,-0.037 1.4436,-0.091 2.1587,-0.1562 -0.7167,0.065 -1.4343,0.1191 -2.1587,0.1562 z m 17.9265,-4 c 2.2324,-0.9092 4.3695,-1.9434 6.4448,-3.125 -2.0646,1.172 -4.2248,2.2224 -6.4448,3.125 z m 6.4448,-3.125 c 0.731,-0.4162 1.4803,-0.8643 2.19,-1.3125 -0.7231,0.4562 -1.4448,0.8895 -2.19,1.3125 z m 2.19,-1.3125 c 0.6139,-0.3877 1.2173,-0.7766 1.8145,-1.1875 -0.5982,0.4113 -1.1995,0.7995 -1.8145,1.1875 z m 2.6905,-1.8125 c 0.4798,-0.344 0.9398,-0.7036 1.4078,-1.0625 -0.4654,0.3565 -0.9307,0.7207 -1.4078,1.0625 z m -64.573,-0.2187 c -0.3732,-0.2718 -0.7289,-0.563 -1.095,-0.8438 0.3669,0.2812 0.721,0.5716 1.095,0.8438 z m -4.9431,-4.0625 c -2.5037,-2.3094 -4.8098,-4.8598 -6.8514,-7.5938 l 34.1323,-34.0937 c 5.5935,-5.5872 14.5857,-5.5872 20.1791,0 l 34.1636,34.125 c -2.0454,2.7363 -4.3423,5.2527 -6.8515,7.5625 l -74.7407,0 c -0.01,-0.01 -0.026,0.01 -0.031,0 z"
         id="path3873"
         inkscape:connector-curvature="0" />
      <path
         inkscape:connector-curvature="0"
         style="fill:#fff8eb;fill-rule:evenodd;stroke:none"
         d="m 1713.9062,1151.0696 c -14.4091,0 -27.5251,-5.5395 -37.3437,-14.5937 l 74.6875,0 c -9.8186,9.0542 -22.9346,14.5937 -37.3438,14.5937 z"
         id="path3877" />
      <path
         id="path3909"
         d="m 1713.9062,1151.0696 c -0.9216,0 -1.8394,-0.018 -2.75,-0.062 l 11.625,-14.5312 10,0 -11.25,14.0625 c -2.4894,0.3446 -5.0408,0.5312 -7.625,0.5312 z"
         style="fill:#0078ad;fill-opacity:1;fill-rule:evenodd;stroke:none"
         inkscape:connector-curvature="0" />
      <path
         id="path3907"
         d="m 1704.5312,1150.2571 c -2.853,-0.4898 -5.6273,-1.1829 -8.3124,-2.0937 l 9.3437,-11.6875 10,0 -11.0313,13.7812 z"
         style="fill:#9a3034;fill-opacity:1;fill-rule:evenodd;stroke:none"
         inkscape:connector-curvature="0" />
      <path
         id="path3905"
         d="m 1731.7812,1148.1009 9.3126,-11.625 10,0 -0.375,0.4687 c -5.4437,4.8926 -11.8649,8.7287 -18.9376,11.1563 z"
         style="fill:#9a3034;fill-opacity:1;fill-rule:evenodd;stroke:none"
         inkscape:connector-curvature="0" />
      <path
         id="path3879"
         d="m 1691,1146.0696 c -2.4012,-1.1009 -4.7367,-2.3606 -6.9375,-3.7812 l 4.625,-5.8125 10,0 -7.6875,9.5937 z"
         style="fill:#0078ad;fill-opacity:1;fill-rule:evenodd;stroke:none"
         inkscape:connector-curvature="0" />
      <path
         id="path3779"
         d="m 1670.0107,1062.5809 c -0.203,0.2672 -0.3955,0.5416 -0.5937,0.8125 l 34.0624,34.0313 c 5.7768,5.7766 15.0672,5.7766 20.8438,0 l 34.0625,-34.0313 c -0.1987,-0.2714 -0.3902,-0.5448 -0.5937,-0.8125 l -34.1563,34.1563 c -5.3976,5.3977 -14.071,5.3977 -19.4687,0 l -34.1563,-34.1563 z"
         style="font-size:medium;font-style:normal;font-variant:normal;font-weight:normal;font-stretch:normal;text-indent:0;text-align:start;text-decoration:none;line-height:normal;letter-spacing:normal;word-spacing:normal;text-transform:none;direction:ltr;block-progression:tb;writing-mode:lr-tb;text-anchor:start;baseline-shift:baseline;color:#000000;fill:#32465c;fill-opacity:1;fill-rule:evenodd;stroke:none;stroke-width:1;marker:none;visibility:visible;display:inline;overflow:visible;enable-background:accumulate;font-family:Sans;-inkscape-font-specification:Sans"
         inkscape:connector-curvature="0" />
      <path
         inkscape:connector-curvature="0"
         id="rect3006"
         d="m 1716.8345,1040.8622 c 0.7228,0.037 1.4436,0.091 2.1587,0.1562 -0.7167,-0.065 -1.4343,-0.1191 -2.1587,-0.1562 z m 17.9265,4 c 2.2324,0.9092 4.3695,1.9434 6.4448,3.125 -2.0646,-1.172 -4.2248,-2.2224 -6.4448,-3.125 z m 6.4448,3.125 c 0.731,0.4162 1.4803,0.8643 2.19,1.3125 -0.7231,-0.4562 -1.4448,-0.8895 -2.19,-1.3125 z m 2.19,1.3125 c 0.6139,0.3877 1.2173,0.7766 1.8145,1.1875 -0.5982,-0.4113 -1.1995,-0.7995 -1.8145,-1.1875 z m 2.6905,1.8125 c 0.4798,0.344 0.9398,0.7036 1.4078,1.0625 -0.4654,-0.3565 -0.9307,-0.7207 -1.4078,-1.0625 z m -64.573,0.2187 c -0.3732,0.2718 -0.7289,0.563 -1.095,0.8438 0.3669,-0.2812 0.721,-0.5716 1.095,-0.8438 z m -4.9431,4.0625 c -2.5037,2.3094 -4.8098,4.8598 -6.8514,7.5938 l 34.1323,34.0937 c 5.5935,5.5872 14.5857,5.5872 20.1791,0 l 34.1636,-34.125 c -2.0454,-2.7363 -4.3423,-5.2527 -6.8515,-7.5625 l -74.7407,0 c -0.01,0.01 -0.026,-0.01 -0.031,0 z"
         style="fill:#fff8eb;fill-opacity:1;fill-rule:evenodd;stroke:none" />
      <path
         inkscape:connector-curvature="0"
         id="path3796"
         d="m 1713.9062,1040.7997 c -14.4091,0 -27.5251,5.5395 -37.3437,14.5937 l 74.6875,0 c -9.8186,-9.0542 -22.9346,-14.5937 -37.3438,-14.5937 z"
         style="fill:#fff8eb;fill-rule:evenodd;stroke:none" />
      <path
         id="path3899"
         d="m 1713.9062,1040.7997 c -0.9216,0 -1.8394,0.018 -2.75,0.062 l 11.625,14.5312 10,0 -11.25,-14.0625 c -2.4894,-0.3446 -5.0408,-0.5312 -7.625,-0.5312 z"
         style="fill:#0078ad;fill-opacity:1;fill-rule:evenodd;stroke:none"
         inkscape:connector-curvature="0" />
      <path
         id="path3897"
         d="m 1704.5312,1041.6122 c -2.853,0.4898 -5.6273,1.1829 -8.3124,2.0937 l 9.3437,11.6875 10,0 -11.0313,-13.7812 z"
         style="fill:#9a3034;fill-opacity:1;fill-rule:evenodd;stroke:none"
         inkscape:connector-curvature="0" />
      <path
         id="path3895"
         d="m 1731.7812,1043.7684 9.3126,11.625 10,0 -0.375,-0.4687 c -5.4437,-4.8927 -11.8649,-8.7287 -18.9376,-11.1563 z"
         style="fill:#9a3034;fill-opacity:1;fill-rule:evenodd;stroke:none"
         inkscape:connector-curvature="0" />
      <path
         id="rect3834"
         d="m 1691,1045.7997 c -2.4012,1.1008 -4.7367,2.3606 -6.9375,3.7812 l 4.625,5.8125 10,0 -7.6875,-9.5937 z"
         style="fill:#0078ad;fill-opacity:1;fill-rule:evenodd;stroke:none"
         inkscape:connector-curvature="0" />
    </g>
  </g>
</svg>
