<?xml version="1.0" encoding="UTF-8" standalone="no"?>
<!-- Created with Inkscape (http://www.inkscape.org/) -->

<svg
   xmlns:dc="http://purl.org/dc/elements/1.1/"
   xmlns:cc="http://creativecommons.org/ns#"
   xmlns:rdf="http://www.w3.org/1999/02/22-rdf-syntax-ns#"
   xmlns:svg="http://www.w3.org/2000/svg"
   xmlns="http://www.w3.org/2000/svg"
   xmlns:sodipodi="http://sodipodi.sourceforge.net/DTD/sodipodi-0.dtd"
   xmlns:inkscape="http://www.inkscape.org/namespaces/inkscape"
   width="512"
   height="512"
   id="svg2"
   version="1.1"
   inkscape:version="0.48.4 r9939"
   sodipodi:docname="mail-read.svg">
  <defs
     id="defs4" />
  <sodipodi:namedview
     id="base"
     pagecolor="#ffffff"
     bordercolor="#666666"
     borderopacity="1.0"
     inkscape:pageopacity="0.0"
     inkscape:pageshadow="2"
     inkscape:zoom="1"
     inkscape:cx="263.09699"
     inkscape:cy="265.55264"
     inkscape:document-units="px"
     inkscape:current-layer="layer1"
     showgrid="false"
     inkscape:window-width="1309"
     inkscape:window-height="750"
     inkscape:window-x="55"
     inkscape:window-y="-3"
     inkscape:window-maximized="1" />
  <metadata
     id="metadata7">
    <rdf:RDF>
      <cc:Work
         rdf:about="">
        <dc:format>image/svg+xml</dc:format>
        <dc:type
           rdf:resource="http://purl.org/dc/dcmitype/StillImage" />
        <dc:title />
      </cc:Work>
    </rdf:RDF>
  </metadata>
  <g
     inkscape:label="Layer 1"
     inkscape:groupmode="layer"
     id="layer1"
     transform="translate(0,-540.36218)">
    <path
       transform="matrix(0.69444445,0,0,0.69444445,115.127,1016.2035)"
       d="m 562.85715,-316.57144 a 360,360 0 1 1 -720,0 360,360 0 1 1 720,0 z"
       sodipodi:ry="360"
       sodipodi:rx="360"
       sodipodi:cy="-316.57144"
       sodipodi:cx="202.85715"
       id="path3004"
       style="fill:#fff8eb;fill-rule:evenodd;stroke:none"
       sodipodi:type="arc" />
    <path
       id="path3877"
       d="m 256.00591,1029.9981 c -61.02251,0 -116.56875,-23.4598 -158.150505,-61.80428 l 316.301445,0 c -41.58176,38.34448 -97.128,61.80428 -158.15094,61.80428 z"
       style="fill:#fff8eb;fill-rule:evenodd;stroke:none"
       inkscape:connector-curvature="0" />
    <path
       inkscape:connector-curvature="0"
       style="fill:#0078ad;fill-opacity:1;fill-rule:evenodd;stroke:none"
       d="m 256.00591,1029.9981 c -3.90297,0 -7.78985,-0.076 -11.64624,-0.2626 l 49.23186,-61.53956 42.34998,0 -47.64373,59.55466 c -10.54261,1.4594 -21.34778,2.2496 -32.29187,2.2496 z"
       id="path3909" />
    <path
       inkscape:connector-curvature="0"
       style="fill:#9a3034;fill-opacity:1;fill-rule:evenodd;stroke:none"
       d="m 216.3028,1026.5572 c -12.08245,-2.0743 -23.8316,-5.0096 -35.203,-8.8668 l 39.57056,-49.49658 42.34998,0 -46.71754,58.36338 z"
       id="path3907" />
    <path
       inkscape:connector-curvature="0"
       style="fill:#9a3034;fill-opacity:1;fill-rule:evenodd;stroke:none"
       d="m 331.70651,1017.4257 39.43885,-49.23188 42.34998,0 -1.58812,1.98494 c -23.05406,20.72016 -50.24784,36.96604 -80.20071,47.24694 z"
       id="path3905" />
    <path
       inkscape:connector-curvature="0"
       style="fill:#0078ad;fill-opacity:1;fill-rule:evenodd;stroke:none"
       d="m 158.99819,1008.8231 c -10.16907,-4.6623 -20.05991,-9.99711 -29.3803,-16.01335 l 19.58687,-24.61593 42.34998,0 -32.55655,40.62928 z"
       id="path3879" />
    <path
       inkscape:connector-curvature="0"
       style="font-size:medium;font-style:normal;font-variant:normal;font-weight:normal;font-stretch:normal;text-indent:0;text-align:start;text-decoration:none;line-height:normal;letter-spacing:normal;word-spacing:normal;text-transform:none;direction:ltr;block-progression:tb;writing-mode:lr-tb;text-anchor:start;baseline-shift:baseline;color:#000000;fill:#32465c;fill-opacity:1;fill-rule:evenodd;stroke:none;stroke-width:1;marker:none;visibility:visible;display:inline;overflow:visible;enable-background:accumulate;font-family:Sans;-inkscape-font-specification:Sans"
       d="m 70.108542,655.24861 c -0.859704,1.13159 -1.674941,2.29368 -2.514318,3.44094 l 144.254206,144.1225 c 24.46474,24.46389 63.80957,24.46389 88.27346,0 l 144.25464,-144.1225 c -0.8415,-1.14938 -1.6525,-2.30723 -2.51432,-3.44094 L 297.21033,799.90049 c -22.85883,22.85925 -59.59066,22.85925 -82.44991,0 L 70.108542,655.24861 z"
       id="path3779" />
    <path
       style="fill:#707175;fill-opacity:1;fill-rule:evenodd;stroke:none"
       d="m 268.40726,563.26995 c 3.06106,0.1567 6.11364,0.38539 9.14209,0.66151 -3.03522,-0.27528 -6.07426,-0.50439 -9.14209,-0.66151 z m 75.9187,16.94 c 9.45421,3.85046 18.50482,8.23029 27.29372,13.23437 -8.74358,-4.96342 -17.89202,-9.41187 -27.29372,-13.23437 z m 27.29372,13.23437 c 3.09578,1.7626 6.26907,3.6603 9.27464,5.55843 -3.06232,-1.93201 -6.11872,-3.76703 -9.27464,-5.55843 z m 9.27464,5.55843 c 2.59987,1.64191 5.15527,3.2889 7.68441,5.02906 -2.53338,-1.74185 -5.07988,-3.38588 -7.68441,-5.02906 z m 11.39427,7.67594 c 2.03195,1.45683 3.98005,2.97974 5.96203,4.49968 -1.97097,-1.50978 -3.94152,-3.05216 -5.96203,-4.49968 z m -273.46655,0.92619 c -1.58051,1.15107 -3.0869,2.3843 -4.63733,3.57349 1.55382,-1.19088 3.05344,-2.42072 4.63733,-3.57349 z m -20.934026,17.20468 c -10.603165,9.78031 -20.369495,20.58125 -29.015668,32.15973 L 213.42258,801.35606 c 23.68847,23.66178 61.77042,23.66178 85.45846,0 L 443.56383,656.83674 c -8.66227,-11.58823 -18.38963,-22.24518 -29.01609,-32.02718 l -316.526747,0 c -0.04235,0.0423 -0.11011,-0.0424 -0.131285,0 z"
       id="rect3006"
       inkscape:connector-curvature="0" />
    <path
       inkscape:connector-curvature="0"
       id="path3873"
       d="m 268.40726,1029.7334 c 3.06106,-0.1567 6.11364,-0.3854 9.14209,-0.6615 -3.03522,0.2753 -6.07426,0.5044 -9.14209,0.6615 z m 75.9187,-16.94 c 9.45421,-3.8504 18.50482,-8.2303 27.29372,-13.23434 -8.74358,4.96344 -17.89202,9.41184 -27.29372,13.23434 z m 27.29372,-13.23434 c 3.09578,-1.7626 6.26907,-3.66031 9.27464,-5.55843 -3.06232,1.932 -6.11872,3.76703 -9.27464,5.55843 z m 9.27464,-5.55843 c 2.59987,-1.64191 5.15527,-3.2889 7.68441,-5.02906 -2.53338,1.74185 -5.07988,3.38588 -7.68441,5.02906 z m 11.39427,-7.67594 c 2.03195,-1.45684 3.98005,-2.97974 5.96203,-4.49968 -1.97097,1.50977 -3.94152,3.05216 -5.96203,4.49968 z M 118.82204,985.3985 c -1.58051,-1.15107 -3.0869,-2.3843 -4.63733,-3.57349 1.55382,1.19088 3.05344,2.42072 4.63733,3.57349 z M 97.888014,968.19382 C 87.284849,958.41351 77.518519,947.61257 68.872346,936.03409 L 213.42258,791.64732 c 23.68847,-23.66178 61.77042,-23.66178 85.45846,0 l 144.68279,144.51932 c -8.66227,11.58823 -18.38963,22.24518 -29.01609,32.02718 l -316.526747,0 c -0.04235,-0.0423 -0.11011,0.0424 -0.131285,0 z"
       style="fill:#fff8eb;fill-opacity:1;fill-rule:evenodd;stroke:none" />
    <path
       id="path3871"
       d="m 70.108542,937.75477 c -0.859704,-1.13159 -1.674941,-2.29368 -2.514318,-3.44094 L 211.84843,790.19133 c 24.46474,-24.46389 63.80957,-24.46389 88.27346,0 l 144.25464,144.1225 c -0.8415,1.14938 -1.6525,2.30723 -2.51432,3.44094 L 297.21033,793.10289 c -22.85883,-22.85925 -59.59066,-22.85925 -82.44991,0 L 70.108542,937.75477 z"
       style="font-size:medium;font-style:normal;font-variant:normal;font-weight:normal;font-stretch:normal;text-indent:0;text-align:start;text-decoration:none;line-height:normal;letter-spacing:normal;word-spacing:normal;text-transform:none;direction:ltr;block-progression:tb;writing-mode:lr-tb;text-anchor:start;baseline-shift:baseline;color:#000000;fill:#32465c;fill-opacity:1;fill-rule:evenodd;stroke:none;stroke-width:1;marker:none;visibility:visible;display:inline;overflow:visible;enable-background:accumulate;font-family:Sans;-inkscape-font-specification:Sans"
       inkscape:connector-curvature="0" />
  </g>
</svg>
