<?xml version="1.0" encoding="UTF-8" standalone="no"?>
<!-- Created with Inkscape (http://www.inkscape.org/) -->

<svg
   xmlns:dc="http://purl.org/dc/elements/1.1/"
   xmlns:cc="http://creativecommons.org/ns#"
   xmlns:rdf="http://www.w3.org/1999/02/22-rdf-syntax-ns#"
   xmlns:svg="http://www.w3.org/2000/svg"
   xmlns="http://www.w3.org/2000/svg"
   xmlns:xlink="http://www.w3.org/1999/xlink"
   xmlns:sodipodi="http://sodipodi.sourceforge.net/DTD/sodipodi-0.dtd"
   xmlns:inkscape="http://www.inkscape.org/namespaces/inkscape"
   width="512"
   height="512"
   id="svg2"
   version="1.1"
   inkscape:version="0.48.4 r9939"
   sodipodi:docname="favorites.svg">
  <sodipodi:namedview
     id="base"
     pagecolor="#ffffff"
     bordercolor="#666666"
     borderopacity="1.0"
     inkscape:pageopacity="0.0"
     inkscape:pageshadow="2"
     inkscape:zoom="0.7"
     inkscape:cx="293.95606"
     inkscape:cy="301.51799"
     inkscape:document-units="px"
     inkscape:current-layer="layer1"
     showgrid="false"
     inkscape:window-width="1309"
     inkscape:window-height="750"
     inkscape:window-x="55"
     inkscape:window-y="-3"
     inkscape:window-maximized="1"
     showguides="true"
     inkscape:guide-bbox="true" />
  <defs
     id="defs4">
    <linearGradient
       y2="7.0165396"
       x2="45.447727"
       y1="92.539597"
       x1="45.447727"
       gradientTransform="scale(1.0058652,0.994169)"
       gradientUnits="userSpaceOnUse"
       id="linearGradient3167"
       xlink:href="#ButtonShadow"
       inkscape:collect="always" />
    <filter
       x="-0.192"
       y="-0.192"
       width="1.3839999"
       height="1.3839999"
       color-interpolation-filters="sRGB"
       id="filter3794">
      <feGaussianBlur
         id="feGaussianBlur3796"
         stdDeviation="5.28" />
    </filter>
    <clipPath
       id="clipPath3613">
      <rect
         width="84"
         height="84"
         rx="6"
         ry="6"
         x="6"
         y="6"
         id="rect3615"
         style="fill:#ffffff;fill-opacity:1;fill-rule:nonzero;stroke:none" />
    </clipPath>
    <linearGradient
       id="linearGradient3737-4">
      <stop
         id="stop3739-2"
         style="stop-color:#ffffff;stop-opacity:1"
         offset="0" />
      <stop
         id="stop3741-9"
         style="stop-color:#ffffff;stop-opacity:0"
         offset="1" />
    </linearGradient>
    <linearGradient
       x1="48"
       y1="20.220806"
       x2="48"
       y2="138.66119"
       id="linearGradient3613"
       xlink:href="#linearGradient3737-4"
       gradientUnits="userSpaceOnUse" />
    <filter
       color-interpolation-filters="sRGB"
       id="filter3174">
      <feGaussianBlur
         id="feGaussianBlur3176"
         stdDeviation="1.71" />
    </filter>
    <linearGradient
       x1="45.447727"
       y1="92.539597"
       x2="45.447727"
       y2="7.0165396"
       id="ButtonShadow"
       gradientUnits="userSpaceOnUse"
       gradientTransform="scale(1.0058652,0.994169)">
      <stop
         id="stop3750"
         style="stop-color:#000000;stop-opacity:1"
         offset="0" />
      <stop
         id="stop3752"
         style="stop-color:#000000;stop-opacity:0.58823532"
         offset="1" />
    </linearGradient>
  </defs>
  <metadata
     id="metadata7">
    <rdf:RDF>
      <cc:Work
         rdf:about="">
        <dc:format>image/svg+xml</dc:format>
        <dc:type
           rdf:resource="http://purl.org/dc/dcmitype/StillImage" />
        <dc:title />
      </cc:Work>
    </rdf:RDF>
  </metadata>
  <g
     transform="translate(0,-540.36217)"
     id="layer1"
     inkscape:groupmode="layer"
     inkscape:label="Layer 1">
    <g
       style="display:none"
       id="layer1-2"
       inkscape:label="Livello 1"
       transform="translate(-980.68797,-95.94172)" />
    <g
       style="display:none"
       id="layer2"
       transform="matrix(5.0048665,0,0,5.0048665,112.23108,535.29647)">
      <rect
         style="opacity:0.9;fill:url(#linearGradient3167);fill-opacity:1;fill-rule:nonzero;stroke:none;filter:url(#filter3174)"
         id="rect3745"
         y="7"
         x="5"
         ry="6"
         rx="6"
         height="85"
         width="86" />
    </g>
    <g
       style="display:none"
       id="layer5"
       transform="matrix(5.0048665,0,0,5.0048665,112.23108,535.29647)">
      <rect
         style="opacity:0.1;fill:url(#linearGradient3613);fill-opacity:1;fill-rule:nonzero;stroke:#ffffff;stroke-width:0.5;stroke-linecap:round;stroke-linejoin:miter;stroke-miterlimit:4;stroke-opacity:1;stroke-dasharray:none;stroke-dashoffset:0;filter:url(#filter3794)"
         id="rect3171"
         clip-path="url(#clipPath3613)"
         y="15"
         x="15"
         ry="12"
         rx="12"
         height="66"
         width="66" />
    </g>
    <path
       id="path23392"
       d="m -316.78308,591.21157 c -7.14531,0 -13.73984,3.81198 -17.3125,10 -3.572,6.18782 -3.57244,13.81236 0,20 0.93042,1.61104 2.04646,3.04899 3.34375,4.3125 0.0826,0.0834 0.16601,0.1682 0.25,0.25 l 251.0625,250.8125 c 3.49073,2.78916 7.9381,4.35751 12.40625,4.375 7.25001,-0.0194 14.30437,-4.32132 17.65625,-10.75 3.35187,-6.42869 2.85356,-14.70088 -1.28125,-20.65625 -0.24864,-0.36263 -0.50925,-0.71705 -0.78125,-1.0625 l -250.90625,-251.125 c -0.0831,-0.0838 -0.16538,-0.16767 -0.25,-0.25 -3.62369,-3.65228 -8.63636,-5.90625 -14.1875,-5.90625 z m 60,0 c -7.14531,0 -13.73984,3.81198 -17.3125,10 -3.572,6.18782 -3.57244,13.81236 0,20 0.93042,1.61104 2.04646,3.04899 3.34375,4.3125 0.0826,0.0834 0.16601,0.1682 0.25,0.25 l 251.0625,250.8125 c 3.49073,2.78916 7.9381,4.35751 12.40625,4.375 7.25001,-0.0194 14.30437,-4.32132 17.65625,-10.75 3.35187,-6.42869 2.85356,-14.70088 -1.28125,-20.65625 -0.24864,-0.36263 -0.50925,-0.71705 -0.78125,-1.0625 l -250.90625,-251.125 c -0.0831,-0.0838 -0.16538,-0.16767 -0.25,-0.25 -3.62369,-3.65228 -8.63636,-5.90625 -14.1875,-5.90625 z m 60,0 c -7.14531,0 -13.73984,3.81198 -17.3125,10 -3.572,6.18782 -3.57244,13.81236 0,20 0.93042,1.61104 2.04646,3.04899 3.34375,4.3125 0.0826,0.0834 0.16601,0.1682 0.25,0.25 l 251.0625,250.8125 c 3.49073,2.78916 7.9381,4.35751 12.40625,4.375 7.25001,-0.0194 14.30437,-4.32132 17.65625,-10.75 3.35187,-6.42869 2.85356,-14.70088 -1.28125,-20.65625 -0.24864,-0.36263 -0.50925,-0.71705 -0.78125,-1.0625 l -250.90625,-251.125 c -0.0831,-0.0838 -0.16538,-0.16767 -0.25,-0.25 -3.62369,-3.65228 -8.63636,-5.90625 -14.1875,-5.90625 z"
       style="color:#000000;fill:#000000;fill-opacity:0.31372549;fill-rule:nonzero;stroke:none;stroke-width:1;marker:none;visibility:visible;display:none;overflow:visible;enable-background:accumulate"
       inkscape:connector-curvature="0" />
    <path
       style="fill:#000000;fill-opacity:0.31372549;display:none"
       d="m -361.72058,733.24282 c -13.68822,0 -15.12334,0.90811 -18.53125,11.46875 -3.10272,9.6149 -5.58214,11.94264 -17.5,16.5625 -10.82927,4.19761 -13.95272,4.18843 -19.25,0 -6.42335,-5.07882 -14.49754,-3.37778 -22.4375,4.6875 -8.94958,9.09087 -9.56672,12.08171 -4.53125,21.6875 4.51032,8.60399 4.35382,12.31767 -1.0625,24.21875 -4.1018,9.01279 -6.071,10.85652 -14.4375,13.59375 -9.5265,3.11674 -11.25,6.04487 -11.25,19.03125 0.5279,4.71107 0.0399,10.88912 2.8125,14.125 l 27.4998,27.468 c 1.89574,5.36628 1.00954,6.65222 -2.34375,12.96875 -5.4123,10.19505 -5.11929,12.6863 3.8125,21.78125 l 303.8716,303.77778 c 0.89361,0.8261 1.71879,1.5093 2.5,2.125 5.4413,4.2885 8.61909,3.6237 16.34375,-0.6562 6.40819,-3.5506 8.97406,-4.3252 15.15625,-2.3125 l 27.0893,27.0601 c 1.96656,1.8769 3.99006,2.125 13.65625,2.125 13.92231,0 16.40271,-1.3453 18.28125,-9.75 2.49744,-11.1737 3.89535,-12.7018 15.71875,-17.5625 12.90303,-5.3046 13.89086,-5.387 19.71875,-1.4063 8.99544,6.1443 14.28384,5.595 22.53125,-2.3125 9.68494,-9.2858 11.58765,-14.7284 7.34375,-21.1875 -6.2342,-9.4882 -6.42153,-12.1884 -1.59375,-23.7812 4.69773,-11.2805 7.33865,-13.5392 17.59375,-15.1875 7.61758,-1.2244 9.08108,-3.8602 9.5625,-16.9688 0.33544,-9.1338 0.0112,-13.7319 -2.5,-16.6562 l -28.03025,-28.061 c -1.71725,-5.771 -1.12477,-8.7527 1.5625,-12.4063 5.49514,-7.4711 4.89238,-14.3792 -1.9375,-21.7187 -0.10464,-0.1125 -0.20925,-0.2022 -0.3125,-0.3125 -0.62602,-0.6688 -1.23371,-1.3152 -1.8125,-1.9063 L -284.65823,763.24432 c -0.0975,-0.0969 -0.21623,-0.18666 -0.3125,-0.28125 -0.11124,-0.10789 -0.20283,-0.20774 -0.3125,-0.3125 -7.56242,-7.33508 -11.42574,-7.39724 -20.6875,-2.5 -6.90096,3.64894 -9.81198,4.29749 -14.8125,2.59375 l -26.34255,-26.341 c -2.72899,-2.83931 -6.74787,-3.1605 -14.5948,-3.1605 z"
       id="path3132"
       inkscape:connector-curvature="0"
       sodipodi:nodetypes="sscssssscccsccssccsssssssssccsssccccsccs" />
    <g
       style="display:none"
       id="layer1-2-9"
       inkscape:label="Livello 1"
       transform="translate(-1014.6976,454.44253)" />
    <path
       sodipodi:type="arc"
       style="fill:#0078ad;fill-rule:evenodd;stroke:none"
       id="path3089"
       sodipodi:cx="34.285713"
       sodipodi:cy="93.428574"
       sodipodi:rx="94.285713"
       sodipodi:ry="94.285713"
       d="m 128.57143,93.428574 c 0,52.072566 -42.213155,94.285716 -94.285717,94.285716 C -17.786848,187.71429 -60,145.50114 -60,93.428574 c 0,-52.072562 42.213152,-94.28571359 94.285713,-94.28571359 52.072562,0 94.285717,42.21315159 94.285717,94.28571359 z"
       transform="matrix(2.6515152,0,0,2.6515152,165.09091,548.63489)" />
    <path
       sodipodi:type="star"
       style="fill:#fff8eb;fill-rule:evenodd;stroke:none"
       id="path3861"
       sodipodi:sides="5"
       sodipodi:cx="287.14285"
       sodipodi:cy="247.71429"
       sodipodi:r1="253.75546"
       sodipodi:r2="126.87773"
       sodipodi:arg1="0.94531129"
       sodipodi:arg2="1.5736298"
       inkscape:flatsided="false"
       inkscape:rounded="0.1"
       inkscape:randomized="0"
       d="M 435.71428,453.42858 C 422.0535,463.29469 303.63431,374.63926 286.78335,374.59152 269.93239,374.54377 151.01268,462.5267 137.40804,452.58333 123.80339,442.63995 171.52617,302.62057 166.36435,286.5796 161.20253,270.53864 40.77758,184.62749 46.030223,168.61604 51.282865,152.60458 199.19636,154.72327 212.85714,144.85715 c 13.66077,-9.86611 58.15377,-150.9450464 75.00473,-150.8972996 16.85095,0.047747 60.54374,141.3765496 74.14839,151.3199296 13.60464,9.94337 161.52778,8.66293 166.6896,24.7039 5.16182,16.04097 -115.74805,101.26828 -121.00069,117.27974 -5.25264,16.01146 41.67588,156.29904 28.01511,166.16516 z"
       transform="matrix(0.81978014,0,0,0.81978014,20.412556,599.16644)"
       inkscape:transform-center-x="-0.18214547"
       inkscape:transform-center-y="-19.691186" />
  </g>
</svg>
