<svg xmlns="http://www.w3.org/2000/svg" xmlns:xlink="http://www.w3.org/1999/xlink" width="512" height="512">
 <defs>
  <linearGradient id="0">
   <stop stop-color="#44afde"/>
   <stop stop-color="#0078ad" offset="1"/>
  </linearGradient>
  <radialGradient xlink:href="#0" id="1" gradientUnits="userSpaceOnUse" gradientTransform="matrix(0.69444444,0,0,0.69444444,115.12698,1016.2035)" cx="202.85715" cy="-316.57144" r="360"/>
 </defs>
 <g transform="translate(0,-540.36218)">
  <path d="M 506 796.36218 C 506 934.43337 394.07119 1046.3622 256 1046.3622 117.92881 1046.3622 6 934.43337 6 796.36218 6 658.291 117.92881 546.36219 256 546.36219 c 138.07119 0 250 111.92881 250 249.99999 z" fill="url(#1)" fill-rule="evenodd"/>
  <path d="m 256 593.28057 c -112.15885 0 -203.08155 90.92272 -203.08155 203.08155 0 112.15885 90.9227 203.08159 203.08155 203.08159 112.15885 0 203.08155 -90.92273 203.08155 -203.08159 0 -112.15883 -90.9227 -203.08155 -203.08155 -203.08155 z" fill="none" stroke="#fff8eb" stroke-width="30"/>
  <path d="m 270.9042 648.27859 -52.7038 5.23165 0 216.17478 52.12448 -7.55446 0 -92.39742 69.49975 102.27828 54.44136 -17.43573 -71.23714 -98.20792 71.8163 -92.97967 -55.59952 -12.78661 -68.92067 92.97966 0.58097 -95.30256 z m -118.72812 52.87965 c -0.58917 0 -1.29349 0.33258 -1.73787 0.59948 l -20.27066 20.92002 c -0.86329 0.89923 -1.21388 2.42957 -0.58105 3.48802 l 23.74578 39.51736 c -4.26291 7.19209 -7.40431 15.06629 -9.84595 23.23986 l -44.01642 9.3021 c -1.22721 0.33259 -2.31506 1.0648 -2.31506 2.32959 l 0 29.05733 c 0 1.23141 1.13404 2.59586 2.31506 2.89551 l 42.8581 10.46011 c 2.28196 9.47497 5.74754 18.48072 10.42479 26.72777 l -24.90377 37.78019 c -0.69085 1.0648 -0.33151 2.59596 0.58105 3.48779 l 20.27097 20.33451 c 0.8633 0.83251 2.42123 1.26467 3.47471 0.59949 l 38.80415 -23.82241 c 7.6298 4.41639 15.62792 8.10036 24.32501 10.45683 l 9.26638 43.58435 c 0.26586 1.26465 1.06539 2.32964 2.31531 2.32964 l 28.95788 0 c 1.2205 0 2.60369 -1.13081 2.89548 -2.32964 l 10.42486 -43.58435 c 8.96476 -2.42957 17.66767 -6.41985 25.48324 -11.03918 l 38.22468 25.56945 c 1.05199 0.66518 2.58052 0.33258 3.47503 -0.59949 l 20.2705 -20.34098 c 0.86842 -0.89923 1.21735 -2.42956 0.58104 -3.48451 l -13.89989 -23.23996 -4.63328 1.7305 c -0.66113 0.33259 -1.34985 0 -1.73787 -0.5995 0 0 -8.76006 -13.31568 -20.27073 -30.22223 -13.76055 27.02392 -41.80328 45.33167 -74.13263 45.33167 -45.93218 0 -83.3994 -37.01142 -83.3994 -83.10179 0 -33.90312 20.29516 -63.06384 49.22885 -76.12638 l 0 -21.50269 c -5.26626 1.86375 -10.22308 3.74752 -15.05853 6.39655 0 0 -0.56663 0 -0.58097 0 l -38.80375 -25.57284 c -0.52761 -0.33361 -1.14745 -0.63233 -1.73811 -0.5656 z" fill="#fff8eb"/>
 </g>
</svg>
