<svg xmlns="http://www.w3.org/2000/svg" width="512" height="512">
 <path d="M 506.00001 256 A 250.00001 250.00001 0 1 1 6 256 a 250.00001 250.00001 0 1 1 500.00001 0 z" fill="#cd1d31" fill-rule="evenodd"/>
 <path d="m 251.36792 6 c -3.21479 0 -6.40874 0.099119 -9.59375 0.222188 132.04379 5.10166 237.53125 114.9788 237.53125 249.79366 0 134.81467 -105.48772 244.66 -237.53125 249.76186 3.1852 0.12307 6.37877 0.22229 9.59375 0.22229 136.49323 0 247.1562 -111.91742 247.1562 -249.98415 C 498.52412 117.94912 387.86115 6 251.36792 6 z" fill="#fff8eb" fill-rule="evenodd"/>
 <path d="m 96.00001 63.90625 c -14.90078 12.42414 -28.33342 26.53452 -40 42.0625 l 0 300.0625 c 11.66658 15.52798 25.09922 29.63837 40 42.0625 l 0 -384.1875 z" fill="#661019" fill-rule="evenodd"/>
 <path d="m 56.00001 105.96875 c -31.39595 41.78736 -50 93.73959 -50 150.03125 0 56.29166 18.60405 108.24389 50 150.03125 l 0 -300.0625 z" fill="#8a1926" fill-rule="evenodd"/>
 <path d="m 240.17348 116.12937 c -13.64594 -0.2387 -25.42456 13.3341 -22.53778 26.8938 1.9417 20.7206 15.30203 37.5345 25.72793 54.6445 1.17192 6.3694 -2.1882 12.5737 -2.41267 18.8993 -6.79769 37.133 -17.16774 74.0699 -33.122 108.1515 -19.74135 9.0884 -42.09476 18.0634 -53.6417 37.6512 -7.32839 13.5904 2.99023 31.9329 18.13657 33.366 14.05241 1.9223 24.48203 -10.1198 32.16376 -20.2098 8.02051 -10.8528 13.2979 -23.7754 19.97148 -35.4396 40.39004 -16.2648 82.87253 -27.6328 126.24701 -31.9474 17.53649 12.5513 36.11889 27.3591 58.60411 28.2532 13.07157 -0.1946 23.64886 -12.8827 22.2129 -25.7707 -0.8417 -11.7336 -11.26617 -19.9622 -22.06513 -22.1651 -17.4167 -5.2466 -36.07121 -2.3735 -53.78943 -2.2461 -34.0936 -27.2421 -65.56928 -58.5863 -90.35789 -94.4532 1.84011 -21.8031 5.53442 -45.9211 -5.81906 -65.7567 -4.31035 -6.2555 -11.61637 -10.5416 -19.3181 -9.8709 z m 0.64985 19.8009 c 3.83861 0.7397 4.0942 6.4576 5.1692 9.5163 1.0115 6.232 0.90118 12.5911 0.82708 18.8847 -4.57174 -8.5451 -10.51018 -17.4716 -9.45228 -27.603 1.20518 -0.047 2.2721 -0.6579 3.456 -0.798 z m 21.14947 85.0256 c 20.31977 25.2628 42.89092 48.5285 67.52477 69.6282 -32.47896 4.9532 -64.74737 13.251 -95.64531 24.4408 11.85147 -30.9747 20.87512 -62.976 26.82085 -95.6353 0.43323 0.5221 0.86647 1.0442 1.29969 1.5663 z m 126.74919 84.937 c 7.8785 0.76 16.97337 0.3035 23.27625 5.7333 0.59213 4.9011 -5.40326 5.616 -8.59565 3.842 -6.66113 -2.2235 -13.24977 -5.02 -18.90464 -9.2798 1.40864 -0.087 2.81223 -0.268 4.22404 -0.2955 z m -196.8733 51.5414 c -3.74652 6.9675 -9.19948 13.5369 -14.88734 18.4709 -1.89271 3.0641 -7.08629 -2.6009 -4.6966 -4.9945 4.93478 -7.7238 13.54936 -11.8179 21.17902 -16.4318 -0.5317 0.9851 -1.06338 1.9702 -1.59508 2.9554 z" fill="#fff8eb"/>
</svg>
