<?xml version="1.0" encoding="UTF-8" standalone="no"?>
<!-- Created with Inkscape (http://www.inkscape.org/) -->

<svg
   xmlns:dc="http://purl.org/dc/elements/1.1/"
   xmlns:cc="http://creativecommons.org/ns#"
   xmlns:rdf="http://www.w3.org/1999/02/22-rdf-syntax-ns#"
   xmlns:svg="http://www.w3.org/2000/svg"
   xmlns="http://www.w3.org/2000/svg"
   xmlns:sodipodi="http://sodipodi.sourceforge.net/DTD/sodipodi-0.dtd"
   xmlns:inkscape="http://www.inkscape.org/namespaces/inkscape"
   width="512"
   height="512"
   id="svg2"
   version="1.1"
   inkscape:version="0.48.4 r9939"
   sodipodi:docname="audacity.svg">
  <defs
     id="defs4" />
  <sodipodi:namedview
     id="base"
     pagecolor="#ffffff"
     bordercolor="#666666"
     borderopacity="1.0"
     inkscape:pageopacity="0.0"
     inkscape:pageshadow="2"
     inkscape:zoom="1.4142136"
     inkscape:cx="249.04794"
     inkscape:cy="275.7556"
     inkscape:document-units="px"
     inkscape:current-layer="layer1"
     showgrid="false"
     inkscape:window-width="1309"
     inkscape:window-height="750"
     inkscape:window-x="55"
     inkscape:window-y="-3"
     inkscape:window-maximized="1" />
  <metadata
     id="metadata7">
    <rdf:RDF>
      <cc:Work
         rdf:about="">
        <dc:format>image/svg+xml</dc:format>
        <dc:type
           rdf:resource="http://purl.org/dc/dcmitype/StillImage" />
        <dc:title />
      </cc:Work>
    </rdf:RDF>
  </metadata>
  <g
     inkscape:label="Layer 1"
     inkscape:groupmode="layer"
     id="layer1"
     transform="translate(0,-540.36218)">
    <path
       sodipodi:type="arc"
       style="fill:#0078ad;fill-rule:evenodd;stroke:none"
       id="path2985"
       sodipodi:cx="202.85715"
       sodipodi:cy="-316.57144"
       sodipodi:rx="360"
       sodipodi:ry="360"
       d="m 562.85715,-316.57144 c 0,198.82251 -161.17749,359.999998 -360,359.999998 -198.8225127,0 -360,-161.177488 -360,-359.999998 0,-198.82251 161.1774873,-360 360,-360 198.82251,0 360,161.17749 360,360 z"
       transform="matrix(0.69444444,0,0,0.69444444,115.12698,1016.2035)" />
    <path
       transform="matrix(0.60277777,0,0,0.60277777,133.72222,987.18445)"
       d="m 562.85715,-316.57144 c 0,198.82251 -161.17749,359.999998 -360,359.999998 -198.8225127,0 -360,-161.177488 -360,-359.999998 0,-198.82251 161.1774873,-360 360,-360 198.82251,0 360,161.17749 360,360 z"
       sodipodi:ry="360"
       sodipodi:rx="360"
       sodipodi:cy="-316.57144"
       sodipodi:cx="202.85715"
       id="path3983"
       style="fill:#62c0dc;fill-rule:evenodd;stroke:none;opacity:0.3"
       sodipodi:type="arc" />
    <path
       style="font-size:medium;font-style:normal;font-variant:normal;font-weight:normal;font-stretch:normal;text-indent:0;text-align:start;text-decoration:none;line-height:normal;letter-spacing:normal;word-spacing:normal;text-transform:none;direction:ltr;block-progression:tb;writing-mode:lr-tb;text-anchor:start;baseline-shift:baseline;color:#000000;fill:#ffd459;fill-opacity:1;stroke:none;stroke-width:15;marker:none;visibility:visible;display:inline;overflow:visible;enable-background:accumulate;font-family:Sans;-inkscape-font-specification:Sans"
       d="M 268.4375 152.59375 A 7.50075 7.50075 0 0 0 261.3125 158.75 L 236.46875 298.9375 L 228.5625 226.53125 A 7.50075 7.50075 0 0 0 214.21875 224.375 L 194.4375 269.96875 L 146.375 269.96875 L 146.375 284.96875 L 199.34375 284.96875 A 7.50075 7.50075 0 0 0 206.21875 280.4375 L 216.71875 256.28125 L 227.25 352.71875 A 7.50075 7.50075 0 0 0 242.09375 353.21875 L 266.84375 213.59375 L 278.9375 327.78125 A 7.50075 7.50075 0 0 0 292.6875 331.0625 L 320.375 288.03125 L 362.75 288.03125 L 362.75 273.03125 L 316.3125 273.03125 A 7.50075 7.50075 0 0 0 310 276.46875 L 291.59375 305.03125 L 276.15625 159.28125 A 7.50075 7.50075 0 0 0 268.4375 152.59375 z "
       transform="translate(0,540.36218)"
       id="path3999" />
    <path
       style="fill:#fff8eb;fill-rule:evenodd;stroke:none"
       d="M 255.96875 34.09375 C 254.63899 34.09375 253.34278 34.15771 252.03125 34.21875 C 250.73166 34.27935 249.42127 34.36994 248.125 34.46875 C 247.871 34.48815 247.59797 34.4798 247.34375 34.5 C 247.28325 34.502 247.21651 34.494 247.15625 34.5 C 247.13265 34.502 247.11795 34.498 247.09375 34.5 C 246.83414 34.507 246.57081 34.50665 246.3125 34.53125 C 246.14066 34.54665 245.95293 34.57755 245.78125 34.59375 C 244.88938 34.68245 244.01178 34.82597 243.125 34.9375 C 175.94947 42.9837 122.76107 113.19912 118.5625 200.59375 L 118.5625 213.28125 L 116.78125 213.28125 L 115.65625 213.28125 L 115.65625 213.34375 C 88.710048 214.21946 67.1875 246.77545 67.1875 287.125 C 67.1875 327.47454 88.710048 359.99927 115.65625 360.875 L 115.65625 360.9375 L 116.78125 360.9375 L 133.5625 360.9375 L 133.5625 215.9375 L 133.625 215.9375 L 133.625 200.59375 C 133.76767 197.95784 134.03238 195.34838 134.28125 192.75 C 134.45781 189.62351 134.69005 186.5429 135 183.46875 L 144.4375 183.46875 C 144.56755 181.10431 144.80441 178.73703 145.03125 176.40625 C 148.12834 122.43659 174.07149 76.7385 210.34375 55.53125 C 210.4782 55.45975 210.61532 55.38341 210.75 55.3125 C 221.36765 49.72221 232.71809 46.01308 244.5625 44.5625 C 245.34872 44.46136 246.14678 44.36161 246.9375 44.28125 C 247.08971 44.26645 247.25389 44.2639 247.40625 44.25 C 247.71148 44.2206 248.03789 44.18255 248.34375 44.15625 C 250.88013 43.94886 253.39268 43.84375 255.96875 43.84375 C 256.93055 43.84375 257.88754 43.8446 258.84375 43.875 C 258.89895 43.877 258.97609 43.873 259.03125 43.875 C 259.9318 43.9056 260.85464 43.97375 261.75 44.03125 C 261.8472 44.03825 261.934 44.02425 262.03125 44.03125 C 262.5765 44.06805 263.11301 44.10965 263.65625 44.15625 C 264.11332 44.19365 264.60681 44.2375 265.0625 44.28125 C 265.851 44.36135 266.59097 44.4617 267.375 44.5625 C 279.12201 45.99575 290.39408 49.61778 300.9375 55.125 C 337.40687 76.03846 363.57017 121.62466 366.90625 175.59375 L 366.96875 175.59375 C 367.22609 178.19003 367.38606 180.79954 367.53125 183.4375 L 377 183.4375 C 377.28 186.2129 377.51606 189.02549 377.6875 191.84375 L 377.71875 191.84375 C 378.00109 194.7381 378.21572 197.65291 378.375 200.59375 L 378.375 215.9375 L 378.40625 215.9375 L 378.40625 360.9375 L 395.21875 360.9375 L 396.34375 360.9375 L 396.34375 360.875 C 423.28995 359.99927 444.78125 327.47454 444.78125 287.125 C 444.78125 246.77545 423.28995 214.21946 396.34375 213.34375 L 396.34375 213.28125 L 395.21875 213.28125 L 393.40625 213.28125 L 393.40625 200.59375 L 393.46875 200.59375 C 389.26648 113.17911 336.04599 42.95671 268.84375 34.9375 C 267.95944 34.8263 267.10811 34.68215 266.21875 34.59375 C 265.70476 34.54525 265.17178 34.54124 264.65625 34.5 C 264.04351 34.4485 263.4275 34.3531 262.8125 34.3125 C 262.7248 34.3065 262.62325 34.31272 262.53125 34.3125 C 262.50745 34.3105 262.49255 34.3145 262.46875 34.3125 C 262.38385 34.3055 262.27311 34.28665 262.1875 34.28125 C 262.0875 34.27425 262.00622 34.28825 261.90625 34.28125 C 261.02202 34.22655 260.1398 34.18639 259.25 34.15625 C 259.1542 34.15225 259.0337 34.16025 258.9375 34.15625 C 257.95443 34.12575 256.95755 34.09375 255.96875 34.09375 z M 140.875 213.3125 L 140.875 360.96875 L 152.03125 360.96875 C 152.06895 360.9696 152.11837 360.96875 152.15625 360.96875 C 155.21508 360.96875 157.625 358.20468 157.625 354.75 L 157.625 219.5625 C 157.625 216.10782 155.21508 213.3125 152.15625 213.3125 C 152.11805 213.3125 152.06933 213.31164 152.03125 213.3125 L 151.5625 213.3125 L 140.875 213.3125 z M 359.84375 213.3125 C 356.78492 213.3125 354.34375 216.10782 354.34375 219.5625 L 354.34375 354.75 C 354.34375 358.20468 356.78492 360.96875 359.84375 360.96875 C 359.88163 360.96875 359.93105 360.9696 359.96875 360.96875 L 371.125 360.96875 L 371.125 213.3125 L 360.40625 213.3125 L 359.96875 213.3125 C 359.93067 213.31164 359.88205 213.3125 359.84375 213.3125 z "
       transform="translate(0,540.36218)"
       id="path4123" />
  </g>
</svg>
