<svg xmlns="http://www.w3.org/2000/svg" xmlns:xlink="http://www.w3.org/1999/xlink" width="512" height="512">
 <defs>
  <linearGradient y2="138.66119" x2="0" y1="20.220806" gradientUnits="userSpaceOnUse" xlink:href="#1"/>
  <linearGradient y2="138.66119" x2="0" y1="20.220806" gradientUnits="userSpaceOnUse" xlink:href="#1"/>
  <linearGradient y2="138.66119" x2="0" y1="20.220806" gradientUnits="userSpaceOnUse" xlink:href="#1"/>
  <linearGradient y2="138.66119" x2="0" y1="20.220806" gradientUnits="userSpaceOnUse" xlink:href="#1"/>
  <linearGradient y2="138.66119" x2="0" y1="20.220806" gradientUnits="userSpaceOnUse" xlink:href="#1"/>
  <linearGradient y2="138.66119" x2="0" y1="20.220806" gradientUnits="userSpaceOnUse" xlink:href="#1"/>
  <linearGradient y2="138.66119" x2="0" y1="20.220806" gradientUnits="userSpaceOnUse" xlink:href="#1"/>
  <linearGradient gradientTransform="scale(1.0058652,0.994169)" gradientUnits="userSpaceOnUse" id="0" y2="7.01654" x2="0" y1="92.5396">
   <stop/>
   <stop offset="1" stop-opacity="0.588235"/>
  </linearGradient>
  <filter color-interpolation-filters="sRGB">
   <feGaussianBlur stdDeviation="1.71"/>
  </filter>
  <linearGradient id="1">
   <stop stop-color="#fff"/>
   <stop offset="1" stop-color="#fff" stop-opacity="0"/>
  </linearGradient>
  <clipPath>
   <rect y="6" x="6" rx="6" height="84" width="84" fill="#fff"/>
  </clipPath>
  <filter color-interpolation-filters="sRGB" height="1.384" width="1.384" y="-0.192" x="-0.192">
   <feGaussianBlur stdDeviation="5.28"/>
  </filter>
  <linearGradient xlink:href="#0" gradientUnits="userSpaceOnUse" gradientTransform="scale(1.0058652,0.994169)" y1="92.5396" x2="0" y2="7.01654"/>
  <clipPath>
   <rect y="6" x="6" rx="6" height="84" width="84" fill="#fff"/>
  </clipPath>
  <linearGradient xlink:href="#0" gradientUnits="userSpaceOnUse" gradientTransform="scale(1.0058652,0.994169)" y1="92.5396" x2="0" y2="7.01654"/>
  <clipPath>
   <rect width="84" height="84" rx="6" x="6" y="6" fill="#fff"/>
  </clipPath>
  <linearGradient y2="7.01654" x2="0" y1="92.5396" gradientTransform="scale(1.0058652,0.994169)" gradientUnits="userSpaceOnUse" xlink:href="#0"/>
  <clipPath>
   <rect y="6" x="6" rx="6" height="84" width="84" fill="#fff"/>
  </clipPath>
  <linearGradient xlink:href="#0" gradientUnits="userSpaceOnUse" gradientTransform="scale(1.0058652,0.994169)" y1="92.5396" x2="0" y2="7.01654"/>
  <clipPath>
   <rect y="6" x="6" rx="6" height="84" width="84" fill="#fff"/>
  </clipPath>
  <linearGradient xlink:href="#0" gradientUnits="userSpaceOnUse" gradientTransform="scale(1.0058652,0.994169)" y1="92.5396" x2="0" y2="7.01654"/>
  <clipPath>
   <rect y="6" x="6" rx="6" height="84" width="84" fill="#fff"/>
  </clipPath>
  <linearGradient xlink:href="#0" gradientUnits="userSpaceOnUse" gradientTransform="scale(1.0058652,0.994169)" y1="92.5396" x2="0" y2="7.01654"/>
  <clipPath>
   <rect width="84" height="84" rx="6" x="6" y="6" fill="#fff"/>
  </clipPath>
  <linearGradient y2="7.01654" x2="0" y1="92.5396" gradientTransform="scale(1.0058652,0.994169)" gradientUnits="userSpaceOnUse" xlink:href="#0"/>
 </defs>
 <g transform="translate(0,-540.36218)">
  <path d="m 562.85715 -316.57144 c 0 198.82251 -161.17749 360 -360 360 -198.82251 0 -360 -161.17749 -360 -360 0 -198.82251 161.17749 -360 360 -360 198.82251 0 360 161.17749 360 360 z" transform="matrix(0.67480258,0,0,0.67480258,119.11147,1009.9854)" fill="#fff8eb" fill-rule="evenodd"/>
  <path d="M 256 6 C 211.42564 6 169.57796 17.674122 133.34375 38.125 L 147.15625 38.125 C 151.35062 38.125 154.75 42.40513 154.75 47.71875 L 154.75 77 C 154.75 82.31362 151.35062 86.59375 147.15625 86.59375 L 129.96875 86.59375 C 125.77438 86.59375 122.40625 82.31362 122.40625 77 L 122.40625 47.71875 C 122.40625 46.531331 122.59822 45.42297 122.90625 44.375 C 102.5812 57.18925 84.22457 72.835491 68.40625 90.78125 L 443.59375 90.78125 C 427.77543 72.835491 409.4188 57.18925 389.09375 44.375 C 389.40178 45.42297 389.59375 46.531331 389.59375 47.71875 L 389.59375 77 C 389.59375 82.31362 386.22562 86.59375 382.03125 86.59375 L 364.84375 86.59375 C 360.64938 86.59375 357.28125 82.31362 357.28125 77 L 357.28125 47.71875 C 357.28125 42.40513 360.64938 38.125 364.84375 38.125 L 378.65625 38.125 C 342.42204 17.674122 300.57436 6 256 6 z M 186.0625 38.125 L 203.21875 38.125 C 207.41312 38.125 210.8125 42.40513 210.8125 47.71875 L 210.8125 77 C 210.8125 82.31362 207.41312 86.59375 203.21875 86.59375 L 186.0625 86.59375 C 181.86813 86.59375 178.46875 82.31362 178.46875 77 L 178.46875 47.71875 C 178.46875 42.40513 181.86813 38.125 186.0625 38.125 z M 244.625 38.125 L 261.8125 38.125 C 266.00687 38.125 269.375 42.40513 269.375 47.71875 L 269.375 77 C 269.375 82.31362 266.00687 86.59375 261.8125 86.59375 L 244.625 86.59375 C 240.43063 86.59375 237.0625 82.31362 237.0625 77 L 237.0625 47.71875 C 237.0625 42.40513 240.43063 38.125 244.625 38.125 z M 303.21875 38.125 L 320.40625 38.125 C 324.60062 38.125 327.96875 42.40513 327.96875 47.71875 L 327.96875 77 C 327.96875 82.31362 324.60062 86.59375 320.40625 86.59375 L 303.21875 86.59375 C 299.02438 86.59375 295.65625 82.31362 295.65625 77 L 295.65625 47.71875 C 295.65625 42.40513 299.02438 38.125 303.21875 38.125 z" transform="translate(0,540.36218)" fill="#924565"/>
  <path d="M 60.65625 412 C 106.46778 469.28948 176.9416 506 256 506 C 335.0584 506 405.53222 469.28948 451.34375 412 L 60.65625 412 z M 129.96875 421.34375 L 147.15625 421.34375 C 151.35062 421.34375 154.75 425.62388 154.75 430.9375 L 154.75 460.21875 C 154.75 465.53245 151.35062 469.8125 147.15625 469.8125 L 129.96875 469.8125 C 125.77438 469.8125 122.40625 465.53245 122.40625 460.21875 L 122.40625 430.9375 C 122.40625 425.62388 125.77438 421.34375 129.96875 421.34375 z M 186.0625 421.34375 L 203.21875 421.34375 C 207.41312 421.34375 210.8125 425.62388 210.8125 430.9375 L 210.8125 460.21875 C 210.8125 465.53245 207.41312 469.8125 203.21875 469.8125 L 186.0625 469.8125 C 181.86813 469.8125 178.46875 465.53245 178.46875 460.21875 L 178.46875 430.9375 C 178.46875 425.62388 181.86813 421.34375 186.0625 421.34375 z M 244.625 421.34375 L 261.8125 421.34375 C 266.00687 421.34375 269.375 425.62388 269.375 430.9375 L 269.375 460.21875 C 269.375 465.53245 266.00687 469.8125 261.8125 469.8125 L 244.625 469.8125 C 240.43063 469.8125 237.0625 465.53245 237.0625 460.21875 L 237.0625 430.9375 C 237.0625 425.62388 240.43063 421.34375 244.625 421.34375 z M 303.21875 421.34375 L 320.40625 421.34375 C 324.60062 421.34375 327.96875 425.62388 327.96875 430.9375 L 327.96875 460.21875 C 327.96875 465.53245 324.60062 469.8125 320.40625 469.8125 L 303.21875 469.8125 C 299.02438 469.8125 295.65625 465.53245 295.65625 460.21875 L 295.65625 430.9375 C 295.65625 425.62388 299.02438 421.34375 303.21875 421.34375 z M 364.84375 421.34375 L 382.03125 421.34375 C 386.22562 421.34375 389.59375 425.62388 389.59375 430.9375 L 389.59375 460.21875 C 389.59375 465.53245 386.22562 469.8125 382.03125 469.8125 L 364.84375 469.8125 C 360.64938 469.8125 357.28125 465.53245 357.28125 460.21875 L 357.28125 430.9375 C 357.28125 425.62388 360.64938 421.34375 364.84375 421.34375 z" transform="translate(0,540.36218)" fill="#924565"/>
  <path d="M 256 6 C 117.92881 6 6 117.92881 6 256 C 6 394.07119 117.92881 506 256 506 C 394.07119 506 506 394.07119 506 256 C 506 117.92881 394.07119 6 256 6 z M 256 31.03125 C 380.23363 31.03125 480.96875 131.76637 480.96875 256 C 480.96875 380.23363 380.23363 480.96875 256 480.96875 C 131.76637 480.96875 31.03125 380.23363 31.03125 256 C 31.03125 131.76637 131.76637 31.03125 256 31.03125 z" transform="translate(0,540.36218)" fill="#924565" fill-rule="evenodd"/>
  <text x="151.07915" y="916.04852" font-family="Gentium Book Basic" word-spacing="0" line-height="125%" letter-spacing="0" font-size="208.33334"><tspan x="151.07915" y="916.04852"/>
  </text>
  <text y="1194.1646" x="-2207.752" font-family="Gentium Book Basic" word-spacing="0" line-height="125%" letter-spacing="0" font-size="208.33334"><tspan y="1194.1646" x="-2207.752"/>
  </text>
  <text y="966.87964" x="-1919.5367" font-family="Gentium Book Basic" word-spacing="0" line-height="125%" letter-spacing="0" font-size="208.33334"><tspan y="966.87964" x="-1919.5367"/>
  </text>
  <text y="709.9798" x="2275.0623" font-family="Gentium Book Basic" word-spacing="0" line-height="125%" letter-spacing="0" font-size="208.33334"><tspan y="709.9798" x="2275.0623"/>
  </text>
  <text x="147.1317" y="855.01404" font-family="Gentium Book Basic" word-spacing="0" line-height="125%" letter-spacing="0" font-size="208.33334"><tspan x="147.1317" y="855.01404"/>
  </text>
  <text y="1133.1301" x="-2211.6992" font-family="Gentium Book Basic" word-spacing="0" line-height="125%" letter-spacing="0" font-size="208.33334"><tspan y="1133.1301" x="-2211.6992"/>
  </text>
  <text y="905.84521" x="-1923.4839" font-family="Gentium Book Basic" word-spacing="0" line-height="125%" letter-spacing="0" font-size="208.33334"><tspan y="905.84521" x="-1923.4839"/>
  </text>
  <g transform="matrix(1.1794593,0,0,1.1794593,-41.175497,-156.10715)" fill="#924565">
   <path d="m 176.91311 779.51129 -26.68151 24.53152 4.04567 106.90719 203.67126 -5.71868 -4.94462 -130.66423 -176.0908 4.9442 z m 13.11137 49.19758 126.03487 -3.53879 0.28095 7.42411 -126.03487 3.53879 -0.28095 -7.42411 z m 1.00279 26.49832 126.03486 -3.53875 0.28095 7.42411 -126.03485 3.53875 -0.28096 -7.42411 z" fill-rule="evenodd"/>
   <path d="m 146.56413 750.1913 1.21402 25.11643 1.14773 23.74644 26.42308 -24.80961 0.76219 -0.71565 -29.54702 -23.33761 z" fill-rule="evenodd"/>
   <path d="m 145.96965 741.13627 1.34869 4.91978 34.16369 18.77426 -0.59006 0.8154 171.30015 -31.98218 -8.09222 -29.51868 -198.13025 36.99142 z m 42.00641 -4.5517 21.92844 -4.0941 14.1024 22.75484 -21.92853 4.09408 -14.10231 -22.75482 z m 53.40233 -9.97032 21.92844 -4.09411 14.1023 22.7548 -21.92845 4.09412 -14.10229 -22.75481 z m 51.33843 -9.58503 21.92844 -4.09411 14.10241 22.75483 -21.92856 4.09409 -14.10229 -22.75481 z" fill-rule="evenodd"/>
  </g>
 </g>
</svg>
