<svg xmlns="http://www.w3.org/2000/svg" xmlns:xlink="http://www.w3.org/1999/xlink" width="512" height="512">
 <defs>
  <linearGradient id="0">
   <stop stop-color="#666566"/>
   <stop offset="1" stop-color="#282629"/>
  </linearGradient>
  <radialGradient xlink:href="#0" id="1" cx="202.85715" cy="-316.57144" r="360" gradientUnits="userSpaceOnUse"/>
 </defs>
 <g transform="translate(0,-540.36218)">
  <path d="m 562.85715 -316.57144 c 0 198.82251 -161.17749 360 -360 360 -198.82251 0 -360 -161.17749 -360 -360 0 -198.82251 161.17749 -360 360 -360 198.82251 0 360 161.17749 360 360 z" transform="matrix(0.69444444,0,0,0.69444444,115.12698,1016.2035)" fill="url(#1)" fill-rule="evenodd"/>
  <g transform="matrix(0.90857385,0,0,0.90857385,1332.4465,74.767329)" fill="#fff8eb">
   <path transform="translate(0,540.36218)" d="m -1210.2812,88.8125 c -86.0509,0 -155.8126,73.88567 -155.8126,165.03125 0,90.96898 69.4917,164.74571 155.3126,165.03125 0.1666,5.5e-4 0.3332,0 0.5,0 l 171.5312,0 0,-0.75 0.094,0 0,-201.46875 -19.8126,0 -51.6874,0 -54.6563,75.65625 -37.0313,0 0,-203.25 c -2.7998,-0.15863 -5.6003,-0.25 -8.4374,-0.25 z" fill-rule="evenodd"/>
   <path transform="matrix(1.0787401,0,0,1.0787401,98.769461,534.92651)" d="m -1088.2374 145.36514 c 0 24.79829 -20.103 44.90128 -44.9013 44.90128 -24.7983 0 -44.9013 -20.10299 -44.9013 -44.90128 0 -24.79829 20.103 -44.90128 44.9013 -44.90128 24.7983 0 44.9013 20.10299 44.9013 44.90128 z" fill-rule="evenodd"/>
  </g>
  <path d="m 256 562.62564 c -129.08913 0 -233.73654 104.64741 -233.73654 233.73654 0 129.08913 104.64741 233.73652 233.73654 233.73652 129.08913 0 233.73654 -104.64739 233.73654 -233.73652 C 489.73654 667.27305 385.08913 562.62564 256 562.62564 z m 0 24.45468 c 115.57972 0 209.28186 93.70214 209.28186 209.28186 C 465.28186 911.9419 371.57972 1005.644 256 1005.644 140.42028 1005.644 46.718142 911.9419 46.718142 796.36218 46.718142 680.78246 140.42028 587.08032 256 587.08032 z" fill="#fff8eb" fill-rule="evenodd"/>
 </g>
</svg>
