<svg xmlns="http://www.w3.org/2000/svg" width="512" height="512">
 <g transform="translate(0,464)">
  <path d="M 506 -208.00002 C 506 -69.928809 394.07117 42 256 42 117.92881 42 5.999999 -69.928809 5.999999 -208.00002 5.999999 -346.07119 117.92881 -458 256 -458 c 138.07117 0 250 111.92881 250 249.99998 z" fill="#62c0dc"/>
  <path d="m 392.23937 -292.1538 c -10.02455 4.42834 -20.7997 7.42119 -32.10621 8.76702 11.53947 -6.89062 20.40457 -17.79977 24.57896 -30.79966 -10.80242 6.38049 -22.76552 11.01363 -35.4999 13.50857 -10.19612 -10.81826 -24.72474 -17.57871 -40.80365 -17.57871 -30.87182 0 -55.90314 24.92528 -55.90314 55.66793 0 4.36179 0.49489 8.61093 1.44829 12.68646 -46.46033 -2.32269 -87.65249 -24.48427 -115.2233 -58.16422 -4.81201 8.22154 -7.56865 17.78362 -7.56865 27.98591 0 19.31393 9.86821 36.35265 24.86894 46.33521 -9.16371 -0.2884 -17.78395 -2.79344 -25.3204 -6.96267 -0.005 0.23229 -0.005 0.4657 -0.005 0.70023 0 26.97247 19.26972 49.47058 44.84249 54.5866 -4.69025 1.27121 -9.62885 1.95237 -14.72725 1.95237 -3.6023 0 -7.10417 -0.35012 -10.51807 -0.99874 7.11372 22.1141 27.75878 38.21119 52.22104 38.65894 -19.13191 14.93182 -43.23564 23.83037 -69.42707 23.83037 -4.51239 0 -8.96205 -0.26372 -13.33552 -0.77879 24.7391 15.79657 54.12381 25.01359 85.69316 25.01359 102.8239 0 159.05392 -84.82718 159.05392 -158.39127 0 -2.41213 -0.0561 -4.81348 -0.16383 -7.20125 10.92373 -7.84841 20.40054 -17.65322 27.895 -28.81744" fill="#fff" color="#bebebe"/>
  <path d="m 256 -430.52385 c -122.89653 0 -222.52385 99.62734 -222.52385 222.52385 0 122.89655 99.62732 222.52385 222.52385 222.52385 122.89651 0 222.52385 -99.6273 222.52385 -222.52385 0 -122.89651 -99.62734 -222.52385 -222.52385 -222.52385 z m 0 29.45659 c 106.63218 0 193.06726 86.43508 193.06726 193.06726 0 106.63221 -86.43508 193.06726 -193.06726 193.06726 C 149.3678 -14.932744 62.932744 -101.36778 62.932744 -208 62.932744 -314.63218 149.3678 -401.06726 256 -401.06726 z" fill="#fff8eb"/>
 </g>
</svg>
