<svg xmlns="http://www.w3.org/2000/svg" xmlns:xlink="http://www.w3.org/1999/xlink" width="512" height="512">
 <defs>
  <path id="0" d="m 562.85715 -316.57144 a 360 360 0 1 1 -720 0 360 360 0 1 1 720 0 z"/>
  <linearGradient id="1">
   <stop stop-color="#bfa57b"/>
   <stop stop-color="#a98c5f" offset="1"/>
  </linearGradient>
  <linearGradient xlink:href="#1" id="2" y1="-671.61023" x2="0" y2="31.474655" gradientUnits="userSpaceOnUse"/>
 </defs>
 <use height="512" width="512" xlink:href="#0" transform="matrix(0.69444445,0,0,0.69444445,115.12701,475.84132)" fill="url(#2)" fill-rule="evenodd"/>
 <path d="M 16.21875 326.96875 C 46.806772 430.4699 142.58303 506 256 506 C 369.41697 506 465.19323 430.4699 495.78125 326.96875 L 16.21875 326.96875 z" fill="#282629" fill-opacity="0.235294"/>
 <path d="m 187.70286,142.851 0,-51.615529 43.24016,0 0,51.615529 -43.24016,0 m 93.35427,0 0,-51.615529 43.46166,0 0,51.615529 -43.46166,0 m -52.3316,257.87439 c -22.61796,0 -40.94876,-5.6899 -54.99252,-17.0697 -13.89598,-11.51523 -20.84384,-28.043 -20.84384,-49.5834 0,-23.1659 8.2784,-40.3033 24.83532,-51.41226 16.55678,-11.24427 41.5399,-18.35663 74.9493,-21.33714 4.58262,-0.54174 9.53491,-1.08345 14.85692,-1.62574 5.32165,-0.54172 11.30881,-1.08342 17.96125,-1.62573 6.65216,-0.54172 11.90003,-1.0163 15.74386,-1.42246 l 0,-11.78622 c -2.7e-4,-13.54716 -3.40037,-23.36905 -10.20033,-29.46547 -6.80031,-6.23163 -17.14829,-9.34757 -31.04414,-9.3478 -19.80924,2.3e-4 -44.27485,5.08048 -73.39709,15.24083 -0.14775,-0.40627 -2.58718,-6.5703 -7.31757,-18.49218 -4.73063,-11.9214 -7.16977,-18.01783 -7.31757,-18.28894 28.67877,-11.24411 59.72293,-16.86621 93.13245,-16.86655 32.8179,3.4e-4 56.69226,6.57079 71.62322,19.71152 14.93044,13.00566 22.39591,34.13954 22.39604,63.40175 l 0,145.70208 -43.01821,0 c -0.14775,-0.54174 -1.77413,-5.08024 -4.87842,-13.61511 -3.10453,-8.53485 -4.65676,-13.07324 -4.65664,-13.61507 -12.12209,10.83785 -24.02237,18.83085 -35.70076,23.97881 -11.53071,5.01253 -25.57447,7.51878 -42.13127,7.51878 m 15.74376,-37.79718 c 13.45236,0 25.13086,-2.91267 35.03562,-8.73811 10.05216,-5.96075 17.22191,-13.14084 21.50909,-21.54028 l 0,-43.08068 c -0.44334,1.1e-4 -4.36117,0.27087 -11.75237,0.81258 -7.2438,0.54172 -11.16127,0.81259 -11.75252,0.81259 -23.50491,1.8967 -40.72697,5.96098 -51.66632,12.19261 -10.93935,6.23185 -16.40902,16.25689 -16.40902,30.07524 0,9.48323 3.03042,16.79875 9.09158,21.9467 6.0608,5.01264 14.7089,7.5189 25.94394,7.51879" fill="#282629"/>
</svg>
