<svg xmlns="http://www.w3.org/2000/svg" xmlns:xlink="http://www.w3.org/1999/xlink" width="512" height="512">
 <defs>
  <linearGradient id="0">
   <stop stop-color="#b7e198"/>
   <stop offset="1" stop-color="#8db173"/>
  </linearGradient>
  <filter color-interpolation-filters="sRGB">
   <feGaussianBlur stdDeviation="1.71"/>
  </filter>
  <radialGradient xlink:href="#0" id="1" cx="256" cy="256.00004" r="250" gradientTransform="translate(0,1.8944003e-6)" gradientUnits="userSpaceOnUse"/>
 </defs>
 <path d="m 506 256.00004 c 0 138.07119 -111.92881 250 -250 250 -138.07119 0 -250 -111.92881 -250 -250 C 6 117.92886 117.92881 6.00005 256 6.00005 c 138.07119 0 250 111.92881 250 249.99999 z" fill="url(#1)" fill-rule="evenodd"/>
 <path d="m 256 45.93774 c -116.01418 0 -210.06224 94.04808 -210.06224 210.06224 0 116.01418 94.04806 210.06228 210.06224 210.06228 116.01418 0 210.06224 -94.04809 210.06224 -210.06228 C 466.06224 139.98582 372.01418 45.93774 256 45.93774 z" fill="none" stroke="#fff8eb" stroke-width="29.875519"/>
 <g transform="matrix(0.96377659,0,0,0.96377659,-583.05022,30.882702)">
  <path d="m 797.67749 143.73931 0 128.71875 c 0 13.65851 4.99565 25.62702 14.71875 35.3125 8.31058 8.20303 18.3017 13.54906 29.53125 14.75 l 31.78125 0 0 -25.21875 -27.28125 -0.125 c -13.25804 0 -24.59375 -12.88487 -24.59375 -29.46875 l 0 -123.96875 -24.15625 0 z m 91.0625 21.125 c -10.97526 0 -20.72707 4.08487 -28.5625 12 -7.83154 7.91091 -11.93754 17.79192 -11.9375 28.9375 l 0 56.34375 25.53125 0 0 -56.34375 c 0 -4.27193 1.41856 -7.60635 4.46875 -10.6875 3.06018 -3.091 6.29227 -4.5 10.5 -4.5 4.2959 0 7.49566 1.40196 10.5625 4.5 3.05019 3.08115 4.4375 6.41557 4.4375 10.6875 l 0 56.34375 25.53125 0 0 -56.34375 c 0 -4.27193 1.41853 -7.60635 4.46875 -10.6875 3.06685 -3.09804 6.23531 -4.5 10.53125 -4.5 4.20774 0 7.4711 1.409 10.53125 4.5 3.05018 3.08115 4.4375 6.41557 4.4375 10.6875 l 0.125 65.8125 c 0 1.65615 -0.17492 3.29605 -0.53125 4.875 0.36018 -1.58765 0.5625 -3.20791 0.5625 -4.875 l 0 -9.8125 25.46875 0 -0.0625 -56 c 0 -11.14558 -4.13712 -21.02659 -11.96875 -28.9375 -7.83539 -7.91513 -17.58728 -12 -28.5625 -12 -10.77313 0 -20.19017 4.00812 -27.8125 11.34375 -7.60008 -7.32354 -16.95009 -11.34375 -27.71875 -11.34375 z m 69.9375 112.21875 c -0.0792 0.31073 -0.15772 0.63071 -0.25 0.9375 0.0933 -0.30876 0.16994 -0.62469 0.25 -0.9375 z m 9.5625 31.84375 c -3.20593 2.98042 -6.64672 5.49005 -10.28125 7.5 3.6474 -2.00624 7.0707 -4.52082 10.28125 -7.5 z" fill="#fff8eb" fill-rule="evenodd"/>
  <path d="m 873.70564 297.26877 0 25.23654 60.02203 0 c 14.09902 0 26.41256 -5.25843 36.40541 -15.4318 l 0.0854 0 c 8.49883 -8.73188 13.45699 -19.17391 14.66445 -30.94887 l 0 -14.32345 -25.49233 0 0 9.80474 c 0 14.04257 -13.34228 25.83336 -30.52257 25.83336 l -55.1623 -0.17052 z" fill="#fff8eb" fill-rule="evenodd" fill-opacity="0.508197"/>
  <path d="m 859.77308 373.59414 c -58.08531 0 -108.49201 -44.03414 -108.49201 -102.06738 l -0.0521 -70.46487 0 -17.9685 -36.82557 0 0 -89.53093 155.29435 0.73134 48.5785 0.10449 c 58.13751 0 108.49195 43.98173 108.49195 102.06708 l 0 177.12873 -166.99503 0 z M 1003.1056 326.0794 c 0 -38.58713 0 -129.614 0 -129.614 0 -43.3025 -37.97467 -78.40453 -84.82944 -78.40453 l -48.6307 0 0 -0.10449 -131.52747 -0.57472 0 42.04918 c 0 0 5.28278 0 14.73369 0 10.00295 0 22.03955 9.40019 22.03955 23.19465 l 0.10449 88.84943 c 0 43.30252 37.97486 78.4045 84.77732 78.4045 l 115.55511 0 c 14.81424 0 27.77745 -9.38174 27.77745 -23.80002 z" fill="#fff8eb" fill-rule="evenodd"/>
 </g>
</svg>
