<svg xmlns="http://www.w3.org/2000/svg" xmlns:xlink="http://www.w3.org/1999/xlink" width="512" height="512">
 <defs>
  <linearGradient id="0">
   <stop stop-color="#44afde"/>
   <stop offset="1" stop-color="#1c93c8"/>
  </linearGradient>
  <radialGradient xlink:href="#0" id="1" gradientUnits="userSpaceOnUse" cx="202.85715" cy="-316.57144" r="360" gradientTransform="matrix(0.69444444,0,0,0.69444444,115.12698,475.84132)"/>
 </defs>
 <path d="m 506 256.00004 c 0 138.07119 -111.92881 250 -250 250 -138.07119 0 -250 -111.92881 -250 -250 C 6 117.92886 117.92881 6.00005 256 6.00005 c 138.07119 0 250 111.92881 250 249.99999 z" fill="url(#1)" fill-rule="evenodd"/>
 <path d="m 256 45.93774 c -116.01418 0 -210.06224 94.04808 -210.06224 210.06224 0 116.01418 94.04806 210.06228 210.06224 210.06228 116.01418 0 210.06224 -94.04809 210.06224 -210.06228 C 466.06224 139.98582 372.01418 45.93774 256 45.93774 z" fill="none" stroke="#fff8eb" stroke-width="29.875519"/>
 <path d="m 263.81602 93.69436 c -37.25149 1.172961 99.24861 184.02674 -5.86438 172.35067 87.65188 23.57877 107.72641 -86.29343 89.82548 -140.0367 -17.7324 -53.23726 -26.95528 -20.0231 -79.80161 -31.847058 -1.57715 -0.35307 -2.95786 -0.504853 -4.15949 -0.466907 z M 159.36861 119.17491 c -57.62061 -0.0738 -27.93114 18.7126 -55.84204 63.86401 -26.656151 43.12146 210.57518 -34.11056 165.2412 62.37127 50.17907 -73.66276 -51.23113 -126.15971 -109.39916 -126.23528 z m 40.54809 82.55342 c -46.10294 -0.10648 -92.50057 50.7501 -105.47324 89.34446 -17.878898 53.19109 9.691251 31.58387 45.28769 71.31293 33.9962 37.9429 31.66514 -205.01232 112.15098 -133.33061 -15.92979 -19.43571 -33.92516 -27.28514 -51.96543 -27.32678 z m 199.73405 8.60903 c -28.62644 -2.16496 -145.89951 144.67753 -165.24838 52.11404 3.99276 88.23526 117.81122 72.82465 164.91585 39.68511 46.66139 -32.82767 11.27223 -31.07776 6.52217 -83.53666 -0.49641 -5.4798 -2.67412 -7.99658 -6.18964 -8.26249 z m -168.99756 29.25092 c -85.18423 30.9536 -34.91663 131.30034 12.09651 164.56224 46.57069 32.94866 33.92306 0.81157 83.83378 -19.78595 C 374.2504 364.69318 135.5762 291.76841 230.65319 239.58828 z" fill="#fff8eb" fill-rule="evenodd"/>
</svg>
