<svg xmlns="http://www.w3.org/2000/svg" xmlns:xlink="http://www.w3.org/1999/xlink" width="512" height="512">
 <defs>
  <linearGradient id="0">
   <stop stop-color="#44afde"/>
   <stop offset="1" stop-color="#0078ad"/>
  </linearGradient>
  <radialGradient xlink:href="#0" id="1" gradientUnits="userSpaceOnUse" cx="202.85715" cy="-316.57144" r="360" gradientTransform="matrix(0.69444444,0,0,0.69444444,115.12698,475.84132)"/>
  <filter color-interpolation-filters="sRGB">
   <feGaussianBlur stdDeviation="1.71"/>
  </filter>
 </defs>
 <path d="m 506 256.00004 c 0 138.07119 -111.92881 250 -250 250 -138.07119 0 -250 -111.92881 -250 -250 C 6 117.92886 117.92881 6.00005 256 6.00005 c 138.07119 0 250 111.92881 250 249.99999 z" fill="url(#1)" fill-rule="evenodd"/>
 <path d="m 256 45.93774 c -116.01418 0 -210.06224 94.04808 -210.06224 210.06224 0 116.01418 94.04806 210.06228 210.06224 210.06228 116.01418 0 210.06224 -94.04809 210.06224 -210.06228 C 466.06224 139.98582 372.01418 45.93774 256 45.93774 z" fill="none" stroke="#fff8eb" stroke-width="29.875519"/>
 <g transform="matrix(1.2358329,0,0,1.2358329,-1131.9219,-23.710136)" fill="#fff8eb">
  <path d="m 1114.4062 86.40625 c -0.1359 0.01 -0.2695 0.0283 -0.4062 0.0625 l -25.1562 6.125 c -1.0568 0.25869 -1.8126 1.21668 -1.8126 2.3125 l 11.0938 51.1875 0.4375 0.25 c 8.4538 -2.83136 17.4681 -4.375 26.875 -4.375 42.4558 0 77.6301 31.25198 83.75 72 l 51.75 -11.34375 c 1.0148 -0.48527 1.5513 -1.59739 1.2813 -2.6875 l -6.125 -25.15625 c -0.2599 -1.05902 -1.2192 -1.81158 -2.3126 -1.8125 l -41.3124 -0.0312 c -3.4869 -6.57184 -7.7936 -12.76609 -12.875 -18.40625 l 13.4687 -37.90625 c 0.3754 -1.05378 -0.04 -2.22814 -1 -2.8125 l -22.1563 -13.4375 c -0.9356 -0.56957 -2.1084 -0.42515 -2.875 0.34375 L 1159.1875 128.5 c -8.255 -2.63566 -16.7178 -4.09657 -25.1563 -4.34375 L 1116.7188 87.75 c -0.3633 -0.76274 -1.1055 -1.26405 -1.9063 -1.34375 -0.1339 -0.0171 -0.2703 -0.01 -0.4063 0 z" fill-rule="evenodd"/>
  <path d="m 1032.75 123.46875 c -0.5269 0.0547 -1.0422 0.28882 -1.4375 0.6875 L 1013 142.46875 c -0.77 0.77243 -0.9111 1.97104 -0.3438 2.90625 l 21.4688 35.3125 c -3.8031 6.39391 -6.8527 13.29012 -9.0312 20.5625 l -39.37505 8.1875 c -1.09513 0.22713 -1.875 1.18821 -1.875 2.3125 l 0 25.90625 c 0 1.09525 0.72645 2.05735 1.78125 2.3125 l 38.2188 9.3125 c 2.0375 8.42264 5.2019 16.41156 9.375 23.75 l -22.125 33.75 c -0.6174 0.94228 -0.485 2.17479 0.3124 2.96875 l 18.3126 18.3125 c 0.77 0.76776 1.9676 0.90875 2.9062 0.34375 l 35.375 -39.125 0 -0.5625 c -16.7119 -15.46834 -27.2188 -37.52761 -27.2188 -62.09375 0 -27.24678 12.914 -51.41833 32.9063 -66.90625 l -39.375 -35.875 c -0.4713 -0.30751 -1.0362 -0.432 -1.5625 -0.375 z" fill-rule="evenodd"/>
  <path d="m 1208.125 244.875 c -8.3512 37.98547 -42.1922 66.4375 -82.6875 66.4375 -10.6669 0 -20.8492 -1.99327 -30.25 -5.59375 l -0.25 0.15625 -13.5313 51.1875 c -0.063 1.12362 0.6644 2.11807 1.75 2.40625 l 25 6.71875 c 1.0538 0.28147 2.1926 -0.16587 2.7188 -1.125 l 19.875 -36.21875 c 7.4388 0.10344 14.9236 -0.69479 22.3125 -2.4375 l 26.75 30.03125 c 0.7436 0.8361 1.9949 1.03033 2.9687 0.46875 l 22.4376 -12.9375 c 0.949 -0.54677 1.399 -1.67646 1.0937 -2.71875 l -11 -37.75 c 6.2809 -5.97015 11.6309 -12.68942 15.9063 -19.96875 l 40.25 2.3125 c 1.1244 0.064 2.1469 -0.66328 2.4374 -1.75 l 6.7188 -25 c 0.2814 -1.05082 -0.167 -2.18679 -1.125 -2.71875 l -51.375 -11.5 z" fill-rule="evenodd"/>
 </g>
</svg>
