<svg xmlns="http://www.w3.org/2000/svg" xmlns:xlink="http://www.w3.org/1999/xlink" width="512" height="512">
 <defs>
  <linearGradient id="0">
   <stop stop-color="#5779bd"/>
   <stop offset="1" stop-color="#294172"/>
  </linearGradient>
  <radialGradient xlink:href="#0" id="1" cx="256" cy="256.00004" r="250" gradientTransform="translate(0,1.8944003e-6)" gradientUnits="userSpaceOnUse"/>
 </defs>
 <path d="m 506 256.00004 c 0 138.07119 -111.92881 250 -250 250 -138.07119 0 -250 -111.92881 -250 -250 C 6 117.92886 117.92881 6.00005 256 6.00005 c 138.07119 0 250 111.92881 250 249.99999 z" fill="url(#1)" fill-rule="evenodd"/>
 <path d="m 256 45.93774 c -116.01418 0 -210.06224 94.04808 -210.06224 210.06224 0 116.01418 94.04806 210.06228 210.06224 210.06228 116.01418 0 210.06224 -94.04809 210.06224 -210.06228 C 466.06224 139.98582 372.01418 45.93774 256 45.93774 z" fill="none" stroke="#fff8eb" stroke-width="29.875519"/>
 <g transform="matrix(1.3086211,0,0,1.3086211,776.85629,998.60603)">
  <path id="2" d="m -445.74864 -567.51867 c 0 0 47.84475 0 47.84475 0 0 0 0 47.84478 0 47.84478 0 26.41029 -21.43445 47.84473 -47.84475 47.84473 -26.41031 0 -47.84476 -21.43444 -47.84476 -47.84473 0 -26.41031 21.43445 -47.84478 47.84476 -47.84478 z" fill="none" stroke="#3c6eb4" stroke-width="29.21"/>
  <use xlink:href="#2" transform="matrix(-1,0,0,-1,-796.03835,-1134.9443)" width="1" height="1"/>
  <path id="3" d="m -383.26753 -582.087 0 62.34618 c 0 34.50402 -27.97537 62.48 -62.48061 62.48 -5.23494 0 -8.95649 -0.59101 -13.80235 -1.8577 -7.06595 -1.84912 -12.84046 -7.64253 -12.84286 -14.38111 0 -8.14513 5.91236 -14.0699 14.75029 -14.0699 4.20637 0 5.73267 0.80765 11.89492 0.80765 18.19161 0 32.94764 -14.73519 32.97955 -32.92679 l 0 -28.65657 c 0 -2.56775 -2.08663 -4.64825 -4.65867 -4.64825 l -21.66521 -0.004 c -8.07212 0 -14.59401 -6.43843 -14.59401 -14.53266 -0.004 -8.14456 6.5888 -14.55657 14.74808 -14.55657" fill="#fff"/>
  <use xlink:href="#3" transform="matrix(-1,0,0,-1,-796.03834,-1134.9443)" width="1" height="1"/>
 </g>
</svg>
