<svg xmlns="http://www.w3.org/2000/svg" width="512" height="512">
 <g transform="translate(0,-540.36218)">
  <path d="m 562.85715 -316.57144 c 0 198.82251 -161.17749 360 -360 360 -198.82251 0 -360 -161.17749 -360 -360 0 -198.82251 161.17749 -360 360 -360 198.82251 0 360 161.17749 360 360 z" transform="matrix(0.69444444,0,0,0.69444444,115.12698,1016.2035)" fill="#0078ad" fill-rule="evenodd"/>
  <path d="M 214.96875 87.28125 C 217.49019 88.979 252.25717 123.71878 251.6875 127.625 C 244.50797 127.78041 240.6875 131.6875 240.6875 131.6875 C 255.7127 131.11783 264.65625 145.40625 264.65625 145.40625 C 257.69644 141.40892 217.65625 135.21875 217.65625 135.21875 C 217.65625 135.21875 223.18221 138.82245 223 140.46875 C 182.71058 128.87282 98.5 131.1875 98.5 131.1875 C 128.37944 135.30594 186.28125 156.96875 186.28125 156.96875 C 186.28125 156.96875 143.57828 153.8621 119 162.46875 C 143.04237 161.18633 159.35618 166.51697 167.5625 170.96875 C 136.24362 187.62096 114.625 240.40625 114.625 240.40625 C 114.625 240.40625 162.06499 188.85648 180.03125 194.21875 C 180.03125 194.21875 114.26943 293.04053 172.1875 332.46875 C 169.46831 319.30047 162.71615 270.34526 182.4375 259.625 C 182.4375 259.625 257.55629 324.46343 303.8125 323.375 C 292.03275 319.28283 287.9375 311.875 287.9375 311.875 C 334.52115 302.12847 348.99351 356.26947 339.6875 377.1875 C 353.10283 372.34719 372.46875 348.5625 372.46875 348.5625 C 372.46875 348.5625 369.40952 401.61536 304.90625 394.125 C 314.67368 399.96424 328.80779 405.92749 344.4375 404.96875 C 340.99912 415.08237 273.87363 403.6927 269.71875 395.65625 C 267.70803 391.76879 258.12879 372.61401 281.9375 364.875 C 267.65828 357.28227 245.1875 385.90625 245.1875 385.90625 C 245.1875 385.90625 240.99875 383.04536 221.0625 379.5625 C 201.12625 376.07965 235.1875 369.4375 235.1875 369.4375 C 205.49402 369.12506 191.5 374.375 191.5 374.375 C 186.6029 361.75441 246.875 330.21875 246.875 330.21875 C 246.875 330.21875 146.18044 360.87074 102.90625 409.34375 C 114.2825 420.70155 126.93128 430.79089 140.59375 439.40625 C 159.52564 408.36254 203.89825 408.92878 208.875 411.375 C 239.48918 423.39324 208.51998 442.76833 194.625 434.96875 C 202.66948 446.38569 225.75 446.21875 225.75 446.21875 C 225.75 446.21875 209.16981 460.23306 190 462.4375 C 196.90304 464.64249 203.97167 466.48764 211.15625 468 C 236.02339 457.19642 262.23851 433.35244 262.3125 433.21875 C 262.43735 432.99315 288.15625 441.78125 288.15625 441.78125 C 288.15625 441.78125 275.82601 452.05727 262.5625 472.5625 C 274.6323 472.20345 286.44151 470.8491 297.9375 468.59375 C 318.98454 454.8157 335.59375 448.4375 335.59375 448.4375 C 335.59375 448.4375 332.04888 456.74689 321.21875 462.375 C 321.69681 462.32546 322.10712 462.29756 322.5625 462.25 C 335.08087 458.21328 347.09241 453.0435 358.5 446.90625 C 363.99028 442.96844 370.71119 437.97016 379.5 431.4375 C 379.5 431.4375 379.5926 432.25448 379.90625 433.75 C 389.79911 426.84131 399.09678 419.14202 407.6875 410.71875 C 409.08494 407.39072 410.72131 403.86068 412.59375 399.9375 C 414.36891 396.4244 416.33971 397.105 418.0625 399.78125 C 421.63782 395.75443 425.07251 391.59915 428.34375 387.3125 C 432.47571 302.2044 340.03125 269.34375 340.03125 269.34375 L 363.75 252.4375 C 335.50667 261.67117 127.8661 236.49002 265.9375 190.03125 C 265.9375 190.03125 254.58163 201.5795 256.03125 208.9375 C 258.51143 202.74081 266.53125 200.59375 266.53125 200.59375 C 266.53125 200.59375 260.94855 219.25693 265 228.34375 C 266.3971 217.55971 283.875 200.5 283.875 200.5 C 283.875 200.5 278.07291 229.34144 329.3125 227.8125 C 355.9583 226.6619 367.87051 231.38518 376.9375 240.375 C 384.09185 247.46773 385.82081 248.65625 389.0625 248.65625 C 392.8085 248.65625 396.8634 246.29663 401.8125 241.25 C 403.75409 239.27037 404.24555 237.52824 404.21875 232.46875 C 404.18975 227.02394 403.61573 225.31954 400.09375 220.125 C 396.26417 214.47708 395.43938 213.88311 386.6875 210.6875 C 381.55512 208.8129 374.62423 206.04786 371.28125 204.53125 C 365.90505 202.09287 365.05962 201.28617 364.125 197.5 C 362.99853 192.93782 362.33014 192.44421 349 186.6875 C 344.15863 184.59639 340.18626 181.48899 332.65625 173.84375 C 323.65785 164.70709 323.92169 162.16704 323.6875 160.96875 C 322.54816 145.6547 353.75 160.9375 353.75 160.9375 C 353.75 160.9375 347.11998 151.28524 341.1875 147.125 C 325.06101 135.81684 303.8125 146.3125 303.8125 146.3125 C 303.8125 146.3125 267.19602 104.74321 214.96875 87.28125 z M 309.21875 177.375 C 310.58284 177.31771 313.95126 178.75479 319.40625 181.59375 C 327.18708 185.64358 340.77745 193.0906 339.46875 196.90625 C 330.50466 197.25513 325.125 197.25 325.125 197.25 L 315.96875 187.53125 C 309.53486 180.72412 307.22507 177.45873 309.21875 177.375 z" transform="translate(0,540.36218)" fill="#fff8eb"/>
  <path d="m 256 574.93361 c -122.29163 0 -221.42857 99.13694 -221.42857 221.42857 0 122.29163 99.13694 221.42862 221.42857 221.42862 122.29163 0 221.42857 -99.13699 221.42857 -221.42862 0 -122.29163 -99.13694 -221.42857 -221.42857 -221.42857 z m 0 25.29821 c 108.31543 0 196.13036 87.81493 196.13036 196.13036 0 108.31543 -87.81493 196.13036 -196.13036 196.13036 -108.31543 0 -196.13036 -87.81493 -196.13036 -196.13036 0 -108.31543 87.81493 -196.13036 196.13036 -196.13036 z" fill="#fff8eb" fill-rule="evenodd"/>
 </g>
</svg>
