<?xml version="1.0" encoding="UTF-8" standalone="no"?>
<!-- Created with Inkscape (http://www.inkscape.org/) -->

<svg
   xmlns:dc="http://purl.org/dc/elements/1.1/"
   xmlns:cc="http://creativecommons.org/ns#"
   xmlns:rdf="http://www.w3.org/1999/02/22-rdf-syntax-ns#"
   xmlns:svg="http://www.w3.org/2000/svg"
   xmlns="http://www.w3.org/2000/svg"
   xmlns:xlink="http://www.w3.org/1999/xlink"
   xmlns:sodipodi="http://sodipodi.sourceforge.net/DTD/sodipodi-0.dtd"
   xmlns:inkscape="http://www.inkscape.org/namespaces/inkscape"
   width="512"
   height="512"
   id="svg2"
   version="1.1"
   inkscape:version="0.48.4 r9939"
   sodipodi:docname="filezilla.svg">
  <defs
     id="defs4">
    <linearGradient
       inkscape:collect="always"
       xlink:href="#XMLID_2_"
       id="linearGradient3010"
       gradientUnits="userSpaceOnUse"
       x1="187.94679"
       y1="123.8594"
       x2="187.94679"
       y2="258.86539" />
    <linearGradient
       id="XMLID_2_"
       gradientUnits="userSpaceOnUse"
       x1="187.94679"
       y1="123.8594"
       x2="187.94679"
       y2="258.86539">
      <stop
         offset="0"
         style="stop-color: rgb(191, 0, 0);"
         id="stop2308" />
      <stop
         offset="1"
         style="stop-color: rgb(143, 0, 0);"
         id="stop2310" />
    </linearGradient>
    <linearGradient
       inkscape:collect="always"
       xlink:href="#XMLID_2_"
       id="linearGradient3017"
       gradientUnits="userSpaceOnUse"
       x1="187.94679"
       y1="123.8594"
       x2="187.94679"
       y2="258.86539"
       gradientTransform="matrix(2.17444,0,0,2.17437,427.02611,-272.85132)" />
  </defs>
  <sodipodi:namedview
     id="base"
     pagecolor="#ffffff"
     bordercolor="#666666"
     borderopacity="1.0"
     inkscape:pageopacity="0.0"
     inkscape:pageshadow="2"
     inkscape:zoom="0.7"
     inkscape:cx="422.73067"
     inkscape:cy="254.49897"
     inkscape:document-units="px"
     inkscape:current-layer="layer1"
     showgrid="false"
     inkscape:window-width="1309"
     inkscape:window-height="750"
     inkscape:window-x="55"
     inkscape:window-y="-3"
     inkscape:window-maximized="1" />
  <metadata
     id="metadata7">
    <rdf:RDF>
      <cc:Work
         rdf:about="">
        <dc:format>image/svg+xml</dc:format>
        <dc:type
           rdf:resource="http://purl.org/dc/dcmitype/StillImage" />
        <dc:title />
      </cc:Work>
    </rdf:RDF>
  </metadata>
  <g
     inkscape:label="Layer 1"
     inkscape:groupmode="layer"
     id="layer1"
     transform="translate(0,-540.36218)">
    <path
       sodipodi:type="arc"
       style="fill:#cd1d31;fill-rule:evenodd;stroke:none"
       id="path2985"
       sodipodi:cx="202.85715"
       sodipodi:cy="-316.57144"
       sodipodi:rx="360"
       sodipodi:ry="360"
       d="m 562.85715,-316.57144 c 0,198.82251 -161.17749,359.999998 -360,359.999998 -198.8225127,0 -360,-161.177488 -360,-359.999998 0,-198.82251 161.1774873,-360 360,-360 198.82251,0 360,161.17749 360,360 z"
       transform="matrix(0.69444444,0,0,0.69444444,115.12698,1016.2035)" />
    <path
       style="fill:#fff8eb"
       d="m 121.37286,652.07647 c 0,2.54451 -1.02743,5.03475 -2.82401,6.83458 -1.79988,1.79652 -4.29164,2.82401 -6.83459,2.82401 l 0,12.74366 c 5.32699,0 9.6586,4.33344 9.6586,9.6586 0,5.32846 -4.33161,9.68234 -9.6586,9.68234 l 0,12.71992 c 5.32699,0 9.6586,4.33342 9.6586,9.6586 0,5.32846 -4.33161,9.68233 -9.6586,9.68233 l 0,12.71992 c 5.32699,0 9.6586,4.35056 9.6586,9.68233 0,5.33177 -4.33161,9.6586 -9.6586,9.6586 l 0,12.74366 c 5.32699,0 9.6586,4.33013 9.6586,9.6586 0,5.32847 -4.33161,9.6586 -9.6586,9.6586 l 0,12.74365 c 5.32699,0 9.6586,4.33014 9.6586,9.6586 0,5.32847 -4.33161,9.6586 -9.6586,9.6586 l 0,12.74366 c 5.32699,0 9.6586,4.33014 9.6586,9.6586 0,5.32846 -4.33161,9.6586 -9.6586,9.6586 l 0,12.74365 c 5.32699,0 9.6586,4.33014 9.6586,9.6586 0,5.32847 -4.33161,9.6586 -9.6586,9.6586 l 0,12.74366 c 5.32699,0 9.6586,4.33013 9.6586,9.6586 0,5.32846 -4.33161,9.6586 -9.6586,9.6586 l 0,12.74366 c 2.54295,0 5.03471,1.02418 6.83459,2.82401 1.79658,1.79651 2.82401,4.29007 2.82401,6.83458 l 12.74366,0 c 0,-5.32846 4.33162,-9.65859 9.65859,-9.65859 5.32699,0 9.65861,4.33013 9.65861,9.65859 l 12.74367,0 c 0,-5.32846 4.33161,-9.65859 9.65859,-9.65859 5.32699,0 9.6586,4.33013 9.6586,9.65859 l 12.74366,0 c 0,-5.32846 4.33163,-9.65859 9.6586,-9.65859 5.327,0 9.65861,4.33013 9.65861,9.65859 l 12.74366,0 c 0,-5.32846 4.3316,-9.65859 9.65859,-9.65859 5.32698,0 9.65859,4.33013 9.65859,9.65859 l 12.74367,0 c 0,-5.32846 4.33161,-9.65859 9.65859,-9.65859 5.32699,0 9.6586,4.33013 9.6586,9.65859 l 12.74367,0 c 0,-5.32846 4.3316,-9.65859 9.65859,-9.65859 5.32698,0 9.6586,4.33013 9.6586,9.65859 l 12.74366,0 c 0,-5.32846 4.33161,-9.65859 9.65859,-9.65859 5.32698,0 9.65859,4.33013 9.65859,9.65859 l 12.74367,0 c 0,-5.32846 4.33162,-9.65859 9.6586,-9.65859 5.32697,0 9.68233,4.33013 9.68233,9.65859 l 12.74365,0 c 0,-2.54451 1.02419,-5.03807 2.82405,-6.83458 1.79659,-1.79983 4.28992,-2.82401 6.83458,-2.82401 l 0,-12.74366 c -5.32862,0 -9.65863,-4.33014 -9.65863,-9.6586 0,-5.32846 4.33001,-9.6586 9.65863,-9.6586 l 0,-12.74366 c -5.32862,0 -9.65863,-4.33013 -9.65863,-9.6586 0,-5.32846 4.33001,-9.6586 9.65863,-9.6586 l 0,-12.74365 c -5.32862,0 -9.65863,-4.33014 -9.65863,-9.6586 0,-5.32846 4.33001,-9.6586 9.65863,-9.6586 l 0,-12.74366 c -5.32862,0 -9.65863,-4.33013 -9.65863,-9.6586 0,-5.32846 4.33001,-9.6586 9.65863,-9.6586 l 0,-12.74365 c -5.32862,0 -9.65863,-4.33013 -9.65863,-9.6586 0,-5.32847 4.33001,-9.6586 9.65863,-9.6586 l 0,-12.74366 c -5.32862,0 -9.65863,-4.32683 -9.65863,-9.6586 0,-5.33177 4.33001,-9.6586 9.65863,-9.6586 l 0,-12.74365 c -5.32862,0 -9.65863,-4.33013 -9.65863,-9.6586 0,-5.32517 4.33001,-9.6586 9.65863,-9.6586 l 0,-12.74365 c -5.32862,0 -9.65863,-4.33015 -9.65863,-9.65861 0,-5.32516 4.33001,-9.6586 9.65863,-9.6586 l 0,-12.76739 c -2.54466,0 -5.03808,-1.02749 -6.83458,-2.82401 -1.79986,-1.79983 -2.82405,-4.29007 -2.82405,-6.83458 l -12.74365,0 c 0,5.32846 -4.33164,9.65859 -9.6586,9.65859 -5.32699,0 -9.6586,-4.33013 -9.6586,-9.65859 l -12.74367,0 c 0,5.32846 -4.33161,9.65859 -9.65859,9.65859 -5.32699,0 -9.65859,-4.33013 -9.65859,-9.65859 l -12.74366,0 c 0,5.32846 -4.33162,9.65859 -9.65859,9.65859 -5.327,0 -9.68233,-4.33013 -9.68233,-9.65859 l -12.71993,0 c 0,5.32846 -4.35535,9.65859 -9.68234,9.65859 -5.32698,0 -9.65859,-4.33013 -9.65859,-9.65859 l -12.71993,0 c 0,5.32846 -4.35535,9.65859 -9.68233,9.65859 -5.32698,0 -9.65859,-4.33013 -9.65859,-9.65859 l -12.74366,0 c 0,5.32846 -4.33161,9.65859 -9.65861,9.65859 -5.32697,0 -9.6586,-4.33013 -9.6586,-9.65859 l -12.74366,0 c 0,5.32846 -4.33162,9.65859 -9.6586,9.65859 -5.32698,0 -9.65859,-4.33013 -9.65859,-9.65859 l -12.74367,0 c 0,5.32846 -4.33161,9.65859 -9.65861,9.65859 -5.32697,0 -9.65859,-4.33013 -9.65859,-9.65859 l -12.74366,0 z m 69.34258,42.47885 126.15507,0 -8.04488,37.82753 -87.7817,0 -7.49906,35.16965 144.00094,0 -6.17012,25.22627 -77.00774,74.87195 c 6.97825,1.07328 13.68847,2.68162 20.9309,2.68162 17.61737,0 37.87726,-5.35361 51.56791,-10.98755 l -7.04816,33.0101 c -20.13225,9.66291 -32.46384,10.46546 -44.51975,10.46546 -13.14737,0 -25.77328,-4.29534 -38.65812,-4.29534 -7.24741,0 -17.71843,0.52428 -24.15835,4.81744 l -13.95396,-24.68046 79.45207,-78.64521 -91.43632,0 -17.4187,81.87265 -38.13605,0 39.72604,-187.33411 z"
       id="path2312"
       inkscape:connector-curvature="0" />
  </g>
</svg>
