<svg xmlns="http://www.w3.org/2000/svg" width="512" height="512">
 <g transform="translate(0,-540.36218)">
  <path d="M 256 6 C 117.92881 6 6 117.92881 6 256 C 6 272.59773 7.632858 288.80685 10.71875 304.5 C 50.16075 256.32375 106.91898 213.28125 184.46875 213.28125 C 260.7803 213.28125 357.10694 255.06663 476.40625 374.0625 C 495.28213 338.89837 506 298.70372 506 256 C 506 117.92881 394.07119 6 256 6 z" transform="translate(0,540.36218)" fill="#ffce7b"/>
  <g transform="matrix(10.594791,0,0,10.594791,1.7226335,-10098.925)">
   <path d="m -18.749998 17.500002 c 0 4.832491 -3.917509 8.75 -8.75 8.75 -4.832492 0 -8.75 -3.917509 -8.75 -8.75 0 -4.832492 3.917508 -8.75 8.75 -8.75 4.832491 0 8.75 3.917508 8.75 8.75 z" transform="matrix(1.1714286,0,0,1.1714286,66.714282,1010.8622)" fill="#fff2d9"/>
   <path transform="matrix(1.0571429,0,0,1.0571429,63.571425,1012.8622)" d="m -18.749998 17.500002 c 0 4.832491 -3.917509 8.75 -8.75 8.75 -4.832492 0 -8.75 -3.917509 -8.75 -8.75 0 -4.832492 3.917508 -8.75 8.75 -8.75 4.832491 0 8.75 3.917508 8.75 8.75 z" fill="#ff9f30"/>
  </g>
  <path d="M 184.46875 213.28125 C 106.93451 213.28125 50.16098 256.30518 10.71875 304.46875 C 33.29164 419.33685 134.51593 506 256 506 C 351.36746 506 434.25196 452.59229 476.40625 374.0625 C 357.10762 255.06575 260.7803 213.28125 184.46875 213.28125 z" transform="translate(0,540.36218)" fill="#869fcb"/>
 </g>
</svg>
