<svg xmlns="http://www.w3.org/2000/svg" xmlns:xlink="http://www.w3.org/1999/xlink" width="512" height="512">
 <defs>
  <linearGradient id="0">
   <stop stop-color="#5fb6ff"/>
   <stop offset="1" stop-color="#088eff"/>
  </linearGradient>
  <radialGradient xlink:href="#0" id="1" cx="250.44518" cy="257.31479" r="250" gradientTransform="matrix(1,0,0,0.97661653,0,6.0169115)" gradientUnits="userSpaceOnUse"/>
 </defs>
 <path d="m 500.44518 257.31479 a 250 244.15413 0 1 1 -500 0 250 244.15413 0 1 1 500 0 z" fill="url(#1)"/>
 <path d="M 256.88101 41.30039 A 221.23633 216.06306 0 0 0 29.20116 257.31002 a 221.23633 216.06306 0 1 0 442.47267 0 A 221.23633 216.06306 0 0 0 256.88101 41.30039 z m -0.80198 27.875778 A 192.72755 188.22091 0 0 1 443.162 257.31002 a 192.72755 188.22091 0 0 1 -385.449 0 A 192.72755 188.22091 0 0 1 256.07903 69.17617 z" fill="#fff8eb"/>
 <g transform="matrix(0.77061453,0,0,0.77061453,57.582838,59.82965)" fill="#fff8eb" stroke="#fff8eb">
  <path d="m 151.3859 406.87821 c -8.93532 14.65623 -29.66941 7.85077 -18.07616 -14.89107 20.36237 -43.61808 66.14818 -152.3682 90.9437 -205.99061 7.22411 -16.23791 26.45057 -5.79041 20.72968 7.83838 -28.74523 64.17151 -67.3428 160.51551 -93.59722 213.0433 z" fill-rule="evenodd" stroke-linejoin="round" stroke-linecap="round" stroke-width="8"/>
  <path d="m 275.89098 341.69901 c -7.84072 12.54364 -28.57481 3.62559 -16.98156 -19.11625 20.36236 -43.61808 66.14818 -152.3682 90.9437 -205.99061 7.22411 -16.23791 26.45057 -5.79041 20.72968 7.83838 -28.74524 64.1715 -68.43741 164.74068 -94.69182 217.26848 z" fill-rule="evenodd" stroke-linejoin="round" stroke-linecap="round" stroke-width="8"/>
  <path d="m 228.03788 333.49636 c -7.84071 16.76881 -27.4802 8.90706 -15.88695 -13.83478 20.36236 -43.61808 28.93158 -69.97713 53.7271 -123.59954 7.22411 -16.23792 26.45057 -5.79041 20.72968 7.83838 -28.74524 64.1715 -32.31541 77.06814 -58.56983 129.59594 z" fill-rule="evenodd" stroke-linejoin="round" stroke-linecap="round" stroke-width="8"/>
  <path d="m 1.971935 297.10634 c 1.063185 7.62097 5.57977 25.3098 7.01701 30.67069 42.51047 -9.04983 75.970033 -25.84426 113.85664 -48.9326 10.77927 8.16892 17.55133 15.17159 26.17475 23.64589 2.8018 -4.98072 9.57787 -19.02125 12.03879 -22.71836 -9.01821 -8.48255 -12.75823 -13.45269 -19.93692 -18.46791 8.63717 -5.9691 8.75875 -7.6596 29.39852 -25.23291 -4.31171 -7.86141 -6.67438 -15.57829 -10.98609 -23.23722 -9.98847 10.35818 -17.54195 18.68129 -39.076 32.45187 C 89.7661 229.71988 62.17842 213.9973 6.930126 199.86181 c -2.661026 9.38298 -4.02761 15.00098 -5.122213 25.45264 23.456553 7.55806 68.791885 19.401 94.37779 36.68307 -18.924637 12.86418 -44.867067 25.33367 -94.21377 35.10882 z" fill-rule="evenodd" stroke-linejoin="round" stroke-linecap="round" stroke-width="8"/>
  <path d="m 185.85187 226.10277 c 3.54848 -7.77864 5.78375 -13.01938 11.08044 -24.60977 -20.30661 -38.68158 -23.21924 -55.16202 -41.98976 -88.11004 -8.0025 -13.13402 -26.00739 -3.75938 -19.10508 8.75936 18.97089 36.99838 30.35192 63.30391 50.0144 103.96045 z" fill-rule="evenodd" stroke-linejoin="round" stroke-linecap="round" stroke-width="8"/>
  <path d="m 500.25386 224.0113 c -1.06319 -7.62097 -5.57977 -25.30981 -7.01701 -30.6707 -42.51046 9.04984 -75.97003 25.84427 -113.85663 48.93261 -10.77927 -8.16892 -17.55133 -15.17159 -26.17475 -23.64589 -2.8018 4.98072 -9.57787 19.02124 -12.0388 22.71835 9.01822 8.48256 12.75824 13.4527 19.93693 18.46792 -8.63717 5.96909 -8.75875 7.6596 -29.39852 25.23291 4.3117 7.86141 6.67438 15.57828 10.98609 23.23721 9.98847 -10.35817 17.54195 -18.68128 39.076 -32.45186 30.69252 15.56591 56.36816 31.74977 111.61645 45.88526 3.13904 -9.84427 4.98363 -15.92354 6.07824 -26.37521 -23.45655 -7.55805 -67.83586 -18.93971 -93.42177 -36.22178 18.92464 -12.86419 44.86707 -25.33368 94.21377 -35.10882 z" fill-rule="evenodd" stroke-linejoin="round" stroke-linecap="round" stroke-width="8"/>
  <path d="m 315.44756 289.9586 c -3.54847 7.77864 -5.78375 13.01938 -11.08043 24.60977 20.3066 38.68159 23.21923 55.16203 41.98975 88.11004 8.00251 13.13403 26.00739 3.75939 19.10508 -8.75935 -18.97089 -36.99839 -30.35191 -63.30392 -50.0144 -103.96046 z" fill-rule="evenodd" stroke-linejoin="round" stroke-linecap="round" stroke-width="8"/>
 </g>
</svg>
