<svg xmlns="http://www.w3.org/2000/svg" xmlns:xlink="http://www.w3.org/1999/xlink" height="512" width="512">
 <defs>
  <linearGradient y1="92.5396" x2="0" y2="7.01654" id="0" gradientUnits="userSpaceOnUse" gradientTransform="scale(1.0058652,0.994169)">
   <stop/>
   <stop offset="1" stop-opacity="0.588235"/>
  </linearGradient>
  <filter color-interpolation-filters="sRGB">
   <feGaussianBlur stdDeviation="1.71"/>
  </filter>
  <linearGradient y1="20.220806" x2="0" y2="138.66119" xlink:href="#1" gradientUnits="userSpaceOnUse"/>
  <linearGradient id="1">
   <stop stop-color="#fff"/>
   <stop offset="1" stop-color="#fff" stop-opacity="0"/>
  </linearGradient>
  <clipPath>
   <rect width="84" height="84" rx="6" x="6" y="6" fill="#fff"/>
  </clipPath>
  <filter x="-0.192" y="-0.192" width="1.384" height="1.384" color-interpolation-filters="sRGB">
   <feGaussianBlur stdDeviation="5.28"/>
  </filter>
  <linearGradient y2="7.01654" x2="0" y1="92.5396" gradientTransform="scale(1.0058652,0.994169)" gradientUnits="userSpaceOnUse" xlink:href="#0"/>
  <linearGradient y1="20.220806" x2="0" y2="138.66119" xlink:href="#1" gradientUnits="userSpaceOnUse"/>
  <clipPath>
   <rect width="84" height="84" rx="6" x="6" y="6" fill="#fff"/>
  </clipPath>
  <linearGradient y2="7.01654" x2="0" y1="92.5396" gradientTransform="scale(1.0058652,0.994169)" gradientUnits="userSpaceOnUse" xlink:href="#0"/>
  <linearGradient gradientUnits="userSpaceOnUse" xlink:href="#1" y2="138.66119" x2="0" y1="20.220806"/>
  <clipPath>
   <rect y="6" x="6" rx="6" height="84" width="84" fill="#fff"/>
  </clipPath>
  <linearGradient xlink:href="#0" gradientUnits="userSpaceOnUse" gradientTransform="scale(1.0058652,0.994169)" y1="92.5396" x2="0" y2="7.01654"/>
  <linearGradient y1="20.220806" x2="0" y2="138.66119" xlink:href="#1" gradientUnits="userSpaceOnUse"/>
  <clipPath>
   <rect width="84" height="84" rx="6" x="6" y="6" fill="#fff"/>
  </clipPath>
  <linearGradient y2="7.01654" x2="0" y1="92.5396" gradientTransform="scale(1.0058652,0.994169)" gradientUnits="userSpaceOnUse" xlink:href="#0"/>
  <linearGradient y1="20.220806" x2="0" y2="138.66119" xlink:href="#1" gradientUnits="userSpaceOnUse"/>
  <clipPath>
   <rect width="84" height="84" rx="6" x="6" y="6" fill="#fff"/>
  </clipPath>
  <linearGradient y2="7.01654" x2="0" y1="92.5396" gradientTransform="scale(1.0058652,0.994169)" gradientUnits="userSpaceOnUse" xlink:href="#0"/>
  <linearGradient y1="20.220806" x2="0" y2="138.66119" xlink:href="#1" gradientUnits="userSpaceOnUse"/>
  <clipPath>
   <rect width="84" height="84" rx="6" x="6" y="6" fill="#fff"/>
  </clipPath>
  <linearGradient y2="7.01654" x2="0" y1="92.5396" gradientTransform="scale(1.0058652,0.994169)" gradientUnits="userSpaceOnUse" xlink:href="#0"/>
  <linearGradient gradientUnits="userSpaceOnUse" xlink:href="#1" y2="138.66119" x2="0" y1="20.220806"/>
  <clipPath>
   <rect y="6" x="6" rx="6" height="84" width="84" fill="#fff"/>
  </clipPath>
  <linearGradient xlink:href="#0" gradientUnits="userSpaceOnUse" gradientTransform="scale(1.0058652,0.994169)" y1="92.5396" x2="0" y2="7.01654"/>
 </defs>
 <g transform="translate(0,-540.36217)">
  <path d="m 305.71429 246.28572 c 0 45.76074 -37.09641 82.85714 -82.85714 82.85714 -45.76074 0 -82.85714 -37.0964 -82.85714 -82.85714 0 -45.76073 37.0964 -82.85714 82.85714 -82.85714 45.76073 0 82.85714 37.09641 82.85714 82.85714 z" transform="matrix(3.0172416,0,0,3.0172415,-416.41385,53.258684)" fill="#9a3034" fill-rule="evenodd"/>
  <text y="629.64386" x="-309.47046" font-family="Gentium Book Basic" word-spacing="0" line-height="125%" letter-spacing="0" font-size="208.33334"><tspan y="629.64386" x="-309.47046"/>
  </text>
  <text x="-2668.3015" y="907.75995" font-family="Gentium Book Basic" word-spacing="0" line-height="125%" letter-spacing="0" font-size="208.33334"><tspan x="-2668.3015" y="907.75995"/>
  </text>
  <text x="-2380.0864" y="680.47504" font-family="Gentium Book Basic" word-spacing="0" line-height="125%" letter-spacing="0" font-size="208.33334"><tspan x="-2380.0864" y="680.47504"/>
  </text>
  <text x="1814.5126" y="423.5752" font-family="Gentium Book Basic" word-spacing="0" line-height="125%" letter-spacing="0" font-size="208.33334"><tspan x="1814.5126" y="423.5752"/>
  </text>
  <text y="568.60944" x="-313.41791" font-family="Gentium Book Basic" word-spacing="0" line-height="125%" letter-spacing="0" font-size="208.33334"><tspan y="568.60944" x="-313.41791"/>
  </text>
  <text x="-2672.2488" y="846.72546" font-family="Gentium Book Basic" word-spacing="0" line-height="125%" letter-spacing="0" font-size="208.33334"><tspan x="-2672.2488" y="846.72546"/>
  </text>
  <text x="-2384.0334" y="619.44061" font-family="Gentium Book Basic" word-spacing="0" line-height="125%" letter-spacing="0" font-size="208.33334"><tspan x="-2384.0334" y="619.44061"/>
  </text>
  <path d="m 264.81295 871.77084 0 39.93856 135.03624 0 0 -39.93856 -135.03624 0 z" fill="#fff8eb"/>
  <path d="m 256 567.79074 c -126.23652 0 -228.57143 102.33491 -228.57143 228.57143 0 126.23652 102.33491 228.57143 228.57143 228.57143 126.23652 0 228.57143 -102.33491 228.57143 -228.57143 C 484.57143 670.12565 382.23652 567.79074 256 567.79074 z m 0 28.74286 c 110.36678 0 199.82857 89.4618 199.82857 199.82857 0 110.36677 -89.46179 199.82857 -199.82857 199.82857 -110.36678 0 -199.82857 -89.4618 -199.82857 -199.82857 C 56.17143 685.9954 145.63322 596.5336 256 596.5336 z" fill="#fff8eb" fill-rule="evenodd"/>
  <text x="202.0957" y="845.21936" fill="#fff8eb" font-family="Sans" text-anchor="middle" text-align="center" word-spacing="0" line-height="125%" font-weight="bold" letter-spacing="0" font-size="264.13132"><tspan x="202.0957" y="845.21936">#</tspan>
  </text>
 </g>
</svg>
