<?xml version="1.0" encoding="UTF-8" standalone="no"?>
<!-- Created with Inkscape (http://www.inkscape.org/) -->

<svg
   xmlns:osb="http://www.openswatchbook.org/uri/2009/osb"
   xmlns:dc="http://purl.org/dc/elements/1.1/"
   xmlns:cc="http://creativecommons.org/ns#"
   xmlns:rdf="http://www.w3.org/1999/02/22-rdf-syntax-ns#"
   xmlns:svg="http://www.w3.org/2000/svg"
   xmlns="http://www.w3.org/2000/svg"
   xmlns:sodipodi="http://sodipodi.sourceforge.net/DTD/sodipodi-0.dtd"
   xmlns:inkscape="http://www.inkscape.org/namespaces/inkscape"
   width="512"
   height="512"
   id="svg2"
   version="1.1"
   inkscape:version="0.48.4 r9939"
   sodipodi:docname="grooveshark.svg">
  <defs
     id="defs4">
    <linearGradient
       id="linearGradient5284"
       osb:paint="solid">
      <stop
         style="stop-color:#a7d6f6;stop-opacity:1;"
         offset="0"
         id="stop5286" />
    </linearGradient>
    <linearGradient
       id="linearGradient5228"
       osb:paint="solid">
      <stop
         style="stop-color:#000000;stop-opacity:1;"
         offset="0"
         id="stop5230" />
    </linearGradient>
  </defs>
  <sodipodi:namedview
     id="base"
     pagecolor="#ffffff"
     bordercolor="#666666"
     borderopacity="1.0"
     inkscape:pageopacity="0.0"
     inkscape:pageshadow="2"
     inkscape:zoom="0.35"
     inkscape:cx="254.99999"
     inkscape:cy="331.42857"
     inkscape:document-units="px"
     inkscape:current-layer="layer1"
     showgrid="false"
     inkscape:window-width="1309"
     inkscape:window-height="750"
     inkscape:window-x="55"
     inkscape:window-y="-3"
     inkscape:window-maximized="1" />
  <metadata
     id="metadata7">
    <rdf:RDF>
      <cc:Work
         rdf:about="">
        <dc:format>image/svg+xml</dc:format>
        <dc:type
           rdf:resource="http://purl.org/dc/dcmitype/StillImage" />
        <dc:title></dc:title>
      </cc:Work>
    </rdf:RDF>
  </metadata>
  <g
     inkscape:label="Layer 1"
     inkscape:groupmode="layer"
     id="layer1"
     transform="translate(0,-540.36218)">
    <path
       sodipodi:type="arc"
       style="fill:#f38725;fill-rule:evenodd;stroke:none"
       id="path2985"
       sodipodi:cx="202.85715"
       sodipodi:cy="-316.57144"
       sodipodi:rx="360"
       sodipodi:ry="360"
       d="m 562.85715,-316.57144 c 0,198.82251 -161.17749,359.999998 -360,359.999998 -198.8225127,0 -360,-161.177488 -360,-359.999998 0,-198.82251 161.1774873,-360 360,-360 198.82251,0 360,161.17749 360,360 z"
       transform="matrix(0.69444444,0,0,0.69444444,115.12698,1016.2035)" />
    <g
       id="text6110-1-8-2"
       style="font-size:220.81851196px;font-style:normal;font-weight:normal;line-height:125%;letter-spacing:0px;word-spacing:0px;fill:#fff8c1;fill-opacity:1;stroke:none;font-family:Sans"
       transform="matrix(0.23463968,0,0,0.23138396,774.53364,404.4122)" />
    <path
       sodipodi:nodetypes="ccccccsssccccc"
       id="path2451"
       d="m 259.45381,582.07647 c 102.57761,0 210.8319,82.90515 210.8319,213.44209 0,129.44406 -105.1303,215.12934 -210.32252,215.12934 -124.97863,0 -214.524747,-92.49562 -218.248904,-207.37051 0,-117.91446 83.172344,-221.20092 217.739524,-221.20092 z M 424.10026,797.29394 C 428.15506,690.05787 339.93625,626.7278 263.27262,626.7278 c -72.51891,0 -144.95055,29.24021 -173.873549,137.26869 -5.360228,20.02058 -3.267428,54.496 7.54065,63.03523 14.480999,11.44107 44.377289,-0.67423 63.185619,-25.60563 24.6172,-36.68065 26.04051,-84.09175 18.6979,-126.67009 -1.3224,-5.00145 -0.97838,-5.20566 6.20788,-3.68522 63.18019,16.69607 106.70149,67.78916 145.89733,116.9037 28.61734,42.76391 88.27729,93.36823 93.17181,9.31946 z"
       style="fill:#ffffff;fill-opacity:1"
       inkscape:connector-curvature="0" />
  </g>
</svg>
