<?xml version="1.0" encoding="UTF-8" standalone="no"?>
<!-- Created with Inkscape (http://www.inkscape.org/) -->

<svg
   xmlns:dc="http://purl.org/dc/elements/1.1/"
   xmlns:cc="http://creativecommons.org/ns#"
   xmlns:rdf="http://www.w3.org/1999/02/22-rdf-syntax-ns#"
   xmlns:svg="http://www.w3.org/2000/svg"
   xmlns="http://www.w3.org/2000/svg"
   xmlns:sodipodi="http://sodipodi.sourceforge.net/DTD/sodipodi-0.dtd"
   xmlns:inkscape="http://www.inkscape.org/namespaces/inkscape"
   width="512"
   height="512"
   id="svg2"
   version="1.1"
   inkscape:version="0.48.4 r9939"
   sodipodi:docname="ibus1.svg">
  <defs
     id="defs4" />
  <sodipodi:namedview
     id="base"
     pagecolor="#ffffff"
     bordercolor="#666666"
     borderopacity="1.0"
     inkscape:pageopacity="0.0"
     inkscape:pageshadow="2"
     inkscape:zoom="0.9899495"
     inkscape:cx="219.23342"
     inkscape:cy="254.19406"
     inkscape:document-units="px"
     inkscape:current-layer="layer1"
     showgrid="false"
     inkscape:window-width="1309"
     inkscape:window-height="750"
     inkscape:window-x="55"
     inkscape:window-y="-3"
     inkscape:window-maximized="1" />
  <metadata
     id="metadata7">
    <rdf:RDF>
      <cc:Work
         rdf:about="">
        <dc:format>image/svg+xml</dc:format>
        <dc:type
           rdf:resource="http://purl.org/dc/dcmitype/StillImage" />
        <dc:title />
      </cc:Work>
    </rdf:RDF>
  </metadata>
  <g
     inkscape:label="Layer 1"
     inkscape:groupmode="layer"
     id="layer1"
     transform="translate(0,-540.36218)">
    <path
       sodipodi:type="arc"
       style="fill:#0078ad;fill-rule:evenodd;stroke:none"
       id="path2985"
       sodipodi:cx="202.85715"
       sodipodi:cy="-316.57144"
       sodipodi:rx="360"
       sodipodi:ry="360"
       d="m 562.85715,-316.57144 a 360,360 0 1 1 -720,0 360,360 0 1 1 720,0 z"
       transform="matrix(0.67760856,0,0,0.67760856,118.54226,1010.8737)" />
    <path
       style="fill:#6ea6c1;fill-rule:evenodd;stroke:none"
       d="M 256 6 C 117.93705 6 6 117.93705 6 256 C 6 394.06295 117.93705 506 256 506 C 394.06295 506 506 394.06295 506 256 C 506 117.93705 394.06295 6 256 6 z M 256 42.90625 C 373.68849 42.90625 469.09375 138.31151 469.09375 256 C 469.09375 373.68849 373.68849 469.09375 256 469.09375 C 138.31151 469.09375 42.90625 373.68849 42.90625 256 C 42.90625 138.31151 138.31151 42.90625 256 42.90625 z "
       transform="translate(0,540.36218)"
       id="path12987" />
    <path
       style="fill:none;stroke:#a2c7d8;stroke-width:11;stroke-miterlimit:4;stroke-opacity:1;stroke-dasharray:none"
       d="m 256,604.56719 c -105.91912,0 -191.794988,85.87587 -191.794988,191.79499 0,105.91912 85.875868,191.79502 191.794988,191.79502 105.91912,0 191.79499,-85.8759 191.79499,-191.79502 0,-105.91912 -85.87587,-191.79499 -191.79499,-191.79499 z"
       id="path13762"
       inkscape:connector-curvature="0" />
    <text
       xml:space="preserve"
       style="font-size:315.17712402px;font-style:normal;font-variant:normal;font-weight:bold;font-stretch:normal;line-height:125%;letter-spacing:0px;word-spacing:0px;fill:#fff8eb;fill-opacity:1;stroke:#fff8eb;stroke-width:0.92184985;stroke-opacity:1;font-family:Serif;-inkscape-font-specification:Serif Bold"
       x="200.52081"
       y="917.70844"
       id="text13764"
       sodipodi:linespacing="125%"><tspan
         sodipodi:role="line"
         id="tspan13766"
         x="200.52081"
         y="917.70844"
         style="stroke-width:0.92184985">i</tspan></text>
  </g>
</svg>
