<svg xmlns="http://www.w3.org/2000/svg" width="512" height="512">
 <g transform="translate(0,-540.36218)">
  <path d="M 263.25 546.42468 A 250.00001 250.00001 0 0 0 6 796.36218 250.00001 250.00001 0 0 0 443.46875 961.45593 l 0 -330.21875 A 250.00001 250.00001 0 0 0 263.25 546.42468 z" fill="#e4a146" fill-rule="evenodd"/>
  <path d="M 66.71875 92.8125 A 250.00001 250.00001 0 0 0 6 256 A 250.00001 250.00001 0 0 0 66.71875 418.84375 L 66.71875 92.8125 z" transform="translate(0,540.36218)" fill="#5a4739" fill-rule="evenodd"/>
  <text x="130.94844" y="897.31964" fill="#fff8eb" font-family="Sans" word-spacing="0" line-height="125%" font-weight="bold" letter-spacing="0" font-size="320.55954"><tspan x="130.94844" y="897.31964">@</tspan>
  </text>
  <path d="M 443.46875 90.875 L 443.46875 421.09375 A 250.00001 250.00001 0 0 0 506 256 A 250.00001 250.00001 0 0 0 443.46875 90.875 z" transform="translate(0,540.36218)" fill="#ccc" fill-rule="evenodd"/>
  <g fill="#707175">
   <path transform="translate(0,540.36218)" d="M 443.46875 90.875 L 443.46875 421.09375 A 250.00001 250.00001 0 0 0 453.5625 408.4375 L 453.5625 103.5625 A 250.00001 250.00001 0 0 0 443.46875 90.875 z" fill-rule="evenodd"/>
   <rect ry="8.958742" rx="9.06319" y="763.58093" x="445.67084" height="70.71429" width="31.07143" fill-rule="evenodd"/>
   <rect width="31.07143" height="70.71429" x="445.67084" y="844.29523" rx="9.06319" ry="8.958742" fill-rule="evenodd"/>
  </g>
  <path d="m 440.84375 682.86218 c -5.02101 0 -9.0625 3.97436 -9.0625 8.9375 l 0 52.8125 c 0 4.96314 4.04149 8.96875 9.0625 8.96875 10.40748 -0.10211 19.05376 0 29.5625 0 5.02101 0 9.0625 -4.00561 9.0625 -8.96875 l 0 -52.8125 c 0 -4.96314 -4.04149 -8.9375 -9.0625 -8.9375 -10.41816 0.10293 -19.0438 0 -29.5625 0 z" fill="#e4a146" fill-rule="evenodd"/>
  <path d="m 96.00001 604.26843 c -14.90078 12.42414 -28.33342 26.53452 -40 42.0625 l 0 300.0625 c 11.66658 15.52798 25.09922 29.63837 40 42.0625 l 0 -384.1875 z" fill="#3b2c1f" fill-rule="evenodd"/>
 </g>
</svg>
