<svg xmlns="http://www.w3.org/2000/svg" xmlns:xlink="http://www.w3.org/1999/xlink" width="512" height="512">
 <defs>
  <linearGradient id="2">
   <stop stop-color="#ef9d43"/>
   <stop offset="1" stop-color="#d96b1f"/>
  </linearGradient>
  <linearGradient id="3">
   <stop stop-color="#ffeb68"/>
   <stop offset="1" stop-color="#f0c72b"/>
  </linearGradient>
  <linearGradient id="4">
   <stop stop-color="#d95100"/>
   <stop offset="1" stop-color="#a53d00"/>
  </linearGradient>
  <linearGradient xlink:href="#2" id="5" gradientUnits="userSpaceOnUse" gradientTransform="matrix(0.8652831,0,0,0.8652831,34.487526,34.445427)" x1="156.42418" y1="55.30335" x2="377.61899" y2="430.03525"/>
  <linearGradient xlink:href="#4" id="6" gradientUnits="userSpaceOnUse" gradientTransform="matrix(0.66495668,0,0,0.66495668,85.77109,85.728991)" x1="256.62958" y1="398.90891" x2="258.37622" y2="297.2103"/>
  <linearGradient xlink:href="#3" id="7" x1="315.16068" y1="85.68808" x2="439.67709" y2="301.35684" gradientUnits="userSpaceOnUse"/>
 </defs>
 <path d="m 506 256.00004 c 0 138.07119 -111.92881 250 -250 250 -138.07119 0 -250 -111.92881 -250 -250 C 6 117.92886 117.92881 6.00005 256 6.00005 c 138.07119 0 250 111.92881 250 249.99999 z" fill="#366378" fill-rule="evenodd"/>
 <path d="m 537.04892 193.37769 a 161.31506 161.31506 0 1 1 -322.63013 0 161.31506 161.31506 0 1 1 322.63013 0 z" transform="matrix(0.8652831,0,0,0.8652831,-69.116159,88.631457)" fill="url(#7)" fill-rule="evenodd"/>
 <path d="m 730.0995 206.28633 a 6.553538 13.10708 0 1 1 -13.10708 0 6.553538 13.10708 0 1 1 13.10708 0 z" transform="matrix(4.3199112,0,0,3.2239801,-2900.4164,-463.10184)" fill="#fff8eb" fill-rule="evenodd" id="0"/>
 <use transform="matrix(1 0 0 1 61.218 0)" xlink:href="#0"/>
 <path d="m 186.46154 283.13493 c 52.04951 31.85144 96.85623 25.42241 139.07686 3.8246 -2.5643 11.29822 -7.31206 20.4389 -13.23338 28.94957 -11.42106 16.82693 -22.27147 27.10114 -35.74278 32.23972 -9.55907 3.3746 -17.32059 4.5255 -24.42375 3.89986 -20.85477 -3.48924 -32.59176 -13.48673 -45.09479 -27.19206 -12.28768 -10.92466 -15.14744 -25.96097 -20.58216 -41.72169 z" fill="url(#6)"/>
 <path d="m 731.74171 221.11937 a 3.757339 3.757339 0 1 1 -7.51467 0 3.757339 3.757339 0 1 1 7.51467 0 z" transform="matrix(4.9729391,0,0,4.9729391,-3395.1507,-879.88348)" fill="#282629" fill-rule="evenodd" id="1"/>
 <use transform="matrix(1 0 0 1 61.4639 0)" xlink:href="#1"/>
 <path d="m 256 36.879036 c -20.86075 0 -37.77502 16.914266 -37.77502 37.775016 l 0 39.451498 c -12.63213 3.35643 -24.61439 8.33782 -35.66588 14.73686 l -27.8513 -27.87834 c -14.75078 -14.750781 -38.68046 -14.750781 -53.43123 0 -14.750781 14.75077 -14.750781 38.68045 0 53.43123 l 27.79722 27.79722 c -6.44379 11.06303 -11.45599 23.06366 -14.84502 35.71996 l -39.532619 0 c -20.735924 0.14581 -37.504615 17.00474 -37.504615 37.77502 0 20.86075 16.914266 37.77502 37.775016 37.77502 l 39.09998 0 c 3.35676 12.73239 8.37304 24.80553 14.81797 35.93628 l -27.79721 27.77018 0.027 0.027 c -14.573016 14.76461 -14.529127 38.52355 0.16224 53.21491 14.75077 14.75078 38.68045 14.75078 53.43123 0 l 27.52682 -27.55385 c 11.14551 6.49324 23.22923 11.56246 35.99036 14.95317 l 0 39.1811 c 0.14581 20.73592 17.00474 37.50461 37.77502 37.50461 20.86075 0 37.77502 -16.91426 37.77502 -37.77501 l 0 -38.9107 c 12.76113 -3.39071 24.84485 -8.45993 35.99036 -14.95317 l 27.52682 27.55385 c 14.75078 14.75078 38.68046 14.75078 53.43123 0 14.69137 -14.69136 14.73526 -38.4503 0.16224 -53.21491 l 0.027 -0.027 -27.79721 -27.77018 c 6.44493 -11.13075 11.46121 -23.20389 14.81797 -35.93628 l 39.09998 0 c 20.86075 0 37.77501 -16.91427 37.77501 -37.77502 0 -20.77028 -16.76869 -37.62921 -37.50461 -37.77502 l -39.53262 0 C 394.3822 205.25618 389.37 193.25555 382.92621 182.19252 l 27.79722 -27.79722 c 14.75078 -14.75078 14.75078 -38.68046 0 -53.43123 -14.75077 -14.750781 -38.68045 -14.750781 -53.43123 0 -0.15061 0.15061 -0.2851 0.30717 -0.43264 0.45968 l -27.41866 27.41866 c -11.05149 -6.39904 -23.03375 -11.38043 -35.66588 -14.73686 l 0 -39.451498 c 0 -20.86075 -16.91427 -37.775016 -37.77502 -37.775016 z m 0 89.77312 c 71.40779 0 129.30574 57.89794 129.30574 129.30574 0 71.40779 -57.89795 129.30574 -129.30574 129.30574 -71.4078 0 -129.30574 -57.89795 -129.30574 -129.30574 0 -71.4078 57.89794 -129.30574 129.30574 -129.30574 z" fill="url(#5)" fill-rule="evenodd"/>
</svg>
