<?xml version="1.0" encoding="UTF-8" standalone="no"?>
<!-- Created with Inkscape (http://www.inkscape.org/) -->

<svg
   xmlns:dc="http://purl.org/dc/elements/1.1/"
   xmlns:cc="http://creativecommons.org/ns#"
   xmlns:rdf="http://www.w3.org/1999/02/22-rdf-syntax-ns#"
   xmlns:svg="http://www.w3.org/2000/svg"
   xmlns="http://www.w3.org/2000/svg"
   xmlns:sodipodi="http://sodipodi.sourceforge.net/DTD/sodipodi-0.dtd"
   xmlns:inkscape="http://www.inkscape.org/namespaces/inkscape"
   width="512"
   height="512"
   id="svg2"
   version="1.1"
   inkscape:version="0.48.4 r9939"
   sodipodi:docname="kapudan.svg">
  <sodipodi:namedview
     id="base"
     pagecolor="#ffffff"
     bordercolor="#666666"
     borderopacity="1.0"
     inkscape:pageopacity="0.0"
     inkscape:pageshadow="2"
     inkscape:zoom="0.98994949"
     inkscape:cx="231.03171"
     inkscape:cy="234.81881"
     inkscape:document-units="px"
     inkscape:current-layer="svg2"
     showgrid="false"
     inkscape:window-width="1309"
     inkscape:window-height="750"
     inkscape:window-x="55"
     inkscape:window-y="-3"
     inkscape:window-maximized="1" />
  <defs
     id="defs4" />
  <metadata
     id="metadata7">
    <rdf:RDF>
      <cc:Work
         rdf:about="">
        <dc:format>image/svg+xml</dc:format>
        <dc:type
           rdf:resource="http://purl.org/dc/dcmitype/StillImage" />
        <dc:title />
      </cc:Work>
    </rdf:RDF>
  </metadata>
  <g
     transform="translate(0,-540.36218)"
     id="layer1"
     inkscape:groupmode="layer"
     inkscape:label="Layer 1">
    <path
       transform="matrix(0.69444444,0,0,0.69444444,115.12698,1016.2035)"
       d="m 562.85715,-316.57144 c 0,198.82251 -161.17749,359.999998 -360,359.999998 -198.8225127,0 -360,-161.177488 -360,-359.999998 0,-198.82251 161.1774873,-360 360,-360 198.82251,0 360,161.17749 360,360 z"
       sodipodi:ry="360"
       sodipodi:rx="360"
       sodipodi:cy="-316.57144"
       sodipodi:cx="202.85715"
       id="path2985"
       style="fill:#62c0dc;fill-rule:evenodd;stroke:none"
       sodipodi:type="arc" />
    <path
       inkscape:connector-curvature="0"
       id="path2983"
       d="m 256,563.53477 c -128.58703,0 -232.827407,104.24038 -232.827407,232.82741 0,128.58703 104.240377,232.82742 232.827407,232.82742 128.58703,0 232.82741,-104.24039 232.82741,-232.82742 C 488.82741,667.77515 384.58703,563.53477 256,563.53477 z m 0,20.69254 c 117.15649,0 212.13487,94.97838 212.13487,212.13487 0,117.15649 -94.97838,212.13482 -212.13487,212.13482 -117.15649,0 -212.134871,-94.97833 -212.134871,-212.13482 0,-117.15649 94.978381,-212.13487 212.134871,-212.13487 z"
       style="fill:#ffffff;fill-rule:evenodd;stroke:none" />
  </g>
  <path
     style="fill:#ffffff;stroke:#ffffff;stroke-width:3.83008122"
     d="m 245.18443,85.664895 -8.26132,25.302825 0,2.23495 2.95332,21.9504 -30.33146,8.1416 -8.46088,-20.51365 -1.07756,-1.95558 -19.79528,-17.75986 -18.75761,10.81555 5.46764,26.06111 1.15739,1.91567 13.52943,17.56032 -22.18987,22.18987 -17.56032,-13.52943 -1.91567,-1.15739 -26.06111,-5.46764 -10.81555,18.75761 17.75986,19.79528 1.95558,1.07756 20.51365,8.46088 -8.1416,30.33146 -21.9504,-2.95332 -2.23495,0 -25.302825,8.26132 0,21.63114 25.302825,8.26132 2.23495,0 21.9504,-2.95332 8.1416,30.33146 -20.51365,8.46088 -1.95558,1.07756 -17.75986,19.79528 10.81555,18.75761 26.06111,-5.46764 1.91567,-1.15739 17.56032,-13.52943 22.18987,22.18987 -13.52943,17.56032 -1.15739,1.91567 -5.46764,26.06111 18.75761,10.81555 19.79528,-17.75986 1.07756,-1.95558 8.46088,-20.51365 30.33146,8.1416 -2.95332,21.9504 0,2.23495 8.26132,25.30283 21.63114,0 8.26132,-25.30283 0,-2.23495 -2.95332,-21.9504 30.33146,-8.1416 8.46088,20.51365 1.07756,1.95558 19.79528,17.75986 18.75761,-10.81555 -5.46764,-26.06111 -1.15739,-1.91567 -13.52943,-17.56032 22.18987,-22.18987 17.56032,13.52943 1.91567,1.15739 26.06111,5.46764 10.81555,-18.75761 -17.75986,-19.79528 -1.95558,-1.07756 -20.51365,-8.46088 8.1416,-30.33146 21.9504,2.95332 2.23495,0 25.30283,-8.26132 0,-21.63114 -25.30283,-8.26132 -2.23495,0 -21.9504,2.95332 -8.1416,-30.33146 20.51365,-8.46088 1.95558,-1.07756 17.75986,-19.79528 -10.81555,-18.75761 -26.06111,5.46764 -1.91567,1.15739 -17.56032,13.52943 -22.18987,-22.18987 13.52943,-17.56032 1.15739,-1.91567 5.46764,-26.06111 -18.75761,-10.81555 -19.79528,17.75986 -1.07756,1.95558 -8.46088,20.51365 -30.33146,-8.1416 2.95332,-21.9504 0,-2.23495 -8.26132,-25.302825 -21.63114,0 z M 256,195.25725 c 33.55343,0 60.74275,27.18932 60.74275,60.74275 0,33.55343 -27.18932,60.74275 -60.74275,60.74275 -33.55343,0 -60.74275,-27.18932 -60.74275,-60.74275 0,-33.55343 27.18932,-60.74275 60.74275,-60.74275 z"
     id="path3941"
     inkscape:connector-curvature="0" />
</svg>
