<svg xmlns="http://www.w3.org/2000/svg" xmlns:xlink="http://www.w3.org/1999/xlink" width="512" height="512">
 <defs>
  <linearGradient id="0">
   <stop stop-color="#70b5d3"/>
   <stop offset="1" stop-color="#0078ad"/>
  </linearGradient>
  <radialGradient xlink:href="#0" id="1" cx="328.54587" cy="201.769" r="250" gradientTransform="matrix(1,0,0,1.0084347,0,-2.1592883)" gradientUnits="userSpaceOnUse"/>
 </defs>
 <path d="m 493.97944 256 a 237.97944 240.08812 0 0 1 -475.95888 0 237.97944 240.08812 0 1 1 475.95888 0 z" fill="url(#1)" fill-rule="evenodd" stroke="#0078ad" stroke-width="24.04112"/>
 <g transform="matrix(0.91280777,0,0,0.91280777,22.841183,22.063045)">
  <path d="m 82.75876 370.79911 0 -235.52001 62.987243 0 0 106.98142 73.83061 -106.98142 74.14955 0 -86.26861 114.86426 93.7633 120.65575 -79.41175 0 -76.0631 -105.69443 0 105.69443 -62.987243 0" fill="#fff8eb"/>
  <path d="m 334.20645,370.79908 c -4.23451,0 -7.84172,-1.35512 -10.8217,-4.06574 -2.97972,-2.75789 -4.46971,-6.06279 -4.46977,-9.91467 6e-5,-3.99432 1.46388,-7.32295 4.39139,-9.9861 2.92771,-2.71042 6.56102,-4.06552 10.90008,-4.06573 4.33918,2.1e-4 8.02484,1.37906 11.0569,4.13715 3.03219,2.71043 4.54828,6.01552 4.54822,9.91468 6e-5,3.80421 -1.54214,7.08536 -4.62666,9.84346 -3.08434,2.7581 -6.74382,4.13695 -10.97846,4.13695 m 103.9035,-1.2839 -79.20194,0 0,-25.46444 79.20194,0 0,25.46444 m 0,-45.65047 -121.54753,0 0,-25.46445 121.54753,0 0,25.46445 m -49.79527,-94.29664 c -4.49588,0.47558 -8.10309,2.04474 -10.82163,4.70768 -2.71848,2.61548 -4.07769,5.84895 -4.07775,9.70063 6e-5,4.13715 1.25472,7.44204 3.76403,9.91468 2.45717,2.42535 6.16893,4.04199 11.13535,4.85051 l 0,-29.1735 m 15.76194,-25.03654 0,54.78057 c 6.11666,-0.0475 10.84787,-1.47401 14.19364,-4.27979 3.29356,-2.80537 4.94038,-6.77615 4.94031,-11.91173 7e-5,-3.85188 -0.78418,-7.08535 -2.35255,-9.70082 -1.62058,-2.66295 -0.32386,-4.68394 -3.4606,-6.063 l 4.79377,-19.11618 c 6.06431,2.28273 10.74318,6.32472 14.03675,12.12598 3.29356,5.80147 4.94031,12.91057 4.94031,21.3273 0,12.55388 -3.81631,22.63512 -11.44899,30.24354 -7.6849,7.56073 -17.80079,11.3412 -30.34768,11.3412 -12.33766,0 -22.58428,-3.78047 -30.73977,-11.3412 -8.15537,-7.60842 -12.23311,-17.21409 -12.23318,-28.81682 7e-5,-11.93567 4.13009,-21.35123 12.39,-28.24627 8.26005,-6.89505 19.57839,-10.34258 33.95489,-10.34278 l 1.3331,0" fill="#fff8eb"/>
 </g>
 <path d="m 472.73092 256 a 216.73092 218.65132 0 0 1 -433.46184 0 216.73092 218.65132 0 1 1 433.46184 0 z" fill="none" stroke="#fff8eb" stroke-width="21.894556"/>
</svg>
