<svg xmlns="http://www.w3.org/2000/svg" xmlns:xlink="http://www.w3.org/1999/xlink" width="512" height="512">
 <defs>
  <path id="0" d="m 562.85715 -316.57144 c 0 198.82251 -161.17749 360 -360 360 -198.82251 0 -360 -161.17749 -360 -360 0 -198.82251 161.17749 -360 360 -360 198.82251 0 360 161.17749 360 360 z" fill-rule="evenodd"/>
 </defs>
 <g transform="translate(0,-540.36218)">
  <use transform="matrix(0.69444444,0,0,0.69444444,115.12698,1016.2035)" fill="#0078ad" xlink:href="#0"/>
  <g transform="matrix(1.151564,0,0,1.151564,-46.453897,-120.69985)">
   <g transform="matrix(0.83021233,0,0,0.83021233,60.638237,135.21248)">
    <path d="m 175.95434 808.24042 78.26896 0 2.02031 163.12178 -175.24361 0 z" fill="#fff8eb"/>
    <use transform="matrix(0.48611111,0,0,0.48611111,157.38889,950.25107)" fill="#fff8eb" xlink:href="#0"/>
   </g>
   <g transform="matrix(0.78245544,0,0,0.78245544,48.637582,173.28326)">
    <use transform="matrix(0.09126984,0,0,0.09126984,276.05668,825.96989)" fill="#0078ad" xlink:href="#0"/>
    <use transform="matrix(0.09126984,0,0,0.09126984,366.77097,825.96989)" fill="#0078ad" xlink:href="#0"/>
    <use transform="matrix(0.09126984,0,0,0.09126984,185.3424,825.96989)" fill="#0078ad" xlink:href="#0"/>
   </g>
  </g>
 </g>
</svg>
