<svg xmlns="http://www.w3.org/2000/svg" xmlns:xlink="http://www.w3.org/1999/xlink" width="512" height="512">
 <defs>
  <linearGradient id="0">
   <stop stop-color="#96bee7"/>
   <stop offset="1" stop-color="#729fcf"/>
  </linearGradient>
  <radialGradient xlink:href="#0" id="1" cx="202.85715" cy="-316.57144" r="360" gradientUnits="userSpaceOnUse"/>
 </defs>
 <path d="m 562.85715 -316.57144 c 0 198.82251 -161.17749 360 -360 360 -198.82251 0 -360 -161.17749 -360 -360 0 -198.82251 161.17749 -360 360 -360 198.82251 0 360 161.17749 360 360 z" transform="matrix(0.69444444 0 0 0.69444444 115.12698 475.84132)" fill="url(#1)" fill-rule="evenodd"/>
 <path d="M 256 32.25 C 132.434 32.25 32.25 132.434 32.25 256 C 32.25 379.566 132.434 479.75 256 479.75 C 379.566 479.75 479.75 379.566 479.75 256 C 479.75 132.434 379.566 32.25 256 32.25 z M 280.21875 62.6875 C 280.2599 62.53871 338.86339 95.64025 340.75 178.9375 C 342.63696 262.2509 280.25975 280.54241 280.21875 280.6875 C 279.71514 280.54243 317.25 247.96139 317.25 181.53125 C 317.25 115.09705 280.97319 63.27272 280.21875 62.6875 z M 213.625 86.90625 C 230.34725 86.90625 243.875 100.46525 243.875 117.1875 C 243.875 133.90975 230.34725 147.46875 213.625 147.46875 C 196.90275 147.46875 183.34375 133.90975 183.34375 117.1875 C 183.34375 100.46525 196.90275 86.90625 213.625 86.90625 z M 214.59375 195.78125 C 230.72946 195.78125 243.875 209.04806 243.875 225.28125 C 243.875 233.39784 240.47828 240.67717 235.1875 246 C 235.15307 246.0775 234.77465 245.9371 234.71875 246 C 221.30185 261.19434 185.99129 292.78125 171.21875 292.78125 C 172.71133 292.02263 201.67195 268.5571 201.71875 248.125 C 190.65 242.00597 185.28125 234.81637 185.28125 225.28125 C 185.28125 209.04805 198.45815 195.78125 214.59375 195.78125 z M 70.6875 307.9375 L 212.09375 307.9375 C 234.40462 337.76412 265.32166 391.73799 331.34375 389.0625 C 314.8226 373.26567 292.60183 334.02662 319.875 307.9375 L 441.3125 307.9375 C 418.65522 388.98012 344.27841 448.40625 256 448.40625 C 167.72159 448.40625 93.34478 388.98012 70.6875 307.9375 z" fill="#fff8eb"/>
</svg>
