<svg xmlns="http://www.w3.org/2000/svg" width="512" height="512">
 <g transform="translate(0,-540.36218)">
  <path d="m 562.85715 -316.57144 c 0 198.82251 -161.17749 360 -360 360 -198.82251 0 -360 -161.17749 -360 -360 0 -198.82251 161.17749 -360 360 -360 198.82251 0 360 161.17749 360 360 z" transform="matrix(0.69444444,0,0,0.69444444,115.12698,1016.2035)" fill="#654641" fill-rule="evenodd"/>
  <path d="m 255.97513 620.82236 c -63.59395 0 -115.11855 49.42446 -115.11855 110.43001 0 61.00556 51.5246 110.47989 115.11855 110.47989 63.59397 0 115.16843 -49.47433 115.16843 -110.47989 0 -61.00555 -51.57446 -110.43001 -115.16843 -110.43001 z m -4.13987 29.22855 a 8.779416 8.779416 0 0 1 1.54621 17.45731 c -16.11813 2.00811 -30.16157 6.92692 -40.70048 16.16049 -10.53893 9.23357 -18.20825 22.97065 -20.79916 45.08977 a 8.788345 8.788345 0 1 1 -17.45731 -2.04501 c 2.9738 -25.38775 12.67002 -43.98358 26.68475 -56.26245 14.01473 -12.27885 31.7201 -18.06314 50.07757 -20.35024 a 8.779416 8.779416 0 0 1 0.64842 -0.0498 z" fill="#e4a146"/>
  <path d="M 206.00035 909.5919 309.39864 897.39921" fill="#fff8eb" stroke="#fff8eb" stroke-linejoin="round" stroke-linecap="round" stroke-width="15.739028"/>
  <path d="M 206.00035 938.9487 309.39864 926.75602" fill="#fff8eb" stroke="#fff8eb" stroke-linejoin="round" stroke-linecap="round" stroke-width="15.960978"/>
  <path d="m 225.94635 963.92157 63.5063 -6.84503" fill="#fff8eb" stroke="#fff8eb" stroke-linejoin="round" stroke-linecap="round" stroke-width="15.960978"/>
  <rect width="118.90728" height="79.0028" x="196.66914" y="808.15637" rx="31.572824" fill="#e4a146"/>
  <path d="m 310.29233 805.47092 c -0.85506 0.28501 -3.27769 39.71719 -2.99267 42.99488 0.285 3.27769 5.28707 15.11305 5.28707 15.11305 l 2.64353 -6.03524 c 0.21416 -7.59031 2.41542 -16.98127 6.53403 -26.23585 3.9576 -8.89283 8.86589 -15.94225 13.66658 -20.10086 l 1.09731 -2.4939 c 0 0 -25.38081 -3.52709 -26.23585 -3.24208 z" fill="#e4a146"/>
  <path d="m 201.63743 805.47093 c 0.85506 0.285 3.2777 39.71718 2.99269 42.99488 -0.28502 3.27769 -5.28707 15.11304 -5.28707 15.11304 l -2.64354 -6.03524 c -0.21417 -7.59031 -2.41542 -16.98127 -6.53403 -26.23585 -3.9576 -8.89282 -8.86589 -15.94225 -13.66659 -20.10086 l -1.09731 -2.4939 c 0 0 25.38081 -3.52709 26.23585 -3.24207 z" fill="#e4a146"/>
  <path d="m 256 566.56523 c -126.91335 0 -229.79695 102.8836 -229.79695 229.79695 0 126.91335 102.8836 229.79692 229.79695 229.79692 126.91335 0 229.79695 -102.88357 229.79695 -229.79692 0 -126.91335 -102.8836 -229.79695 -229.79695 -229.79695 z m 0 25.07659 c 113.06755 0 204.72036 91.65281 204.72036 204.72036 0 113.06755 -91.65281 204.72032 -204.72036 204.72032 -113.06755 0 -204.72036 -91.65277 -204.72036 -204.72032 0 -113.06755 91.65281 -204.72036 204.72036 -204.72036 z" fill="#fff8eb" fill-rule="evenodd"/>
 </g>
</svg>
