<svg xmlns="http://www.w3.org/2000/svg" width="512" height="512">
 <path d="m 500.79169 256 c 0 135.19472 -109.59698 244.79167 -244.79168 244.79167 C 120.80529 500.79167 11.208336 391.19472 11.208336 256 c 0 -135.1947 109.59695 -244.79168 244.79167 -244.79168 135.1947 0 244.79168 109.59698 244.79168 244.79168 z" fill="#fff8eb" fill-rule="evenodd"/>
 <path d="m 35.21875 150.125 c -1.51785 3.15933 -2.95931 6.36098 -4.34375 9.59375 l 450.25 0 c -1.38444 -3.23277 -2.8259 -6.43442 -4.34375 -9.59375 l -441.5625 0 z m -17.625 76.59375 c -0.46756 2.01999 -1.051567 4.0237 -1.46875 6.0625 l 0 3.5625 479.71875 0 0 -3.5625 c -0.41701 -2.0388 -0.96995 -4.04251 -1.4375 -6.0625 l -476.8125 0 z m 0 76.625 c -0.3083 1.33196 -0.640398 2.64548 -0.96875 3.96875 0.40183 1.8838 0.805101 3.75752 1.25 5.625 l 476.25 0 c 0.44254 -1.85758 0.85007 -3.72002 1.25 -5.59375 -0.32122 -1.33405 -0.65799 -2.65739 -0.96875 -4 l -476.8125 0 z M 44.875 379.9375 c 1.908599 3.24414 3.885866 6.44757 5.9375 9.59375 l 410.375 0 c 2.05163 -3.14618 4.0289 -6.34961 5.9375 -9.59375 l -422.25 0 z m 70.71875 76.59375 c 4.80201 3.36822 9.73478 6.57025 14.78125 9.59375 l 251.25 0 c 5.04647 -3.0235 9.97924 -6.22553 14.78125 -9.59375 l -280.8125 0 z" fill="#99c1c3" fill-rule="evenodd" stroke="#99c1c3" stroke-width="7"/>
 <path d="m 118.86222 106.17709 c -3.29856 2.03227 -6.52361 4.16763 -9.69948 6.33427 l 0 336.98325 c 3.17587 2.16663 6.40092 4.30199 9.69948 6.33426 l 0 -349.65178 z" fill="#f5a0a7" fill-rule="evenodd" stroke="#f5a0a7" stroke-width="6.584897"/>
 <path d="m 86.37181 115.28368 c -2.653597 2.29696 -5.230556 4.62949 -7.768206 7.03138 l 0 306.52071 c 2.494632 2.36121 5.0298 4.6524 7.636542 6.9122 l 1.448309 0 0 -320.46429 -1.316645 0 z" fill="#f5a0a7" fill-rule="evenodd" stroke="#f5a0a7" stroke-width="6.668039"/>
 <path d="m 256 14.79018 c -85.72454 0 -161.04906 43.55869 -204.10714 109.30357 l 408.21428 0 C 417.04907 58.34887 341.72454 14.79018 256 14.79018 z" fill="#366378" fill-rule="evenodd"/>
 <path d="M 256 5.99999 C 117.92881 5.99999 5.99999 117.9288 5.99999 256 5.99999 394.07119 117.92881 506.00003 256 506.00003 394.07119 506.00003 506.00001 394.07119 506.00001 256 506.00001 117.9288 394.07119 5.99999 256 5.99999 z m 0 11.58854 C 387.67868 17.58853 494.41147 124.32131 494.41147 256 494.41147 387.67868 387.67868 494.41143 256 494.41143 124.32132 494.41143 17.58853 387.67868 17.58853 256 17.588534 124.32131 124.32132 17.58853 256 17.58853 z" fill="#fff8eb" fill-rule="evenodd"/>
 <path d="m 71.375 98.34375 c -1.01152 1.16391 -2.01123 2.34812 -3 3.53125 l 13.9375 0 0 -3.53125 -10.9375 0 z m 32.9375 0 0 3.53125 32.84375 0 0 -3.53125 -32.84375 0 z m 54.84375 0 0 3.53125 32.84375 0 0 -3.53125 -32.84375 0 z m 54.84375 0 0 3.53125 32.8125 0 0 -3.53125 -32.8125 0 z m 54.8125 0 0 3.53125 32.84375 0 0 -3.53125 -32.84375 0 z m 54.84375 0 0 3.53125 32.8125 0 0 -3.53125 -32.8125 0 z m 54.8125 0 0 3.53125 32.84375 0 0 -3.53125 -32.84375 0 z m 54.84375 0 0 3.53125 10.3125 0 c -0.98877 -1.18313 -1.98848 -2.36734 -3 -3.53125 l -7.3125 0 z" fill="#0078ad" stroke="#fff8eb" stroke-linejoin="round" stroke-linecap="round" stroke-width="7" stroke-dashoffset="200"/>
 <g transform="matrix(0.46999862,0.46999862,-0.46999862,0.46999862,523.5678,-199.91096)">
  <path transform="translate(0,540.36218)" d="m 185.53125 141.96875 0 212.8125 0 26.15625 0 6.65625 56.65625 109.75 a 15.316034 17.06409 0 0 0 15.46875 8.5 15.316034 17.06409 0 0 0 11.03125 -8.40625 l 57.75 -111 0 -5.5 0 -25.40625 0 -213.5625 -140.90625 0 z M 256.875 353.9375 a 4.274291 4.274291 0 0 1 3.4375 1.375 l 24.03125 26.375 9.21875 0 a 4.274291 4.274291 0 0 1 3.6875 6.40625 l -29.15625 50.4375 a 4.274291 4.274291 0 0 1 -3.6875 2.15625 l -15.4375 0 a 4.274291 4.274291 0 0 1 -3.75 -2.1875 L 215.9375 386 a 4.274291 4.274291 0 0 1 3.71875 -6.375 l 12.40625 0 L 254 355.34375 a 4.274291 4.274291 0 0 1 2.875 -1.40625 z" fill="#282629" fill-rule="evenodd"/>
  <rect ry="28.25125" rx="57.985062" y="546.36218" x="185.55164" height="56.50249" width="140.92384" fill="#282629" fill-rule="evenodd"/>
  <path d="m 185.552,574.376 h 140.923 v 33.237 H 185.552 z" fill="#282629" fill-rule="evenodd"/>
  <path d="m 185.552,625.893 h 140.923 v 34.899 H 185.552 z" fill="#282629" fill-rule="evenodd"/>
 </g>
</svg>
