<?xml version="1.0" encoding="UTF-8" standalone="no"?>
<!-- Created with Inkscape (http://www.inkscape.org/) -->

<svg
   xmlns:dc="http://purl.org/dc/elements/1.1/"
   xmlns:cc="http://creativecommons.org/ns#"
   xmlns:rdf="http://www.w3.org/1999/02/22-rdf-syntax-ns#"
   xmlns:svg="http://www.w3.org/2000/svg"
   xmlns="http://www.w3.org/2000/svg"
   xmlns:sodipodi="http://sodipodi.sourceforge.net/DTD/sodipodi-0.dtd"
   xmlns:inkscape="http://www.inkscape.org/namespaces/inkscape"
   width="512"
   height="512"
   id="svg2"
   version="1.1"
   inkscape:version="0.48.4 r9939"
   sodipodi:docname="mpv.svg">
  <defs
     id="defs4" />
  <sodipodi:namedview
     id="base"
     pagecolor="#ffffff"
     bordercolor="#666666"
     borderopacity="1.0"
     inkscape:pageopacity="0.0"
     inkscape:pageshadow="2"
     inkscape:zoom="0.7"
     inkscape:cx="455.26241"
     inkscape:cy="221.89453"
     inkscape:document-units="px"
     inkscape:current-layer="layer1"
     showgrid="false"
     inkscape:window-width="1309"
     inkscape:window-height="750"
     inkscape:window-x="55"
     inkscape:window-y="-3"
     inkscape:window-maximized="1" />
  <metadata
     id="metadata7">
    <rdf:RDF>
      <cc:Work
         rdf:about="">
        <dc:format>image/svg+xml</dc:format>
        <dc:type
           rdf:resource="http://purl.org/dc/dcmitype/StillImage" />
        <dc:title />
      </cc:Work>
    </rdf:RDF>
  </metadata>
  <g
     inkscape:label="Layer 1"
     inkscape:groupmode="layer"
     id="layer1"
     transform="translate(0,-540.36218)">
    <path
       sodipodi:type="arc"
       style="fill:#d1c4b1;fill-rule:evenodd;stroke:none"
       id="path2985"
       sodipodi:cx="202.85715"
       sodipodi:cy="-316.57144"
       sodipodi:rx="360"
       sodipodi:ry="360"
       d="m 562.85715,-316.57144 a 360,360 0 1 1 -720,0 360,360 0 1 1 720,0 z"
       transform="matrix(0.69444444,0,0,0.69444444,115.12703,1016.2035)" />
    <path
       sodipodi:type="arc"
       style="fill:#6b296b;fill-rule:evenodd;stroke:none;fill-opacity:1"
       id="path2998"
       sodipodi:cx="202.85715"
       sodipodi:cy="-316.57144"
       sodipodi:rx="360"
       sodipodi:ry="360"
       d="m 562.85715,-316.57144 a 360,360 0 1 1 -720,0 360,360 0 1 1 720,0 z"
       transform="matrix(0.64742315,0,0,0.64742315,135.84648,998.43156)" />
    <path
       sodipodi:type="arc"
       style="fill:#580d58;fill-rule:evenodd;stroke:none;fill-opacity:1"
       id="path2996"
       sodipodi:cx="202.85715"
       sodipodi:cy="-316.57144"
       sodipodi:rx="360"
       sodipodi:ry="360"
       d="m 562.85715,-316.57144 a 360,360 0 1 1 -720,0 360,360 0 1 1 720,0 z"
       transform="matrix(0.48821232,0,0,0.48821232,179.86724,932.39835)" />
    <path
       style="fill:#d1c4b1;fill-rule:evenodd;stroke:none"
       d="M 259.375 149 C 197.55922 149 147.4375 199.12172 147.4375 260.9375 C 147.4375 322.75328 197.55922 372.84375 259.375 372.84375 C 321.19078 372.84375 371.28125 322.75328 371.28125 260.9375 C 371.28125 199.12172 321.19078 149 259.375 149 z M 222.03125 216.6875 L 259.375 238.8125 L 296.71875 260.9375 L 259.375 283.0625 L 222.03125 305.1875 L 222.03125 260.9375 L 222.03125 216.6875 z "
       transform="translate(0,540.36218)"
       id="path2994" />
  </g>
</svg>
