<?xml version="1.0" encoding="UTF-8" standalone="no"?>
<svg
   xmlns:dc="http://purl.org/dc/elements/1.1/"
   xmlns:cc="http://creativecommons.org/ns#"
   xmlns:rdf="http://www.w3.org/1999/02/22-rdf-syntax-ns#"
   xmlns:svg="http://www.w3.org/2000/svg"
   xmlns="http://www.w3.org/2000/svg"
   xmlns:xlink="http://www.w3.org/1999/xlink"
   xmlns:sodipodi="http://sodipodi.sourceforge.net/DTD/sodipodi-0.dtd"
   xmlns:inkscape="http://www.inkscape.org/namespaces/inkscape"
   width="512"
   height="512"
   id="svg2"
   version="1.1"
   inkscape:version="0.48.4 r9939"
   sodipodi:docname="ninja-ide.svg">
  <metadata
     id="metadata48">
    <rdf:RDF>
      <cc:Work
         rdf:about="">
        <dc:format>image/svg+xml</dc:format>
        <dc:type
           rdf:resource="http://purl.org/dc/dcmitype/StillImage" />
      </cc:Work>
    </rdf:RDF>
  </metadata>
  <sodipodi:namedview
     pagecolor="#ffffff"
     bordercolor="#666666"
     borderopacity="1"
     objecttolerance="10"
     gridtolerance="10"
     guidetolerance="10"
     inkscape:pageopacity="0"
     inkscape:pageshadow="2"
     inkscape:window-width="1309"
     inkscape:window-height="743"
     id="namedview46"
     showgrid="false"
     inkscape:zoom="0.70572571"
     inkscape:cx="224.36487"
     inkscape:cy="224.06067"
     inkscape:window-x="57"
     inkscape:window-y="-2"
     inkscape:window-maximized="1"
     inkscape:current-layer="svg2" />
  <defs
     id="defs4">
    <linearGradient
       id="0">
      <stop
         stop-color="#4f4d50"
         id="stop7" />
      <stop
         offset="1"
         stop-color="#282629"
         id="stop9" />
    </linearGradient>
    <linearGradient
       id="1">
      <stop
         stop-color="#595959"
         id="stop12" />
      <stop
         offset="1"
         stop-color="#282629"
         id="stop14" />
    </linearGradient>
    <radialGradient
       xlink:href="#1"
       id="2"
       cx="256"
       cy="256.00004"
       r="250"
       gradientTransform="translate(0,1.8944003e-6)"
       gradientUnits="userSpaceOnUse" />
    <radialGradient
       xlink:href="#0"
       id="3"
       gradientUnits="userSpaceOnUse"
       gradientTransform="matrix(1,0,0,1.0072802,0,-1.8637197)"
       cx="255.99995"
       cy="255.99999"
       r="153.07539" />
  </defs>
  <path
     d="m 506 256.00004 c 0 138.07119 -111.92881 250 -250 250 -138.07119 0 -250 -111.92881 -250 -250 C 6 117.92886 117.92881 6.00005 256 6.00005 c 138.07119 0 250 111.92881 250 249.99999 z"
     fill="url(#2)"
     fill-rule="evenodd"
     id="path18" />
  <path
     d="M 256 28.26755 C 130.23434 28.26755 28.26755 130.23434 28.26755 256 28.26755 381.76566 130.23434 483.73245 256 483.73245 381.76566 483.73245 483.73245 381.76566 483.73245 256 483.73245 130.23434 381.76566 28.26755 256 28.26755 z m 0 27.11638 C 366.79954 55.38393 456.61607 145.20046 456.61607 256 456.61607 366.79954 366.79954 456.61607 256 456.61607 145.20046 456.61607 55.38393 366.79954 55.38393 256 55.38393 145.20046 145.20046 55.38393 256 55.38393 z"
     fill="#fff8eb"
     fill-rule="evenodd"
     id="path20" />
  <g
     transform="matrix(1.0179283,0,0,1.0179283,-4.5896381,-4.5896394)"
     id="g22">
    <path
       d="m 254.15625 101.8125 c -12.62105 0.0587 -24.67603 1.12341 -35.28125 3 -22.55231 3.98426 -31.76745 11.14162 -35.15625 22.8125 -0.83428 2.87322 -1.32439 6.024 -1.5625 9.46875 -0.0322 0.45995 -0.0388 0.9356 -0.0625 1.40625 -0.0231 0.46564 -0.0471 0.93013 -0.0625 1.40625 -0.0105 0.31994 -0.024 0.64399 -0.0312 0.96875 -0.0168 0.76774 -0.0625 1.51781 -0.0625 2.3125 l 0 28.15625 73.84375 0 0 9.375 -73.84375 0 -27.6875 0 c -21.45643 0 -40.2484 12.90386 -46.125 37.4375 -6.77859 28.12128 -7.07927 45.66815 0 75.03125 5.24792 21.85679 17.76232 37.4375 39.21875 37.4375 l 25.40625 0 0 -33.75 c 0 -24.36808 21.08794 -45.84375 46.125 -45.84375 l 73.71875 0 c 20.5271 0 36.9375 -16.91634 36.9375 -37.53125 l 0 -51.84375 0 -6.6875 c 2.18214 -0.76993 4.77357 -1.72819 6.375 -3.46875 2.30714 2.21108 4.1464 3.77627 7.40625 4.5 7.98732 -0.16328 11.13502 -1.93965 13.6875 -9.3125 0.65451 -3.34854 1.21407 -6.42937 -5 -6.53125 0 0 0.6875 -10.0123 0.6875 -10.5 0.39183 -3.60426 -0.79864 -6.7027 -4.21875 -4.5625 -4.10022 2.12726 -7.46357 6.64986 -10.90625 10.75 -3.54814 -4.99543 -5.16636 -6.4676 -10.59375 -5.9375 0 0 -0.0883 0.0882 -0.0937 0.0937 -0.24259 -0.58454 -0.50801 -1.14945 -0.78125 -1.71875 -0.27235 -0.56744 -0.54199 -1.13571 -0.84375 -1.6875 -0.60815 -1.11206 -1.27883 -2.1734 -2 -3.21875 -6.68739 -9.69353 -18.04356 -16.46036 -30.65625 -18.5625 -12.68254 -2.11116 -25.81648 -3.05865 -38.4375 -3 z"
       fill="#282629"
       stroke="#fff8eb"
       stroke-linejoin="round"
       stroke-linecap="round"
       stroke-width="10"
       id="path24" />
    <path
       d="m 339.25 181.375 0 33.75 c 0 24.36808 -21.08794 45.84375 -46.125 45.84375 l -73.71875 0 c -20.5271 0 -36.9375 16.91634 -36.9375 37.53125 l 0 51.84375 0 6.6875 c -2.18214 0.76993 -4.77357 1.72819 -6.375 3.46875 -2.30714 -2.21108 -4.1464 -3.77627 -7.40625 -4.5 -7.98732 0.16328 -11.13502 1.93965 -13.6875 9.3125 -0.65451 3.34854 -1.21407 6.42937 5 6.53125 0 0 -0.6875 10.0123 -0.6875 10.5 -0.39183 3.60426 0.79864 6.7027 4.21875 4.5625 4.10022 -2.12726 7.46357 -6.64986 10.90625 -10.75 3.54814 4.99543 5.16636 6.4676 10.59375 5.9375 0 0 0.0882 -0.0883 0.0937 -0.0937 0.24259 0.58454 0.50801 1.14945 0.78125 1.71875 0.27235 0.56744 0.54199 1.13571 0.84375 1.6875 0.60815 1.11206 1.27883 2.1734 2 3.21875 6.68739 9.69353 18.04356 16.46036 30.65625 18.5625 12.68254 2.11116 25.81648 3.05865 38.4375 3 12.62105 -0.0587 24.67603 -1.12341 35.28125 -3 22.55231 -3.98426 31.76745 -11.14162 35.15625 -22.8125 0.83428 -2.87322 1.32439 -6.024 1.5625 -9.46875 0.009 -0.13475 0.0227 -0.2706 0.0312 -0.40625 0.0375 -0.5876 0.0695 -1.2076 0.0937 -1.8125 0.0123 -0.31413 0.0223 -0.64996 0.0312 -0.96875 0.006 -0.19457 -0.004 -0.39741 0 -0.59375 0.0168 -0.76774 0.0625 -1.51781 0.0625 -2.3125 l 0 -28.15625 -73.84375 0 0 -9.375 73.84375 0 27.6875 0 c 21.45643 0 40.2484 -12.90386 46.125 -37.4375 6.77859 -28.12128 7.07927 -45.66815 0 -75.03125 -5.24792 -21.85679 -17.76232 -37.4375 -39.21875 -37.4375 l -25.40625 0 z"
       fill="#282629"
       stroke="#fff8eb"
       stroke-linejoin="round"
       stroke-linecap="round"
       stroke-width="10"
       id="path26" />
    <g
       fill="url(#3)"
       id="g28">
      <path
         d="m 254.1427,101.81272 c -12.62105,0.0587 -24.67383,1.13504 -35.27905,3.01163 -31.24166,5.51939 -36.91392,17.07189 -36.91392,38.37671 l 0,28.13719 73.82785,0 0,9.37907 -73.82785,0 -27.70696,0 c -21.45643,0 -40.2443,12.89656 -46.1209,37.4302 -6.77859,28.12128 -7.07927,45.66941 0,75.03251 5.24792,21.85679 17.78075,37.43021 39.23718,37.43021 l 25.38371,0 0,-33.73021 c 0,-24.36808 21.08383,-45.86276 46.12089,-45.86276 l 73.74182,0 c 20.5271,0 36.91398,-16.90134 36.91398,-37.51625 l 0,-70.29996 c 0,-20.00777 -16.87887,-35.03748 -36.91398,-38.37671 -12.68254,-2.11116 -25.84175,-3.07028 -38.46277,-3.01163 z m -39.92555,22.63022 c 7.62589,0 13.85348,6.3293 13.85348,14.11162 -3e-5,7.75475 -6.22759,14.02557 -13.85348,14.02557 -7.65326,0 -13.85348,-6.27082 -13.85348,-14.02557 0,-7.78232 6.20022,-14.11162 13.85348,-14.11162 z"
         id="path30" />
      <path
         d="m 257.8572,410.18726 c 12.62105,-0.0587 24.67383,-1.13504 35.27905,-3.01163 31.24166,-5.51939 36.91392,-17.07189 36.91392,-38.37671 l 0,-28.13719 -73.82785,0 0,-9.37907 73.82785,0 27.70696,0 c 21.45643,0 40.2443,-12.89656 46.1209,-37.4302 6.77859,-28.12128 7.07927,-45.66941 0,-75.03251 -5.24792,-21.85679 -17.78075,-37.43021 -39.23718,-37.43021 l -25.38371,0 0,33.73021 c 0,24.36808 -21.08383,45.86276 -46.12089,45.86276 l -73.74182,0 c -20.5271,0 -36.91398,16.90134 -36.91398,37.51625 l 0,70.29996 c 0,20.00777 16.87887,35.03748 36.91398,38.37671 12.68254,2.11116 25.84175,3.07028 38.46277,3.01163 z m 39.92555,-22.63022 c -7.62589,0 -13.85348,-6.3293 -13.85348,-14.11162 3e-5,-7.75475 6.22759,-14.02557 13.85348,-14.02557 7.65326,0 13.85348,6.27082 13.85348,14.02557 0,7.78232 -6.20022,14.11162 -13.85348,14.11162 z"
         id="path32" />
    </g>
    <g
       id="g34">
      <path
         d="m 185.33093 123.37618 c -2.55271 5.39681 -3.35582 11.91847 -3.35582 19.79069 l 0 18.49998 147.56967 0 0 -6.71162 c 2.18214 -0.76993 4.76601 -1.7013 6.36744 -3.44186 2.30714 2.21108 4.14014 3.75069 7.39999 4.47442 7.98732 -0.16328 11.12877 -1.92017 13.68125 -9.29302 0.65451 -3.34854 1.22365 -6.43765 -4.99042 -6.53953 0 0 0.68837 -10.00997 0.68837 -10.49767 0.39183 -3.60426 -0.7963 -6.70066 -4.21641 -4.56046 -4.10022 2.12726 -7.48508 6.65567 -10.92776 10.75581 -3.54814 -4.99543 -5.15646 -6.46731 -10.58385 -5.93721 0 0 -0.0799 0.0804 -0.0854 0.0859 -0.97749 -2.33551 -2.18186 -4.54361 -3.61423 -6.62558 l -137.93232 0 z"
         fill="#cd1d31"
         fill-rule="evenodd"
         id="path36" />
      <path
         d="m 224.03969 128.98313 c -5.4833 4.95317 -12.91964 11.53786 -21.08125 18.58604 2.59241 3.19685 6.49135 5.24883 10.92804 5.24883 7.80861 0 14.11162 -6.30273 14.11162 -14.11162 0 -3.79243 -1.52791 -7.18404 -3.95841 -9.72325 z"
         fill="#fff8eb"
         fill-rule="evenodd"
         id="path38" />
    </g>
    <g
       id="g40">
      <path
         d="m 326.66897 388.6238 c 2.55271 -5.39681 3.35582 -11.91847 3.35582 -19.79069 l 0 -18.49998 -147.56967 0 0 6.71162 c -2.18214 0.76993 -4.76601 1.7013 -6.36744 3.44186 -2.30714 -2.21108 -4.14014 -3.75069 -7.39999 -4.47442 -7.98732 0.16328 -11.12877 1.92017 -13.68125 9.29302 -0.65451 3.34854 -1.22365 6.43765 4.99042 6.53953 0 0 -0.68837 10.00997 -0.68837 10.49767 -0.39183 3.60426 0.7963 6.70066 4.21641 4.56046 4.10022 -2.12726 7.48508 -6.65567 10.92776 -10.75581 3.54814 4.99543 5.15646 6.46731 10.58385 5.93721 0 0 0.0798 -0.0804 0.0854 -0.0859 0.97749 2.33551 2.18186 4.54361 3.61423 6.62558 l 137.93232 0 z"
         fill="#cd1d31"
         fill-rule="evenodd"
         id="path42" />
      <path
         d="m 287.96021 383.01685 c 5.4833 -4.95317 12.91964 -11.53786 21.08125 -18.58604 -2.59241 -3.19685 -6.49135 -5.24883 -10.92804 -5.24883 -7.80861 0 -14.11162 6.30273 -14.11162 14.11162 0 3.79243 1.52791 7.18404 3.95841 9.72325 z"
         fill="#fff8eb"
         fill-rule="evenodd"
         id="path44" />
    </g>
  </g>
  <path
     style="fill:none;stroke:#fff8eb;stroke-width:5;stroke-linecap:butt;stroke-linejoin:miter;stroke-opacity:1;stroke-miterlimit:4;stroke-dasharray:none"
     d="m 177.12264,326.02123 c 0,0 0.70849,-36.13302 0.70849,-37.55 0,-1.41698 9.21038,-20.90047 9.21038,-20.90047 l 20.90047,-12.39859 c 0,0 21.60896,0.35425 23.02594,0 1.41698,-0.35424 30.46509,-0.35424 31.88207,-0.35424 1.41699,0 32.94482,-0.70849 34.71604,-0.70849 1.77123,0 17.00378,-0.70849 19.12925,-3.18821 2.12547,-2.47972 10.9816,-12.75283 12.04434,-15.23255 1.06273,-2.47971 9.21037,-23.73443 9.21037,-23.73443 l -1.77122,-21.60896"
     id="path13016"
     inkscape:connector-curvature="0" />
</svg>
