<svg xmlns="http://www.w3.org/2000/svg" width="512" height="512">
 <g transform="translate(0,-540.36218)">
  <path d="m 562.85715 -316.57144 a 360 360 0 1 1 -720 0 360 360 0 1 1 720 0 z" transform="matrix(0.69444444,0,0,0.69444444,115.12698,1016.2035)" fill="#282629" fill-rule="evenodd"/>
  <path transform="matrix(0.65543992,0,0,0.65543992,123.03934,1003.8557)" d="m 562.85715 -316.57144 a 360 360 0 1 1 -720 0 360 360 0 1 1 720 0 z" fill="#fff8eb" fill-rule="evenodd"/>
  <path d="m 80.54941 929.81321 c -0.811418 -1.06803 -1.580867 -2.16484 -2.373099 -3.24766 L 214.32827 790.53791 c 23.09063 -23.08984 60.2256 -23.08984 83.31543 0 l 136.15236 136.02764 c -0.79423 1.08482 -1.55968 2.17764 -2.3731 3.24766 L 294.89568 793.28594 c -21.57493 -21.57533 -56.24366 -21.57533 -77.81899 0 L 80.54941 929.81321 z" color="#000" fill-rule="evenodd" fill="#32465c"/>
  <path d="m 267.71038 1016.6257 c 2.88912 -0.1478 5.77026 -0.3637 8.6286 -0.6243 -2.86474 0.2598 -5.73308 0.4761 -8.6286 0.6243 z m 71.65461 -15.9885 c 8.9232 -3.63417 17.46547 -7.768 25.76072 -12.49101 -8.25249 4.68463 -16.88708 8.88322 -25.76072 12.49101 z m 25.76072 -12.49101 c 2.92191 -1.66362 5.91696 -3.45473 8.75372 -5.24624 -2.89033 1.82349 -5.77506 3.55544 -8.75372 5.24624 z m 8.75372 -5.24624 c 2.45384 -1.5497 4.86571 -3.10418 7.2528 -4.7466 -2.39109 1.64402 -4.79457 3.1957 -7.2528 4.7466 z m 10.75429 -7.24481 c 1.91782 -1.37501 3.7565 -2.81238 5.62716 -4.24696 -1.86027 1.42498 -3.72013 2.88074 -5.62716 4.24696 z m -258.10689 -0.87418 c -1.49173 -1.08641 -2.91351 -2.25038 -4.37686 -3.37278 1.46655 1.124 2.88193 2.28476 4.37686 3.37278 z M 106.7686 958.54262 C 96.76098 949.31163 87.54319 939.11735 79.38264 928.18919 L 215.81399 791.91213 c 22.35797 -22.3328 58.30099 -22.3328 80.65856 0 l 136.55646 136.40216 c -8.17574 10.93736 -17.35675 20.99575 -27.38636 30.22833 l -298.74853 0 c -0.04 -0.04 -0.1039 0.04 -0.12391 0 z" fill="#fff8eb" fill-rule="evenodd"/>
  <path d="m 256.00557 1016.8755 c -57.5951 0 -110.02149 -22.14204 -149.26774 -58.33288 l 298.53588 0 c -39.24625 36.19084 -91.67265 58.33288 -149.26814 58.33288 z" fill="#fff8eb" fill-rule="evenodd"/>
  <path d="m 256.00557 1016.8755 c -3.68375 0 -7.35233 -0.072 -10.99211 -0.2478 l 46.46667 -58.08309 39.97133 0 -44.96775 56.20969 c -9.95046 1.3774 -20.14875 2.1233 -30.47814 2.1233 z" fill="#0078ad" fill-rule="evenodd"/>
  <path d="m 218.53245 1013.6279 c -11.40383 -1.9578 -22.49307 -4.7282 -33.22578 -8.3688 l 37.34802 -46.71648 39.97133 0 -44.09357 55.08528 z" fill="#9a3034" fill-rule="evenodd"/>
  <path d="m 327.45433 1005.0093 37.2237 -46.46668 39.97133 0 -1.49892 1.87345 c -21.75919 19.55637 -47.42559 34.88977 -75.69611 44.59323 z" fill="#9a3034" fill-rule="evenodd"/>
  <path d="m 164.44644 996.88991 c -9.59792 -4.40044 -18.93322 -9.43564 -27.73012 -15.11396 l 18.48675 -23.23333 39.97133 0 -30.72796 38.34729 z" fill="#0078ad" fill-rule="evenodd"/>
  <path d="m 80.54941 663.17445 c -0.811418 1.06804 -1.580867 2.16485 -2.373099 3.24768 l 136.15196 136.02764 c 23.09063 23.08983 60.2256 23.08983 83.31543 0 L 433.79606 666.42213 c -0.79423 -1.08483 -1.55968 -2.17764 -2.3731 -3.24768 L 294.89568 799.70173 c -21.57493 21.57533 -56.24366 21.57533 -77.81899 0 L 80.54941 663.17445 z" color="#000" fill-rule="evenodd" fill="#32465c"/>
  <path d="m 267.71038 576.36191 c 2.88912 0.1479 5.77026 0.36375 8.6286 0.62436 -2.86474 -0.25982 -5.73308 -0.47606 -8.6286 -0.62436 z m 71.65461 15.98854 c 8.9232 3.63419 17.46547 7.76802 25.76072 12.49104 -8.25249 -4.68464 -16.88708 -8.88323 -25.76072 -12.49104 z m 25.76072 12.49104 c 2.92191 1.66361 5.91696 3.45472 8.75372 5.24623 -2.89033 -1.82349 -5.77506 -3.55545 -8.75372 -5.24623 z m 8.75372 5.24623 c 2.45384 1.5497 4.86571 3.10418 7.2528 4.74661 -2.39109 -1.64403 -4.79457 -3.19572 -7.2528 -4.74661 z m 10.75429 7.24481 c 1.91782 1.37501 3.7565 2.81238 5.62716 4.24696 -1.86027 -1.42498 -3.72013 -2.88074 -5.62716 -4.24696 z m -258.10689 0.87418 c -1.49173 1.08641 -2.91351 2.25038 -4.37686 3.37278 1.46655 -1.124 2.88193 -2.28477 4.37686 -3.37278 z m -19.75823 16.23835 c -10.00762 9.23098 -19.225407 19.42527 -27.385955 30.35342 L 215.81399 801.07555 c 22.35797 22.33279 58.30099 22.33279 80.65856 0 L 433.02901 664.67337 c -8.17574 -10.93735 -17.35675 -20.99573 -27.38636 -30.22831 l -298.74853 0 c -0.04 0.04 -0.1039 -0.04 -0.12391 0 z" fill="#fff8eb" fill-rule="evenodd"/>
  <path d="m 256.00557 576.11209 c -57.5951 0 -110.02149 22.14212 -149.26774 58.33297 l 298.53588 0 C 366.02746 598.25421 313.60106 576.11209 256.00557 576.11209 z" fill="#fff8eb" fill-rule="evenodd"/>
  <path d="m 256.00557 576.11209 c -3.68375 0 -7.35233 0.072 -10.99211 0.24783 l 46.46667 58.08314 39.97133 0 -44.96775 -56.20969 c -9.95046 -1.37741 -20.14875 -2.12327 -30.47814 -2.12327 z" fill="#0078ad" fill-rule="evenodd"/>
  <path d="m 218.53245 579.35976 c -11.40383 1.9578 -22.49307 4.72821 -33.22578 8.3688 l 37.34802 46.7165 39.97133 0 -44.09357 -55.0853 z" fill="#9a3034" fill-rule="evenodd"/>
  <path d="m 327.45433 587.97838 37.2237 46.46668 39.97133 0 -1.49892 -1.87346 c -21.75919 -19.55678 -47.42559 -34.88977 -75.69611 -44.59322 z" fill="#9a3034" fill-rule="evenodd"/>
  <path d="m 164.44644 596.09776 c -9.59792 4.40005 -18.93322 9.43563 -27.73012 15.11396 l 18.48675 23.23334 39.97133 0 -30.72796 -38.3473 z" fill="#0078ad" fill-rule="evenodd"/>
 </g>
</svg>
