<?xml version="1.0" encoding="UTF-8" standalone="no"?>
<svg
   xmlns:dc="http://purl.org/dc/elements/1.1/"
   xmlns:cc="http://creativecommons.org/ns#"
   xmlns:rdf="http://www.w3.org/1999/02/22-rdf-syntax-ns#"
   xmlns:svg="http://www.w3.org/2000/svg"
   xmlns="http://www.w3.org/2000/svg"
   xmlns:xlink="http://www.w3.org/1999/xlink"
   xmlns:sodipodi="http://sodipodi.sourceforge.net/DTD/sodipodi-0.dtd"
   xmlns:inkscape="http://www.inkscape.org/namespaces/inkscape"
   width="512"
   height="512"
   id="svg2"
   version="1.1"
   inkscape:version="0.48.4 r9939"
   sodipodi:docname="plasma.svg">
  <metadata
     id="metadata31">
    <rdf:RDF>
      <cc:Work
         rdf:about="">
        <dc:format>image/svg+xml</dc:format>
        <dc:type
           rdf:resource="http://purl.org/dc/dcmitype/StillImage" />
      </cc:Work>
    </rdf:RDF>
  </metadata>
  <sodipodi:namedview
     pagecolor="#ffffff"
     bordercolor="#666666"
     borderopacity="1"
     objecttolerance="10"
     gridtolerance="10"
     guidetolerance="10"
     inkscape:pageopacity="0"
     inkscape:pageshadow="2"
     inkscape:window-width="1309"
     inkscape:window-height="750"
     id="namedview29"
     showgrid="false"
     inkscape:zoom="1.0605469"
     inkscape:cx="242.79926"
     inkscape:cy="247.51381"
     inkscape:window-x="55"
     inkscape:window-y="-3"
     inkscape:window-maximized="1"
     inkscape:current-layer="svg2" />
  <defs
     id="defs4">
    <linearGradient
       id="linearGradient13775">
      <stop
         style="stop-color:#d17d69;stop-opacity:1;"
         offset="0"
         id="stop13777" />
      <stop
         style="stop-color:#ae4a32;stop-opacity:1;"
         offset="1"
         id="stop13779" />
    </linearGradient>
    <linearGradient
       id="0">
      <stop
         stop-color="#efb783"
         id="stop7" />
      <stop
         offset="1"
         stop-color="#eb974a"
         id="stop9" />
    </linearGradient>
    <clipPath
       id="1">
      <path
         d="m -7.03082 52.33092 c 0.079764 0.299642 0.096219 1.542467 -1.031927 2.158496 -0.840799 0.459122 -3.324243 0.835768 -5.02689 -1.06316 -1.766334 -1.969954 -0.596629 -4.263473 0.718703 -5.414285 0.684782 -0.599131 1.479623 -0.841483 1.769776 -0.667485 0.307395 0.184337 0.316149 0.555217 0.07083 0.729557 -0.589247 0.418763 -1.113763 1.60942 -0.531662 2.434077 0.687212 0.973568 1.855418 0.571418 2.45994 0.496095 0.499552 -0.06224 1.282574 0.242332 1.57123 1.326705 z"
         id="path12" />
    </clipPath>
    <radialGradient
       xlink:href="#0"
       id="2"
       cx="308.85715"
       cy="734.93359"
       r="250.00001"
       gradientTransform="translate(0,1.5927243e-5)"
       gradientUnits="userSpaceOnUse" />
    <radialGradient
       inkscape:collect="always"
       xlink:href="#linearGradient13775"
       id="radialGradient13781"
       cx="256"
       cy="256.00001"
       fx="256"
       fy="256.00001"
       r="250.00001"
       gradientTransform="translate(0,5.1200001e-6)"
       gradientUnits="userSpaceOnUse" />
  </defs>
  <path
     inkscape:connector-curvature="0"
     style="fill:url(#radialGradient13781);fill-rule:evenodd;fill-opacity:1"
     id="path17"
     d="m 255.99999,6.00001 c -91.4181,0 -171.3447,49.09463 -214.9414,122.33072 -22.2485,37.37426 -35.0586,81.01624 -35.0586,127.66926 0,138.07117 111.9288,250.00003 250,250.00003 138.07121,0 250.00002,-111.92886 250.00002,-250.00003 0,-46.65302 -12.81007,-90.295 -35.05859,-127.66926 C 427.3447,55.09464 347.41819,6.00001 255.99999,6.00001 z" />
  <path
     style="fill:#fff8eb"
     inkscape:connector-curvature="0"
     id="path19"
     transform="matrix(47.687222,0,0,47.687222,728.20645,-2160.2311)"
     clip-path="url(#1)"
     d="m -7.03082,52.33092 c 0.079764,0.299642 0.096219,1.542467 -1.031927,2.158496 -0.840799,0.459122 -3.324243,0.835768 -5.02689,-1.06316 -1.766334,-1.969954 -0.596629,-4.263473 0.718703,-5.414285 0.684782,-0.599131 1.479623,-0.841483 1.769776,-0.667485 0.307395,0.184337 0.316149,0.555217 0.07083,0.729557 -0.589247,0.418763 -1.113763,1.60942 -0.531662,2.434077 0.687212,0.973568 1.855418,0.571418 2.45994,0.496095 0.499552,-0.06224 1.282574,0.242332 1.57123,1.326705 z" />
  <path
     style="fill:#fff8eb"
     inkscape:connector-curvature="0"
     id="path21"
     d="m 263.33715,76.788669 c -0.90316,0.0087 -1.80886,0.0897 -2.69057,0.216685 -0.16844,0.02447 -0.33705,0.04336 -0.5056,0.07216 -0.49342,0.08411 -0.97926,0.187058 -1.46267,0.306971 -0.12666,0.03131 -0.25258,0.05636 -0.37919,0.09028 -0.10209,0.02736 -0.20564,0.06147 -0.30694,0.09028 -0.21374,0.06099 -0.42072,0.130772 -0.63203,0.19863 -0.0232,0.0077 -0.0491,0.0105 -0.0722,0.01802 -0.31452,0.102282 -0.63042,0.207715 -0.93898,0.325037 -0.0197,0.0077 -0.034,0.02862 -0.0543,0.03613 -0.20496,0.07862 -0.41177,0.14956 -0.6139,0.23474 -0.16479,0.06898 -0.32537,0.143596 -0.48757,0.216685 -0.10417,0.04711 -0.20362,0.09558 -0.30695,0.144463 -0.1675,0.07881 -0.34109,0.151641 -0.5056,0.23475 -0.20426,0.103728 -0.41338,0.214479 -0.614,0.325018 -0.078,0.04287 -0.15735,0.08257 -0.23472,0.126408 -0.21265,0.12078 -0.42384,0.25082 -0.63203,0.379203 -0.0715,0.04403 -0.14579,0.08151 -0.21668,0.126398 -0.0364,0.02322 -0.0719,0.04875 -0.1083,0.07216 -0.2313,0.148818 -0.46221,0.312001 -0.68623,0.4695 -0.0915,0.06436 -0.18029,0.132738 -0.27082,0.19862 -0.44142,0.321588 -0.87098,0.657252 -1.28205,1.011203 -0.0295,0.02505 -0.0612,0.04702 -0.0903,0.07216 -0.21733,0.189303 -0.42357,0.379955 -0.63198,0.577833 -0.13244,0.125164 -0.26812,0.250319 -0.39733,0.379203 -0.10152,0.101772 -0.20767,0.203177 -0.30694,0.306972 -0.0265,0.02756 -0.0462,0.06253 -0.0722,0.09028 -0.19686,0.208284 -0.39032,0.41596 -0.57783,0.632019 -0.0254,0.02929 -0.0468,0.0608 -0.0723,0.09028 -0.18632,0.217138 -0.36498,0.443593 -0.54171,0.66813 -0.34045,0.43124 -0.66893,0.874852 -0.9751,1.33623 -0.0764,0.115337 -0.16068,0.226243 -0.23475,0.343093 -0.045,0.07082 -0.0823,0.145147 -0.1264,0.216675 -0.1247,0.202213 -0.24361,0.40752 -0.36114,0.613953 -0.0109,0.01908 -0.0253,0.03507 -0.0361,0.05415 -0.1284,0.227196 -0.24157,0.454161 -0.36116,0.686175 -0.13083,0.254424 -0.25859,0.514986 -0.37919,0.776462 -0.0248,0.05347 -0.048,0.108824 -0.0722,0.162519 -0.0731,0.162181 -0.14762,0.322744 -0.21669,0.487546 -0.0852,0.202136 -0.15607,0.408965 -0.23475,0.613944 -0.008,0.01975 -0.0286,0.0343 -0.0361,0.05415 -0.11526,0.303166 -0.22429,0.612046 -0.32503,0.920925 -0.0175,0.05405 -0.0371,0.108227 -0.0541,0.162519 -0.0516,0.163029 -0.0969,0.323062 -0.14445,0.487546 -0.0349,0.121166 -0.0755,0.238844 -0.10834,0.361148 -0.0355,0.132323 -0.0576,0.264848 -0.0903,0.397249 -0.0105,0.04287 -0.0258,0.08353 -0.0361,0.126407 -0.0389,0.162336 -0.0735,0.325172 -0.10833,0.487546 -0.0537,0.249829 -0.10025,0.506045 -0.14447,0.758407 -0.0739,0.422069 -0.13399,0.842952 -0.18057,1.264008 -0.0338,0.30676 -0.0706,0.611507 -0.0903,0.920916 -0.006,0.07756 0.005,0.157239 0,0.23475 -0.009,0.162374 -0.0136,0.324565 -0.018,0.487537 -0.006,0.186229 -0.0179,0.374183 -0.018,0.559787 4e-5,0.192733 0.0124,0.384444 0.018,0.577833 0.005,0.156997 0.01,0.313061 0.018,0.46948 0.005,0.07245 -0.005,0.144194 0,0.216695 0.0319,0.51039 0.0925,1.013978 0.16252,1.516804 0.0302,0.216295 0.0528,0.433575 0.0903,0.650075 0.0819,0.47432 0.19199,0.9434 0.30697,1.40846 0.0327,0.1324 0.0548,0.26493 0.0903,0.39727 0.0328,0.12229 0.0734,0.23998 0.10834,0.36114 0.006,0.0183 0.0126,0.0358 0.018,0.0541 0.0566,0.19429 0.11877,0.38654 0.18058,0.57784 0.0949,0.29237 0.19904,0.57945 0.30697,0.86676 0.0499,0.13286 0.0918,0.26553 0.14446,0.39725 2.61081,7.78719 9.95078,13.39851 18.61706,13.39851 6.67968,0 12.57521,-3.33877 16.12512,-8.43276 0.0543,-0.078 0.10933,-0.15595 0.16254,-0.23474 0.31394,-0.41391 0.6199,-0.84159 0.90287,-1.28206 0.13706,-0.21327 0.26829,-0.43188 0.39726,-0.65007 0.0531,-0.0902 0.11061,-0.17964 0.16254,-0.27087 0.26297,-0.46103 0.49601,-0.92795 0.72229,-1.40845 0.0462,-0.0985 0.0997,-0.18945 0.14446,-0.28893 0.0849,-0.18794 0.15556,-0.38726 0.23472,-0.57783 0.0735,-0.17808 0.14793,-0.36066 0.21669,-0.54172 0.39962,-1.04576 0.69854,-2.12576 0.92094,-3.23225 0.0145,-0.0732 0.0405,-0.14347 0.0543,-0.21668 0.0609,-0.32147 0.11724,-0.64982 0.16255,-0.975114 0.0149,-0.107851 0.0225,-0.217224 0.0358,-0.325018 0.0254,-0.205682 0.0531,-0.40698 0.0722,-0.613953 0,-0.01195 0,-0.02418 0,-0.03613 0.0259,-0.28698 0.059,-0.577602 0.0722,-0.86674 0.006,-0.121648 -0.006,-0.239712 0,-0.361148 0.006,-0.193176 0.0185,-0.383886 0.0179,-0.577833 5e-5,-0.184524 -0.0133,-0.375947 -0.0179,-0.559777 -0.0116,-0.405979 -0.0352,-0.819703 -0.0722,-1.227898 -0.0202,-0.226926 -0.0445,-0.46078 -0.0722,-0.686175 -0.0283,-0.229056 -0.0718,-0.456802 -0.10829,-0.686166 -0.006,-0.01782 0,-0.03632 0,-0.05415 -0.0283,-0.174514 -0.0572,-0.349085 -0.0904,-0.523666 -0.22594,-1.192519 -0.56218,-2.361953 -0.99314,-3.485063 -0.079,-0.207175 -0.14952,-0.41067 -0.23476,-0.613944 -0.0697,-0.165467 -0.14267,-0.324073 -0.21669,-0.487536 -0.0243,-0.05386 -0.0474,-0.108959 -0.0722,-0.162519 -0.23841,-0.514378 -0.49613,-1.024508 -0.77643,-1.516813 -0.11887,-0.209064 -0.23547,-0.410199 -0.36115,-0.613944 -0.0439,-0.07101 -0.0817,-0.146198 -0.12643,-0.216695 -0.0737,-0.116195 -0.15884,-0.22869 -0.23471,-0.343092 -0.12632,-0.190508 -0.2646,-0.373529 -0.39732,-0.559768 -0.18872,-0.264473 -0.37732,-0.522539 -0.57784,-0.776463 -0.16629,-0.21127 -0.3308,-0.427261 -0.5056,-0.632008 -0.14533,-0.169678 -0.30081,-0.323168 -0.45139,-0.487556 -0.10813,-0.118575 -0.21404,-0.24504 -0.32504,-0.361129 -0.19698,-0.20493 -0.40899,-0.417964 -0.61396,-0.613953 -0.0249,-0.0238 -0.0474,-0.04856 -0.0722,-0.07216 -0.0787,-0.07448 -0.15486,-0.1435 -0.23471,-0.216685 -0.17375,-0.159725 -0.34405,-0.315615 -0.5237,-0.469491 -0.20472,-0.174783 -0.42071,-0.339306 -0.63197,-0.505591 -0.29088,-0.229596 -0.58021,-0.45394 -0.88484,-0.66813 -0.22957,-0.161353 -0.46832,-0.31785 -0.7042,-0.46949 -0.0434,-0.02775 -0.083,-0.06282 -0.12643,-0.09028 -0.14607,-0.0923 -0.28505,-0.182327 -0.43338,-0.270861 -0.12632,-0.07534 -0.25095,-0.143981 -0.37916,-0.216704 -0.0761,-0.04326 -0.15817,-0.08421 -0.23477,-0.126388 -0.20312,-0.11159 -0.40612,-0.220038 -0.61396,-0.325037 -0.16734,-0.08488 -0.3359,-0.154397 -0.50561,-0.234741 -0.0968,-0.04567 -0.19114,-0.100307 -0.28891,-0.144463 -0.19992,-0.09076 -0.41107,-0.168501 -0.61396,-0.252796 -0.17808,-0.07351 -0.36067,-0.147912 -0.54171,-0.216694 -0.31365,-0.119866 -0.6192,-0.238787 -0.93898,-0.343083 -0.006,-0.0019 -0.0126,0.0019 -0.0178,0 -0.0236,-0.0077 -0.0485,-0.01031 -0.0722,-0.01802 -0.30596,-0.09762 -0.62556,-0.204921 -0.93897,-0.288907 -0.33723,-0.09037 -0.67371,-0.162403 -1.01121,-0.23474 -0.47625,-0.10208 -0.95961,-0.185276 -1.44458,-0.252815 -0.19265,-0.02688 -0.38554,-0.05087 -0.57784,-0.07216 -0.33589,-0.0369 -0.67225,-0.07043 -1.0112,-0.09028 -0.12817,-0.0077 -0.25137,-0.01281 -0.37924,-0.01802 -0.33139,-0.0132 -0.65948,-0.02139 -0.99312,-0.01802 z" />
  <path
     style="fill:#fff8eb"
     inkscape:connector-curvature="0"
     id="path23"
     d="m 331.06805,88.4645 c -0.3987,0.0158 -0.79712,0.05097 -1.19173,0.09028 -0.15029,0.01513 -0.30099,0.03555 -0.45146,0.05415 -0.1088,0.01339 -0.21663,0.0211 -0.32503,0.03613 -0.14492,0.02023 -0.28835,0.04866 -0.43338,0.07216 -0.94498,0.152614 -1.87465,0.368008 -2.78082,0.650074 -0.20085,0.06224 -0.3983,0.130695 -0.59591,0.19862 -0.008,0.0029 -0.0103,0.01551 -0.0178,0.01802 -0.54837,0.189245 -1.08506,0.400458 -1.60707,0.632009 -0.12598,0.05598 -0.25454,0.103959 -0.37924,0.162509 -0.22477,0.105259 -0.44863,0.212186 -0.66814,0.325037 -0.17266,0.08893 -0.33556,0.195017 -0.50561,0.288917 -0.0584,0.03218 -0.12251,0.05752 -0.18051,0.09028 -0.11499,0.06494 -0.22939,0.131427 -0.34312,0.198639 -0.17335,0.102359 -0.35404,0.199834 -0.52363,0.306972 -0.044,0.02755 -0.083,0.06234 -0.12644,0.09028 -0.51316,0.329816 -1.00374,0.675683 -1.48069,1.047324 -0.15492,0.120337 -0.29996,0.254299 -0.45146,0.379203 -0.0999,0.08276 -0.20878,0.150225 -0.30695,0.23475 -0.0324,0.02765 -0.0582,0.06243 -0.0903,0.09028 -0.21502,0.187434 -0.44379,0.381988 -0.65008,0.577843 -0.0249,0.02351 -0.0474,0.04856 -0.0722,0.07216 -0.21057,0.201934 -0.4128,0.40357 -0.614,0.613944 -0.0237,0.02476 -0.0486,0.04731 -0.0723,0.07226 -0.20009,0.211415 -0.38731,0.430634 -0.57782,0.650065 -0.11256,0.129115 -0.21559,0.26507 -0.32498,0.397259 -0.0976,0.118324 -0.21218,0.222668 -0.307,0.343092 -0.0272,0.0342 -0.0457,0.0739 -0.0722,0.108333 -0.17248,0.222042 -0.34259,0.457389 -0.50559,0.686185 -0.33452,0.468758 -0.64343,0.943952 -0.93899,1.444582 -0.0645,0.109152 -0.13613,0.214691 -0.1986,0.325028 -0.0352,0.06243 -0.0555,0.135647 -0.0903,0.198639 -0.0965,0.174764 -0.19757,0.346089 -0.28892,0.523657 -0.18508,0.360656 -0.35924,0.726749 -0.52369,1.101499 -0.0956,0.21677 -0.18282,0.42987 -0.27082,0.65005 -0.11545,0.29029 -0.22224,0.58687 -0.32504,0.88482 -0.006,0.0126 -0.0139,0.0234 -0.0178,0.0361 -0.066,0.1923 -0.13809,0.38243 -0.19865,0.57782 -0.35721,1.14759 -0.61041,2.3322 -0.7584,3.53924 -0.0185,0.15047 -0.0394,0.30114 -0.0543,0.45144 -0.007,0.0666 -0.0122,0.13184 -0.0179,0.19862 -0.0185,0.20394 -0.0236,0.4105 -0.0358,0.61395 -0.0266,0.45671 -0.041,0.91111 -0.0358,1.37235 0.006,0.61237 0.0301,1.22046 0.0904,1.82379 0.015,0.15028 0.0358,0.30097 0.0543,0.45143 0.0133,0.10882 0.0208,0.2166 0.0358,0.32503 0.0202,0.14494 0.0485,0.28833 0.0722,0.43338 0.15261,0.94498 0.36803,1.87464 0.65007,2.78081 0.0605,0.19541 0.13268,0.38554 0.19865,0.57784 0.006,0.0127 0.0139,0.0234 0.0178,0.0361 0.0966,0.27982 0.19924,0.55757 0.30694,0.83064 0.007,0.0177 0.011,0.0365 0.0178,0.0541 2.61341,7.78254 9.9541,13.39849 18.61702,13.39849 6.78197,0 12.75688,-3.44116 16.28774,-8.66749 0.0243,-0.0361 0.048,-0.072 0.0722,-0.10833 0.10251,-0.13693 0.20768,-0.2755 0.30695,-0.41533 0.3211,-0.45374 0.62018,-0.93034 0.90286,-1.40846 0.0642,-0.10879 0.13631,-0.21481 0.1986,-0.32503 0.0358,-0.0632 0.0555,-0.13513 0.0904,-0.19863 0.0955,-0.17323 0.19825,-0.34697 0.28892,-0.52367 0.11191,-0.21757 0.22096,-0.4285 0.32502,-0.65006 0.0584,-0.12473 0.10649,-0.25287 0.16248,-0.3792 0.10558,-0.23713 0.21057,-0.48108 0.30701,-0.72229 0.12036,-0.30256 0.23651,-0.61004 0.34306,-0.92093 0.37391,-1.08615 0.66381,-2.21351 0.84872,-3.35865 0.041,-0.25299 0.0773,-0.50578 0.10834,-0.75841 0.0185,-0.15128 0.0394,-0.29945 0.0543,-0.45143 0.0272,-0.27025 0.0382,-0.54315 0.0543,-0.81258 0.0265,-0.45672 0.041,-0.91111 0.0358,-1.37235 0,-0.33914 -0.0162,-0.67462 -0.0358,-1.0112 -0.0162,-0.26943 -0.0272,-0.54235 -0.0543,-0.81258 -0.015,-0.15198 -0.0358,-0.30015 -0.0543,-0.45144 -0.0312,-0.25263 -0.0673,-0.5054 -0.10834,-0.75841 -0.18491,-1.14513 -0.47481,-2.27249 -0.84872,-3.35864 -0.10655,-0.31088 -0.2227,-0.61838 -0.34306,-0.92094 -0.1203,-0.30097 -0.24476,-0.59023 -0.37924,-0.88479 -0.21576,-0.475233 -0.45515,-0.938509 -0.70419,-1.390417 -0.0353,-0.06349 -0.0543,-0.135493 -0.0904,-0.198629 -0.0623,-0.110231 -0.13441,-0.216251 -0.1986,-0.325037 -0.12897,-0.218178 -0.2602,-0.4368 -0.39725,-0.650055 -0.17608,-0.273963 -0.35353,-0.530767 -0.54172,-0.794518 -0.0939,-0.13187 -0.19179,-0.267633 -0.28892,-0.397268 -0.19116,-0.25454 -0.39369,-0.496102 -0.59593,-0.740342 -0.31509,-0.3822 -0.63174,-0.760478 -0.97503,-1.119555 -0.54663,-0.569913 -1.12741,-1.089263 -1.7335,-1.589045 -0.24425,-0.202195 -0.48584,-0.404745 -0.74037,-0.595889 -0.12967,-0.09711 -0.26541,-0.194968 -0.39727,-0.288916 -0.26378,-0.188205 -0.52057,-0.365647 -0.79453,-0.541712 -0.21326,-0.137083 -0.43186,-0.26827 -0.65004,-0.397269 -0.11327,-0.06677 -0.22832,-0.133855 -0.34312,-0.19862 -0.0586,-0.03305 -0.12163,-0.05781 -0.18052,-0.09028 -0.16867,-0.09297 -0.3337,-0.200528 -0.5056,-0.288917 -0.22242,-0.114614 -0.44164,-0.21866 -0.66816,-0.325037 -0.12474,-0.05839 -0.25285,-0.106492 -0.37922,-0.162518 -0.23709,-0.10551 -0.48105,-0.210538 -0.72229,-0.306972 -0.29731,-0.118276 -0.59749,-0.238084 -0.90282,-0.343093 -1.09116,-0.376611 -2.22598,-0.662849 -3.37674,-0.848684 -0.25297,-0.04095 -0.50578,-0.07717 -0.75841,-0.108352 -0.15127,-0.0186 -0.29943,-0.03912 -0.45145,-0.05415 -0.2702,-0.02717 -0.54311,-0.03796 -0.81256,-0.05415 -0.33658,-0.01975 -0.67207,-0.03334 -1.0112,-0.03613 -0.33364,-0.0039 -0.66179,-0.0132 -0.99318,0 z" />
  <path
     style="fill:#fff8eb"
     inkscape:connector-curvature="0"
     id="path25"
     d="m 383.24559,124.34263 c -0.20848,0.002 -0.42286,0.01 -0.63204,0.018 -0.12648,0.006 -0.25309,0.0106 -0.37917,0.018 -0.0543,0.004 -0.10847,0.0145 -0.16255,0.018 -0.21691,0.0145 -0.43447,0.0147 -0.65005,0.0361 -0.1503,0.0151 -0.30094,0.0356 -0.45147,0.0541 -0.10881,0.0134 -0.21658,0.021 -0.32497,0.0361 -0.14498,0.0202 -0.28834,0.0487 -0.43338,0.0722 -0.59719,0.0965 -1.18697,0.23053 -1.76966,0.37922 -0.0839,0.0214 -0.16879,0.0317 -0.25276,0.0541 -0.037,0.01 -0.0712,0.026 -0.10839,0.0361 -0.21657,0.0596 -0.43592,0.11391 -0.65007,0.18057 -0.80514,0.24945 -1.57852,0.56451 -2.32936,0.90286 -0.0174,0.008 -0.037,0.0101 -0.0543,0.018 -0.22951,0.10422 -0.46198,0.21293 -0.68612,0.32503 -0.41645,0.20904 -0.82694,0.43107 -1.2279,0.66812 -0.17339,0.10235 -0.35408,0.19985 -0.52368,0.30696 -0.0434,0.0277 -0.083,0.0623 -0.12637,0.0903 -0.51318,0.32982 -1.00383,0.67568 -1.48076,1.04732 -0.40432,0.31416 -0.79337,0.64837 -1.1737,0.99315 -0.10666,0.097 -0.22061,0.18981 -0.32502,0.28892 -0.0249,0.0235 -0.0474,0.0486 -0.0722,0.0722 -0.21056,0.20195 -0.41281,0.40358 -0.61394,0.61396 -0.0236,0.0248 -0.0485,0.0473 -0.0722,0.0722 -0.20009,0.2114 -0.38737,0.43061 -0.57783,0.65005 -0.20577,0.23599 -0.40073,0.47609 -0.59585,0.7223 -0.0156,0.0197 -0.0387,0.0344 -0.0543,0.0541 -0.0191,0.0239 -0.0352,0.0483 -0.0543,0.0722 -0.17521,0.22526 -0.3401,0.45395 -0.50561,0.68619 -0.33444,0.46875 -0.64341,0.94394 -0.93897,1.44457 -0.0645,0.10916 -0.13614,0.21469 -0.1986,0.32504 -0.0352,0.0624 -0.0555,0.13564 -0.0904,0.19863 -0.0965,0.17476 -0.19756,0.34609 -0.2889,0.52365 -0.18504,0.36067 -0.35924,0.72675 -0.52364,1.1015 -0.0956,0.21677 -0.18283,0.42987 -0.27089,0.65006 -0.20172,0.50717 -0.39709,1.02262 -0.55974,1.55293 -0.34931,1.13231 -0.59448,2.29513 -0.74039,3.48504 -0.0185,0.15048 -0.0387,0.30117 -0.0543,0.45145 -0.007,0.0666 -0.0122,0.13184 -0.0178,0.19863 -0.0185,0.20393 -0.0236,0.4105 -0.0358,0.61394 -0.0272,0.45672 -0.0411,0.91111 -0.0364,1.37235 0.006,0.61237 0.0301,1.22046 0.0903,1.82379 0.0149,0.15028 0.0359,0.30096 0.0543,0.45143 0.0133,0.10883 0.0208,0.2166 0.0364,0.32503 0.0202,0.14495 0.0485,0.28832 0.0722,0.43337 0.15253,0.94498 0.36795,1.87465 0.65005,2.78082 0.0605,0.19541 0.13267,0.38555 0.19859,0.57784 0.006,0.0107 -0.006,0.0255 0,0.0361 0.0971,0.28175 0.21658,0.55573 0.32504,0.83064 0.007,0.0177 0.011,0.0365 0.0179,0.0541 2.61348,7.78255 9.95415,13.3985 18.61708,13.3985 6.78197,0 12.75683,-3.44117 16.28766,-8.66749 0.0243,-0.0361 0.048,-0.072 0.0722,-0.10834 0.10257,-0.13691 0.20773,-0.2755 0.307,-0.41533 0.32105,-0.45374 0.6202,-0.93034 0.90282,-1.40846 0.0644,-0.10878 0.13635,-0.2148 0.19865,-0.32504 0.0358,-0.0632 0.0555,-0.1351 0.0903,-0.19862 0.0955,-0.17324 0.19824,-0.34696 0.2889,-0.52366 0.11193,-0.21757 0.22103,-0.4285 0.32509,-0.65007 0.0584,-0.12473 0.10644,-0.25287 0.16248,-0.3792 0.10553,-0.23713 0.21058,-0.48107 0.30695,-0.72229 0.12037,-0.30256 0.23652,-0.61004 0.34312,-0.92092 0.37386,-1.08615 0.66376,-2.21351 0.84872,-3.35866 0.041,-0.253 0.0772,-0.50577 0.10829,-0.7584 0.0185,-0.15128 0.0394,-0.29946 0.0543,-0.45144 0.0272,-0.27024 0.0382,-0.54316 0.0543,-0.81258 0.0266,-0.45672 0.0405,-0.91111 0.0358,-1.37234 0,-0.33916 -0.0162,-0.67463 -0.0358,-1.01121 -0.0162,-0.26943 -0.0272,-0.54234 -0.0543,-0.81257 -0.015,-0.15199 -0.0358,-0.30016 -0.0543,-0.45144 -0.0312,-0.25263 -0.0674,-0.50541 -0.10829,-0.75841 -0.18583,-1.15077 -0.47209,-2.26751 -0.84872,-3.35865 -0.1066,-0.31088 -0.22275,-0.61836 -0.34312,-0.92092 -0.1203,-0.30099 -0.24471,-0.59024 -0.37916,-0.88481 -0.21582,-0.47523 -0.45522,-0.93851 -0.70426,-1.39041 -0.0352,-0.0635 -0.0543,-0.1355 -0.0903,-0.19863 -0.0622,-0.11024 -0.1344,-0.21625 -0.19865,-0.32504 -0.12898,-0.21818 -0.26016,-0.4368 -0.39721,-0.65005 -0.17612,-0.27397 -0.35352,-0.53077 -0.54178,-0.79452 -0.18293,-0.25683 -0.36479,-0.51012 -0.55975,-0.75841 -0.0156,-0.0201 -0.0382,-0.0341 -0.0543,-0.0541 -0.39195,-0.49536 -0.80793,-0.98645 -1.24599,-1.44459 -0.32664,-0.34055 -0.66277,-0.65927 -1.0112,-0.97508 -0.13497,-0.12276 -0.27678,-0.2419 -0.41528,-0.36115 -0.24975,-0.21426 -0.49902,-0.43044 -0.75847,-0.63201 -0.0942,-0.0733 -0.19323,-0.14486 -0.28892,-0.21668 -0.1296,-0.0971 -0.2654,-0.19498 -0.3972,-0.28892 -0.26378,-0.1882 -0.52057,-0.36565 -0.79452,-0.54172 -0.21328,-0.13708 -0.43193,-0.26826 -0.65006,-0.39725 -0.1088,-0.0643 -0.21484,-0.13634 -0.32509,-0.19865 -0.006,-0.003 -0.0133,0.003 -0.0178,0 -0.006,-0.003 -0.0133,0.003 -0.0178,0 -0.28712,-0.16199 -0.57206,-0.32159 -0.86674,-0.46948 -0.28863,-0.1443 -0.58738,-0.2841 -0.88484,-0.41531 -0.22519,-0.0997 -0.45736,-0.19744 -0.68618,-0.28892 -0.29735,-0.11829 -0.59747,-0.23808 -0.90286,-0.3431 -0.5249,-0.18115 -1.06703,-0.33165 -1.60713,-0.46948 -0.25327,-0.0644 -0.50491,-0.12625 -0.75834,-0.18057 -0.33429,-0.0717 -0.67249,-0.14394 -1.01122,-0.19864 -0.25303,-0.0409 -0.50577,-0.0772 -0.75846,-0.10834 -0.15127,-0.0186 -0.29944,-0.0391 -0.4514,-0.0542 -0.21605,-0.0217 -0.43453,-0.0215 -0.65007,-0.0361 -0.0543,-0.004 -0.10828,-0.0148 -0.16248,-0.018 -0.12586,-0.008 -0.25362,-0.0128 -0.37923,-0.018 -0.33139,-0.0132 -0.65948,-0.0214 -0.99313,-0.018 z" />
  <path
     style="fill:#fff8eb;fill-rule:evenodd"
     inkscape:connector-curvature="0"
     id="path27"
     d="m 256,32.163858 c -81.8507,0 -153.40906,43.968273 -192.44312,109.539812 C 43.636806,175.16651 32.16386,214.22947 32.16386,256 c 0,123.62128 100.21484,223.83613 223.83614,223.83613 123.62131,0 223.83614,-100.21485 223.83614,-223.83613 0,-41.77053 -11.47293,-80.83349 -31.39302,-114.29633 C 409.40904,76.132131 337.85079,32.163858 256,32.163858 z m 0,25.573283 c 72.49642,0 135.87817,38.927337 170.45123,97.004979 17.6435,29.63852 27.81163,64.26114 27.81163,101.25788 0,109.49312 -88.76971,198.26288 -198.26286,198.26288 -109.49314,0 -198.262859,-88.76976 -198.262859,-198.26288 0,-36.99674 10.168147,-71.61936 27.81164,-101.25788 C 120.12181,96.664478 183.50366,57.737141 256,57.737141 z" />
</svg>
