<svg xmlns="http://www.w3.org/2000/svg" xmlns:xlink="http://www.w3.org/1999/xlink" width="512" height="512">
 <defs>
  <linearGradient id="0">
   <stop stop-color="#282629" stop-opacity="0.477551"/>
   <stop offset="1" stop-color="#282629"/>
  </linearGradient>
  <linearGradient id="1">
   <stop stop-color="#189cd6"/>
   <stop offset="1" stop-color="#0078ad"/>
  </linearGradient>
  <radialGradient xlink:href="#1" id="2" gradientUnits="userSpaceOnUse" cx="202.85715" cy="-316.57144" r="360" gradientTransform="matrix(0.69444444,0,0,0.69444444,115.12698,475.84132)"/>
  <radialGradient xlink:href="#0" id="3" cx="256" cy="256" r="250" gradientUnits="userSpaceOnUse" gradientTransform="matrix(2.1450938,0,0,1.8866654,-293.144,-226.98634)"/>
 </defs>
 <path d="m 506 256.00004 c 0 138.07119 -111.92881 250 -250 250 -138.07119 0 -250 -111.92881 -250 -250 C 6 117.92886 117.92881 6.00005 256 6.00005 c 138.07119 0 250 111.92881 250 249.99999 z" fill="url(#2)" fill-rule="evenodd"/>
 <g transform="matrix(1.0910955,0,0,1.0910955,-23.320457,-612.97229)" fill="#fff8eb">
  <g transform="translate(0.3571434,-4.2857056)">
   <rect ry="20.06667" rx="19.957788" y="766.36218" x="85.64286" height="70" width="70"/>
   <rect width="70" height="70" x="175.64285" y="766.36218" rx="19.957788" ry="20.06667"/>
   <rect ry="20.06667" rx="19.957788" y="766.36218" x="265.64285" height="70" width="70"/>
   <rect width="70" height="70" x="355.64285" y="766.36218" rx="19.957788" ry="20.06667"/>
  </g>
  <g transform="translate(5.2035828,0)">
   <rect width="70" height="70" x="125.79642" y="672.07648" rx="19.957788" ry="20.06667"/>
   <rect ry="20.06667" rx="19.957788" y="672.07648" x="215.79642" height="70" width="70"/>
   <rect width="70" height="70" x="305.79642" y="672.07648" rx="19.957788" ry="20.06667"/>
  </g>
  <rect width="325" height="70" x="93.5" y="852.07648" rx="19.957788" ry="20.06667"/>
 </g>
 <path d="M 256 6 C 117.92881 6 6 117.92882 6 256 C 6 394.07119 117.92881 506 256 506 C 394.07119 506 506 394.07119 506 256 C 506 117.92882 394.07119 6 256 6 z M 256 36.65625 C 377.13265 36.65625 475.34375 134.86736 475.34375 256 C 475.34375 377.13265 377.13265 475.34375 256 475.34375 C 134.86735 475.34375 36.65625 377.13265 36.65625 256 C 36.65625 134.86736 134.86735 36.65625 256 36.65625 z" fill="url(#3)" fill-rule="evenodd"/>
</svg>
