<svg xmlns="http://www.w3.org/2000/svg" xmlns:xlink="http://www.w3.org/1999/xlink" width="512" height="512">
 <defs>
  <linearGradient y2="7.01654" x2="0" y1="92.5396" gradientTransform="scale(1.0058652,0.994169)" gradientUnits="userSpaceOnUse" xlink:href="#1"/>
  <filter x="-0.192" y="-0.192" width="1.384" height="1.384" color-interpolation-filters="sRGB">
   <feGaussianBlur stdDeviation="5.28"/>
  </filter>
  <clipPath>
   <rect width="84" height="84" rx="6" x="6" y="6" fill="#fff"/>
  </clipPath>
  <linearGradient id="0">
   <stop stop-color="#fff"/>
   <stop offset="1" stop-color="#fff" stop-opacity="0"/>
  </linearGradient>
  <linearGradient y1="20.220806" x2="0" y2="138.66119" xlink:href="#0" gradientUnits="userSpaceOnUse"/>
  <filter color-interpolation-filters="sRGB">
   <feGaussianBlur stdDeviation="1.71"/>
  </filter>
  <linearGradient y1="92.5396" x2="0" y2="7.01654" id="1" gradientUnits="userSpaceOnUse" gradientTransform="scale(1.0058652,0.994169)">
   <stop/>
   <stop offset="1" stop-opacity="0.588235"/>
  </linearGradient>
  <linearGradient y2="7.01654" x2="0" y1="92.5396" gradientTransform="scale(1.0058652,0.994169)" gradientUnits="userSpaceOnUse" xlink:href="#1"/>
  <clipPath>
   <rect width="84" height="84" rx="6" x="6" y="6" fill="#fff"/>
  </clipPath>
  <linearGradient y1="20.220806" x2="0" y2="138.66119" xlink:href="#0" gradientUnits="userSpaceOnUse"/>
  <linearGradient gradientUnits="userSpaceOnUse" xlink:href="#0" y2="138.66119" x2="0" y1="20.220806"/>
  <clipPath>
   <rect y="6" x="6" rx="6" height="84" width="84" fill="#fff"/>
  </clipPath>
  <linearGradient xlink:href="#1" gradientUnits="userSpaceOnUse" gradientTransform="scale(1.0058652,0.994169)" y1="92.5396" x2="0" y2="7.01654"/>
 </defs>
 <g transform="translate(0,-540.36217)">
  <path d="m 256 546.36216 c -2.35525 0 -4.69168 0.0329 -7.03125 0.0976 2.34086 -0.0649 4.67476 -0.0976 7.03125 -0.0976 z m -7.22656 0.0976 c -1.85182 0.0527 -3.72491 0.13511 -5.56641 0.22787 1.8509 -0.0936 3.70513 -0.17482 5.56641 -0.22787 z m -22.33073 1.62761 c -1.77678 0.20936 -3.54084 0.43714 -5.30599 0.68359 1.76111 -0.24614 3.53332 -0.47438 5.30599 -0.68359 z m -6.31511 0.84635 c -1.46676 0.2109 -2.93612 0.44733 -4.39453 0.6836 1.46157 -0.23708 2.92457 -0.47201 4.39453 -0.6836 z m -26.69271 5.33854 c -1.94382 0.50112 -3.86907 1.01608 -5.79427 1.5625 1.92854 -0.54769 3.84702 -1.06025 5.79427 -1.5625 z m -19.98698 6.05469 c -1.87482 0.65611 -3.74484 1.35155 -5.59895 2.05078 1.86008 -0.70164 3.718 -1.3925 5.59895 -2.05078 z m -24.73958 10.1888 C 103.83291 591.88225 66.34165 626.22105 41.05859 668.69289 18.810062 706.06715 5.999992 749.70913 5.999992 796.36217 c 0 76.9434 34.779798 145.74186 89.45313 191.60156 l 0.130208 -0.42317 1.171875 -3.97136 35.18881 -118.55469 243.55469 0 40.33203 118.55469 0.58594 1.69271 0.7487 2.18099 c 54.31697 -45.85911 88.83464 -114.42777 88.83464 -191.08073 0 -46.65304 -12.81008 -90.29502 -35.0586 -127.66928 -22.66775 -38.07849 -55.15863 -69.62755 -93.97786 -91.14584 l 0 154.00392 -228.25522 0 0 -161.03517 z m 268.45704 416.9271 c -1.20079 1.01381 -2.3933 2.03588 -3.61328 3.02734 1.22004 -0.99145 2.41245 -2.0135 3.61328 -3.02734 z m -321.71225 0.52083 c 1.359198 1.1401 2.717979 2.27394 4.101563 3.38542 -1.381636 -1.11005 -2.744209 -2.24687 -4.101563 -3.38542 z m 4.101563 3.38542 c 1.386147 1.11353 2.789047 2.20341 4.199217 3.28776 -1.40547 -1.0811 -2.81758 -2.17771 -4.199217 -3.28776 z m 4.199217 3.28776 c 1.3991 1.07583 2.80949 2.14344 4.23177 3.19011 -1.42884 -1.05171 -2.8263 -2.109 -4.23177 -3.19011 z m 4.23177 3.19011 c 7.14218 5.25598 14.57262 10.12958 22.26563 14.61588 -7.6948 -4.4892 -15.1214 -9.3574 -22.26563 -14.61588 z m 22.26563 14.61588 c 1.41488 0.8251 2.83194 1.6435 4.26432 2.4414 -1.42661 -0.7952 -2.85505 -1.6192 -4.26432 -2.4414 z m 282.42188 -21.28906 c -4.03362 3.24855 -8.1687 6.37716 -12.40234 9.37496 4.23471 -2.99766 8.36799 -6.1261 12.40234 -9.37496 z m -12.40234 9.37496 c -4.3669 3.0922 -8.84395 6.0411 -13.41146 8.8542 4.56485 -2.8104 9.04717 -5.7647 13.41146 -8.8542 z m -13.41146 8.8542 c -1.42258 0.8762 -2.85563 1.7233 -4.29688 2.5716 1.44353 -0.8492 2.8721 -1.6944 4.29688 -2.5716 z m -4.7526 2.8646 c -1.49029 0.8728 -3.01499 1.729 -4.52474 2.5716 1.51719 -0.8461 3.02719 -1.695 4.52474 -2.5716 z m -4.52474 2.5716 c -1.5648 0.8734 -3.13481 1.7311 -4.72006 2.5716 1.58107 -0.8377 3.15935 -1.7012 4.72006 -2.5716 z m -4.72006 2.5716 c -1.58525 0.8405 -3.1799 1.6668 -4.78515 2.474 1.6041 -0.806 3.20103 -1.6347 4.78515 -2.474 z m -4.78515 2.474 c -4.81575 2.4215 -9.72606 4.6902 -14.71355 6.8034 4.99044 -2.1125 9.89506 -4.3823 14.71355 -6.8034 z m -232.97527 -4.655 c 1.49493 0.8276 3.01126 1.6438 4.52474 2.4414 -1.51551 -0.7991 -3.02782 -1.6122 -4.52474 -2.4414 z m 4.52474 2.4414 c 1.57406 0.8296 3.15892 1.6447 4.7526 2.4414 -1.5996 -0.8 -3.17276 -1.6083 -4.7526 -2.4414 z m 4.7526 2.4414 c 3.21086 1.6052 6.44531 3.1533 9.73308 4.6224 -3.27557 -1.465 -6.53386 -3.0223 -9.73308 -4.6224 z m 203.97136 8.6263 c -1.68065 0.6692 -3.3472 1.3196 -5.04557 1.9532 1.69416 -0.6315 3.36903 -1.2862 5.04557 -1.9532 z m -5.04557 1.9532 c -1.48412 0.5536 -2.99487 1.1015 -4.49219 1.6276 1.50292 -0.5275 3.00256 -1.0724 4.49219 -1.6276 z m -10.31901 3.5807 c -1.73241 0.5609 -3.45959 1.1038 -5.20833 1.6276 1.74264 -0.5215 3.48188 -1.0693 5.20833 -1.6276 z m -5.20833 1.6276 c -1.65046 0.4944 -3.31586 0.9713 -4.98047 1.4323 1.66411 -0.4605 3.33049 -0.9385 4.98047 -1.4323 z m -147.88412 -1.3346 c 1.54193 0.4922 3.10016 0.9693 4.65494 1.4323 -1.55704 -0.4641 -3.11079 -0.9389 -4.65494 -1.4323 z m 4.65494 1.4323 c 1.73671 0.5171 3.48858 1.0171 5.24089 1.4974 -1.75715 -0.4819 -3.49944 -0.9784 -5.24089 -1.4974 z m 5.24089 1.4974 c 1.59163 0.4361 3.18102 0.8641 4.78516 1.2695 -1.59768 -0.4041 -3.19991 -0.8348 -4.78516 -1.2695 z m 27.2461 5.8593 c 1.51184 0.2366 3.03659 0.4417 4.55729 0.6511 -1.52476 -0.2102 -3.04145 -0.4135 -4.55729 -0.6511 z m 78.02734 0 c -0.95158 0.1495 -1.90946 0.2845 -2.86458 0.4232 0.95579 -0.1386 1.91232 -0.2738 2.86458 -0.4232 z m -72.49349 0.7813 c 1.20018 0.1604 2.40778 0.3124 3.61328 0.4557 -1.20888 -0.1438 -2.40976 -0.2947 -3.61328 -0.4557 z m 12.17448 1.3346 c 1.3967 0.1177 2.79607 0.231 4.19922 0.3255 -1.40876 -0.095 -2.79697 -0.2072 -4.19922 -0.3255 z m 4.19922 0.3255 c 1.68683 0.1137 3.38228 0.2129 5.07812 0.293 -1.69281 -0.08 -3.39432 -0.1794 -5.07812 -0.293 z m 37.82552 -0.2604 c -1.18791 0.098 -2.38817 0.1793 -3.58073 0.2604 1.19523 -0.081 2.39017 -0.1625 3.58073 -0.2604 z" fill="#999" fill-rule="evenodd"/>
  <path d="m 305.71429 246.28572 c 0 45.76074 -37.09641 82.85714 -82.85714 82.85714 -45.76074 0 -82.85714 -37.0964 -82.85714 -82.85714 0 -45.76073 37.0964 -82.85714 82.85714 -82.85714 45.76073 0 82.85714 37.09641 82.85714 82.85714 z" transform="matrix(3.0172416,0,0,3.0172415,-416.41384,53.258684)" fill="#924565" fill-rule="evenodd"/>
  <text y="1099.8811" x="-1170.4813" font-family="Gentium Book Basic" word-spacing="0" line-height="125%" letter-spacing="0" font-size="208.33334"><tspan y="1099.8811" x="-1170.4813"/>
  </text>
  <text transform="scale(4.0128361,0.24920031)" font-size="75.69771" y="3850.7539" x="26.04157" font-family="Arial" text-anchor="middle"/>
  <path d="m 127.6583 646.91162 270.09948 0 c 6.39162 0 11.07493 5.41476 11.53723 12.10495 l 13.15303 190.34728 c 0.46229 6.69019 -5.14561 12.10495 -11.53723 12.10495 l -309.82163 0 c -6.391622 0 -12.464302 -5.46319 -11.53723 -12.10495 l 26.56912 -190.34728 c 0.46353 -3.32087 1.74994 -6.34711 3.71941 -8.54313 1.96946 -2.19601 4.62201 -3.56182 7.81782 -3.56182 z" fill="#1a1a1a" fill-rule="evenodd"/>
  <path d="m 256 546.36216 c -38.40199 0 -74.7864 8.67697 -107.29167 24.15364 l 0 161.03517 228.25522 0 0 -154.00392 C 341.12202 557.67937 299.88605 546.36216 256 546.36216 z" fill="#d1c4b1" fill-rule="evenodd"/>
  <rect width="458.78711" height="214.55717" x="26.60644" y="696.16205" rx="38.462238" ry="38.73571" fill="#282629" fill-rule="evenodd"/>
  <rect ry="12.473297" rx="11.359851" y="844.01581" x="70.18411" height="46.35447" width="371.63181" fill="#707175" fill-rule="evenodd"/>
  <path d="m 131.94401 865.01451 -35.18881 118.55469 -1.171875 3.97136 -0.130208 0.42317 c 43.43529 36.43327 99.4191 58.39847 160.54688 58.39847 61.41822 0 117.64387 -22.1747 161.16537 -58.9193 l -0.7487 -2.18099 -0.58594 -1.69271 -40.33203 -118.55469 -243.55469 0 z" fill="#d1c4b1" fill-rule="evenodd"/>
  <path d="m 98.99495 191.27657 c 0 6.41575 -5.200998 11.61675 -11.616754 11.61675 -6.415757 0 -11.616755 -5.201 -11.616755 -11.61675 0 -6.41576 5.200998 -11.61676 11.616755 -11.61676 6.415756 0 11.616754 5.201 11.616754 11.61676 z" transform="matrix(1.0416667,0,0,1.0416667,-10.666675,529.69549)" fill="#707175" fill-rule="evenodd"/>
  <text y="1155.2383" x="-394.04813" font-family="Gentium Book Basic" word-spacing="0" line-height="125%" letter-spacing="0" font-size="208.33334"><tspan y="1155.2383" x="-394.04813"/>
  </text>
  <text transform="scale(4.0128361,0.24920031)" font-size="75.69771" y="4072.8931" x="219.52896" font-family="Arial" text-anchor="middle"/>
  <text y="1026.262" x="543.05035" font-family="Gentium Book Basic" word-spacing="0" line-height="125%" letter-spacing="0" font-size="208.33334"><tspan y="1026.262" x="543.05035"/>
  </text>
  <text transform="scale(4.0128361,0.24920031)" font-size="75.69771" y="3555.3318" x="453.0542" font-family="Arial" text-anchor="middle"/>
  <rect width="236.68614" height="4.20897" x="137.65691" y="927.85889" rx="1.669641" ry="2.104485" fill="#767676" fill-rule="evenodd"/>
  <rect ry="2.104485" rx="1.896183" y="975.86011" x="121.59975" height="4.20897" width="268.80048" fill="#767676" fill-rule="evenodd"/>
  <rect width="220.54596" height="4.20897" x="145.72702" y="903.85822" rx="1.555784" ry="2.104485" fill="#767676" fill-rule="evenodd"/>
  <rect ry="2.104485" rx="1.783195" y="951.8595" x="129.60826" height="4.20897" width="252.78343" fill="#767676" fill-rule="evenodd"/>
  <rect width="205.71336" height="4.20897" x="153.14331" y="879.8576" rx="1.451151" ry="2.104485" fill="#767676" fill-rule="evenodd"/>
  <rect width="222.09822" height="26.0417" x="139.63095" y="715.633" rx="12.420559" ry="13.02085" fill="#707175" fill-rule="evenodd"/>
 </g>
</svg>
