<?xml version="1.0" encoding="UTF-8" standalone="no"?>
<!-- Created with Inkscape (http://www.inkscape.org/) -->

<svg
   xmlns:dc="http://purl.org/dc/elements/1.1/"
   xmlns:cc="http://creativecommons.org/ns#"
   xmlns:rdf="http://www.w3.org/1999/02/22-rdf-syntax-ns#"
   xmlns:svg="http://www.w3.org/2000/svg"
   xmlns="http://www.w3.org/2000/svg"
   xmlns:xlink="http://www.w3.org/1999/xlink"
   xmlns:sodipodi="http://sodipodi.sourceforge.net/DTD/sodipodi-0.dtd"
   xmlns:inkscape="http://www.inkscape.org/namespaces/inkscape"
   width="512"
   height="512"
   id="svg2"
   version="1.1"
   inkscape:version="0.48.4 r9939"
   sodipodi:docname="system-software-update.svg">
  <defs
     id="defs4">
    <linearGradient
       inkscape:collect="always"
       id="linearGradient13781">
      <stop
         style="stop-color:#fff8eb;stop-opacity:1;"
         offset="0"
         id="stop13783" />
      <stop
         style="stop-color:#fff8eb;stop-opacity:0;"
         offset="1"
         id="stop13785" />
    </linearGradient>
    <linearGradient
       inkscape:collect="always"
       xlink:href="#linearGradient13781"
       id="linearGradient13787"
       x1="1049.8931"
       y1="192.5563"
       x2="1060.7864"
       y2="240.28601"
       gradientUnits="userSpaceOnUse" />
    <linearGradient
       inkscape:collect="always"
       xlink:href="#linearGradient13781"
       id="linearGradient13793"
       gradientUnits="userSpaceOnUse"
       x1="1049.8931"
       y1="192.5563"
       x2="1060.7864"
       y2="240.28601" />
    <linearGradient
       inkscape:collect="always"
       xlink:href="#linearGradient13781"
       id="linearGradient13806"
       gradientUnits="userSpaceOnUse"
       x1="1049.8931"
       y1="192.5563"
       x2="1060.7864"
       y2="240.28601" />
    <linearGradient
       inkscape:collect="always"
       xlink:href="#linearGradient13781"
       id="linearGradient13822"
       gradientUnits="userSpaceOnUse"
       x1="1049.8931"
       y1="192.5563"
       x2="1060.7864"
       y2="240.28601" />
    <linearGradient
       inkscape:collect="always"
       xlink:href="#linearGradient13781"
       id="linearGradient13832"
       gradientUnits="userSpaceOnUse"
       x1="1049.8931"
       y1="192.5563"
       x2="1060.7864"
       y2="240.28601" />
    <linearGradient
       inkscape:collect="always"
       xlink:href="#linearGradient13781"
       id="linearGradient13834"
       gradientUnits="userSpaceOnUse"
       x1="1049.8931"
       y1="192.5563"
       x2="1060.7864"
       y2="240.28601" />
    <linearGradient
       inkscape:collect="always"
       xlink:href="#linearGradient13781"
       id="linearGradient13873"
       gradientUnits="userSpaceOnUse"
       x1="1049.8931"
       y1="192.5563"
       x2="1060.7864"
       y2="240.28601" />
    <linearGradient
       inkscape:collect="always"
       xlink:href="#linearGradient13781"
       id="linearGradient13875"
       gradientUnits="userSpaceOnUse"
       x1="1049.8931"
       y1="192.5563"
       x2="1060.7864"
       y2="240.28601" />
  </defs>
  <sodipodi:namedview
     id="base"
     pagecolor="#ffffff"
     bordercolor="#666666"
     borderopacity="1.0"
     inkscape:pageopacity="0.0"
     inkscape:pageshadow="2"
     inkscape:zoom="0.7"
     inkscape:cx="324.71331"
     inkscape:cy="218.70487"
     inkscape:document-units="px"
     inkscape:current-layer="layer1"
     showgrid="false"
     inkscape:window-width="1309"
     inkscape:window-height="750"
     inkscape:window-x="55"
     inkscape:window-y="-3"
     inkscape:window-maximized="1" />
  <metadata
     id="metadata7">
    <rdf:RDF>
      <cc:Work
         rdf:about="">
        <dc:format>image/svg+xml</dc:format>
        <dc:type
           rdf:resource="http://purl.org/dc/dcmitype/StillImage" />
        <dc:title />
      </cc:Work>
    </rdf:RDF>
  </metadata>
  <g
     inkscape:label="Layer 1"
     inkscape:groupmode="layer"
     id="layer1"
     transform="translate(0,-540.36218)">
    <path
       inkscape:connector-curvature="0"
       style="fill:#cd1d31;fill-opacity:1;stroke:none"
       d="m 265.50477,546.50622 c 2.30318,0.0917 4.62442,0.27696 6.91244,0.4318 -2.29069,-0.14793 -4.60534,-0.34654 -6.91244,-0.4318 z m 6.91244,0.4318 c 5.2395,0.35438 10.41964,0.9288 15.55301,1.5841 -5.14401,-0.65557 -10.31623,-1.24613 -15.55301,-1.5841 z m 16.12904,1.5841 -67.25233,495.39198 c 11.36659,1.5821 22.90402,2.4481 34.70624,2.4481 138.06296,0 249.99988,-111.93713 249.99988,-250.0001 4.6e-4,-127.05407 -94.73829,-231.91619 -217.45379,-247.83998 z m -144.58532,24.33757 c -5.96968,3.00134 -11.88493,6.1948 -17.56913,9.64862 5.71507,-3.47267 11.56563,-6.63336 17.56913,-9.64862 z M 7.1521123,819.69161 c 0.2866361,3.08917 0.6098159,6.16106 1.008065,9.21659 -0.3972352,-3.04715 -0.7217976,-6.13595 -1.008065,-9.21659 z m 1.4400928,12.38479 c 0.3092168,2.15904 0.6437791,4.33959 1.008065,6.48042 -0.3640555,-2.14051 -0.69871,-4.32171 -1.008065,-6.48042 z m 7.3444739,33.69818 c 0.794378,2.7517 1.562673,5.49673 2.448157,8.20853 -0.881014,-2.69743 -1.657374,-5.47157 -2.448157,-8.20853 z M 146.12107,1020.8726 c 1.81134,0.8889 3.63669,1.7461 5.47235,2.5921 -1.82797,-0.8412 -3.66843,-1.7085 -5.47235,-2.5921 z m 31.25002,12.6728 c 3.48272,1.1542 6.96392,2.3089 10.51267,3.3122 -3.53023,-0.9983 -7.04765,-2.1646 -10.51267,-3.3122 z m 10.51267,3.3124 c 2.82931,0.7999 5.62743,1.6024 8.49655,2.3042 -2.85392,-0.699 -5.68194,-1.5082 -8.49655,-2.3042 z m 24.7696,5.6164 c 2.76235,0.4835 5.55977,1.0481 8.35254,1.4401 -2.7924,-0.3917 -5.59042,-0.9567 -8.35254,-1.4401 z"
       id="path12989" />
    <path
       inkscape:connector-curvature="0"
       style="fill:#0078ad;stroke:none"
       d="m 256.00016,546.36221 c -138.06297,0 -250.000122,111.93715 -250.000122,250.00012 0,126.26075 93.693639,230.62577 215.293882,247.55197 l 67.25233,-495.39195 c -10.633,-1.37977 -21.5372,-2.16014 -32.54609,-2.16014 z"
       id="path13795" />
    <path
       style="fill:#fff8eb;fill-opacity:1;stroke:none"
       d="m 256.00016,566.14632 c -127.13716,0 -230.216011,103.07885 -230.216011,230.21601 0,127.13716 103.078851,230.21597 230.216011,230.21597 127.13715,0 230.216,-103.07881 230.216,-230.21597 0,-127.13716 -103.07885,-230.21601 -230.216,-230.21601 z m 0,23.60508 c 114.11595,0 206.61092,92.49493 206.61092,206.61093 0,114.116 -92.49497,206.61097 -206.61092,206.61097 -114.11605,0 -206.610931,-92.49497 -206.610931,-206.61097 0,-114.116 92.494881,-206.61093 206.610931,-206.61093 z"
       id="path13811"
       inkscape:connector-curvature="0" />
    <g
       id="g13824"
       transform="matrix(4.6082971,0,0,4.6082971,-4280.7119,-2622.4588)">
      <g
         transform="matrix(0.88797555,0,0,0.88797555,28.423993,82.660592)"
         id="g13789">
        <path
           style="fill:#fff8eb;stroke:#fff8eb;stroke-width:1px;stroke-linecap:butt;stroke-linejoin:miter;stroke-opacity:1"
           d="m 1039.211,714.14789 25.5357,25.98215 6.3392,-31.96429 z"
           id="path13761"
           inkscape:connector-curvature="0" />
        <path
           inkscape:connector-curvature="0"
           style="fill:url(#linearGradient13873);fill-opacity:1;stroke:none"
           d="m 1046.6875,180.6875 -0.375,0.375 c -8.4235,8.99039 -10.0925,21.72862 -7.2813,32.75 2.8115,11.02138 10.1249,20.41979 19.875,22.625 l 1.375,0.3125 -0.875,-1.125 c -11.1737,-14.32821 -12.4384,-33.02631 -2.2187,-43.5625 l 0.3437,-0.34375 -0.3437,-0.34375 -10.1563,-10.3125 -0.3437,-0.375 z"
           transform="translate(0,540.36218)"
           id="path13763" />
      </g>
      <g
         id="g13816"
         transform="matrix(-0.88797555,0,0,-0.88797555,1940.5081,1401.1071)">
        <path
           inkscape:connector-curvature="0"
           id="path13818"
           d="m 1039.211,714.14789 25.5357,25.98215 6.3392,-31.96429 z"
           style="fill:#fff8eb;stroke:#fff8eb;stroke-width:1px;stroke-linecap:butt;stroke-linejoin:miter;stroke-opacity:1" />
        <path
           id="path13820"
           transform="translate(0,540.36218)"
           d="m 1046.6875,180.6875 -0.375,0.375 c -8.4235,8.99039 -10.0925,21.72862 -7.2813,32.75 2.8115,11.02138 10.1249,20.41979 19.875,22.625 l 1.375,0.3125 -0.875,-1.125 c -11.1737,-14.32821 -12.4384,-33.02631 -2.2187,-43.5625 l 0.3437,-0.34375 -0.3437,-0.34375 -10.1563,-10.3125 -0.3437,-0.375 z"
           style="fill:url(#linearGradient13875);fill-opacity:1;stroke:none"
           inkscape:connector-curvature="0" />
      </g>
    </g>
  </g>
</svg>
