<svg xmlns="http://www.w3.org/2000/svg" width="512" height="512">
 <g transform="translate(0,-540.36218)">
  <path d="m 562.85715 -316.57144 a 360 360 0 0 1 -360 360 360 360 0 0 1 -360 -360 360 360 0 0 1 360 -360 360 360 0 0 1 360 360 z" transform="matrix(0.69444444,0,0,0.69444444,115.12698,1016.2035)" fill="#282629" fill-rule="evenodd"/>
  <path d="m 256.00006 986.07689 c 104.77667 0 189.71486 -84.93797 189.71486 -189.71468 0 -104.77671 -84.93819 -189.71469 -189.71486 -189.71469 l 0 35.57151 c 85.13102 0 154.14334 69.01303 154.14334 154.14318 0 85.13139 -69.01232 154.14318 -154.14334 154.14318 l 0 35.5715 z" fill="#0078ad"/>
  <path d="m 66.28516 796.36221 c 0 104.77671 84.938257 189.71468 189.7149 189.71468 l 0 -35.5715 c -85.13101 0 -154.14335 -69.01179 -154.14335 -154.14318 0 -85.13015 69.01234 -154.14318 154.14335 -154.14318 l 0 -35.57151 c -104.77664 0 -189.7149 84.93798 -189.7149 189.71469 z" fill="#cd1d31"/>
  <path d="m 223.88867 707.64343 0 82.57032 -32.11133 0 64.31641 73.41015 64.13086 -73.41015 -32.11328 0 0 -82.57032 -64.22266 0 z m 32.20508 155.98047 -96.42969 0 0 21.45703 c 0.21873 -0.009 0.43334 -0.0332 0.6543 -0.0332 l 192.01758 0 0 -21.42383 -96.24219 0 z" fill="#fff8eb"/>
 </g>
</svg>
