<svg xmlns="http://www.w3.org/2000/svg" width="512" height="512">
 <g transform="translate(0,-540.36218)">
  <path d="m 562.85715 -316.57144 c 0 198.82251 -161.17749 360 -360 360 -198.82251 0 -360 -161.17749 -360 -360 0 -198.82251 161.17749 -360 360 -360 198.82251 0 360 161.17749 360 360 z" transform="matrix(0.69444444,0,0,0.69444444,115.12698,1016.2035)" fill="#5a4739" fill-rule="evenodd"/>
  <path d="M 245.25 63.6875 C 150.71496 63.6875 74.09375 140.33996 74.09375 234.875 C 74.09375 329.41004 150.71496 406.03125 245.25 406.03125 C 259.92085 406.03125 274.16084 404.19058 287.75 400.71875 C 320.47938 446.03287 386.19383 461.22472 437.90625 436.5625 C 398.55982 427.55064 362.02484 405.3797 346.875 372.625 C 389.07076 341.45032 416.4375 291.36441 416.4375 234.875 C 416.4375 140.33996 339.78504 63.6875 245.25 63.6875 z" transform="translate(0,540.36218)" fill="#fff8eb" fill-rule="evenodd"/>
  <path d="m 240.43741 647.88493 c -70.06288 0.85581 -126.2032 58.35506 -125.34739 128.41795 0.85581 70.06288 58.38351 126.14453 128.4464 125.28872 11.68457 -0.14273 22.97266 -1.8727 33.68063 -4.96079 l 27.9588 47.07702 38.2464 -22.71831 -26.17262 -44.09508 c 31.72054 -23.4165 52.09463 -61.25033 51.57622 -103.69092 C 367.97004 703.14063 310.5003 647.02911 240.43741 647.88493 z m 0.45127 36.94361 c 49.65019 -0.60647 90.38709 39.17604 90.99356 88.82624 0.35107 28.74164 -12.84068 54.50597 -33.62954 71.21778 l -22.95655 -38.65177 -38.27557 22.71866 20.42574 34.39577 c -4.67748 0.8114 -9.46165 1.25292 -14.36117 1.31277 -49.65019 0.60647 -90.38673 -39.1469 -90.9932 -88.79709 -0.60647 -49.65019 39.14653 -90.41589 88.79673 -91.02236 z" fill="#5a4739" fill-rule="evenodd"/>
 </g>
</svg>
