<?xml version="1.0" encoding="UTF-8" standalone="no"?>
<!-- Created with Inkscape (http://www.inkscape.org/) -->

<svg
   xmlns:dc="http://purl.org/dc/elements/1.1/"
   xmlns:cc="http://creativecommons.org/ns#"
   xmlns:rdf="http://www.w3.org/1999/02/22-rdf-syntax-ns#"
   xmlns:svg="http://www.w3.org/2000/svg"
   xmlns="http://www.w3.org/2000/svg"
   xmlns:sodipodi="http://sodipodi.sourceforge.net/DTD/sodipodi-0.dtd"
   xmlns:inkscape="http://www.inkscape.org/namespaces/inkscape"
   width="512"
   height="512"
   id="svg2"
   version="1.1"
   inkscape:version="0.48.4 r9939"
   sodipodi:docname="quassel.svg">
  <defs
     id="defs4" />
  <sodipodi:namedview
     id="base"
     pagecolor="#ffffff"
     bordercolor="#666666"
     borderopacity="1.0"
     inkscape:pageopacity="0.0"
     inkscape:pageshadow="2"
     inkscape:zoom="0.7"
     inkscape:cx="164.48875"
     inkscape:cy="225.45273"
     inkscape:document-units="px"
     inkscape:current-layer="layer1"
     showgrid="false"
     inkscape:window-width="1309"
     inkscape:window-height="750"
     inkscape:window-x="55"
     inkscape:window-y="-3"
     inkscape:window-maximized="1" />
  <metadata
     id="metadata7">
    <rdf:RDF>
      <cc:Work
         rdf:about="">
        <dc:format>image/svg+xml</dc:format>
        <dc:type
           rdf:resource="http://purl.org/dc/dcmitype/StillImage" />
        <dc:title />
      </cc:Work>
    </rdf:RDF>
  </metadata>
  <g
     inkscape:label="Layer 1"
     inkscape:groupmode="layer"
     id="layer1"
     transform="translate(0,-540.36218)">
    <path
       transform="matrix(0.69444444,0,0,0.69444444,115.12698,1016.2035)"
       d="m 562.85715,-316.57144 a 360,360 0 1 1 -720,0 360,360 0 1 1 720,0 z"
       sodipodi:ry="360"
       sodipodi:rx="360"
       sodipodi:cy="-316.57144"
       sodipodi:cx="202.85715"
       id="path13004"
       style="fill:#0078ad;fill-rule:evenodd;stroke:none"
       sodipodi:type="arc" />
    <path
       style="fill:#99c1c3;fill-opacity:1;stroke:none"
       d="m 256,577.79074 c -113.71389,0 -205.897198,92.18332 -205.897198,205.8972 0,4.36764 0.174369,8.68912 0.442357,12.98922 l 50.670011,0 c -0.35476,-4.28512 -0.52278,-8.6125 -0.52278,-12.98922 0,-85.79306 69.51455,-155.34782 155.30761,-155.34782 85.79306,0 155.34782,69.55476 155.34782,155.34782 0,4.37672 -0.16782,8.7041 -0.52278,12.98922 l 50.6298,0 c 0.26798,-4.3001 0.44236,-8.62158 0.44236,-12.98922 0,-113.71388 -92.18332,-205.8972 -205.8972,-205.8972 z"
       id="rect13007"
       inkscape:connector-curvature="0" />
    <path
       style="fill:#99c1c3;fill-opacity:1;fill-rule:evenodd;stroke:none"
       d="M 50.303873,788.50837 C 54.722015,898.31685 145.10729,986.0008 256,986.0008 c 110.8927,0 201.27798,-87.68395 205.69612,-197.49243 l -50.58958,0 C 406.74278,870.39589 338.97492,935.45141 256,935.45141 c -82.97493,0 -150.70504,-65.05552 -155.06633,-146.94304 l -50.629797,0 z"
       id="path13783"
       inkscape:connector-curvature="0" />
    <path
       style="fill:#ffffff;fill-rule:evenodd;stroke:none"
       d="M 256 62.78125 C 142.28611 62.78125 50.09375 154.97363 50.09375 268.6875 C 50.09375 382.40139 142.28611 474.5625 256 474.5625 C 369.71388 474.5625 461.90625 382.40139 461.90625 268.6875 C 461.90625 154.97363 369.71388 62.78125 256 62.78125 z M 256 113.3125 C 341.79306 113.3125 411.34375 182.89444 411.34375 268.6875 C 411.34375 354.48057 341.79306 424.03125 256 424.03125 C 170.20694 424.03125 100.6875 354.48057 100.6875 268.6875 C 100.6875 182.89444 170.20694 113.3125 256 113.3125 z "
       transform="translate(0,540.36218)"
       id="path13864" />
    <path
       style="opacity:0.80000000000000004;fill:#fff8eb"
       d="M 256 113.3125 C 240.73704 113.3125 225.99528 115.55365 212.0625 119.65625 C 212.73621 125.80821 212.67809 131.24348 218.90625 131.15625 C 223.77744 137.68971 209.19166 133.0894 219.71875 138.125 C 225.7724 142.64798 213.31554 145.25358 220.8125 149.3125 C 212.17204 153.54232 222.20728 171.42793 228.625 175.90625 C 239.18789 184.3424 233.30758 158.05542 245.09375 156.6875 C 251.49817 149.75118 262.73041 145.29027 270.71875 138.3125 C 262.91179 137.71123 258.35645 133.07444 265.75 130.21875 C 279.3576 143.44717 269.15755 123.99268 261.625 120.90625 C 268.91366 118.70664 276.01137 120.29963 275 114.59375 C 275.04764 114.56068 275.07911 114.5328 275.125 114.5 C 268.85531 113.72989 262.47779 113.3125 256 113.3125 z M 183.34375 131.34375 C 179.51043 133.37708 175.75916 135.56962 172.125 137.90625 C 173.94351 138.77622 175.47224 140.4634 176.8125 143.75 C 187.2268 149.44413 177.69597 159.09009 173.15625 162.40625 C 180.74881 158.15093 194.06619 179.22062 190.4375 167.53125 C 185.96878 164.43577 202.44964 172.49769 193.90625 162.4375 C 186.04398 150.42023 194.52896 157.07026 197.84375 159.875 C 209.11773 150.28417 185.09529 149.1201 191.09375 139.25 C 188.84146 137.51938 186.25977 134.29303 183.34375 131.34375 z M 214.875 136.9375 C 209.00061 141.58102 226.04317 142.45552 214.875 136.9375 z M 345.78125 141.875 C 339.42621 148.08506 335.09064 156.46751 330.1875 163.90625 C 318.47547 168.91584 318.9153 190.4338 332 183.5625 C 335.50205 189.3651 329.54942 198.49348 339.75 190.90625 C 347.97781 180.57667 341.18591 163.88843 355.1875 157.375 C 356.2074 162.43955 342.28251 181.35838 358.5625 178.25 C 373.27992 178.77684 347.87319 179.61257 355.03125 188.53125 C 347.59424 184.3451 351.45754 199.97848 341.75 196.34375 C 333.34011 200.68362 327.82346 194.30534 329.75 187.34375 C 323.13419 191.00525 331.82837 201.34792 320.34375 201.96875 C 317.77112 210.63548 296.59412 209.3312 308.625 218.15625 C 313.96641 231.28928 288.73962 218.98994 295.90625 234.75 C 302.03768 250.33429 314.88046 229.60239 320.09375 225.59375 C 329.83798 218.42305 344.12651 236.96841 336.78125 238.8125 C 346.02869 237.15597 343.85229 228.38809 335.9375 224.9375 C 331.54557 214.13131 349.82712 230.23829 348.8125 235.65625 C 355.26745 247.12343 352.65007 223.91271 359.21875 234.1875 C 358.45181 245.0259 385.63816 236.74912 372.65625 250.5625 C 361.49478 252.69526 350.48426 247.82306 340.875 250.9375 C 331.93136 250.8623 332.4124 241.80147 329.15625 239.53125 C 317.77978 240.40808 303.67866 240.31221 296.0625 249.03125 C 287.82662 259.75129 275.96089 274.71805 284.9375 288.40625 C 293.92039 308.69057 316.19491 289.45804 329 301.4375 C 332.80615 306.4324 325.70844 312.37085 334.21875 317.78125 C 337.42114 329.30636 330.57246 340.26397 338.4375 351.28125 C 340.47698 356.47712 342.13335 362.95054 345.1875 366.9375 C 360.07957 356.47422 373.05278 343.45932 383.46875 328.53125 C 378.32511 313.39796 394.97685 305.14642 402.03125 292.78125 C 402.46251 291.59359 402.87834 290.38847 403.28125 289.1875 C 390.80773 290.56914 379.74123 278.72218 376.71875 266.8125 C 371.39324 260.9504 372.76991 252.33131 378.71875 263.34375 C 386.89533 270.86023 387.09339 293.12991 402.21875 281.65625 C 403.27641 281.23656 404.61629 280.60521 406.0625 279.875 C 407.38178 274.92775 408.48229 269.87857 409.3125 264.75 C 400.96857 264.30979 394.32935 245.74095 406.78125 259.21875 C 407.73731 259.60355 408.66252 259.93647 409.5625 260.28125 C 409.43237 253.06634 408.84062 245.97093 407.75 239.03125 C 406.53483 240.94681 404.03481 241.1018 400.28125 237.1875 C 401.78581 227.75832 390.34471 220.5773 402.59375 217.1875 C 391.83707 186.5559 371.786 160.3185 345.78125 141.875 z M 164.46875 143.1875 C 135.18479 164.59357 113.67669 195.98725 104.96875 232.375 C 103.78631 238.20891 102.90822 244.16435 102.40625 250.21875 C 106.44008 257.20774 113.68788 269.17489 114.09375 264.46875 C 108.70286 259.11293 103.12809 243.0329 112.25 257.34375 C 120.42055 270.94725 131.46183 279.76282 147.5625 283 C 156.36531 285.84064 163.60251 295.61723 171.34375 293.46875 C 175.7211 304.41608 158.3827 314.94554 171.9375 325.15625 C 179.01377 335.49305 190.90077 342.2691 184.46875 356.78125 C 182.48823 363.02197 181.75667 369.50724 181.21875 375.9375 C 186.55401 378.87456 192.08666 381.50806 197.78125 383.8125 C 198.77697 382.38893 199.93833 381.04679 201.3125 379.8125 C 213.56019 379.9046 203.6552 367.32462 215.8125 368.96875 C 223.23092 359.74394 225.387 348.72555 237.90625 345.0625 C 239.40169 333.865 258.74044 316.7347 238.78125 312.375 C 233.3566 309.83847 219.37009 308.93912 220.4375 307.6875 C 222.60004 296.57661 202.38594 293.38956 193.78125 288.84375 C 182.48366 281.23599 165.51162 301.4764 161.53125 284.03125 C 159.15622 278.54245 150.47789 278.46944 154.46875 270 C 147.27646 276.7862 133.19195 274.73056 136.875 261.625 C 142.29353 250.93251 162.62583 250.06574 167.21875 262.09375 C 163.33902 248.03254 177.67457 236.97079 185.71875 226.84375 C 187.40357 221.86476 197.41366 217.60144 193.96875 224.21875 C 199.83775 224.01783 208.70713 213.98751 198.28125 218.625 C 198.13375 209.46186 189.16418 212.07391 186.25 213.375 C 191.65116 205.24224 219.39698 209.69973 207.78125 196.40625 C 198.78058 192.94634 199.54144 172.75199 190.4375 184 C 191.2036 177.06961 171.89146 163.5035 172.3125 175.125 C 174.66783 185.52406 172.73123 197.49608 167.71875 204.3125 C 166.67272 189.07441 139.25919 192.42541 142.78125 176.1875 C 147.88374 168.44845 153.90068 157.75597 154.46875 158.71875 C 161.94047 156.01241 168.2074 149.0854 164.46875 143.1875 z M 174.5 145.875 C 169.52452 153.60751 181.85167 148.7298 174.5 145.875 z M 283.4375 155.03125 C 277.61241 161.39343 269.93786 153.34408 269.8125 158.8125 C 270.86822 160.46481 275.11113 172.26524 284.375 163.5625 C 289.34696 161.57384 287.36118 156.56606 283.4375 155.03125 z M 159.4375 158.8125 C 148.38886 167.96648 178.20455 168.82249 161.78125 159.875 L 159.4375 158.8125 z M 305.0625 184.28125 C 297.39654 189.23937 309.02735 199.55844 305.0625 204.4375 C 300.07803 212.67656 323.58679 203.85472 311.03125 197.28125 C 310.17077 191.84886 304.12966 185.29956 305.0625 184.28125 z M 299.8125 194.09375 C 288.72937 197.06645 297.29327 212.42398 301.21875 197.96875 C 301.43942 197.1307 301.74192 194.06575 299.8125 194.09375 z M 211.09375 205.21875 C 200.78302 211.88874 209.47472 218.56362 217.03125 215.5625 C 215.47991 211.53814 211.16363 208.98544 211.09375 205.21875 z M 379.40625 216.53125 C 378.70823 223.06006 394.2257 233.18674 377.46875 229.875 C 368.6069 230.86122 355.33582 229.60096 366.5 219.125 C 370.02763 217.11589 379.28858 226.07588 374.46875 217.71875 C 376.17749 217.61542 377.79656 217.02307 379.40625 216.53125 z M 403.9375 221.5625 C 402.29108 223.34542 401.32927 225.30652 405.40625 227.3125 C 404.94572 225.38064 404.47012 223.46533 403.9375 221.5625 z M 328.21875 230.65625 C 321.75507 234.60682 332.68835 237.63611 328.21875 230.65625 z M 165.90625 267.46875 C 164.81655 270.91768 186.35865 274.43184 171.5 268.90625 L 169.25 268.15625 L 165.90625 267.46875 z M 182.59375 272.375 C 176.0625 278.66528 196.05007 274.25428 182.59375 272.375 z "
       transform="translate(0,540.36218)"
       id="path13825" />
  </g>
</svg>
