<?xml version="1.0" encoding="UTF-8" standalone="no"?>
<!-- Created with Inkscape (http://www.inkscape.org/) -->

<svg
   xmlns:dc="http://purl.org/dc/elements/1.1/"
   xmlns:cc="http://creativecommons.org/ns#"
   xmlns:rdf="http://www.w3.org/1999/02/22-rdf-syntax-ns#"
   xmlns:svg="http://www.w3.org/2000/svg"
   xmlns="http://www.w3.org/2000/svg"
   xmlns:sodipodi="http://sodipodi.sourceforge.net/DTD/sodipodi-0.dtd"
   xmlns:inkscape="http://www.inkscape.org/namespaces/inkscape"
   width="512"
   height="512"
   id="svg2"
   version="1.1"
   inkscape:version="0.48.4 r9939"
   sodipodi:docname="roccat-tools.svg">
  <defs
     id="defs4" />
  <sodipodi:namedview
     id="base"
     pagecolor="#ffffff"
     bordercolor="#666666"
     borderopacity="1.0"
     inkscape:pageopacity="0.0"
     inkscape:pageshadow="2"
     inkscape:zoom="0.98994949"
     inkscape:cx="267.1005"
     inkscape:cy="273.07902"
     inkscape:document-units="px"
     inkscape:current-layer="layer1"
     showgrid="false"
     inkscape:window-width="1309"
     inkscape:window-height="750"
     inkscape:window-x="55"
     inkscape:window-y="-3"
     inkscape:window-maximized="1"
     showguides="true"
     inkscape:guide-bbox="true" />
  <metadata
     id="metadata7">
    <rdf:RDF>
      <cc:Work
         rdf:about="">
        <dc:format>image/svg+xml</dc:format>
        <dc:type
           rdf:resource="http://purl.org/dc/dcmitype/StillImage" />
        <dc:title />
      </cc:Work>
    </rdf:RDF>
  </metadata>
  <g
     inkscape:label="Layer 1"
     inkscape:groupmode="layer"
     id="layer1"
     transform="translate(0,-540.36218)">
    <path
       style="fill:#282629;fill-rule:evenodd;stroke:none"
       d="M 246.65625 6.1875 C 243.94285 6.2872916 241.22189 6.4081404 238.53125 6.59375 C 241.22383 6.4075132 243.94072 6.2875984 246.65625 6.1875 z M 267.15625 6.25 C 268.67782 6.3168513 270.20437 6.4060602 271.71875 6.5 C 270.20389 6.4060563 268.6783 6.3168436 267.15625 6.25 z M 271.71875 6.5 C 273.45086 6.6074465 275.18388 6.7324481 276.90625 6.875 C 275.18191 6.7322835 273.45284 6.6075388 271.71875 6.5 z M 231.59375 7.1875 C 229.58596 7.3820305 227.58735 7.6020044 225.59375 7.84375 C 227.58711 7.6014837 229.58615 7.3824846 231.59375 7.1875 z M 225.59375 7.84375 C 224.0237 8.0341347 222.46718 8.2493968 220.90625 8.46875 C 222.46312 8.2495716 224.02779 8.0340713 225.59375 7.84375 z M 287.15625 7.9375 C 288.85806 8.1491973 290.559 8.3792626 292.25 8.625 C 290.55399 8.3785683 288.86312 8.1496986 287.15625 7.9375 z M 292.25 8.625 C 293.65943 8.8298193 295.06706 9.0530091 296.46875 9.28125 C 295.06552 9.0527681 293.66097 8.8300155 292.25 8.625 z M 212.90625 9.71875 C 211.52715 9.9584226 210.15249 10.206575 208.78125 10.46875 C 210.14926 10.206813 211.53042 9.958276 212.90625 9.71875 z M 200.71875 12.15625 C 199.66393 12.394344 198.61222 12.623616 197.5625 12.875 C 198.61376 12.622815 199.66238 12.395107 200.71875 12.15625 z M 190 14.8125 C 188.29475 15.278128 186.59676 15.780628 184.90625 16.28125 C 186.59811 15.779649 188.29342 15.279085 190 14.8125 z M 184.90625 16.28125 C 183.28852 16.760317 181.66636 17.239258 180.0625 17.75 C 181.66496 17.239239 183.28999 16.760437 184.90625 16.28125 z M 178.625 18.21875 C 175.13181 19.354658 171.67379 20.560073 168.25 21.84375 C 171.67535 20.558895 175.13049 19.356039 178.625 18.21875 z M 168.25 21.84375 C 166.44555 22.520292 164.65937 23.220716 162.875 23.9375 C 164.65393 23.222898 166.45122 22.518478 168.25 21.84375 z M 162.875 23.9375 C 70.931318 60.871369 6 150.84855 6 256 C 6 340.70907 48.143623 415.56302 112.59375 460.78125 C 98.250469 450.03327 85.0511 437.78697 73.28125 424.21875 C 110.99202 454.20977 158.45783 472.09375 210 472.09375 C 249.74349 472.09375 287.02535 461.42852 319.3125 442.8125 L 314 426.71875 C 283.68564 356.2564 282.80625 312.51156 193 363.65625 C 178.63066 376.56711 163.12509 385.2519 151.53125 380.125 C 131.17474 361.37875 130.06252 344.35339 124.8125 317.625 C 137.17201 327.51787 148.75992 332.89596 160.03125 335.25 L 157.34375 325.15625 C 155.0473 318.13261 154.72454 314.28972 155.125 307.28125 C 163.09864 317.95259 168.37743 323.7451 178.4375 329.78125 C 189.41173 324.50545 197.79364 321.13856 206.5625 313.71875 C 220.92999 303.3313 212.19983 291.52186 197.5 277.15625 C 184.90487 262.41267 170.03925 254.65916 145.6875 272.75 C 129.78794 287.12496 139.21608 297.41579 146.90625 314.71875 L 150.3125 322.75 C 135.85188 317.8153 132.02193 312.58261 126.28125 300.71875 C 107.33855 315.63745 115.56836 328.65305 119.59375 340.03125 C 105.1303 334.23105 99.880958 327.45168 92.28125 313.71875 C 89.400833 314.017 82.547395 311.98975 80.40625 310.09375 C 72.170069 301.98361 70.230443 290.97468 68.96875 279.5625 C 70.043618 267.67091 73.011378 267.62221 85.21875 267.90625 C 90.67107 267.90625 91.030419 267.2383 91.1875 265.875 C 91.475734 263.37304 87.230188 263.90625 83.03125 263.90625 L 68.15625 263.90625 C 63.898138 262.45325 65.916491 258.41628 66.875 254.25 C 74.356122 240.67031 84.917439 230.63475 94.0625 220.90625 C 102.02824 212.80314 104.01451 200.50305 108.9375 187.375 C 115.17984 173.15243 121.93037 163.71576 131.21875 151.21875 C 131.05689 156.67947 129.53401 161.9536 128.40625 167.28125 C 128.53068 171.9582 147.16565 142.47777 168.1875 136.34375 C 164.6279 142.10937 160.59276 150.40689 162.34375 150.8125 L 167.1875 148 C 189.99136 134.03577 202.42703 128.42171 227.25 120.6875 C 243.76208 115.70911 251.92288 115.34422 266.25 112.375 C 279.34721 109.66072 291.22214 105.34122 305.5625 101.8125 C 311.3512 111.5015 310.47792 118.44298 311.4375 130.4375 C 311.2603 145.0068 309.36209 153.39927 304.90625 167.375 C 314.58407 156.24164 317.0776 144.29909 320.53125 129.875 C 355.67228 136.61498 377.8549 143.68088 408.59375 156.84375 C 414.4737 159.30746 420.387 161.58862 426.3125 163.75 C 422.8075 162.42842 419.30616 161.01105 415.8125 159.625 C 382.60993 77.04077 302.99421 18.84375 210 18.84375 C 193.83809 18.84375 178.05637 20.599799 162.875 23.9375 z M 341.15625 20.875 C 342.08309 21.210907 343.0158 21.559727 343.9375 21.90625 C 343.01067 21.557911 342.08827 21.212608 341.15625 20.875 z M 368.46875 32.6875 C 369.3781 33.146608 370.28457 33.623897 371.1875 34.09375 C 370.28298 33.623253 369.37971 33.14722 368.46875 32.6875 z M 377.5625 37.53125 C 378.8704 38.2609 380.17545 38.997668 381.46875 39.75 C 380.17425 38.997285 378.87162 38.261252 377.5625 37.53125 z M 389.875 44.84375 C 391.25713 45.722305 392.63648 46.626467 394 47.53125 C 392.63345 46.624796 391.26023 45.723872 389.875 44.84375 z M 394 47.53125 C 395.36352 48.436033 396.71794 49.350594 398.0625 50.28125 C 396.71821 49.351148 395.36323 48.435503 394 47.53125 z M 402.40625 53.34375 C 404.93841 55.177262 407.44678 57.075094 409.90625 59 C 407.43914 57.069736 404.94647 55.182093 402.40625 53.34375 z M 409.90625 59 C 411.19181 60.006145 412.45357 61.031902 413.71875 62.0625 C 412.45777 61.035804 411.18746 60.00242 409.90625 59 z M 413.71875 62.0625 C 414.94368 63.060307 416.1695 64.073349 417.375 65.09375 C 416.16561 64.070423 414.94768 63.063098 413.71875 62.0625 z M 421.1875 68.375 C 422.41087 69.453438 423.64182 70.554425 424.84375 71.65625 C 423.63711 70.550436 422.41574 69.457253 421.1875 68.375 z M 424.84375 71.65625 C 429.65146 76.063552 434.26824 80.638951 438.71875 85.40625 C 434.27252 80.645912 429.64631 76.057505 424.84375 71.65625 z M 438.71875 85.40625 C 439.83138 86.598075 440.94183 87.817813 442.03125 89.03125 C 440.9392 87.815384 439.83411 86.600409 438.71875 85.40625 z M 445.25 92.6875 C 447.3817 95.156888 449.46468 97.666465 451.5 100.21875 C 449.46379 97.666806 447.38262 95.156525 445.25 92.6875 z M 451.5 100.21875 C 457.60595 107.87561 463.28129 115.8982 468.46875 124.25 C 463.27882 115.89874 457.60881 107.87481 451.5 100.21875 z M 468.46875 124.25 C 469.33333 125.64197 470.19343 127.05872 471.03125 128.46875 C 470.18983 127.05317 469.33715 125.64737 468.46875 124.25 z M 471.03125 128.46875 C 471.86907 129.87878 472.68928 131.29102 473.5 132.71875 C 472.68918 131.29133 471.86918 129.87846 471.03125 128.46875 z M 473.5 132.71875 C 476.74286 138.42969 479.76753 144.26997 482.5625 150.25 C 479.76847 144.27469 476.7415 138.42526 473.5 132.71875 z M 482.5625 150.25 C 483.26124 151.74501 483.95514 153.27031 484.625 154.78125 C 483.95107 153.26133 483.26567 151.7538 482.5625 150.25 z M 484.625 154.78125 C 485.96472 157.80313 487.24667 160.85403 488.46875 163.9375 C 487.24749 160.85664 485.96377 157.8006 484.625 154.78125 z M 488.46875 163.9375 C 490.30187 168.56271 492.00204 173.2442 493.5625 178 C 492.00172 173.24345 490.30245 168.56337 488.46875 163.9375 z M 493.5625 178 C 494.08265 179.58527 494.57335 181.18218 495.0625 182.78125 C 495.07254 182.78324 495.08371 182.77926 495.09375 182.78125 C 494.60369 181.17899 494.0837 179.5884 493.5625 178 z M 496.1875 186.4375 C 496.51762 187.57885 496.8419 188.72704 497.15625 189.875 C 496.84208 188.72678 496.51757 187.57906 496.1875 186.4375 z M 146.09375 193.1875 C 129.39654 195.74793 120.07654 203.23005 116.875 212.28125 L 135.25 209.0625 L 146.09375 193.1875 z M 408.1875 233.78125 C 380.81315 233.98917 352.27175 237.4713 317.4375 245.625 C 390.41359 247.0128 438.16355 254.44797 498.59375 279.375 L 504.5625 282.9375 C 505.51069 274.08761 506 265.10167 506 256 C 506 251.92622 505.91142 247.86981 505.71875 243.84375 L 504.21875 243.625 C 468.7367 237.51393 439.21176 233.5456 408.1875 233.78125 z M 376.40625 285.21875 C 367.51223 285.28538 358.18771 285.62217 348.34375 286.21875 C 407.83495 297.56243 449.52953 310.08526 493.625 333.875 C 496.69336 324.50639 499.20167 314.88231 501.15625 305.0625 C 460.21162 292.07237 424.43398 284.85896 376.40625 285.21875 z M 501.15625 305.0625 C 501.51791 303.2455 501.86545 301.42472 502.1875 299.59375 C 501.86296 301.42419 501.51801 303.24501 501.15625 305.0625 z M 502.1875 299.59375 C 502.79911 296.11649 503.34621 292.61895 503.8125 289.09375 C 503.34136 292.61679 502.80366 296.11852 502.1875 299.59375 z M 372.4375 330.4375 C 414.28522 343.33892 446.80726 355.82744 477.1875 372.53125 C 480.74385 365.79513 484.02733 358.89515 486.96875 351.8125 C 453.42445 339.8814 419.21232 332.78301 372.4375 330.4375 z M 477.1875 372.53125 C 476.25904 374.28986 475.31252 376.0477 474.34375 377.78125 C 475.314 376.04542 476.25776 374.29228 477.1875 372.53125 z M 474.34375 377.78125 C 473.37498 379.5148 472.38347 381.22963 471.375 382.9375 C 472.38401 381.22929 473.37453 379.51524 474.34375 377.78125 z M 471.375 382.9375 C 464.31574 394.89258 456.28853 406.20875 447.40625 416.78125 C 456.29244 406.21318 464.31442 394.89071 471.375 382.9375 z M 447.40625 416.78125 C 446.13735 418.29161 444.86611 419.77039 443.5625 421.25 C 444.86403 419.77395 446.13933 418.28796 447.40625 416.78125 z M 443.5625 421.25 C 442.25889 422.72961 440.93146 424.20801 439.59375 425.65625 C 440.93442 424.20616 442.25607 422.73161 443.5625 421.25 z M 439.59375 425.65625 C 436.91833 428.55272 434.18307 431.38908 431.375 434.15625 C 434.18456 431.39035 436.91693 428.55155 439.59375 425.65625 z M 431.375 434.15625 C 429.97096 435.53983 428.53002 436.89969 427.09375 438.25 C 428.53367 436.89775 429.96746 435.54192 431.375 434.15625 z M 427.09375 438.25 C 425.67896 439.58011 424.25796 440.89028 422.8125 442.1875 C 424.25375 440.8953 425.68298 439.57488 427.09375 438.25 z M 493.46875 334.34375 C 493.01919 335.70698 492.5663 337.05376 492.09375 338.40625 C 492.5644 337.0577 493.02067 335.70272 493.46875 334.34375 z M 492.09375 338.40625 C 491.56676 339.91455 491.02381 341.44265 490.46875 342.9375 C 491.02624 341.4345 491.56449 339.92273 492.09375 338.40625 z M 417.59375 446.71875 C 416.31656 447.80322 415.04907 448.87845 413.75 449.9375 C 415.04726 448.88106 416.31829 447.80051 417.59375 446.71875 z M 413.75 449.9375 C 412.22077 451.18419 410.68397 452.41411 409.125 453.625 C 410.68071 452.4178 412.22388 451.18032 413.75 449.9375 z M 409.125 453.625 C 407.70074 454.73125 406.26109 455.83038 404.8125 456.90625 C 406.26609 455.82783 407.69587 454.73398 409.125 453.625 z M 112.78125 460.90625 C 116.53928 463.53785 120.37569 466.0738 124.28125 468.5 C 120.37581 466.07365 116.5393 463.53787 112.78125 460.90625 z M 124.28125 468.5 C 125.34919 469.16342 126.4214 469.82106 127.5 470.46875 C 126.42081 469.82064 125.34978 469.16385 124.28125 468.5 z M 397.59375 462.0625 C 396.6312 462.72588 395.65975 463.38109 394.6875 464.03125 C 395.66072 463.38113 396.63023 462.72585 397.59375 462.0625 z M 140.8125 477.9375 C 142.08395 478.59876 143.37212 479.23507 144.65625 479.875 C 143.37563 479.23668 142.08052 478.59702 140.8125 477.9375 z M 166.15625 489.34375 C 169.09347 490.47549 172.04174 491.57093 175.03125 492.59375 C 172.0438 491.57118 169.09147 490.47511 166.15625 489.34375 z M 335.8125 492.90625 C 324.8436 496.60037 313.55292 499.57985 301.96875 501.75 C 313.55419 499.59613 324.87913 496.69244 335.84375 493 L 335.8125 492.90625 z M 301.96875 501.75 C 300.31387 502.06002 298.63491 502.34775 296.96875 502.625 C 298.63992 502.34939 300.30893 502.05858 301.96875 501.75 z M 296.96875 502.625 C 295.30259 502.90225 293.64587 503.1622 291.96875 503.40625 C 293.64188 503.16508 295.30651 502.89914 296.96875 502.625 z M 291.96875 503.40625 C 290.29163 503.6503 288.59402 503.88331 286.90625 504.09375 C 288.6028 503.88457 290.28291 503.64925 291.96875 503.40625 z M 286.90625 504.09375 C 283.75698 504.48643 280.59099 504.82018 277.40625 505.09375 C 280.59282 504.8236 283.75487 504.48232 286.90625 504.09375 z M 185.59375 495.9375 C 186.61086 496.23549 187.6338 496.52713 188.65625 496.8125 C 187.63583 496.52755 186.60886 496.23503 185.59375 495.9375 z M 216.8125 502.9375 C 217.822 503.09648 218.83027 503.25939 219.84375 503.40625 C 218.82705 503.25889 217.8252 503.09706 216.8125 502.9375 z M 228.15625 504.46875 C 229.20687 504.58518 230.258 504.67788 231.3125 504.78125 C 230.26072 504.67804 229.20416 504.58496 228.15625 504.46875 z M 276.4375 505.1875 C 274.82291 505.31985 273.21699 505.39879 271.59375 505.5 C 273.21118 505.4005 274.82853 505.31762 276.4375 505.1875 z M 271.59375 505.5 C 270.04161 505.59678 268.46605 505.68201 266.90625 505.75 C 268.46981 505.68287 270.03776 505.59572 271.59375 505.5 z M 236.1875 505.21875 C 237.58892 505.32856 238.99843 505.41339 240.40625 505.5 C 238.99501 505.41314 237.5923 505.32894 236.1875 505.21875 z M 241.4375 505.59375 C 242.44396 505.65153 243.45914 505.67292 244.46875 505.71875 C 243.45713 505.67283 242.44594 505.65166 241.4375 505.59375 z "
       transform="translate(0,540.36218)"
       id="path2985" />
    <path
       style="fill:#55405f;fill-rule:evenodd;stroke:none"
       d="M 503.96875 287.53125 C 503.69065 289.71923 503.4294 291.92433 503.09375 294.09375 C 502.71983 296.51054 502.2534 298.88703 501.8125 301.28125 C 502.64471 296.73636 503.38592 292.15847 503.96875 287.53125 z "
       id="path3943"
       transform="translate(0,540.36218)" />
    <path
       style="fill:#62c0dc;stroke:none"
       d="M 256 6 C 223.05567 6 191.61483 12.38946 162.8125 23.96875 C 178.01412 20.62168 193.81469 18.84375 210 18.84375 C 302.99421 18.84375 382.60993 77.04077 415.8125 159.625 C 420.47072 161.47307 425.12437 163.36575 429.8125 165.03125 C 433.36487 166.29326 436.92782 167.52003 440.5 168.6875 C 436.92707 167.52482 433.36487 166.29326 429.8125 165.03125 C 422.70776 162.50723 415.63374 159.79352 408.59375 156.84375 C 377.8549 143.68088 355.67228 136.61498 320.53125 129.875 C 317.0776 144.29909 314.58407 156.24164 304.90625 167.375 C 309.36209 153.39927 311.2603 145.0068 311.4375 130.4375 C 310.47792 118.44298 311.3512 111.5015 305.5625 101.8125 C 291.22214 105.34122 279.34721 109.66072 266.25 112.375 C 251.92288 115.34422 243.76208 115.70911 227.25 120.6875 C 202.42703 128.42171 189.99136 134.03577 167.1875 148 L 162.34375 150.8125 C 160.59276 150.40689 164.6279 142.10937 168.1875 136.34375 C 147.16565 142.47777 128.53068 171.9582 128.40625 167.28125 C 129.53401 161.9536 131.05689 156.67947 131.21875 151.21875 C 121.93037 163.71576 115.17984 173.15243 108.9375 187.375 C 104.01451 200.50305 102.02824 212.80314 94.0625 220.90625 C 84.917439 230.63475 74.356122 240.67031 66.875 254.25 C 65.916491 258.41628 63.898138 262.45325 68.15625 263.90625 L 83.03125 263.90625 C 87.230188 263.90625 91.475734 263.37304 91.1875 265.875 C 91.030419 267.2383 90.67107 267.90625 85.21875 267.90625 C 73.011378 267.62221 70.043618 267.67091 68.96875 279.5625 C 70.230443 290.97468 72.170069 301.98361 80.40625 310.09375 C 82.547395 311.98975 89.400833 314.017 92.28125 313.71875 C 99.880958 327.45168 105.1303 334.23105 119.59375 340.03125 C 115.56836 328.65305 107.33855 315.63745 126.28125 300.71875 C 132.02193 312.58261 135.85188 317.8153 150.3125 322.75 L 146.90625 314.71875 C 139.21608 297.41579 129.78794 287.12496 145.6875 272.75 C 170.03925 254.65916 184.90487 262.41267 197.5 277.15625 C 212.19983 291.52186 220.92999 303.3313 206.5625 313.71875 C 197.79364 321.13856 189.41173 324.50545 178.4375 329.78125 C 168.37743 323.7451 163.09864 317.95259 155.125 307.28125 C 154.72454 314.28972 155.0473 318.13261 157.34375 325.15625 L 160.03125 335.25 C 148.75992 332.89596 137.17201 327.51787 124.8125 317.625 C 130.06252 344.35339 131.17474 361.37875 151.53125 380.125 C 163.12509 385.2519 178.63066 376.56711 193 363.65625 C 282.80625 312.51156 283.68564 356.2564 314 426.71875 L 319.3125 442.8125 C 287.02535 461.42852 249.74349 472.09375 210 472.09375 C 158.45783 472.09375 110.99202 454.20977 73.28125 424.21875 C 85.060683 437.79802 98.26817 450.05822 112.625 460.8125 C 153.2184 489.2823 202.65348 506 256 506 C 283.91881 506 310.74072 501.34995 335.8125 492.90625 L 335.84375 493 C 396.96631 472.4164 447.47676 428.80674 477.1875 372.53125 C 446.80726 355.82744 414.28522 343.33892 372.4375 330.4375 C 419.21232 332.78301 453.42445 339.8814 486.96875 351.8125 C 489.40685 345.94179 491.63153 339.96164 493.625 333.875 C 449.52953 310.08526 407.83495 297.56243 348.34375 286.21875 C 411.34508 282.40063 452.62928 289.66679 501.15625 305.0625 C 502.6033 297.79253 503.76083 290.41987 504.5625 282.9375 L 498.59375 279.375 C 438.16355 254.44797 390.41359 247.0128 317.4375 245.625 C 391.75057 228.23045 437.429 232.12181 504.21875 243.625 L 505.71875 243.84375 C 504.70646 222.69127 501.0441 202.23614 495.09375 182.78125 C 495.08371 182.77926 495.07254 182.78324 495.0625 182.78125 C 463.75709 80.44099 368.59091 6 256 6 z M 146.09375 193.1875 L 135.25 209.0625 L 116.875 212.28125 C 120.07654 203.23005 129.39654 195.74793 146.09375 193.1875 z "
       transform="translate(0,540.36218)"
       id="path2994" />
  </g>
</svg>
