<svg xmlns="http://www.w3.org/2000/svg" xmlns:xlink="http://www.w3.org/1999/xlink" width="512" height="512">
 <defs>
  <linearGradient id="0">
   <stop stop-color="#53b2dc"/>
   <stop offset="1" stop-color="#0078ad"/>
  </linearGradient>
  <radialGradient xlink:href="#0" id="1" cx="238.99623" cy="451.54343" r="250" gradientTransform="matrix(0.99982912,0.01848582,-0.02833962,1.5327849,12.837409,-244.99356)" gradientUnits="userSpaceOnUse"/>
 </defs>
 <path d="m 506 256.00004 c 0 138.07119 -111.92881 250 -250 250 -138.07119 0 -250 -111.92881 -250 -250 C 6 117.92886 117.92881 6.00005 256 6.00005 c 138.07119 0 250 111.92881 250 249.99999 z" fill="url(#1)" fill-rule="evenodd"/>
 <path d="M 236.96875 32.78125 C 180.08562 39.871876 130.56595 68.956275 106.03125 93.78125 C 68.867514 129.99831 51.08357 167.95806 43.03125 194.5 C 53.76768 325.3792 232.5822 449.71447 231.6875 446.96875 C 231.6875 446.96875 167.85792 345.95815 217.40625 243.875 C 256.7852 161.81549 268.99793 86.23678 236.96875 32.78125 z" stroke-opacity="0.392857" fill="#fff8eb" fill-rule="evenodd" stroke="#f6f7f7" fill-opacity="0.75" stroke-width="0.904913"/>
 <path d="M 402.59375 83.25 C 375.31061 137.88266 332.69709 203.11439 326.03125 215.96875 C 304.89346 245.25923 260.12329 389.83689 242.21875 451.71875 L 248.03125 452 C 246.33589 450.41602 331.46379 324.17152 435.53125 307.03125 C 435.68149 243.11585 449.56342 198.19263 464.65625 167.625 C 450.74803 134.82734 429.35921 105.98426 402.59375 83.25 z" fill="#cea86b" fill-rule="evenodd" stroke="#282629" stroke-width="4.171235"/>
 <path d="m 151.875 355.48718 a 6.25 9.6875 0 1 1 -12.5 0 6.25 9.6875 0 1 1 12.5 0 z" transform="matrix(0.85549309,0.57235966,-0.98092839,1.6333148,555.22665,-424.21616)" fill="#5a4739" fill-rule="evenodd" stroke-width="1.25097"/>
 <path d="m 323.39263 254.61779 -1.66721 -1.25222 c -1.91766 -1.44031 -66.21705 167.3384 -76.1395 197.57651 9.86086 -31.88416 67.88236 -183.02204 77.80671 -196.32429 z" fill="#5a4739" fill-rule="evenodd" stroke="#5a4739" stroke-width="1.287345"/>
 <path d="M 256 21.125 C 126.28237 21.125 21.125 126.28237 21.125 256 C 21.125 385.71763 126.28237 490.875 256 490.875 C 385.71763 490.875 490.875 385.71763 490.875 256 C 490.875 126.28237 385.71763 21.125 256 21.125 z M 256 42 C 374.1942 42 470 137.8058 470 256 C 470 374.1942 374.1942 470 256 470 C 137.8058 470 42 374.1942 42 256 C 42 137.8058 137.8058 42 256 42 z" fill="#fff8eb" fill-rule="evenodd"/>
</svg>
