<svg xmlns="http://www.w3.org/2000/svg" xmlns:xlink="http://www.w3.org/1999/xlink" width="512" height="512">
 <defs>
  <linearGradient id="0">
   <stop stop-color="#53869e"/>
   <stop offset="1" stop-color="#366378"/>
  </linearGradient>
  <radialGradient xlink:href="#0" id="1" cx="256" cy="255.98068" r="250" gradientUnits="userSpaceOnUse"/>
 </defs>
 <path d="m 506 256.00004 a 250 250 0 0 1 -500 0 250 250 0 1 1 500 0 z" fill="url(#1)" fill-rule="evenodd"/>
 <g transform="matrix(1.3139098,0,0,1.3121244,-1380.6431,-392.32398)" fill="#fff8eb">
  <path d="m 1265.0759 632.79863 7.4953 -1.11478 5.1211 -7.40799 c 6.6851 -9.67031 11.2833 -19.77049 14.5587 -31.97875 3.5052 -13.06467 4.4361 -38.2733 2.0083 -54.38369 -2.4971 -16.5699 -4.7051 -25.00768 -6.5299 -24.95329 -0.8619 0.0257 -4.6133 3.96319 -8.3363 8.75 -11.4268 14.69155 -32.0627 34.89323 -45.7308 44.76858 -24.6347 17.79873 -51.0351 27.42267 -75.25 27.43152 -10.9678 0.004 -11.195 0.95176 -2 8.34264 20.9494 16.83921 46.3756 27.81994 71.75 30.9865 6.9383 0.86587 29.9782 0.59078 36.9136 -0.44074 z"/>
  <path d="m 1232.8741 630.8983 c -27.1815 -2.81688 -56.1016 -14.72525 -73.7118 -30.35213 l -4 -3.5495 5 -0.0456 c 13.1987 -0.1205 33.0912 -5.08781 47.9904 -11.98358 24.0399 -11.12633 50.6619 -33.04689 71.4927 -58.86699 8.69 -10.7715 7.6458 -11.50402 11.1369 7.81296 2.979 16.48395 2.9677 37.85409 -0.028 51.97528 -2.5105 11.8351 -6.5882 22.39929 -12.4325 32.20875 -6.0731 10.19358 -7.5404 11.43859 -14.3212 12.1511 -11.9138 1.25186 -23.0696 1.48474 -31.1268 0.64975 z"/>
  <path d="m 1299.6171 623.32377 c 20.176 -8.0753 41.3829 -23.98696 54.9848 -41.25544 9.5164 -12.08168 18.1915 -27.45616 23.0333 -40.82097 l 2.2338 -6.16605 -3.1823 -5.97056 c -7.1053 -13.33108 -21.4519 -28.41235 -37.1175 -39.01845 -9.9211 -6.71684 -29.6582 -16.14164 -43.1719 -20.61523 -14.8105 -4.90291 -15.1568 -4.83971 -12.1526 2.21847 8.7243 20.4975 16.0452 45.50024 18.8409 64.34622 2.0344 13.71403 2.0321 35.80461 0 47.94544 -1.8944 11.29037 -6.363 25.03549 -11.019 33.8935 -3.5007 6.66 -4.1328 9.03272 -2.4063 9.03272 0.5462 0 5.029 -1.61534 9.9618 -3.58965 z"/>
  <path d="m 1296.3251 615.18069 c 16.645 -33.72074 14.8676 -81.18022 -4.9909 -133.26727 -2.4114 -6.325 -4.0681 -11.62702 -3.6814 -11.78227 1.5353 -0.61639 20.1284 6.25702 30.5095 11.27856 25.7308 12.44657 44.0112 28.39828 55.9568 48.82884 l 2.8213 4.82513 -3.6452 9.20987 c -6.67 16.85222 -16.8577 32.50041 -29.7401 45.68036 -13.4508 13.76151 -26.3064 22.48994 -46.1143 31.30988 l -5.2785 2.35039 4.1628 -8.43349 z"/>
  <path d="m 1175.1765 583.38298 c 21.4156 -3.73458 44.8387 -16.04678 67.2917 -35.37143 10.376 -8.93039 10.3646 -8.94894 -6.8059 -11.10369 -54.8978 -6.88916 -98.6246 -29.39671 -120.0527 -61.79488 -2.9827 -4.50976 -5.9635 -8.19956 -6.624 -8.19956 -1.974 0 -2.8235 8.43326 -2.8206 28 0 25.02131 2.9116 38.39642 12.9811 59.70979 4.1422 8.76743 15.4807 26.53065 17.8856 28.01994 3.9463 2.44392 25.928 2.87026 38.1448 0.73983 z"/>
  <path d="m 1141.3839 581.10244 c -5.7408 -1.42367 -19.9793 -25.1907 -26.1111 -43.58496 -6.0599 -18.17841 -8.6728 -43.14922 -6.2747 -59.96539 l 0.8359 -5.86133 4.5539 6.78838 c 6.3268 9.43104 20.3653 23.02964 31.3815 30.39826 21.5693 14.42748 50.4732 24.9314 81.3929 29.57884 6.05 0.90936 12.6482 1.94673 14.6628 2.30528 l 3.6628 0.6519 -7.6628 6.59873 c -16.1342 13.89373 -36.179 25.28179 -53.6628 30.48743 -7.7474 2.30671 -11.1573 2.72226 -24.5 2.98577 -8.525 0.16836 -16.7503 -0.004 -18.2784 -0.38291 z"/>
  <path d="m 1208.6571 521.16342 c 0 -0.4125 -1.9991 -5.56817 -4.4361 -11.45705 -19.3228 -46.6934 -23.726 -90.62019 -12.4558 -124.25953 1.6623 -4.96183 4.5692 -11.93447 6.4598 -15.49474 4.2606 -8.02387 4.3762 -9.47301 0.6873 -8.61846 -5.8909 1.36462 -29.1833 13.84233 -37.3803 20.02456 -10.8135 8.15554 -25.28 23.35688 -32.3737 34.01798 -6.0195 9.0468 -15.1343 27.30108 -16.0766 32.19668 -1.2735 6.61693 9.5305 24.37881 23.0383 37.87508 14.138 14.12595 31.2275 24.20156 54.5046 32.13484 11.8506 4.03892 18.0442 5.26874 18.0325 3.58064 z"/>
  <path d="m 1192.6623 515.36155 c -22.1956 -7.30069 -44.8203 -20.92814 -57.53 -34.65189 -8.5285 -9.20891 -19.4777 -26.9349 -19.4652 -31.513 0.01 -3.45418 8.8959 -21.44394 15.4733 -31.32394 13.2658 -19.9269 31.534 -36.10241 53.162 -47.07225 6.3838 -3.23788 11.9654 -5.88705 12.4035 -5.88705 0.4382 0 -0.5175 2.63007 -2.1239 5.8446 -17.7859 35.5929 -15.2447 86.28524 7.0205 140.04294 1.6829 4.06314 3.0598 7.55064 3.0598 7.75 0 0.6667 -1.4412 0.28367 -12 -3.18941 z"/>
  <path d="m 1384.351 514.16342 c 0.4462 -2.6125 0.7779 -12.4 0.7371 -21.75 -0.059 -13.61036 -0.5201 -19.08496 -2.311 -27.45667 -4.9493 -23.13609 -16.6346 -46.6813 -31.6601 -63.79333 -4.4508 -5.06893 -4.7891 -5.25 -9.8085 -5.25 -19.6747 0 -44.691 7.63078 -63.1392 19.25949 -14.783 9.31833 -37.507 28.48422 -37.507 31.63408 0 1.50735 1.8789 2.03121 12.6652 3.53121 15.4324 2.14611 39.3376 8.05423 52.8348 13.058 13.2744 4.92123 32.6831 15.06877 42.8104 22.38287 8.7652 6.33032 24.6318 22.06772 29.1835 28.94587 3.6287 5.48333 5.1865 5.34213 6.1948 -0.56152 z"/>
  <path d="m 1377.7172 509.34044 c -5.705 -7.94416 -18.5837 -20.03648 -29.0591 -27.28486 -23.6952 -16.39573 -56.462 -28.63885 -89.9958 -33.62643 -6.325 -0.94073 -12.175 -1.928 -13 -2.19393 -1.5893 -0.51229 1.8147 -3.85603 15.5 -15.22565 24.0712 -19.99819 53.2992 -32.09615 77.5424 -32.09615 l 6.7804 0 6.916 8.75 c 14.026 17.74545 22.8772 36.1681 27.7934 57.84881 1.8161 8.0088 3.0551 38.99578 1.7892 44.74586 l -0.8464 3.84468 -3.4201 -4.76233 z"/>
  <path d="m 1209.0867 469.46711 c 13.1937 -18.48934 34.5003 -40.32094 52.1163 -53.40056 18.4742 -13.71674 42.3367 -24.45679 60.4758 -27.219 11.5419 -1.75759 11.9835 -1.88081 11.9835 -3.3439 0 -0.75441 -3.9375 -4.06312 -8.75 -7.35269 -14.843 -10.14585 -28.9873 -16.46041 -46.9215 -20.9476 -9.9283 -2.48408 -12.4913 -2.71268 -30.8285 -2.74963 -26.6809 -0.0538 -28.6405 0.31873 -33.0207 6.27681 -12.7598 17.35612 -19.4875 40.06766 -19.457 65.68288 0.023 19.66218 5.104 49.5 8.4284 49.5 0.7556 0 3.4437 -2.90084 5.9737 -6.44631 z"/>
  <path d="m 1203.4206 470.31491 c -1.3843 -2.28141 -4.8693 -23.08117 -5.6732 -33.85936 -1.5245 -20.44108 1.1869 -38.60577 8.2425 -55.21941 3.3875 -7.97621 8.8331 -17.09452 12.535 -20.98894 2.6357 -2.77272 11.0779 -3.87134 28.6374 -3.7267 21.0118 0.17308 38.499 4.14814 56.9499 12.94544 8.3257 3.96966 24.5501 13.77491 24.5501 14.83694 0 0.23641 -3.2625 0.96957 -7.25 1.62925 -29.3448 4.85469 -58.6247 21.51656 -86.5598 49.25721 -10.14 10.06947 -21.8589 23.62539 -29.501 34.12557 -0.7612 1.04582 -1.6301 1.49582 -1.9309 1 z"/>
 </g>
 <path d="m 262.6016 29.42025 a 226.66417 226.66417 0 0 0 -233.26577 226.57918 226.66417 226.66417 0 0 0 453.32834 0 A 226.66417 226.66417 0 0 0 262.6016 29.42025 z m -0.53834 17.934803 a 208.71137 208.71137 0 0 1 202.63778 208.64438 208.71137 208.71137 0 0 1 -417.40208 0 A 208.71137 208.71137 0 0 1 262.06326 47.35505 z" fill="#fff8eb" fill-rule="evenodd"/>
</svg>
