<svg xmlns="http://www.w3.org/2000/svg" xmlns:xlink="http://www.w3.org/1999/xlink" width="512" height="512">
 <defs>
  <linearGradient id="0">
   <stop stop-color="#424242"/>
   <stop stop-color="#282629" offset="1"/>
  </linearGradient>
  <radialGradient xlink:href="#0" id="1" cx="256" cy="256.00006" r="243.6236" gradientTransform="translate(0,2.1016031e-6)" gradientUnits="userSpaceOnUse"/>
 </defs>
 <path fill-rule="evenodd" fill="url(#1)" d="m 499.62359 256.00004 c 0 134.54959 -109.074 243.62359 -243.62359 243.62359 -134.54959 0 -243.62358 -109.074 -243.62358 -243.62359 C 12.376416 121.45046 121.45041 12.37646 256 12.37646 c 134.54959 0 243.62359 109.074 243.62359 243.62358 z"/>
 <rect ry="35.22044" rx="41.740284" y="148.80927" x="118.05444" height="214.38147" width="275.89124" fill="#cd1d31"/>
 <path d="m 219.79433 200.91728 0 110.16557 91.90298 -55.08284 -91.90298 -55.08273 z" fill="#fff" stroke="#fff8eb" stroke-linejoin="round" stroke-linecap="round" stroke-width="31.12301"/>
 <path d="M 422.90625 78.53125 L 422.90625 82.53125 L 427.0625 82.53125 C 425.69253 81.1802 424.30776 79.84977 422.90625 78.53125 z M 422.90625 107.5625 L 422.90625 136.15625 L 463.6875 136.15625 L 463.6875 128.625 C 459.21004 121.34044 454.35215 114.31348 449.15625 107.5625 L 422.90625 107.5625 z M 422.90625 161.1875 L 422.90625 189.84375 L 463.6875 189.84375 L 463.6875 161.1875 L 422.90625 161.1875 z M 422.90625 214.875 L 422.90625 243.46875 L 463.6875 243.46875 L 463.6875 214.875 L 422.90625 214.875 z M 422.90625 268.5 L 422.90625 297.125 L 463.6875 297.125 L 463.6875 268.5 L 422.90625 268.5 z M 422.90625 322.15625 L 422.90625 350.78125 L 463.6875 350.78125 L 463.6875 322.15625 L 422.90625 322.15625 z M 422.90625 375.8125 L 422.90625 404.4375 L 449.15625 404.4375 C 454.35215 397.68652 459.21004 390.65956 463.6875 383.375 L 463.6875 375.8125 L 422.90625 375.8125 z M 422.90625 429.46875 L 422.90625 433.46875 C 424.30776 432.15023 425.69253 430.8198 427.0625 429.46875 L 422.90625 429.46875 z" fill="#fff8eb"/>
 <path d="M 89.09375 78.53125 C 87.69224 79.84977 86.30747 81.1802 84.9375 82.53125 L 89.09375 82.53125 L 89.09375 78.53125 z M 62.84375 107.5625 C 57.647847 114.31348 52.789963 121.34044 48.3125 128.625 L 48.3125 136.15625 L 89.09375 136.15625 L 89.09375 107.5625 L 62.84375 107.5625 z M 48.3125 161.1875 L 48.3125 189.84375 L 89.09375 189.84375 L 89.09375 161.1875 L 48.3125 161.1875 z M 48.3125 214.875 L 48.3125 243.46875 L 89.09375 243.46875 L 89.09375 214.875 L 48.3125 214.875 z M 48.3125 268.5 L 48.3125 297.125 L 89.09375 297.125 L 89.09375 268.5 L 48.3125 268.5 z M 48.3125 322.15625 L 48.3125 350.78125 L 89.09375 350.78125 L 89.09375 322.15625 L 48.3125 322.15625 z M 48.3125 375.8125 L 48.3125 383.375 C 52.789963 390.65956 57.647847 397.68652 62.84375 404.4375 L 89.09375 404.4375 L 89.09375 375.8125 L 48.3125 375.8125 z M 84.9375 429.46875 C 86.30747 430.8198 87.69224 432.15023 89.09375 433.46875 L 89.09375 429.46875 L 84.9375 429.46875 z" fill="#fff8eb"/>
 <path fill-rule="evenodd" fill="#2a282b" d="M 256 6 C 117.93704 6 6 117.93705 6 256 C 6 394.06296 117.93704 506 256 506 C 394.06295 506 506 394.06296 506 256 C 506 117.93705 394.06295 6 256 6 z M 256 28.6875 C 381.54642 28.6875 483.3125 130.45358 483.3125 256 C 483.3125 381.54643 381.54642 483.3125 256 483.3125 C 130.45357 483.3125 28.6875 381.54643 28.6875 256 C 28.6875 130.45358 130.45357 28.6875 256 28.6875 z"/>
</svg>
