<svg xmlns="http://www.w3.org/2000/svg" xmlns:xlink="http://www.w3.org/1999/xlink" width="512" height="512">
 <defs>
  <linearGradient id="0">
   <stop stop-color="#44afde"/>
   <stop stop-color="#0078ad" offset="1"/>
  </linearGradient>
  <radialGradient xlink:href="#0" id="1" gradientUnits="userSpaceOnUse" gradientTransform="matrix(0.69444444,0,0,0.69444444,115.12698,475.84132)" cx="202.85715" cy="-316.57144" r="360"/>
 </defs>
 <path d="M 506 256 C 506 394.07119 394.07119 506.00002 256 506.00002 117.92881 506.00002 6 394.07119 6 256 6 117.92882 117.92881 6.00001 256 6.00001 394.07119 6.00001 506 117.92882 506 256 z" fill="url(#1)" fill-rule="evenodd"/>
 <path d="m 274.42472 85.56935 -60.15414 5.971208 0 246.73375 59.49292 -8.62237 0 -105.45894 79.3244 116.73658 62.13731 -19.90049 L 333.91783 208.93826 415.88625 102.81477 352.42705 88.22062 273.76359 194.3441 274.42669 85.56935 z M 138.91291 145.92419 c -0.67245 0 -1.47634 0.37959 -1.98354 0.68422 l -23.13616 23.87732 c -0.98533 1.02635 -1.38548 2.77302 -0.66319 3.9811 l 27.10254 45.10362 c -4.86553 8.20878 -8.451 17.1961 -11.2378 26.5251 l -50.23868 10.61707 c -1.400691 0.37961 -2.642322 1.21532 -2.642322 2.65891 l 0 33.16494 c 0 1.40548 1.294351 2.96281 2.642322 3.30482 l 48.916624 11.93878 c 2.60454 10.81437 6.56002 21.0932 11.89846 30.50607 l -28.42423 43.12088 c -0.78851 1.21533 -0.37837 2.96294 0.66319 3.98084 l 23.13652 23.20904 c 0.98534 0.9502 2.76351 1.44345 3.96591 0.68424 l 44.28959 -27.19001 c 8.70837 5.04071 17.83712 9.24545 27.76365 11.93504 l 10.5763 49.74553 c 0.30344 1.44342 1.216 2.65896 2.64261 2.65896 l 33.05143 0 c 1.39303 0 2.97175 -1.29066 3.30479 -2.65896 l 11.89854 -49.74553 c 10.23204 -2.77302 20.16522 -7.32738 29.08561 -12.59971 l 43.62821 29.18401 c 1.20071 0.75921 2.94531 0.37959 3.96627 -0.68424 l 23.13599 -23.21643 c 0.99118 -1.02634 1.38943 -2.773 0.66317 -3.97708 l -15.86481 -26.52522 -5.28825 1.97513 c -0.75459 0.37961 -1.54067 0 -1.98354 -0.68425 0 0 -9.9984 -15.19801 -23.13624 -34.49451 -15.70578 30.84408 -47.71269 51.73986 -84.6122 51.73986 -52.42525 0 -95.18893 -42.24344 -95.18893 -94.84925 0 -38.69575 23.16413 -71.97869 56.18796 -86.88779 l 0 -24.54236 c -6.01071 2.12722 -11.66824 4.27728 -17.18724 7.30079 0 0 -0.64673 0 -0.6631 0 l -44.28914 -29.18788 c -0.60219 -0.38077 -1.30965 -0.72172 -1.98381 -0.64556 z" fill="#fff8eb"/>
</svg>
