<svg xmlns="http://www.w3.org/2000/svg" xmlns:xlink="http://www.w3.org/1999/xlink" width="512" height="512">
 <defs>
  <linearGradient gradientTransform="scale(1.0058652,0.994169)" gradientUnits="userSpaceOnUse" id="0" y2="7.01654" x2="0" y1="92.5396">
   <stop/>
   <stop offset="1" stop-opacity="0.588235"/>
  </linearGradient>
  <filter color-interpolation-filters="sRGB">
   <feGaussianBlur stdDeviation="1.71"/>
  </filter>
  <linearGradient gradientUnits="userSpaceOnUse" xlink:href="#1" y2="138.66119" x2="0" y1="20.220806"/>
  <linearGradient id="1">
   <stop stop-color="#fff"/>
   <stop offset="1" stop-color="#fff" stop-opacity="0"/>
  </linearGradient>
  <clipPath>
   <rect y="6" x="6" rx="6" height="84" width="84" fill="#fff"/>
  </clipPath>
  <filter color-interpolation-filters="sRGB" height="1.384" width="1.384" y="-0.192" x="-0.192">
   <feGaussianBlur stdDeviation="5.28"/>
  </filter>
  <linearGradient xlink:href="#0" gradientUnits="userSpaceOnUse" gradientTransform="scale(1.0058652,0.994169)" y1="92.5396" x2="0" y2="7.01654"/>
  <linearGradient gradientUnits="userSpaceOnUse" xlink:href="#1" y2="138.66119" x2="0" y1="20.220806"/>
  <clipPath>
   <rect y="6" x="6" rx="6" height="84" width="84" fill="#fff"/>
  </clipPath>
  <linearGradient xlink:href="#0" gradientUnits="userSpaceOnUse" gradientTransform="scale(1.0058652,0.994169)" y1="92.5396" x2="0" y2="7.01654"/>
  <linearGradient gradientUnits="userSpaceOnUse" xlink:href="#1" y2="138.66119" x2="0" y1="20.220806"/>
  <clipPath>
   <rect y="6" x="6" rx="6" height="84" width="84" fill="#fff"/>
  </clipPath>
  <linearGradient xlink:href="#0" gradientUnits="userSpaceOnUse" gradientTransform="scale(1.0058652,0.994169)" y1="92.5396" x2="0" y2="7.01654"/>
  <linearGradient gradientUnits="userSpaceOnUse" xlink:href="#1" y2="138.66119" x2="0" y1="20.220806"/>
  <clipPath>
   <rect y="6" x="6" rx="6" height="84" width="84" fill="#fff"/>
  </clipPath>
  <linearGradient xlink:href="#0" gradientUnits="userSpaceOnUse" gradientTransform="scale(1.0058652,0.994169)" y1="92.5396" x2="0" y2="7.01654"/>
  <linearGradient gradientUnits="userSpaceOnUse" xlink:href="#1" y2="138.66119" x2="0" y1="20.220806"/>
  <clipPath>
   <rect y="6" x="6" rx="6" height="84" width="84" fill="#fff"/>
  </clipPath>
  <linearGradient xlink:href="#0" gradientUnits="userSpaceOnUse" gradientTransform="scale(1.0058652,0.994169)" y1="92.5396" x2="0" y2="7.01654"/>
  <path id="2" d="m 562.85715 -316.57144 c 0 198.82251 -161.17749 360 -360 360 -198.82251 0 -360 -161.17749 -360 -360 0 -198.82251 161.17749 -360 360 -360 198.82251 0 360 161.17749 360 360 z" fill-rule="evenodd"/>
 </defs>
 <g transform="translate(0,-540.36218)">
  <use transform="matrix(0.69444444,0,0,0.69444444,115.12698,1016.2035)" fill="#fff8eb" xlink:href="#2"/>
  <g opacity="0.6">
   <g transform="matrix(0.29999998,0,0,0.29999998,179.2,557.45355)">
    <path d="m -35.929825 150.90526 c 0 115.09226 -93.30071 208.39297 -208.39298 208.39297 -115.09226 0 -208.39297 -93.30071 -208.39297 -208.39297 0 -115.09226 93.30071 -208.39298 208.39297 -208.39298 115.09226 0 208.39298 93.30071 208.39298 208.39298 z" transform="matrix(1.1996566,0,0,1.1996566,549.10346,615.32768)" fill="#0078ad" fill-rule="evenodd"/>
    <text y="1089.8812" x="-1160.4812" font-family="Gentium Book Basic" word-spacing="0" line-height="125%" letter-spacing="0" font-size="208.33333"><tspan y="1089.8812" x="-1160.4812"/>
    </text>
    <text font-size="75.69771" y="3810.6255" x="28.533577" transform="scale(4.0128362,0.2492003)" font-family="Arial" text-anchor="middle"/>
    <path d="m 358.94709 641.55291 c -9.25601 0 -27.39884 21.30499 -34.13419 24.67234 -6.73534 3.36797 -59.61373 41.31592 -64.66517 48.0519 -5.05133 6.73473 -12.01293 9.5554 -19.30878 8.99427 -7.29585 -0.5604 -30.31994 -0.88704 -38.17748 3.60321 -7.85875 4.49083 -43.77487 41.30565 -52.75534 45.79647 -8.97985 4.48905 -20.6545 6.83721 -26.26764 7.39895 -5.61194 0.56013 -24.379328 21.4577 -29.430764 25.38747 -3.337337 2.59636 -21.45301 10.70669 -35.26191 16.99833 1.61004 13.16679 4.393909 25.97278 8.224111 38.31501 10.62096 10.76985 24.03362 18.63144 27.0096 19.12699 4.653017 0.77663 -1.999031 14.86105 -9.186102 22.46116 8.500259 15.26362 18.751029 29.41148 30.503479 42.16576 16.29691 14.31358 35.93512 26.87515 50.38987 34.93186 45.69834 25.47117 141.68785 16.3735 140.49752 11.90979 -0.26077 -2.778 -3.44766 -6.0195 -3.13562 -11.00215 0.56042 -8.98113 1.13264 -20.67638 2.25545 -30.77852 1.1235 -10.10268 4.71459 -94.96999 19.30878 -117.4205 14.59229 -22.44929 56.56275 -49.28901 71.15644 -52.0952 14.59419 -2.80622 11.68979 -8.64691 11.68979 -13.69769 0 -5.05075 -2.369 -16.05696 -6.29873 -17.74097 -3.92853 -1.68336 -18.96078 8.31208 -24.0122 9.43435 -5.05133 1.1223 -29.41781 2.91695 -32.78643 -2.69553 -3.36732 -5.61373 27.28949 -63.10084 31.21862 -69.83618 3.92981 -6.73601 5.72923 -15.37955 -1.56781 -24.91988 -7.29395 -9.54347 -12.45917 -19.06124 -15.26549 -19.06124 z M 240.37135 746.56848 c 1.08383 -0.007 2.08617 0.0103 2.94309 0.055 2.28509 0.12026 3.79573 0.44009 3.79573 0.44009 2.56755 5.98611 -9.53591 24.82844 -20.65654 27.39536 -11.11812 2.56504 -36.85574 40.43248 -37.70988 31.87875 -0.85745 -8.55366 10.3011 -36.78952 23.13202 -49.61971 8.4198 -8.42024 20.90885 -10.09864 28.49558 -10.1495 z" color="#000" fill="#fff"/>
    <path d="m 256 576.31907 c -121.52646 0 -220.04311 98.51664 -220.04311 220.0431 0 121.52646 98.51665 220.04313 220.04311 220.04313 121.52646 0 220.04311 -98.51667 220.04311 -220.04313 0 -121.52646 -98.51665 -220.0431 -220.04311 -220.0431 z m 0 21.34417 c 109.74148 0 198.69893 88.95745 198.69893 198.69893 0 109.74148 -88.95745 198.69893 -198.69893 198.69893 -109.74148 0 -198.69893 -88.95745 -198.69893 -198.69893 0 -109.74148 88.95745 -198.69893 198.69893 -198.69893 z" fill="#fff" fill-rule="evenodd"/>
   </g>
   <g transform="matrix(0.29999998,0,0,0.29999998,41.819264,648.36726)">
    <use transform="matrix(0.69444444,0,0,0.69444444,115.12698,1016.2035)" fill="#0078ad" xlink:href="#2"/>
    <use transform="matrix(0.60277777,0,0,0.60277777,133.72222,987.18445)" opacity="0.3" fill="#62c0dc" xlink:href="#2"/>
    <path d="m 268.4375 152.59375 a 7.50075 7.50075 0 0 0 -7.125 6.15625 L 236.46875 298.9375 228.5625 226.53125 A 7.50075 7.50075 0 0 0 214.21875 224.375 l -19.78125 45.59375 -48.0625 0 0 15 52.96875 0 a 7.50075 7.50075 0 0 0 6.875 -4.53125 l 10.5 -24.15625 10.53125 96.4375 a 7.50075 7.50075 0 0 0 14.84375 0.5 l 24.75 -139.625 12.09375 114.1875 a 7.50075 7.50075 0 0 0 13.75 3.28125 l 27.6875 -43.03125 42.375 0 0 -15 -46.4375 0 A 7.50075 7.50075 0 0 0 310 276.46875 l -18.40625 28.5625 -15.4375 -145.75 a 7.50075 7.50075 0 0 0 -7.71875 -6.6875 z" transform="translate(0,540.36218)" color="#000" fill="#ffd459"/>
    <path d="m 255.96875,34.09375 c -1.32976,0 -2.62597,0.06396 -3.9375,0.125 -1.29959,0.0606 -2.60998,0.15119 -3.90625,0.25 -0.254,0.0194 -0.52703,0.01105 -0.78125,0.03125 -0.0605,0.002 -0.12724,-0.006 -0.1875,0 -0.0236,0.002 -0.0383,-0.002 -0.0625,0 -0.25961,0.007 -0.52294,0.0067 -0.78125,0.03125 -0.17184,0.0154 -0.35957,0.0463 -0.53125,0.0625 -0.89187,0.0887 -1.76947,0.23222 -2.65625,0.34375 -67.17553,8.0462 -120.36393,78.26162 -124.5625,165.65625 l 0,12.6875 -1.78125,0 -1.125,0 0,0.0625 c -26.946202,0.87571 -48.46875,33.4317 -48.46875,73.78125 0,40.34954 21.522548,72.87427 48.46875,73.75 l 0,0.0625 1.125,0 16.78125,0 0,-145 0.0625,0 0,-15.34375 c 0.14267,-2.63591 0.40738,-5.24537 0.65625,-7.84375 0.17656,-3.12649 0.4088,-6.2071 0.71875,-9.28125 l 9.4375,0 c 0.13005,-2.36444 0.36691,-4.73172 0.59375,-7.0625 3.09709,-53.96966 29.04024,-99.66775 65.3125,-120.875 0.13445,-0.0715 0.27157,-0.14784 0.40625,-0.21875 10.61765,-5.59029 21.96809,-9.29942 33.8125,-10.75 0.78622,-0.10114 1.58428,-0.20089 2.375,-0.28125 0.15221,-0.0148 0.31639,-0.01735 0.46875,-0.03125 0.30523,-0.0294 0.63164,-0.06745 0.9375,-0.09375 2.53638,-0.20739 5.04893,-0.3125 7.625,-0.3125 0.9618,0 1.91879,8.5e-4 2.875,0.03125 0.0552,0.002 0.13234,-0.002 0.1875,0 0.90055,0.0306 1.82339,0.09875 2.71875,0.15625 0.0972,0.007 0.184,-0.007 0.28125,0 0.54525,0.0368 1.08176,0.0784 1.625,0.125 0.45707,0.0374 0.95056,0.08125 1.40625,0.125 0.7885,0.0801 1.52847,0.18045 2.3125,0.28125 11.74701,1.43325 23.01908,5.05528 33.5625,10.5625 36.46937,20.91346 62.63267,66.49966 65.96875,120.46875 l 0.0625,0 c 0.25734,2.59628 0.41731,5.20579 0.5625,7.84375 l 9.46875,0 c 0.28,2.7754 0.51606,5.58799 0.6875,8.40625 l 0.0312,0 c 0.28234,2.89435 0.49697,5.80916 0.65625,8.75 l 0,15.34375 0.0312,0 0,145 16.8125,0 1.125,0 0,-0.0625 c 26.9462,-0.87573 48.4375,-33.40046 48.4375,-73.75 0,-40.34955 -21.4913,-72.90554 -48.4375,-73.78125 l 0,-0.0625 -1.125,0 -1.8125,0 0,-12.6875 0.0625,0 C 389.26648,113.17911 336.04599,42.95671 268.84375,34.9375 c -0.88431,-0.1112 -1.73564,-0.25535 -2.625,-0.34375 -0.51399,-0.0485 -1.04697,-0.05251 -1.5625,-0.09375 -0.61274,-0.0515 -1.22875,-0.1469 -1.84375,-0.1875 -0.0877,-0.006 -0.18925,2.2e-4 -0.28125,0 -0.0238,-0.002 -0.0387,0.002 -0.0625,0 -0.0849,-0.007 -0.19564,-0.02585 -0.28125,-0.03125 -0.1,-0.007 -0.18128,0.007 -0.28125,0 -0.88423,-0.0547 -1.76645,-0.09486 -2.65625,-0.125 -0.0958,-0.004 -0.2163,0.004 -0.3125,0 -0.98307,-0.0305 -1.97995,-0.0625 -2.96875,-0.0625 z M 140.875,213.3125 l 0,147.65625 11.15625,0 c 0.0377,8.5e-4 0.0871,0 0.125,0 3.05883,0 5.46875,-2.76407 5.46875,-6.21875 l 0,-135.1875 c 0,-3.45468 -2.40992,-6.25 -5.46875,-6.25 -0.0382,0 -0.0869,-8.6e-4 -0.125,0 l -0.46875,0 -10.6875,0 z m 218.96875,0 c -3.05883,0 -5.5,2.79532 -5.5,6.25 l 0,135.1875 c 0,3.45468 2.44117,6.21875 5.5,6.21875 0.0379,0 0.0873,8.5e-4 0.125,0 l 11.15625,0 0,-147.65625 -10.71875,0 -0.4375,0 c -0.0381,-8.6e-4 -0.0867,0 -0.125,0 z" transform="translate(0,540.36218)" fill="#fff8eb" fill-rule="evenodd"/>
   </g>
   <g transform="matrix(0.29999998,0,0,0.29999998,179.20001,716.77267)">
    <path d="m 171.19523 546.36217 c -2.97837 0.87749 -5.96431 1.80524 -8.90037 2.77188 2.936 -0.96683 5.92206 -1.89422 8.90037 -2.77188 z m 169.60954 0 c 2.97831 0.87766 5.96437 1.80505 8.90037 2.77188 -2.93606 -0.96664 -5.922 -1.89439 -8.90037 -2.77188 z m -182.88832 4.24338 c -2.91425 1.0106 -5.81572 2.08528 -8.68504 3.18253 2.86925 -1.09746 5.77085 -2.17173 8.68504 -3.18253 z m 196.1671 0 c 2.91419 1.0108 5.81579 2.08507 8.68504 3.18253 -2.86932 -1.09725 -5.77079 -2.17193 -8.68504 -3.18253 z m -225.91875 12.1826 c -4.12408 1.9599 -8.19383 4.01892 -12.20212 6.15974 4.00818 -2.14115 8.07815 -4.19951 12.20212 -6.15974 z m -12.20212 6.15974 c -2.67221 1.42721 -5.31281 2.90895 -7.93139 4.41448 2.61849 -1.50574 5.25925 -2.98705 7.93139 -4.41448 z m -7.93139 4.41448 c -2.60995 1.50058 -5.19699 3.04308 -7.75193 4.61981 2.56312 -1.5824 5.13345 -3.11406 7.75193 -4.61981 z M 383.8352 562.78815 c 4.12397 1.96023 8.19394 4.01859 12.20212 6.15974 -4.00829 -2.14082 -8.07804 -4.19984 -12.20212 -6.15974 z m 12.20212 6.15974 c 2.67214 1.42743 5.3129 2.90874 7.93139 4.41448 -2.61858 -1.50553 -5.25918 -2.98727 -7.93139 -4.41448 z m 7.93139 4.41448 c 2.61848 1.50575 5.18881 3.03741 7.75193 4.61981 -2.55494 -1.57673 -5.14198 -3.11923 -7.75193 -4.61981 z M 256 569.59809 c -91.41297 0 -171.34261 46.82997 -214.93684 116.65867 C 18.815906 721.89215 6 763.49768 6 807.98011 c 0 131.64726 111.93666 238.38209 250 238.38209 138.06334 0 250 -106.73483 250 -238.38209 0 -44.48243 -12.81592 -86.08796 -35.06316 -121.72335 C 427.34259 616.42806 347.41297 569.59809 256 569.59809 z M 92.67097 582.84153 c -3.75911 2.48575 -7.46386 5.04992 -11.08957 7.69968 3.62561 -2.65008 7.33056 -5.21361 11.08957 -7.69968 z m -11.08957 7.69968 c -2.41715 1.7665 -4.82205 3.56956 -7.17773 5.40689 2.35562 -1.83754 4.76065 -3.64017 7.17773 -5.40689 z m -7.17773 5.40689 c -3.53351 2.75598 -6.981489 5.61034 -10.371801 8.52097 3.390225 -2.9109 6.838391 -5.76468 10.371801 -8.52097 z m -10.371801 8.52097 c -2.260208 1.94041 -4.480892 3.91314 -6.67528 5.9202 2.194334 -2.00723 4.415131 -3.9796 6.67528 -5.9202 z m -6.67528 5.9202 c -1.103289 1.0091 -2.179542 2.02001 -3.265863 3.04565 1.080386 -1.01997 2.168696 -2.04203 3.265863 -3.04565 z M 419.32903 582.84153 c 3.75901 2.48607 7.46396 5.0496 11.08957 7.69968 -3.62571 -2.64976 -7.33046 -5.21393 -11.08957 -7.69968 z m 11.08957 7.69968 c 2.41708 1.76672 4.82211 3.56935 7.17773 5.40689 -2.35568 -1.83733 -4.76058 -3.64039 -7.17773 -5.40689 z m 7.17773 5.40689 c 3.53341 2.75629 6.98157 5.61007 10.3718 8.52097 -3.39031 -2.91063 -6.8383 -5.76499 -10.3718 -8.52097 z m 10.3718 8.52097 c 2.26016 1.9406 4.48094 3.91297 6.67528 5.9202 -2.19438 -2.00706 -4.41507 -3.97979 -6.67528 -5.9202 z m 6.67528 5.9202 c 1.09717 1.00362 2.18547 2.02568 3.26586 3.04565 -1.08631 -1.02564 -2.16257 -2.03655 -3.26586 -3.04565 z" fill="#f38725" fill-rule="evenodd"/>
    <text y="1089.8812" x="-1160.4812" font-family="Gentium Book Basic" word-spacing="0" line-height="125%" letter-spacing="0" font-size="208.33333"><tspan y="1089.8812" x="-1160.4812"/>
    </text>
    <text font-size="75.69771" y="3810.6255" x="28.533577" transform="scale(4.0128362,0.2492003)" font-family="Arial" text-anchor="middle"/>
    <path d="m 396.28285 661.18458 c -1.15344 -1.1388 -2.31981 -2.26296 -3.49996 -3.37333 1.1612 1.12157 2.32929 2.24573 3.49996 3.37333 z" fill="#282629"/>
    <path d="m 55.47998 774.06453 c 0 0 -0.59352 0.72618 -1.486815 1.93648 -0.127491 0.66071 -0.259288 1.32056 -0.379887 1.98299 0.561647 -1.56434 1.18101 -2.89007 1.866702 -3.91947 z" fill="#282629"/>
    <path d="m 171.0625,102.1875 c -19.983,19.29423 -24.8522,51.83872 -25.875,71.53125 0.28214,-0.3309 0.54916,-0.6306 0.84375,-0.96875 6.76024,-7.77577 16.63019,-17.44648 29.3125,-25.0625 4.37542,-2.62547 9.11901,-5.01237 14.15625,-6.96875 -19.97158,-16.63347 -18.4375,-38.53125 -18.4375,-38.53125 z m 145.25,17.125 c -35.44272,-0.2849 -59.15625,31.65625 -59.15625,31.65625 -0.10887,-0.0674 -0.20256,-0.15236 -0.3125,-0.21875 -2.79559,3.09848 -12.27348,14.16616 -13.15625,23 0,0 0.31139,-15.8694 4.28125,-26.96875 -15.04016,-4.79242 -32.73383,-2.2567 -41.8125,-0.375 l 0.0625,0.3125 c -9.30271,1.66905 -17.79515,5.24388 -25.34375,9.75 -7.54549,4.50304 -14.12266,9.93242 -19.53125,15.1875 -10.80476,10.48736 -16.93673,20.29734 -17,20.40625 l -0.25,-0.1875 c -19.09192,27.66992 -31.125,86.65625 -31.125,86.65625 2.07464,-9.33589 11.40625,-20.71875 11.40625,-20.71875 -10.37322,15.55984 -8.28125,87.125 -8.28125,87.125 0,-11.41053 6.21875,-24.90625 6.21875,-24.90625 1.8808,21.62915 10.56004,86.74069 62.40625,142 17.44802,4.1636 35.69941,6.375 54.5,6.375 17.91874,0 35.36478,-2.04596 52.0625,-5.84375 2.09535,2.2931 4.53393,4.49347 5.0625,4.875 5.08889,3.67316 93.79639,-38.04297 89.21875,-42.4375 l -10.9375,-0.0937 -0.5,0 c -23.05407,-0.26057 -33.96875,-10.46875 -33.96875,-10.46875 3.11197,-3.11196 17.625,0 17.625,0 0,-3.11196 -16.59033,-8.30036 -33.1875,-10.375 -13.49349,-1.68673 -20.02562,-7.95017 -23.15625,-12.96875 -6.22292,-4.18249 -11.45148,-8.78706 -15.78125,-13.65625 -4.96256,-5.57976 -8.76809,-11.51479 -11.59375,-17.53125 -5.65549,-12.04437 -7.43646,-24.37486 -7.4375,-35.28125 0.003,-10.29855 1.58692,-19.34195 3.1875,-25.875 1.60267,-6.531 3.23989,-10.57055 3.3125,-10.75 l 0.1875,0.0937 c 1.94809,-5.99469 5.78561,-10.81655 10.3125,-12.78125 -1.4201,-0.96885 -2.86984,-1.86167 -4.375,-2.65625 -6.77374,-3.62233 -14.45346,-5.12704 -22,-3.875 -7.56312,1.19812 -14.81447,4.95601 -21.25,9.875 -6.1752,4.71153 -11.08849,11.4081 -14.3125,18.8125 -3.24681,7.42931 -4.87604,15.6345 -4.875,23.875 -0.007,8.24672 1.60315,16.541 4.59375,24.34375 2.9823,7.81313 7.32922,15.11424 12.5625,21.75 5.23435,6.64612 11.38304,12.61707 18.03125,17.9375 -6.93347,-4.94388 -13.44565,-10.59258 -19.125,-17.03125 -5.67622,-6.4283 -10.51796,-13.6655 -14.0625,-21.59375 -3.54973,-7.91478 -5.7989,-16.49409 -6.28125,-25.28125 -0.48858,-8.77783 0.78911,-17.74551 3.90625,-26.125 3.12339,-8.36394 8.05876,-16.18787 15.125,-22.25 3.41383,-2.85887 7.12209,-5.44442 11.15625,-7.59375 4.02896,-2.15036 8.42137,-3.83729 13.03125,-4.78125 4.60363,-0.94604 9.45302,-1.12434 14.15625,-0.46875 4.7084,0.64106 9.2458,2.0886 13.46875,4.09375 4.23021,2.0062 8.10977,4.54025 11.6875,7.4375 1.78834,1.45123 3.52558,2.99537 5.15625,4.625 0.81637,0.81431 1.597,1.66404 2.375,2.53125 0.6473,0.72818 1.25897,1.39822 1.90625,2.21875 3.69598,-9.58176 1.10683,-25.57554 0.5,-28.9375 -1.9564,-2.76966 -4.71623,-6.26256 -7.84375,-11.25 -2.35786,-3.76342 -4.92135,-8.40689 -7.53125,-14.28125 -4.08289,-9.18446 -5.50105,-18.42978 -5.5,-26.78125 0.004,-9.75189 1.8954,-18.31547 3.78125,-24.5 0.58298,-1.9066 1.18869,-3.58199 1.71875,-5 5.86193,-25.49844 33.9375,-50.59375 33.9375,-50.59375 -2.46365,-0.32415 -4.88716,-0.481 -7.25,-0.5 z m -19.21875,61.75 c -1.38794,5.17003 -2.5656,11.70904 -2.5625,18.84375 8.1e-4,7.20213 1.17565,14.97357 4.5625,22.59375 2.7178,6.1119 5.29205,10.588 7.625,14.1875 1.64,2.529 3.16328,4.61543 4.59375,6.5625 2.92007,-2.68771 6.33356,-5.38905 9.125,-7.25 6.22394,-4.1493 30.07554,-15.54429 33.1875,-18.65625 3.11198,-3.11197 9.34287,-19.71964 4.15625,-24.90625 -5.18661,-5.18662 -38.37678,-2.08161 -48.75,-4.15625 -4.37129,-0.87446 -8.55582,-3.94288 -11.9375,-7.21875 z m 6.84375,101.375 -0.125,0.125 c 0.0322,0.0819 0.0312,0.125 0.0312,0.125 0.0404,-0.0798 0.0543,-0.16908 0.0937,-0.25 z m -26.25,31.03125 c -0.41597,3.48126 -0.71978,7.22272 -0.71875,11.15625 -8e-4,7.32763 0.93341,15.22138 3.4375,23.0625 2.50723,7.84529 6.58104,15.65213 13,22.875 4.28311,4.81527 9.63836,9.37365 16.3125,13.53125 l -0.40625,0.59375 c 12.53605,0.22717 32.94332,0.009 43.28125,-3.4375 15.55985,-5.1866 40.46875,-24.90625 40.46875,-24.90625 6.22393,-6.22395 13.46356,-3.09375 19.6875,-3.09375 6.22393,0 8.29857,-9.3516 0,-18.6875 -8.2986,-9.33592 -37.34122,-18.67877 -59.125,-4.15625 -21.78379,14.52252 -52.89068,3.12233 -71.5625,-12.4375 -1.69706,-1.41388 -3.13853,-2.92429 -4.375,-4.5 z" transform="translate(0,540.36217)" fill="#fff8eb"/>
    <path d="m 256 46.59375 c -84.76441 0 -158.88893 43.40626 -199.3125 108.15625 -20.629193 33.0436 -32.5 71.62782 -32.5 112.875 0 122.07243 103.79064 221.03125 231.8125 221.03125 128.02186 0 231.8125 -98.95882 231.8125 -221.03125 0 -41.24718 -11.87082 -79.8314 -32.5 -112.875 C 414.88891 90.00001 340.76441 46.59375 256 46.59375 z m 0 21.8125 c 76.09465 0 142.64844 38.96644 178.9375 97.09375 18.51919 29.66387 29.1875 64.31536 29.1875 101.34375 0 109.58677 -93.1973 198.4375 -208.125 198.4375 -114.9277 0 -208.125 -88.85073 -208.125 -198.4375 C 47.875 229.81536 58.54327 195.16387 77.0625 165.5 113.35153 107.37269 179.90535 68.40625 256 68.40625 z" transform="translate(0,540.36217)" fill="#fff8eb" fill-rule="evenodd"/>
   </g>
   <g transform="matrix(0.29999998,0,0,0.29999998,324.66198,642.30636)">
    <path d="m -214.28571 94.85714 c 0 40.23789 -32.61925 72.85715 -72.85714 72.85715 -40.23789 0 -72.85715 -32.61926 -72.85715 -72.85715 0 -40.23789 32.61926 -72.857148 72.85715 -72.857148 40.23789 0 72.85714 32.619256 72.85714 72.857148 z" transform="matrix(3.4313723,0,0,3.4313723,1241.294,470.87201)" fill="#f00" fill-rule="evenodd"/>
    <path d="m -214.28571 94.85714 c 0 40.23789 -32.61925 72.85715 -72.85714 72.85715 -40.23789 0 -72.85715 -32.61926 -72.85715 -72.85715 0 -40.23789 32.61926 -72.857148 72.85715 -72.857148 40.23789 0 72.85714 32.619256 72.85714 72.857148 z" transform="matrix(3.4313723,0,0,3.4313723,1241.294,470.87201)" fill="#fff8eb" fill-rule="evenodd"/>
    <text y="1087.7404" x="-1113.422" font-family="Gentium Book Basic" word-spacing="0" line-height="125%" letter-spacing="0" font-size="200"><tspan y="1087.7404" x="-1113.422"/>
    </text>
    <text font-size="72.6698" y="3824.5505" x="27.551723" transform="scale(4.0128361,0.24920031)" font-family="Arial" text-anchor="middle"/>
    <path d="m 256.54565 546.36219 c -80.76616 0 -152.55383 38.16439 -198.31013 97.39605 l 84.89705 146.71258 c 0.24727 0.42762 0.61934 0.70344 1.04167 0.87891 2.40882 -59.84166 51.7826 -107.58489 112.37141 -107.58489 223.95357 1.38951 0.35242 -0.48125 224.02664 0.81381 C 439.54098 602.62706 354.63027 546.36219 256.54565 546.36219 z" fill="#cd1d31" fill-rule="evenodd"/>
    <path d="M 49.18591 656.16063 C -2.331854 731.99332 -9.913373 833.38237 38.1506 918.66123 77.72806 988.88266 146.25575 1032.6112 220.44487 1043.3685 L 307.0672 897.66508 c 0.25256 -0.42458 0.31029 -0.88233 0.26042 -1.33463 C 253.84658 923.5599 187.89461 903.98913 158.2044 851.3108 49.675867 655.91542 157.66007 851.2666 49.18591 656.16063 z" fill="#8db173" fill-rule="evenodd"/>
    <path d="m 256.54565,701.27791 c -52.40737,0 -94.89068,42.42319 -94.89068,94.69423 1.2e-4,52.27101 42.48331,94.62912 94.89068,94.62912 52.40736,0 94.89068,-42.35811 94.89068,-94.62912 0,-52.27104 -42.48332,-94.69423 -94.89068,-94.69423 z" fill="#62c0dc" fill-rule="evenodd"/>
    <path d="m 317.19105,701.50578 c -0.49503,-1.2e-4 -0.90598,0.17876 -1.26955,0.45572 50.75501,32.00161 67.50191,98.54427 37.20756,150.87926 -113.18336,192.75034 0.23208,0.51068 -112.72948,193.06674 91.67291,5.5342 183.02476,-39.6589 232.06712,-124.38168 40.38309,-69.76366 43.10276,-150.88114 14.55099,-220.02004 l -169.82664,0 z" fill="#ffd459" fill-rule="evenodd"/>
   </g>
   <g transform="matrix(0.29999998,0,0,0.29999998,38.788796,490.78347)">
    <path d="m 256 546.36216 c -91.41816 0 -171.34469 49.09463 -214.94141 122.33072 -22.248524 37.37426 -35.05859 81.01624 -35.05859 127.66926 0 138.07117 111.92881 250.00006 250 250.00006 138.07119 0 250 -111.92889 250 -250.00006 0 -46.65302 -12.81007 -90.295 -35.05859 -127.66926 C 427.34469 595.45679 347.41816 546.36216 256 546.36216 z" fill="#282629" fill-rule="evenodd"/>
    <text y="1089.8812" x="-1160.4812" font-family="Gentium Book Basic" word-spacing="0" line-height="125%" letter-spacing="0" font-size="208.33333"><tspan y="1089.8812" x="-1160.4812"/>
    </text>
    <text font-size="75.69771" y="3810.6255" x="28.533577" transform="scale(4.0128362,0.2492003)" font-family="Arial" text-anchor="middle"/>
    <path d="m 255.98437 546.37778 c -4.88368 0 -9.71695 0.12984 -14.53125 0.40625 l 264.125 264.125 c 0.27648 -4.81623 0.40625 -9.64576 0.40625 -14.53125 0 -2.1186 -0.01 -4.23787 -0.0625 -6.34375 L 262.32812 546.44028 c -2.10381 -0.0523 -4.2273 -0.0625 -6.34375 -0.0625 z m 29.15625 1.6875 219.1875 219.15625 c -1.00838 -8.66353 -2.47154 -17.19326 -4.34375 -25.5625 L 310.70312 552.37778 c -8.36748 -1.86888 -16.90134 -3.30622 -25.5625 -4.3125 z m -63.03125 0.59375 c -6.10659 0.82791 -12.13573 1.86415 -18.09375 3.125 l 296.5625 296.5625 c 1.2604 -5.95938 2.29747 -11.98597 3.125 -18.09375 L 222.10937 548.65903 z m -35.0625 7.34375 c -5.42655 1.55483 -10.76269 3.31291 -16.03125 5.21875 l 320.15625 320.125 c 1.90078 -5.25883 3.63621 -10.58393 5.1875 -16 L 187.04687 556.00278 z m 153.53125 5.0625 150.6875 150.6875 c -4.95358 -13.75115 -11.07731 -26.95288 -18.25 -39.46875 l -0.0312 -0.0625 -92.96875 -92.9375 c -12.5083 -7.16601 -25.692 -13.27379 -39.4375 -18.21875 z m -184.71875 6.1875 c -4.87194 2.13378 -9.67123 4.41407 -14.375 6.84375 l 336.78125 336.78125 c 2.42374 -4.6955 4.7147 -9.4808 6.84375 -14.34375 l -329.25 -329.28125 z m -27.99999 14.4375 c -4.40045 2.63352 -8.7179 5.39017 -12.9375 8.28125 l 347.46874 347.46875 c 2.88894 -4.21894 5.6497 -8.53786 8.28125 -12.9375 L 127.85938 581.69028 z m -25.1875 17.25 c -3.964745 3.08493 -7.824845 6.28038 -11.593755 9.59375 L 443.82812 961.31528 c 3.32252 -3.78032 6.53231 -7.64765 9.625 -11.625 l -350.78124 -350.75 z m -22.593755 19.84375 c -3.546886 3.51505 -6.980063 7.15407 -10.3125 10.875 L 422.73437 982.62778 c 3.72733 -3.33932 7.35443 -6.78907 10.875 -10.34375 l -353.53125 -353.5 z m -20.03125 22.375 c -3.136648 3.95545 -6.165309 8.01186 -9.0625 12.15625 L 399.07812 1001.3778 c 4.14117 -2.89565 8.17266 -5.92759 12.125 -9.06252 L 60.04688 641.15903 z m -17.4375 24.96875 c -0.521291 0.85229 -1.051164 1.70353 -1.5625 2.5625 -2.140586 3.59587 -4.193408 7.25974 -6.15625 10.96875 L 372.73437 1017.4715 c 4.58855 -2.4277 9.11759 -4.9568 13.53125 -7.6562 L 42.609375 666.12778 z m -14.65625 27.78125 c -2.2186 4.92577 -4.284573 9.94246 -6.1875 15.03125 L 343.45312 1030.6278 c 5.0899 -1.901 10.10471 -3.9704 15.03125 -6.1875 L 27.953125 693.90903 z m -11.53125 30.90625 c -1.650034 5.52235 -3.135184 11.10584 -4.40625 16.78125 L 310.73437 1040.3466 c 5.68622 -1.2702 11.27974 -2.756 16.8125 -4.4063 L 16.421875 724.81528 z m -7.71875 34.71875 c -0.930564 6.28765 -1.641472 12.66207 -2.09375 19.09375 L 273.67187 1045.7216 c 6.46589 -0.4517 12.86647 -1.1284 19.1875 -2.0625 L 8.703125 759.53403 z m -2.6875 39.71875 c 0.085652 7.57098 0.505527 15.07369 1.25 22.46875 L 230.64062 1045.0966 c 7.39506 0.7444 14.89777 1.1643 22.46875 1.25 L 6.01563 799.25278 z m 5.0625 47.5 c 2.023827 9.8902 4.658247 19.57288 7.8125 29 L 176.60937 1033.4716 c 9.43481 3.1579 19.10128 5.7869 29 7.8125 L 11.07813 846.75278 z m 23.6875 66.09375 c 23.53534 44.61207 60.13717 81.24716 104.74999 104.78127 L 34.765625 912.84653 z" fill="#fff8eb" fill-rule="evenodd" fill-opacity="0.076023"/>
    <path d="m 295.18113 628.03626 c -46.56258 18.64551 -69.1937 71.50674 -50.54821 118.06927 18.64549 46.56254 71.50674 69.19363 118.06932 50.54812 46.56243 -18.64545 69.19356 -71.50668 50.54807 -118.06922 -18.64549 -46.56254 -71.50674 -69.19362 -118.06918 -50.54817 z m 14.81823 37.00487 c 26.11277 -10.45659 55.74491 2.26643 66.20156 28.37935 10.45665 26.11292 -2.22198 55.72712 -28.33476 66.18371 -26.11292 10.45665 -55.77171 -2.20396 -66.22837 -28.31688 -10.45665 -26.11292 2.24864 -55.78952 28.36157 -66.24618 z" fill="#d1c4b1" fill-rule="evenodd"/>
    <path d="m 213.62803 849.67528 c -33.42958 13.38654 -49.68722 51.36062 -36.30071 84.79014 13.38651 33.42952 51.34278 49.64246 84.77236 36.25592 33.42944 -13.38647 49.70479 -51.31591 36.31828 -84.74543 -13.38651 -33.42952 -51.3605 -49.6871 -84.78993 -36.30063 z m 5.30242 13.24151 c 26.11278 -10.4566 55.78943 2.24859 66.24608 28.36152 10.45665 26.11292 -2.26649 55.74494 -28.37927 66.20153 -26.11292 10.45665 -55.7272 -2.22178 -66.18371 -28.33476 -10.45665 -26.11292 2.20398 -55.77164 28.3169 -66.22829 z" fill="#d1c4b1" fill-rule="evenodd"/>
    <path d="m 215.81079 849.98791 30.05793 -110.46999 112.61102 57.87697 -58.47367 94.52016 -12.30977 -6.12996 c -13.26506 -17.42942 -30.15796 -30.42523 -58.67228 -29.21731 z" fill="#d1c4b1" fill-rule="evenodd"/>
    <path d="m 17.65625 331.65625 c 8.937158 28.18159 22.73351 54.19136 40.40625 77.0625 l 172.5625 1 c 21.28474 0.12235 38.5339 -16.90276 38.65625 -38.1875 0.12235 -21.28474 -16.93401 -38.5339 -38.21875 -38.65625 L 17.65625 331.65625 z" transform="translate(0,540.36217)" fill="#d1c4b1" fill-rule="evenodd"/>
   </g>
   <g transform="matrix(0.29999998,0,0,0.29999998,322.64167,486.74285)">
    <use transform="matrix(0.69444444,0,0,0.69444444,115.12698,1016.2035)" fill="#0078ad" xlink:href="#2"/>
    <path d="m 224.61349 590.4302 c -22.45155 5.01399 -40.86914 17.39128 -57.64523 39.91155 -35.38638 23.85103 -77.81072 31.23372 -103.61302 111.49961 -19.370309 48.34902 6.702212 114.46124 18.909916 140.38755 23.983179 39.08341 33.561679 48.58351 74.76879 72.98235 l 10.58795 0.82786 0.61001 -5.62073 12.28718 5.70787 3.26793 -1.08929 c -20.03789 -16.16466 -29.20131 -22.48699 -34.50867 -50.54301 12.05545 12.05573 38.24453 28.01632 42.96142 21.82936 -3.20255 -5.1206 -6.86855 -10.04379 -10.41354 -15.07576 l 130.19181 42.5694 c -14.0596 16.36127 -31.93049 32.11255 -54.98731 46.09867 24.48694 1.79297 43.63068 -3.64648 69.01735 -13.72499 l -21.82928 15.51136 c 16.25951 4.065 61.19998 -13.43524 74.20229 -33.02714 12.46328 6.97146 40.70099 -35.17641 49.84586 -55.2923 C 448.25547 875.3272 466.89713 805.69012 447.22049 729.33631 413.21195 622.62357 303.17935 599.93916 217.59854 618.57742 c 5.33483 -4.91532 9.89932 -9.81185 11.93846 -14.72718 -8.21306 2.43689 -21.16154 12.45929 -32.37358 19.69434 L 224.61349 590.4302 z M 124.6167 705.58982 c 4.54761 0.0524 10.13314 2.69459 17.08005 9.10646 -0.85274 12.01854 -1.06398 22.89202 -1.13272 33.85509 L 114.50811 711.1234 c 2.66797 -3.42851 5.94288 -5.58161 10.10859 -5.53358 z m 54.59523 0.52286 c 1.45299 -0.0596 2.93038 0.25393 4.22651 1.00214 4.14676 2.39428 5.23082 8.28076 2.44 13.11504 -2.79122 4.83429 -8.4017 6.795 -12.5486 4.40073 -4.14717 -2.39428 -5.27473 -8.23718 -2.48365 -13.07146 1.91882 -3.32358 5.16919 -5.31558 8.36574 -5.44645 z m -69.84513 14.72718 31.15359 44.79156 c -0.004 2.50957 -0.0278 4.94026 -0.0437 7.53788 1.12101 -0.98353 2.21804 -1.88685 3.31143 -2.83215 l 47.23158 67.92806 2.22221 3.18072 3.61651 -1.43787 138.55755 -55.42301 c 1.34451 9.01053 1.93639 18.75264 1.17636 29.06223 -3.31116 11.7731 -4.24087 24.39413 -9.67289 35.3801 16.19635 -0.17663 30.76096 -20.45451 36.77439 -27.2758 -2.14037 32.31744 -7.30677 59.88038 -24.79214 92.6767 -5.58775 10.43312 -12.28913 20.96115 -20.34799 31.32795 L 140.17181 887.37035 C 126.06816 882.21757 111.96213 876.65987 97.86391 870.68244 92.18887 854.23183 87.36044 828.67383 83.09308 796.74151 c 12.257759 9.92688 15.782803 15.74268 27.45008 16.90577 -10.27759 -15.93334 -12.881425 -46.2141 -7.45067 -69.54021 1.65628 -7.11509 3.47346 -15.88762 6.27431 -23.26721 z m 118.20956 4.74931 c 5.82618 -0.059 11.49578 0.56399 17.47212 1.43785 l 77.47037 14.11719 c 3.69319 8.66205 8.14111 20.12413 11.11067 33.63723 L 196.81484 829.50732 151.23899 763.9757 c 36.79991 -30.62829 57.3074 -38.19408 76.33737 -38.38653 z" color="#000" fill="#fff8eb"/>
   </g>
   <g transform="matrix(0.29999998,0,0,0.29999998,179.20001,401.60508)">
    <path d="m 182.15625 17.09375 c -2.59342 0.801309 -5.19343 1.648522 -7.75 2.53125 2.55652 -0.882903 5.15663 -1.729776 7.75 -2.53125 z m 147.6875 0 c 2.59337 0.801474 5.19348 1.648347 7.75 2.53125 -2.55657 -0.882728 -5.15658 -1.729941 -7.75 -2.53125 z m -159.25 3.875 c -2.53758 0.922867 -5.06404 1.904248 -7.5625 2.90625 2.4984 -1.00219 5.02497 -1.983204 7.5625 -2.90625 z m 170.8125 0 c 2.53753 0.923046 5.0641 1.904061 7.5625 2.90625 -2.49846 -1.002 -5.02492 -1.983383 -7.5625 -2.90625 z m -196.71875 11.125 c -3.59104 1.789763 -7.13478 3.670034 -10.625 5.625 3.49013 -1.955271 7.03405 -3.834936 10.625 -5.625 z m -10.625 5.625 c -2.32682 1.30331 -4.62613 2.65642 -6.90625 4.03125 2.28005 -1.375033 4.57949 -2.727736 6.90625 -4.03125 z M 127.15625 41.75 c -2.27262 1.37031 -4.52528 2.7789 -6.75 4.21875 2.23184 -1.445028 4.46995 -2.843717 6.75 -4.21875 z M 367.3125 32.09375 c 3.59095 1.790064 7.13487 3.669729 10.625 5.625 -3.49022 -1.954966 -7.03396 -3.835237 -10.625 -5.625 z m 10.625 5.625 c 2.32676 1.303514 4.6262 2.656217 6.90625 4.03125 -2.28012 -1.37483 -4.57943 -2.72794 -6.90625 -4.03125 z m 6.90625 4.03125 c 2.28005 1.375033 4.51816 2.773722 6.75 4.21875 -2.22472 -1.43985 -4.47738 -2.84844 -6.75 -4.21875 z m -271.0625 8.65625 c -3.27325 2.26995 -6.49916 4.611518 -9.65625 7.03125 3.157 -2.420019 6.38309 -4.761002 9.65625 -7.03125 z M 104.125 57.4375 c -2.10473 1.613155 -4.198797 3.259679 -6.25 4.9375 2.051148 -1.678005 4.14533 -3.324154 6.25 -4.9375 z m -6.25 4.9375 c -3.076804 2.516731 -6.079136 5.123304 -9.03125 7.78125 2.952038 -2.658201 5.954529 -5.264243 9.03125 -7.78125 z m -9.03125 7.78125 c -1.968076 1.771964 -3.901737 3.573427 -5.8125 5.40625 1.910716 -1.832982 3.844475 -3.634116 5.8125 -5.40625 z m -5.8125 5.40625 c -0.960689 0.921503 -1.897836 1.844653 -2.84375 2.78125 0.940746 -0.931417 1.888392 -1.864759 2.84375 -2.78125 z m 315.1875 -25.15625 c 3.27316 2.270248 6.49925 4.611231 9.65625 7.03125 -3.15709 -2.419732 -6.383 -4.7613 -9.65625 -7.03125 z m 9.65625 7.03125 c 2.10467 1.613346 4.19885 3.259495 6.25 4.9375 -2.0512 -1.677821 -4.14527 -3.324345 -6.25 -4.9375 z m 6.25 4.9375 c 3.07672 2.517007 6.07921 5.123049 9.03125 7.78125 -2.95211 -2.657946 -5.95445 -5.264519 -9.03125 -7.78125 z m 9.03125 7.78125 c 1.96803 1.772134 3.90178 3.573268 5.8125 5.40625 -1.91076 -1.832823 -3.84442 -3.634286 -5.8125 -5.40625 z m 5.8125 5.40625 c 0.95536 0.916491 1.903 1.849833 2.84375 2.78125 -0.94591 -0.936597 -1.88306 -1.859747 -2.84375 -2.78125 z M 6.28125 267.71875 c 0.059653 1.29301 0.139526 2.58719 0.21875 3.875 -0.079286 -1.28881 -0.157009 -2.58042 -0.21875 -3.875 z M 6.5 271.59375 C 14.547274 402.40394 123.16389 506 256 506 388.83611 506 497.45273 402.40394 505.5 271.59375 l -499 0 z m 499 0 c 0.0792 -1.28781 0.1591 -2.58199 0.21875 -3.875 -0.0617 1.29458 -0.13946 2.58619 -0.21875 3.875 z" transform="translate(0,540.36217)" fill="#282629" fill-rule="evenodd"/>
    <path d="M 256 6 C 164.58184 6 84.65921 55.10766 41.0625 128.34375 18.813976 165.71801 6 209.34698 6 256 c 0 5.23508 0.182856 10.43851 0.5 15.59375 l 499 0 C 505.81714 266.43851 506 261.23508 506 256 506 209.34698 493.18602 165.71801 470.9375 128.34375 427.34078 55.10766 347.41816 6 256 6 z" transform="translate(0,540.36217)" fill="#d1c4b1" fill-rule="evenodd"/>
    <text y="1089.8812" x="-1160.4812" font-family="Gentium Book Basic" word-spacing="0" line-height="125%" letter-spacing="0" font-size="208.33333"><tspan y="1089.8812" x="-1160.4812"/>
    </text>
    <text font-size="75.69771" y="3810.6255" x="28.533577" transform="scale(4.0128362,0.2492003)" font-family="Arial" text-anchor="middle"/>
    <path d="m 849.28533 217.88734 -37.75424 65.39226 -37.75423 65.39226 -37.75424 -65.39226 -37.75424 -65.39226 75.50848 0 z" transform="matrix(1.2680045,0,0,0.81802128,-725.15254,732.98167)" fill="#d1c4b1" fill-rule="evenodd"/>
    <path fill="#d1c4b1" fill-rule="evenodd" d="M 224.871,811.96 H287.129 V923.003 H224.871 z"/>
    <path fill="#707175" fill-rule="evenodd" d="M 224.871,622.352 H287.129 V811.932 H224.871 z"/>
    <rect width="57.813519" height="213.90067" x="618.86414" y="-362.95032" ry="30.12299" transform="matrix(0,1,-1,0,0,0)" fill="#b93d48" fill-rule="evenodd" rx="28.90676"/>
   </g>
  </g>
  <path d="m 378.00578 845.59664 -106.20162 114.79469 -8.98648 6.9441 -7.35254 2.04239 -8.16957 -2.04239 -8.16945 -6.12714 -105.38704 -114.78196 c -2.69207 -6.96453 -2.67584 -10.07336 2.75724 -14.80727 l 53.61248 0.51059 c 3.6142 -6.14034 29.2399 -133.21027 -29.41029 -185.03993 l -18.38147 -10.2119 c -6.31939 -4.37343 -3.08641 -14.33292 5.71873 -13.47972 137.53177 23.80908 177.22608 142.95079 172.78558 209.95699 0 0 47.79189 -0.81698 49.83421 -0.81698 8.477 0.93819 11.88398 7.76373 7.35022 13.05853 z" fill="#8db173" stroke="#fff8eb" stroke-linejoin="round" stroke-linecap="round" stroke-width="24.26228"/>
 </g>
</svg>
