<svg xmlns="http://www.w3.org/2000/svg" xmlns:xlink="http://www.w3.org/1999/xlink" width="512" height="512">
 <defs>
  <filter x="-0.192" y="-0.192" width="1.384" height="1.384" color-interpolation-filters="sRGB">
   <feGaussianBlur stdDeviation="5.28"/>
  </filter>
  <clipPath>
   <rect width="84" height="84" rx="6" x="6" y="6" fill="#fff"/>
  </clipPath>
  <linearGradient id="0">
   <stop stop-color="#fff"/>
   <stop offset="1" stop-color="#fff" stop-opacity="0"/>
  </linearGradient>
  <filter color-interpolation-filters="sRGB">
   <feGaussianBlur stdDeviation="1.71"/>
  </filter>
  <linearGradient y1="92.5396" x2="0" y2="7.01654" id="1" gradientUnits="userSpaceOnUse" gradientTransform="scale(1.0058652,0.994169)">
   <stop/>
   <stop offset="1" stop-opacity="0.588235"/>
  </linearGradient>
  <linearGradient xlink:href="#1" gradientUnits="userSpaceOnUse" gradientTransform="scale(1.0058652,0.994169)" y1="92.5396" x2="0" y2="7.01654"/>
  <linearGradient xlink:href="#0" gradientUnits="userSpaceOnUse" y1="20.220806" x2="0" y2="138.66119"/>
  <clipPath>
   <rect width="84" height="84" rx="6" x="6" y="6" fill="#fff"/>
  </clipPath>
  <clipPath>
   <rect width="84" height="84" rx="6" x="6" y="6" fill="#fff"/>
  </clipPath>
  <filter color-interpolation-filters="sRGB">
   <feGaussianBlur stdDeviation="1.14"/>
  </filter>
  <clipPath>
   <rect y="10" x="10" rx="4" height="76" width="76" fill="#fff"/>
  </clipPath>
  <clipPath>
   <path d="M 0 0 0 96 96 96 96 0 0 0 z m 12 6 72 0 c 3.324 0 6 2.676 6 6 l 0 72 c 0 3.324 -2.676 6 -6 6 L 12 90 C 8.676 90 6 87.324 6 84 L 6 12 C 6 8.676 8.676 6 12 6 z"/>
  </clipPath>
  <clipPath>
   <rect y="6" x="6" rx="6" height="84" width="84" fill="#fff"/>
  </clipPath>
  <clipPath>
   <rect y="6" x="6" rx="6" height="84" width="84" fill="#fff"/>
  </clipPath>
 </defs>
 <g transform="translate(0,-540.36217)">
  <g transform="translate(635.81735,20.78179)">
   <path d="m -629.75485 775.26787 0 4.59375 c 2.22045 131.79215 106.38694 238.78228 237.0625 245.40628 l 12.9375 0 0 -250.00003 -250 0 z" fill="#924565"/>
   <path d="m -379.75485,775.26787 0,250.00003 12.8125,0 c 132.09247,-6.6958 237.125,-115.93107 237.125,-249.68753 0,-0.1047 1.3e-4,-0.20783 0,-0.3125 l -249.9375,0 z" fill="#e4a146"/>
   <path d="m -379.75485 525.58037 0 249.6875 249.9375 0 c -0.16956 -137.90588 -111.99988 -249.65358 -249.9375 -249.6875 z" fill="#366378"/>
   <path d="m -379.81735,525.58037 c -136.63644,0 -247.64465,109.62915 -249.9375,245.71875 l 0,3.96875 250,0 0,-249.6875 c -0.0209,-10e-6 -0.0416,0 -0.0625,0 z" fill="#9a3034"/>
   <path d="m -629.57409 775.58037 499.51348 0" fill="#62c0dc" stroke="#707175" stroke-width="0.697506"/>
   <path d="m -379.81735 525.82366 0 499.51344" fill="#62c0dc" stroke="#707175" stroke-width="0.697506"/>
  </g>
  <text x="-28.43412" y="796.33783" font-family="Gentium Book Basic" word-spacing="0" line-height="125%" letter-spacing="0" font-size="208.33334"><tspan x="-28.43412" y="796.33783"/>
  </text>
  <path d="M 207.09375 56.5625 C 202.04431 56.59934 195.82735 58.481 186.84375 61.5625 C 162.62483 69.86991 160.62047 72.34027 161 93.09375 C 161.34567 111.98867 158.37657 117.59299 140.09375 133 C 123.48092 146.99924 117.97696 148.91451 106.0625 144.71875 C 91.61499 139.63101 78.34107 147.50488 69.1875 166.59375 C 58.870098 188.10997 59.57338 193.77902 74.3125 207.71875 C 87.51443 220.20467 89.48559 226.90595 87.125 251.25 C 85.33753 269.68595 82.985639 274.14181 69.84375 284.0625 C 54.879974 295.35866 53.587321 301.58537 61.46875 324.5625 C 69.34551 347.52588 73.5439 351.05911 91.34375 349.65625 C 110.04782 348.18213 114.52586 350.27731 130.25 368.0625 C 147.40303 387.46376 146.90755 386.22248 144.0625 404.125 C 140.56949 426.10406 142.81382 429.91159 166.03125 441.34375 C 189.21147 452.75766 193.71998 452.18027 208.1875 436.15625 C 220.0191 423.05196 223.20583 421.97544 246.375 423.28125 C 267.0287 424.4453 277.51517 428.6938 280.375 437.03125 C 282.55322 443.3817 287.91242 448.90738 296.40625 453.59375 C 301.9123 456.63159 304.44124 456.27575 323.375 449.78125 C 348.00806 441.33178 351.62093 437.47959 349.84375 421.46875 C 347.48129 400.18315 348.96818 396.61962 366.9375 380.84375 C 386.54783 363.62731 388.2726 362.90007 401 366.40625 C 420.64474 371.81809 429.70671 367.62127 439.5 348.625 C 450.9994 326.3176 451.02262 315.50878 439.59375 306.65625 C 422.80492 293.65199 420.83762 289.00387 422.34375 265.5625 C 423.80949 242.75266 427.10577 237.14032 444.25 228 C 456.98486 221.21053 458.0101 215.67308 450.90625 192.1875 C 442.42587 164.15085 438.59667 160.7112 417.09375 161.5625 C 397.71743 162.32961 394.75258 160.87717 379 142.96875 C 364.13424 126.06845 361.49762 119.66248 364.9375 108.6875 C 370.12594 92.13364 364.85105 80.27854 348.3125 71.4375 C 323.96058 58.41986 317.11258 58.98589 301.78125 75.3125 C 290.31235 87.52592 285.77355 89.59946 272.4375 88.75 C 244.82266 86.99101 237.07764 85.47149 234.15625 81.125 C 222.09039 63.17367 216.73358 56.49218 207.09375 56.5625 z" transform="translate(0,540.36217)" fill="#fff8eb" fill-opacity="0.968627"/>
  <path d="m -17.903027 175.34691 c -0.867427 1.8276 -48.15369 5.27192 -49.34626 3.60787 -1.192568 -1.66405 19.490875 -44.79459 21.496764 -44.97859 2.00589 -0.18401 28.71692 39.54313 27.849494 41.37072 z" transform="matrix(-0.26098469,2.9759331,-2.9290906,-0.26515841,714.1314,966.74804)" fill="#282629" fill-rule="evenodd"/>
  <text y="937.8457" x="-520.20032" transform="scale(1.0508243,0.95163388)" fill="#654641" font-family="Gentium Book Basic" word-spacing="0" line-height="125%" letter-spacing="0" font-size="84.76714"><tspan y="937.8457" x="-520.20032"/>
  </text>
  <text transform="scale(4.2167858,0.23714745)" font-size="30.800055" y="3534.3914" x="-0.357064" fill="#654641" font-family="Arial" text-anchor="middle"/>
  <text y="914.34869" x="-252.39186" transform="scale(1.0508243,0.95163388)" fill="#654641" font-family="Gentium Book Basic" word-spacing="0" line-height="125%" letter-spacing="0" font-size="45.37838"><tspan y="914.34869" x="-252.39186"/>
  </text>
  <text transform="scale(4.2167856,0.23714746)" font-size="16.488192" y="3546.5247" x="6.30972" fill="#654641" font-family="Arial" text-anchor="middle"/>
  <text y="971.97638" x="-1287.5485" fill="#654641" font-family="Gentium Book Basic" word-spacing="0" line-height="125%" letter-spacing="0" font-size="132.57143"><tspan y="971.97638" x="-1287.5485"/>
  </text>
  <text transform="scale(4.0128362,0.2492003)" font-size="48.1697" y="3542.1917" x="-118.6749" fill="#654641" font-family="Arial" text-anchor="middle"/>
 </g>
</svg>
