<svg xmlns="http://www.w3.org/2000/svg" xmlns:xlink="http://www.w3.org/1999/xlink" width="512" height="512">
 <defs>
  <linearGradient id="0">
   <stop stop-color="#dc765e"/>
   <stop offset="1" stop-color="#ae4a32"/>
  </linearGradient>
  <radialGradient xlink:href="#0" id="1" cx="256" cy="256.00004" r="250" gradientTransform="translate(0,1.8944003e-6)" gradientUnits="userSpaceOnUse"/>
 </defs>
 <path d="m 506 256.00004 c 0 138.07119 -111.92881 250 -250 250 -138.07119 0 -250 -111.92881 -250 -250 C 6 117.92886 117.92881 6.00005 256 6.00005 c 138.07119 0 250 111.92881 250 249.99999 z" fill="url(#1)" fill-rule="evenodd"/>
 <g transform="matrix(1.1942138,0,0,1.1942138,-864.97491,19.473519)">
  <path d="m 1051.5625,82.90625 c -36.3421,2.768925 -72.53435,3.670566 -111.46875,38.84375 l 0.75,181.34375 C 972.55074,274.30607 1010.5299,264.31092 1051.5625,263.5 z M 810.25,102.9375 l 0,177.125 c 60.4961,0.88978 100.75547,12.89545 127.75,32.1875 0.55081,0.17598 0.92254,0.0312 1.34375,0 26.99453,-19.29205 67.25395,-31.29772 127.75005,-32.1875 l 0,-177.125 -7.0313,0 0,169.59375 c -33.038,2.94545 -58.9649,-2.71081 -121.40625,35.875 -62.42549,-38.57092 -88.37211,-32.9299 -121.40625,-35.875 l 0,-169.59375 z m -16.03125,21.8125 0,173.84375 c 44.7034,3.42632 97.00956,0.92196 125.125,17.25 8.12629,4.69171 11.06181,5.96819 18.875,5.6875 0.0104,-3.7e-4 0.0209,3.8e-4 0.0312,0 8.51934,0.40961 11.31137,-0.81546 19.75,-5.6875 28.11544,-16.32804 80.42165,-13.82368 125.12505,-17.25 l 0,-173.84375 -7.7812,0 0,165.8125 c -40.4537,1.76625 -80.87506,3.61881 -118.71885,17.78125 -7.28398,6.85902 -10.01969,7.00147 -17.59375,7.15625 -8.3941,-0.17258 -10.70978,0.003 -18.3125,-7.15625 -37.84379,-14.16244 -78.2965,-16.015 -118.75,-17.78125 l 0,-165.8125 z" fill="#fff8eb"/>
  <path d="M 936.49583 303.09198 C 904.78884 274.3043 866.8122 264.3256 825.7796 263.51468 l 0 -180.60274 c 36.3421 2.768925 72.53329 3.652649 111.46769 38.825833 z" fill="#fff8eb"/>
 </g>
 <path d="M 256 19.25 C 125.25435 19.25 19.25 125.25435 19.25 256 C 19.25 386.74565 125.25435 492.75 256 492.75 C 386.74565 492.75 492.75 386.74565 492.75 256 C 492.75 125.25435 386.74565 19.25 256 19.25 z M 256 41.4375 C 374.50718 41.4375 470.5625 137.49282 470.5625 256 C 470.5625 374.50718 374.50718 470.5625 256 470.5625 C 137.49282 470.5625 41.4375 374.50718 41.4375 256 C 41.4375 137.49282 137.49282 41.4375 256 41.4375 z" fill="#fff8eb" fill-rule="evenodd"/>
</svg>
