<svg xmlns="http://www.w3.org/2000/svg" width="512" height="512">
 <path d="m 506 256.00004 c 0 138.07119 -111.92881 250 -250 250 -138.07119 0 -250 -111.92881 -250 -250 C 6 117.92886 117.92881 6.00005 256 6.00005 c 138.07119 0 250 111.92881 250 249.99999 z" fill="#cd1d31" fill-rule="evenodd"/>
 <path d="M 256 27.2132 C 129.64454 27.2132 27.2132 129.64454 27.2132 256 27.2132 382.35546 129.64454 484.78682 256 484.78682 382.35546 484.78682 484.7868 382.35546 484.7868 256 484.7868 129.64454 382.35546 27.2132 256 27.2132 z m 0 27.7404 c 111.03886 0 201.0464 90.00754 201.0464 201.0464 0 111.03886 -90.00754 201.0464 -201.0464 201.0464 C 144.96114 457.0464 54.9536 367.03886 54.9536 256 54.9536 144.96114 144.96114 54.9536 256 54.9536 z" fill="#fff8eb" fill-rule="evenodd"/>
 <path d="m 291.90386 166.687 a 2.377718 2.377718 0 0 0 -2.0803 2.34776 l 0 4.66581 a 2.377718 2.377718 0 0 0 2.37748 2.37748 c 5.27573 0 8.62854 0.16565 10.8473 0.86183 2.20735 0.69261 3.56984 1.80313 5.52765 4.54694 0.0105 0.0142 0.02 0.0155 0.0295 0.0297 l 36.34568 53.34471 -32.69036 47.78735 c -7.66537 11.09787 -18.98199 11.17415 -22.58606 11.17415 a 2.377718 2.377718 0 0 0 -2.37748 2.37748 l 0 4.66581 a 2.377718 2.377718 0 0 0 2.58556 2.37748 c 2.18376 -0.18135 5.33449 -0.20158 8.35085 -0.23775 -1.80042 10.68245 -3.94005 18.81842 -8.49949 24.07199 -4.97084 5.72764 -13.05189 8.85611 -28.38112 8.85611 l -26.83586 0 c -1.87887 0 -3.24706 -0.0581 -4.10115 -0.20803 -0.85408 -0.14994 -1.06815 -0.32395 -1.1293 -0.38634 -0.0609 -0.0624 -0.21122 -0.24264 -0.32686 -1.01043 -0.11573 -0.76779 -0.14864 -2.01481 -0.14864 -3.65537 l 0 -51.65076 15.84001 0 c 8.82454 0 12.79417 1.56315 14.88892 4.42806 2.09475 2.8649 2.70443 8.12562 2.70443 16.19658 a 2.377718 2.377718 0 0 0 2.37748 2.37748 l 3.1204 0 a 2.377718 2.377718 0 0 0 2.37748 -2.37748 l 0 -50.2837 a 2.377718 2.377718 0 0 0 -2.37748 -2.37748 l -3.1204 0 a 2.377718 2.377718 0 0 0 -2.37748 2.37748 c 0 7.93294 -0.58999 13.12587 -2.67466 15.92911 -2.08477 2.80324 -6.0892 4.30918 -14.91869 4.30918 l -15.84001 0 0 -45.52874 c 0 -1.60894 0.0342 -2.79332 0.14864 -3.5365 0.11412 -0.74318 0.24117 -0.89501 0.29719 -0.95099 0.0561 -0.056 0.27027 -0.23874 1.1293 -0.38634 0.85894 -0.14761 2.25071 -0.23775 4.13082 -0.23775 l 26.4198 0 c 14.63862 0 22.02402 2.82882 26.39003 8.26174 4.36591 5.43292 5.99363 14.33655 7.34042 27.04384 a 2.377718 2.377718 0 0 0 2.37748 2.11001 l 3.47711 0 a 2.377718 2.377718 0 0 0 2.37748 -2.61523 l -4.63608 -42.7352 a 2.377718 2.377718 0 0 0 -2.37748 -2.13973 l -81.9934 0 -2.94208 -39.70392 a 2.377718 2.377718 0 0 0 -2.37748 -2.22889 l -111.59302 0 a 2.377718 2.377718 0 0 0 -2.37748 2.19917 l -3.269035 42.7352 a 2.377718 2.377718 0 0 0 2.37748 2.5558 l 3.477112 0 a 2.377718 2.377718 0 0 0 2.37748 -2.16945 c 1.244183 -15.94986 2.729633 -24.91127 6.716383 -29.45104 1.99328 -2.26988 4.65976 -3.71125 8.85611 -4.6658 4.19625 -0.95456 9.84847 -1.33734 17.2664 -1.33734 l 10.31237 0 c 1.3602 0.21293 1.16782 0.18722 1.36705 0.71325 0.19914 0.52603 0.29719 2.0541 0.29719 4.27946 l 0 105.2035 c 0 1.71215 -0.0656 3.00565 -0.26752 3.77425 -0.20189 0.7686 -0.35881 1.02578 -0.98066 1.42648 -1.2439 0.80141 -5.21876 1.54537 -13.25445 1.54537 l -5.46821 0 a 2.377718 2.377718 0 0 0 -2.37748 2.37748 l 0 4.6658 a 2.377718 2.377718 0 0 0 2.43692 2.37748 c 9.26951 -0.18024 18.89869 -0.35662 28.35145 -0.35662 9.42138 0 19.08983 0.17638 28.35145 0.35662 a 2.377718 2.377718 0 0 0 2.43692 -2.37748 l 0 -4.6658 a 2.377718 2.377718 0 0 0 -2.37748 -2.37748 l -5.40877 0 c -7.9133 0 -11.81237 -0.75617 -13.0167 -1.54537 -0.60227 -0.39459 -0.75176 -0.62251 -0.95099 -1.39677 -0.19933 -0.77425 -0.26752 -2.09035 -0.26752 -3.80396 l 0 -105.2035 c 0 -2.13515 0.0942 -3.59579 0.29719 -4.16059 0.19409 -0.54108 0.15672 -0.58071 1.24817 -0.83212 l 10.16373 0 c 7.25312 0 12.79684 0.37148 16.93955 1.30762 4.14271 0.93613 6.82907 2.35382 8.82644 4.57665 3.74786 4.17108 5.33183 12.34645 6.53807 26.182 l -7.57827 0 a 2.377718 2.377718 0 0 0 -2.37748 2.37748 l 0 5.31961 a 2.377718 2.377718 0 0 0 2.37748 2.37748 c 6.84486 0 10.78064 0.2467 12.06572 0.86183 0.64249 0.30757 0.77924 0.4623 1.04019 1.21846 0.26086 0.75617 0.41606 2.14928 0.41606 4.22003 l 0 104.28222 c 0 2.07234 -0.15568 3.5185 -0.41606 4.27947 -0.26048 0.76096 -0.40046 0.90959 -1.04019 1.21846 -1.27956 0.61773 -5.20688 0.83211 -12.06572 0.83211 a 2.377718 2.377718 0 0 0 -2.37748 2.37748 l 0 4.69553 a 2.377718 2.377718 0 0 0 2.37748 2.37748 l 100.56741 0 a 2.377718 2.377718 0 0 0 2.34781 -2.05058 l 5.73563 -40.38744 c 5.28228 0.00036 13.89408 0.0182 18.33636 0.35662 a 2.377718 2.377718 0 0 0 2.55579 -2.34776 l 0 -4.66581 a 2.377718 2.377718 0 0 0 -2.13973 -2.37748 c -2.50682 -0.24184 -3.75766 -1.07671 -4.51721 -1.99114 -0.75966 -0.91442 -1.06987 -2.06797 -1.06987 -3.17988 0 -1.89055 0.5239 -2.53866 1.48592 -3.89312 a 2.377718 2.377718 0 0 0 0.0295 -0.0297 l 28.94582 -42.25971 31.65015 46.53917 a 2.377718 2.377718 0 0 0 0.0295 0.0594 c 0.70526 0.99129 0.99094 1.55811 1.06987 1.75339 0.0789 0.19528 0.0295 -0.0782 0.0295 0.17831 0 -0.28323 -0.25201 2.49894 -6.27056 2.85298 a 2.377718 2.377718 0 0 0 -2.22893 2.37748 l 0 4.6658 a 2.377718 2.377718 0 0 0 2.52612 2.34776 c 6.04374 -0.35821 15.47216 -0.35662 21.84305 -0.35662 5.00583 0 14.73429 0.01 19.16848 0.35662 a 2.377718 2.377718 0 0 0 2.55579 -2.34776 l 0 -4.6658 a 2.377718 2.377718 0 0 0 -2.37748 -2.37748 c -6.12895 0 -9.51933 -0.29904 -11.47134 -1.01043 -1.94116 -0.70742 -2.89739 -1.77553 -4.72529 -4.36862 l -0.0295 -0.0297 -41.54646 -60.77434 27.6382 -39.97138 c 0.01 -0.01 0.0228 -0.0201 0.0295 -0.0297 2.87761 -4.08038 7.62078 -11.42086 22.61583 -11.61994 a 2.377718 2.377718 0 0 0 2.34771 -2.37748 l 0 -4.6658 a 2.377718 2.377718 0 0 0 -2.58546 -2.34776 c -4.21622 0.34949 -11.56749 0.35662 -16.19663 0.35662 -6.36347 0 -14.30606 -0.005 -18.93064 -0.35662 a 2.377718 2.377718 0 0 0 -2.55579 2.34776 l 0 4.6658 a 2.377718 2.377718 0 0 0 2.1694 2.37748 c 2.62122 0.24454 3.82185 1.06417 4.54698 1.96142 0.72504 0.89726 1.01043 2.07383 1.01043 3.23932 0 1.66225 -0.55452 2.58638 -1.87231 4.42806 a 2.377718 2.377718 0 0 0 -0.0295 0.0297 l -23.56682 34.14656 -26.62778 -38.99068 c -0.58743 -0.93004 -0.92626 -1.54915 -1.0401 -1.81283 -0.11887 -0.27531 -0.059 -0.0978 -0.059 -0.14859 0 0.1718 0.58629 -2.69596 6.18145 -2.85297 a 2.377718 2.377718 0 0 0 2.31804 -2.37748 l 0 -4.66581 a 2.377718 2.377718 0 0 0 -2.52612 -2.34776 c -6.05078 0.35863 -15.50925 0.35662 -21.87282 0.35662 -4.99632 0 -14.72031 -0.01 -19.13871 -0.35662 a 2.377718 2.377718 0 0 0 -0.4755 0 z" color="#000" stroke-width="5" fill="#fff" stroke="#fff8eb"/>
</svg>
