<svg xmlns="http://www.w3.org/2000/svg" width="512" height="512">
 <path d="m 506 256.00004 c 0 138.07119 -111.92881 250 -250 250 -138.07119 0 -250 -111.92881 -250 -250 C 6 117.92886 117.92881 6.00005 256 6.00005 c 138.07119 0 250 111.92881 250 249.99999 z" fill="#0078ad" fill-rule="evenodd"/>
 <path d="M 240 6.5 C 238.66499 6.58428 237.32924 6.676095 236 6.78125 L 236 19.21875 L 204 19.21875 L 204 11.4375 C 202.66691 11.719572 201.32516 12.00927 200 12.3125 L 200 19.21875 L 175.53125 19.21875 C 171.63895 20.541092 167.80344 21.962505 164 23.46875 L 164 55.21875 L 132 55.21875 L 132 38.875 C 130.65584 39.644311 129.32836 40.42534 128 41.21875 L 128 55.21875 L 107 55.21875 C 105.23701 56.52916 103.5081 57.86343 101.78125 59.21875 L 128 59.21875 L 128 91.21875 L 96 91.21875 L 96 63.90625 C 94.65152 65.0306 93.32421 66.16051 92 67.3125 L 92 91.21875 L 68.03125 91.21875 C 66.8697 92.54262 65.727554 93.87035 64.59375 95.21875 L 92 95.21875 L 92 127.21875 L 60 127.21875 L 60 100.8125 C 58.646944 102.51902 57.30901 104.22649 56 105.96875 L 56 127.21875 L 41.6875 127.21875 C 40.886383 128.54896 40.0894 129.87256 39.3125 131.21875 L 56 131.21875 L 56 163.21875 L 24 163.21875 L 24 162.75 C 22.596403 166.23848 21.24874 169.74819 20 173.3125 L 20 199.21875 L 12.46875 199.21875 C 12.161711 200.54107 11.910962 201.88848 11.625 203.21875 L 20 203.21875 L 20 235.21875 L 6.84375 235.21875 C 6.734337 236.54892 6.651005 237.88276 6.5625 239.21875 L 20 239.21875 L 20 271.21875 L 6.46875 271.21875 C 6.548786 272.55217 6.617892 273.89104 6.71875 275.21875 L 20 275.21875 L 20 307.21875 L 11.28125 307.21875 C 11.558738 308.55122 11.826389 309.89415 12.125 311.21875 L 20 311.21875 L 20 338.6875 C 21.24874 342.25182 22.596403 345.76152 24 349.25 L 24 347.21875 L 56 347.21875 L 56 379.21875 L 38.4375 379.21875 C 39.2017 380.56516 39.992919 381.88807 40.78125 383.21875 L 56 383.21875 L 56 406.03125 C 57.30901 407.77351 58.646944 409.48098 60 411.1875 L 60 383.21875 L 92 383.21875 L 92 415.21875 L 63.25 415.21875 C 64.36922 416.57224 65.50929 417.88945 66.65625 419.21875 L 92 419.21875 L 92 444.6875 C 93.32421 445.83949 94.65152 446.9694 96 448.09375 L 96 419.21875 L 128 419.21875 L 128 451.21875 L 99.84375 451.21875 C 101.52904 452.56859 103.21691 453.91206 104.9375 455.21875 L 128 455.21875 L 128 470.78125 C 129.32836 471.57466 130.65584 472.35569 132 473.125 L 132 455.21875 L 164 455.21875 L 164 487.21875 L 160.8125 487.21875 C 164.20762 488.618 167.62542 489.96663 171.09375 491.21875 L 200 491.21875 L 200 499.6875 C 201.32516 499.99073 202.66691 500.28043 204 500.5625 L 204 491.21875 L 236 491.21875 L 236 505.21875 C 237.32924 505.3239 238.66499 505.41572 240 505.5 L 240 491.21875 L 272 491.21875 L 272 505.5 C 273.33501 505.41572 274.67076 505.3239 276 505.21875 L 276 491.21875 L 308 491.21875 L 308 500.5625 C 309.33309 500.28043 310.67484 499.99073 312 499.6875 L 312 491.21875 L 340.90625 491.21875 C 344.37458 489.96663 347.79238 488.618 351.1875 487.21875 L 348 487.21875 L 348 455.21875 L 380 455.21875 L 380 473.125 C 381.34416 472.35569 382.67164 471.57466 384 470.78125 L 384 455.21875 L 407.0625 455.21875 C 408.78309 453.91206 410.47096 452.56859 412.15625 451.21875 L 384 451.21875 L 384 419.21875 L 416 419.21875 L 416 448.09375 C 417.34848 446.9694 418.67579 445.83949 420 444.6875 L 420 419.21875 L 445.34375 419.21875 C 446.49071 417.88945 447.63078 416.57224 448.75 415.21875 L 420 415.21875 L 420 383.21875 L 452 383.21875 L 452 411.1875 C 453.35306 409.48098 454.69099 407.77351 456 406.03125 L 456 383.21875 L 471.21875 383.21875 C 472.00708 381.88807 472.79829 380.56516 473.5625 379.21875 L 456 379.21875 L 456 347.21875 L 488 347.21875 L 488 349.25 C 489.4036 345.76152 490.75126 342.25182 492 338.6875 L 492 311.21875 L 499.875 311.21875 C 500.17361 309.89415 500.44126 308.55122 500.71875 307.21875 L 492 307.21875 L 492 275.21875 L 505.28125 275.21875 C 505.38211 273.89104 505.45121 272.55217 505.53125 271.21875 L 492 271.21875 L 492 239.21875 L 505.4375 239.21875 C 505.349 237.88276 505.26566 236.54892 505.15625 235.21875 L 492 235.21875 L 492 203.21875 L 500.375 203.21875 C 500.08904 201.88848 499.83829 200.54107 499.53125 199.21875 L 492 199.21875 L 492 173.3125 C 490.75126 169.74819 489.4036 166.23848 488 162.75 L 488 163.21875 L 456 163.21875 L 456 131.21875 L 472.6875 131.21875 C 471.9106 129.87256 471.11362 128.54896 470.3125 127.21875 L 456 127.21875 L 456 105.96875 C 454.69099 104.22649 453.35306 102.51902 452 100.8125 L 452 127.21875 L 420 127.21875 L 420 95.21875 L 447.40625 95.21875 C 446.27245 93.87035 445.1303 92.54262 443.96875 91.21875 L 420 91.21875 L 420 67.3125 C 418.67579 66.16051 417.34848 65.0306 416 63.90625 L 416 91.21875 L 384 91.21875 L 384 59.21875 L 410.21875 59.21875 C 408.4919 57.86343 406.76299 56.52916 405 55.21875 L 384 55.21875 L 384 41.21875 C 382.67164 40.42534 381.34416 39.644311 380 38.875 L 380 55.21875 L 348 55.21875 L 348 23.46875 C 344.19656 21.962505 340.36105 20.541092 336.46875 19.21875 L 312 19.21875 L 312 12.3125 C 310.67484 12.00927 309.33309 11.719572 308 11.4375 L 308 19.21875 L 276 19.21875 L 276 6.78125 C 274.67076 6.676095 273.33501 6.58428 272 6.5 L 272 19.21875 L 240 19.21875 L 240 6.5 z M 168 23.21875 L 200 23.21875 L 200 55.21875 L 168 55.21875 L 168 23.21875 z M 204 23.21875 L 236 23.21875 L 236 55.21875 L 204 55.21875 L 204 23.21875 z M 240 23.21875 L 272 23.21875 L 272 55.21875 L 240 55.21875 L 240 23.21875 z M 276 23.21875 L 308 23.21875 L 308 55.21875 L 276 55.21875 L 276 23.21875 z M 312 23.21875 L 344 23.21875 L 344 55.21875 L 312 55.21875 L 312 23.21875 z M 132 59.21875 L 164 59.21875 L 164 91.21875 L 132 91.21875 L 132 59.21875 z M 168 59.21875 L 200 59.21875 L 200 91.21875 L 168 91.21875 L 168 59.21875 z M 204 59.21875 L 236 59.21875 L 236 91.21875 L 204 91.21875 L 204 59.21875 z M 240 59.21875 L 272 59.21875 L 272 91.21875 L 240 91.21875 L 240 59.21875 z M 276 59.21875 L 308 59.21875 L 308 91.21875 L 276 91.21875 L 276 59.21875 z M 312 59.21875 L 344 59.21875 L 344 91.21875 L 312 91.21875 L 312 59.21875 z M 348 59.21875 L 380 59.21875 L 380 91.21875 L 348 91.21875 L 348 59.21875 z M 96 95.21875 L 128 95.21875 L 128 127.21875 L 96 127.21875 L 96 95.21875 z M 132 95.21875 L 164 95.21875 L 164 127.21875 L 132 127.21875 L 132 95.21875 z M 168 95.21875 L 200 95.21875 L 200 127.21875 L 168 127.21875 L 168 95.21875 z M 204 95.21875 L 236 95.21875 L 236 127.21875 L 204 127.21875 L 204 95.21875 z M 240 95.21875 L 272 95.21875 L 272 127.21875 L 240 127.21875 L 240 95.21875 z M 276 95.21875 L 308 95.21875 L 308 127.21875 L 276 127.21875 L 276 95.21875 z M 312 95.21875 L 344 95.21875 L 344 127.21875 L 312 127.21875 L 312 95.21875 z M 348 95.21875 L 380 95.21875 L 380 127.21875 L 348 127.21875 L 348 95.21875 z M 384 95.21875 L 416 95.21875 L 416 127.21875 L 384 127.21875 L 384 95.21875 z M 60 131.21875 L 92 131.21875 L 92 163.21875 L 60 163.21875 L 60 131.21875 z M 96 131.21875 L 128 131.21875 L 128 163.21875 L 96 163.21875 L 96 131.21875 z M 132 131.21875 L 164 131.21875 L 164 163.21875 L 132 163.21875 L 132 131.21875 z M 168 131.21875 L 200 131.21875 L 200 163.21875 L 168 163.21875 L 168 131.21875 z M 204 131.21875 L 236 131.21875 L 236 163.21875 L 204 163.21875 L 204 131.21875 z M 240 131.21875 L 272 131.21875 L 272 163.21875 L 240 163.21875 L 240 131.21875 z M 276 131.21875 L 308 131.21875 L 308 163.21875 L 276 163.21875 L 276 131.21875 z M 312 131.21875 L 344 131.21875 L 344 163.21875 L 312 163.21875 L 312 131.21875 z M 348 131.21875 L 380 131.21875 L 380 163.21875 L 348 163.21875 L 348 131.21875 z M 384 131.21875 L 416 131.21875 L 416 163.21875 L 384 163.21875 L 384 131.21875 z M 420 131.21875 L 452 131.21875 L 452 163.21875 L 420 163.21875 L 420 131.21875 z M 24 167.21875 L 56 167.21875 L 56 199.21875 L 24 199.21875 L 24 167.21875 z M 60 167.21875 L 92 167.21875 L 92 199.21875 L 60 199.21875 L 60 167.21875 z M 96 167.21875 L 128 167.21875 L 128 199.21875 L 96 199.21875 L 96 167.21875 z M 132 167.21875 L 164 167.21875 L 164 199.21875 L 132 199.21875 L 132 167.21875 z M 168 167.21875 L 200 167.21875 L 200 199.21875 L 168 199.21875 L 168 167.21875 z M 204 167.21875 L 236 167.21875 L 236 199.21875 L 204 199.21875 L 204 167.21875 z M 240 167.21875 L 272 167.21875 L 272 199.21875 L 240 199.21875 L 240 167.21875 z M 276 167.21875 L 308 167.21875 L 308 199.21875 L 276 199.21875 L 276 167.21875 z M 312 167.21875 L 344 167.21875 L 344 199.21875 L 312 199.21875 L 312 167.21875 z M 348 167.21875 L 380 167.21875 L 380 199.21875 L 348 199.21875 L 348 167.21875 z M 384 167.21875 L 416 167.21875 L 416 199.21875 L 384 199.21875 L 384 167.21875 z M 420 167.21875 L 452 167.21875 L 452 199.21875 L 420 199.21875 L 420 167.21875 z M 456 167.21875 L 488 167.21875 L 488 199.21875 L 456 199.21875 L 456 167.21875 z M 24 203.21875 L 56 203.21875 L 56 235.21875 L 24 235.21875 L 24 203.21875 z M 60 203.21875 L 92 203.21875 L 92 235.21875 L 60 235.21875 L 60 203.21875 z M 96 203.21875 L 128 203.21875 L 128 235.21875 L 96 235.21875 L 96 203.21875 z M 132 203.21875 L 164 203.21875 L 164 235.21875 L 132 235.21875 L 132 203.21875 z M 168 203.21875 L 200 203.21875 L 200 235.21875 L 168 235.21875 L 168 203.21875 z M 204 203.21875 L 236 203.21875 L 236 235.21875 L 204 235.21875 L 204 203.21875 z M 240 203.21875 L 272 203.21875 L 272 235.21875 L 240 235.21875 L 240 203.21875 z M 276 203.21875 L 308 203.21875 L 308 235.21875 L 276 235.21875 L 276 203.21875 z M 312 203.21875 L 344 203.21875 L 344 235.21875 L 312 235.21875 L 312 203.21875 z M 348 203.21875 L 380 203.21875 L 380 235.21875 L 348 235.21875 L 348 203.21875 z M 384 203.21875 L 416 203.21875 L 416 235.21875 L 384 235.21875 L 384 203.21875 z M 420 203.21875 L 452 203.21875 L 452 235.21875 L 420 235.21875 L 420 203.21875 z M 456 203.21875 L 488 203.21875 L 488 235.21875 L 456 235.21875 L 456 203.21875 z M 24 239.21875 L 56 239.21875 L 56 271.21875 L 24 271.21875 L 24 239.21875 z M 60 239.21875 L 92 239.21875 L 92 271.21875 L 60 271.21875 L 60 239.21875 z M 96 239.21875 L 128 239.21875 L 128 271.21875 L 96 271.21875 L 96 239.21875 z M 132 239.21875 L 164 239.21875 L 164 271.21875 L 132 271.21875 L 132 239.21875 z M 168 239.21875 L 200 239.21875 L 200 271.21875 L 168 271.21875 L 168 239.21875 z M 204 239.21875 L 236 239.21875 L 236 271.21875 L 204 271.21875 L 204 239.21875 z M 240 239.21875 L 272 239.21875 L 272 271.21875 L 240 271.21875 L 240 239.21875 z M 276 239.21875 L 308 239.21875 L 308 271.21875 L 276 271.21875 L 276 239.21875 z M 312 239.21875 L 344 239.21875 L 344 271.21875 L 312 271.21875 L 312 239.21875 z M 348 239.21875 L 380 239.21875 L 380 271.21875 L 348 271.21875 L 348 239.21875 z M 384 239.21875 L 416 239.21875 L 416 271.21875 L 384 271.21875 L 384 239.21875 z M 420 239.21875 L 452 239.21875 L 452 271.21875 L 420 271.21875 L 420 239.21875 z M 456 239.21875 L 488 239.21875 L 488 271.21875 L 456 271.21875 L 456 239.21875 z M 24 275.21875 L 56 275.21875 L 56 307.21875 L 24 307.21875 L 24 275.21875 z M 60 275.21875 L 92 275.21875 L 92 307.21875 L 60 307.21875 L 60 275.21875 z M 96 275.21875 L 128 275.21875 L 128 307.21875 L 96 307.21875 L 96 275.21875 z M 132 275.21875 L 164 275.21875 L 164 307.21875 L 132 307.21875 L 132 275.21875 z M 168 275.21875 L 200 275.21875 L 200 307.21875 L 168 307.21875 L 168 275.21875 z M 204 275.21875 L 236 275.21875 L 236 307.21875 L 204 307.21875 L 204 275.21875 z M 240 275.21875 L 272 275.21875 L 272 307.21875 L 240 307.21875 L 240 275.21875 z M 276 275.21875 L 308 275.21875 L 308 307.21875 L 276 307.21875 L 276 275.21875 z M 312 275.21875 L 344 275.21875 L 344 307.21875 L 312 307.21875 L 312 275.21875 z M 348 275.21875 L 380 275.21875 L 380 307.21875 L 348 307.21875 L 348 275.21875 z M 384 275.21875 L 416 275.21875 L 416 307.21875 L 384 307.21875 L 384 275.21875 z M 420 275.21875 L 452 275.21875 L 452 307.21875 L 420 307.21875 L 420 275.21875 z M 456 275.21875 L 488 275.21875 L 488 307.21875 L 456 307.21875 L 456 275.21875 z M 24 311.21875 L 56 311.21875 L 56 343.21875 L 24 343.21875 L 24 311.21875 z M 60 311.21875 L 92 311.21875 L 92 343.21875 L 60 343.21875 L 60 311.21875 z M 96 311.21875 L 128 311.21875 L 128 343.21875 L 96 343.21875 L 96 311.21875 z M 132 311.21875 L 164 311.21875 L 164 343.21875 L 132 343.21875 L 132 311.21875 z M 168 311.21875 L 200 311.21875 L 200 343.21875 L 168 343.21875 L 168 311.21875 z M 204 311.21875 L 236 311.21875 L 236 343.21875 L 204 343.21875 L 204 311.21875 z M 240 311.21875 L 272 311.21875 L 272 343.21875 L 240 343.21875 L 240 311.21875 z M 276 311.21875 L 308 311.21875 L 308 343.21875 L 276 343.21875 L 276 311.21875 z M 312 311.21875 L 344 311.21875 L 344 343.21875 L 312 343.21875 L 312 311.21875 z M 348 311.21875 L 380 311.21875 L 380 343.21875 L 348 343.21875 L 348 311.21875 z M 384 311.21875 L 416 311.21875 L 416 343.21875 L 384 343.21875 L 384 311.21875 z M 420 311.21875 L 452 311.21875 L 452 343.21875 L 420 343.21875 L 420 311.21875 z M 456 311.21875 L 488 311.21875 L 488 343.21875 L 456 343.21875 L 456 311.21875 z M 60 347.21875 L 92 347.21875 L 92 379.21875 L 60 379.21875 L 60 347.21875 z M 96 347.21875 L 128 347.21875 L 128 379.21875 L 96 379.21875 L 96 347.21875 z M 132 347.21875 L 164 347.21875 L 164 379.21875 L 132 379.21875 L 132 347.21875 z M 168 347.21875 L 200 347.21875 L 200 379.21875 L 168 379.21875 L 168 347.21875 z M 204 347.21875 L 236 347.21875 L 236 379.21875 L 204 379.21875 L 204 347.21875 z M 240 347.21875 L 272 347.21875 L 272 379.21875 L 240 379.21875 L 240 347.21875 z M 276 347.21875 L 308 347.21875 L 308 379.21875 L 276 379.21875 L 276 347.21875 z M 312 347.21875 L 344 347.21875 L 344 379.21875 L 312 379.21875 L 312 347.21875 z M 348 347.21875 L 380 347.21875 L 380 379.21875 L 348 379.21875 L 348 347.21875 z M 384 347.21875 L 416 347.21875 L 416 379.21875 L 384 379.21875 L 384 347.21875 z M 420 347.21875 L 452 347.21875 L 452 379.21875 L 420 379.21875 L 420 347.21875 z M 96 383.21875 L 128 383.21875 L 128 415.21875 L 96 415.21875 L 96 383.21875 z M 132 383.21875 L 164 383.21875 L 164 415.21875 L 132 415.21875 L 132 383.21875 z M 168 383.21875 L 200 383.21875 L 200 415.21875 L 168 415.21875 L 168 383.21875 z M 204 383.21875 L 236 383.21875 L 236 415.21875 L 204 415.21875 L 204 383.21875 z M 240 383.21875 L 272 383.21875 L 272 415.21875 L 240 415.21875 L 240 383.21875 z M 276 383.21875 L 308 383.21875 L 308 415.21875 L 276 415.21875 L 276 383.21875 z M 312 383.21875 L 344 383.21875 L 344 415.21875 L 312 415.21875 L 312 383.21875 z M 348 383.21875 L 380 383.21875 L 380 415.21875 L 348 415.21875 L 348 383.21875 z M 384 383.21875 L 416 383.21875 L 416 415.21875 L 384 415.21875 L 384 383.21875 z M 132 419.21875 L 164 419.21875 L 164 451.21875 L 132 451.21875 L 132 419.21875 z M 168 419.21875 L 200 419.21875 L 200 451.21875 L 168 451.21875 L 168 419.21875 z M 204 419.21875 L 236 419.21875 L 236 451.21875 L 204 451.21875 L 204 419.21875 z M 240 419.21875 L 272 419.21875 L 272 451.21875 L 240 451.21875 L 240 419.21875 z M 276 419.21875 L 308 419.21875 L 308 451.21875 L 276 451.21875 L 276 419.21875 z M 312 419.21875 L 344 419.21875 L 344 451.21875 L 312 451.21875 L 312 419.21875 z M 348 419.21875 L 380 419.21875 L 380 451.21875 L 348 451.21875 L 348 419.21875 z M 168 455.21875 L 200 455.21875 L 200 487.21875 L 168 487.21875 L 168 455.21875 z M 204 455.21875 L 236 455.21875 L 236 487.21875 L 204 487.21875 L 204 455.21875 z M 240 455.21875 L 272 455.21875 L 272 487.21875 L 240 487.21875 L 240 455.21875 z M 276 455.21875 L 308 455.21875 L 308 487.21875 L 276 487.21875 L 276 455.21875 z M 312 455.21875 L 344 455.21875 L 344 487.21875 L 312 487.21875 L 312 455.21875 z" fill-opacity="0.307692" color="#000" fill="#fff8eb"/>
 <g transform="matrix(2.2290176,0,0,2.2290176,-1840.5592,-497.19898)">
  <path d="m 918.40625 276.15625 -11.625 53.125 -10.15625 -52.75 -27.9375 0 25.0625 123.09375 24.1875 0 10.96875 -52.34375 10.6875 52.375 9.625 0 4.25 -4.5625 c 7.5953 -9.21403 15.64869 -15.86472 19.875 -25 1.64819 -4.22901 2.06187 -7.86893 1.27946 -11.0712 -0.69477 -2.84362 -2.33271 -5.34215 -4.88691 -7.60162 -5.91208 -5.76385 -11.34815 -10.38335 -14.4238 -16.76468 -2.6495 -6.57206 -4.20641 -13.1212 -5.09375 -18.78125 l -8.125 -39.71875 z" fill="#fff8eb"/>
  <path d="m 1009.2448 276.60401 -37.37288 0 c -4.87583 7.23157 -8.23361 11.68508 -10.87719 17.32394 -6.66923 11.00252 -5.19992 26.48173 0.15872 37.89687 3.01595 7.72999 9.76661 12.1313 14.7195 17.62519 2.44595 2.54518 3.92466 5.52588 4.65006 8.66677 1.15093 4.98337 0.40555 10.37 -1.38166 15.06028 -4.73203 10.5908 -12.72945 17.54252 -20.90788 26.35006 l 39.67547 0 c 5.78316 -7.23555 9.93406 -16.53932 12.26056 -24.32763 1.7899 -6.10696 2.6971 -12.2355 2.1218 -17.65508 -0.7485 -5.70297 -2.7514 -11.12462 -5.693 -15.31614 -5.8359 -8.01682 -14.69513 -15.0832 -18.14696 -21.57566 -1.95978 -3.9655 -2.07478 -8.1265 -0.86363 -13.84937 2.8096 -12.73834 13.91439 -18.76416 21.65709 -30.19923 z" fill="#f38725"/>
 </g>
</svg>
