<svg xmlns="http://www.w3.org/2000/svg" xmlns:xlink="http://www.w3.org/1999/xlink" width="512" height="512">
 <defs>
  <linearGradient y2="7.01654" x2="0" y1="92.5396" gradientTransform="scale(1.0058652,0.994169)" gradientUnits="userSpaceOnUse" xlink:href="#1"/>
  <filter x="-0.192" y="-0.192" width="1.384" height="1.384" color-interpolation-filters="sRGB">
   <feGaussianBlur stdDeviation="5.28"/>
  </filter>
  <clipPath>
   <rect width="84" height="84" rx="6" x="6" y="6" fill="#fff"/>
  </clipPath>
  <linearGradient id="0">
   <stop stop-color="#fff"/>
   <stop offset="1" stop-color="#fff" stop-opacity="0"/>
  </linearGradient>
  <linearGradient y1="20.220806" x2="0" y2="138.66119" xlink:href="#0" gradientUnits="userSpaceOnUse"/>
  <filter color-interpolation-filters="sRGB">
   <feGaussianBlur stdDeviation="1.71"/>
  </filter>
  <linearGradient y1="92.5396" x2="0" y2="7.01654" id="1" gradientUnits="userSpaceOnUse" gradientTransform="scale(1.0058652,0.994169)">
   <stop/>
   <stop offset="1" stop-opacity="0.588235"/>
  </linearGradient>
  <linearGradient gradientUnits="userSpaceOnUse" xlink:href="#0" y2="138.66119" x2="0" y1="20.220806"/>
  <clipPath>
   <rect y="6" x="6" rx="6" height="84" width="84" fill="#fff"/>
  </clipPath>
  <linearGradient xlink:href="#1" gradientUnits="userSpaceOnUse" gradientTransform="scale(1.0058652,0.994169)" y1="92.5396" x2="0" y2="7.01654"/>
 </defs>
 <g transform="translate(0,-540.36217)">
  <text y="1087.7404" x="-1113.422" font-family="Gentium Book Basic" word-spacing="0" line-height="125%" letter-spacing="0" font-size="200"><tspan y="1087.7404" x="-1113.422"/>
  </text>
  <text transform="scale(4.0128361,0.24920031)" font-size="72.6698" y="3824.5505" x="27.551723" font-family="Arial" text-anchor="middle"/>
  <text y="963.92297" x="-213.80748" font-family="Gentium Book Basic" word-spacing="0" line-height="125%" letter-spacing="0" font-size="200"><tspan y="963.92297" x="-213.80748"/>
  </text>
  <text transform="scale(4.0128361,0.24920031)" font-size="72.6698" y="3327.6917" x="251.73595" font-family="Arial" text-anchor="middle"/>
  <path d="m 398.00011 233.19789 a 105.05586 105.05586 0 1 1 -210.11173 0 105.05586 105.05586 0 1 1 210.11173 0 z" transform="matrix(2.1485168,0,0,2.1485168,-373.39563,295.33259)" fill="#e4a146"/>
  <path d="M 256 6 C 258.03808 6 260.06742 6.04513 262.09375 6.09375 C 260.06546 6.04515 258.04 6 256 6 z M 256 6 C 253.73251 6 251.47175 6.03376 249.21875 6.09375 C 251.46909 6.03379 253.73514 6 256 6 z M 249.21875 6.09375 C 247.35686 6.143322 245.50777 6.222435 243.65625 6.3125 C 245.50905 6.22223 247.35553 6.143397 249.21875 6.09375 z M 264.5625 6.15625 C 268.32068 6.283073 272.06711 6.489964 275.78125 6.78125 C 272.06619 6.490435 268.32148 6.282827 264.5625 6.15625 z M 234.8125 6.90625 C 232.92905 7.06434 231.05883 7.237888 229.1875 7.4375 C 231.05739 7.237783 232.93048 7.06445 234.8125 6.90625 z M 229.1875 7.4375 C 227.40251 7.627902 225.6173 7.83473 223.84375 8.0625 C 225.61678 7.834515 227.40302 7.628094 229.1875 7.4375 z M 277.28125 6.90625 C 279.14485 7.06368 280.99205 7.239341 282.84375 7.4375 C 280.99245 7.239797 279.14442 7.0633 277.28125 6.90625 z M 282.84375 7.4375 C 284.52626 7.617554 286.20267 7.817933 287.875 8.03125 C 286.20534 7.81875 284.52353 7.616886 282.84375 7.4375 z M 222.0625 8.3125 C 220.054 8.585169 218.05554 8.867421 216.0625 9.1875 C 218.05208 8.867737 220.0575 8.584974 222.0625 8.3125 z M 216.0625 9.1875 C 214.17747 9.490234 212.27694 9.811617 210.40625 10.15625 C 212.28532 9.809614 214.16895 9.49183 216.0625 9.1875 z M 296.71875 9.3125 C 298.53141 9.61005 300.35695 9.913647 302.15625 10.25 C 300.35362 9.913546 298.53478 9.610033 296.71875 9.3125 z M 209.59375 10.3125 C 207.57203 10.691942 205.56674 11.10345 203.5625 11.53125 C 205.56761 11.10276 207.57114 10.692565 209.59375 10.3125 z M 302.46875 10.3125 C 304.61894 10.717284 306.74463 11.16551 308.875 11.625 C 306.74399 11.165975 304.61958 10.716804 302.46875 10.3125 z M 308.875 11.625 C 310.68162 12.01466 312.48938 12.415265 314.28125 12.84375 C 312.49154 12.416344 310.67942 12.01368 308.875 11.625 z M 202.9375 11.65625 C 198.85722 12.538081 194.81594 13.515382 190.8125 14.59375 C 194.82069 13.512771 198.85231 12.540218 202.9375 11.65625 z M 316.46875 13.375 C 318.04069 13.766007 319.59622 14.173155 321.15625 14.59375 C 319.5959 14.173437 318.04102 13.765701 316.46875 13.375 z M 190.375 14.71875 C 188.34983 15.268229 186.3169 15.838736 184.3125 16.4375 C 186.31381 15.839094 188.353 15.268045 190.375 14.71875 z M 184.3125 16.4375 C 182.24074 17.05639 180.20506 17.704213 178.15625 18.375 C 180.19753 17.706366 182.24848 17.05466 184.3125 16.4375 z M 178.15625 18.375 C 176.12046 19.04152 174.07489 19.720485 172.0625 20.4375 C 174.08029 19.71816 176.11497 19.04363 178.15625 18.375 z M 327.9375 16.53125 C 329.94964 17.1354 331.94701 17.753165 333.9375 18.40625 C 331.94376 17.752422 329.953 17.13593 327.9375 16.53125 z M 333.96875 18.40625 C 336.0029 19.07393 338.02044 19.781982 340.03125 20.5 C 338.02116 19.782492 336.00222 19.07337 333.96875 18.40625 z M 340.03125 20.5 C 341.85242 21.1503 343.6673 21.809005 345.46875 22.5 C 343.66889 21.80979 341.85085 21.14951 340.03125 20.5 z M 171.6875 20.5625 C 169.79232 21.24115 167.9362 21.964692 166.0625 22.6875 C 167.93316 21.965647 169.79548 21.240406 171.6875 20.5625 z M 166.0625 22.6875 C 162.07804 24.22456 158.1329 25.861438 154.25 27.59375 C 158.13566 25.860092 162.0754 24.22605 166.0625 22.6875 z M 154.25 27.59375 C 142.59715 32.792533 131.41066 38.839051 120.78125 45.6875 L 120.78125 81.03125 C 120.78125 96.49499 133.22376 108.9375 148.6875 108.9375 L 353.875 108.9375 C 369.33874 108.9375 381.78125 96.49499 381.78125 81.03125 L 381.78125 39.90625 C 374.07024 35.408075 366.08209 31.32426 357.875 27.65625 C 358.33247 29.667513 358.59375 31.752549 358.59375 33.90625 L 358.59375 68.75 C 358.59375 84.21374 346.15124 96.65625 330.6875 96.65625 L 181.4375 96.65625 C 165.97376 96.65625 153.53125 84.21374 153.53125 68.75 L 153.53125 33.90625 C 153.53125 31.731662 153.78386 29.622872 154.25 27.59375 z M 346.78125 23 C 350.12155 24.302953 353.41855 25.684684 356.6875 27.125 C 353.41725 25.683881 350.12313 24.303274 346.78125 23 z" transform="translate(0,540.36217)" fill="#e4a146"/>
  <path d="M 131.71875 39.03125 C 56.59749 82.15422 6 163.1684 6 256 C 6 394.07119 117.92881 506 256 506 C 394.07119 506 506 394.07119 506 256 C 506 163.1684 455.40251 82.15422 380.28125 39.03125 L 380.28125 79.75 C 435.55409 118.79706 471.65625 183.17941 471.65625 256 C 471.65625 375.10286 375.10286 471.65625 256 471.65625 C 136.89714 471.65625 40.34375 375.10286 40.34375 256 C 40.34375 183.17941 76.44591 118.79706 131.71875 79.75 L 131.71875 39.03125 z" transform="translate(0,540.36217)" fill="#5a4739"/>
  <path d="m 141.78693 921.58103 0 -250.43773 143.85616 0 84.56998 92.74459 0 157.69314 -228.42614 0 z" fill="#fff8eb" stroke="#fff8eb" stroke-linejoin="round" stroke-width="18.210007"/>
  <path d="M 256 6 C 219.76216 6 185.33531 13.724484 154.25 27.59375 C 153.78386 29.622872 153.53125 31.731662 153.53125 33.90625 L 153.53125 68.75 C 153.53125 84.21374 165.97376 96.65625 181.4375 96.65625 L 330.6875 96.65625 C 346.15124 96.65625 358.59375 84.21374 358.59375 68.75 L 358.59375 33.90625 C 358.59375 31.752549 358.33247 29.667513 357.875 27.65625 C 326.75635 13.751133 292.28742 6 256 6 z" transform="translate(0,540.36217)" fill="#5a4739"/>
  <path d="m 152.875 705.36217 c -0.79469 0 -1.4375 0.72334 -1.4375 1.65625 0 0.93289 0.64281 1.6875 1.4375 1.6875 l 167.03125 0 -3.0625 -3.34375 -163.96875 0 z" fill="#282629" fill-rule="evenodd" stroke="#282629" stroke-width="4.827225"/>
  <path d="m 152.875 733.73717 c -0.79469 0 -1.4375 0.75459 -1.4375 1.6875 0 0.93289 0.64281 1.65625 1.4375 1.65625 l 192.90625 0 -3.0625 -3.34375 -189.84375 0 z" fill="#282629" fill-rule="evenodd" stroke="#282629" stroke-width="4.827225"/>
  <path d="m 152.875 762.08092 c -0.79469 0 -1.4375 0.78584 -1.4375 1.71875 0 0.93289 0.64281 1.65625 1.4375 1.65625 l 200.46875 0 c 0.79466 0 1.4375 -0.72336 1.4375 -1.65625 0 -0.93291 -0.64284 -1.71875 -1.4375 -1.71875 l -200.46875 0 z" fill="#282629" fill-rule="evenodd" stroke="#282629" stroke-width="4.827225"/>
  <path d="m 152.875 790.45592 c -0.79469 0 -1.4375 0.75461 -1.4375 1.6875 0 0.9329 0.64281 1.6875 1.4375 1.6875 l 200.46875 0 c 0.79466 0 1.4375 -0.7546 1.4375 -1.6875 0 -0.93289 -0.64284 -1.6875 -1.4375 -1.6875 l -200.46875 0 z" fill="#282629" fill-rule="evenodd" stroke="#282629" stroke-width="4.827225"/>
  <path d="m 152.875 818.86217 c -0.79469 0 -1.4375 0.7546 -1.4375 1.6875 0 0.93289 0.64281 1.6875 1.4375 1.6875 l 200.46875 0 c 0.79466 0 1.4375 -0.75461 1.4375 -1.6875 0 -0.9329 -0.64284 -1.6875 -1.4375 -1.6875 l -200.46875 0 z" fill="#282629" fill-rule="evenodd" stroke="#282629" stroke-width="4.827225"/>
  <path d="m 152.875 847.26842 c -0.79469 0 -1.4375 0.7546 -1.4375 1.6875 0 0.93289 0.64281 1.6875 1.4375 1.6875 l 200.46875 0 c 0.79466 0 1.4375 -0.75461 1.4375 -1.6875 0 -0.9329 -0.64284 -1.6875 -1.4375 -1.6875 l -200.46875 0 z" fill="#282629" fill-rule="evenodd" stroke="#282629" stroke-width="4.827225"/>
  <path d="m 152.875 875.64342 c -0.79469 0 -1.4375 0.7546 -1.4375 1.6875 0 0.9329 0.64281 1.6875 1.4375 1.6875 l 200.46875 0 c 0.79466 0 1.4375 -0.7546 1.4375 -1.6875 0 -0.9329 -0.64284 -1.6875 -1.4375 -1.6875 l -200.46875 0 z" fill="#282629" fill-rule="evenodd" stroke="#282629" stroke-width="4.827225"/>
  <path d="m 152.875 904.04967 c -0.79469 0 -1.4375 0.7546 -1.4375 1.6875 0 0.9329 0.64281 1.6875 1.4375 1.6875 l 200.46875 0 c 0.79466 0 1.4375 -0.7546 1.4375 -1.6875 0 -0.9329 -0.64284 -1.6875 -1.4375 -1.6875 l -200.46875 0 z" fill="#282629" fill-rule="evenodd" stroke="#282629" stroke-width="4.827225"/>
 </g>
</svg>
