<svg xmlns="http://www.w3.org/2000/svg" xmlns:xlink="http://www.w3.org/1999/xlink" width="512" height="512">
 <defs>
  <linearGradient id="0">
   <stop stop-color="#dd6f8a"/>
   <stop offset="1" stop-color="#e75177"/>
  </linearGradient>
  <radialGradient xlink:href="#0" id="1" cx="257.48998" cy="-207.41916" r="250" gradientTransform="translate(0,-4.3972862e-6)" gradientUnits="userSpaceOnUse"/>
 </defs>
 <g transform="matrix(1 0 0 1 -1.489975 463.41916)">
  <path d="m 507.48998 -207.41918 c 0 138.07121 -111.92883 250.00002 -250 250.00002 -138.07119 0 -250.00001 -111.92881 -250.00001 -250.00002 0 -138.07116 111.92882 -249.99998 250.00001 -249.99998 138.07117 0 250 111.92882 250 249.99998 z" fill="url(#1)"/>
  <path d="M 256 31.0625 C 131.77052 31.0625 31.0625 131.77057 31.0625 256 31.0625 380.22949 131.77052 480.9375 256 480.9375 380.22946 480.9375 480.9375 380.22949 480.9375 256 480.9375 131.77057 380.22946 31.0625 256 31.0625 z m 0 37.34375 c 56.77356 0 107.62993 25.22222 142.03125 65.0625 -30.20833 0 0.0833 0 -30.25 0 l -3.1875 0 0 0.0312 c -31.9522 0.79488 -48.6331 14.15933 -80.8125 63.3125 -11.18599 17.08684 -19.40771 26.04072 -27.65625 26.53125 -8.23932 -0.50886 -16.48275 -9.46347 -27.65625 -26.53125 -32.83784 -50.15891 -49.55578 -63.04759 -82.8125 -63.34375 -31.53446 0.088 0.085 0 -31.6875 0 C 148.37007 93.62847 199.22642 68.40625 256 68.40625 z M 79.53125 192.21875 c 9.739286 0.54967 27.49506 0.90625 60.15625 0.90625 16.65109 0 24.90529 7.57355 47.4375 43.5 l 11.875 18.90625 -17.4375 27.1875 c -20.45512 31.91436 -22.08653 33.32402 -38.4375 33.4375 -21.61458 0 -43.22917 0 -64.84375 0 -6.392365 -18.88312 -9.875 -39.11345 -9.875 -60.15625 0 -22.39461 3.928807 -43.87034 11.125 -63.78125 z m 352.9375 0.0312 c 7.19046 19.90392 11.125 41.36471 11.125 63.75 0 21.04594 -3.48412 41.26951 -9.875 60.15625 -65.01832 0 0.42457 0 -64.59375 0 -16.35099 -0.11348 -17.98239 -1.52314 -38.4375 -33.4375 L 313.25 255.53125 325.125 236.625 c 22.5322 -35.92645 30.78641 -43.5 47.4375 -43.5 32.37324 0 50.10833 -0.33369 59.90625 -0.875 z M 256.125 286.3125 c 8.93951 0.38708 18.28869 11.92156 33.40625 35.71875 24.0137 37.80548 37.84617 49.24377 66 54.625 20.0721 0 34.28823 -0.0848 44.53125 -0.46875 -34.41292 41.2007 -86.17682 67.40625 -144.0625 67.40625 -57.8857 0 -109.64957 -26.20555 -144.0625 -67.40625 10.25864 0.39147 24.55446 0.46875 44.78125 0.46875 21.81456 0 42.01755 -16.81952 66.03125 -54.625 15.10183 -23.77241 24.44394 -35.3089 33.375 -35.71875 z" transform="translate(1.489975,-463.41916)" fill="#fff8eb"/>
 </g>
</svg>
