<svg xmlns="http://www.w3.org/2000/svg" xmlns:xlink="http://www.w3.org/1999/xlink" width="512" height="512">
 <defs>
  <linearGradient id="0">
   <stop stop-color="#654641"/>
   <stop offset="1" stop-color="#7b5d59"/>
  </linearGradient>
  <linearGradient xlink:href="#0" id="1" y1="166.14062" x2="0" y2="7.422926" gradientUnits="userSpaceOnUse"/>
 </defs>
 <g transform="translate(0,-540.36217)">
  <path d="M 244.5625 6.25 C 243.47907 6.29878 242.39229 6.374971 241.3125 6.4375 C 242.392 6.374999 243.47937 6.298757 244.5625 6.25 z M 267.4375 6.25 C 268.52063 6.298757 269.608 6.374999 270.6875 6.4375 C 269.60771 6.374971 268.52093 6.29878 267.4375 6.25 z M 240.75 6.46875 C 239.23732 6.559734 237.72406 6.663483 236.21875 6.78125 C 237.72447 6.663453 239.2369 6.559744 240.75 6.46875 z M 271.25 6.46875 C 272.7631 6.559744 274.27553 6.663453 275.78125 6.78125 C 274.27594 6.663483 272.76268 6.559734 271.25 6.46875 z M 225.65625 7.84375 C 224.44341 7.990515 223.23867 8.148431 222.03125 8.3125 C 223.23894 8.148371 224.44314 7.990563 225.65625 7.84375 z M 286.34375 7.84375 C 287.55686 7.990563 288.76106 8.148371 289.96875 8.3125 C 288.76133 8.148431 287.55659 7.990515 286.34375 7.84375 z M 143.96875 32.46875 C 142.89039 33.0103 141.81937 33.568375 140.75 34.125 C 141.82003 33.56798 142.88972 33.01067 143.96875 32.46875 z M 368.03125 32.46875 C 369.11028 33.01067 370.17997 33.56798 371.25 34.125 C 370.18063 33.568375 369.10961 33.0103 368.03125 32.46875 z M 116.71875 48.375 C 115.43757 49.23617 114.17047 50.11589 112.90625 51 C 114.17307 50.11399 115.4349 49.23797 116.71875 48.375 z M 112.90625 51 C 111.63951 51.885874 110.37441 52.778894 109.125 53.6875 C 110.37449 52.778753 111.63943 51.88601 112.90625 51 z M 109.125 53.6875 C 107.8781 54.594282 106.63559 55.50838 105.40625 56.4375 C 106.6381 55.50632 107.87551 54.596247 109.125 53.6875 z M 105.40625 56.4375 C 103.06145 58.20967 100.74809 60.02312 98.46875 61.875 C 100.74871 60.02225 103.06078 58.21049 105.40625 56.4375 z M 395.28125 48.375 C 396.5651 49.23797 397.82693 50.11399 399.09375 51 C 397.82953 50.11589 396.56243 49.23617 395.28125 48.375 z M 399.09375 51 C 400.36057 51.88601 401.62551 52.778753 402.875 53.6875 C 401.62559 52.778894 400.36049 51.885874 399.09375 51 z M 402.875 53.6875 C 404.12449 54.596247 405.3619 55.50632 406.59375 56.4375 C 405.36441 55.50838 404.1219 54.594282 402.875 53.6875 z M 406.59375 56.4375 C 408.93922 58.21049 411.25129 60.02225 413.53125 61.875 C 411.25191 60.02312 408.93855 58.20967 406.59375 56.4375 z M 84.21875 74.375 C 83.09939 75.434 82.00589 76.51443 80.90625 77.59375 C 82.00627 76.51391 83.099 75.4345 84.21875 74.375 z M 80.90625 77.59375 C 79.84786 78.63258 78.78985 79.66137 77.75 80.71875 C 78.78939 79.66171 79.84833 78.63226 80.90625 77.59375 z M 427.78125 74.375 C 428.901 75.4345 429.99373 76.51391 431.09375 77.59375 C 429.99411 76.51443 428.90061 75.434 427.78125 74.375 z M 431.09375 77.59375 C 432.15167 78.63226 433.21061 79.66171 434.25 80.71875 C 433.21015 79.66137 432.15214 78.63258 431.09375 77.59375 z M 77.34375 81.125 C 76.3535 82.13656 75.37934 83.15931 74.40625 84.1875 C 75.37511 83.16382 76.35788 82.13219 77.34375 81.125 z M 434.65625 81.125 C 435.64212 82.13219 436.62489 83.16382 437.59375 84.1875 C 436.62066 83.15931 435.6465 82.13656 434.65625 81.125 z M 71.28125 87.5625 C 70.60046 88.30864 69.921825 89.05813 69.25 89.8125 C 69.922059 89.05767 70.60022 88.30909 71.28125 87.5625 z M 440.71875 87.5625 C 441.39978 88.30909 442.07794 89.05767 442.75 89.8125 C 442.07818 89.05813 441.39954 88.30864 440.71875 87.5625 z M 56.375 105.5 C 55.4778 106.68821 54.595088 107.88915 53.71875 109.09375 C 54.59223 107.89314 55.4808 106.68433 56.375 105.5 z M 455.625 105.5 C 456.5192 106.68433 457.40777 107.89314 458.28125 109.09375 C 457.40491 107.88915 456.5222 106.68821 455.625 105.5 z M 50.71875 113.28125 C 49.05049 115.67627 47.42932 118.10734 45.84375 120.5625 C 47.42647 118.11175 49.05365 115.67209 50.71875 113.28125 z M 45.84375 120.5625 C 45.0093 121.85459 44.18612 123.16043 43.375 124.46875 C 44.19122 123.15185 45.0039 121.86296 45.84375 120.5625 z M 43.375 124.46875 C 42.700221 125.55716 42.03345 126.65055 41.375 127.75 C 42.02851 126.65878 42.705398 125.54909 43.375 124.46875 z M 461.28125 113.28125 C 462.94635 115.67209 464.57354 118.11175 466.15625 120.5625 C 464.57068 118.10734 462.94951 115.67627 461.28125 113.28125 z M 466.15625 120.5625 C 466.9961 121.86296 467.80878 123.15185 468.625 124.46875 C 467.81388 123.16043 466.9907 121.85459 466.15625 120.5625 z M 468.625 124.46875 C 469.2946 125.54909 469.97148 126.65878 470.625 127.75 C 469.96655 126.65055 469.29978 125.55716 468.625 124.46875 z M 34.09375 140.78125 C 33.548105 141.82996 32.999898 142.88015 32.46875 143.9375 C 33.00024 142.87929 33.547744 141.83081 34.09375 140.78125 z M 477.90625 140.78125 C 478.45226 141.83081 478.99976 142.87929 479.53125 143.9375 C 479.0001 142.88015 478.45189 141.82996 477.90625 140.78125 z M 22.59375 166.28125 C 11.880387 194.13229 6 224.3751 6 256 C 6 394.07119 117.92881 506 256 506 C 394.07119 506 506 394.07119 506 256 C 506 224.3751 500.11961 194.13229 489.40625 166.28125 L 22.59375 166.28125 z" transform="translate(0,540.36217)" fill="#f7f4b4" fill-rule="evenodd"/>
  <path d="m 36.44885 765.68165 c -0.157463 0.88977 -0.32696 1.78238 -0.473831 2.67576 l 440.04996 0 c -0.14687 -0.89338 -0.31637 -1.78599 -0.47383 -2.67576 l -439.1023 0 z m -3.372564 42.81206 c 0.01472 0.89325 0.03055 1.78508 0.05574 2.67575 l 445.73594 0 c 0.0252 -0.89067 0.041 -1.7825 0.0557 -2.67575 l -445.84742 0 z m 4.821931 42.81206 c 0.189348 0.89151 0.385353 1.78821 0.585321 2.67575 l 435.03292 0 c 0.19997 -0.88754 0.39598 -1.78424 0.58532 -2.67575 l -436.20356 0 z m 13.768981 42.81205 c 0.39274 0.89677 0.794361 1.78519 1.198515 2.67575 l 406.26858 0 c 0.40415 -0.89056 0.80577 -1.77898 1.19851 -2.67575 l -408.6656 0 z m 24.722848 42.81206 c 0.662072 0.89822 1.331661 1.78789 2.00682 2.67575 l 355.20628 0 c 0.67515 -0.88786 1.34474 -1.77753 2.00681 -2.67575 l -359.2199 0 z m 41.39056 42.81205 c 1.14404 0.90496 2.29413 1.79293 3.45618 2.67576 l 269.52642 0 c 1.16205 -0.88283 2.31214 -1.7708 3.45618 -2.67576 l -276.43878 0 z" color="#000" stroke-width="3" stroke-linecap="round" fill="#80b49c" stroke-linejoin="round" stroke="#80b49c"/>
  <path d="m 130.85696 704.58335 c -0.91122 0.0986 -1.80175 0.23004 -2.70928 0.33578 l 0 294.87343 c 0.90753 0.1058 1.79806 0.21624 2.70928 0.31474 l 0 -295.52395 z" color="#000" stroke-width="2.482861" stroke-linecap="round" fill="#e96323" stroke-linejoin="round" stroke="#e96323"/>
  <path d="m 154.57107 704.58335 c -0.91122 0.0986 -1.83362 0.23004 -2.74115 0.33578 l 0 294.87343 c 0.90753 0.1058 1.82993 0.21624 2.74115 0.31474 l 0 -295.52395 z" opacity="0.672986" color="#000" stroke-width="2.482861" stroke-linecap="round" fill="#e96323" stroke-linejoin="round" stroke="#e96323"/>
  <path d="M 256 6 C 149.55371 6 58.653873 72.53741 22.59375 166.28125 L 489.40625 166.28125 C 453.34613 72.53741 362.44629 6 256 6 z" transform="translate(0,540.36217)" fill="url(#1)" fill-rule="evenodd"/>
 </g>
</svg>
