<?xml version="1.0" encoding="UTF-8" standalone="no"?>
<!-- Created with sK1/UniConvertor (http://sk1project.org/) -->

<svg
   xmlns:dc="http://purl.org/dc/elements/1.1/"
   xmlns:cc="http://creativecommons.org/ns#"
   xmlns:rdf="http://www.w3.org/1999/02/22-rdf-syntax-ns#"
   xmlns:svg="http://www.w3.org/2000/svg"
   xmlns="http://www.w3.org/2000/svg"
   xmlns:xlink="http://www.w3.org/1999/xlink"
   xmlns:sodipodi="http://sodipodi.sourceforge.net/DTD/sodipodi-0.dtd"
   xmlns:inkscape="http://www.inkscape.org/namespaces/inkscape"
   width="595.276pt"
   height="841.89pt"
   viewBox="0 0 595.276 841.89"
   fill-rule="evenodd"
   id="svg6253"
   version="1.1"
   inkscape:version="0.48.2 r9819"
   sodipodi:docname="Abier.svg">
  <metadata
     id="metadata6281">
    <rdf:RDF>
      <cc:Work
         rdf:about="">
        <dc:format>image/svg+xml</dc:format>
        <dc:type
           rdf:resource="http://purl.org/dc/dcmitype/StillImage" />
        <dc:title></dc:title>
      </cc:Work>
    </rdf:RDF>
  </metadata>
  <sodipodi:namedview
     pagecolor="#ffffff"
     bordercolor="#666666"
     borderopacity="1"
     objecttolerance="10"
     gridtolerance="10"
     guidetolerance="10"
     inkscape:pageopacity="0"
     inkscape:pageshadow="2"
     inkscape:window-width="1600"
     inkscape:window-height="814"
     id="namedview6279"
     showgrid="false"
     inkscape:zoom="19.451857"
     inkscape:cx="208.03341"
     inkscape:cy="742.58936"
     inkscape:window-x="-8"
     inkscape:window-y="25"
     inkscape:window-maximized="1"
     inkscape:current-layer="svg6253" />
  <defs
     id="defs6255">
    <linearGradient
       id="linearGradient7093">
      <stop
         style="stop-color:#ffef0f;stop-opacity:1;"
         offset="0"
         id="stop7095" />
      <stop
         style="stop-color:#ab6503;stop-opacity:1;"
         offset="1"
         id="stop7097" />
    </linearGradient>
    <marker
       id="ArrowEnd"
       viewBox="0 0 10 10"
       refX="0"
       refY="5"
       markerUnits="strokeWidth"
       markerWidth="4"
       markerHeight="3"
       orient="auto">
      <path
         d="M 0 0 L 10 5 L 0 10 z"
         id="path6258" />
    </marker>
    <marker
       id="ArrowStart"
       viewBox="0 0 10 10"
       refX="10"
       refY="5"
       markerUnits="strokeWidth"
       markerWidth="4"
       markerHeight="3"
       orient="auto">
      <path
         d="M 10 0 L 0 5 L 10 10 z"
         id="path6261" />
    </marker>
    <linearGradient
       inkscape:collect="always"
       xlink:href="#linearGradient7093"
       id="linearGradient7099"
       x1="169.01497"
       y1="244.38924"
       x2="180.09"
       y2="244.38924"
       gradientUnits="userSpaceOnUse" />
    <linearGradient
       inkscape:collect="always"
       xlink:href="#linearGradient7093"
       id="linearGradient7267"
       gradientUnits="userSpaceOnUse"
       x1="169.01497"
       y1="244.38924"
       x2="180.09"
       y2="244.38924" />
  </defs>
  <g
     id="g7260"
     transform="matrix(0.94662369,0.32234081,-0.32234081,0.94662369,89.146432,-42.623256)"
     inkscape:export-filename="/home/adrie/Documenten/bier/BrouwHulp/BrouwHulp Gold/Artwork/abier.png"
     inkscape:export-xdpi="49.164188"
     inkscape:export-ydpi="49.164188">
    <path
       inkscape:connector-curvature="0"
       id="path6267"
       d="m 169.704,237.279 c -0.058,-0.115 -0.173,-0.519 0.173,-0.866 0.346,-0.346 3.181,-1.208 5.713,-1.038 2.532,0.169 4.619,1.986 5.54,3.289 0.921,1.303 0.939,2.345 0.693,3.289 -1.556,0.454 -1.289,-0.329 -1.385,-0.865 l -10.734,-3.809 0,0 z"
       style="fill:#f8f0d6;stroke:#fff6da;stroke-width:0.28" />
    <path
       inkscape:connector-curvature="0"
       id="path6269"
       d="m 170.35,237.847 c -1.857,5.171 -1.373,12.256 0.724,13.009 2.124,0.764 6.978,-4.404 8.836,-9.575 l -9.56,-3.434 0,0 z"
       style="fill:url(#linearGradient7267);fill-opacity:1;stroke:#edebe2;stroke-width:0.36000001" />
    <path
       inkscape:connector-curvature="0"
       id="path6271"
       d="m 164.666,257.783 c 0,0 3.788,-2.9 5.74,-7.28 l 0.978,0.352 c -1.281,4.62 -0.205,9.267 -0.205,9.267 l -6.513,-2.339 0,0 z"
       style="fill:#cccccc;stroke:none" />
    <path
       inkscape:connector-curvature="0"
       id="path6273"
       d="m 180.062,241.999 0.341,-0.951 -10.397,-3.735 -0.342,0.951 10.398,3.735 0,0 z"
       style="fill:#cccccc;stroke:none" />
    <path
       inkscape:connector-curvature="0"
       id="path6275"
       d="m 171.024,260.395 c 0.279,0.1 0.593,-0.071 0.684,-0.323 l 0,0 c 0.1,-0.279 -0.043,-0.583 -0.323,-0.684 l -6.345,-2.279 c -0.279,-0.1 -0.583,0.043 -0.684,0.322 l 0,0 c -0.09,0.252 0.043,0.584 0.323,0.684 l 6.345,2.28 0,0 z"
       style="fill:#cccccc;stroke:none" />
  </g>
  <g
     id="g6277" />
</svg>
