<?xml version="1.0" encoding="UTF-8" standalone="no"?>
<svg
   xmlns:dc="http://purl.org/dc/elements/1.1/"
   xmlns:cc="http://creativecommons.org/ns#"
   xmlns:rdf="http://www.w3.org/1999/02/22-rdf-syntax-ns#"
   xmlns:svg="http://www.w3.org/2000/svg"
   xmlns="http://www.w3.org/2000/svg"
   xmlns:sodipodi="http://sodipodi.sourceforge.net/DTD/sodipodi-0.dtd"
   xmlns:inkscape="http://www.inkscape.org/namespaces/inkscape"
   width="512"
   height="512"
   id="svg2"
   version="1.1"
   inkscape:version="0.48.4 r9939"
   sodipodi:docname="document-open-remote.svg">
  <metadata
     id="metadata16">
    <rdf:RDF>
      <cc:Work
         rdf:about="">
        <dc:format>image/svg+xml</dc:format>
        <dc:type
           rdf:resource="http://purl.org/dc/dcmitype/StillImage" />
      </cc:Work>
    </rdf:RDF>
  </metadata>
  <defs
     id="defs14" />
  <sodipodi:namedview
     pagecolor="#ffffff"
     bordercolor="#666666"
     borderopacity="1"
     objecttolerance="10"
     gridtolerance="10"
     guidetolerance="10"
     inkscape:pageopacity="0"
     inkscape:pageshadow="2"
     inkscape:window-width="1309"
     inkscape:window-height="750"
     id="namedview12"
     showgrid="false"
     inkscape:zoom="0.921875"
     inkscape:cx="299.17605"
     inkscape:cy="246.58005"
     inkscape:window-x="55"
     inkscape:window-y="-3"
     inkscape:window-maximized="1"
     inkscape:current-layer="svg2" />
  <path
     style="fill:#555753;fill-rule:evenodd"
     d="M 256 6 C 117.9288 6 6 117.92882 6 256 C 6 394.0712 117.9288 506 256 506 C 394.07118 506 506 394.0712 506 256 C 506 117.92882 394.07118 6 256 6 z M 255.625 35.34375 C 265.67811 35.34375 275.58725 36.033843 285.28125 37.34375 C 286.7602 38.746171 286.47386 40.60105 283.0625 42.96875 C 284.50379 51.100251 274.41839 48.834075 264.03125 51.96875 C 274.76597 56.367274 289.2674 84.102006 269.875 65.25 C 259.33836 69.319675 265.8742 75.924365 277 76.78125 C 265.61572 86.725368 249.59579 93.052433 240.46875 102.9375 C 223.67213 104.88695 232.05333 142.39747 217 130.375 C 207.85404 123.99288 193.56136 98.465457 205.875 92.4375 C 195.19097 86.65305 212.9084 82.945763 204.28125 76.5 C 189.2789 69.323718 210.06697 75.873438 203.125 66.5625 C 192.37647 66.713007 194.7621 55.339335 192.53125 44.5625 C 212.51793 38.566423 233.68608 35.34375 255.625 35.34375 z M 148.59375 63.21875 C 154.42007 68.053116 159.31992 74.88181 163.5 78.09375 C 154.95152 92.15978 189.16048 93.863208 173.09375 107.53125 C 168.36982 103.53415 156.29535 94.061504 167.5 111.1875 C 179.6753 125.52442 156.19406 114.0261 162.5625 118.4375 C 167.73378 135.0962 148.78901 105.06068 137.96875 111.125 C 137.60875 111.38798 137.27878 111.60818 136.96875 111.8125 C 137.29979 111.539 137.61972 111.32062 137.96875 111.125 C 144.43834 106.39909 157.96653 92.61478 143.125 84.5 C 139.80454 76.357598 135.64915 75.100799 130 74.875 C 135.98577 70.683536 142.19059 66.806877 148.59375 63.21875 z M 197.40625 74.78125 C 213.32213 82.645077 189.03457 81.398802 197.40625 74.78125 z M 387 79.0625 C 423.42147 106.35788 451.11074 144.68497 465 189.125 C 447.38314 193.94446 463.77324 204.22452 461.625 217.6875 C 466.97427 223.26583 470.54948 223.04237 472.28125 220.3125 C 473.83548 230.20234 474.68951 240.31169 474.875 250.59375 C 473.59241 250.1024 472.2687 249.61088 470.90625 249.0625 C 452.95844 229.63601 462.82661 257.00305 474.90625 257.03125 C 474.83598 263.57642 474.4756 270.04186 473.84375 276.4375 C 470.29816 278.46774 466.78649 280.09319 464.34375 281.0625 C 442.7884 297.41377 442.55881 265.64935 430.90625 254.9375 C 422.42849 239.24353 420.44181 251.55209 428.03125 259.90625 C 432.39618 277.10569 448.52744 294.22797 466.59375 291.71875 C 458.32469 313.93663 425.15637 325.9132 440.0625 353.28125 C 421.2239 366.58995 427.29983 390.62186 404.46875 403.65625 C 382.89668 417.14901 379.2959 395.01585 373.5 380.25 C 362.29141 364.54911 372.0325 348.98709 367.46875 332.5625 C 355.3406 324.85206 365.4867 316.3683 360.0625 309.25 C 341.81381 292.1779 310.05166 319.59498 297.25 290.6875 C 284.45731 271.18026 301.35667 249.8398 313.09375 234.5625 C 323.94763 222.13689 344.03725 222.28085 360.25 221.03125 C 364.89041 224.26656 364.22302 237.17414 376.96875 237.28125 C 390.66301 232.8428 406.34362 239.75817 422.25 236.71875 C 440.75071 217.03308 402.00076 228.85219 403.09375 213.40625 C 393.73261 198.7635 397.48029 231.84205 388.28125 215.5 C 389.72721 207.7788 363.67853 184.81869 369.9375 200.21875 C 381.21699 205.13622 384.30366 217.63925 371.125 220 C 381.59284 217.37197 361.23035 190.93717 347.34375 201.15625 C 339.91421 206.86899 321.61298 236.3969 312.875 214.1875 C 302.66172 191.72763 338.6121 209.27853 331 190.5625 C 313.85462 177.9858 344.02121 179.85108 347.6875 167.5 C 364.05439 166.61527 351.66545 151.87431 361.09375 146.65625 C 358.34821 156.57734 366.23369 165.65353 378.21875 159.46875 C 392.05309 164.64865 386.55767 142.378 397.15625 148.34375 C 386.95522 135.63363 423.1302 134.43828 402.15625 133.6875 C 378.95538 138.1173 398.82846 111.12383 397.375 103.90625 C 377.42113 113.18866 387.06932 136.99793 375.34375 151.71875 C 360.80677 162.53142 369.30331 149.51938 364.3125 141.25 C 345.66532 151.04238 345.05901 120.38928 361.75 113.25 C 369.50491 101.48473 376.19217 88.068173 387 79.0625 z M 122.5 80.375 C 133.25876 89.318368 123.38665 101.49029 111.28125 105.875 C 110.47169 104.50294 101.9279 119.68973 94.65625 130.71875 C 89.63692 153.8596 128.69677 149.09648 130.1875 170.8125 C 137.33086 161.09832 140.07539 144.03861 136.71875 129.21875 C 136.11871 112.6568 163.62306 131.99841 162.53125 141.875 C 175.50542 125.84529 174.48554 154.60051 187.3125 159.53125 C 203.86626 178.476 164.29101 172.12865 156.59375 183.71875 C 160.74678 181.86455 173.53976 178.16023 173.75 191.21875 C 188.60807 184.6098 175.95774 198.93235 167.59375 199.21875 C 172.50316 189.78834 158.24482 195.84188 155.84375 202.9375 C 144.37918 217.37057 123.96735 233.14688 129.5 253.1875 C 122.95453 236.0462 93.972001 237.26196 86.25 252.5 C 81.001235 271.17691 101.03143 274.10863 111.28125 264.4375 C 105.5938 276.50746 117.99031 276.61531 121.375 284.4375 C 127.04745 309.2988 151.24339 280.43932 167.34375 291.28125 C 179.6064 297.75956 208.39438 302.29069 205.3125 318.125 C 203.79134 319.90869 223.7068 321.19765 231.4375 324.8125 C 259.88165 331.02554 232.3499 355.44851 230.21875 371.40625 C 212.37739 376.62648 209.32208 392.32232 198.75 405.46875 C 181.42443 403.12567 195.51681 421.06869 178.0625 420.9375 C 168.60524 429.43208 166.23695 441.43728 163.4375 453.65625 C 157.4721 450.88814 151.62896 447.83663 145.96875 444.5625 C 149.96792 426.80144 148.1606 406.7221 154.0625 388.125 C 163.22882 367.44354 146.27203 357.76239 136.1875 343.03125 C 116.8704 328.47983 141.61324 313.47617 135.375 297.875 C 124.34286 300.93681 114.01374 287.017 101.46875 282.96875 C 78.523451 278.35541 62.800221 265.79281 51.15625 246.40625 C 38.156502 226.01165 46.067363 248.89861 53.75 256.53125 C 53.171616 263.23802 42.84241 246.24137 37.09375 236.28125 C 41.891229 178.41751 69.172043 126.92933 110.15625 90.5625 C 111.60029 94.957167 115.83678 89.444541 118.15625 83.75 C 119.58714 82.597481 121.03987 81.491976 122.5 80.375 z M 139.875 87.5625 C 150.35197 91.630914 132.78436 98.582192 139.875 87.5625 z M 295.125 100.59375 C 300.71669 102.78104 303.52311 109.9472 296.4375 112.78125 C 283.23546 125.18366 277.19203 108.35472 275.6875 106 C 275.86612 98.206861 286.8236 109.6606 295.125 100.59375 z M 118.375 106 L 121.71875 107.53125 C 145.12383 120.28244 102.62943 119.04546 118.375 106 z M 325.90625 142.28125 L 325.9375 142.28125 C 324.60813 143.73245 333.17995 153.10197 334.40625 160.84375 C 352.29933 170.21166 318.80282 182.77286 325.90625 171.03125 C 331.55659 164.07805 314.98137 149.34713 325.90625 142.28125 z M 318.4375 156.28125 C 321.18715 156.24133 320.752 160.61817 320.4375 161.8125 C 314.84325 182.41285 302.64277 160.51766 318.4375 156.28125 z M 191.96875 172.09375 C 192.06834 177.46171 198.25792 181.10857 200.46875 186.84375 C 189.69984 191.12067 177.27478 181.59927 191.96875 172.09375 z M 431.875 188.25 C 429.58102 188.95089 427.2789 189.82152 424.84375 189.96875 C 431.71253 201.87862 418.49603 189.0743 413.46875 191.9375 C 397.55853 206.86694 416.49585 208.65545 429.125 207.25 C 453.00557 211.96959 430.88024 197.55428 431.875 188.25 z M 466.8125 195.40625 C 467.57153 198.11801 468.28119 200.84063 468.9375 203.59375 C 463.12735 200.73501 464.46616 197.94711 466.8125 195.40625 z M 358.90625 208.375 C 365.27597 218.3221 349.69478 214.00503 358.90625 208.375 z M 127.59375 260.84375 L 132.40625 261.8125 L 135.5625 262.875 C 156.73773 270.74959 126.04079 265.7589 127.59375 260.84375 z M 151.40625 267.84375 C 170.58301 270.52194 142.09847 276.80811 151.40625 267.84375 z "
     id="path6" />
</svg>
