<?xml version="1.0" encoding="UTF-8" standalone="no"?>
<!-- Created with Inkscape (http://www.inkscape.org/) -->

<svg
   xmlns:dc="http://purl.org/dc/elements/1.1/"
   xmlns:cc="http://creativecommons.org/ns#"
   xmlns:rdf="http://www.w3.org/1999/02/22-rdf-syntax-ns#"
   xmlns:svg="http://www.w3.org/2000/svg"
   xmlns="http://www.w3.org/2000/svg"
   xmlns:sodipodi="http://sodipodi.sourceforge.net/DTD/sodipodi-0.dtd"
   xmlns:inkscape="http://www.inkscape.org/namespaces/inkscape"
   width="512"
   height="512"
   id="svg2"
   version="1.1"
   inkscape:version="0.48.4 r9939"
   sodipodi:docname="media-playlist-shuffle.svg">
  <sodipodi:namedview
     id="base"
     pagecolor="#ffffff"
     bordercolor="#666666"
     borderopacity="1.0"
     inkscape:pageopacity="0.0"
     inkscape:pageshadow="2"
     inkscape:zoom="0.7"
     inkscape:cx="323.38857"
     inkscape:cy="309.17877"
     inkscape:document-units="px"
     inkscape:current-layer="layer1"
     showgrid="false"
     inkscape:window-width="1309"
     inkscape:window-height="750"
     inkscape:window-x="55"
     inkscape:window-y="-3"
     inkscape:window-maximized="1"
     showguides="true"
     inkscape:guide-bbox="true" />
  <defs
     id="defs4" />
  <metadata
     id="metadata7">
    <rdf:RDF>
      <cc:Work
         rdf:about="">
        <dc:format>image/svg+xml</dc:format>
        <dc:type
           rdf:resource="http://purl.org/dc/dcmitype/StillImage" />
        <dc:title />
      </cc:Work>
    </rdf:RDF>
  </metadata>
  <g
     transform="translate(0,-540.36217)"
     id="layer1"
     inkscape:groupmode="layer"
     inkscape:label="Layer 1">
    <g
       style="display:none"
       id="layer1-2"
       inkscape:label="Livello 1"
       transform="translate(-980.68797,-95.94172)" />
    <g
       id="layer1-22"
       inkscape:label="Calque 1"
       transform="matrix(35.714286,0,0,35.714286,-29.714288,510.64788)"
       style="fill:#555753">
      <path
         id="path3042"
         d="M 11,2 11,4 9.96875,4 C 6.3947226,4 5.8310276,6.5060606 3.71875,8.3125 3.2083271,8.7490184 2.7308302,9 1.96875,9 L 1,9 1,11 1.96875,11 C 3.2252602,11 4.2683973,10.495296 5.03125,9.8125 6.8240228,8.2078687 7.6024917,6 9.96875,6 L 11,6 11,8 15,5 11,2 z m 0,6 0,2 -1.03125,0 C 8.8449703,10 8.0925133,9.4760923 7.40625,8.78125 7.0231839,9.2453484 6.5865486,9.7318264 6.0625,10.25 6.9643279,11.230124 8.0067358,12 9.96875,12 L 11,12 11,14 15,11 11,8 z M 1,5 1,7 1.96875,7 c 0.5138798,0 0.8975677,0.1355749 1.25,0.34375 C 3.6997199,6.8965985 4.1166542,6.3778221 4.5625,5.84375 3.8585498,5.3510795 2.9915493,5 1.96875,5 L 1,5 z"
         style="fill:#555753;fill-opacity:1;fill-rule:nonzero;stroke:none"
         inkscape:connector-curvature="0" />
    </g>
  </g>
</svg>
