<svg xmlns="http://www.w3.org/2000/svg" xmlns:xlink="http://www.w3.org/1999/xlink" width="512" height="512">
 <defs>
  <linearGradient id="0">
   <stop stop-color="#f4d7a8"/>
   <stop offset="1" stop-color="#cea86b"/>
  </linearGradient>
  <radialGradient xlink:href="#0" id="1" cx="256" cy="256" r="216" gradientUnits="userSpaceOnUse"/>
 </defs>
 <rect rx="147.5047" width="450" height="450" x="31" y="31" opacity="0.25" fill="#282629"/>
 <rect rx="147.5047" width="444" height="444" x="34" y="34" opacity="0.25" fill="#282629"/>
 <rect y="37" x="37" height="438" width="438" rx="147.5047" opacity="0.25" fill="#282629"/>
 <rect rx="147.5047" width="432" height="432" x="40" y="40" fill="url(#1)"/>
 <path d="m 213.5 40 0 187.34375 24.9556 -20.01544 17.70558 20.89106 15.40639 -23.115 L 298.5 227.34375 298.5 40 z" fill="#8a704d" fill-rule="evenodd"/>
 <text x="137.44733" y="414.74304" fill="#5a4739" font-family="Sans" word-spacing="0" line-height="125%" font-weight="bold" letter-spacing="0" font-size="117.97662"><tspan x="137.44733" y="414.74304">DEB</tspan>
 </text>
 <path d="m 402.4806 141.51996 c -2.41183 0.19537 -4.80849 0.29046 -7.18565 0.59191 l 1.02644 0.16368 c 1.74276 -0.63463 4.30069 -0.32734 6.15921 -0.75615 z m -10.53538 1.13437 c -3.92472 0.23278 -9.40845 2.29621 -7.72613 0.43386 -6.40223 2.85603 -17.76769 6.86968 -24.15079 12.85831 l -0.16107 -1.35025 c -2.92534 3.50415 -12.78478 10.46763 -13.56105 15.01978 l -0.75652 0.16368 c -1.51809 2.57265 -2.52636 5.50998 -3.72791 8.15878 -1.98658 3.39016 -2.93275 1.30444 -2.6475 1.83716 -3.91084 7.93532 -5.83462 14.62617 -7.50997 20.09836 1.1964 1.78236 0.0416 10.74546 0.48737 17.9376 -1.95719 35.51674 24.90704 70.0064 54.29862 77.96312 4.30322 1.54043 10.70497 1.47252 16.15451 1.62106 -6.4299 -1.83586 -7.23988 -0.94529 -13.50717 -3.13379 -4.51242 -2.1274 -5.49833 -4.57352 -8.69858 -7.34844 l 1.24265 2.26987 c -6.27419 -2.21547 -3.6471 -2.76223 -8.75257 -4.37649 l 1.35072 -1.7828 c -2.03321 -0.15797 -5.3475 -3.42602 -6.26739 -5.2411 l -2.26913 0.10601 c -2.66769 -3.29498 -4.04605 -5.66679 -3.94415 -7.51025 l -0.75652 1.24261 c -0.80885 -1.39114 -9.81286 -12.33055 -5.13267 -9.77871 -0.86448 -0.78971 -2.04748 -1.29101 -3.29569 -3.56578 l 0.97247 -1.13494 c -2.24754 -2.89759 -4.13983 -6.59762 -3.99814 -7.83383 1.19469 1.61981 2.04058 1.93843 2.86356 2.21495 -5.68643 -14.10724 -6.01107 -0.7773 -10.3195 -14.37109 l 0.91854 -0.0588 c -0.69662 -1.05429 -1.11478 -2.22883 -1.6749 -3.34926 l 0.37774 -3.94373 c -4.09405 -4.72711 -1.13499 -20.08506 -0.5412 -28.52738 0.40631 -3.43043 3.39088 -7.11904 5.67302 -12.85894 l -1.40465 -0.21408 c 2.66081 -4.64595 15.25677 -18.65305 21.07104 -17.93686 2.81646 -3.53262 -0.58107 -0.0588 -1.13458 -0.91883 6.18611 -6.39562 8.14491 -4.51809 12.31851 -5.67313 4.49864 -2.6679 -3.86243 1.02571 -1.7289 -1.02667 7.78007 -1.98632 5.51087 -4.50477 15.66831 -5.51127 0.43801 0.24525 0.0258 0.49725 -0.59525 0.70331 7.15442 -1.92968 18.87515 -0.91945 26.85218 2.75539 10.57556 4.9444 22.48842 19.58562 22.96207 33.33575 l 0.48634 0.16367 c -0.26187 5.46333 0.83155 11.7504 -1.08058 17.55967 l 1.24269 -2.64763 c 0.12626 4.09613 -1.19977 6.11836 -2.43131 9.671 l -2.21511 1.08073 c -1.82406 3.54563 0.16783 2.25523 -1.13462 5.07858 -2.85098 2.53299 -8.67864 7.92907 -10.5356 8.4284 -1.35202 -0.0582 0.94529 -1.60651 1.2427 -2.2149 -3.8157 2.6206 -3.0797 3.97064 -8.91473 5.56479 l -0.16107 -0.37879 c -14.39838 6.77399 -34.40362 -6.69151 -34.1459 -25.01443 -0.14862 1.16133 -0.43905 0.88344 -0.75647 1.35014 -0.74401 -9.42103 4.31675 -18.87655 12.91281 -22.74597 8.40253 -4.15406 18.29611 -2.47818 24.31289 3.13374 -3.3023 -4.3291 -9.9206 -8.90777 -17.72144 -8.48254 -7.63827 0.12054 -14.78994 4.99044 -17.18103 10.26551 -3.90902 2.45677 -4.34989 9.51605 -6.05118 10.80516 -2.29602 16.87135 4.31669 24.11264 15.50608 32.68725 1.75657 1.18332 0.52125 1.36601 0.75653 2.26977 -3.71372 -1.73636 -7.1456 -4.34183 -9.94124 -7.56442 1.48503 2.16835 3.11384 4.28194 5.18673 5.94326 -3.50451 -1.18268 -8.19888 -8.509 -9.56308 -8.80687 6.03737 10.8197 24.52334 19.0107 34.2 14.96622 -4.47085 0.15796 -10.20483 0.0666 -15.23594 -1.7829 -2.11276 -1.08699 -4.94394 -3.30952 -4.43042 -3.72832 13.1968 4.92425 26.82576 3.69428 38.25215 -5.45646 2.90465 -2.26161 6.05164 -6.10583 6.96965 -6.15935 -1.20564 1.81383 -0.12366 1.21609 -0.54115 2.26913 2.16456 -3.82411 -1.34241 -1.63742 2.7015 -7.50955 l 1.56677 2.16078 c -0.58107 -3.87759 4.81471 -8.5632 4.26836 -14.69544 0.61846 -0.93588 1.00125 -0.4167 1.02645 0.86408 -0.0666 -1.14688 -0.20939 -2.273 0 -4.05206 0.49984 1.32313 1.16876 2.76343 1.51277 4.16038 -1.18241 -4.61762 1.1814 -7.79496 1.78304 -10.48159 -0.58859 -0.25875 -1.82356 2.04556 -2.10715 -3.40393 0.0416 -2.37057 0.68165 -1.25589 0.91854 -1.83712 -0.45985 -0.25875 -1.68956 -2.07388 -2.43132 -5.56478 0.53368 -0.8172 1.42633 2.14627 2.16113 2.26909 -0.46452 -2.76982 -1.26385 -4.89666 -1.29668 -7.02338 -2.14201 -4.47775 -0.74983 0.56609 -2.48541 -1.94545 -2.27518 -7.11274 1.87769 -1.63426 2.16123 -4.86257 3.45089 5.00556 5.41718 12.7784 6.32131 15.99284 -0.6883 -3.91598 -1.8236 -7.72809 -3.18773 -11.40041 1.05472 0.43387 -1.70071 -8.0638 1.35072 -2.43087 -3.26067 -12.00069 -13.92626 -23.21216 -23.77252 -28.4733 1.19474 1.09954 2.70753 2.47813 2.16118 2.70165 -4.89629 -2.91017 -4.05076 -3.14699 -4.75449 -4.37629 -3.98348 -1.6218 -4.22166 0.12625 -6.86164 0 -7.51725 -3.98525 -8.96347 -3.55327 -15.88434 -6.05108 l 0.3237 1.4587 c -4.97745 -1.65449 -5.79995 0.62349 -11.18382 0 -0.32371 -0.24524 1.71639 -0.89306 3.40381 -1.13489 -4.80806 0.63591 -4.57819 -0.95105 -9.29293 0.16366 1.15654 -0.81112 2.38532 -1.36038 3.62152 -2.05569 z m 57.54026 68.34615 c 0.0364 1.2773 -0.31435 3.30272 -0.97256 5.45715 1.00104 -2.62429 1.05694 -4.06137 0.97256 -5.45715 z m -53.65041 -67.48156 c 1.37799 0.23849 2.93145 0.42814 2.70149 0.75653 1.50597 -0.33359 1.89754 -0.62356 -2.70149 -0.75653 z m 2.70149 0.75653 -0.91844 0.21407 0.8645 -0.10601 0.0566 -0.10807 z m -7.83416 13.66891 c -0.86464 0.25875 -1.93115 0.52286 -2.37722 0.91885 0.70684 -0.34656 1.50707 -0.6646 2.37722 -0.91894 z m -55.70331 16.96581 c 0.40008 3.72006 -2.79701 5.15796 0.70243 2.70115 1.88279 -4.24291 -0.7283 -1.16145 -0.70243 -2.7012 z m -2.86345 11.83239 c -2.23548 2.85596 -1.0075 3.45755 -1.24275 5.40227 0.8092 -2.47943 0.9315 -3.96462 1.24275 -5.40232 z m 92.06439 17.23481 c -0.31748 0 -0.7133 0.84444 -0.91849 1.72866 0.47127 0.25304 0.83165 3.27498 1.2968 1.40445 0.15536 -2.32334 -0.0629 -3.14211 -0.37827 -3.13322 z m 28.25682 7.83372 -0.37825 0.97246 c -0.6883 4.93822 -2.17968 9.83359 -4.48431 14.37109 2.5398 -4.7814 4.17287 -10.04145 4.86256 -15.34361 z m -29.93168 1.78308 c -0.34448 1.7085 -1.28285 3.19547 -2.16113 4.75485 -4.82888 3.03872 -0.45307 -1.83076 0 -3.67421 -5.18672 6.53714 -0.67504 3.89586 -0.86448 5.72732 1.53881 -2.12185 2.63499 -4.40289 3.02561 -6.80802 z m -10.53547 9.94113 c -2.0937 0.51698 -4.22115 0.51698 -6.37536 0.32735 -2.57956 0.0582 0.46556 1.31818 3.83591 1.8371 0.93366 -0.7281 1.79082 -1.44529 2.53945 -2.16144 z m -32.57926 0.37877 c 0.56615 2.09338 1.72208 3.84351 2.80957 5.67237 l -0.81049 -2.32325 c -0.89901 -0.99256 -1.39734 -2.16267 -1.99908 -3.34978 z m -1.99901 3.51165 -0.37773 1.78291 c 1.69436 2.30308 3.07254 4.84236 5.24062 6.64553 -1.55232 -3.04009 -2.72882 -4.30977 -4.86227 -8.42912 z" fill="#5a4739"/>
</svg>
