<svg xmlns="http://www.w3.org/2000/svg" xmlns:xlink="http://www.w3.org/1999/xlink" width="512" height="512">
 <defs>
  <linearGradient id="0">
   <stop stop-color="#c0e570"/>
   <stop offset="1" stop-color="#97bc47"/>
  </linearGradient>
  <radialGradient xlink:href="#0" id="1" cx="256" cy="256" r="216" gradientUnits="userSpaceOnUse"/>
 </defs>
 <rect rx="147.5047" width="450" height="450" x="31" y="31" opacity="0.25" fill="#282629"/>
 <rect rx="147.5047" width="444" height="444" x="34" y="34" opacity="0.25" fill="#282629"/>
 <rect y="37" x="37" height="438" width="438" rx="147.5047" opacity="0.25" fill="#282629"/>
 <rect rx="147.5047" width="432" height="432" x="40" y="40" fill="url(#1)"/>
 <path d="m 247.85742 113.85196 c -18.6199 0 -33.71432 10.44998 -33.71432 23.34068 0.54166 4.80922 3.58197 10.88212 5.18681 12.96705 7.78023 10.37363 7.78023 16.85715 5.83518 20.74727 l -62.89018 0 c -11.49398 0 -20.74727 9.25329 -20.74727 20.74727 l 0 52.51655 c 3.89011 1.94505 10.37364 1.94505 20.74727 -5.83518 2.08493 -1.60486 8.15783 -4.64516 12.96705 -5.18682 12.8907 0 23.34069 15.09441 23.34069 33.71433 0 18.6199 -10.44999 33.71432 -23.34069 33.71432 -3.9563 -0.067 -9.97099 -3.60539 -12.96705 -5.18683 -10.37363 -7.78023 -16.85716 -7.78023 -20.74727 -5.83516 l 0 68.07699 c 0 11.49398 9.25329 20.74727 20.74727 20.74727 l 83.63746 0 c 1.94505 -3.89011 1.94505 -10.37363 -5.83518 -20.74727 -1.60486 -2.08493 -4.64516 -8.15783 -5.18682 -12.96704 0 -12.89071 15.09442 -23.34069 33.71433 -23.34069 18.6199 0 33.71432 10.44998 33.71432 23.34069 -0.067 3.9563 -3.60539 9.97098 -5.18683 12.96704 -7.78022 10.37364 -7.78022 16.85716 -5.83516 20.74727 l 36.95608 0 c 11.49398 0 20.74727 -9.25329 20.74727 -20.74727 l 0 -57.70336 c 3.89012 -1.94505 10.37364 -1.94505 20.74728 5.83518 2.99606 1.58143 9.01073 5.1198 12.96704 5.18681 12.89071 0 23.34068 -15.09442 23.34068 -33.71432 0 -18.6199 -10.44997 -33.71432 -23.34068 -33.71432 -4.80921 0.54166 -10.88212 3.58197 -12.96704 5.18682 -10.37364 7.78022 -16.85716 7.78022 -20.74728 5.83517 l 0 -62.89018 c 0 -11.49398 -9.25329 -20.74727 -20.74727 -20.74727 l -57.70336 0 c -1.94505 -3.89012 -1.94505 -10.37364 5.83518 -20.74727 1.58143 -2.99605 5.1198 -9.01074 5.18681 -12.96705 0 -12.8907 -15.09442 -23.34068 -33.71432 -23.34068 z" fill="#fff8eb" color="#000"/>
</svg>
