<svg xmlns="http://www.w3.org/2000/svg" xmlns:xlink="http://www.w3.org/1999/xlink" width="512" height="512">
 <defs>
  <linearGradient id="0">
   <stop stop-color="#f4d7a8"/>
   <stop offset="1" stop-color="#cea86b"/>
  </linearGradient>
  <radialGradient xlink:href="#0" id="1" cx="256" cy="256" r="216" gradientUnits="userSpaceOnUse"/>
 </defs>
 <rect rx="147.5047" width="450" height="450" x="31" y="31" opacity="0.25" fill="#282629"/>
 <rect rx="147.5047" width="444" height="444" x="34" y="34" opacity="0.25" fill="#282629"/>
 <rect y="37" x="37" height="438" width="438" rx="147.5047" opacity="0.25" fill="#282629"/>
 <rect rx="147.5047" width="432" height="432" x="40" y="40" fill="url(#1)"/>
 <path d="m 213.5 40 0 187.34375 24.9556 -20.01544 17.70558 20.89106 15.40639 -23.115 L 298.5 227.34375 298.5 40 z" fill="#8a704d" fill-rule="evenodd"/>
 <text x="139.06029" y="414.74304" word-spacing="0" line-height="125%" font-weight="bold" letter-spacing="0" font-size="117.97662" fill="#5a4739" font-family="Sans"><tspan x="139.06029" y="414.74304">APK</tspan>
 </text>
 <path d="m 411.46578 118.80754 c -0.4017 -0.0109 -0.79396 0.18221 -1.02686 0.5273 l -7.29905 10.79593 c -5.31242 -2.1224 -11.11017 -3.10606 -16.87384 -2.99732 -5.30502 0.10008 -10.59259 1.14674 -15.45844 3.08058 l -7.3268 -10.87919 c -0.37265 -0.55214 -1.13513 -0.67272 -1.72069 -0.27753 -0.58556 0.39519 -0.76119 1.16854 -0.38854 1.72069 l 7.07702 10.4629 c -10.22393 4.83663 -18.1996 13.88521 -19.89893 26.89269 l 76.95917 0 c -2.27418 -13.33461 -10.12247 -22.25302 -20.00994 -26.97595 l 7.04927 -10.40739 c 0.37265 -0.55215 0.19702 -1.29775 -0.38854 -1.69294 -0.21958 -0.14819 -0.45281 -0.24322 -0.69383 -0.24977 z m -40.82471 20.1487 c 2.43298 0 4.41273 1.97974 4.41273 4.41273 0 2.43299 -1.97975 4.38498 -4.41273 4.38498 -2.43299 0 -4.38498 -1.95199 -4.38498 -4.38498 0 -2.43299 1.95199 -4.41273 4.38498 -4.41273 z m 33.24813 0 c 2.43299 0 4.41274 1.97974 4.41274 4.41273 0 2.43299 -1.97975 4.38498 -4.41274 4.38498 -2.43298 0 -4.38498 -1.95199 -4.38498 -4.38498 0 -2.43299 1.952 -4.41273 4.38498 -4.41273 z m -69.38258 24.81121 c -4.70304 0 -8.49243 3.58586 -8.49243 8.04838 l 0 35.71816 c 0 4.46251 3.78939 8.04838 8.49243 8.04838 4.70304 0 8.49243 -3.58587 8.49243 -8.04838 l 0 -35.71816 c 0 -4.46252 -3.78939 -8.04838 -8.49243 -8.04838 z m 105.04523 0 c -4.70304 0 -8.49243 3.58586 -8.49243 8.04838 l 0 35.71816 c 0 4.46251 3.78939 8.04838 8.49243 8.04838 4.70304 0 8.49243 -3.58587 8.49243 -8.04838 l 0 -35.71816 c 0 -4.46252 -3.78939 -8.04838 -8.49243 -8.04838 z m -90.66916 0.19427 0 6.82725 0 7.7431 0 47.95724 c 0 3.77983 2.70521 6.82724 6.05016 6.82724 l 8.15939 0 0 20.25972 c 0 4.46252 3.78939 8.04838 8.49243 8.04838 4.70304 0 8.49243 -3.58586 8.49243 -8.04838 l 0 -20.25972 14.07079 0 0 20.25972 c 0 4.46252 3.76163 8.04838 8.46467 8.04838 4.70305 0 8.49243 -3.58586 8.49243 -8.04838 l 0 -20.25972 8.76996 0 c 3.34496 0 6.05016 -3.04741 6.05016 -6.82724 l 0 -47.95724 0 -7.7431 0 -6.82725 -6.05016 0 -64.9421 0 -6.05016 0 z" fill="#5a4739" fill-rule="evenodd"/>
</svg>
