<svg xmlns="http://www.w3.org/2000/svg" xmlns:xlink="http://www.w3.org/1999/xlink" width="512" height="512">
 <defs>
  <linearGradient id="0">
   <stop stop-color="#f4d7a8"/>
   <stop offset="1" stop-color="#cea86b"/>
  </linearGradient>
  <radialGradient xlink:href="#0" id="1" cx="256" cy="256" r="216" gradientUnits="userSpaceOnUse"/>
 </defs>
 <rect rx="147.5047" width="450" height="450" x="31" y="31" opacity="0.25" fill="#282629"/>
 <rect rx="147.5047" width="444" height="444" x="34" y="34" opacity="0.25" fill="#282629"/>
 <rect y="37" x="37" height="438" width="438" rx="147.5047" opacity="0.25" fill="#282629"/>
 <rect rx="147.5047" width="432" height="432" x="40" y="40" fill="url(#1)"/>
 <path d="m 213.5 40 0 187.34375 24.9556 -20.01544 17.70558 20.89106 15.40639 -23.115 L 298.5 227.34375 298.5 40 z" fill="#8a704d" fill-rule="evenodd"/>
 <text x="124.342" y="414.74304" word-spacing="0" line-height="125%" font-weight="bold" letter-spacing="0" font-size="117.97662" fill="#5a4739" font-family="Sans"><tspan x="124.342" y="414.74304">RPM</tspan>
 </text>
 <g transform="matrix(1.0302062,0,0,1.1097313,-13.987303,-28.167108)">
  <path d="m 387.46875 175.625 c -2.15645 -0.0154 -4.31356 0.0652 -6.46875 0.1875 -0.55135 0.035 -1.08533 -0.0101 -1.625 0.21875 -3.03787 0.2847 -6.08884 0.86579 -9.09375 1.6875 -7.18739 1.85124 -14.26419 5.0728 -21.03125 9.78125 -5.07949 3.49721 -9.97577 7.90636 -14.5 13.3125 -6.69089 8.03943 -12.6934 18.54551 -16.15625 31.6875 -1.74099 6.7496 -2.83865 14.13292 -2.78125 21.59375 5.84817 -1.84917 11.68472 -3.72781 17.53125 -5.59375 2.07746 -0.56861 4.12662 -1.49519 6.21875 -1.875 -0.54773 -4.46646 -1.1443 -9.05365 -0.78125 -13.65625 0.39016 -9.65791 3.25618 -18.46744 7 -25.28125 5.28284 -9.48244 12.13431 -15.76588 19.21875 -19.84375 9.62223 -5.49294 19.8761 -6.98424 29.90625 -5.15625 6.09793 1.31301 12.15219 3.75764 17.84375 7.9375 0.28782 0.18316 0.58309 0.54358 0.90625 0.4375 l -0.0937 0.21875 c 4.24916 3.08763 8.2658 7.29811 11.78125 12.5625 4.21704 6.32543 7.70371 14.66979 8.9375 24.375 0.61239 5.16573 0.62894 10.62104 -0.125 15.75 0.0511 0.0136 0.1051 0.0179 0.15625 0.0312 7.74645 2.17998 15.50284 4.35848 23.25 6.53125 -0.38519 -8.43173 -1.97768 -16.62509 -4.4375 -23.84375 -2.25678 -6.66421 -5.18865 -12.50994 -8.4375 -17.6875 -7.94539 -12.35354 -17.67752 -20.65596 -27.75 -25.90625 l 0.0312 -0.0625 c -7.50177 -3.83273 -15.2547 -6.14612 -23.03125 -7.125 -2.15429 -0.17271 -4.3123 -0.26586 -6.46875 -0.28125 z" fill="#5a4739"/>
  <path d="m 386.56873 225.49416 c -1.49013 0 -2.73287 1.62724 -3.25647 3.94591 -1.14676 -0.35915 -2.31055 -0.70711 -3.46432 -0.98647 -0.0782 0.75989 -0.14626 1.45371 -0.20786 2.21959 1.08985 0.33287 2.17457 0.69713 3.25647 1.10978 0.0449 0.0131 0.0935 -0.0131 0.13853 0 0 3.48274 1.5767 6.28882 3.53361 6.28882 1.54921 0 2.91351 -1.72727 3.39502 -4.19253 1.30807 0.40303 2.63955 0.85262 3.94933 1.23308 3.52866 1.06895 7.00018 2.28577 10.53152 3.32938 3.71758 1.20414 7.43484 2.27607 11.15511 3.45268 5.36417 1.646 10.77335 3.48345 16.14373 5.05572 8.58818 2.79862 17.18042 5.39203 25.77455 8.13845 1.77788 0.50555 3.55493 1.10854 5.33503 1.60305 0.055 -0.74791 0.0983 -1.49189 0.20788 -2.21959 -1.79424 -0.70413 -3.60199 -1.103 -5.40434 -1.72636 -7.89997 -2.45733 -15.79708 -4.93288 -23.69594 -7.39859 -1.81549 -0.52768 -3.58487 -1.25215 -5.40434 -1.72633 -5.41093 -1.76659 -10.86347 -3.36522 -16.2823 -5.05573 -0.5278 -0.24655 -1.06387 -0.2806 -1.59359 -0.49323 -1.29559 -0.38682 -2.57934 -0.91061 -3.88004 -1.23312 -5.41414 -1.74414 -10.85892 -3.39905 -16.2823 -5.0557 -0.10542 -0.0743 -0.23071 -0.0884 -0.34643 -0.12344 -0.0386 -3.42318 -1.67021 -6.1655 -3.60289 -6.1655 z" fill="#5a4739"/>
 </g>
</svg>
