<svg xmlns="http://www.w3.org/2000/svg" width="512" height="512">
 <rect rx="147.5047" width="450" height="450" x="31" y="31" opacity="0.25" fill="#282629"/>
 <rect rx="147.5047" width="444" height="444" x="34" y="34" opacity="0.25" fill="#282629"/>
 <rect y="37" x="37" height="438" width="438" rx="147.5047" opacity="0.25" fill="#282629"/>
 <rect y="40" x="40" height="432" width="432" rx="147.5047" fill="#0078ad"/>
 <path d="M 256 81 C 159.35017 81 81 159.35017 81 256 C 81 352.64983 159.35017 431 256 431 C 352.64983 431 431 352.64983 431 256 C 431 159.35017 352.64983 81 256 81 z M 316.3125 101.84375 C 336.98903 109.92342 356.36041 122.29791 373.0625 139 C 387.12257 153.06007 398.14398 169.03092 406.09375 186.0625 L 303.84375 245.09375 C 301.84574 236.40411 297.45654 228.14404 290.6875 221.375 C 283.64274 214.33024 274.98515 209.87713 265.90625 208 L 316.3125 101.84375 z M 256 215.0625 C 278.61134 215.0625 296.9375 233.38866 296.9375 256 C 296.9375 278.61133 278.61134 296.9375 256 296.9375 C 233.38867 296.9375 215.0625 278.61133 215.0625 256 C 215.0625 233.38866 233.38867 215.0625 256 215.0625 z M 256 224.125 C 238.39655 224.125 224.125 238.39654 224.125 256 C 224.125 273.60345 238.39655 287.875 256 287.875 C 273.60346 287.875 287.875 273.60345 287.875 256 C 287.875 238.39654 273.60346 224.125 256 224.125 z M 256 233.5 C 268.42641 233.5 278.5 243.57359 278.5 256 C 278.5 268.42641 268.42641 278.5 256 278.5 C 243.57359 278.5 233.5 268.42641 233.5 256 C 233.5 243.57359 243.57359 233.5 256 233.5 z M 207.71875 266.84375 C 208.09338 268.47306 208.55285 270.09539 209.09375 271.6875 C 209.27405 272.2182 209.45743 272.72447 209.65625 273.25 C 211.25083 277.46369 213.42621 281.48702 216.21875 285.21875 C 216.56667 285.68426 216.91458 286.13807 217.28125 286.59375 C 218.3866 287.96751 219.56857 289.28732 220.84375 290.5625 C 223.04524 292.76399 225.39407 294.71213 227.875 296.40625 C 228.37103 296.74541 228.86957 297.0873 229.375 297.40625 C 231.40411 298.68633 233.49902 299.79522 235.65625 300.75 C 236.73102 301.22569 237.80675 301.63607 238.90625 302.03125 C 240.5555 302.62402 242.24582 303.15042 243.9375 303.5625 C 244.50139 303.69986 245.05757 303.82018 245.625 303.9375 L 195.21875 410.09375 C 193.91761 409.58531 192.63421 409.07377 191.34375 408.53125 C 190.062 407.99271 188.80181 407.44712 187.53125 406.875 C 184.97743 405.72482 182.47326 404.50483 179.96875 403.21875 C 178.73076 402.58363 177.50622 401.91831 176.28125 401.25 C 176.27329 401.24565 176.25796 401.25435 176.25 401.25 C 175.01703 400.57705 173.81286 399.89409 172.59375 399.1875 C 170.14819 397.76959 167.7295 396.30342 165.34375 394.75 C 164.15435 393.97608 162.98604 393.18261 161.8125 392.375 C 157.11218 389.13929 152.54422 385.65148 148.125 381.875 C 147.0275 380.93755 145.95352 379.97085 144.875 379 C 144.86932 378.99488 144.84943 379.00512 144.84375 379 C 143.75949 378.02371 142.6894 377.04133 141.625 376.03125 C 140.56061 375.02112 139.51263 373.98138 138.46875 372.9375 C 133.19013 367.65888 128.35502 362.11529 123.9375 356.34375 C 123.20239 355.3829 122.49247 354.44183 121.78125 353.46875 C 115.37594 344.71219 109.94048 335.45528 105.46875 325.875 L 207.71875 266.84375 z" fill="#fff8eb" fill-rule="evenodd"/>
 <path d="M 264.625 324.34375 C 238.3898 324.34375 217.28125 344.55138 217.28125 369.65625 L 217.28125 403.28125 C 217.28125 428.38612 238.3898 448.59375 264.625 448.59375 L 404.46875 448.59375 C 445.16512 422.39047 472 376.70252 472 324.5 L 472 324.34375 L 264.625 324.34375 z" opacity="0.479821" fill="#282629" fill-rule="evenodd"/>
 <text x="244.39098" y="422.95081" fill="#fff8eb" font-family="Sans" font-style="italic" word-spacing="0" line-height="125%" font-weight="bold" letter-spacing="0" font-size="102.20732"><tspan x="244.39098" y="422.95081">.iso</tspan>
 </text>
</svg>
