<svg xmlns="http://www.w3.org/2000/svg" width="512" height="512">
 <rect rx="147.5047" width="450" height="450" x="31" y="31" opacity="0.25" fill="#282629"/>
 <rect rx="147.5047" width="444" height="444" x="34" y="34" fill="#282629" opacity="0.25"/>
 <rect y="37" x="37" height="438" width="438" rx="147.5047" opacity="0.25" fill="#282629"/>
 <rect rx="147.5047" width="416.62384" height="416.62384" x="47.68808" y="47.68808" fill="#fff8eb"/>
 <path d="M 187.5 40 C 105.7824 40 40 105.7824 40 187.5 L 40 324.5 C 40 406.2176 105.7824 472 187.5 472 L 324.5 472 C 406.2176 472 472 406.2176 472 324.5 L 472 187.5 C 472 105.7824 406.2176 40 324.5 40 L 187.5 40 z M 188.65625 62.09375 L 323.34375 62.09375 C 393.44536 62.09375 449.90625 113.56233 449.90625 177.46875 L 449.90625 334.53125 C 449.90625 398.43767 393.44536 449.90625 323.34375 449.90625 L 188.65625 449.90625 C 118.55464 449.90625 62.09375 398.43767 62.09375 334.53125 L 62.09375 177.46875 C 62.09375 113.56233 118.55464 62.09375 188.65625 62.09375 z" fill="#f38725"/>
 <path d="M 179.125 82.625 C 125.67297 82.625 82.625 123.80867 82.625 174.9375 L 82.625 277.84375 L 82.625 282.0625 L 82.625 296.34375 C 82.625 310.03332 91.99802 321.0625 103.625 321.0625 L 408.375 321.0625 C 420.00198 321.0625 429.375 310.03332 429.375 296.34375 L 429.375 282.0625 L 429.375 277.84375 L 429.375 174.9375 C 429.375 123.80867 386.32703 82.625 332.875 82.625 L 179.125 82.625 z" fill="#f38725"/>
 <text x="202.06438" y="402.26184" font-style="italic" word-spacing="0" line-height="125%" font-weight="bold" letter-spacing="0" font-size="89.15266" fill="#282629" font-family="Sans"><tspan x="202.06438" y="402.26184">.ai</tspan>
 </text>
 <text y="540.34833" x="38.31813" fill="#000" font-family="Gentium Book Basic" font-style="normal" word-spacing="0" line-height="125%" font-weight="normal" letter-spacing="0" font-size="208.33333"><tspan y="540.34833" x="38.31813"/>
 </text>
 <text transform="scale(4.0128362,0.2492003)" font-size="75.69771" y="1605.4398" x="327.27475" fill="#000" font-family="Arial" text-anchor="middle"/>
 <text y="414.409" x="850.15082" fill="#000" font-family="Gentium Book Basic" word-spacing="0" line-height="125%" letter-spacing="0" font-size="208.33334"><tspan y="414.409" x="850.15082"/>
 </text>
 <text transform="scale(4.0128361,0.24920031)" font-size="75.69771" y="1100.0667" x="529.58374" fill="#000" font-family="Arial" text-anchor="middle"/>
 <text x="154.82085" y="276.08585" fill="#fff8eb" font-family="URW Gothic L" word-spacing="0" line-height="125%" font-weight="600" letter-spacing="0" font-size="216.60338"><tspan x="154.82085" y="276.08585">Ai</tspan>
 </text>
</svg>
