<svg xmlns="http://www.w3.org/2000/svg" xmlns:xlink="http://www.w3.org/1999/xlink" width="512" height="512">
 <defs>
  <linearGradient id="0">
   <stop stop-color="#df6a78"/>
   <stop offset="1" stop-color="#cd1d31"/>
  </linearGradient>
  <radialGradient xlink:href="#0" id="1" cx="256" cy="796.36218" r="216" gradientUnits="userSpaceOnUse"/>
 </defs>
 <g transform="translate(0,-540.36218)">
  <rect y="571.36218" x="31" height="450" width="450" rx="147.5047" opacity="0.25" fill="#282629"/>
  <rect y="574.36218" x="34" height="444" width="444" rx="147.5047" opacity="0.25" fill="#282629"/>
  <rect rx="147.5047" width="438" height="438" x="37" y="577.36218" opacity="0.25" fill="#282629"/>
  <rect rx="147.5047" width="432" height="432" x="40" y="580.36218" fill="url(#1)"/>
  <path d="M 47.46875 371.09375 C 61.934786 414.84555 96.2409 449.40218 139.84375 464.1875 L 372.15625 464.1875 C 415.7591 449.40218 450.06521 414.84555 464.53125 371.09375 L 47.46875 371.09375 z" transform="translate(0,540.36218)" fill="#fff8eb" fill-opacity="0.235294"/>
  <text y="972.21289" x="170.37256" fill="#fff8eb" font-family="Sans" font-style="italic" word-spacing="0" line-height="125%" font-weight="bold" letter-spacing="0" font-size="90"><tspan y="972.21289" x="170.37256">.eps</tspan>
  </text>
  <path d="m 263.17646,624.29051 c -19.83288,10.96508 -39.19541,22.86755 -57.38441,36.44508 -13.7015,10.22652 -26.79727,21.40877 -38.17624,34.26413 -8.41793,9.5042 -15.94471,20.00661 -21.01167,31.78616 -1e-5,0 -1e-5,10e-6 -1e-5,10e-6 -3.90731,9.07807 -6.20362,19.00807 -5.73075,29.01754 0.44344,9.00238 3.20758,17.83497 7.75983,25.61603 0,0 1e-5,1e-5 1e-5,1e-5 4.88411,8.33304 11.5911,15.45374 19.06928,21.42863 8.57382,6.85871 18.1563,12.33696 28.09956,16.82697 11.27191,5.09471 23.05977,8.96284 35.03218,11.92117 26.53209,6.55402 54.46117,7.0513 81.41028,2.35407 10e-6,0 2e-5,0 3e-5,0 12.20308,-2.1199 24.27088,-5.34261 35.86929,-9.93199 9.96453,-3.93147 19.68397,-8.91963 28.40165,-15.54226 10e-6,0 10e-6,-10e-6 2e-5,-2e-5 7.0311,-5.28964 13.52636,-11.93276 17.68621,-20.29639 1.78802,-3.63936 3.02343,-7.61913 3.4904,-11.78182 0,-10e-6 1e-5,-2e-5 1e-5,-3e-5 0.45025,-4.17183 0.0815,-8.39286 -1.03832,-12.4072 -1.27025,-4.49809 -3.36177,-8.63567 -5.9328,-12.31731 -3.13105,-4.49278 -6.87822,-8.40711 -10.87767,-11.85124 -11.23934,-9.67106 -24.36952,-16.50232 -37.5595,-22.11577 l -3.86292,9.22376 c 12.80664,5.27393 25.19395,11.3512 35.418,19.94711 3.60609,3.02875 6.89979,6.31444 9.52344,9.98413 2.1333,2.99099 3.8624,6.20038 4.84101,9.55069 0.8768,2.95378 1.21438,6.07642 0.93156,9.11594 -0.26661,3.0536 -1.17581,6.11609 -2.5203,9.01892 -3.11001,6.81939 -8.70994,12.60453 -14.98349,17.62806 -7.83585,6.20892 -16.8678,11.01733 -26.31005,14.96274 -10.98111,4.57526 -22.52945,7.8711 -34.2976,10.13361 -26.01105,4.98493 -53.10114,5.00898 -78.94151,-0.91288 -11.75987,-2.69504 -23.3183,-6.25909 -34.36085,-11.02577 -9.74012,-4.20863 -19.09231,-9.32482 -27.43006,-15.77403 -7.25732,-5.62065 -13.7671,-12.25739 -18.48255,-20.03151 0,0 -10e-6,-10e-6 -10e-6,-2e-5 -4.3887,-7.22103 -7.14792,-15.4747 -7.69981,-23.90829 -0.63477,-9.39422 1.40938,-18.93021 5.01616,-27.77611 0,-10e-6 10e-6,-2e-5 10e-6,-2e-5 4.69448,-11.50523 11.90689,-21.93361 20.05616,-31.48183 11.02361,-12.9078 23.84825,-24.24944 37.32694,-34.68335 17.89301,-13.84942 37.02941,-26.0784 56.66849,-37.38692 z" fill="#000" fill-rule="evenodd" stroke="#fff" stroke-linejoin="round" stroke-linecap="round" stroke-width="28.03935"/>
  <path transform="matrix(0.90097706,0.43386673,-0.43386673,0.90097706,0,0)" fill="#707175" fill-rule="evenodd" d="M 442.937,648.442 H685.817 V655.004 H442.937 z"/>
  <path transform="matrix(0.90097706,0.43386673,-0.43386673,0.90097706,0,0)" fill="#fff" fill-rule="evenodd" stroke="#4d4d4d" stroke-width="5.25748" d="M 550.835,633.269 H583.695 V669.884 H550.835 z"/>
  <path transform="matrix(6.7735224,3.2617989,-3.2617989,6.7735224,2613.4474,-2827.2234)" d="m -56.51786 576.33539 a 1.741072 1.741072 0 1 1 -3.482143 0 1.741072 1.741072 0 1 1 3.482143 0 z" fill="#4d4d4d" fill-rule="evenodd" id="2"/>
  <use transform="matrix(1 0 0 1 -225.463 -108.572)" xlink:href="#2"/>
 </g>
</svg>
