<?xml version="1.0" encoding="UTF-8" standalone="no"?>
<svg
   xmlns:dc="http://purl.org/dc/elements/1.1/"
   xmlns:cc="http://creativecommons.org/ns#"
   xmlns:rdf="http://www.w3.org/1999/02/22-rdf-syntax-ns#"
   xmlns:svg="http://www.w3.org/2000/svg"
   xmlns="http://www.w3.org/2000/svg"
   xmlns:xlink="http://www.w3.org/1999/xlink"
   xmlns:sodipodi="http://sodipodi.sourceforge.net/DTD/sodipodi-0.dtd"
   xmlns:inkscape="http://www.inkscape.org/namespaces/inkscape"
   width="512"
   height="512"
   id="svg2"
   version="1.1"
   inkscape:version="0.48.4 r9939"
   sodipodi:docname="video-x-generic.svg">
  <metadata
     id="metadata46">
    <rdf:RDF>
      <cc:Work
         rdf:about="">
        <dc:format>image/svg+xml</dc:format>
        <dc:type
           rdf:resource="http://purl.org/dc/dcmitype/StillImage" />
        <dc:title />
      </cc:Work>
    </rdf:RDF>
  </metadata>
  <sodipodi:namedview
     pagecolor="#ffffff"
     bordercolor="#666666"
     borderopacity="1"
     objecttolerance="10"
     gridtolerance="10"
     guidetolerance="10"
     inkscape:pageopacity="0"
     inkscape:pageshadow="2"
     inkscape:window-width="640"
     inkscape:window-height="743"
     id="namedview44"
     showgrid="false"
     inkscape:zoom="1.0605469"
     inkscape:cx="201.78269"
     inkscape:cy="234.31308"
     inkscape:window-x="57"
     inkscape:window-y="0"
     inkscape:window-maximized="0"
     inkscape:current-layer="svg2" />
  <defs
     id="defs4">
    <linearGradient
       y1="92.5396"
       x2="0"
       y2="7.01654"
       gradientUnits="userSpaceOnUse"
       gradientTransform="scale(1.0058652,0.994169)"
       id="linearGradient6">
      <stop
         id="stop8" />
      <stop
         offset="1"
         stop-opacity="0.588235"
         id="stop10" />
    </linearGradient>
    <filter
       color-interpolation-filters="sRGB"
       id="filter12">
      <feGaussianBlur
         stdDeviation="1.71"
         id="feGaussianBlur14" />
    </filter>
    <linearGradient
       id="0">
      <stop
         stop-color="#424242"
         id="stop17" />
      <stop
         offset="1"
         stop-color="#282629"
         id="stop19" />
    </linearGradient>
    <radialGradient
       xlink:href="#0"
       id="1"
       gradientUnits="userSpaceOnUse"
       gradientTransform="matrix(0.87096775,0,0,0.87096775,33.032259,-437.60576)"
       cx="256"
       cy="796.36218"
       r="248" />
  </defs>
  <rect
     rx="147.5047"
     width="450"
     height="450"
     x="31"
     y="31"
     opacity="0.25"
     fill="#282629"
     id="rect22" />
  <rect
     rx="147.5047"
     width="444"
     height="444"
     x="34"
     y="34"
     opacity="0.25"
     fill="#282629"
     id="rect24" />
  <rect
     y="37"
     x="37"
     height="438"
     width="438"
     rx="147.5047"
     opacity="0.25"
     fill="#282629"
     id="rect26" />
  <rect
     rx="147.5047"
     y="40.43549"
     x="40.43549"
     height="431.12903"
     width="431.12903"
     fill="url(#1)"
     stroke="#282629"
     stroke-width="0.870968"
     id="rect28" />
  <rect
     style="fill:#ae4a32"
     id="rect32"
     width="243.87657"
     height="189.50444"
     x="134.06171"
     y="161.24777"
     rx="41.74028"
     ry="35.22044" />
  <path
     style="fill:#ffffff;stroke:#fff8eb;stroke-width:23.609478;stroke-linecap:round;stroke-linejoin:round"
     inkscape:connector-curvature="0"
     id="path34"
     d="m 221.14184,214.21497 0,83.57006 69.71632,-41.78507 -69.71632,-41.78499 z" />
  <path
     d="M 406 74.84375 L 406 100.5625 L 442.65625 100.5625 L 442.65625 100 C 435.76924 90.70903 427.81499 82.26709 418.96875 74.84375 L 406 74.84375 z M 406 123.0625 L 406 148.75 L 442.65625 148.75 L 442.65625 123.0625 L 406 123.0625 z M 406 171.25 L 406 197 L 442.65625 197 L 442.65625 171.25 L 406 171.25 z M 406 219.5 L 406 245.1875 L 442.65625 245.1875 L 442.65625 219.5 L 406 219.5 z M 406 267.6875 L 406 293.40625 L 442.65625 293.40625 L 442.65625 267.6875 L 406 267.6875 z M 406 315.90625 L 406 341.625 L 442.65625 341.625 L 442.65625 315.90625 L 406 315.90625 z M 406 364.125 L 406 389.84375 L 442.65625 389.84375 L 442.65625 364.125 L 406 364.125 z M 406 412.34375 L 406 438.0625 L 417.875 438.0625 C 427.05135 430.51193 435.29367 421.88133 442.40625 412.34375 L 406 412.34375 z"
     fill="#fff8eb"
     id="path36" />
  <path
     d="M 93.03125 74.84375 C 84.18501 82.26709 76.23076 90.70903 69.34375 100 L 69.34375 100.5625 L 106 100.5625 L 106 74.84375 L 93.03125 74.84375 z M 69.34375 123.0625 L 69.34375 148.75 L 106 148.75 L 106 123.0625 L 69.34375 123.0625 z M 69.34375 171.25 L 69.34375 197 L 106 197 L 106 171.25 L 69.34375 171.25 z M 69.34375 219.5 L 69.34375 245.1875 L 106 245.1875 L 106 219.5 L 69.34375 219.5 z M 69.34375 267.6875 L 69.34375 293.40625 L 106 293.40625 L 106 267.6875 L 69.34375 267.6875 z M 69.34375 315.90625 L 69.34375 341.625 L 106 341.625 L 106 315.90625 L 69.34375 315.90625 z M 69.34375 364.125 L 69.34375 389.84375 L 106 389.84375 L 106 364.125 L 69.34375 364.125 z M 69.59375 412.34375 C 76.70633 421.88133 84.948646 430.51193 94.125 438.0625 L 106 438.0625 L 106 412.34375 L 69.59375 412.34375 z"
     fill="#fff8eb"
     id="path38" />
</svg>
