<svg xmlns="http://www.w3.org/2000/svg" width="512" height="512">
 <rect rx="147.5047" width="450" height="450" x="31" y="31" opacity="0.25" fill="#282629"/>
 <rect rx="147.5047" width="444" height="444" x="34" y="34" fill="#282629" opacity="0.25"/>
 <rect y="37" x="37" height="438" width="438" rx="147.5047" opacity="0.25" fill="#282629"/>
 <rect rx="147.5047" width="416.62384" height="416.62384" x="47.68808" y="47.68808" fill="#fff8eb"/>
 <path d="M 187.5 40 C 105.7824 40 40 105.7824 40 187.5 L 40 324.5 C 40 406.2176 105.7824 472 187.5 472 L 324.5 472 C 406.2176 472 472 406.2176 472 324.5 L 472 187.5 C 472 105.7824 406.2176 40 324.5 40 L 187.5 40 z M 188.65625 62.09375 L 323.34375 62.09375 C 393.44536 62.09375 449.90625 113.56233 449.90625 177.46875 L 449.90625 334.53125 C 449.90625 398.43767 393.44536 449.90625 323.34375 449.90625 L 188.65625 449.90625 C 118.55464 449.90625 62.09375 398.43767 62.09375 334.53125 L 62.09375 177.46875 C 62.09375 113.56233 118.55464 62.09375 188.65625 62.09375 z" fill="#ef6a47"/>
 <path d="M 179.125 82.625 C 125.67297 82.625 82.625 123.80867 82.625 174.9375 L 82.625 277.84375 L 82.625 282.0625 L 82.625 296.34375 C 82.625 310.03332 91.99802 321.0625 103.625 321.0625 L 408.375 321.0625 C 420.00198 321.0625 429.375 310.03332 429.375 296.34375 L 429.375 282.0625 L 429.375 277.84375 L 429.375 174.9375 C 429.375 123.80867 386.32703 82.625 332.875 82.625 L 179.125 82.625 z" fill="#ef6a47"/>
 <g transform="matrix(3.2188841,0,0,3.2188841,878.79815,-863.71387)" fill="#fff8eb" stroke="#fff8eb">
  <path d="m -234.74903 359.04247 82.53281 0 c -8.52113 -17.33513 -11.48601 -38.27732 -30.88803 -32.86486 -6.03053 2.47065 -18.28224 21.23471 -23.2278 16.80308 -15.34937 -20.56322 -25.61337 -0.29269 -28.41698 16.06178 z"/>
  <path transform="matrix(1.1209784,0,0,1.1209784,29.421557,-39.536881)" d="m -201.8121 315.25504 c 0 5.30751 -4.30258 9.6101 -9.6101 9.6101 -5.30751 0 -9.6101 -4.30259 -9.6101 -9.6101 0 -5.30752 4.30259 -9.6101 9.6101 -9.6101 5.30752 0 9.6101 4.30258 9.6101 9.6101 z" fill-rule="evenodd"/>
 </g>
 <text x="131.65207" y="402.26184" font-style="italic" word-spacing="0" line-height="125%" font-weight="bold" letter-spacing="0" font-size="89.15266" fill="#282629" font-family="Sans" stroke="none"><tspan x="131.65207" y="402.26184">.webp</tspan>
 </text>
</svg>
