<svg xmlns="http://www.w3.org/2000/svg" xmlns:xlink="http://www.w3.org/1999/xlink" width="512" height="512">
 <defs>
  <linearGradient y2="7.01654" x2="0" y1="92.5396" gradientTransform="scale(1.0058652,0.994169)" gradientUnits="userSpaceOnUse" xlink:href="#1"/>
  <filter x="-0.192" y="-0.192" width="1.384" height="1.384" color-interpolation-filters="sRGB">
   <feGaussianBlur stdDeviation="5.28"/>
  </filter>
  <clipPath>
   <rect width="84" height="84" rx="6" x="6" y="6" fill="#fff"/>
  </clipPath>
  <linearGradient id="0">
   <stop stop-color="#fff"/>
   <stop offset="1" stop-color="#fff" stop-opacity="0"/>
  </linearGradient>
  <linearGradient y1="20.220806" x2="0" y2="138.66119" xlink:href="#0" gradientUnits="userSpaceOnUse"/>
  <filter color-interpolation-filters="sRGB">
   <feGaussianBlur stdDeviation="1.71"/>
  </filter>
  <linearGradient y1="92.5396" x2="0" y2="7.01654" id="1" gradientUnits="userSpaceOnUse" gradientTransform="scale(1.0058652,0.994169)">
   <stop/>
   <stop offset="1" stop-opacity="0.588235"/>
  </linearGradient>
  <linearGradient gradientUnits="userSpaceOnUse" xlink:href="#0" y2="138.66119" x2="0" y1="20.220806"/>
  <clipPath>
   <rect y="6" x="6" rx="6" height="84" width="84" fill="#fff"/>
  </clipPath>
  <linearGradient xlink:href="#1" gradientUnits="userSpaceOnUse" gradientTransform="scale(1.0058652,0.994169)" y1="92.5396" x2="0" y2="7.01654"/>
 </defs>
 <rect rx="147.5047" width="450" height="450" x="31" y="31" opacity="0.25" fill="#282629"/>
 <rect rx="147.5047" width="444" height="444" x="34" y="34" fill="#282629" opacity="0.25"/>
 <rect y="37" x="37" height="438" width="438" rx="147.5047" opacity="0.25" fill="#282629"/>
 <rect rx="147.5047" width="416.62384" height="416.62384" x="47.68808" y="47.68808" fill="#fff8eb"/>
 <path d="M 187.5 40 C 105.7824 40 40 105.7824 40 187.5 L 40 324.5 C 40 406.2176 105.7824 472 187.5 472 L 324.5 472 C 406.2176 472 472 406.2176 472 324.5 L 472 187.5 C 472 105.7824 406.2176 40 324.5 40 L 187.5 40 z M 188.65625 62.09375 L 323.34375 62.09375 C 393.44536 62.09375 449.90625 113.56233 449.90625 177.46875 L 449.90625 334.53125 C 449.90625 398.43767 393.44536 449.90625 323.34375 449.90625 L 188.65625 449.90625 C 118.55464 449.90625 62.09375 398.43767 62.09375 334.53125 L 62.09375 177.46875 C 62.09375 113.56233 118.55464 62.09375 188.65625 62.09375 z" fill="#c74a6c"/>
 <path d="M 179.125 82.625 C 125.67297 82.625 82.625 123.80867 82.625 174.9375 L 82.625 277.84375 L 82.625 282.0625 L 82.625 296.34375 C 82.625 310.03332 91.99802 321.0625 103.625 321.0625 L 408.375 321.0625 C 420.00198 321.0625 429.375 310.03332 429.375 296.34375 L 429.375 282.0625 L 429.375 277.84375 L 429.375 174.9375 C 429.375 123.80867 386.32703 82.625 332.875 82.625 L 179.125 82.625 z" fill="#c74a6c"/>
 <text x="176.51135" y="402.26184" font-style="italic" word-spacing="0" line-height="125%" font-weight="bold" letter-spacing="0" font-size="89.15266" fill="#282629" font-family="Sans"><tspan x="176.51135" y="402.26184">.xcf</tspan>
 </text>
 <text y="540.34833" x="38.31813" fill="#000" font-family="Gentium Book Basic" font-style="normal" word-spacing="0" line-height="125%" font-weight="normal" letter-spacing="0" font-size="208.33333"><tspan y="540.34833" x="38.31813"/>
 </text>
 <text transform="scale(4.0128362,0.2492003)" font-size="75.69771" y="1605.4398" x="327.27475" fill="#000" font-family="Arial" text-anchor="middle"/>
 <g transform="matrix(0.65939633,0,0,0.65939633,-363.51113,-334.1211)" fill="#fff8eb">
  <path d="m 856.66274 660.66345 1.28125 11 0.59375 12.28125 0.6875 18.3125 -0.3125 15.3125 -1.03125 11.8125 c 0 0 -3.05407 16.9052 -3.15625 17.6875 -0.10217 0.78234 -3.75 11.75 -3.75 11.75 l -6.0625 11.40625 -7.03125 8.21875 -11.90625 7.84375 -12.34375 2.15625 -12.5625 -0.25 -5.46875 -2.3125 -12.21875 21.96875 -8.84375 10.53125 -7.46875 10.1875 13.96875 20.65625 27.53125 31.28125 20.875 19.8125 16.875 13.96875 16.84375 11.5625 22.8125 12.53125 25.5 12.96875 21.90625 6.78125 21.5 1.9375 26.03125 1.09375 24.65626 -3.9375 20.4375 -8.25 20.5937 -11.8125 19.2188 -14.40625 15.3125 -15.875 14.1562 -17.25 12.125 -17.1875 10.0313 -17.125 18.4375 -36.9375 11.4062 -30.09375 12.0313 -32.375 6.9062 -26.84375 2.5313 -10.46875 c 5.594 -30.39447 -0.097 -0.0696 5.3919 -30.29355 -16.5043 10.64971 0.1629 0.0282 -16.6107 10.60605 l -45 35.34375 -23.7187 12.46875 -15.9063 4.59375 c -3.3331 -8.76809 -9.1884 -13.83201 -15.25 -19.875 l -9.0937 -8.5 -8.4063 -5.96875 -12.4062 -7.84375 -10.5625 -4.9375 -12.9688 -4.71875 -22.21871 -4.4375 -13.21875 -1.5625 -11.21875 0.15625 c -10.21553 -0.2985 -12.64021 0.28803 -18.6875 1.125 -1.74059 0.31354 -11.31986 3.34334 -12.34375 3.375 -1.0239 0.0317 -22.21875 6.125 -22.21875 6.125 l -20 -18.65625 -13.8125 -12.46875 z"/>
  <path transform="matrix(0.98814739,-0.42983074,0.43298198,1.2122677,-330.47766,991.05736)" d="m 1060.6601 183.19534 c 0 23.15251 -18.7688 41.92133 -41.9213 41.92133 -23.15254 0 -41.92136 -18.76882 -41.92136 -41.92133 0 -23.15251 18.76882 -41.92133 41.92136 -41.92133 23.1525 0 41.9213 18.76882 41.9213 41.92133 z" fill-rule="evenodd"/>
 </g>
 <text y="414.409" x="850.15082" fill="#000" font-family="Gentium Book Basic" word-spacing="0" line-height="125%" letter-spacing="0" font-size="208.33334"><tspan y="414.409" x="850.15082"/>
 </text>
 <text transform="scale(4.0128361,0.24920031)" font-size="75.69771" y="1100.0667" x="529.58374" fill="#000" font-family="Arial" text-anchor="middle"/>
</svg>
