<svg xmlns="http://www.w3.org/2000/svg" xmlns:xlink="http://www.w3.org/1999/xlink" width="512" height="512">
 <defs>
  <linearGradient id="0">
   <stop stop-color="#fff8eb"/>
   <stop offset="1" stop-color="#eee"/>
  </linearGradient>
  <linearGradient y1="92.5396" x2="0" y2="7.01654" id="1" gradientUnits="userSpaceOnUse" gradientTransform="scale(1.0058652,0.994169)">
   <stop/>
   <stop offset="1" stop-opacity="0.588235"/>
  </linearGradient>
  <filter color-interpolation-filters="sRGB">
   <feGaussianBlur stdDeviation="1.71"/>
  </filter>
  <linearGradient y2="7.01654" x2="0" y1="92.5396" gradientTransform="scale(1.0058652,0.994169)" gradientUnits="userSpaceOnUse" xlink:href="#1"/>
  <radialGradient xlink:href="#0" id="2" cx="256" cy="256" r="216" gradientUnits="userSpaceOnUse"/>
 </defs>
 <rect rx="147.5047" width="450" height="450" x="31" y="31" opacity="0.25" fill="#282629"/>
 <rect rx="147.5047" width="444" height="444" x="34" y="34" opacity="0.25" fill="#282629"/>
 <rect y="37" x="37" height="438" width="438" rx="147.5047" opacity="0.25" fill="#282629"/>
 <rect rx="147.5047" width="432" height="432" x="40" y="40" fill="url(#2)"/>
 <path d="M 472 191.25 C 464.13187 200.28758 457.62877 210.91556 452.0625 220.6875 C 438.30069 245.66798 430.83756 274.19664 420.125 300.5 C 340.07219 345.88468 254.27684 381.59389 164.625 402.78125 C 127.2895 382.94966 87.51125 359.32122 44.15625 359.53125 C 48.09595 375.81418 54.740087 391.04072 63.5625 404.6875 C 74.26132 407.32354 84.73734 410.88761 94.375 416.3125 C 91.44868 416.89015 88.54346 417.6719 85.59375 418.125 C 81.78147 418.26517 77.87112 418.56439 73.90625 418.8125 C 86.962454 434.53923 103.24958 447.47172 121.75 456.65625 C 134.713 454.38525 147.59741 451.89144 160.34375 450.09375 C 172.13344 457.18053 183.83662 464.48949 195.40625 472 L 269.34375 472 C 251.28764 458.66714 232.84227 445.8653 213.96875 433.625 C 280.6179 414.15178 345.87837 387.71985 407.46875 355.625 C 399.48407 389.3455 393.0461 423.40729 388.15625 457.6875 C 406.70183 448.84674 423.09152 436.25317 436.34375 420.875 C 442.20807 389.44393 449.73214 358.37411 459.28125 328.03125 C 463.47221 325.37811 467.7264 322.72139 472 320.03125 L 472 191.25 z" fill="#282629" fill-opacity="0.235294"/>
 <path d="M 407.84375 77.625 C 407.34447 77.627 406.84578 77.6369 406.34375 77.65625 C 376.36849 77.56542 357.89037 105.71182 344.625 129 C 330.8632 153.98048 323.46256 182.54039 312.75 208.84375 C 232.69719 254.22843 146.87059 289.93764 57.21875 311.125 C 51.54513 308.11133 45.79422 304.99685 40 301.90625 L 40 324.5 C 40 336.6748 41.463086 348.47854 44.21875 359.78125 C 47.13912 359.30545 50.06637 358.87809 52.96875 358.46875 C 108.03542 391.56933 160.98561 429.17231 209 472 L 312.78125 472 C 316.63025 392.38165 328.02227 312.16842 351.875 236.375 C 390.68331 211.80702 434.98568 186.73546 453.6875 142.46875 C 456.47771 135.09209 457.03139 127.43506 455.8125 120.0625 C 448.73617 106.25856 439.56535 93.70736 428.6875 82.875 C 422.32788 79.54192 415.24475 77.6015 407.84375 77.625 z M 405.3125 118.21875 C 409.96058 117.89823 416.82457 125.18495 413.4375 129.625 C 405.26359 147.187 388.34642 158.19776 373.65625 170 C 374.49414 167.78747 375.34963 165.58757 376.1875 163.375 C 382.08404 147.73 391.65462 132.42891 402.1875 120.5 C 402.86705 118.97998 404.01103 118.30849 405.3125 118.21875 z M 300.09375 263.96875 C 283.94346 332.17383 273.96341 401.73272 270.65625 471.8125 C 269.6025 470.84013 268.55376 469.87864 267.5 468.90625 C 217.8582 421.67761 164.07528 379.23705 106.5625 341.9375 C 173.21165 322.46428 238.50336 296.0636 300.09375 263.96875 z" fill="#cd1d31"/>
 <text x="103.52544" y="132.02718" fill="#282629" font-family="Sans" text-align="start" font-style="italic" word-spacing="0" line-height="125%" font-weight="bold" letter-spacing="0" font-size="79.57261"><tspan x="103.52544" y="132.02718">.pdf</tspan>
 </text>
</svg>
