<svg xmlns="http://www.w3.org/2000/svg" xmlns:xlink="http://www.w3.org/1999/xlink" width="512" height="512">
 <defs>
  <linearGradient id="0">
   <stop stop-color="#fff8eb"/>
   <stop offset="1" stop-color="#fff8eb" stop-opacity="0.786232"/>
  </linearGradient>
  <radialGradient xlink:href="#0" id="1" cx="256" cy="256" r="216" gradientUnits="userSpaceOnUse"/>
 </defs>
 <rect rx="147.5047" width="450" height="450" x="31" y="31" opacity="0.25" fill="#282629"/>
 <rect rx="147.5047" width="444" height="444" x="34" y="34" opacity="0.25" fill="#282629"/>
 <rect y="37" x="37" height="438" width="438" rx="147.5047" opacity="0.25" fill="#282629"/>
 <rect rx="147.5047" width="432" height="432" x="40" y="40" fill="url(#1)"/>
 <g transform="matrix(1.0206026,0,0,1.0206026,-59.467394,803.90556)" fill="#c74a6c">
  <path d="m 262.99369 -537.58906 -109.44337 0 -3.19906 43.10017 3.40575 0 c 2.44906 -32.28068 5.14303 -37.9304 34.53188 -37.9304 3.40574 0 8.93916 0 10.46201 0 3.62018 0.58823 3.62018 2.95053 3.62018 7.43582 l 0 106.08001 c 0 7.04276 -0.57352 9.19116 -16.53887 9.19116 l -5.38033 0 0 4.70588 c 9.09223 -0.18717 18.56693 -0.37433 27.86585 -0.37433 9.26816 0 18.77363 0.18716 27.8581 0.37433 l 0 -4.70588 -5.28849 0 c -15.72765 0 -16.29396 -2.1484 -16.29396 -9.19116 l 0 -106.08001 c 0 -4.30348 0 -6.64037 3.41337 -7.43582 l 10.40105 0 c 28.99834 0 31.83777 5.61897 34.28656 37.9304 l 3.41351 0"/>
  <path d="m 356.58096 -413.19892 -3.38422 0 c -4.12954 28.9304 -6.5631 44.65636 -39.69044 44.65636 l -26.13832 0 c -7.52137 0 -7.87886 -0.98936 -7.87886 -7.69791 l 0 -54.53596 17.76534 0 c 17.76521 0 19.46107 6.74331 19.46107 23.20985 l 3.02686 0 0 -50.75392 -3.02686 0 c 0 16.18981 -1.69586 22.80878 -19.46107 22.80878 l -17.76534 0 0 -48.35284 c 0 -6.58555 0.35695 -7.57085 7.87886 -7.57085 l 25.75049 0 c 29.14233 0 32.53416 11.99997 35.17306 37.79405 l 3.39185 0 -4.51738 -43.15099 -95.35905 0 0 5.35694 c 13.33915 0 15.47617 0 15.47617 8.7687 l 0 105.29259 c 0 8.76734 -2.10667 8.76734 -15.47617 8.76734 l 0 4.71258 98.00557 0"/>
  <path d="m 407.99917 -482.80975 28.21052 -38.81545 c 2.82565 -3.81015 8.5695 -11.65105 24.21505 -11.84891 l 0 -4.381 c -4.3659 0.3476 -11.61108 0.3476 -16.18459 0.3476 -6.28261 0 -14.10519 0 -18.85585 -0.3476 l 0 4.381 c 6.1056 0.54814 7.60707 4.17647 7.60707 7.10026 0 2.16978 -0.93182 3.63502 -2.28676 5.43716 l -25.16933 34.74859 -28.21052 -39.29805 c -1.32486 -1.9786 -1.50895 -2.5508 -1.50895 -3.09224 0 -1.63502 2.07874 -4.72726 8.39224 -4.89572 l 0 -4.381 c -6.10562 0.3476 -15.42966 0.3476 -21.71227 0.3476 -4.93528 0 -14.46722 0 -19.07148 -0.3476 l 0 4.381 c 10.47123 0 13.89742 0.37435 18.10905 6.00936 l 36.77988 51.41032 -33.16892 46.11356 c -8.18434 11.27805 -20.57283 11.47591 -24.21453 11.47591 l 0 4.38101 c 4.35775 -0.34759 11.61068 -0.34759 16.18406 -0.34759 5.14317 0 14.10532 0 18.85585 0.34759 l 0 -4.38101 c -5.89771 -0.54812 -7.60707 -4.17646 -7.60707 -7.10159 0 -2.34492 0.93182 -3.63368 1.89411 -4.92379 l 30.49727 -42.36089 33.16905 46.39831 c 1.50133 2.00803 1.50133 2.55081 1.50133 3.09225 0 1.42914 -1.70934 4.55079 -8.38473 4.92378 l 0 4.38236 c 6.1056 -0.3476 15.42965 -0.3476 21.71226 -0.3476 4.93488 0 14.46775 0 19.09515 0.3476 l 0 -4.38236 c -12.21215 0 -14.13687 -0.88234 -17.92471 -6.008"/>
 </g>
 <path d="M 109.625 62.09375 C 75.05996 83.54025 50.11522 118.87814 42.46875 160.4375 L 469.53125 160.4375 C 461.88478 118.87814 436.94004 83.54025 402.375 62.09375 L 109.625 62.09375 z" opacity="0.45" fill="#c74a6c" fill-rule="evenodd"/>
 <text x="164.4906" y="145.37723" font-style="italic" word-spacing="0" line-height="125%" font-weight="bold" letter-spacing="0" font-size="105.13955" fill="#fff8eb" font-family="Sans"><tspan x="164.4906" y="145.37723">.bib</tspan>
 </text>
</svg>
