<svg xmlns="http://www.w3.org/2000/svg" xmlns:xlink="http://www.w3.org/1999/xlink" width="512" height="512">
 <defs>
  <linearGradient id="0">
   <stop stop-color="#4aa7d1"/>
   <stop offset="1" stop-color="#0078ad"/>
  </linearGradient>
  <radialGradient xlink:href="#0" id="1" cx="256" cy="256" r="216" gradientUnits="userSpaceOnUse"/>
  <linearGradient gradientTransform="scale(1.0058652,0.994169)" gradientUnits="userSpaceOnUse" id="2" y2="7.01654" x2="0" y1="92.5396">
   <stop/>
   <stop offset="1" stop-opacity="0.588235"/>
  </linearGradient>
  <filter color-interpolation-filters="sRGB">
   <feGaussianBlur stdDeviation="1.71"/>
  </filter>
  <linearGradient gradientUnits="userSpaceOnUse" xlink:href="#3" y2="138.66119" x2="0" y1="20.220806"/>
  <linearGradient id="3">
   <stop stop-color="#fff"/>
   <stop offset="1" stop-color="#fff" stop-opacity="0"/>
  </linearGradient>
  <clipPath>
   <rect y="6" x="6" rx="6" height="84" width="84" fill="#fff"/>
  </clipPath>
  <filter color-interpolation-filters="sRGB" height="1.384" width="1.384" y="-0.192" x="-0.192">
   <feGaussianBlur stdDeviation="5.28"/>
  </filter>
  <linearGradient xlink:href="#2" gradientUnits="userSpaceOnUse" gradientTransform="scale(1.0058652,0.994169)" y1="92.5396" x2="0" y2="7.01654"/>
 </defs>
 <rect rx="147.5047" width="450" height="450" x="31" y="31" opacity="0.25" fill="#282629"/>
 <rect rx="147.5047" width="444" height="444" x="34" y="34" opacity="0.25" fill="#282629"/>
 <rect y="37" x="37" height="438" width="438" rx="147.5047" opacity="0.25" fill="#282629"/>
 <rect rx="147.5047" width="432" height="432" x="40" y="40" fill="url(#1)"/>
 <text y="509.17853" x="-479.93329" font-family="Gentium Book Basic" word-spacing="0" line-height="125%" letter-spacing="0" font-size="208.33333"><tspan y="509.17853" x="-479.93329"/>
 </text>
 <text transform="scale(4.0128362,0.2492003)" font-size="75.69771" y="1480.3606" x="198.12633" font-family="Arial" text-anchor="middle"/>
 <path d="M 154.78125 78.59375 C 121.56536 78.59375 94.65625 91.85167 94.65625 139.5 C 94.65625 171.13459 106.50001 209.93639 124.1875 232.46875 C 124.02329 234.24954 123.85116 236.07148 123.53125 237.84375 C 122.47665 242.68376 120.74371 248.09426 116.21875 250.78125 C 111.14154 253.79547 105.51791 255.71246 99.96875 257.65625 C 79.63244 264.50062 58.690891 270.64723 40 281.34375 L 40 324.5 C 40 335.38194 41.19078 345.95703 43.40625 356.15625 L 68.1875 356.15625 C 72.16752 351.28949 76.45352 348.56052 80.96875 345.59375 C 106.81941 328.42566 135.52207 319.03561 163.28125 309.875 C 167.26979 308.56373 171.22329 307.24671 175.1875 305.90625 L 176 305.65625 C 181.86542 303.60178 187.44949 301.66322 192 299.15625 C 192.20557 298.67699 192.49222 297.85225 192.84375 296.53125 C 169.99027 263.16818 154.46875 211.64309 154.46875 167.46875 C 154.46875 129.99551 166.22748 102.24788 188.4375 85.34375 C 178.83535 80.48915 167.24558 78.59375 154.78125 78.59375 z" opacity="0.668246" fill="#282629"/>
 <path d="M 355.25 78.59375 C 342.61777 78.59375 330.93005 80.52946 321.25 85.53125 C 343.27266 102.45485 354.9375 130.17879 354.9375 167.5 C 354.9375 210.50902 340.4989 260.02024 318.5625 293.59375 C 318.6225 293.97448 318.68181 294.31528 318.75 294.6875 C 319.32773 297.29178 319.79936 298.66866 320.09375 299.34375 C 324.90455 302.02589 330.66392 304.14499 337.09375 306.40625 L 346.75 309.59375 C 375.22805 319.04872 404.66173 328.74506 431.1875 346.34375 C 435.47405 349.17186 439.51863 351.2907 443.3125 356.15625 L 468.59375 356.15625 C 470.80922 345.95703 472 335.38194 472 324.5 L 472 281.75 C 453.31666 271.03253 432.37406 264.70747 412.0625 257.875 C 406.51211 255.93121 400.8836 253.89042 395.8125 250.875 C 391.28026 248.18313 389.57853 242.71988 388.53125 237.875 C 388.06657 235.31086 387.79853 232.71348 387.65625 230.125 C 404.33533 207.30436 415.40625 170.06501 415.40625 139.53125 C 415.40625 91.87319 388.46467 78.59375 355.25 78.59375 z" opacity="0.668246" fill="#282629"/>
 <path d="M 254.6875 86.25 C 210.40127 86.25 174.5 103.93076 174.5 167.46875 C 174.5 209.6409 190.32171 261.383 213.90625 291.4375 C 213.68608 293.80581 213.39449 296.17146 212.96875 298.53125 C 211.55896 304.98175 209.31089 312.23024 203.28125 315.8125 C 196.5084 319.83632 188.99303 322.3742 181.59375 324.96875 C 150.92253 335.29467 119.19151 344.39081 91.96875 362.46875 C 80.56561 369.97643 67.858665 386.48543 60.96875 400.53125 C 86.7133 443.41238 133.64096 472 187.5 472 L 324.5 472 C 377.61693 472 424.00559 444.21137 449.96875 402.3125 C 443.84739 388.06321 432.23515 371.25766 420.09375 363.25 C 392.86371 345.18179 361.14 335.69118 330.46875 325.375 C 323.06816 322.78045 315.53946 320.02138 308.78125 316 C 302.73702 312.40801 300.49503 305.08402 299.09375 298.625 C 298.47704 295.19966 298.06598 291.70575 297.875 288.25 C 320.11299 257.8245 334.875 208.2137 334.875 167.5 C 334.875 103.95592 298.97617 86.25 254.6875 86.25 z" opacity="0.668246" fill="#282629"/>
</svg>
