<svg xmlns="http://www.w3.org/2000/svg" xmlns:xlink="http://www.w3.org/1999/xlink" width="512" height="512">
 <defs>
  <linearGradient id="0">
   <stop stop-color="#3790b7"/>
   <stop offset="1" stop-color="#0078ad"/>
  </linearGradient>
  <radialGradient xlink:href="#0" id="1" cx="256" cy="256" r="204.64192" gradientUnits="userSpaceOnUse"/>
 </defs>
 <rect rx="147.5047" width="450" height="450" x="31" y="31" opacity="0.25" fill="#282629"/>
 <rect rx="147.5047" width="444" height="444" x="34" y="34" opacity="0.25" fill="#282629"/>
 <rect y="37" x="37" height="438" width="438" rx="147.5047" opacity="0.25" fill="#282629"/>
 <rect rx="147.5047" width="409.28384" height="409.28384" x="51.35807" y="51.35807" fill="url(#1)"/>
 <g transform="translate(643.03934,120.92501)" fill="#fff8eb">
  <path d="m -388.94027 -1.84291 c -11.14174 0.0494 -21.7821 1.01188 -31.14479 2.68468 -27.58065 4.92006 -32.58857 15.21812 -32.58857 34.20942 l 0 25.08193 65.17714 0 0 8.36069 -65.17714 0 -24.46024 0 c -18.94219 0 -35.52856 11.49626 -40.71652 33.36586 -5.98426 25.06749 -6.24969 40.71084 0 66.8851 4.63303 19.48355 15.69715 33.36599 34.63934 33.36599 l 22.40934 0 0 -30.06752 c 0 -21.72201 18.61333 -40.88348 40.71665 -40.88348 l 65.10062 0 c 18.12245 0 32.58857 -15.06559 32.58857 -33.44212 l 0 -62.66645 c 0 -17.83505 -14.90048 -31.2329 -32.58857 -34.20942 -11.19603 -1.88196 -22.81286 -2.73687 -33.95583 -2.68468 z m -35.24684 20.17298 c 6.73255 0 12.23012 5.64195 12.23012 12.57922 0 6.91271 -5.49757 12.50259 -12.23012 12.50259 -6.75661 0 -12.23024 -5.58988 -12.23024 -12.50259 0 -6.93727 5.47363 -12.57922 12.23024 -12.57922 z"/>
  <path d="m -313.81097 67.99034 0 29.0085 c 0 22.4898 -19.06176 41.41879 -40.79907 41.41879 l -65.23353 0 c -17.86861 0 -32.65483 15.29696 -32.65483 33.19606 l 0 62.20456 c 0 17.70413 15.39075 28.11657 32.65483 33.19569 20.67349 6.08113 40.4981 7.17939 65.23353 0 16.44187 -4.76198 32.65471 -14.34395 32.65471 -33.19569 l 0 -24.89708 -65.23341 0 0 -8.29861 65.23341 0 32.6552 0 c 18.98007 0 26.05333 -13.24323 32.65397 -33.1203 6.81905 -20.46308 6.52907 -40.1416 0 -66.392 -4.69041 -18.90035 -13.64922 -33.11992 -32.65397 -33.11992 z m -36.68863 157.5293 c 6.77018 0 12.25504 5.54804 12.25504 12.41028 0 6.88569 -5.48486 12.4868 -12.25504 12.4868 -6.74601 0 -12.25505 -5.60111 -12.25505 -12.4868 0 -6.86224 5.50904 -12.41028 12.25505 -12.41028 z"/>
 </g>
 <path d="M 187.5 40 C 105.7824 40 40 105.7824 40 187.5 L 40 324.5 C 40 406.2176 105.7824 472 187.5 472 L 324.5 472 C 406.2176 472 472 406.2176 472 324.5 L 472 187.5 C 472 105.7824 406.2176 40 324.5 40 L 187.5 40 z M 182.53125 66.96875 L 329.46875 66.96875 C 393.48906 66.96875 445.03125 115.96964 445.03125 176.84375 L 445.03125 335.15625 C 445.03125 396.03036 393.48906 445.03125 329.46875 445.03125 L 182.53125 445.03125 C 118.51094 445.03125 66.96875 396.03036 66.96875 335.15625 L 66.96875 176.84375 C 66.96875 115.96964 118.51094 66.96875 182.53125 66.96875 z" fill="#fff8eb"/>
</svg>
