<?xml version="1.0" encoding="UTF-8" standalone="no"?>
<!-- Created with Inkscape (http://www.inkscape.org/) -->

<svg
   xmlns:dc="http://purl.org/dc/elements/1.1/"
   xmlns:cc="http://creativecommons.org/ns#"
   xmlns:rdf="http://www.w3.org/1999/02/22-rdf-syntax-ns#"
   xmlns:svg="http://www.w3.org/2000/svg"
   xmlns="http://www.w3.org/2000/svg"
   xmlns:xlink="http://www.w3.org/1999/xlink"
   xmlns:sodipodi="http://sodipodi.sourceforge.net/DTD/sodipodi-0.dtd"
   xmlns:inkscape="http://www.inkscape.org/namespaces/inkscape"
   width="512"
   height="512"
   id="svg2"
   version="1.1"
   inkscape:version="0.48.4 r9939"
   sodipodi:docname="document-print-direct.svg">
  <sodipodi:namedview
     id="base"
     pagecolor="#ffffff"
     bordercolor="#666666"
     borderopacity="1.0"
     inkscape:pageopacity="0.0"
     inkscape:pageshadow="2"
     inkscape:zoom="0.98994951"
     inkscape:cx="213.10784"
     inkscape:cy="317.19595"
     inkscape:document-units="px"
     inkscape:current-layer="layer1"
     showgrid="false"
     inkscape:window-width="1309"
     inkscape:window-height="750"
     inkscape:window-x="55"
     inkscape:window-y="-3"
     inkscape:window-maximized="1"
     showguides="true"
     inkscape:guide-bbox="true" />
  <defs
     id="defs4">
    <linearGradient
       y2="7.0165396"
       x2="45.447727"
       y1="92.539597"
       x1="45.447727"
       gradientTransform="scale(1.0058652,0.994169)"
       gradientUnits="userSpaceOnUse"
       id="linearGradient3167"
       xlink:href="#ButtonShadow"
       inkscape:collect="always" />
    <filter
       x="-0.192"
       y="-0.192"
       width="1.3839999"
       height="1.3839999"
       color-interpolation-filters="sRGB"
       id="filter3794">
      <feGaussianBlur
         id="feGaussianBlur3796"
         stdDeviation="5.28" />
    </filter>
    <clipPath
       id="clipPath3613">
      <rect
         width="84"
         height="84"
         rx="6"
         ry="6"
         x="6"
         y="6"
         id="rect3615"
         style="fill:#ffffff;fill-opacity:1;fill-rule:nonzero;stroke:none" />
    </clipPath>
    <linearGradient
       id="linearGradient3737-4">
      <stop
         id="stop3739-2"
         style="stop-color:#ffffff;stop-opacity:1"
         offset="0" />
      <stop
         id="stop3741-9"
         style="stop-color:#ffffff;stop-opacity:0"
         offset="1" />
    </linearGradient>
    <linearGradient
       x1="48"
       y1="20.220806"
       x2="48"
       y2="138.66119"
       id="linearGradient3613"
       xlink:href="#linearGradient3737-4"
       gradientUnits="userSpaceOnUse" />
    <filter
       color-interpolation-filters="sRGB"
       id="filter3174">
      <feGaussianBlur
         id="feGaussianBlur3176"
         stdDeviation="1.71" />
    </filter>
    <linearGradient
       x1="45.447727"
       y1="92.539597"
       x2="45.447727"
       y2="7.0165396"
       id="ButtonShadow"
       gradientUnits="userSpaceOnUse"
       gradientTransform="scale(1.0058652,0.994169)">
      <stop
         id="stop3750"
         style="stop-color:#000000;stop-opacity:1"
         offset="0" />
      <stop
         id="stop3752"
         style="stop-color:#000000;stop-opacity:0.58823532"
         offset="1" />
    </linearGradient>
    <linearGradient
       y2="7.0165396"
       x2="45.447727"
       y1="92.539597"
       x1="45.447727"
       gradientTransform="scale(1.0058652,0.994169)"
       gradientUnits="userSpaceOnUse"
       id="linearGradient3167-9"
       xlink:href="#ButtonShadow-5"
       inkscape:collect="always" />
    <filter
       x="-0.192"
       y="-0.192"
       width="1.3839999"
       height="1.3839999"
       color-interpolation-filters="sRGB"
       id="filter3794-5">
      <feGaussianBlur
         id="feGaussianBlur3796-0"
         stdDeviation="5.28" />
    </filter>
    <clipPath
       id="clipPath3613-3">
      <rect
         width="84"
         height="84"
         rx="6"
         ry="6"
         x="6"
         y="6"
         id="rect3615-8"
         style="fill:#ffffff;fill-opacity:1;fill-rule:nonzero;stroke:none" />
    </clipPath>
    <linearGradient
       id="linearGradient3737-4-7">
      <stop
         id="stop3739-2-5"
         style="stop-color:#ffffff;stop-opacity:1"
         offset="0" />
      <stop
         id="stop3741-9-0"
         style="stop-color:#ffffff;stop-opacity:0"
         offset="1" />
    </linearGradient>
    <linearGradient
       x1="48"
       y1="20.220806"
       x2="48"
       y2="138.66119"
       id="linearGradient3613-6"
       xlink:href="#linearGradient3737-4-7"
       gradientUnits="userSpaceOnUse" />
    <filter
       color-interpolation-filters="sRGB"
       id="filter3174-0">
      <feGaussianBlur
         id="feGaussianBlur3176-7"
         stdDeviation="1.71" />
    </filter>
    <linearGradient
       x1="45.447727"
       y1="92.539597"
       x2="45.447727"
       y2="7.0165396"
       id="ButtonShadow-5"
       gradientUnits="userSpaceOnUse"
       gradientTransform="scale(1.0058652,0.994169)">
      <stop
         id="stop3750-7"
         style="stop-color:#000000;stop-opacity:1"
         offset="0" />
      <stop
         id="stop3752-0"
         style="stop-color:#000000;stop-opacity:0.58823532"
         offset="1" />
    </linearGradient>
    <linearGradient
       gradientTransform="scale(1.0058652,0.994169)"
       gradientUnits="userSpaceOnUse"
       id="ButtonShadow-6"
       y2="7.0165396"
       x2="45.447727"
       y1="92.539597"
       x1="45.447727">
      <stop
         offset="0"
         style="stop-color:#000000;stop-opacity:1"
         id="stop3750-8" />
      <stop
         offset="1"
         style="stop-color:#000000;stop-opacity:0.58823532"
         id="stop3752-4" />
    </linearGradient>
    <filter
       id="filter3174-07"
       color-interpolation-filters="sRGB">
      <feGaussianBlur
         stdDeviation="1.71"
         id="feGaussianBlur3176-3" />
    </filter>
    <linearGradient
       gradientUnits="userSpaceOnUse"
       xlink:href="#linearGradient3737-4-0"
       id="linearGradient3613-2"
       y2="138.66119"
       x2="48"
       y1="20.220806"
       x1="48" />
    <linearGradient
       id="linearGradient3737-4-0">
      <stop
         offset="0"
         style="stop-color:#ffffff;stop-opacity:1"
         id="stop3739-2-6" />
      <stop
         offset="1"
         style="stop-color:#ffffff;stop-opacity:0"
         id="stop3741-9-8" />
    </linearGradient>
    <clipPath
       id="clipPath3613-2">
      <rect
         style="fill:#ffffff;fill-opacity:1;fill-rule:nonzero;stroke:none"
         id="rect3615-4"
         y="6"
         x="6"
         ry="6"
         rx="6"
         height="84"
         width="84" />
    </clipPath>
    <filter
       id="filter3794-1"
       color-interpolation-filters="sRGB"
       height="1.3839999"
       width="1.3839999"
       y="-0.192"
       x="-0.192">
      <feGaussianBlur
         stdDeviation="5.28"
         id="feGaussianBlur3796-1" />
    </filter>
    <linearGradient
       inkscape:collect="always"
       xlink:href="#ButtonShadow-6"
       id="linearGradient3167-5"
       gradientUnits="userSpaceOnUse"
       gradientTransform="scale(1.0058652,0.994169)"
       x1="45.447727"
       y1="92.539597"
       x2="45.447727"
       y2="7.0165396" />
  </defs>
  <metadata
     id="metadata7">
    <rdf:RDF>
      <cc:Work
         rdf:about="">
        <dc:format>image/svg+xml</dc:format>
        <dc:type
           rdf:resource="http://purl.org/dc/dcmitype/StillImage" />
        <dc:title />
      </cc:Work>
    </rdf:RDF>
  </metadata>
  <g
     transform="translate(0,-540.36217)"
     id="layer1"
     inkscape:groupmode="layer"
     inkscape:label="Layer 1">
    <path
       style="fill:#555753;fill-rule:evenodd;stroke:none"
       d="M 148.71875 27.25 L 148.71875 120.71875 L 127.65625 120.71875 C 124.46044 120.71875 121.81321 121.93487 119.84375 123.875 C 117.87428 125.81514 116.58853 128.50358 116.125 131.4375 L 89.5625 299.59375 C 88.635428 305.46162 94.702124 310.28125 101.09375 310.28125 L 410.90625 310.28125 C 417.29787 310.28125 422.89979 305.5044 422.4375 299.59375 L 409.28125 131.4375 C 408.81895 125.52685 404.14162 120.71875 397.75 120.71875 L 376.96875 120.71875 L 376.96875 27.25 L 148.71875 27.25 z M 304.25 43.375 A 10.001 10.001 0 0 1 313.3125 58.0625 L 258.59375 160.875 L 288.4375 159.84375 A 10.001 10.001 0 0 1 297.5 174.75 L 227.5 299.21875 A 10.001 10.001 0 0 1 209.15625 291.59375 L 235.65625 198.5 L 207.5625 198.625 A 10.001 10.001 0 0 1 198.375 184.5625 L 258.21875 50.25 A 10.001 10.001 0 0 1 267.09375 44.3125 L 304.25 43.375 z "
       transform="translate(0,540.36217)"
       id="rect4709" />
    <g
       style="display:none"
       id="layer1-2"
       inkscape:label="Livello 1"
       transform="translate(-980.68797,-95.94172)" />
    <g
       style="display:none"
       id="layer2"
       transform="matrix(5.0048665,0,0,5.0048665,112.23108,535.29647)">
      <rect
         style="opacity:0.9;fill:url(#linearGradient3167);fill-opacity:1;fill-rule:nonzero;stroke:none;filter:url(#filter3174)"
         id="rect3745"
         y="7"
         x="5"
         ry="6"
         rx="6"
         height="85"
         width="86" />
    </g>
    <g
       style="display:none"
       id="layer5"
       transform="matrix(5.0048665,0,0,5.0048665,112.23108,535.29647)">
      <rect
         style="opacity:0.1;fill:url(#linearGradient3613);fill-opacity:1;fill-rule:nonzero;stroke:#ffffff;stroke-width:0.5;stroke-linecap:round;stroke-linejoin:miter;stroke-miterlimit:4;stroke-opacity:1;stroke-dasharray:none;stroke-dashoffset:0;filter:url(#filter3794)"
         id="rect3171"
         clip-path="url(#clipPath3613)"
         y="15"
         x="15"
         ry="12"
         rx="12"
         height="66"
         width="66" />
    </g>
    <path
       id="path23392"
       d="m -316.78308,591.21157 c -7.14531,0 -13.73984,3.81198 -17.3125,10 -3.572,6.18782 -3.57244,13.81236 0,20 0.93042,1.61104 2.04646,3.04899 3.34375,4.3125 0.0826,0.0834 0.16601,0.1682 0.25,0.25 l 251.0625,250.8125 c 3.49073,2.78916 7.9381,4.35751 12.40625,4.375 7.25001,-0.0194 14.30437,-4.32132 17.65625,-10.75 3.35187,-6.42869 2.85356,-14.70088 -1.28125,-20.65625 -0.24864,-0.36263 -0.50925,-0.71705 -0.78125,-1.0625 l -250.90625,-251.125 c -0.0831,-0.0838 -0.16538,-0.16767 -0.25,-0.25 -3.62369,-3.65228 -8.63636,-5.90625 -14.1875,-5.90625 z m 60,0 c -7.14531,0 -13.73984,3.81198 -17.3125,10 -3.572,6.18782 -3.57244,13.81236 0,20 0.93042,1.61104 2.04646,3.04899 3.34375,4.3125 0.0826,0.0834 0.16601,0.1682 0.25,0.25 l 251.0625,250.8125 c 3.49073,2.78916 7.9381,4.35751 12.40625,4.375 7.25001,-0.0194 14.30437,-4.32132 17.65625,-10.75 3.35187,-6.42869 2.85356,-14.70088 -1.28125,-20.65625 -0.24864,-0.36263 -0.50925,-0.71705 -0.78125,-1.0625 l -250.90625,-251.125 c -0.0831,-0.0838 -0.16538,-0.16767 -0.25,-0.25 -3.62369,-3.65228 -8.63636,-5.90625 -14.1875,-5.90625 z m 60,0 c -7.14531,0 -13.73984,3.81198 -17.3125,10 -3.572,6.18782 -3.57244,13.81236 0,20 0.93042,1.61104 2.04646,3.04899 3.34375,4.3125 0.0826,0.0834 0.16601,0.1682 0.25,0.25 l 251.0625,250.8125 c 3.49073,2.78916 7.9381,4.35751 12.40625,4.375 7.25001,-0.0194 14.30437,-4.32132 17.65625,-10.75 3.35187,-6.42869 2.85356,-14.70088 -1.28125,-20.65625 -0.24864,-0.36263 -0.50925,-0.71705 -0.78125,-1.0625 l -250.90625,-251.125 c -0.0831,-0.0838 -0.16538,-0.16767 -0.25,-0.25 -3.62369,-3.65228 -8.63636,-5.90625 -14.1875,-5.90625 z"
       style="color:#000000;fill:#000000;fill-opacity:0.31372549;fill-rule:nonzero;stroke:none;stroke-width:1;marker:none;visibility:visible;display:none;overflow:visible;enable-background:accumulate"
       inkscape:connector-curvature="0" />
    <path
       style="fill:#000000;fill-opacity:0.31372549;display:none"
       d="m -361.72058,733.24282 c -13.68822,0 -15.12334,0.90811 -18.53125,11.46875 -3.10272,9.6149 -5.58214,11.94264 -17.5,16.5625 -10.82927,4.19761 -13.95272,4.18843 -19.25,0 -6.42335,-5.07882 -14.49754,-3.37778 -22.4375,4.6875 -8.94958,9.09087 -9.56672,12.08171 -4.53125,21.6875 4.51032,8.60399 4.35382,12.31767 -1.0625,24.21875 -4.1018,9.01279 -6.071,10.85652 -14.4375,13.59375 -9.5265,3.11674 -11.25,6.04487 -11.25,19.03125 0.5279,4.71107 0.0399,10.88912 2.8125,14.125 l 27.4998,27.468 c 1.89574,5.36628 1.00954,6.65222 -2.34375,12.96875 -5.4123,10.19505 -5.11929,12.6863 3.8125,21.78125 l 303.8716,303.77778 c 0.89361,0.8261 1.71879,1.5093 2.5,2.125 5.4413,4.2885 8.61909,3.6237 16.34375,-0.6562 6.40819,-3.5506 8.97406,-4.3252 15.15625,-2.3125 l 27.0893,27.0601 c 1.96656,1.8769 3.99006,2.125 13.65625,2.125 13.92231,0 16.40271,-1.3453 18.28125,-9.75 2.49744,-11.1737 3.89535,-12.7018 15.71875,-17.5625 12.90303,-5.3046 13.89086,-5.387 19.71875,-1.4063 8.99544,6.1443 14.28384,5.595 22.53125,-2.3125 9.68494,-9.2858 11.58765,-14.7284 7.34375,-21.1875 -6.2342,-9.4882 -6.42153,-12.1884 -1.59375,-23.7812 4.69773,-11.2805 7.33865,-13.5392 17.59375,-15.1875 7.61758,-1.2244 9.08108,-3.8602 9.5625,-16.9688 0.33544,-9.1338 0.0112,-13.7319 -2.5,-16.6562 l -28.03025,-28.061 c -1.71725,-5.771 -1.12477,-8.7527 1.5625,-12.4063 5.49514,-7.4711 4.89238,-14.3792 -1.9375,-21.7187 -0.10464,-0.1125 -0.20925,-0.2022 -0.3125,-0.3125 -0.62602,-0.6688 -1.23371,-1.3152 -1.8125,-1.9063 L -284.65823,763.24432 c -0.0975,-0.0969 -0.21623,-0.18666 -0.3125,-0.28125 -0.11124,-0.10789 -0.20283,-0.20774 -0.3125,-0.3125 -7.56242,-7.33508 -11.42574,-7.39724 -20.6875,-2.5 -6.90096,3.64894 -9.81198,4.29749 -14.8125,2.59375 l -26.34255,-26.341 c -2.72899,-2.83931 -6.74787,-3.1605 -14.5948,-3.1605 z"
       id="path3132"
       inkscape:connector-curvature="0"
       sodipodi:nodetypes="sscssssscccsccssccsssssssssccsssccccsccs" />
    <g
       style="display:none"
       id="layer1-2-9"
       inkscape:label="Livello 1"
       transform="translate(-1014.6976,454.44253)" />
    <g
       style="display:none"
       id="layer1-2-2"
       inkscape:label="Livello 1"
       transform="translate(-235.31215,-42.798866)" />
    <g
       style="display:none"
       id="layer2-8"
       transform="matrix(5.0048665,0,0,5.0048665,857.6069,588.43932)">
      <rect
         style="opacity:0.9;fill:url(#linearGradient3167-5);fill-opacity:1;fill-rule:nonzero;stroke:none;filter:url(#filter3174-07)"
         id="rect3745-57"
         y="7"
         x="5"
         ry="6"
         rx="6"
         height="85"
         width="86" />
    </g>
    <g
       style="display:none"
       id="layer5-8"
       transform="matrix(5.0048665,0,0,5.0048665,857.6069,588.43932)">
      <rect
         style="opacity:0.1;fill:url(#linearGradient3613-2);fill-opacity:1;fill-rule:nonzero;stroke:#ffffff;stroke-width:0.5;stroke-linecap:round;stroke-linejoin:miter;stroke-miterlimit:4;stroke-opacity:1;stroke-dasharray:none;stroke-dashoffset:0;filter:url(#filter3794-1)"
         id="rect3171-3"
         clip-path="url(#clipPath3613-2)"
         y="15"
         x="15"
         ry="12"
         rx="12"
         height="66"
         width="66" />
    </g>
    <path
       id="path23392-4"
       d="m 428.59274,644.35442 c -7.14531,0 -13.73984,3.81198 -17.3125,10 -3.572,6.18782 -3.57244,13.81236 0,20 0.93042,1.61104 2.04646,3.04899 3.34375,4.3125 0.0826,0.0834 0.16601,0.1682 0.25,0.25 l 251.0625,250.8125 c 3.49073,2.78916 7.9381,4.35751 12.40625,4.375 7.25001,-0.0194 14.30437,-4.32132 17.65625,-10.75 3.35187,-6.42869 2.85356,-14.70088 -1.28125,-20.65625 -0.24864,-0.36263 -0.50925,-0.71705 -0.78125,-1.0625 l -250.90625,-251.125 c -0.0831,-0.0838 -0.16538,-0.16767 -0.25,-0.25 -3.62369,-3.65228 -8.63636,-5.90625 -14.1875,-5.90625 z m 60,0 c -7.14531,0 -13.73984,3.81198 -17.3125,10 -3.572,6.18782 -3.57244,13.81236 0,20 0.93042,1.61104 2.04646,3.04899 3.34375,4.3125 0.0826,0.0834 0.16601,0.1682 0.25,0.25 l 251.0625,250.8125 c 3.49073,2.78916 7.9381,4.35751 12.40625,4.375 7.25001,-0.0194 14.30437,-4.32132 17.65625,-10.75 3.35187,-6.42869 2.85356,-14.70088 -1.28125,-20.65625 -0.24864,-0.36263 -0.50925,-0.71705 -0.78125,-1.0625 l -250.90625,-251.125 c -0.0831,-0.0838 -0.16538,-0.16767 -0.25,-0.25 -3.62369,-3.65228 -8.63636,-5.90625 -14.1875,-5.90625 z m 60,0 c -7.14531,0 -13.73984,3.81198 -17.3125,10 -3.572,6.18782 -3.57244,13.81236 0,20 0.93042,1.61104 2.04646,3.04899 3.34375,4.3125 0.0826,0.0834 0.16601,0.1682 0.25,0.25 l 251.0625,250.8125 c 3.49073,2.78916 7.9381,4.35751 12.40625,4.375 7.25001,-0.0194 14.30437,-4.32132 17.65625,-10.75 3.35187,-6.42869 2.85356,-14.70088 -1.28125,-20.65625 -0.24864,-0.36263 -0.50925,-0.71705 -0.78125,-1.0625 l -250.90625,-251.125 c -0.0831,-0.0838 -0.16538,-0.16767 -0.25,-0.25 -3.62369,-3.65228 -8.63636,-5.90625 -14.1875,-5.90625 z"
       style="color:#000000;fill:#000000;fill-opacity:0.31372549;fill-rule:nonzero;stroke:none;stroke-width:1;marker:none;visibility:visible;display:none;overflow:visible;enable-background:accumulate"
       inkscape:connector-curvature="0" />
    <path
       style="fill:#000000;fill-opacity:0.31372549;display:none"
       d="m 383.65524,786.38567 c -13.68822,0 -15.12334,0.90811 -18.53125,11.46875 -3.10272,9.6149 -5.58214,11.94264 -17.5,16.5625 -10.82927,4.19761 -13.95272,4.18843 -19.25,0 -6.42335,-5.07882 -14.49754,-3.37778 -22.4375,4.6875 -8.94958,9.09087 -9.56672,12.08171 -4.53125,21.6875 4.51032,8.60399 4.35382,12.31767 -1.0625,24.21875 -4.1018,9.01279 -6.071,10.85652 -14.4375,13.59375 -9.5265,3.11674 -11.25,6.04487 -11.25,19.03125 0.5279,4.71107 0.0399,10.88912 2.8125,14.125 l 27.4998,27.468 c 1.89574,5.36628 1.00954,6.65222 -2.34375,12.96875 -5.4123,10.19505 -5.11929,12.6863 3.8125,21.78125 l 303.8716,303.77783 c 0.89361,0.8261 1.71879,1.5093 2.5,2.125 5.4413,4.2885 8.61909,3.6237 16.34375,-0.6562 6.40819,-3.5506 8.97406,-4.3252 15.15625,-2.3125 l 27.0893,27.0601 c 1.96656,1.8769 3.99006,2.125 13.65625,2.125 13.92231,0 16.40271,-1.3453 18.28125,-9.75 2.49744,-11.1737 3.89535,-12.7018 15.71875,-17.5625 12.90303,-5.3046 13.89086,-5.387 19.71875,-1.4063 8.99544,6.1443 14.28384,5.595 22.53125,-2.3125 9.68494,-9.2858 11.58765,-14.7284 7.34375,-21.1875 -6.2342,-9.4882 -6.42153,-12.1884 -1.59375,-23.7812 4.69773,-11.2805 7.33865,-13.5392 17.59375,-15.1875 7.61758,-1.2244 9.08108,-3.8602 9.5625,-16.9688 0.33544,-9.1338 0.0112,-13.7319 -2.5,-16.6562 l -28.03025,-28.061 c -1.71725,-5.771 -1.12477,-8.7527 1.5625,-12.4063 5.49514,-7.4711 4.89238,-14.3792 -1.9375,-21.7187 -0.10464,-0.1125 -0.20925,-0.2022 -0.3125,-0.3125 -0.62602,-0.6688 -1.23371,-1.3152 -1.8125,-1.9063 L 460.71759,816.38717 c -0.0975,-0.0969 -0.21623,-0.18666 -0.3125,-0.28125 -0.11124,-0.10789 -0.20283,-0.20774 -0.3125,-0.3125 -7.56242,-7.33508 -11.42574,-7.39724 -20.6875,-2.5 -6.90096,3.64894 -9.81198,4.29749 -14.8125,2.59375 l -26.34255,-26.341 c -2.72899,-2.83931 -6.74787,-3.1605 -14.5948,-3.1605 z"
       id="path3132-2"
       inkscape:connector-curvature="0"
       sodipodi:nodetypes="sscssssscccsccssccsssssssssccsssccccsccs" />
    <g
       style="display:none"
       id="layer1-2-9-7"
       inkscape:label="Livello 1"
       transform="translate(-269.32178,507.58538)" />
    <g
       style="display:none"
       id="layer1-2-4"
       inkscape:label="Livello 1"
       transform="translate(664.30237,-166.61623)" />
    <g
       style="display:none"
       id="layer2-5"
       transform="matrix(5.0048665,0,0,5.0048665,1757.2214,464.62196)">
      <rect
         style="opacity:0.9;fill:url(#linearGradient3167-9);fill-opacity:1;fill-rule:nonzero;stroke:none;filter:url(#filter3174-0)"
         id="rect3745-5"
         y="7"
         x="5"
         ry="6"
         rx="6"
         height="85"
         width="86" />
    </g>
    <g
       style="display:none"
       id="layer5-4"
       transform="matrix(5.0048665,0,0,5.0048665,1757.2214,464.62196)">
      <rect
         style="opacity:0.1;fill:url(#linearGradient3613-6);fill-opacity:1;fill-rule:nonzero;stroke:#ffffff;stroke-width:0.5;stroke-linecap:round;stroke-linejoin:miter;stroke-miterlimit:4;stroke-opacity:1;stroke-dasharray:none;stroke-dashoffset:0;filter:url(#filter3794-5)"
         id="rect3171-4"
         clip-path="url(#clipPath3613-3)"
         y="15"
         x="15"
         ry="12"
         rx="12"
         height="66"
         width="66" />
    </g>
    <path
       id="path23392-2"
       d="m 1328.2073,520.53706 c -7.1453,0 -13.7399,3.81198 -17.3125,10 -3.572,6.18782 -3.5725,13.81236 0,20 0.9304,1.61104 2.0464,3.04899 3.3437,4.3125 0.083,0.0834 0.166,0.1682 0.25,0.25 l 251.0625,250.8125 c 3.4907,2.78916 7.9381,4.35751 12.4063,4.375 7.25,-0.0194 14.3043,-4.32132 17.6562,-10.75 3.3519,-6.42869 2.8536,-14.70088 -1.2812,-20.65625 -0.2487,-0.36263 -0.5093,-0.71705 -0.7813,-1.0625 l -250.9062,-251.125 c -0.083,-0.0838 -0.1654,-0.16767 -0.25,-0.25 -3.6237,-3.65228 -8.6364,-5.90625 -14.1875,-5.90625 z m 60,0 c -7.1453,0 -13.7399,3.81198 -17.3125,10 -3.572,6.18782 -3.5725,13.81236 0,20 0.9304,1.61104 2.0464,3.04899 3.3437,4.3125 0.083,0.0834 0.166,0.1682 0.25,0.25 l 251.0625,250.8125 c 3.4907,2.78916 7.9381,4.35751 12.4063,4.375 7.25,-0.0194 14.3043,-4.32132 17.6562,-10.75 3.3519,-6.42869 2.8536,-14.70088 -1.2812,-20.65625 -0.2487,-0.36263 -0.5093,-0.71705 -0.7813,-1.0625 l -250.9062,-251.125 c -0.083,-0.0838 -0.1654,-0.16767 -0.25,-0.25 -3.6237,-3.65228 -8.6364,-5.90625 -14.1875,-5.90625 z m 60,0 c -7.1453,0 -13.7399,3.81198 -17.3125,10 -3.572,6.18782 -3.5725,13.81236 0,20 0.9304,1.61104 2.0464,3.04899 3.3437,4.3125 0.083,0.0834 0.166,0.1682 0.25,0.25 l 251.0625,250.8125 c 3.4907,2.78916 7.9381,4.35751 12.4063,4.375 7.25,-0.0194 14.3043,-4.32132 17.6562,-10.75 3.3519,-6.42869 2.8536,-14.70088 -1.2812,-20.65625 -0.2487,-0.36263 -0.5093,-0.71705 -0.7813,-1.0625 l -250.9062,-251.125 c -0.083,-0.0838 -0.1654,-0.16767 -0.25,-0.25 -3.6237,-3.65228 -8.6364,-5.90625 -14.1875,-5.90625 z"
       style="color:#000000;fill:#000000;fill-opacity:0.31372549;fill-rule:nonzero;stroke:none;stroke-width:1;marker:none;visibility:visible;display:none;overflow:visible;enable-background:accumulate"
       inkscape:connector-curvature="0" />
    <path
       style="fill:#000000;fill-opacity:0.31372549;display:none"
       d="m 1283.2698,662.56831 c -13.6883,0 -15.1234,0.90811 -18.5313,11.46875 -3.1027,9.6149 -5.5821,11.94264 -17.5,16.5625 -10.8293,4.19761 -13.9527,4.18843 -19.25,0 -6.4233,-5.07882 -14.4975,-3.37778 -22.4375,4.6875 -8.9496,9.09087 -9.5667,12.08171 -4.5312,21.6875 4.5103,8.60399 4.3538,12.31767 -1.0625,24.21875 -4.1018,9.01279 -6.071,10.85652 -14.4375,13.59375 -9.5265,3.11674 -11.25,6.04487 -11.25,19.03125 0.5279,4.71107 0.04,10.88912 2.8125,14.125 l 27.4998,27.468 c 1.8957,5.36628 1.0095,6.65222 -2.3438,12.96875 -5.4123,10.19505 -5.1193,12.6863 3.8125,21.78125 l 303.8716,303.77779 c 0.8936,0.8261 1.7188,1.5093 2.5,2.125 5.4413,4.2885 8.6191,3.6237 16.3438,-0.6562 6.4082,-3.5506 8.974,-4.3252 15.1562,-2.3125 l 27.0893,27.0601 c 1.9666,1.8769 3.9901,2.125 13.6563,2.125 13.9223,0 16.4027,-1.3453 18.2812,-9.75 2.4974,-11.1737 3.8954,-12.7018 15.7188,-17.5625 12.903,-5.3046 13.8908,-5.387 19.7187,-1.4063 8.9955,6.1443 14.2839,5.595 22.5313,-2.3125 9.6849,-9.2858 11.5876,-14.7284 7.3437,-21.1875 -6.2342,-9.4882 -6.4215,-12.1884 -1.5937,-23.7812 4.6977,-11.2805 7.3386,-13.5392 17.5937,-15.1875 7.6176,-1.2244 9.0811,-3.8602 9.5625,-16.9688 0.3355,-9.1338 0.011,-13.7319 -2.5,-16.6562 l -28.0302,-28.061 c -1.7173,-5.771 -1.1248,-8.7527 1.5625,-12.4063 5.4951,-7.4711 4.8923,-14.3792 -1.9375,-21.71871 -0.1047,-0.1125 -0.2093,-0.2022 -0.3125,-0.3125 -0.6261,-0.6688 -1.2337,-1.3152 -1.8125,-1.9063 L 1360.3321,692.56981 c -0.098,-0.0969 -0.2162,-0.18666 -0.3125,-0.28125 -0.1112,-0.10789 -0.2028,-0.20774 -0.3125,-0.3125 -7.5624,-7.33508 -11.4257,-7.39724 -20.6875,-2.5 -6.901,3.64894 -9.812,4.29749 -14.8125,2.59375 l -26.3425,-26.341 c -2.729,-2.83931 -6.7479,-3.1605 -14.5948,-3.1605 z"
       id="path3132-3"
       inkscape:connector-curvature="0"
       sodipodi:nodetypes="sscssssscccsccssccsssssssssccsssccccsccs" />
    <g
       style="display:none"
       id="layer1-2-9-5"
       inkscape:label="Livello 1"
       transform="translate(630.29274,383.76802)" />
    <text
       sodipodi:linespacing="125%"
       id="text4037"
       y="1099.8811"
       x="-1170.4813"
       style="font-size:208.33334350999999174px;font-style:normal;font-variant:normal;font-weight:normal;font-stretch:normal;line-height:125%;letter-spacing:0px;word-spacing:0px;fill:#555753;fill-opacity:1;stroke:none;font-family:Gentium Book Basic;-inkscape-font-specification:Gentium Book Basic"
       xml:space="preserve"><tspan
         y="1099.8811"
         x="-1170.4813"
         id="tspan4039"
         sodipodi:role="line" /></text>
    <text
       style="font-size:75.69770812999999521px;text-anchor:middle;fill:#555753;stroke-width:0;font-family:Arial"
       transform="scale(4.0128361,0.24920031)"
       xml:space="preserve"
       font-size="30.001"
       id="svg_3"
       y="3850.7539"
       x="26.041574" />
    <text
       sodipodi:linespacing="125%"
       id="text4037-7"
       y="1155.2383"
       x="-394.04813"
       style="font-size:208.33334350999999174px;font-style:normal;font-variant:normal;font-weight:normal;font-stretch:normal;line-height:125%;letter-spacing:0px;word-spacing:0px;fill:#555753;fill-opacity:1;stroke:none;font-family:Gentium Book Basic;-inkscape-font-specification:Gentium Book Basic"
       xml:space="preserve"><tspan
         y="1155.2383"
         x="-394.04813"
         id="tspan4039-6"
         sodipodi:role="line" /></text>
    <text
       style="font-size:75.69770812999999521px;text-anchor:middle;fill:#555753;stroke-width:0;font-family:Arial"
       transform="scale(4.0128361,0.24920031)"
       xml:space="preserve"
       font-size="30.001"
       id="svg_3-9"
       y="4072.8931"
       x="219.52896" />
    <text
       sodipodi:linespacing="125%"
       id="text4037-2"
       y="1026.262"
       x="543.05035"
       style="font-size:208.33334350999999174px;font-style:normal;font-variant:normal;font-weight:normal;font-stretch:normal;line-height:125%;letter-spacing:0px;word-spacing:0px;fill:#555753;fill-opacity:1;stroke:none;font-family:Gentium Book Basic;-inkscape-font-specification:Gentium Book Basic"
       xml:space="preserve"><tspan
         y="1026.262"
         x="543.05035"
         id="tspan4039-2"
         sodipodi:role="line" /></text>
    <text
       style="font-size:75.69770812999999521px;text-anchor:middle;fill:#555753;stroke-width:0;font-family:Arial"
       transform="scale(4.0128361,0.24920031)"
       xml:space="preserve"
       font-size="30.001"
       id="svg_3-5"
       y="3555.3318"
       x="453.0542" />
    <path
       style="fill:#555753;fill-rule:evenodd;stroke:none"
       d="M 65.0625 169.96875 C 43.75442 169.96875 26.59375 187.25917 26.59375 208.71875 L 26.59375 345.8125 C 26.59375 367.27208 43.75442 384.53125 65.0625 384.53125 L 70.21875 384.53125 C 70.202543 384.1795 70.1875 383.82434 70.1875 383.46875 L 70.1875 342 C 70.1875 328.61457 81.779581 317.84375 96.1875 317.84375 L 415.8125 317.84375 C 430.22042 317.84375 441.8125 328.61457 441.8125 342 L 441.8125 383.46875 C 441.8125 383.82434 441.79746 384.1795 441.78125 384.53125 L 446.9375 384.53125 C 468.24558 384.53125 485.40625 367.27208 485.40625 345.8125 L 485.40625 208.71875 C 485.40625 187.25917 468.24558 169.96875 446.9375 169.96875 L 298.78125 169.96875 A 10.001 10.001 0 0 1 297.5 174.75 L 227.5 299.21875 A 10.001 10.001 0 0 1 209.15625 291.59375 L 235.65625 198.5 L 207.5625 198.625 A 10.001 10.001 0 0 1 198.375 184.5625 L 204.875 169.96875 L 65.0625 169.96875 z "
       transform="translate(0,540.36217)"
       id="rect3939" />
    <path
       inkscape:connector-curvature="0"
       style="fill:#555753;fill-rule:evenodd;stroke:none"
       d="m 131.93751,879.19699 -35.187504,140.96871 -1.15625,4.7188 -0.0625,0.2187 321.281254,0 c 0.11481,-0.1148 0.22911,-0.2286 0.34375,-0.3437 l -0.75,-2.5938 -0.5625,-2 -40.34375,-140.96871 -243.5625,0 z"
       id="rect4715" />
    <rect
       style="fill:#555753;fill-opacity:1;stroke:none"
       id="rect3329"
       width="373.92856"
       height="9.4590292"
       x="69.642853"
       y="915.40314"
       rx="0"
       ry="9.4590292" />
  </g>
</svg>
