<?xml version="1.0" encoding="UTF-8" standalone="no"?>
<!-- Created with Inkscape (http://www.inkscape.org/) -->

<svg
   xmlns:dc="http://purl.org/dc/elements/1.1/"
   xmlns:cc="http://creativecommons.org/ns#"
   xmlns:rdf="http://www.w3.org/1999/02/22-rdf-syntax-ns#"
   xmlns:svg="http://www.w3.org/2000/svg"
   xmlns="http://www.w3.org/2000/svg"
   xmlns:sodipodi="http://sodipodi.sourceforge.net/DTD/sodipodi-0.dtd"
   xmlns:inkscape="http://www.inkscape.org/namespaces/inkscape"
   width="512"
   height="512"
   id="svg2"
   version="1.1"
   inkscape:version="0.48.4 r9939"
   sodipodi:docname="document-share.svg">
  <defs
     id="defs4" />
  <sodipodi:namedview
     id="base"
     pagecolor="#ffffff"
     bordercolor="#666666"
     borderopacity="1.0"
     inkscape:pageopacity="0.0"
     inkscape:pageshadow="2"
     inkscape:zoom="0.35"
     inkscape:cx="799.53374"
     inkscape:cy="475.37675"
     inkscape:document-units="px"
     inkscape:current-layer="layer1"
     showgrid="false"
     inkscape:window-width="1309"
     inkscape:window-height="750"
     inkscape:window-x="55"
     inkscape:window-y="-3"
     inkscape:window-maximized="1" />
  <metadata
     id="metadata7">
    <rdf:RDF>
      <cc:Work
         rdf:about="">
        <dc:format>image/svg+xml</dc:format>
        <dc:type
           rdf:resource="http://purl.org/dc/dcmitype/StillImage" />
        <dc:title />
      </cc:Work>
    </rdf:RDF>
  </metadata>
  <g
     inkscape:label="Layer 1"
     inkscape:groupmode="layer"
     id="layer1"
     transform="translate(0,-540.36218)">
    <g
       id="g3773"
       transform="matrix(1.0814583,0,0,1.0814583,-645.63919,-2.4362391)">
      <path
         transform="matrix(1.5384616,0,0,1.5384616,-312.79761,440.55297)"
         d="m 700.03568,193.80194 c 0,29.01038 -23.51755,52.52793 -52.52793,52.52793 -29.01037,0 -52.52793,-23.51755 -52.52793,-52.52793 0,-29.01037 23.51756,-52.52793 52.52793,-52.52793 29.01038,0 52.52793,23.51756 52.52793,52.52793 z"
         sodipodi:ry="52.527931"
         sodipodi:rx="52.527931"
         sodipodi:cy="193.80194"
         sodipodi:cx="647.50775"
         id="path2995"
         style="fill:#555753;fill-opacity:1;stroke:none"
         sodipodi:type="arc" />
      <path
         sodipodi:type="arc"
         style="fill:#555753;fill-opacity:1;stroke:none"
         id="path3765"
         sodipodi:cx="647.50775"
         sodipodi:cy="193.80194"
         sodipodi:rx="52.527931"
         sodipodi:ry="52.527931"
         d="m 700.03568,193.80194 c 0,29.01038 -23.51755,52.52793 -52.52793,52.52793 -29.01037,0 -52.52793,-23.51755 -52.52793,-52.52793 0,-29.01037 23.51756,-52.52793 52.52793,-52.52793 29.01038,0 52.52793,23.51756 52.52793,52.52793 z"
         transform="matrix(1.5384616,0,0,1.5384616,-12.083324,290.97139)" />
      <path
         transform="matrix(1.5384616,0,0,1.5384616,-12.083324,589.97654)"
         d="m 700.03568,193.80194 c 0,29.01038 -23.51755,52.52793 -52.52793,52.52793 -29.01037,0 -52.52793,-23.51755 -52.52793,-52.52793 0,-29.01037 23.51756,-52.52793 52.52793,-52.52793 29.01038,0 52.52793,23.51756 52.52793,52.52793 z"
         sodipodi:ry="52.527931"
         sodipodi:rx="52.527931"
         sodipodi:cy="193.80194"
         sodipodi:cx="647.50775"
         id="path3767"
         style="fill:#555753;fill-opacity:1;stroke:none"
         sodipodi:type="arc" />
      <path
         sodipodi:nodetypes="cc"
         transform="translate(0,540.36218)"
         inkscape:connector-curvature="0"
         id="path3769"
         d="m 728.31998,255.42125 c 11.11168,2.52538 182.83762,91.41881 182.83762,91.41881 l 25.00127,-59.09393 -175.50624,-88.32666 z"
         style="fill:#555753;stroke:none" />
      <path
         style="fill:#555753;stroke:none"
         d="M 941.46218,646.53339 C 930.3505,649.05877 758.62456,737.9522 758.62456,737.9522 l -25.00127,-59.09393 175.50624,-88.32666 z"
         id="path3771"
         inkscape:connector-curvature="0"
         sodipodi:nodetypes="cc" />
    </g>
  </g>
</svg>
