<?xml version="1.0" encoding="UTF-8" standalone="no"?>
<!-- Created with Inkscape (http://www.inkscape.org/) -->

<svg
   xmlns:dc="http://purl.org/dc/elements/1.1/"
   xmlns:cc="http://creativecommons.org/ns#"
   xmlns:rdf="http://www.w3.org/1999/02/22-rdf-syntax-ns#"
   xmlns:svg="http://www.w3.org/2000/svg"
   xmlns="http://www.w3.org/2000/svg"
   xmlns:sodipodi="http://sodipodi.sourceforge.net/DTD/sodipodi-0.dtd"
   xmlns:inkscape="http://www.inkscape.org/namespaces/inkscape"
   width="512"
   height="512"
   id="svg13094"
   version="1.1"
   inkscape:version="0.48.4 r9939"
   sodipodi:docname="view-filter.svg">
  <sodipodi:namedview
     id="base"
     pagecolor="#ffffff"
     bordercolor="#666666"
     borderopacity="1.0"
     inkscape:pageopacity="0.0"
     inkscape:pageshadow="2"
     inkscape:zoom="1.0742187"
     inkscape:cx="138.24339"
     inkscape:cy="202.58522"
     inkscape:document-units="px"
     inkscape:current-layer="svg13094"
     showgrid="false"
     inkscape:snap-bbox="true"
     inkscape:bbox-paths="true"
     inkscape:bbox-nodes="true"
     inkscape:snap-bbox-edge-midpoints="true"
     inkscape:snap-bbox-midpoints="true"
     inkscape:object-paths="true"
     inkscape:snap-intersection-paths="true"
     inkscape:object-nodes="true"
     inkscape:snap-smooth-nodes="true"
     inkscape:snap-midpoints="true"
     inkscape:snap-object-midpoints="true"
     inkscape:snap-center="true"
     showguides="false"
     inkscape:guide-bbox="true"
     inkscape:window-width="1309"
     inkscape:window-height="750"
     inkscape:window-x="55"
     inkscape:window-y="-3"
     inkscape:window-maximized="1"
     inkscape:snap-global="false"
     fit-margin-top="0"
     fit-margin-left="0"
     fit-margin-right="0"
     fit-margin-bottom="0"
     showborder="true"
     inkscape:showpageshadow="false">
    <inkscape:grid
       type="xygrid"
       id="grid3075"
       empspacing="5"
       visible="true"
       enabled="true"
       snapvisiblegridlinesonly="true"
       originx="1.6362304e-08px"
       originy="18px" />
  </sodipodi:namedview>
  <defs
     id="defs13096" />
  <metadata
     id="metadata13099">
    <rdf:RDF>
      <cc:Work
         rdf:about="">
        <dc:format>image/svg+xml</dc:format>
        <dc:type
           rdf:resource="http://purl.org/dc/dcmitype/StillImage" />
        <dc:title />
      </cc:Work>
    </rdf:RDF>
  </metadata>
  <path
     style="fill:#555753;fill-opacity:1;fill-rule:nonzero;stroke:none"
     d="M 256,6 C 117.92881,6 6,53.982676 6,113.15625 c 0,14.31418 6.700675,27.96896 18.75,40.4375 67.784593,59.91299 141.98293,130.29217 185.52794,200.4466 7.78901,11.36169 7.56581,26.63835 7.56581,26.63835 l 0,88.5088 c 0,21.14466 17.01159,38.15625 38.15625,38.15625 21.14466,0 38.15625,-17.01159 38.15625,-38.15625 l 0,-88.5088 c -0.0521,0.0301 1.24631,-16.31194 7.62686,-26.4682 52.38323,-83.26859 125.25331,-139.71879 184.93564,-200.0855 0.20825,-0.17709 0.41675,-0.35411 0.625,-0.53125 l -0.0937,0 C 499.29932,141.12521 506,127.47043 506,113.15625 506,53.982676 394.07118,6 256,6 z m 0,35.71875 c 98.62229,0 178.5625,23.975719 178.5625,53.5625 0,29.58643 -79.94021,53.5625 -178.5625,53.5625 -98.62227,0 -178.5625,-23.97607 -178.5625,-53.5625 0,-29.586781 79.94023,-53.5625 178.5625,-53.5625 z"
     id="path3090"
     inkscape:connector-curvature="0"
     sodipodi:nodetypes="sscccssscccccsssssss" />
</svg>
