<?xml version="1.0" encoding="UTF-8" standalone="no"?>
<!-- Created with Inkscape (http://www.inkscape.org/) -->

<svg
   xmlns:dc="http://purl.org/dc/elements/1.1/"
   xmlns:cc="http://creativecommons.org/ns#"
   xmlns:rdf="http://www.w3.org/1999/02/22-rdf-syntax-ns#"
   xmlns:svg="http://www.w3.org/2000/svg"
   xmlns="http://www.w3.org/2000/svg"
   xmlns:sodipodi="http://sodipodi.sourceforge.net/DTD/sodipodi-0.dtd"
   xmlns:inkscape="http://www.inkscape.org/namespaces/inkscape"
   width="512"
   height="512"
   id="svg2"
   version="1.1"
   inkscape:version="0.48.4 r9939"
   sodipodi:docname="stroke-cap-square.svg">
  <defs
     id="defs4" />
  <sodipodi:namedview
     id="base"
     pagecolor="#ffffff"
     bordercolor="#666666"
     borderopacity="1.0"
     inkscape:pageopacity="0.0"
     inkscape:pageshadow="2"
     inkscape:zoom="0.50000001"
     inkscape:cx="239.36671"
     inkscape:cy="335.51912"
     inkscape:document-units="px"
     inkscape:current-layer="layer1"
     showgrid="false"
     inkscape:window-width="1309"
     inkscape:window-height="750"
     inkscape:window-x="55"
     inkscape:window-y="-3"
     inkscape:window-maximized="1"
     inkscape:snap-global="false" />
  <metadata
     id="metadata7">
    <rdf:RDF>
      <cc:Work
         rdf:about="">
        <dc:format>image/svg+xml</dc:format>
        <dc:type
           rdf:resource="http://purl.org/dc/dcmitype/StillImage" />
        <dc:title />
      </cc:Work>
    </rdf:RDF>
  </metadata>
  <g
     inkscape:label="Layer 1"
     inkscape:groupmode="layer"
     id="layer1"
     transform="translate(0,-540.36218)">
    <path
       inkscape:connector-curvature="0"
       id="path3753"
       d="m 198.18851,1114.2413 0,-372.65984 374.36933,0"
       style="fill:none;stroke:#cd1d31;stroke-width:0;stroke-linecap:butt;stroke-linejoin:miter;stroke-miterlimit:4;stroke-opacity:1;stroke-dasharray:none" />
    <path
       style="fill:#555753;fill-opacity:1;stroke:none"
       d="m 256,579.26843 c -6.54112,0 -13.00456,0.25649 -19.375,0.75 -6.37044,0.49351 -12.6445,1.2247 -18.8125,2.1875 -6.168,0.9628 -12.22244,2.15463 -18.15625,3.5625 -5.93381,1.40787 -11.73838,3.04628 -17.40625,4.875 -5.66787,1.82872 -11.19232,3.8684 -16.5625,6.09375 -5.37018,2.22535 -10.58427,4.62099 -15.625,7.21875 -5.04073,2.59776 -9.91421,5.39781 -14.59375,8.34375 -4.67954,2.94594 -9.18216,6.04259 -13.46875,9.3125 -4.28659,3.26991 -8.35685,6.71159 -12.21875,10.28125 -3.8619,3.56966 -7.5008,7.27982 -10.90625,11.125 -3.40546,3.84518 -6.58275,7.80976 -9.5,11.90625 -2.91726,4.09649 -5.57145,8.33267 -7.96875,12.65625 -2.39731,4.32358 -4.5294,8.75481 -6.375,13.28125 -1.84561,4.52644 -3.42535,9.13866 -4.6875,13.84375 -1.26216,4.70509 -2.22805,9.48424 -2.875,14.34375 C 66.82179,713.90919 66.5,718.84121 66.5,723.83093 l 0,322.87497 149.3125,0 0,-181.65622 0,-176.9375 80.375,0 0,176.9375 0,181.65622 149.3125,0 0,-322.87497 c 0,-4.98972 -0.3218,-9.92174 -0.96875,-14.78125 -0.64695,-4.85951 -1.61285,-9.63866 -2.875,-14.34375 -1.26215,-4.70509 -2.84189,-9.31731 -4.6875,-13.84375 -1.84561,-4.52644 -3.97769,-8.95767 -6.375,-13.28125 -2.39731,-4.32358 -5.0515,-8.55976 -7.96875,-12.65625 -2.91725,-4.09649 -6.09455,-8.06107 -9.5,-11.90625 -3.40545,-3.84518 -7.04435,-7.55534 -10.90625,-11.125 -3.8619,-3.56966 -7.93216,-7.01134 -12.21875,-10.28125 -4.28659,-3.26991 -8.78921,-6.36656 -13.46875,-9.3125 -4.67954,-2.94594 -9.55302,-5.74599 -14.59375,-8.34375 -5.04073,-2.59776 -10.25482,-4.9934 -15.625,-7.21875 -5.37018,-2.22535 -10.89463,-4.26503 -16.5625,-6.09375 -5.66787,-1.82872 -11.47244,-3.46713 -17.40625,-4.875 -5.93381,-1.40787 -11.98825,-2.5997 -18.15625,-3.5625 -6.168,-0.9628 -12.44206,-1.69399 -18.8125,-2.1875 -6.37044,-0.49351 -12.83388,-0.75 -19.375,-0.75 z"
       id="path3759"
       inkscape:connector-curvature="0" />
  </g>
</svg>
