<?xml version="1.0" encoding="UTF-8" standalone="no"?>
<!-- Created with Inkscape (http://www.inkscape.org/) -->

<svg
   xmlns:dc="http://purl.org/dc/elements/1.1/"
   xmlns:cc="http://creativecommons.org/ns#"
   xmlns:rdf="http://www.w3.org/1999/02/22-rdf-syntax-ns#"
   xmlns:svg="http://www.w3.org/2000/svg"
   xmlns="http://www.w3.org/2000/svg"
   xmlns:sodipodi="http://sodipodi.sourceforge.net/DTD/sodipodi-0.dtd"
   xmlns:inkscape="http://www.inkscape.org/namespaces/inkscape"
   width="512"
   height="512"
   id="svg3471"
   version="1.1"
   inkscape:version="0.48.4 r9939"
   sodipodi:docname="media-optical-burn.svg">
  <defs
     id="defs3473" />
  <sodipodi:namedview
     id="base"
     pagecolor="#ffffff"
     bordercolor="#666666"
     borderopacity="1.0"
     inkscape:pageopacity="0.0"
     inkscape:pageshadow="2"
     inkscape:zoom="0.70000001"
     inkscape:cx="288.79293"
     inkscape:cy="199.29227"
     inkscape:document-units="px"
     inkscape:current-layer="layer1"
     showgrid="false"
     inkscape:window-width="1309"
     inkscape:window-height="750"
     inkscape:window-x="55"
     inkscape:window-y="-3"
     inkscape:window-maximized="1"
     showguides="false" />
  <metadata
     id="metadata3476">
    <rdf:RDF>
      <cc:Work
         rdf:about="">
        <dc:format>image/svg+xml</dc:format>
        <dc:type
           rdf:resource="http://purl.org/dc/dcmitype/StillImage" />
        <dc:title />
      </cc:Work>
    </rdf:RDF>
  </metadata>
  <g
     inkscape:label="Capa 1"
     inkscape:groupmode="layer"
     id="layer1"
     transform="translate(0,-540.3622)">
    <path
       inkscape:connector-curvature="0"
       id="path40"
       style="fill:#555753;fill-opacity:1;fill-rule:nonzero;stroke:none"
       d="m 256.04992,880.82705 c -46.65036,0 -84.48982,-37.83946 -84.48982,-84.48982 0,-46.6254 37.83946,-84.46485 84.48982,-84.46485 46.60044,0 84.4399,37.83945 84.4399,84.46485 0,46.65036 -37.83946,84.48982 -84.4399,84.48982 m 0,-334.46486 c -138.10403,0 -250.0499206,111.92093 -250.0499206,249.97504 0,138.07908 111.9458906,250.02497 250.0499206,250.02497 C 394.10403,1046.3622 506,934.41631 506,796.33723 506,658.28312 394.10403,546.36219 256.04992,546.36219" />
    <path
       inkscape:connector-curvature="0"
       id="path44"
       style="fill:#555753;fill-opacity:1;fill-rule:nonzero;stroke:none"
       d="m 281,796.39154 c 0,13.73239 -11.20892,24.94133 -25.00001,24.94133 C 242.2676,821.33287 231,810.12393 231,796.39154 c 0,-13.79109 11.2676,-25.00001 24.99999,-25.00001 13.79109,0 25.00001,11.20892 25.00001,25.00001" />
  </g>
</svg>
