<svg xmlns="http://www.w3.org/2000/svg" width="512" height="512">
 <path d="M 267 14 C 139.97451 14 37 116.97451 37 244 C 37 254.97804 37.762692 265.77587 39.25 276.34375 C 39.35576 276.4963 39.45742 276.65865 39.5625 276.8125 C 46.778792 332.63734 65.31549 387.20305 34.21875 426.28125 L 6 454.5 L 6 506 L 61.96875 506 L 87.65625 480.3125 L 87.6875 480.3125 C 128.3637 449.15088 182.14736 467.40291 241.75 472.625 C 241.76035 472.62591 241.7709 472.62409 241.78125 472.625 C 250.06631 473.5346 258.47295 474 267 474 C 271.29868 474 275.57196 473.8578 279.8125 473.625 C 400.87924 466.97864 497 366.72681 497 244 C 497 116.97451 394.02549 14 267 14 z M 267 75 C 360.33612 75 436 150.66388 436 244 C 436 337.33612 360.33612 413 267 413 C 173.66388 413 98 337.33612 98 244 C 98 150.66388 173.66388 75 267 75 z" transform="matrix(1 0 0 1 0 0)" fill="#555753"/>
</svg>
