<?xml version="1.0" encoding="UTF-8" standalone="no"?>
<!-- Created with sK1/UniConvertor (http://sk1project.org/) -->

<svg
   xmlns:dc="http://purl.org/dc/elements/1.1/"
   xmlns:cc="http://creativecommons.org/ns#"
   xmlns:rdf="http://www.w3.org/1999/02/22-rdf-syntax-ns#"
   xmlns:svg="http://www.w3.org/2000/svg"
   xmlns="http://www.w3.org/2000/svg"
   xmlns:xlink="http://www.w3.org/1999/xlink"
   xmlns:sodipodi="http://sodipodi.sourceforge.net/DTD/sodipodi-0.dtd"
   xmlns:inkscape="http://www.inkscape.org/namespaces/inkscape"
   width="595.276pt"
   height="841.89pt"
   viewBox="0 0 595.276 841.89"
   fill-rule="evenodd"
   id="svg3020"
   version="1.1"
   inkscape:version="0.48.2 r9819"
   sodipodi:docname="bier.cdr"
   inkscape:export-filename="/home/adrie/Documenten/bier/BrouwHulp/BrouwHulp Gold/Artwork/bier.png"
   inkscape:export-xdpi="18.774477"
   inkscape:export-ydpi="18.774477">
  <metadata
     id="metadata4350">
    <rdf:RDF>
      <cc:Work
         rdf:about="">
        <dc:format>image/svg+xml</dc:format>
        <dc:type
           rdf:resource="http://purl.org/dc/dcmitype/StillImage" />
        <dc:title></dc:title>
      </cc:Work>
    </rdf:RDF>
  </metadata>
  <sodipodi:namedview
     pagecolor="#ffffff"
     bordercolor="#666666"
     borderopacity="1"
     objecttolerance="10"
     gridtolerance="10"
     guidetolerance="10"
     inkscape:pageopacity="0"
     inkscape:pageshadow="2"
     inkscape:window-width="1600"
     inkscape:window-height="814"
     id="namedview4348"
     showgrid="false"
     inkscape:zoom="19.451865"
     inkscape:cx="216.51592"
     inkscape:cy="742.58905"
     inkscape:window-x="-8"
     inkscape:window-y="25"
     inkscape:window-maximized="1"
     inkscape:current-layer="svg3020" />
  <defs
     id="defs3022">
    <linearGradient
       id="linearGradient7702">
      <stop
         style="stop-color:#ffe975;stop-opacity:1;"
         offset="0"
         id="stop7704" />
      <stop
         style="stop-color:#ffc375;stop-opacity:1;"
         offset="1"
         id="stop7706" />
    </linearGradient>
    <marker
       id="ArrowEnd"
       viewBox="0 0 10 10"
       refX="0"
       refY="5"
       markerUnits="strokeWidth"
       markerWidth="4"
       markerHeight="3"
       orient="auto">
      <path
         d="M 0 0 L 10 5 L 0 10 z"
         id="path3025" />
    </marker>
    <marker
       id="ArrowStart"
       viewBox="0 0 10 10"
       refX="10"
       refY="5"
       markerUnits="strokeWidth"
       markerWidth="4"
       markerHeight="3"
       orient="auto">
      <path
         d="M 10 0 L 0 5 L 10 10 z"
         id="path3028" />
    </marker>
    <linearGradient
       inkscape:collect="always"
       xlink:href="#linearGradient7702"
       id="linearGradient7708"
       x1="169.015"
       y1="244.38956"
       x2="180.09003"
       y2="244.38956"
       gradientUnits="userSpaceOnUse" />
  </defs>
  <g
     id="g7729"
     inkscape:export-filename="/home/adrie/Documenten/bier/BrouwHulp/BrouwHulp Gold/Artwork/bier.png"
     inkscape:export-xdpi="45.717918"
     inkscape:export-ydpi="45.717918">
    <path
       inkscape:connector-curvature="0"
       id="path3938"
       d="m 169.7041,237.27926 c -0.058,-0.115 -0.173,-0.519 0.173,-0.866 0.346,-0.346 3.181,-1.208 5.713,-1.038 2.532,0.169 4.619,1.986 5.54,3.289 0.921,1.303 0.939,2.345 0.693,3.289 -1.556,0.454 -1.289,-0.329 -1.385,-0.865 l -10.734,-3.809 z"
       style="fill:#f8f1d7;stroke:#fff6da;stroke-opacity:1;stroke-width:0.28000001000000002;stroke-miterlimit:4;stroke-dasharray:none;fill-opacity:1" />
    <path
       inkscape:connector-curvature="0"
       id="path3944"
       d="m 170.35003,237.84733 c -1.857,5.171 -1.373,12.256 0.724,13.009 2.124,0.764 6.978,-4.404 8.836,-9.575 l -9.56,-3.434 z"
       style="fill:url(#linearGradient7708);stroke:#eeece3;stroke-opacity:1;fill-opacity:1;stroke-width:0.36000000999999998;stroke-miterlimit:4;stroke-dasharray:none" />
    <path
       inkscape:connector-curvature="0"
       id="path3946"
       d="m 164.66589,257.78318 c 0,0 3.788,-2.9 5.74,-7.28 l 0.978,0.352 c -1.281,4.62 -0.205,9.267 -0.205,9.267 l -6.513,-2.339 z"
       style="fill:#cccccc;stroke:none" />
    <path
       style="fill:#cccccc;stroke:none"
       d="m 180.06203,241.99933 0.341,-0.951 -10.397,-3.735 -0.342,0.951 10.398,3.735 z"
       id="path3948"
       inkscape:connector-curvature="0" />
    <path
       style="fill:#cccccc;stroke:none"
       d="m 171.02395,260.39525 c 0.279,0.1 0.593,-0.071 0.684,-0.323 l 0,0 c 0.1,-0.279 -0.043,-0.583 -0.323,-0.684 l -6.345,-2.279 c -0.279,-0.1 -0.583,0.043 -0.684,0.322 l 0,0 c -0.09,0.252 0.043,0.584 0.323,0.684 l 6.345,2.28 z"
       id="path3950"
       inkscape:connector-curvature="0" />
  </g>
  <g
     id="g4346" />
</svg>
