<?xml version="1.0" encoding="UTF-8" standalone="no"?>
<!-- Created with Inkscape (http://www.inkscape.org/) -->
<svg
   xmlns:dc="http://purl.org/dc/elements/1.1/"
   xmlns:cc="http://web.resource.org/cc/"
   xmlns:rdf="http://www.w3.org/1999/02/22-rdf-syntax-ns#"
   xmlns:svg="http://www.w3.org/2000/svg"
   xmlns="http://www.w3.org/2000/svg"
   xmlns:xlink="http://www.w3.org/1999/xlink"
   xmlns:sodipodi="http://sodipodi.sourceforge.net/DTD/sodipodi-0.dtd"
   xmlns:inkscape="http://www.inkscape.org/namespaces/inkscape"
   height="279.28702"
   width="572.42236"
   id="svg13645"
   sodipodi:version="0.32"
   inkscape:version="0.45+devel"
   version="1.0"
   sodipodi:docbase="C:\Documents and Settings\Molumen\Desktop"
   sodipodi:docname="n_kamil_Money_-_banknotes_and_coin.svg"
   inkscape:output_extension="org.inkscape.output.svg.inkscape"
   sodipodi:modified="true">
  <defs
     id="defs13647">
    <radialGradient
       inkscape:collect="always"
       xlink:href="#linearGradient13387"
       id="radialGradient13508"
       gradientUnits="userSpaceOnUse"
       gradientTransform="matrix(1,0,0,0.360515,0,328.0179)"
       cx="179.04955"
       cy="512.94073"
       fx="179.04955"
       fy="512.94073"
       r="58.841385" />
    <radialGradient
       inkscape:collect="always"
       xlink:href="#linearGradient13387"
       id="radialGradient13470"
       gradientUnits="userSpaceOnUse"
       gradientTransform="matrix(1,0,0,0.360515,0,328.0179)"
       cx="179.04955"
       cy="512.94073"
       fx="179.04955"
       fy="512.94073"
       r="58.841385" />
    <linearGradient
       inkscape:collect="always"
       xlink:href="#linearGradient2231"
       id="linearGradient13270"
       gradientUnits="userSpaceOnUse"
       x1="162.63963"
       y1="585.54541"
       x2="60.351536"
       y2="555.1095" />
    <linearGradient
       inkscape:collect="always"
       xlink:href="#linearGradient5073"
       id="linearGradient13268"
       gradientUnits="userSpaceOnUse"
       x1="69.839012"
       y1="522.38086"
       x2="81.11171"
       y2="575.41388" />
    <linearGradient
       inkscape:collect="always"
       xlink:href="#linearGradient12263"
       id="linearGradient13266"
       gradientUnits="userSpaceOnUse"
       x1="140.23151"
       y1="605.49329"
       x2="0.96580404"
       y2="551.651" />
    <linearGradient
       inkscape:collect="always"
       xlink:href="#linearGradient7800"
       id="linearGradient13264"
       gradientUnits="userSpaceOnUse"
       x1="144.64285"
       y1="578.43359"
       x2="5.928566"
       y2="579.86218" />
    <linearGradient
       inkscape:collect="always"
       xlink:href="#linearGradient9592"
       id="linearGradient13262"
       gradientUnits="userSpaceOnUse"
       x1="146.42857"
       y1="578.07648"
       x2="5.9452562"
       y2="577.43024" />
    <linearGradient
       inkscape:collect="always"
       xlink:href="#linearGradient5073"
       id="linearGradient5982"
       gradientUnits="userSpaceOnUse"
       x1="272.23611"
       y1="419.50162"
       x2="275.25827"
       y2="467.48386" />
    <linearGradient
       id="linearGradient4162">
      <stop
         style="stop-color:green;stop-opacity:1;"
         offset="0"
         id="stop4164" />
      <stop
         style="stop-color:yellow;stop-opacity:0"
         offset="1"
         id="stop4166" />
    </linearGradient>
    <linearGradient
       inkscape:collect="always"
       xlink:href="#linearGradient4162"
       id="linearGradient5980"
       gradientUnits="userSpaceOnUse"
       x1="266.68027"
       y1="462.43311"
       x2="344.9671"
       y2="425.56253" />
    <radialGradient
       inkscape:collect="always"
       xlink:href="#linearGradient13387"
       id="radialGradient13474"
       gradientUnits="userSpaceOnUse"
       gradientTransform="matrix(1,0,0,0.360515,0,328.0179)"
       cx="179.04955"
       cy="512.94073"
       fx="179.04955"
       fy="512.94073"
       r="58.841385" />
    <linearGradient
       inkscape:collect="always"
       xlink:href="#linearGradient13387"
       id="linearGradient13393"
       x1="248.39285"
       y1="501.64789"
       x2="141.07143"
       y2="468.79074"
       gradientUnits="userSpaceOnUse" />
    <linearGradient
       inkscape:collect="always"
       xlink:href="#linearGradient2231"
       id="linearGradient13361"
       gradientUnits="userSpaceOnUse"
       x1="162.63963"
       y1="585.54541"
       x2="60.351536"
       y2="555.1095"
       gradientTransform="matrix(0.513958,0,0,0.513958,169.5378,181.1977)" />
    <linearGradient
       inkscape:collect="always"
       xlink:href="#linearGradient5073"
       id="linearGradient13364"
       gradientUnits="userSpaceOnUse"
       x1="69.839012"
       y1="522.38086"
       x2="81.11171"
       y2="575.41388"
       gradientTransform="matrix(0.513958,0,0,0.513958,169.5378,181.1977)" />
    <linearGradient
       inkscape:collect="always"
       id="linearGradient13399">
      <stop
         style="stop-color:black;stop-opacity:1;"
         offset="0"
         id="stop13401" />
      <stop
         style="stop-color:black;stop-opacity:0;"
         offset="1"
         id="stop13403" />
    </linearGradient>
    <linearGradient
       inkscape:collect="always"
       xlink:href="#linearGradient13399"
       id="linearGradient13379"
       x1="115.3679"
       y1="627.10693"
       x2="-83.017815"
       y2="550.66876"
       gradientUnits="userSpaceOnUse" />
    <linearGradient
       inkscape:collect="always"
       xlink:href="#linearGradient12263"
       id="linearGradient13318"
       gradientUnits="userSpaceOnUse"
       x1="140.23151"
       y1="605.49329"
       x2="0.96580404"
       y2="551.651" />
    <linearGradient
       inkscape:collect="always"
       xlink:href="#linearGradient7800"
       id="linearGradient13316"
       gradientUnits="userSpaceOnUse"
       x1="144.64285"
       y1="578.43359"
       x2="5.928566"
       y2="579.86218" />
    <linearGradient
       inkscape:collect="always"
       xlink:href="#linearGradient9592"
       id="linearGradient13314"
       gradientUnits="userSpaceOnUse"
       x1="146.42857"
       y1="578.07648"
       x2="5.9452562"
       y2="577.43024" />
    <linearGradient
       inkscape:collect="always"
       id="linearGradient13387">
      <stop
         style="stop-color:black;stop-opacity:1;"
         offset="0"
         id="stop13389" />
      <stop
         style="stop-color:black;stop-opacity:0;"
         offset="1"
         id="stop13391" />
    </linearGradient>
    <radialGradient
       inkscape:collect="always"
       xlink:href="#linearGradient13387"
       id="radialGradient13478"
       gradientUnits="userSpaceOnUse"
       gradientTransform="matrix(1,0,0,0.360515,0,328.0179)"
       cx="179.04955"
       cy="512.94073"
       fx="179.04955"
       fy="512.94073"
       r="58.841385" />
    <linearGradient
       id="linearGradient2231">
      <stop
         style="stop-color:black;stop-opacity:0.30275229;"
         offset="0"
         id="stop2233" />
      <stop
         style="stop-color:black;stop-opacity:0;"
         offset="1"
         id="stop2235" />
    </linearGradient>
    <linearGradient
       inkscape:collect="always"
       xlink:href="#linearGradient2231"
       id="linearGradient13342"
       gradientUnits="userSpaceOnUse"
       x1="162.63963"
       y1="585.54541"
       x2="60.351536"
       y2="555.1095" />
    <linearGradient
       inkscape:collect="always"
       id="linearGradient5073">
      <stop
         style="stop-color:white;stop-opacity:1;"
         offset="0"
         id="stop5075" />
      <stop
         style="stop-color:white;stop-opacity:0;"
         offset="1"
         id="stop5077" />
    </linearGradient>
    <linearGradient
       inkscape:collect="always"
       xlink:href="#linearGradient5073"
       id="linearGradient13340"
       gradientUnits="userSpaceOnUse"
       x1="69.839012"
       y1="522.38086"
       x2="81.11171"
       y2="575.41388" />
    <linearGradient
       id="linearGradient12263">
      <stop
         id="stop12265"
         offset="0"
         style="stop-color:#ff8915;stop-opacity:1" />
      <stop
         id="stop12267"
         offset="1"
         style="stop-color:yellow;stop-opacity:1;" />
    </linearGradient>
    <linearGradient
       inkscape:collect="always"
       xlink:href="#linearGradient12263"
       id="linearGradient13338"
       gradientUnits="userSpaceOnUse"
       x1="140.23151"
       y1="605.49329"
       x2="0.96580404"
       y2="551.651" />
    <linearGradient
       id="linearGradient7800">
      <stop
         style="stop-color:#f60;stop-opacity:1;"
         offset="0"
         id="stop7802" />
      <stop
         style="stop-color:yellow;stop-opacity:1;"
         offset="1"
         id="stop7804" />
    </linearGradient>
    <linearGradient
       inkscape:collect="always"
       xlink:href="#linearGradient7800"
       id="linearGradient13336"
       gradientUnits="userSpaceOnUse"
       x1="144.64285"
       y1="578.43359"
       x2="5.928566"
       y2="579.86218" />
    <linearGradient
       id="linearGradient9592">
      <stop
         id="stop9594"
         offset="0"
         style="stop-color:#cd5200;stop-opacity:1" />
      <stop
         id="stop9596"
         offset="1"
         style="stop-color:#caca00;stop-opacity:1" />
    </linearGradient>
    <linearGradient
       inkscape:collect="always"
       xlink:href="#linearGradient9592"
       id="linearGradient13334"
       gradientUnits="userSpaceOnUse"
       x1="146.42857"
       y1="578.07648"
       x2="5.9452562"
       y2="577.43024" />
    <radialGradient
       inkscape:collect="always"
       xlink:href="#linearGradient13387"
       id="radialGradient13821"
       gradientUnits="userSpaceOnUse"
       gradientTransform="matrix(1,0,0,0.360515,0,328.0179)"
       cx="179.04955"
       cy="512.94073"
       fx="179.04955"
       fy="512.94073"
       r="58.841385" />
    <linearGradient
       inkscape:collect="always"
       xlink:href="#linearGradient9592"
       id="linearGradient13823"
       gradientUnits="userSpaceOnUse"
       x1="146.42857"
       y1="578.07648"
       x2="5.9452562"
       y2="577.43024" />
    <linearGradient
       inkscape:collect="always"
       xlink:href="#linearGradient7800"
       id="linearGradient13825"
       gradientUnits="userSpaceOnUse"
       x1="144.64285"
       y1="578.43359"
       x2="5.928566"
       y2="579.86218" />
    <linearGradient
       inkscape:collect="always"
       xlink:href="#linearGradient12263"
       id="linearGradient13827"
       gradientUnits="userSpaceOnUse"
       x1="140.23151"
       y1="605.49329"
       x2="0.96580404"
       y2="551.651" />
    <linearGradient
       inkscape:collect="always"
       xlink:href="#linearGradient5073"
       id="linearGradient13829"
       gradientUnits="userSpaceOnUse"
       x1="69.839012"
       y1="522.38086"
       x2="81.11171"
       y2="575.41388" />
    <linearGradient
       inkscape:collect="always"
       xlink:href="#linearGradient2231"
       id="linearGradient13831"
       gradientUnits="userSpaceOnUse"
       x1="162.63963"
       y1="585.54541"
       x2="60.351536"
       y2="555.1095" />
    <linearGradient
       inkscape:collect="always"
       xlink:href="#linearGradient4162"
       id="linearGradient13833"
       gradientUnits="userSpaceOnUse"
       x1="266.68027"
       y1="462.43311"
       x2="344.9671"
       y2="425.56253" />
    <linearGradient
       inkscape:collect="always"
       xlink:href="#linearGradient5073"
       id="linearGradient13835"
       gradientUnits="userSpaceOnUse"
       x1="272.23611"
       y1="419.50162"
       x2="275.25827"
       y2="467.48386" />
    <radialGradient
       inkscape:collect="always"
       xlink:href="#linearGradient13387"
       id="radialGradient13837"
       gradientUnits="userSpaceOnUse"
       gradientTransform="matrix(1,0,0,0.360515,0,328.0179)"
       cx="179.04955"
       cy="512.94073"
       fx="179.04955"
       fy="512.94073"
       r="58.841385" />
    <linearGradient
       inkscape:collect="always"
       xlink:href="#linearGradient9592"
       id="linearGradient13839"
       gradientUnits="userSpaceOnUse"
       x1="146.42857"
       y1="578.07648"
       x2="5.9452562"
       y2="577.43024" />
    <linearGradient
       inkscape:collect="always"
       xlink:href="#linearGradient7800"
       id="linearGradient13841"
       gradientUnits="userSpaceOnUse"
       x1="144.64285"
       y1="578.43359"
       x2="5.928566"
       y2="579.86218" />
    <linearGradient
       inkscape:collect="always"
       xlink:href="#linearGradient12263"
       id="linearGradient13843"
       gradientUnits="userSpaceOnUse"
       x1="140.23151"
       y1="605.49329"
       x2="0.96580404"
       y2="551.651" />
    <linearGradient
       inkscape:collect="always"
       xlink:href="#linearGradient13399"
       id="linearGradient13845"
       gradientUnits="userSpaceOnUse"
       x1="115.3679"
       y1="627.10693"
       x2="-83.017815"
       y2="550.66876" />
    <linearGradient
       inkscape:collect="always"
       xlink:href="#linearGradient5073"
       id="linearGradient13847"
       gradientUnits="userSpaceOnUse"
       gradientTransform="matrix(0.513958,0,0,0.513958,169.5378,181.1977)"
       x1="69.839012"
       y1="522.38086"
       x2="81.11171"
       y2="575.41388" />
    <linearGradient
       inkscape:collect="always"
       xlink:href="#linearGradient2231"
       id="linearGradient13849"
       gradientUnits="userSpaceOnUse"
       gradientTransform="matrix(0.513958,0,0,0.513958,169.5378,181.1977)"
       x1="162.63963"
       y1="585.54541"
       x2="60.351536"
       y2="555.1095" />
    <linearGradient
       inkscape:collect="always"
       xlink:href="#linearGradient13387"
       id="linearGradient13851"
       gradientUnits="userSpaceOnUse"
       x1="248.39285"
       y1="501.64789"
       x2="141.07143"
       y2="468.79074" />
    <radialGradient
       inkscape:collect="always"
       xlink:href="#linearGradient13387"
       id="radialGradient13853"
       gradientUnits="userSpaceOnUse"
       gradientTransform="matrix(1,0,0,0.360515,0,328.0179)"
       cx="179.04955"
       cy="512.94073"
       fx="179.04955"
       fy="512.94073"
       r="58.841385" />
    <linearGradient
       inkscape:collect="always"
       xlink:href="#linearGradient9592"
       id="linearGradient13855"
       gradientUnits="userSpaceOnUse"
       x1="146.42857"
       y1="578.07648"
       x2="5.9452562"
       y2="577.43024" />
    <linearGradient
       inkscape:collect="always"
       xlink:href="#linearGradient7800"
       id="linearGradient13857"
       gradientUnits="userSpaceOnUse"
       x1="144.64285"
       y1="578.43359"
       x2="5.928566"
       y2="579.86218" />
    <linearGradient
       inkscape:collect="always"
       xlink:href="#linearGradient12263"
       id="linearGradient13859"
       gradientUnits="userSpaceOnUse"
       x1="140.23151"
       y1="605.49329"
       x2="0.96580404"
       y2="551.651" />
    <linearGradient
       inkscape:collect="always"
       xlink:href="#linearGradient5073"
       id="linearGradient13861"
       gradientUnits="userSpaceOnUse"
       x1="69.839012"
       y1="522.38086"
       x2="81.11171"
       y2="575.41388" />
    <linearGradient
       inkscape:collect="always"
       xlink:href="#linearGradient2231"
       id="linearGradient13863"
       gradientUnits="userSpaceOnUse"
       x1="162.63963"
       y1="585.54541"
       x2="60.351536"
       y2="555.1095" />
    <linearGradient
       inkscape:collect="always"
       xlink:href="#linearGradient5073"
       id="linearGradient13866"
       gradientUnits="userSpaceOnUse"
       x1="272.23611"
       y1="419.50162"
       x2="275.25827"
       y2="467.48386"
       gradientTransform="matrix(2.5902205,0,0,2.5902205,-636.99525,-1186.0149)" />
    <linearGradient
       inkscape:collect="always"
       xlink:href="#linearGradient4162"
       id="linearGradient13869"
       gradientUnits="userSpaceOnUse"
       x1="266.68027"
       y1="462.43311"
       x2="344.9671"
       y2="425.56253"
       gradientTransform="matrix(2.5902205,0,0,2.5902205,-636.99525,-1186.0149)" />
  </defs>
  <sodipodi:namedview
     id="base"
     pagecolor="#ffffff"
     bordercolor="#666666"
     borderopacity="1.0"
     inkscape:pageopacity="0.0"
     inkscape:pageshadow="2"
     inkscape:cx="306.95595"
     inkscape:cy="110.29204"
     inkscape:zoom="0.70000001"
     inkscape:document-units="px"
     inkscape:current-layer="layer1"
     width="729.09003px"
     inkscape:window-width="1008"
     inkscape:window-height="689"
     inkscape:window-x="337"
     inkscape:window-y="157" />
  <metadata
     id="metadata13650">
    <rdf:RDF>
      <cc:Work
         rdf:about="">
        <dc:format>image/svg+xml</dc:format>
        <dc:type
           rdf:resource="http://purl.org/dc/dcmitype/StillImage" />
      </cc:Work>
    </rdf:RDF>
  </metadata>
  <g
     inkscape:groupmode="layer"
     inkscape:label="Warstwa 1"
     id="layer1"
     transform="translate(151.72453,67.347745)">
    <path
       sodipodi:type="arc"
       style="fill:url(#radialGradient13821);fill-opacity:1;stroke:none;stroke-opacity:1"
       id="path13740"
       sodipodi:cx="179.04955"
       sodipodi:cy="512.94073"
       sodipodi:rx="58.841385"
       sodipodi:ry="21.213203"
       d="M 237.89093 512.94073 A 58.841385 21.213203 0 1 1  120.20816,512.94073 A 58.841385 21.213203 0 1 1  237.89093 512.94073 z"
       transform="matrix(1.7564578,0,0,2.1276803,-208.49028,-985.446)"
       inkscape:export-filename="/home/kamil/moneyK.png"
       inkscape:export-xdpi="138.55963"
       inkscape:export-ydpi="138.55963" />
    <g
       style="opacity:1"
       id="g13742"
       transform="matrix(1.3312643,0,0,1.3312643,-59.27291,-673.55492)"
       inkscape:export-filename="/home/kamil/moneyK.png"
       inkscape:export-xdpi="138.55963"
       inkscape:export-ydpi="138.55963">
      <path
         transform="matrix(1.000238,0,0,0.934576,39.52014,34.95352)"
         d="M 145.71429 579.86218 A 69.64286 32.5 0 1 1  6.428566,579.86218 A 69.64286 32.5 0 1 1  145.71429 579.86218 z"
         sodipodi:ry="32.5"
         sodipodi:rx="69.64286"
         sodipodi:cy="579.86218"
         sodipodi:cx="76.071426"
         id="path13744"
         style="fill:url(#linearGradient13823);fill-opacity:1;stroke:#000000;stroke-opacity:1"
         sodipodi:type="arc" />
      <path
         transform="translate(38.92857,-11.07143)"
         d="M 145.71429 579.86218 A 69.64286 32.5 0 1 1  6.428566,579.86218 A 69.64286 32.5 0 1 1  145.71429 579.86218 z"
         sodipodi:ry="32.5"
         sodipodi:rx="69.64286"
         sodipodi:cy="579.86218"
         sodipodi:cx="76.071426"
         id="path13746"
         style="fill:url(#linearGradient13825);fill-opacity:1;stroke:#000000;stroke-opacity:1"
         sodipodi:type="arc" />
      <path
         sodipodi:nodetypes="cccc"
         id="path13748"
         d="M 45.357143,568.79075 L 45.966824,577.88521 L 46.428572,580.93361 L 46.302303,574.33916"
         style="fill:none;fill-rule:evenodd;stroke:#000000;stroke-width:1px;stroke-linecap:butt;stroke-linejoin:miter;stroke-opacity:1" />
      <path
         sodipodi:nodetypes="ccccc"
         id="path13750"
         d="M 184.60538,567.48896 L 185.11045,576.70661 L 184.60538,580.74721 L 184.22657,572.79226 L 184.1003,572.79226"
         style="fill:none;fill-rule:evenodd;stroke:#000000;stroke-width:1px;stroke-linecap:butt;stroke-linejoin:miter;stroke-opacity:1" />
      <path
         sodipodi:nodetypes="ccccc"
         id="path13752"
         d="M 54.295699,584.66155 L 54.373182,591.48008 C 61.338656,598.83141 85.101281,604.35641 95.887008,606.56923 L 95.964491,599.87697 C 84.445728,599.82246 61.832194,592.78368 54.683116,585.16663"
         style="fill:#000000;fill-opacity:0.4678112;fill-rule:evenodd;stroke:none;stroke-width:1px;stroke-linecap:butt;stroke-linejoin:miter;stroke-opacity:1" />
      <path
         sodipodi:nodetypes="ccccc"
         id="path13754"
         d="M 139.74829,599.2772 L 139.82578,605.33811 C 145.62743,604.74133 168.67573,602.29897 182.16035,585.82954 L 182.23783,576.86444 C 173.64987,588.95776 152.50528,598.04919 141.27213,598.26705"
         style="fill:#000000;fill-opacity:0.4678112;fill-rule:evenodd;stroke:none;stroke-width:1px;stroke-linecap:butt;stroke-linejoin:miter;stroke-opacity:1" />
      <path
         transform="matrix(0.915959,0,0,0.877267,45.32268,59.80498)"
         d="M 145.71429 579.86218 A 69.64286 32.5 0 1 1  6.428566,579.86218 A 69.64286 32.5 0 1 1  145.71429 579.86218 z"
         sodipodi:ry="32.5"
         sodipodi:rx="69.64286"
         sodipodi:cy="579.86218"
         sodipodi:cx="76.071426"
         id="path13756"
         style="fill:url(#linearGradient13827);fill-opacity:1;stroke:#000000;stroke-opacity:1"
         sodipodi:type="arc" />
      <path
         id="path13758"
         d="M 145.46197,576.58033 C 155.05842,566.98388 161.62441,561.42805 152.53303,552.84175 C 143.44166,544.25545 123.23861,540.21484 103.54064,541.73007 C 83.842661,543.2453 66.670068,549.30621 60.609153,558.39759 C 54.548237,567.48896 56.063466,574.56003 61.619305,578.60064 C 67.175144,582.64125 74.751288,583.14633 74.751288,583.14633"
         style="fill:url(#linearGradient13829);fill-rule:evenodd;stroke:none;stroke-width:1px;stroke-linecap:butt;stroke-linejoin:miter;stroke-opacity:1" />
      <path
         sodipodi:nodetypes="cccccccc"
         id="path13760"
         d="M 59.093924,576.32779 C 63.786075,580.36148 69.137078,584.32197 79.802051,587.69201 L 169.70563,562.94327 C 166.73704,556.64097 160.29619,552.0748 149.25004,549.81129 L 117.43023,547.03337 L 86.620581,553.34682 L 121.47085,557.89252 L 59.093924,576.3278"
         style="fill:url(#linearGradient13831);fill-rule:evenodd;stroke:#000000;stroke-width:1px;stroke-linecap:butt;stroke-linejoin:miter;stroke-opacity:1" />
    </g>
    <path
       sodipodi:type="arc"
       style="fill:url(#radialGradient13508);fill-opacity:1;stroke:none;stroke-opacity:1"
       id="path13506"
       sodipodi:cx="179.04955"
       sodipodi:cy="512.94073"
       sodipodi:rx="58.841385"
       sodipodi:ry="21.213203"
       d="M 237.89093 512.94073 A 58.841385 21.213203 0 1 1  120.20816,512.94073 A 58.841385 21.213203 0 1 1  237.89093 512.94073 z"
       transform="matrix(2.2757071,-0.7577051,0.7768123,3.2571322,-520.15344,-1415.2107)" />
    <path
       style="opacity:1;fill:#008000;fill-rule:evenodd;stroke:#000000;stroke-width:2.59022069px;stroke-linecap:butt;stroke-linejoin:miter;stroke-opacity:1"
       d="M -80.985204,22.254872 C -80.985204,22.254872 132.52317,139.16683 150.57663,150.46422 C 169.80916,162.49946 223.30823,210.1259 222.53085,210.64415 L 386.06323,113.833 C 386.06323,113.833 244.77125,11.788802 219.91434,2.6309725 C 195.05743,-6.5268293 77.314133,-47.082869 77.314133,-47.082869 L -80.985204,22.254872 z "
       id="path13765"
       sodipodi:nodetypes="csccscc" />
    <path
       style="opacity:1;fill:#008000;fill-rule:evenodd;stroke:#000000;stroke-width:2.59022069px;stroke-linecap:butt;stroke-linejoin:miter;stroke-opacity:1"
       d="M -81.639338,16.367716 C -81.639338,16.367716 132.0552,132.98747 149.92248,144.57707 C 198.32806,175.97528 224.49322,195.59919 224.49322,195.59919 L 385.40909,92.246723 C 385.40909,92.246723 304.29703,37.299856 219.26022,-3.2561839 C 195.35003,-14.6595 76.659987,-52.970026 76.659987,-52.970026 L -81.639338,16.367716 z "
       id="path13767"
       sodipodi:nodetypes="csccscc" />
    <path
       style="opacity:1;fill:#008000;fill-rule:evenodd;stroke:#000000;stroke-width:2.59022069px;stroke-linecap:butt;stroke-linejoin:miter;stroke-opacity:1"
       d="M -80.331095,9.8263997 C -80.331095,9.8263997 133.13602,126.80454 151.23073,138.03576 C 189.17023,161.58442 224.49322,175.97526 224.49322,175.97526 L 382.79255,66.081532 C 382.79255,66.081532 299.06398,24.217249 220.56844,-9.7975001 C 196.26221,-20.330217 77.968232,-59.511344 77.968232,-59.511344 L -80.331095,9.8263997 z "
       id="path13769"
       sodipodi:nodetypes="csccscc" />
    <path
       style="opacity:1;fill:#008000;fill-rule:evenodd;stroke:#000000;stroke-width:2.59022069px;stroke-linecap:butt;stroke-linejoin:miter;stroke-opacity:1"
       d="M -79.022827,3.2851067 C -79.022827,3.2851067 133.83258,121.31467 152.53899,131.49447 C 186.99368,150.24426 224.49322,149.8101 224.49322,149.8101 L 378.86782,22.908981 C 378.86782,22.908981 291.21444,18.984227 223.18497,-13.72228 C 199.31061,-25.200351 79.276501,-66.052635 79.276501,-66.052635 L -79.022827,3.2851067 z "
       id="path13771"
       sodipodi:nodetypes="csccscc" />
    <path
       style="opacity:1;fill:url(#linearGradient13869);fill-opacity:1;fill-rule:evenodd;stroke:#000000;stroke-width:2.45891571px;stroke-linecap:butt;stroke-linejoin:miter;stroke-opacity:1"
       d="M -64.043504,2.8089467 C -64.043504,2.8089467 137.31097,116.29473 155.77988,124.51903 C 189.63451,139.59466 221.47006,140.59793 221.47006,140.59793 L 360.16943,27.97931 C 360.16943,27.97931 283.50073,24.253512 218.91986,-6.7950214 C 196.25574,-17.691248 80.99819,-60.397405 80.99819,-60.397405 L -64.043504,2.8089467 z "
       id="path13773"
       sodipodi:nodetypes="csccscc" />
    <path
       style="opacity:1;fill:url(#linearGradient13866);fill-opacity:1;fill-rule:evenodd;stroke:none;stroke-width:1px;stroke-linecap:butt;stroke-linejoin:miter;stroke-opacity:1"
       d="M 70.772815,35.337454 C 52.457206,35.337454 -37.812653,26.179652 -32.57963,3.9392409 C -27.34658,-18.301168 58.998492,-51.007649 96.937996,-45.774601 C 134.8775,-40.541579 251.31255,1.3227042 247.38779,23.563115 C 243.46303,45.803498 253.92906,31.412674 253.92906,31.412674"
       id="path13775"
       sodipodi:nodetypes="csssc" />
    <path
       sodipodi:type="arc"
       style="fill:url(#radialGradient13837);fill-opacity:1;stroke:none;stroke-opacity:1"
       id="path13777"
       sodipodi:cx="179.04955"
       sodipodi:cy="512.94073"
       sodipodi:rx="58.841385"
       sodipodi:ry="21.213203"
       d="M 237.89093 512.94073 A 58.841385 21.213203 0 1 1  120.20816,512.94073 A 58.841385 21.213203 0 1 1  237.89093 512.94073 z"
       transform="matrix(1.7564578,0,0,2.1276803,-362.86509,-1056.0918)"
       inkscape:export-filename="/home/kamil/moneyK.png"
       inkscape:export-xdpi="138.55963"
       inkscape:export-ydpi="138.55963" />
    <g
       id="g13779"
       transform="matrix(2.5902205,0,0,2.5902205,-646.24582,-1217.4679)"
       inkscape:export-filename="/home/kamil/moneyK.png"
       inkscape:export-xdpi="138.55963"
       inkscape:export-ydpi="138.55963">
      <path
         transform="matrix(0.51408,0,0,0.480333,189.8495,199.1623)"
         d="M 145.71429 579.86218 A 69.64286 32.5 0 1 1  6.428566,579.86218 A 69.64286 32.5 0 1 1  145.71429 579.86218 z"
         sodipodi:ry="32.5"
         sodipodi:rx="69.64286"
         sodipodi:cy="579.86218"
         sodipodi:cx="76.071426"
         id="path13781"
         style="opacity:1;fill:url(#linearGradient13839);fill-opacity:1;stroke:#000000;stroke-opacity:1"
         sodipodi:type="arc" />
      <path
         transform="matrix(0.513958,0,0,0.513958,189.5454,175.5074)"
         d="M 145.71429 579.86218 A 69.64286 32.5 0 1 1  6.428566,579.86218 A 69.64286 32.5 0 1 1  145.71429 579.86218 z"
         sodipodi:ry="32.5"
         sodipodi:rx="69.64286"
         sodipodi:cy="579.86218"
         sodipodi:cx="76.071426"
         id="path13783"
         style="opacity:1;fill:url(#linearGradient13841);fill-opacity:1;stroke:#000000;stroke-opacity:1"
         sodipodi:type="arc" />
      <path
         sodipodi:nodetypes="cccc"
         id="path13785"
         d="M 192.84947,473.53226 L 193.16282,478.20643 L 193.40014,479.77318 L 193.33524,476.38391"
         style="opacity:1;fill:none;fill-rule:evenodd;stroke:#000000;stroke-width:0.51395798px;stroke-linecap:butt;stroke-linejoin:miter;stroke-opacity:1" />
      <path
         sodipodi:nodetypes="ccccc"
         id="path13787"
         d="M 264.41721,472.86319 L 264.6768,477.60068 L 264.41721,479.67737 L 264.22252,475.58886 L 264.15762,475.58886"
         style="opacity:1;fill:none;fill-rule:evenodd;stroke:#000000;stroke-width:0.51395798px;stroke-linecap:butt;stroke-linejoin:miter;stroke-opacity:1" />
      <path
         sodipodi:nodetypes="ccccc"
         id="path13789"
         d="M 197.44351,481.68918 L 197.48333,485.19362 C 201.06329,488.97189 213.27628,491.81151 218.81969,492.94881 L 218.85952,489.50927 C 212.93936,489.48125 201.31695,485.86361 197.64262,481.94877"
         style="opacity:1;fill:#000000;fill-opacity:0.4678112;fill-rule:evenodd;stroke:none;stroke-width:1px;stroke-linecap:butt;stroke-linejoin:miter;stroke-opacity:1" />
      <path
         sodipodi:nodetypes="ccccc"
         id="path13791"
         d="M 241.36255,489.20101 L 241.40238,492.31606 C 244.38418,492.00934 256.23004,490.75407 263.16057,482.28948 L 263.20039,477.68179 C 258.78654,483.89725 247.91911,488.56987 242.14574,488.68184"
         style="opacity:1;fill:#000000;fill-opacity:0.4678112;fill-rule:evenodd;stroke:none;stroke-width:1px;stroke-linecap:butt;stroke-linejoin:miter;stroke-opacity:1" />
      <path
         transform="matrix(0.470764,0,0,0.450878,192.8318,211.9349)"
         d="M 145.71429 579.86218 A 69.64286 32.5 0 1 1  6.428566,579.86218 A 69.64286 32.5 0 1 1  145.71429 579.86218 z"
         sodipodi:ry="32.5"
         sodipodi:rx="69.64286"
         sodipodi:cy="579.86218"
         sodipodi:cx="76.071426"
         id="path13793"
         style="opacity:1;fill:url(#linearGradient13843);fill-opacity:1;stroke:url(#linearGradient13845);stroke-opacity:1"
         sodipodi:type="arc" />
      <path
         id="path13795"
         d="M 244.29914,477.53577 C 249.23132,472.6036 252.60596,469.74814 247.93337,465.33514 C 243.26079,460.92214 232.87727,458.84544 222.75334,459.6242 C 212.62941,460.40297 203.80341,463.51802 200.68836,468.19061 C 197.5733,472.86319 198.35207,476.49742 201.20753,478.57413 C 204.063,480.65083 207.95682,480.91042 207.95682,480.91042"
         style="opacity:1;fill:url(#linearGradient13847);fill-rule:evenodd;stroke:none;stroke-width:1px;stroke-linecap:butt;stroke-linejoin:miter;stroke-opacity:1" />
      <path
         sodipodi:nodetypes="cccccccc"
         id="path13797"
         d="M 199.90959,477.40598 C 202.32116,479.47913 205.07135,481.51465 210.5527,483.24671 L 256.75937,470.5269 C 255.23364,467.28778 251.92331,464.94096 246.24605,463.77761 L 229.89201,462.34988 L 214.05714,465.59472 L 231.96872,467.93102 L 199.90959,477.40598"
         style="opacity:1;fill:url(#linearGradient13849);fill-opacity:1;fill-rule:evenodd;stroke:url(#linearGradient13851);stroke-width:0.51395798px;stroke-linecap:butt;stroke-linejoin:miter;stroke-opacity:1" />
    </g>
    <path
       sodipodi:type="arc"
       style="fill:url(#radialGradient13853);fill-opacity:1;stroke:none;stroke-opacity:1"
       id="path13799"
       sodipodi:cx="179.04955"
       sodipodi:cy="512.94073"
       sodipodi:rx="58.841385"
       sodipodi:ry="21.213203"
       d="M 237.89093 512.94073 A 58.841385 21.213203 0 1 1  120.20816,512.94073 A 58.841385 21.213203 0 1 1  237.89093 512.94073 z"
       transform="matrix(1.7564578,0,0,2.1276803,-145.69405,-1104.4976)"
       inkscape:export-filename="/home/kamil/moneyK.png"
       inkscape:export-xdpi="138.55963"
       inkscape:export-ydpi="138.55963" />
    <g
       style="opacity:1"
       id="g13801"
       transform="matrix(1.2221595,0,0,1.2221595,16.103857,-721.06651)"
       inkscape:export-filename="/home/kamil/moneyK.png"
       inkscape:export-xdpi="138.55963"
       inkscape:export-ydpi="138.55963">
      <path
         transform="matrix(1.000238,0,0,0.934576,39.52014,34.95352)"
         d="M 145.71429 579.86218 A 69.64286 32.5 0 1 1  6.428566,579.86218 A 69.64286 32.5 0 1 1  145.71429 579.86218 z"
         sodipodi:ry="32.5"
         sodipodi:rx="69.64286"
         sodipodi:cy="579.86218"
         sodipodi:cx="76.071426"
         id="path13803"
         style="fill:url(#linearGradient13855);fill-opacity:1;stroke:#000000;stroke-opacity:1"
         sodipodi:type="arc" />
      <path
         transform="translate(38.92857,-11.07143)"
         d="M 145.71429 579.86218 A 69.64286 32.5 0 1 1  6.428566,579.86218 A 69.64286 32.5 0 1 1  145.71429 579.86218 z"
         sodipodi:ry="32.5"
         sodipodi:rx="69.64286"
         sodipodi:cy="579.86218"
         sodipodi:cx="76.071426"
         id="path13805"
         style="fill:url(#linearGradient13857);fill-opacity:1;stroke:#000000;stroke-opacity:1"
         sodipodi:type="arc" />
      <path
         sodipodi:nodetypes="cccc"
         id="path13807"
         d="M 45.357143,568.79075 L 45.966824,577.88521 L 46.428572,580.93361 L 46.302303,574.33916"
         style="fill:none;fill-rule:evenodd;stroke:#000000;stroke-width:1px;stroke-linecap:butt;stroke-linejoin:miter;stroke-opacity:1" />
      <path
         sodipodi:nodetypes="ccccc"
         id="path13809"
         d="M 184.60538,567.48896 L 185.11045,576.70661 L 184.60538,580.74721 L 184.22657,572.79226 L 184.1003,572.79226"
         style="fill:none;fill-rule:evenodd;stroke:#000000;stroke-width:1px;stroke-linecap:butt;stroke-linejoin:miter;stroke-opacity:1" />
      <path
         sodipodi:nodetypes="ccccc"
         id="path13811"
         d="M 54.295699,584.66155 L 54.373182,591.48008 C 61.338656,598.83141 85.101281,604.35641 95.887008,606.56923 L 95.964491,599.87697 C 84.445728,599.82246 61.832194,592.78368 54.683116,585.16663"
         style="fill:#000000;fill-opacity:0.4678112;fill-rule:evenodd;stroke:none;stroke-width:1px;stroke-linecap:butt;stroke-linejoin:miter;stroke-opacity:1" />
      <path
         sodipodi:nodetypes="ccccc"
         id="path13813"
         d="M 139.74829,599.2772 L 139.82578,605.33811 C 145.62743,604.74133 168.67573,602.29897 182.16035,585.82954 L 182.23783,576.86444 C 173.64987,588.95776 152.50528,598.04919 141.27213,598.26705"
         style="fill:#000000;fill-opacity:0.4678112;fill-rule:evenodd;stroke:none;stroke-width:1px;stroke-linecap:butt;stroke-linejoin:miter;stroke-opacity:1" />
      <path
         transform="matrix(0.915959,0,0,0.877267,45.32268,59.80498)"
         d="M 145.71429 579.86218 A 69.64286 32.5 0 1 1  6.428566,579.86218 A 69.64286 32.5 0 1 1  145.71429 579.86218 z"
         sodipodi:ry="32.5"
         sodipodi:rx="69.64286"
         sodipodi:cy="579.86218"
         sodipodi:cx="76.071426"
         id="path13815"
         style="fill:url(#linearGradient13859);fill-opacity:1;stroke:#000000;stroke-opacity:1"
         sodipodi:type="arc" />
      <path
         id="path13817"
         d="M 145.46197,576.58033 C 155.05842,566.98388 161.62441,561.42805 152.53303,552.84175 C 143.44166,544.25545 123.23861,540.21484 103.54064,541.73007 C 83.842661,543.2453 66.670068,549.30621 60.609153,558.39759 C 54.548237,567.48896 56.063466,574.56003 61.619305,578.60064 C 67.175144,582.64125 74.751288,583.14633 74.751288,583.14633"
         style="fill:url(#linearGradient13861);fill-rule:evenodd;stroke:none;stroke-width:1px;stroke-linecap:butt;stroke-linejoin:miter;stroke-opacity:1" />
      <path
         sodipodi:nodetypes="cccccccc"
         id="path13819"
         d="M 59.093924,576.32779 C 63.786075,580.36148 69.137078,584.32197 79.802051,587.69201 L 169.70563,562.94327 C 166.73704,556.64097 160.29619,552.0748 149.25004,549.81129 L 117.43023,547.03337 L 86.620581,553.34682 L 121.47085,557.89252 L 59.093924,576.3278"
         style="fill:url(#linearGradient13863);fill-rule:evenodd;stroke:#000000;stroke-width:1px;stroke-linecap:butt;stroke-linejoin:miter;stroke-opacity:1" />
    </g>
  </g>
</svg>
