<?xml version="1.0" encoding="UTF-8" standalone="no"?>
<!-- Created with Inkscape (http://www.inkscape.org/) -->

<svg
   xmlns:dc="http://purl.org/dc/elements/1.1/"
   xmlns:cc="http://creativecommons.org/ns#"
   xmlns:rdf="http://www.w3.org/1999/02/22-rdf-syntax-ns#"
   xmlns:svg="http://www.w3.org/2000/svg"
   xmlns="http://www.w3.org/2000/svg"
   xmlns:sodipodi="http://sodipodi.sourceforge.net/DTD/sodipodi-0.dtd"
   xmlns:inkscape="http://www.inkscape.org/namespaces/inkscape"
   id="svg2"
   sodipodi:version="0.32"
   inkscape:version="0.48.2 r9819"
   width="595.27559pt"
   height="841.88976pt"
   sodipodi:docname="PeterM_Flower.svg"
   version="1.1">
  <metadata
     id="metadata7">
    <rdf:RDF>
      <cc:Work
         rdf:about="">
        <dc:format>image/svg+xml</dc:format>
        <dc:type
           rdf:resource="http://purl.org/dc/dcmitype/StillImage" />
        <dc:title></dc:title>
      </cc:Work>
    </rdf:RDF>
  </metadata>
  <defs
     id="defs5" />
  <sodipodi:namedview
     inkscape:window-height="721"
     inkscape:window-width="1270"
     inkscape:pageshadow="2"
     inkscape:pageopacity="0.0"
     borderopacity="1.0"
     bordercolor="#666666"
     pagecolor="#ffffff"
     id="base"
     inkscape:zoom="0.37724655"
     inkscape:cx="372.04724"
     inkscape:cy="473.8636"
     inkscape:window-x="0"
     inkscape:window-y="29"
     inkscape:current-layer="svg2"
     showgrid="false"
     inkscape:window-maximized="0" />
  <g
     id="g5840"
     transform="matrix(1.2783525,0.40249133,-0.40249133,1.2783525,-459.94613,-279.38303)"
     inkscape:export-filename="/home/adrie/Documenten/bier/BrouwHulp/BrouwHulp Gold/Artwork/voorjaar.png"
     inkscape:export-xdpi="1.8553612"
     inkscape:export-ydpi="1.8553612">
    <path
       id="path2195"
       d="m 796.8125,295.5 c -0.87575,0.0895 -1.79246,0.40048 -2.75,0.9375 -6.26356,3.51284 -1.11629,104.87666 -27.09375,196.4375 C 757.99251,468.07073 723.97814,435.17912 677.1875,408.96875 613.94367,373.54191 551.37941,363.73074 537.53125,387.0625 523.68311,410.39425 563.75619,458.07317 627,493.5 c 53.2999,29.85661 106.01238,41.44166 129.59375,30.40625 -6.78395,17.66096 -14.85325,34.54151 -24.90625,49.53125 -65.83589,98.16593 -173.25295,73.18272 -176.15625,78.6875 -30.59699,58.01098 126.47663,40.91594 192.3125,-57.25 15.71762,-23.43609 28.2892,-53.68766 37.9375,-85.90625 0.23459,0.41062 0.35958,0.88868 0.625,1.28125 15.19653,22.4768 75.41993,6.56112 134.4375,-35.53125 59.01758,-42.09238 94.57155,-94.49195 79.37505,-116.96875 -15.19651,-22.47681 -75.41997,-6.56113 -134.43755,35.53125 -29.57094,21.09053 -53.26506,44.76238 -67.625,65.96875 17.14781,-84.21617 15.73377,-165.49593 -1.34375,-163.75 z"
       style="fill:#35e23e;fill-opacity:1;fill-rule:nonzero;stroke:#12892d;stroke-width:17.00499916;stroke-linecap:round;stroke-linejoin:round;stroke-miterlimit:4;stroke-opacity:1;stroke-dasharray:none;stroke-dashoffset:0"
       inkscape:connector-curvature="0" />
    <path
       transform="matrix(4.224992,0,0,4.224992,-1287.368,-859.238)"
       d="m 521.87211,275.23304 c -43.01606,-29.58772 2.17555,-28.10945 -47.10459,-10.86759 -26.51418,9.27664 3.60143,50.21506 11.5895,23.28462 14.8469,-50.05381 27.40597,-6.61722 -4.22043,-48.15739 -17.01594,-22.34985 -46.64446,18.94247 -18.56363,18.21761 52.19194,-1.34723 14.76226,24.01979 44.49622,-18.89531 15.99775,-23.08961 -32.42929,-38.50798 -23.06246,-12.02552 17.40949,49.22117 -18.28239,21.46227 31.7206,36.47944 26.9031,8.07969 26.60206,-42.7417 4.31025,-25.64979 -41.43228,31.7676 -26.0614,-10.75537 -24.8918,41.44086 0.62927,28.08312 48.87026,12.09215 25.72634,-3.82693 z"
       inkscape:randomized="0"
       inkscape:rounded="1.08"
       inkscape:flatsided="false"
       sodipodi:arg2="2.801306"
       sodipodi:arg1="0.60613533"
       sodipodi:r2="22.067102"
       sodipodi:r1="32.004192"
       sodipodi:cy="257.0004"
       sodipodi:cx="495.56927"
       sodipodi:sides="5"
       id="path1549"
       style="fill:#fa9806;fill-opacity:1;fill-rule:nonzero;stroke:#f58006;stroke-width:4.02476978;stroke-linecap:butt;stroke-linejoin:round;stroke-miterlimit:4;stroke-opacity:1;stroke-dashoffset:0"
       sodipodi:type="star" />
    <path
       transform="matrix(4.224992,0,0,4.224992,-1440.171,-885.7572)"
       d="m 539.80589,261.93216 c 0,4.86973 -3.9477,8.81743 -8.81743,8.81743 -4.86973,0 -8.81742,-3.9477 -8.81742,-8.81743 0,-4.86973 3.94769,-8.81743 8.81742,-8.81743 4.86973,0 8.81743,3.9477 8.81743,8.81743 z"
       sodipodi:ry="8.8174267"
       sodipodi:rx="8.8174267"
       sodipodi:cy="261.93216"
       sodipodi:cx="530.98846"
       id="path1551"
       style="fill:#fadc06;fill-opacity:1;fill-rule:nonzero;stroke:#f58006;stroke-width:4.02476978;stroke-linecap:butt;stroke-linejoin:round;stroke-miterlimit:4;stroke-opacity:1;stroke-dashoffset:0"
       sodipodi:type="arc" />
  </g>
</svg>
