<?xml version="1.0" encoding="UTF-8" standalone="no"?>
<!-- Created with Inkscape (http://www.inkscape.org/) -->
<svg
   xmlns:dc="http://purl.org/dc/elements/1.1/"
   xmlns:cc="http://web.resource.org/cc/"
   xmlns:rdf="http://www.w3.org/1999/02/22-rdf-syntax-ns#"
   xmlns:svg="http://www.w3.org/2000/svg"
   xmlns="http://www.w3.org/2000/svg"
   xmlns:sodipodi="http://sodipodi.sourceforge.net/DTD/sodipodi-0.dtd"
   xmlns:inkscape="http://www.inkscape.org/namespaces/inkscape"
   width="489.99997"
   height="489.99997"
   id="svg2"
   sodipodi:version="0.32"
   inkscape:version="0.45"
   version="1.0"
   sodipodi:docbase="/home/inigo/imagen/propias/señales"
   sodipodi:docname="stout.svg"
   inkscape:output_extension="org.inkscape.output.svg.inkscape"
   sodipodi:modified="TRUE">
  <defs
     id="defs4" />
  <sodipodi:namedview
     id="base"
     pagecolor="#ffffff"
     bordercolor="#666666"
     borderopacity="1.0"
     inkscape:pageopacity="0.0"
     inkscape:pageshadow="2"
     inkscape:zoom="0.72978677"
     inkscape:cx="372.04724"
     inkscape:cy="142.50738"
     inkscape:document-units="px"
     inkscape:current-layer="layer1"
     width="744.09px"
     height="1052.3622px"
     inkscape:window-width="1280"
     inkscape:window-height="980"
     inkscape:window-x="0"
     inkscape:window-y="44" />
  <metadata
     id="metadata7">
    <rdf:RDF>
      <cc:Work
         rdf:about="">
        <dc:format>image/svg+xml</dc:format>
        <dc:type
           rdf:resource="http://purl.org/dc/dcmitype/StillImage" />
      </cc:Work>
    </rdf:RDF>
  </metadata>
  <g
     inkscape:label="Capa 1"
     inkscape:groupmode="layer"
     id="layer1"
     transform="translate(-107.42858,-205.36216)">
    <g
       id="g3409"
       transform="matrix(1,0,0,0.9979633,0,1.416195)"
       inkscape:export-xdpi="188"
       inkscape:export-ydpi="188">
      <path
         id="path2438"
         d="M 253.4987,208.28002 L 450.81661,206.90975 L 594.69425,349.41713 L 594.69425,549.47557 L 453.55714,693.35321 L 253.4987,693.35321 L 109.62106,549.47557 L 108.2508,352.15766 L 253.4987,208.28002 z "
         style="fill:#ffffff;fill-opacity:1;fill-rule:evenodd;stroke:#000000;stroke-width:1px;stroke-linecap:butt;stroke-linejoin:miter;stroke-opacity:1" />
      <path
         id="path2434"
         d="M 179.67599,623.10962 L 107.42858,550.85705 L 107.42858,450.35705 L 107.42858,349.85705 L 180.18113,277.10962 L 252.93368,204.36219 L 352.93376,204.36219 L 452.93376,204.36219 L 525.18116,276.61476 L 597.42856,348.86733 L 597.42856,450.36736 L 597.42856,551.8674 L 525.67596,623.61479 L 453.92336,695.36219 L 352.92336,695.36219 L 251.92341,695.36219 L 179.67599,623.10962 z M 522.17586,619.11489 L 591.42856,549.86759 L 591.42856,450.36755 L 591.42856,350.86751 L 521.68126,281.11485 L 451.93396,211.36219 L 352.92856,211.36219 L 253.92326,211.36219 L 183.67592,281.61483 L 113.42858,351.86747 L 113.42858,450.36217 L 113.42858,548.85687 L 183.1759,618.60953 L 252.92322,688.36219 L 352.92326,688.36219 L 452.92326,688.36219 L 522.17586,619.11489 z M 192.17574,609.60937 L 126.42858,543.85655 L 126.42858,450.35657 L 126.42858,356.85659 L 193.18135,290.10939 L 259.93416,223.36219 L 352.93416,223.36219 L 445.93426,223.36219 L 512.18136,289.61499 L 578.42856,355.86779 L 578.42856,450.36785 L 578.42856,544.86792 L 513.17576,610.11505 L 447.92286,675.36219 L 352.92286,675.36219 L 257.92286,675.36219 L 192.17574,609.60937 z M 199.8094,495.36596 C 210.43149,491.31033 216.80251,483.54994 218.01826,473.1862 C 218.85725,466.0342 217.10051,460.11169 212.69299,455.2331 C 207.75416,449.7664 204.3773,448.24248 186.6657,443.48738 C 164.32017,437.48819 160.42858,435.01121 160.42858,426.78757 C 160.42858,417.9794 167.29927,412.32682 178.91137,411.5816 C 188.23763,410.98308 195.13979,413.13031 199.3675,417.94541 C 202.19416,421.1648 202.88008,422.7519 203.65334,427.86219 C 203.91363,429.58239 204.72351,429.86219 209.44228,429.86219 L 214.92858,429.86219 L 214.60626,425.87947 C 213.80986,416.03865 206.93752,407.1487 197.56199,403.83125 C 185.66213,399.62059 167.73688,401.18928 158.94201,407.21099 C 144.51925,417.08604 144.7955,439.87169 159.42858,447.34411 C 161.35358,448.32712 168.32858,450.55204 174.92858,452.2884 C 181.52858,454.02475 189.66846,456.3392 193.0172,457.43162 C 199.55045,459.56289 205.06024,464.04644 206.06483,468.04903 C 206.97172,471.66237 205.82405,476.99806 203.41107,480.38678 C 199.96153,485.2312 196.02726,486.70238 185.27511,487.16853 C 173.7205,487.66947 167.31609,485.94321 162.723,481.08976 C 158.88417,477.03333 157.84137,474.95179 156.94854,469.56327 L 156.23625,465.26434 L 151.08241,465.56327 L 145.92858,465.86219 L 146.18256,470.72698 C 146.84813,483.47514 155.74494,493.32448 169.92858,497.01533 C 177.44021,498.97 192.55528,498.13568 199.8094,495.36596 z M 352.54206,497.3482 C 368.67586,494.31109 381.47956,481.78164 385.93686,464.66889 C 387.83536,457.38033 387.82776,443.68089 385.92096,435.59303 C 381.87966,418.4521 369.90856,406.16037 353.54736,402.35224 C 344.65166,400.28174 331.86566,401.50118 324.03136,405.16728 C 311.49956,411.03164 301.98926,423.43214 299.42736,437.24868 C 292.36296,475.3472 317.61736,503.92265 352.54206,497.3482 z M 328.61506,484.32132 C 316.72466,478.33475 310.41656,466.42477 310.44046,450.00685 C 310.46016,436.48408 314.34326,426.15634 321.90386,419.51804 C 326.92106,415.11286 330.69896,413.36856 337.64556,412.24984 C 352.70706,409.82426 365.56136,416.89103 372.32746,431.31656 C 374.71116,436.39867 374.92856,437.94878 374.92856,449.86219 C 374.92856,461.86089 374.72286,463.30095 372.25836,468.55869 C 370.78976,471.69176 367.63976,476.20112 365.25836,478.57949 C 358.80156,485.02806 354.49226,486.76167 343.92856,487.16037 C 335.47016,487.47961 334.54866,487.30876 328.61506,484.32132 z M 454.42856,495.79498 C 460.24846,493.52598 465.95536,489.39215 469.03996,485.21119 C 474.01306,478.47052 474.42856,474.76712 474.42856,437.18069 L 474.42856,402.36219 L 468.42856,402.36219 L 462.42856,402.36219 L 462.42296,436.61219 C 462.41976,456.68062 461.99746,472.37415 461.40316,474.51373 C 460.18136,478.91262 454.15956,484.6358 448.94076,486.35815 C 443.81476,488.04989 428.90796,487.24172 424.73026,485.04557 C 422.97116,484.12087 420.27116,481.71215 418.73026,479.69286 L 415.92856,476.02142 L 415.42856,439.44181 L 414.92856,402.86219 L 409.17856,402.56229 L 403.42856,402.26238 L 403.42856,438.13415 C 403.42856,478.16445 403.64326,479.74816 410.09026,487.28009 C 416.76076,495.07299 426.81456,498.5477 440.92856,497.93812 C 446.24376,497.70856 451.77096,496.83111 454.42856,495.79498 z M 265.42856,454.36219 L 265.42856,413.36219 L 280.42856,413.36219 L 295.42856,413.36219 L 295.42856,407.86219 L 295.42856,402.36219 L 259.42856,402.36219 L 223.42858,402.36219 L 223.42858,407.86219 L 223.42858,413.36219 L 238.42858,413.36219 L 253.42858,413.36219 L 253.42858,454.36219 L 253.42858,495.36219 L 259.42856,495.36219 L 265.42856,495.36219 L 265.42856,454.36219 z M 529.42856,454.36219 L 529.42856,413.36219 L 544.42856,413.36219 L 559.42856,413.36219 L 559.42856,407.86219 L 559.42856,402.36219 L 523.42856,402.36219 L 487.42856,402.36219 L 487.42856,407.86219 L 487.42856,413.36219 L 502.42856,413.36219 L 517.42856,413.36219 L 517.42856,454.36219 L 517.42856,495.36219 L 523.42856,495.36219 L 529.42856,495.36219 L 529.42856,454.36219 z "
         style="fill:#000000" />
    </g>
  </g>
</svg>
