<svg xmlns="http://www.w3.org/2000/svg" width="512" height="512">
 <g transform="matrix(1.0416667 0 0 1.0416667 -10.666676 -573.54395)">
  <path d="m 305.71429 246.28572 c 0 45.76074 -37.09641 82.85714 -82.85714 82.85714 -45.76074 0 -82.85714 -37.0964 -82.85714 -82.85714 0 -45.76073 37.0964 -82.85714 82.85714 -82.85714 45.76073 0 82.85714 37.09641 82.85714 82.85714 z" transform="matrix(2.8965518,0,0,2.8965517,-389.51727,82.982847)" fill="#6ea6c1" fill-rule="evenodd"/>
  <path d="m 385.32323 906.22533 6.62218 19.43619 -6.62217 20.2953 51.09067 -19.86574 z" fill="#fff8eb"/>
  <path d="m 92.24085 673.97926 19.43619 -6.62218 20.2953 6.62217 -19.86574 -51.09067 z" fill="#fff8eb"/>
  <path d="m 118.24264 927.19059 c 94.6506 -262.67547 97.92878 -37.60741 244.45227 -181.8751" fill="none" stroke="#cd1d31" stroke-linejoin="round" stroke-width="10"/>
  <text y="726.34167" x="172.57495" fill="#fff8eb" font-family="Sans" word-spacing="0" line-height="125%" letter-spacing="0" font-size="130.72777"><tspan y="726.34167" x="172.57495">f(x)</tspan>
  </text>
  <path fill="#fff8eb" fill-rule="evenodd" d="M 88.5061,919.02 H403.231 V933.162 H88.5061 z"/>
  <path transform="matrix(0,1,-1,0,0,0)" fill="#fff8eb" fill-rule="evenodd" d="M 661.365,-119.178 H954.312 V-105.036 H661.365 z"/>
 </g>
</svg>
