<svg xmlns="http://www.w3.org/2000/svg" width="512" height="512">
 <g transform="matrix(1.0416667 0 0 1.0416667 -10.666676 -573.54395)">
  <path transform="matrix(2.8965518,0,0,2.8965517,-389.51727,82.982847)" d="m 305.71429 246.28572 c 0 45.76074 -37.09641 82.85714 -82.85714 82.85714 -45.76074 0 -82.85714 -37.0964 -82.85714 -82.85714 0 -45.76073 37.0964 -82.85714 82.85714 -82.85714 45.76073 0 82.85714 37.09641 82.85714 82.85714 z" fill="#ffd459" fill-rule="evenodd"/>
  <text x="-286.85162" y="636.31262" font-family="Gentium Book Basic" word-spacing="0" line-height="125%" letter-spacing="0" font-size="200"><tspan x="-286.85162" y="636.31262"/>
  </text>
  <path d="m 256 16 c -14.33408 0 -28.35708 1.278414 -42 3.6875 l -27.53125 62.28125 59.25 0 28.875 -65.28125 C 268.45866 16.2175 262.25554 16 256 16 z m 46.53125 4.53125 -27.1875 61.4375 59.28125 0 L 354.5 37.0625 C 338.08171 29.664822 320.66371 24.09423 302.53125 20.53125 z m -121.875 7.5625 C 151.57972 37.701165 124.96322 52.704597 102 71.9375 l -4.4375 10.03125 59.28125 0 23.8125 -53.875 z m 197.90625 21.5625 -14.28125 32.3125 56.96875 0 C 408.31214 69.68094 393.98555 58.836883 378.5625 49.65625 z" transform="translate(0,540.36217)" opacity="0.8" fill="#282629" fill-rule="evenodd"/>
  <text y="903.30402" x="-2551.3293" font-family="Gentium Book Basic" word-spacing="0" line-height="125%" letter-spacing="0" font-size="200"><tspan y="903.30402" x="-2551.3293"/>
  </text>
  <path d="m 255.8062 668.85853 c -17.19163 -0.0109 -21.47078 0.71364 -45.3007 7.79484 -3.52118 1.04634 -14.85691 6.85545 -23.98905 12.28603 -1.7099 1.01682 -5.30638 3.67985 -7.98915 5.9163 -2.68278 2.23645 -5.86062 4.85286 -7.08229 5.82993 -2.85592 2.28411 -8.83592 8.26413 -11.12009 11.12005 -0.97707 1.22168 -3.62454 4.42112 -5.87311 7.10388 -12.1847 14.53747 -22.73959 40.01533 -25.02547 60.39374 -2.07577 18.50513 -0.65689 38.81764 3.64907 52.10229 1.44568 4.46012 2.91161 9.32771 3.23885 10.81776 1.35261 6.15826 13.23053 26.35727 21.09573 35.86486 9.19958 11.12064 23.51063 23.35491 34.00789 29.08488 3.90831 2.13333 8.72407 4.78699 10.7098 5.8947 4.18006 2.33176 26.02549 9.21401 29.53831 9.30629 1.307 0.0344 3.16871 0.42672 4.14572 0.86371 2.93828 1.31411 39.9711 0.39276 47.09291 -1.16598 10.47128 -2.29194 23.02785 -6.56766 29.4303 -10.01886 13.36279 -7.203 15.93929 -8.8147 22.43447 -14.03502 26.07006 -20.95311 42.27833 -48.00259 47.71905 -79.6757 1.53924 -8.96073 1.29692 -38.45228 -0.38866 -46.85535 -1.5306 -7.63018 -7.34713 -25.18215 -9.75974 -29.49513 -1.22975 -2.19841 -3.74462 -6.79512 -5.59244 -10.21316 -4.17579 -7.72431 -17.96482 -24.88696 -23.64357 -29.43035 -2.33398 -1.86733 -6.68795 -5.50235 -9.67336 -8.07553 -2.98541 -2.57319 -5.6688 -4.68554 -5.95949 -4.68554 -0.29074 0 -2.63903 -1.23823 -5.22534 -2.76382 -9.08944 -5.36157 -18.08394 -9.55528 -24.68007 -11.48712 -3.66399 -1.0731 -8.27784 -2.50579 -10.23476 -3.17407 -5.71806 -1.95274 -18.6177 -3.29542 -31.52481 -3.30363 z m -9.7381 11.05527 c 0.76647 -0.0188 1.45066 0.0759 2.18079 0.25912 l 2.22405 0.5614 0 22.5208 c 0 17.78713 -0.24398 22.73089 -1.18761 23.51404 -1.34426 1.11563 -49.77499 1.90878 -51.49768 0.8421 -1.41535 -0.87638 5.44908 -13.63874 11.94053 -22.17532 6.96323 -9.15689 16.97716 -17.75343 25.17665 -21.59233 5.96716 -2.79371 8.86371 -3.87341 11.16327 -3.92981 z m 18.46141 0.0432 c 2.18985 -0.088 5.24068 1.05818 11.96215 4.31848 8.5838 4.16358 17.38974 11.74589 24.24822 20.85819 5.44583 7.23545 13.01247 20.69768 12.286 21.87303 -0.26207 0.42415 -11.79542 0.77732 -25.63005 0.77732 -20.31262 0 -25.34775 -0.24014 -26.16992 -1.23076 -0.74193 -0.89396 -0.85173 -7.26587 -0.41028 -23.51405 0.56776 -20.89477 0.71728 -22.33906 2.31041 -22.84469 0.4485 -0.14234 0.89818 -0.2172 1.40347 -0.23752 z m 37.18199 7.9028 c 0.0235 -0.008 0.0539 -0.003 0.0864 0 0.34997 0.0235 1.91478 0.72317 3.4764 1.55465 1.56162 0.83147 5.75993 3.06697 9.32789 4.96624 6.99729 3.72475 10.45331 6.18105 19.30354 13.81909 6.72506 5.80395 17.11585 17.7001 16.43173 18.80692 -0.46709 0.75577 -20.82855 0.92358 -23.47083 0.19433 -0.73283 -0.20226 -3.7192 -4.94398 -6.65044 -10.55865 -2.93123 -5.6147 -7.65426 -13.11698 -10.47232 -16.64769 -5.31468 -6.65883 -8.76323 -11.87792 -8.03234 -12.13489 z m -94.89826 2.37515 c 0.16493 -0.007 0.28219 0.0231 0.34548 0.0864 0.44277 0.44275 -2.01199 4.3725 -5.722 9.13356 -3.57714 4.59059 -8.64204 12.5329 -11.24956 17.66253 -2.60753 5.12962 -5.37957 9.84002 -6.15386 10.45068 -2.13967 1.68762 -21.38994 1.53619 -22.04573 -0.17273 -0.74395 -1.93872 12.16039 -15.72007 22.43439 -23.96749 6.59731 -5.29592 19.91684 -13.07716 22.39128 -13.19292 z m 141.7968 47.45995 c 4.61046 -0.0491 8.42246 0.0902 8.98241 0.49662 4.57854 3.3231 13.20587 26.7896 15.11463 41.11179 1.0099 7.57737 0.97135 8.54679 -0.32385 9.54382 -2.1935 1.68853 -31.61138 1.55442 -33.317 -0.15115 -0.85609 -0.85611 -1.43179 -4.45015 -1.81375 -11.31438 -0.3081 -5.53812 -0.98523 -11.46144 -1.48985 -13.17132 -0.50459 -1.70988 -1.49791 -6.4039 -2.20241 -10.4291 -0.7045 -4.0252 -1.95803 -8.75026 -2.78544 -10.49387 -1.12018 -2.36071 -1.24566 -3.43984 -0.49659 -4.18891 0.73358 -0.73359 10.64788 -1.3216 18.33185 -1.4035 z m -184.5496 0.75573 c 1.1051 -0.008 2.3473 0 3.73543 0 12.8226 0 14.10432 0.38298 12.394 3.71388 -2.10651 4.10253 -6.79672 29.53003 -7.14703 38.77982 -0.13591 3.58875 -0.70995 7.19631 -1.29554 8.03235 -0.91952 1.31273 -3.06928 1.5552 -15.65447 1.74898 -12.41085 0.1911 -14.74407 0.0133 -15.74077 -1.18758 -1.42634 -1.71864 -0.66615 -14.34217 1.20917 -20.21042 0.66712 -2.08749 2.2892 -7.1621 3.60588 -11.27119 2.72748 -8.51171 5.97973 -15.32921 8.52901 -17.87845 1.37265 -1.37266 2.62866 -1.67198 10.36432 -1.72739 z m 57.21966 0 c 20.77107 -0.0103 27.392 0.25349 27.98367 1.10121 0.42618 0.61067 0.56817 12.109 0.32385 25.54372 l -0.43185 24.42092 -32.66916 0.23752 c -27.76069 0.19804 -32.74883 0.0287 -33.16581 -1.05802 -0.79322 -2.06715 1.30368 -20.22339 3.58431 -30.98499 2.18764 -10.32295 4.58235 -17.46631 6.2186 -18.591 0.52215 -0.35892 13.19371 -0.6619 28.15639 -0.66936 z m 39.40598 0.43184 28.84735 0 28.84735 0 1.66264 4.44803 c 4.31039 11.5317 8.86004 42.77747 6.62882 45.51663 -1.42317 1.74722 -65.17533 1.60173 -66.15891 -0.15115 -0.39066 -0.69627 -0.50336 -12.1946 -0.2591 -25.54373 l 0.43185 -24.26978 z m 95.65401 60.84719 c 7.78278 -0.0746 15.60743 0.1672 16.60454 0.79891 1.99499 1.26393 -0.3653 18.03366 -4.42646 31.46003 -3.36502 11.12513 -6.3809 17.67264 -9.97566 21.70029 -1.69795 1.90251 -2.42753 2.00809 -14.96345 2.00809 l -13.14977 0 0 -2.63426 c 0 -1.44904 0.55035 -3.94492 1.2308 -5.54923 1.9561 -4.61187 4.89839 -21.66522 5.89468 -34.13748 0.70767 -8.85905 1.25256 -11.68407 2.39678 -12.54514 0.86307 -0.64952 8.60584 -1.02668 16.38854 -1.10121 z m -50.72034 0.82051 c 11.43861 0.0246 20.71502 0.17303 21.20367 0.47503 3.30828 2.04461 -3.60154 44.82974 -8.50739 52.66369 l -1.25235 2.00809 -28.39395 0 -28.39388 0 -0.58302 -2.35356 c -0.73677 -2.93558 0.444 -51.1688 1.27398 -52.01593 0.49894 -0.50923 25.5886 -0.81838 44.65294 -0.77732 z m -149.63484 0.0864 c 11.08324 -0.0106 14.56801 0.26435 15.3521 1.20917 0.55747 0.67165 1.24344 5.17288 1.5331 9.99724 0.56768 9.4561 4.87068 33.08825 7.12546 39.12531 0.76143 2.03873 1.12405 4.11627 0.79889 4.64235 -0.37478 0.60641 -4.95442 0.97165 -12.52356 0.97165 -13.86207 0 -13.38406 0.25199 -18.31029 -9.37107 -7.33255 -14.32372 -13.42691 -43.3177 -9.60855 -45.73255 0.71811 -0.45416 7.75396 -0.83463 15.63285 -0.8421 z m 48.64747 0.19433 c 3.88697 -0.0144 8.13869 -0.008 12.54518 0.0216 l 31.97821 0.21592 0.21592 25.43577 c 0.1413 15.26161 -0.0985 26.37983 -0.62614 27.76773 l -0.88532 2.31038 -26.45057 -0.0215 c -14.54604 -0.007 -26.96934 -0.33711 -27.595 -0.73414 -3.30926 -2.09989 -8.51076 -23.84845 -10.1052 -42.19141 -0.83337 -9.58674 -0.80449 -11.53462 0.23747 -12.19967 0.51289 -0.32735 9.0247 -0.56122 20.68545 -0.60458 z m 77.38692 65.40315 c 14.08566 -0.0696 29.90741 0.409 30.27244 1.36032 0.26326 0.68593 -0.99974 3.97531 -2.807 7.31979 -7.79128 14.41861 -20.8917 28.12539 -32.56123 34.05108 -6.12815 3.11185 -15.57094 5.26565 -16.97158 3.86507 -1.12522 -1.12526 -0.6743 -44.25931 0.47504 -45.40869 0.73635 -0.73634 10.63682 -1.13349 21.59233 -1.18757 z m 55.49228 0.0864 c 5.80741 -0.0519 11.58241 0.24413 12.00534 0.92846 1.6453 2.66213 -22.27306 25.11617 -32.12939 30.16449 -2.36003 1.20879 -6.37626 3.5171 -8.9176 5.11738 -4.089 2.57481 -7.36301 3.66999 -7.36301 2.48311 0 -0.22423 3.15621 -4.45858 7.01753 -9.41425 3.86133 -4.95567 9.12337 -13.05076 11.68143 -18.008 2.55812 -4.95724 5.04776 -9.51613 5.52763 -10.12681 0.54461 -0.69298 6.37074 -1.09247 12.17807 -1.14438 z m -92.39354 0.10796 c 2.2286 -0.10048 2.7605 0.26088 3.2604 1.36031 0.41796 0.91915 0.56818 11.27097 0.32393 22.99584 l -0.45348 21.31165 -3.99455 0.19429 c -11.25405 0.53582 -32.75463 -17.80057 -42.16985 -35.95122 -1.33257 -2.56897 -2.78205 -4.89162 -3.21722 -5.16056 -0.43516 -0.26894 -0.79895 -1.27578 -0.79895 -2.22401 0 -1.654 0.78928 -1.72739 19.41154 -1.72739 10.67614 0 21.83665 -0.25293 24.78799 -0.5614 1.17676 -0.12299 2.10734 -0.20403 2.85019 -0.23751 z m -71.16832 0.79891 c 12.25443 0 11.37995 -0.54047 17.03631 10.53706 2.08621 4.08551 6.23884 10.64671 9.21996 14.57482 2.98112 3.9281 5.95859 7.88591 6.62881 8.78808 3.62136 4.87427 -9.42081 -1.28841 -20.83656 -9.8461 -6.84107 -5.12833 -22.56402 -20.94675 -22.56402 -22.69355 0 -1.14093 1.67018 -1.36031 10.5155 -1.36031 z" fill="#282629"/>
  <path d="m 259.88092 636.38853 c -19.58197 -0.43983 -38.16705 4.59035 -49.03949 17.62922 -1.67316 1.35736 -2.23913 3.56757 -1.41428 5.36113 0.45489 0.98913 1.3796 1.88241 2.56544 2.20365 1.02731 0.2783 2.13185 0.0548 3.19037 -0.39468 l 0 0.0328 c 15.34054 -3.46363 33.14986 -4.75209 50.15775 1.61163 a 2.105192 2.105192 0 0 0 0.0328 0 c 10.83185 3.8392 18.42518 13.99262 20.03021 23.05612 a 2.105192 2.105192 0 0 0 0 0.0986 c 1.85688 8.14829 1.61626 16.18734 -2.96013 21.7734 a 2.105192 2.105192 0 0 0 -0.19734 0.26313 c -18.60303 31.98704 -36.66514 64.40147 -55.18992 96.36878 -1.67988 -0.28104 -3.3482 -0.42615 -4.93355 -0.0986 -2.11269 0.4364 -4.11077 1.56902 -5.39402 3.45348 a 2.105192 2.105192 0 0 0 -0.0658 0.0658 c -3.50922 5.70223 -6.1591 11.67575 -9.57109 17.0043 a 2.105192 2.105192 0 0 0 -0.0658 0.0986 c -20.13638 35.71563 -41.27509 70.9862 -60.68258 107.18963 a 2.105192 2.105192 0 0 0 -0.19734 0.6907 c -0.55474 3.65974 1.45454 6.84318 4.01262 9.1764 2.49408 2.27486 5.61779 3.95856 8.4857 5.098 2.9714 1.5872 6.26113 3.96506 9.80132 5.95315 3.54019 1.9881 7.43948 3.64903 11.67607 3.28904 a 2.105192 2.105192 0 0 0 0.46046 -0.0986 c 4.02267 -1.29839 6.17219 -4.40386 7.59767 -7.30165 1.42548 -2.8978 2.38986 -5.69332 3.94684 -7.499 a 2.105192 2.105192 0 0 0 0.26312 -0.36179 c 21.1838 -37.61982 43.41662 -74.7357 63.87303 -112.84679 a 2.105192 2.105192 0 0 0 0.19734 -0.65781 c 0.57236 -3.30595 -1.30362 -5.98303 -3.35481 -8.22258 18.94041 -33.88265 38.20317 -67.5922 57.72254 -101.20356 a 2.105192 2.105192 0 0 0 0.13156 -0.23023 c 1.04289 -2.4186 2.53073 -4.68431 4.47308 -6.24916 1.94235 -1.56486 4.28561 -2.52352 7.59767 -2.33522 a 2.105192 2.105192 0 0 0 0.0658 0 c 5.74145 0.16917 12.14403 3.79209 17.49766 7.59767 1.69934 1.2364 2.04607 2.32666 2.00631 3.51927 -0.0398 1.19261 -0.69745 2.53906 -1.57874 3.51926 a 2.105192 2.105192 0 0 0 -0.0658 0.0986 c -1.82152 2.2343 -2.13598 5.22019 -1.28272 7.89368 0.83642 2.62077 2.79605 5.00866 5.59135 6.64385 l -0.0328 0.0328 c 0.049 0.0343 0.11487 0.0643 0.16445 0.0986 2.53776 1.758 5.701 3.58537 9.01195 4.50598 3.37564 0.9386 7.31235 0.85917 9.93288 -1.94053 a 2.105192 2.105192 0 0 0 0.0658 -0.0986 c 4.16059 -5.05859 5.85841 -11.01096 9.07773 -15.45846 a 2.105192 2.105192 0 0 0 0.13156 -0.23023 c 4.74849 -8.68151 10.77174 -17.10463 14.3073 -26.97007 a 2.105192 2.105192 0 0 0 0.13156 -0.78937 c -0.0539 -1.35269 -0.45382 -2.71181 -1.15116 -3.94684 a 2.105192 2.105192 0 0 0 -0.0986 -0.13156 c -0.004 -0.006 0.004 -0.0262 0 -0.0328 a 2.105192 2.105192 0 0 0 -0.23023 -0.26312 c -3.52969 -4.89587 -9.59727 -8.40973 -15.35979 -9.70265 a 2.105192 2.105192 0 0 0 -0.16445 -0.0328 c -3.04118 -0.42272 -5.75089 0.46052 -7.66345 2.0392 -1.71832 1.41836 -2.72881 3.32563 -3.28903 5.32824 -0.71317 1.07386 -2.0516 1.56429 -4.0784 1.38139 -2.05108 -0.1851 -4.50347 -1.15931 -6.28206 -2.56544 a 2.105192 2.105192 0 0 0 -0.36179 -0.23024 c -3.40394 -1.73199 -6.84681 -4.15267 -9.24218 -6.8083 -2.39538 -2.65562 -3.66185 -5.40306 -3.38771 -8.09102 a 2.105192 2.105192 0 0 0 0 -0.29601 c -0.0401 -1.21036 0.34244 -2.34444 0.95382 -3.71661 0.61138 -1.37216 1.45238 -2.9436 1.80897 -4.90066 a 2.105192 2.105192 0 0 0 -0.52624 -1.77608 c -4.96391 -5.41056 -12.19922 -6.71086 -16.77407 -10.16311 a 2.105192 2.105192 0 0 0 -0.19735 -0.0986 C 308.75112 645.60749 293.8051 641.5475 279.5824 638.55942 a 2.105192 2.105192 0 0 0 -0.0328 0 c -6.4924 -1.26733 -13.13805 -2.02408 -19.66842 -2.17076 z" color="#000" fill="#fff8eb"/>
  <text y="685.11053" x="-2274.6428" font-family="Gentium Book Basic" word-spacing="0" line-height="125%" letter-spacing="0" font-size="200"><tspan y="685.11053" x="-2274.6428"/>
  </text>
 </g>
</svg>
