<svg xmlns="http://www.w3.org/2000/svg" xmlns:xlink="http://www.w3.org/1999/xlink" width="512" height="512">
 <g transform="matrix(1.0416667 0 0 1.0416667 -10.666676 -573.54395)">
  <path transform="matrix(2.8965518,0,0,2.8965517,-389.51727,82.982847)" d="m 305.71429 246.28572 c 0 45.76074 -37.09641 82.85714 -82.85714 82.85714 -45.76074 0 -82.85714 -37.0964 -82.85714 -82.85714 0 -45.76073 37.0964 -82.85714 82.85714 -82.85714 45.76073 0 82.85714 37.09641 82.85714 82.85714 z" fill="#ffd459" fill-rule="evenodd"/>
  <text x="-286.85162" y="636.31262" font-family="Gentium Book Basic" word-spacing="0" line-height="125%" letter-spacing="0" font-size="200"><tspan x="-286.85162" y="636.31262"/>
  </text>
  <path transform="translate(0,540.36217)" d="m 256 16 c -14.33408 0 -28.35708 1.278414 -42 3.6875 l -27.53125 62.28125 59.25 0 28.875 -65.28125 C 268.45866 16.2175 262.25554 16 256 16 z m 46.53125 4.53125 -27.1875 61.4375 59.28125 0 L 354.5 37.0625 C 338.08171 29.664822 320.66371 24.09423 302.53125 20.53125 z m -121.875 7.5625 C 151.57972 37.701165 124.96322 52.704597 102 71.9375 l -4.4375 10.03125 59.28125 0 23.8125 -53.875 z m 197.90625 21.5625 -14.28125 32.3125 56.96875 0 C 408.31214 69.68094 393.98555 58.836883 378.5625 49.65625 z" opacity="0.8" fill="#282629" fill-rule="evenodd"/>
  <text y="903.30402" x="-2551.3293" font-family="Gentium Book Basic" word-spacing="0" line-height="125%" letter-spacing="0" font-size="200"><tspan y="903.30402" x="-2551.3293"/>
  </text>
  <text y="685.11053" x="-2274.6428" font-family="Gentium Book Basic" word-spacing="0" line-height="125%" letter-spacing="0" font-size="200"><tspan y="685.11053" x="-2274.6428"/>
  </text>
  <g transform="matrix(0.72268064,0,0,0.72268064,-766.03838,581.12759)" fill="#282629">
   <g transform="translate(813.13241,-99.999443)">
    <g id="0" fill="#282629">
     <path d="m 663.85296 587.03061 c -2.6938 3.07789 -6.17965 5.95542 -9.46619 8.6077 -21.23248 -21.94305 -46.15966 -46.26232 -69.85339 -46.26232 -14.68962 0 -25.26978 11.18247 -37.61316 19.07207 -17.12945 10.94875 -40.62604 17.11471 -60.76155 9.07899 -10.83022 -4.11181 -21.32307 -10.16897 -29.16467 -20.00887 15.84826 10.92988 39.58091 12.3989 57.47189 4.97653 19.77572 -8.20428 39.90389 -19.09846 62.44104 -19.09846 33.22191 0 64.79633 22.4724 86.94603 43.63436 z M 418.31123 518.01637 c 21.99574 25.03833 57.87067 16.98283 87.23346 23.23624 4.08708 0.87043 7.92673 2.2277 12.31363 1.55399 -3.49104 -2.21317 -8.11811 -2.46288 -12.15065 -3.98204 -22.78289 -8.58288 -26.33489 -32.9661 -38.80319 -49.7476 15.92509 10.58731 29.11884 25.08204 44.0112 38.70353 10.36472 9.48023 23.27776 13.53648 36.66995 16.26142 -3.21803 1.17614 -7.4278 0.89873 -10.89355 1.7585 -24.05596 5.96772 -50.72732 15.38772 -76.32434 6.94056 -16.51902 -5.45137 -33.70936 -18.36144 -42.05651 -34.7246 z m -35.25816 -57.95044 c 13.72021 31.0633 48.19128 33.49604 71.11114 52.55246 4.35824 3.6236 8.67829 6.95821 13.46589 9.1911 l 0.24706 -0.25017 c -5.28898 -4.78552 -11.01252 -10.48869 -15.10916 -16.44101 -13.09999 -19.03396 -8.74058 -45.05135 -18.84103 -65.23149 9.17657 10.988 17.78396 22.30262 23.06807 34.88342 8.50335 20.2454 11.39181 43.34164 30.4633 58.72588 -20.64105 -6.80976 -44.45204 -5.4544 -63.03909 -17.62856 -19.53758 -12.79675 -37.64469 -32.99516 -41.36618 -55.80163 z m -14.69705 -62.84601 c 1.98376 27.36777 31.1208 41.98736 45.01398 64.48409 2.96731 4.80486 6.02083 9.76515 10.32987 13.64547 -0.67163 -2.91387 -3.06923 -5.4956 -4.38897 -8.35441 -4.45607 -9.65268 -6.47284 -20.82355 -5.36062 -32.31004 1.35322 -13.97546 7.17932 -26.95254 4.94331 -41.65477 11.97521 25.84803 8.11231 58.16158 15.03338 86.11027 1.5311 6.18289 5.29625 11.5932 7.61634 17.44897 -11.76596 -8.95063 -27.18531 -16.89557 -40.10037 -27.07554 -12.49005 -9.84497 -23.33146 -21.38399 -28.9668 -36.3985 -4.06068 -10.81905 -5.11667 -23.72412 -4.12012 -35.89554 z m 0.81385 -50.42545 c 1.40556 -6.10802 2.481 -12.42989 5.13847 -18.03341 -5.03154 25.81689 12.14351 44.466 18.00746 66.8021 2.20979 8.4172 2.96577 17.36074 6.36962 25.2148 0.31765 0.17025 0.59273 -0.15986 0.78893 -0.41419 -8.47379 -23.77084 3.94797 -45.73963 16.04862 -64.47681 3.1807 -4.92513 4.71181 -10.65998 6.19729 -16.45762 1.30798 10.76067 -0.98237 23.21736 -2.97304 34.32182 -2.56285 14.29621 -7.44921 27.69476 -11.33265 41.48764 -2.55677 8.61705 -1.88306 18.34172 -0.57094 27.36985 l -1.23323 -0.9841 c -9.00944 -16.63201 -26.7842 -29.62498 -32.15224 -47.77733 -4.29027 -14.50781 -7.25821 -31.26884 -4.28829 -47.05275 z m 9.50253 -27.77158 c 0 -19.53651 7.607 -35.47408 19.0175 -50.02372 0.33115 -0.16505 0.56679 -0.49723 0.99448 -0.41938 -12.56173 19.10782 -1.12831 43.22806 -2.74259 64.90139 l -1.65677 22.24384 c 0.24603 0.16194 0.24603 0.82942 0.82942 0.57405 0.74223 -2.47996 0.96749 -5.11783 1.39933 -7.67863 3.02406 -17.93268 18.77089 -30.41447 32.12525 -43.07485 3.15888 -2.99473 5.47169 -6.53571 6.96132 -10.34129 -1.11074 8.93262 -3.60252 18.08966 -7.61219 26.2072 -10.27917 20.81007 -30.13216 37.60836 -33.70313 61.25775 -1.7315 -22.66529 -15.61262 -39.51441 -15.61262 -63.64636 z m 33.11143 -65.90312 c 6.31666 -7.00335 13.39633 -12.45896 21.82445 -14.61712 -16.36626 11.25376 -15.47764 31.3665 -20.48845 48.18322 -1.83219 6.14897 -4.52497 11.90982 -5.95647 18.2649 l 0.41419 0.33115 c 2.72287 -7.18451 7.39468 -14.09066 13.48146 -19.83343 11.51143 -10.86085 28.81796 -17.43445 34.51387 -33.32112 -0.26056 22.0767 -19.07854 38.85848 -36.26614 51.84138 -7.70883 5.82298 -14.26001 13.64133 -18.25763 21.83692 0.66796 -6.09998 0.97133 -11.17418 0.42665 -17.12822 -1.76421 -19.285 -2.90827 -40.90457 10.30807 -55.55768 z m 66.42839 -37.11632 c -12.1465 10.6579 -20.25114 24.37608 -29.58198 36.70835 -7.76061 10.25695 -18.40919 16.61229 -27.56708 25.21896 4.94331 -10.25617 5.85603 -22.00815 12.13404 -31.9301 10.73525 -16.96631 28.47747 -23.55181 45.01502 -29.99721 z"/>
    </g>
    <use height="1" width="1" xlink:href="#0" transform="matrix(-1,0,0,1,1202.2,0)"/>
   </g>
   <path d="m 1562.5674,336.68056 -3.5876,-1.9575 c -7.6063,15.686 -17.678,29.961 -29.726,42.308 l -20.959,-20.959 c 10.268,-10.581 18.547,-22.591 24.646,-35.571 l -3.5712,-1.9521 c -6.0292,12.871 -14.141,24.582 -23.924,34.672 l -18.986,-18.986 c 8.1505,-8.4732 14.618,-18.141 19.286,-28.589 l -3.5432,-1.9334 c -4.5714,10.297 -10.878,19.661 -18.584,27.687 l -20.982,-20.982 c 5.8351,-6.1836 10.34,-13.298 13.406,-20.997 l -3.544,-1.9334 c -2.9296,7.5073 -7.2602,14.323 -12.685,20.104 l -19.044,-19.041 c 5.4251,-6.0542 8.5714,-13.65 9.0166,-21.765 h 26.956 c -0.2292,7.2836 -1.7213,14.251 -4.2432,20.703 l 3.544,1.9334 c 2.8369,-7.1331 4.4389,-14.763 4.6681,-22.637 h 29.715 c -0.2674,13.119 -3.1924,25.594 -8.2245,36.929 l 3.5432,1.9334 c 5.4032,-12.101 8.389,-25.251 8.6533,-38.864 h 26.905 c -0.283,18.475 -4.5449,35.993 -11.935,51.766 l 3.5712,1.9521 c 7.8121,-16.624 12.058,-34.845 12.338,-53.718 h 29.713 c -0.2962,24.319 -6.0253,47.345 -16.012,67.94 l 3.5892,1.9567 c 10.743,-22.127 16.446,-46.562 16.446,-71.883 0,-21.533 -4.1255,-42.423 -11.964,-61.803 l -3.6819,1.5825 c 7.3826,18.288 11.384,37.955 11.63,58.234 h -29.717 c -0.2409,-16.178 -3.42,-31.866 -9.2356,-46.49 l -3.6546,1.5662 c 5.6098,14.138 8.6806,29.294 8.9176,44.924 h -26.908 c -0.2292,-11.914 -2.5531,-23.474 -6.7464,-34.29 l -3.6546,1.5701 c 3.9883,10.322 6.2,21.353 6.4323,32.72 h -29.718 c -0.2105,-7.2641 -1.5864,-14.328 -4.0265,-20.982 l -3.6539,1.5677 c 2.2413,6.1633 3.5011,12.695 3.7116,19.414 h -26.956 c -0.4451,-8.1162 -3.5915,-15.711 -9.0166,-21.765 l 19.063,-19.06 c 5.8866,6.2608 10.339,13.531 13.199,21.412 l 3.6539,-1.5677 c -3.0606,-8.336 -7.7973,-16.027 -14.048,-22.652 l 21.013,-21.011 c 8.9667,9.3331 15.811,20.169 20.347,31.924 l 3.6546,-1.5701 c -4.7359,-12.21 -11.865,-23.468 -21.193,-33.162 l 19.026,-19.029 c 11.783,12.152 20.836,26.253 26.903,41.558 l 3.6546,-1.5662 c -6.2686,-15.762 -15.605,-30.285 -27.749,-42.796 l 21.01,-21.014 c 14.859,15.222 26.321,32.885 34.061,52.066 l 3.6819,-1.5825 c -8.1785,-20.239 -20.405,-38.828 -36.306,-54.728 -15.959,-15.961 -34.63,-28.215 -54.957,-36.395 l -1.464,3.7272 c 19.223,7.7428 36.925,19.218 52.175,34.105 l -21.01,21.013 c -12.3,-11.92 -26.55,-21.16 -42.02,-27.42 l -1.45,3.6952 c 14.959,6.069 28.748,15.006 40.663,26.564 l -19.025,19.026 c -9.2489,-8.8973 -19.914,-15.807 -31.475,-20.537 l -1.4524,3.6952 c 11.062,4.5332 21.264,11.145 30.12,19.651 l -21.01,21.01 c -5.91,-5.5709 -12.668,-9.9427 -19.97,-12.992 l -1.4531,3.6983 c 6.8049,2.8517 13.098,6.9203 18.615,12.103 l -19.06,19.06 c -6.0581,-5.4259 -13.651,-8.5715 -21.769,-9.0143 v -26.955 c 7.7466,0.23855 15.247,1.8842 22.214,4.8069 l 1.4531,-3.6983 c -7.4239,-3.1019 -15.418,-4.8388 -23.667,-5.0813 v -29.716 c 12.032,0.24167 23.69,2.6872 34.528,7.1285 l 1.4524,-3.6952 c -11.294,-4.6213 -23.446,-7.1604 -35.981,-7.4021 v -26.92 c 15.956,0.24323 31.427,3.4255 45.816,9.259 l 1.45,-3.6952 c -14.847,-6.0144 -30.803,-9.2902 -47.267,-9.5342 v -29.719 c 20.24,0.24478 39.871,4.2339 58.125,11.584 l 1.464,-3.7272 c -19.314,-7.7763 -40.126,-11.874 -61.572,-11.874 -26.495,0 -51.529,6.3216 -73.729,17.477 l 1.811,3.466 c 21.482,-10.764 45.249,-16.628 69.933,-16.926 v 29.72 c -20.131,0.29936 -39.153,5.1842 -56.117,13.608 l 1.8047,3.4566 c 16.713,-8.2737 35.162,-12.806 54.312,-13.098 v 26.909 c -14.969,0.29468 -29.133,3.8948 -41.81,10.082 l 1.8156,3.4722 c 12.341,-5.9903 25.911,-9.3011 39.995,-9.5849 v 29.719 c -9.3393,0.27597 -18.197,2.4884 -26.195,6.2413 l 1.825,3.4855 c 7.5658,-3.5167 15.82,-5.4937 24.37,-5.758 v 26.959 c -4.1816,0.23232 -8.17,1.1865 -11.846,2.7371 l 1.8219,3.4839 c 3.7599,-1.5397 7.8223,-2.3504 12.009,-2.3504 8.467,0 16.426,3.2968 22.414,9.2832 5.9872,5.9872 9.284,13.949 9.284,22.417 0,17.478 -14.217,31.702 -31.698,31.702 -8.4693,0 -16.43,-3.2984 -22.417,-9.2856 -5.9871,-5.9903 -9.2848,-13.949 -9.2848,-22.417 0,-8.4678 3.2976,-16.43 9.2848,-22.417 3.0286,-3.0271 6.5609,-5.358 10.407,-6.9328 l -1.8219,-3.4839 c -3.6531,1.5428 -6.9959,3.6749 -9.91,6.285 l -19.071,-19.071 c 4.9269,-4.6299 10.475,-8.3734 16.456,-11.153 l -1.825,-3.4855 c -6.4323,3.0193 -12.307,7.0318 -17.42,11.852 l -21.032,-21.033 c 7.3756,-7.0848 15.694,-12.842 24.653,-17.194 l -1.8156,-3.4722 c -9.4617,4.6167 -18.099,10.668 -25.611,17.89 l -19.06,-19.058 c 9.62,-9.3339 20.476,-16.939 32.168,-22.725 l -1.8047,-3.4566 c -12.239,6.0792 -23.417,13.991 -33.13,23.417 l -21.054,-21.055 c 12.07,-11.783 25.689,-21.406 40.368,-28.763 l -1.811,-3.466 c -32.087,16.125 -58.21,42.403 -74.117,74.617 l 3.4527,1.8632 c 7.4184,-15.088 17.23,-29.077 29.3,-41.445 l 21.056,21.056 c -9.7946,10.091 -17.978,21.749 -24.141,34.556 l 3.4395,1.857 c 5.8702,-12.263 13.741,-23.621 23.464,-33.648 l 19.061,19.059 c -7.6827,7.9922 -14.039,17.258 -18.751,27.436 l 3.4473,1.8601 c 4.4381,-9.6753 10.503,-18.635 18.079,-26.521 l 21.032,21.033 c -5.376,5.7034 -9.7548,12.355 -12.863,19.673 l 3.4753,1.8796 c 2.8564,-6.8642 6.9507,-13.212 12.173,-18.767 l 19.071,19.069 c -5.2356,5.8523 -8.5597,13.418 -9.0212,21.756 h -26.962 c 0.2393,-7.6874 1.8601,-15.136 4.739,-22.059 l -3.4753,-1.8796 c -3.1401,7.3927 -4.9815,15.469 -5.2333,23.938 h -29.715 c 0.2674,-13.373 3.2664,-26.286 8.6993,-38.124 l -3.4473,-1.8601 c -5.6543,12.208 -8.9402,25.732 -9.2177,39.985 h -26.913 c 0.2822,-18.584 4.5457,-36.512 12.358,-52.832 l -3.4395,-1.857 c -7.9938,16.6 -12.591,35.129 -12.883,54.689 h -29.721 c 0.2924,-24.271 5.9638,-47.658 16.387,-68.855 l -3.4527,-1.8632 c -10.835,21.946 -16.952,46.619 -16.952,72.704 0,15.956 2.2787,31.551 6.6318,46.448 l 3.8924,-0.97915 c -4.0928,-13.96 -6.3263,-28.553 -6.5063,-43.482 h 29.716 c 0.1832,12.448 2.101,24.611 5.6215,36.223 l 3.8534,-0.97135 c -3.4465,-11.297 -5.3198,-23.136 -5.5061,-35.252 h 26.908 c 0.1941,9.8687 1.8219,19.498 4.7523,28.662 l 3.8597,-0.97369 c -2.8572,-8.8466 -4.4467,-18.152 -4.64,-27.688 h 29.715 c 0.2074,7.0575 1.5124,13.925 3.8238,20.412 l 3.862,-0.97525 c -2.2397,-6.1688 -3.5073,-12.711 -3.717,-19.436 h 26.959 c 0.4452,8.1154 3.5892,15.711 9.0142,21.765 l -19.061,19.062 c -5.8803,-6.2584 -10.332,-13.519 -13.196,-21.391 l -3.862,0.97525 c 3.0505,8.5535 7.8581,16.447 14.25,23.222 l -21.01,21.012 c -10.22,-10.64 -17.7,-23.25 -22.13,-36.95 l -3.8597,0.97369 c 4.6003,14.386 12.444,27.62 23.191,38.79 l -19.029,19.03 c -14.23,-14.674 -24.508,-32.179 -30.315,-51.232 l -3.8534,0.97136 c 5.984,19.737 16.617,37.877 31.36,53.067 l -21.011,21.012 c -18.596,-19.054 -31.878,-41.923 -39.18,-66.819 l -3.8924,0.97915 c 7.6593,26.211 21.79,50.237 41.638,70.081 13.441,13.444 28.804,24.265 45.459,32.239 l 1.9723,-3.498 c -15.763,-7.512 -30.344,-17.635 -43.189,-30.177 l 21.01,-21.009 c 10.92,10.599 23.372,19.051 36.836,25.208 l 1.9606,-3.4777 c -13.157,-5.9708 -25.325,-14.202 -35.986,-24.537 l 19.027,-19.028 c 8.9176,8.5792 19.157,15.305 30.245,20.016 l 1.9591,-3.4715 c -10.77,-4.52 -20.73,-11.02 -29.39,-19.34 l 21.013,-21.012 c 6.7519,6.3699 14.612,11.167 23.133,14.219 l 1.9856,-3.5167 c -8.2245,-2.8478 -15.81,-7.4021 -22.31,-13.509 l 19.061,-19.063 c 6.0542,5.4298 13.646,8.573 21.765,9.0182 v 26.959 c -6.3941,-0.19801 -12.62,-1.3658 -18.516,-3.4036 l -1.9856,3.5167 c 6.5134,2.3364 13.408,3.6469 20.502,3.8558 v 29.713 c -12.296,-0.24556 -24.21,-2.7917 -35.249,-7.4224 l -1.9591,3.4715 c 11.641,4.948 24.215,7.6718 37.208,7.9228 v 26.909 c -17.706,-0.27285 -34.806,-4.1645 -50.494,-11.283 l -1.9606,3.4777 c 16.285,7.4411 34.056,11.501 52.455,11.776 v 29.712 c -23.602,-0.28377 -46.38,-5.634 -67.111,-15.51 l -1.9723,3.498 c 21.909,10.487 46.06,16.031 71.069,16.031 26.234,0 51.51,-6.1298 74.259,-17.64 l -1.8788,-3.6437 c -21.215,10.744 -45.098,16.954 -70.397,17.265 v -29.713 c 20.059,-0.29624 39.368,-5.1047 56.814,-13.88 l -1.8546,-3.5954 c -16.583,8.3516 -35.222,13.196 -54.959,13.503 v -26.909 c 15.05,-0.29 29.535,-3.901 42.657,-10.446 l -1.8437,-3.5783 c -12.345,6.1571 -26.175,9.7541 -40.813,10.053 v -29.713 c 9.5849,-0.28065 18.812,-2.5874 27.21,-6.6981 l -1.8312,-3.5572 c -7.7131,3.7646 -16.301,5.9973 -25.38,6.2842 v -26.955 c 8.1177,-0.44514 15.711,-3.5884 21.769,-9.0182 l 19.041,19.043 c -4.559,4.2791 -9.7564,7.8761 -15.43,10.647 l 1.8312,3.5572 c 5.9489,-2.9133 11.488,-6.7192 16.426,-11.377 l 20.978,20.979 c -7.0037,6.7285 -15.029,12.383 -23.802,16.756 l 1.8437,3.5783 c 8.9979,-4.4857 17.362,-10.339 24.799,-17.492 l 18.986,18.984 c -9.2489,8.9698 -19.865,16.518 -31.482,22.361 l 1.8546,3.5954 c 11.797,-5.9318 22.748,-13.66 32.476,-23.106 l 20.959,20.959 c -11.693,11.413 -25.137,21.024 -39.851,28.473 l 1.8788,3.6437 c 15.419,-7.802 29.693,-18.052 42.27,-30.63 13.222,-13.219 23.891,-28.305 31.825,-44.645 z"/>
   <path transform="matrix(0.78344,0,0,0.79511,1013.0936,54.380557)" d="M 522.77 216.72 522.83 218.22 524.11 218.16 524.04 216.67"/>
   <path d="M 1421.19,225.071 H1422.52 V226.083 H1421.19 z"/>
   <path transform="matrix(0.78344,0,0,0.79511,1013.0936,54.380557)" d="M 519.34 214.45 519.52 213.19 518.03 212.98 517.85 214.23"/>
   <path transform="matrix(-0.98971394,-0.14306057,0.13896953,-0.99029666,0,0)" d="M -1435.25,-19.2363 H-1434.08 V-18.2228 H-1435.25 z"/>
   <path d="M 1408.23,223.041 H1409.56 V224.054 H1408.23 z"/>
   <path transform="matrix(0.78344,0,0,0.79511,1013.0936,54.380557)" d="M 502.15 214.87 502.33 213.61 500.85 213.4 500.67 214.66"/>
   <path transform="matrix(-0.96919103,-0.24631026,0.23955094,-0.9708838,0,0)" d="M -1418.85,126.576 H-1417.48 V127.587 H-1418.85 z"/>
   <path transform="matrix(-0.16105914,-0.98694476,0.98616623,-0.16575937,0,0)" d="M -457.26,1348.08 H-456.234 V1349.08 H-457.26 z"/>
   <path transform="matrix(0.78344,0,0,0.79511,1013.0936,54.380557)" d="M 330.58 346.22 329.52 346.22 329.52 348.34 331.22 348.34 331.22 351.1 332.5 351.1 332.28 347.92 330.58 347.28"/>
   <path transform="matrix(0.78344,0,0,0.79511,1013.0936,54.380557)" d="M 347.35 364.68 346.5 366.16 344.17 364.04 342.47 361.71 341.62 359.8 340.13 355.98 343.31 357.46 344.38 360.43 345.86 361.5"/>
   <path transform="matrix(0.78344,0,0,0.79511,1013.0936,54.380557)" d="M 390.21 421.12 388.51 418.57 391.06 419 393.81 421.33 394.88 424.09 393.39 424.94 392.54 423.67 390.42 423.03"/>
   <path d="m 1409.0636,237.55056 h -1.8278 l -0.333,-3.7108 0.9973,-0.67744 v -1.855 h -5.8186 l -0.1661,-1.8542 0.8336,-0.50649 -1.3318,-0.50648 -0.9981,1.3485 -0.3298,1.5187 -1.6632,0.33871 v 0.84203 h -1.1626 v 2.1929 l -4.656,3.8802 -9.308,-0.33554 c -0.6675,1.5171 -2.3307,-0.17095 -2.3307,-0.17095 -0.3298,-1.0114 -2.6558,0 -2.6558,0 0,1.8582 -3.1588,-0.84202 -3.1588,-0.84202 l -5.8194,-4.2189 c -3.3241,-3.0365 -8.3107,0.8452 -8.476,1.6872 0.1653,2.3623 -3.8232,0.50649 -3.8232,0.50649 0,0 -3.3241,-1.0114 -3.824,0.33872 -0.4975,1.3485 -2.6621,1.013 -2.6621,1.013 l -0.333,0.67425 -1.6632,0.33713 -0.3298,1.0114 -1.9962,0.33872 4.9858,-0.16936 c 1.3311,-0.16856 -0.4998,2.8688 -1.3287,2.7002 l -2.3252,0.16856 -0.8336,0.84203 h -2.1607 l -0.9965,1.3525 -3.1565,-0.16936 c 0,0 -1.8309,1.5179 -1.6624,2.0236 0.1661,0.50648 -0.333,2.0252 -0.8328,2.0252 -0.4991,0 -1.4964,1.5179 -1.1634,2.0236 0.3345,0.50648 -0.9965,2.1937 -0.9965,2.1937 l -0.3314,1.6888 -0.9966,0.33554 v 4.556 l -1.9962,1.3501 v 2.0236 l -2.9943,3.2059 0.3345,2.6978 -2.4921,2.7002 0.3299,2.6994 -1.4956,0.50648 -0.3306,1.1807 -0.6644,3.5414 1.6617,0.17095 c 0.8289,-0.33872 0.6644,2.1929 0,2.5284 -0.6675,0.33872 -2.496,1.0122 -1.4964,1.6864 0.9981,0.67744 -2.6606,0.50728 -2.6606,-0.50569 0,-1.0098 -1.9954,-1.855 -2.4921,-1.5163 -0.4998,0.33554 -1.3318,-1.5187 -1.3318,-1.5187 -1.8278,-1.855 -7.4802,0.16777 -7.4802,0.16777 l -0.8336,2.6994 c -1.8262,0.33872 -2.9896,3.3752 -2.9896,3.3752 -1.4964,0.50649 -2.6597,2.3607 -2.1606,2.8672 0.4974,0.50649 -0.8336,0.67425 -0.8336,0.67425 v 3.7132 l -0.8297,1.1807 0.1645,4.0479 c 0.9989,0 0.8336,1.8574 0.8336,1.8574 -1.6632,0.16776 -1.3326,2.3623 -1.3326,2.3623 l -3.4894,1.18 -0.6643,1.0114 -4.3214,-0.16936 -1.1634,1.1823 -1.1665,-1.1823 h -8.3114 l -0.3299,-0.84282 -1.6632,-0.33951 -0.1676,-1.8542 -2.4921,0.16777 -0.4983,1.0122 -2.6613,0.16777 c 0.1661,1.688 -2.6598,4.2197 -2.9896,3.5462 -0.3369,-0.67585 -2.1638,-2.534 -1.3311,-2.868 0.832,-0.33951 2.9943,-0.67823 2.9943,-0.67823 v -1.1799 l -6.1531,-0.16777 -0.6628,1.013 -2.4968,0.16697 v 2.7002 l -1.1618,0.33792 c -0.8328,0.5041 0.1645,2.3623 0.1645,2.3623 1.1635,1.1792 -0.1645,3.0341 -0.1645,3.0341 -0.9989,1.013 0.8289,2.8712 0.8289,2.8712 1.3318,0.33474 -0.8289,1.3477 -0.8289,1.3477 0.3298,1.6864 1.3287,2.1929 1.3287,2.1929 -0.9989,1.6864 0.6675,2.5285 0.6675,2.5285 l 0.1645,2.8711 1.1634,0.67585 v 1.8518 l 0.6644,1.1823 h 2.6598 l -0.1661,-4.2173 c -2.3284,-2.7002 1.9931,-3.3752 2.1623,-2.3647 0.1677,1.013 1.9954,1.5195 1.9954,1.5195 0.333,2.5316 3.1596,4.0479 3.9885,1.5202 0.832,-2.534 1.4964,-1.013 1.9954,0.16618 0.4991,1.1823 3.6539,4.0511 3.6539,4.0511 h 2.4952 l 0.3345,2.3623 c 2.8251,-0.16936 3.654,0.17174 4.8174,4.0479 1.1665,3.8786 4.323,4.8915 4.323,4.8915 l 2.3284,-0.16856 c 0,-2.0212 2.3276,0.3411 2.3276,1.3541 0,1.0082 4.4875,4.8891 4.4875,4.8891 l 4.4867,1.0106 4.1608,3.3784 3.1557,-0.33793 h 1.3318 c 0.8289,-2.8711 4.8205,0.16618 5.1503,1.1792 0.3353,1.013 2.9943,2.7002 3.3241,1.855 0.3346,-0.84203 2.1623,-0.33474 2.496,2.1929 0.3314,2.534 1.4932,2.0267 1.4932,2.0267 l 9.4772,-0.16856 3.3241,-2.8712 8.4791,-0.16618 c 4.3214,-0.16856 1.6617,-6.0746 0.8328,-6.0746 -1.4964,-1.1792 0.4967,-6.0723 0.4967,-6.0723 l -12.135,-11.303 c -2.8251,0 -0.3329,-4.0511 -0.3329,-4.0511 2.1607,-1.3509 -0.4999,-3.5406 -0.4999,-3.5406 0.3346,-2.0275 -1.1634,-4.389 -1.1634,-4.389 -2.9896,-2.0244 -2.1607,-5.9061 -2.1607,-5.9061 v -2.7002 c -2.4921,-2.3591 0.9981,-2.7002 0.9981,-2.7002 1.1618,-2.0204 -0.8328,-3.5398 -0.8328,-3.5398 l -0.1653,-2.1937 -2.6606,-0.33872 -0.3298,-7.9296 -5.9839,-8.6023 c -1.1665,-0.34031 -0.3345,-2.3623 -0.3345,-2.3623 1.4964,-0.84441 -0.3346,-2.8664 -0.3346,-2.8664 l -0.1653,-3.7124 3.4894,-0.33951 0.8328,-1.3477 h 1.6617 l -0.1653,-4.3874 c 0.8297,-2.1929 2.8243,-1.013 2.8243,-1.013 l 2.3276,0.16936 1.3311,-2.5308 0.3299,-2.0252 -1.8262,-0.16697 c -1.9954,-1.1823 -0.9981,-5.5674 -0.9981,-5.5674 3.1588,-4.7254 6.8135,-2.0259 6.8135,-2.0259 l 2.3299,-0.16698 c 3.4894,2.3607 0.3298,6.7473 0.3298,6.7473 -0.6644,1.013 -0.3298,4.2181 -0.3298,4.2181 l 0.8296,5.3964 -2.1607,1.8582 c -1.8278,1.013 -1.8278,3.3736 0.1677,3.8801 1.3287,0.16697 0.8296,3.3737 -1.1658,1.18 -2.9896,0 1.6656,2.6994 0.3345,2.022 2.9935,1.5195 2.3252,-1.3485 2.3252,-1.3485 l 3.9932,-3.2059 c 1.4964,-1.18 4.1569,2.5324 4.1569,3.0389 0,0.50569 6.6482,0.16697 6.6482,0.16697 1.8278,1.1807 2.4921,4.2189 2.4921,4.2189 1.8309,-2.3639 5.6525,-0.17094 2.8274,1.18 2.6574,1.6872 2.6574,3.2051 2.6574,3.2051 2.1638,-0.67425 2.1638,1.0122 2.1638,1.5187 0,0.50648 0.6644,-2.53 0.6644,-2.53 -2.4937,-1.8566 3.3241,-2.5308 1.6632,0.84361 l -0.9989,1.5195 1.6632,1.3485 0.1645,3.8817 c 3.6586,-0.33871 2.6606,-4.8947 2.6606,-4.8947 l 1.6624,-0.33554 c 0,-1.5195 1.1618,-0.67584 1.1618,-0.67584 -1.1618,-5.7375 2.6613,-6.7473 2.6613,-6.7473 2.1607,-0.50648 2.326,-5.0641 2.326,-5.0641 -1.4932,-0.67425 -0.6651,-3.0349 0.9981,-1.009 1.6609,2.0212 -0.9981,-4.0519 -0.9981,-4.0519 l -1.3287,-1.18 -1.8278,-0.16856 -0.1677,-1.8558 h -2.9896 l -0.4998,2.3631 -1.1634,0.33713 -0.3345,-0.67585 -0.4975,1.8558 h -2.9912 l -0.1653,-2.0244 1.8278,-0.50569 0.6651,-1.0122 0.4975,-2.7002 h 2.1623 l 2.8251,-0.84202 c 0.1645,-2.8688 1.6624,-2.1929 1.6624,-2.1929 l 0.9965,0.84282 1.4964,1.1807 0.1669,1.0106 -0.9989,0.50569 -0.1645,1.3517 0.4991,1.855 h 1.3287 c 0.4982,-2.6994 3.9916,-2.6994 4.9881,-1.0122 l 0.9981,-2.3615 c -2.3268,-1.1807 -0.043,-3.0381 0.6212,-2.1937 0.6644,0.84441 2.2038,-2.1929 2.2038,-2.1929 0,0 1.1634,1.5187 0,-0.50649 -1.1634,-2.02519 0.8297,-3.0365 0.8297,-3.0365 -0.3306,-2.0236 2.1623,-1.6872 2.1623,-1.6872 l 0.1676,-2.6978 -2.3299,-0.17095 c -0.4951,2.3623 -2.4913,0.33872 -1.494,-0.16697 0.9989,-0.50728 1.9931,-1.5195 1.9931,-1.5195 v -1.6872 l 0.9981,-0.33713 0.1653,-1.6872 h 2.4952 l 2.1607,-1.0114 0.4999,-0.84441 2.3252,-0.16776 3.3241,-3.0381 -0.3298,-1.3485 c -1.9954,0 0,-1.5187 0,-1.5187 l 0.3282,-2.5253 z"/>
   <path d="m 1342.0736,270.95056 -2.9927,-0.33713 0.1676,1.18 h 0.8297 c 1.3287,2.3631 0.1669,8.0982 0.1669,8.0982 0,0 -1.9931,0.16697 -2.3276,-0.84282 -0.3299,-1.0122 -1.1634,2.1937 -0.4991,2.7002 0.6644,0.5033 2.9935,0 3.1588,1.8566 0.1645,1.8542 1.4964,-1.1823 1.4964,-1.1823 v -11.473 z"/>
   <path transform="matrix(0.78344,0,0,0.79511,1013.0936,54.380557)" d="M 420.76 296.14 421.19 294.23 419.7 293.6 419.91 290.42 421.19 290.2 421.4 288.71 418.21 290.84 416.09 289.57 416.09 294.66 419.49 299.11"/>
   <path transform="matrix(0.78344,0,0,0.79511,1013.0936,54.380557)" d="M 421.61 301.66 420.13 301.87 419.91 303.57 421.61 303.78"/>
   <path transform="matrix(0.78344,0,0,0.79511,1013.0936,54.380557)" d="M 419.7 312.48 417.9 312.69 417.9 314.18 419.7 313.97"/>
   <path d="m 1343.8636 298.83056 c 0.3893 0 0.7027 -0.31884 0.7027 -0.71322 0 -0.39755 -0.3134 -0.71719 -0.7027 -0.71719 -0.3894 0 -0.7051 0.31884 -0.7051 0.71719 0 0.39438 0.3157 0.71322 0.7051 0.71322 z"/>
   <circle transform="matrix(0.78344,0,0,0.79511,1013.0936,54.380557)" cy="311" cx="423.67999" r="0.9"/>
   <circle transform="matrix(0.78344,0,0,0.79511,1013.0936,54.380557)" cy="286.76001" cx="423.73001" r="0.9"/>
   <path transform="matrix(0.78344,0,0,0.79511,1013.0936,54.380557)" d="M 483.14 280.23 483.57 278.11 484.84 277.47 485.06 275.35 485.9 273.86 487.18 272.38 487.6 270.68 489.72 269.41 492.27 268.98 493.33 267.71 493.76 265.17 493.91 263.26 494.82 261.98 497.36 260.92 497.36 256.89 496.09 256.89 495.88 255.4 493.54 255.19 493.12 256.25 492.06 256.25 491.84 257.95 493.12 257.95 493.33 259.22 492.48 260.07 492.06 261.13 490.36 261.56 486.54 265.17 486.33 266.86 485.27 268.35 484 271.53 479.54 271.74 478.69 275.56 479.32 278.74"/>
   <path d="m 1406.2336,268.93056 v -2.3623 l -0.3346,-2.1937 -2.4906,-1.1799 -1.8278,1.6872 -0.3345,2.3623 v 1.5171 l -1.6617,0.33872 -0.3345,4.5544 -1.3279,0.50728 0.1661,1.6872 -1.8278,0.50569 -1.8278,0.50649 -0.333,2.1929 -1.3279,0.84282 -0.669,2.0251 -0.8297,4.8923 c 0,0 1.4979,2.868 2.3276,1.5179 0.832,-1.3485 2.1607,-1.5179 2.1607,-1.5179 l 0.4991,-1.1815 4.4883,0.16856 c 0.3329,-1.8574 2.4937,-1.1799 2.4937,-0.33713 0,0.84362 1.6632,0.16777 1.6632,0.16777 l 1.1626,-1.855 h 1.827 l 0.1661,-2.0236 0.8327,-0.50649 v -3.0381 c 2.6606,-0.84281 2.3252,-3.3736 2.3252,-3.3736 l 0.6691,-0.84203 -0.3337,-1.1799 c -1.3318,-0.50808 -0.6683,-1.6904 0.1645,-1.3525 0.8336,0.33712 -1.1634,-1.5187 -1.1634,-1.5187 -0.9965,0.84521 -1.8262,-1.0114 -1.8262,-1.0114 h -2.496 z"/>
   <path d="m 1408.8936 289.34056 c -0.1653 2.0236 -2.6605 2.6994 -2.6605 2.6994 l -1.8278 -0.50569 -0.9966 -0.84361 -0.1668 -2.3631 1.4948 -0.16698 0.3329 1.013 3.824 0.16698 z"/>
   <path d="m 1417.8736 278.55056 c 0.3596 1.471 0.3298 -2.3647 0.9949 -2.1937 0.6644 0.16777 0.1677 -2.3607 0.1677 -2.3607 l -2.9927 2.1897 c 1.4956 0.17095 1.6609 1.6904 1.8301 2.3647 z"/>
   <path d="m 1426.6836,269.77056 c 0.6643,1.5195 0.4998,3.7132 2.9896,5.4004 0.8422,0.56851 -0.4983,1.6872 -1.3311,1.18 -0.8297,-0.50569 -3.1549,-4.2189 -3.1549,-4.2189 v -2.1929 c 0.4982,-1.3485 1.208,-0.82214 1.4964,-0.16856 z"/>
   <path transform="matrix(0.78344,0,0,0.79511,1013.0936,54.380557)" d="M 530.67 334.76 529.4 334.33 527.92 335.4 528.55 336.03 529.18 337.09"/>
   <path d="M 1422.5236 318.36053 1422.5236 320.39056"/>
   <path transform="matrix(0.78344,0,0,0.79511,1013.0936,54.380557)" d="M 554.99 327.87 554.31 326.8 552.62 327.85 553.29 328.93"/>
   <path d="m 1494.6736 351.09056 1.4979 0.67267 0.1645 2.868 c 1.9962 2.0244 8.4791 0.33792 8.4791 -0.16856 0 -0.50728 -0.3345 -6.2416 -0.3345 -6.2416 l -0.8328 -0.8444 -0.1645 -4.2204 c 0.6643 -2.1929 -3.1596 -5.3988 -3.491 -4.7206 -0.333 0.67266 -2.4937 0.16538 -2.4937 0.84202 0 0.67267 -1.3279 4.0479 -0.6644 5.2302 0.6644 1.1815 -0.4998 1.1815 -0.6643 2.3615 -0.1654 1.1807 -1.8294 3.2083 -1.4964 4.2212 z"/>
   <path d="m 1491.0136 344.34056 c -0.315 1.2785 -1.4932 2.0244 -2.1576 1.5171 -0.6691 -0.50728 0.8265 0.84202 1.1618 1.5202 0.3314 0.67267 1.3279 0.67267 1.6624 0 0.3298 -0.67902 0.1653 -2.1929 0.4998 -2.868 0.3298 -0.67585 -0.9989 -0.84441 -1.1665 -0.16936 z"/>
   <path d="M 1483.28,313.391 H1484.45 V316.597 H1483.28 z"/>
   <path d="m 1500.4936 280.91056 c -0.7255 -0.98276 3.3241 -2.6994 3.9885 -0.67426 0.6643 2.022 0 1.6872 -0.6644 1.5187 -0.6667 -0.17016 -2.326 0.5041 -3.3241 -0.84441 z"/>
   <path transform="matrix(0.78344,0,0,0.79511,1013.0936,54.380557)" d="M 626.47 257.73 628.8 258.15 629.03 256.9 626.69 256.48"/>
   <path transform="matrix(0.78344,0,0,0.79511,1013.0936,54.380557)" d="M 620.9 260.52 622.08 260.05 621.65 258.99 621.38 258.32 620.75 258.67 619.17 259.55 617.79 258.69 617.12 259.76 618.82 260.82 619.14 261.02 619.46 260.84 620.74 260.13"/>
   <path d="m 1505.6436,220.17056 h -2.4952 c 0,0 0.832,0.33713 -1.4932,-1.8566 -2.3307,-2.1929 -3.824,0.50649 -3.824,0.50649 l -2.6598,0.33712 v 2.6994 l -1.3318,0.50569 0.1684,1.688 1.8278,-0.16777 c 0,0 0,2.0236 0.4991,1.1807 0.4998,-0.84441 4.656,0.16697 4.3222,2.1929 -0.1356,0.83168 4.1577,3.0349 3.6586,5.7343 2.1607,0.33872 1.6624,2.5324 1.6624,2.5324 l 2.8243,0.33712 0.8327,-1.6872 0.8297,0.16936 v -1.013 l -1.8309,-0.50569 -0.3298,-5.3996 -1.1634,-0.84361 0.3314,-1.3501 -1.3287,-0.50648 0.6651,-2.1929 -1.165,-2.3607 z"/>
   <path d="m 1512.9536 237.38056 -1.3287 -0.16698 -2.9966 0.50569 -1.6585 3.2051 c 0 0 0.8296 0.50648 1.4932 1.6872 0.6643 1.1823 0.9981 8.0974 -0.9966 9.2798 -1.9931 1.1815 0.1677 0.5041 0.1677 0.5041 l -0.3345 3.7124 c 0.4998 1.6872 1.3287 0.84521 1.8278 0 0.5029 -0.84123 1.002 -1.0106 1.6664 -1.8542 0.6643 -0.8452 1.6609 -2.3623 1.8278 -3.5446 0.1645 -1.18 0.9965 -3.0349 0.4975 -3.5414 -0.4975 -0.50648 0.4998 -2.8672 0.4998 -2.8672 0 0 0.6643 -1.3517 0 -2.7002 -0.6644 -1.3509 0.1653 -2.8688 0.6643 -3.5446 l -1.3295 -0.67505 z"/>
   <path transform="matrix(0.12487039,-0.99217306,0.9917017,0.12856022,0,0)" d="M -47.4727,1533.62 H-46.1118 V1534.62 H-47.4727 z"/>
   <path transform="matrix(-0.89144963,-0.45311981,0.44253147,-0.89675298,0,0)" d="M -1468.75,464.561 H-1467.76 V465.689 H-1468.75 z"/>
   <path d="m 1513.4536 235.53056 -0.6675 -1.5195 c 0 0 0 -1.3477 0.3329 -2.0252 0.3346 -0.67425 -0.6643 -1.3477 -1.1618 -1.5171 -0.499 -0.16936 -0.3314 -1.5179 -0.499 -2.1937 -0.1653 -0.67426 -1.3279 -1.18 -1.3279 -1.18 0 0 -0.3353 -2.5308 -0.3353 -3.0365 0 -0.50648 -1.4956 -1.1807 -0.9966 -1.688 0.4999 -0.50569 0.8328 -1.1799 1.3319 -1.5187 0.499 -0.33713 -0.4999 -2.6994 0.3298 -2.1937 0.8328 0.50728 0.8328 1.3501 1.1658 2.0252 0.3314 0.67425 -0.1677 3.0373 0.6651 3.5438 0.8289 0.50489 -0.1684 2.1913 1.1626 2.1913 1.3287 0 0.4999 3.2067 0.4999 3.2067 0 0 -0.3346 2.3607 0.4951 2.5308 0.8328 0.16856 0.3345 4.2173 0.3345 4.2173 l -1.3295 -0.84282 z"/>
   <path d="m 1502.6536 208.19056 c 0.4967 0.67425 1.4948 1.1799 1.4948 1.8566 0 0.67585 -0.3314 1.18 0.6675 1.3493 0.9949 0.16777 1.6617 -0.16936 1.9931 0.67425 0.3329 0.84282 0.3329 2.1929 0.1676 2.868 -0.1676 0.67584 0.1653 1.6872 0.995 1.6872 0.8328 0 0.9981 0.16936 0.9981 0.67585 0 0.50489 0.9981 -1.8574 0.9981 -1.8574 -0.8336 -0.67426 -1.4979 -2.1937 -1.4979 -2.1937 0 0 -0.8297 -2.3615 -0.8297 -2.6986 0 -0.33713 -1.1626 -0.67585 -1.6609 -0.84361 -0.4998 -0.16936 -1.3326 -1.6864 -1.3326 -1.6864 l -1.9931 0.16856 z"/>
   <path d="m 1504.3136 206.68056 c -0.4999 -0.67664 -0.9989 -1.1823 -1.6632 -1.5179 -0.6628 -0.33872 -1.1618 -0.67585 -1.8293 -0.67585 -0.6644 0 -1.3279 -0.67584 -0.9981 -1.5179 0.3345 -0.84441 -0.4999 -1.1815 -0.4999 -1.8574 0 -0.67426 0.4999 -0.67426 1.3318 -0.16777 0.8328 0.50648 0.6644 0.67425 1.3326 1.5195 0.6628 0.84281 0.9942 1.6864 1.6578 1.5171 0.6683 -0.16936 1.1665 1.5179 1.8309 1.0122 0.6644 -0.5057 0.4999 1.1807 0.4999 1.1807 l -1.6624 0.50728 z"/>
   <path d="m 1484.8636,225.74056 c 0.9166,0.93187 -4.9858,0.67346 -4.9858,0 0,-0.67425 0.4998,-3.0349 1.9931,-2.5324 1.4964,0.50808 1.6609,-3.0349 1.6609,-3.0349 0,0 -1.3279,0.16698 -0.1646,-0.50648 1.1635,-0.67426 0,-1.6872 -0.4998,-2.1929 -0.4975,-0.50728 -0.9965,-1.3501 -0.9965,-1.3501 h 2.3292 c 0.9981,-0.67584 1.3279,-3.8801 1.3279,-3.8801 1.9931,0.67425 2.9912,-0.67584 2.9912,-0.67584 0,0 0.3376,1.0122 1.0012,1.8574 0.6643,0.84202 -1.6656,1.1799 -0.8336,1.6872 0.8336,0.50649 1.1634,2.0236 0.8336,2.5285 -0.3345,0.50648 -2.1654,0.16935 -2.1654,-0.5049 0,-0.67584 -0.6644,0.84361 0,1.6872 0.6643,0.84361 -0.8297,2.0236 -1.1634,2.0236 -0.333,0 -2.4905,0.33872 -0.6644,1.3501 1.8278,1.0114 3.8263,0.50808 3.8263,0.50808 0,0 1.4948,-0.17095 1.9931,0.67425 0.4999,0.84282 -0.1653,1.0122 -0.9965,1.0122 -0.8297,0 -4.822,-0.33872 -4.822,-0.33872 0,0 -1.1626,1.1815 -0.6643,1.688 z"/>
   <path d="m 1474.2236 227.26056 c 0.8336 -0.16857 2.8243 -0.33872 3.1588 0.16776 0.3345 0.5057 -1.1634 1.18 -1.1634 1.18 l -1.9954 0.33872 c -0.6644 -0.84441 -0.8297 -1.5179 0 -1.6864 z"/>
   <path d="m 1495.6736 213.09056 c 1.3287 -0.67425 4.1538 -0.67425 3.9885 -1.6872 -0.1645 -1.0122 1.6617 -1.3493 1.6617 -1.3493 l 0.499 2.0236 1.4964 1.0122 0.1669 1.8558 c 0 0 0.4975 -0.33713 -1.3287 0.16936 -1.8309 0.50648 -0.6644 1.3485 -0.6644 1.3485 l -3.9916 0.16856 -0.499 -1.6872 -1.3287 -1.8542 z"/>
   <path d="m 1489.1836 203.98056 c 1.0106 0 -0.3299 3.8801 2.326 3.543 2.6606 -0.33871 0.1692 1.1807 2.1623 1.3485 1.9954 0.17095 1.4964 -1.5179 2.1607 -2.6978 0.6675 -1.1807 0.3345 -1.8566 -0.8297 -2.1937 -1.1665 -0.33713 -1.1665 -0.33713 -1.4964 -1.6888 -0.3314 -1.3485 -1.6624 -1.6872 -1.6624 -1.6872 l -0.4998 -2.0228 -2.1607 1.3485 -2.1607 2.868 c 0 2.1953 1.1626 1.1823 2.1607 1.1823 z"/>
   <path transform="matrix(0.44249136,-0.89677277,0.89146989,0.45307994,0,0)" d="M 482.195,1436.07 H483.324 V1437.08 H482.195 z"/>
   <path d="M 1491.84,216.631 H1492.84 V217.811 H1491.84 z"/>
   <path transform="matrix(0.10977955,0.99395596,-0.99359043,0.11304005,0,0)" d="M 361.642,-1462.35 H363.168 V-1461.36 H361.642 z"/>
   <path d="M 1489.85,209.881 H1490.85 V210.726 H1489.85 z"/>
   <path transform="matrix(-0.09667065,-0.99531642,0.99503303,-0.0995453,0,0)" d="M -356.87,1459.99 H-355.857 V1461.66 H-356.87 z"/>
   <path transform="matrix(-0.9166288,-0.39973948,0.38987845,-0.92086633,0,0)" d="M -1445.15,381.808 H-1444.15 V383.09 H-1445.15 z"/>
   <path transform="matrix(-0.09686575,-0.99529746,0.9950129,-0.09974629,0,0)" d="M -368.365,1439.8 H-367.354 V1441.48 H-368.365 z"/>
   <path transform="matrix(0.78344,0,0,0.79511,1013.0936,54.380557)" d="M 539.56 211.91 539.62 213.18 544.28 212.97 544.22 211.7"/>
   <path transform="matrix(-0.21328023,-0.97699107,0.97563952,-0.21937989,0,0)" d="M -533.17,1352.59 H-531.617 V1353.59 H-533.17 z"/>
   <path transform="matrix(-0.31191952,-0.95010853,0.94730237,-0.3203408,0,0)" d="M -672.313,1290.98 H-671.303 V1291.51 H-672.313 z"/>
   <path d="m 1440.9736 222.37056 -0.1653 1.1807 1.8262 0.16936 c 0 0 0.8296 0.67585 0.8296 1.18 0 0.50648 1.1665 1.0122 1.8309 1.0122 0.6644 0 2.4921 -1.3501 2.4921 -1.3501 0 0 0.8328 -2.3623 0.1685 -2.1937 -0.6675 0.16777 -1.9962 1.1807 -2.1607 0.16777 -0.1685 -1.0122 -2.1607 -0.50649 -2.1607 -0.50649 l -2.6606 0.34031 z"/>
   <path d="m 1449.2836 220.51056 c 0 0.5049 -0.3299 1.18 0.6643 1.3501 1.002 0.16697 2.8298 -0.67425 2.9943 0.33713 0.1685 1.0114 0.1685 1.6888 1.4964 2.1953 1.3279 0.5049 2.1623 0.67425 3.1588 0.67425 0.995 0 3.1596 -0.33951 3.1596 -0.33951 0 0 2.3519 0.36814 2.8243 0.84521 1.8278 1.855 2.9912 2.3607 3.4894 1.5179 0.4991 -0.84441 -0.1653 -2.6986 -0.3306 -3.3736 -0.1676 -0.67664 -2.4952 -3.8817 -3.3265 -3.2067 -0.8296 0.67585 -0.9957 0 -2.4929 0.5049 -1.4964 0.50648 -4.6552 0.17095 -4.8197 -0.5049 -0.1653 -0.67584 -2.4929 -1.0106 -2.4929 -1.6872 0 -0.67585 -1.6609 -1.5179 -1.4964 -0.50649 0.1653 1.0114 -1.1626 1.5179 -1.5003 1.1823 -0.3298 -0.33792 -1.3279 1.0114 -1.3279 1.0114 z"/>
   <path d="m 1487.5236,198.91056 1.1658,-3.7092 c -1.6609,-0.33872 -1.331,-2.1929 -1.331,-2.1929 -0.1653,-1.5194 -2.4921,-3.2059 -3.3241,-2.6994 -0.8297,0.5041 -0.4999,-3.5446 -0.4999,-3.5446 0,0 1.4979,-1.0106 2.1623,-0.5049 0.6652,0.5049 -5.6509,-8.4353 -6.982,-7.5917 -1.3287,0.84361 -4.3191,-0.84361 -4.1538,-2.3631 0.1653,-1.5171 -5.9847,-6.5796 -5.9847,-6.5796 0,0 -1.9954,-1.3477 -2.3268,-0.33553 -0.3329,1.0114 -0.9973,1.6872 0,2.1913 0.9958,0.50728 0.8297,-0.84282 1.9923,0.33713 1.1634,1.1807 3.3272,2.7002 2.4952,3.7124 -0.832,1.0138 -1.8301,1.3509 -1.8301,1.3509 l 1.1658,1.3501 h 1.8278 l 0.333,2.8664 c 0,0 1.9931,1.013 2.4929,2.1937 0.499,1.18 0.499,1.8558 0,2.5316 -0.4998,0.67425 -1.4932,1.855 -1.3287,3.0349 0.1653,1.1807 1.4964,1.6872 1.4964,1.6872 l 1.3279,0.16936 0.9989,0.50728 v 2.1945 c 1.3279,-0.33872 3.4886,1.5155 3.3241,2.6978 -0.1653,1.1807 0.3298,0.50569 1.9923,1.6872 1.6648,1.1807 1.1665,1.3501 2.3292,2.1937 1.1642,0.84123 2.1623,0.33554 2.6574,-1.1847 z"/>
   <path d="m 1460.0936,175.97056 c -0.1653,-0.67585 -0.4999,-3.0389 0.499,-2.8704 0.9966,0.17095 0.333,0 1.4964,0.50729 1.1634,0.50728 1.3287,-0.84282 1.3287,-0.84282 h 1.8301 l 2.326,1.8542 -0.3329,1.5194 -1.6624,0.16698 c -0.8297,-1.3477 -2.4929,-0.84203 -2.1607,0.33951 0.3329,1.18 -0.8297,3.3737 -1.4932,3.5414 -0.6652,0.16935 -2.8298,0.16935 -2.6606,-0.84203 0.1653,-1.0122 0.8296,-3.3736 0.8296,-3.3736 z"/>
   <path d="m 1458.7636,171.41056 v -1.3485 c 0,0 -0.1693,-1.3493 -0.9981,-1.3493 -0.8289,0 -2.326,-1.0114 -1.9962,-1.6872 0.3353,-0.67584 -2.8243,-1.3501 -2.8243,-1.3501 0,0 -2.8243,-2.6994 -1.8278,-2.3607 0.9981,0.33712 0.4998,-1.1823 0.4998,-1.1823 0,0 -1.9962,0.33712 -2.4952,0.16935 -0.4998,-0.16935 -0.3345,-1.6872 -0.3345,-1.6872 0,0 -1.9915,-0.50649 -1.9915,0 0,0.50648 0.6643,0.50648 0.9942,1.5171 0.3345,1.0114 0.1684,2.7002 1.6664,3.0365 1.4964,0.33872 1.8262,0.67425 1.9954,1.3501 0.1653,0.67584 1.9931,0.84361 1.9931,0.84361 l 1.331,0.67426 3.9877,3.3744 z"/>
   <path transform="matrix(0.78344,0,0,0.79511,1013.0936,54.380557)" d="M 545.32 123.85 543.62 123.43 543.62 125.34 545.95 125.55"/>
   <path d="m 1440.3136,147.12056 c -1.7377,-1.3191 2.3252,1.013 2.3252,1.013 1.3287,0 2.1607,1.0122 2.1607,1.5195 0,0.50569 1.8285,0.33713 1.8285,0.33713 l 0.1692,-1.1823 -1.3326,-1.6872 -1.1618,-0.84123 c 0,0 -1.8278,-0.16936 -1.8278,-0.67584 -8e-4,-0.5049 -1.4972,2.0244 -2.1615,1.5171 z"/>
   <path d="m 1470.8936,148.13056 c -0.4858,1.4765 -0.6644,3.5438 -1.4964,3.5438 -0.8297,0 -0.4991,2.1953 -0.4991,2.1953 0,0 2.1646,0 2.829,0.16698 0.6628,0.16697 0.6628,1.8542 0.6628,1.8542 2.4952,-0.16698 3.4933,3.2067 3.1588,4.0503 -0.333,0.84282 0.9981,0.84282 0.9981,0.84282 0,0 0,2.7002 -0.3345,3.3737 -0.3299,0.67584 2.1623,1.1823 2.8266,2.1937 0.6643,1.013 -0.3346,4.3866 -0.8313,4.5552 -0.4982,0.16936 1.3279,0.67426 1.1634,1.5179 -0.1684,0.8452 0.4991,0 0.6644,1.3509 0.1653,1.3485 0.4998,4.2165 0.4998,4.2165 l 2.3252,0.17015 c 0.3346,-2.1929 4.6199,-2.2772 5.3203,-2.0252 2.8259,1.0122 4.9897,5.3988 4.9897,6.4102 0,1.0114 -1.8309,1.1823 -1.8309,1.1823 l 0.3345,4.8907 c 2.8243,0.84441 5.152,4.8947 4.8205,5.569 -0.3329,0.67425 1.9923,0.50728 1.9923,0.50728 0.3346,-3.0389 3.1596,-2.0259 3.3242,-1.013 0.17,1.013 0.6651,3.2059 0.6651,3.2059 l 0.832,1.5163 1.1634,1.1815 1.8278,-0.16856 0.4998,1.013 2.1607,0.33872 c 0,0 1.8309,2.022 1.9954,2.53 0.1685,0.5049 2.6606,0.33713 3.3241,0.5049 0.6644,0.16935 1.6632,0.67584 1.8278,1.5187 0.1685,0.84441 1.1665,2.1937 1.1665,2.1937 0,0 1.9931,0.50728 2.1607,1.1807 0.1653,0.67346 0.9981,2.1929 0.9981,2.1929 l 1.6585,1.3501 0.1677,1.5194 1.8278,0.16857 0.4998,2.022 2.9896,-0.16697 1.6656,-1.1807 c 2.1607,-1.1799 3.6571,-2.6994 3.824,-3.3752 0.1645,-0.67425 0.4975,-3.2035 2.1607,-2.6978 1.6609,0.50649 0.4991,-3.7124 0.4991,-3.7124 0,0 -2.3268,-1.6872 -2.1623,-2.5324 0.1668,-0.84203 -2.3252,-2.5285 -2.1607,-3.2043 0.1653,-0.67585 -2.1607,-2.0236 -1.9954,-2.6986 0.1645,-0.67584 -1.1634,-2.5324 -1.1634,-2.5324 l -2.4952,-2.3607 -0.333,-1.5195 -1.9931,-0.16697 -3.9885,-4.8931 0.1653,-1.3509 -1.1634,-0.16777 v -1.855 l -1.1618,-0.67584 -1.8309,-0.16856 -3.6555,-4.0479 -0.3329,-1.8566 h -1.8278 l 0.3314,-3.5438 c 1.165,-1.5187 0.4982,-4.3866 0.4982,-4.3866 0,0 -2.3292,1.1807 -3.4894,0.67426 -1.1658,-0.50411 0.4967,-1.6872 0.4967,-1.6872 v -1.3485 l -0.9957,-1.0122 c 0,0 -2.8282,0.33872 -2.9927,-0.16697 -0.1669,-0.50649 -0.6644,-2.7002 -0.6644,-2.7002 l -0.1669,-2.8688 -1.1618,-0.5041 -0.1692,-1.0138 -1.8262,0.16777 v -2.0236 l -0.9989,-0.33712 -0.9965,-0.50649 -0.1661,-2.0252 -3.6571,-0.16697 -1.1634,-1.6872 -1.3287,-2.0251 -4.1561,-0.33713 -0.9981,-1.0106 -1.6617,-0.33872 -1.1634,-0.50648 -0.499,0.8452 -3.1596,0.16698 -0.1646,1.0122 c -1.6616,0.84362 -8.3107,0.16777 -8.4799,0.67346 z"/>
   <path d="m 1488.3536 143.75056 c -0.2633 -1.3318 3.3272 -2.5308 4.1569 -1.5195 0.8328 1.0122 3.1588 1.1839 3.4918 6.2448 0.1175 1.8121 -2.9927 -1.8558 -2.9927 -1.8558 l -2.4952 -0.84361 c -1.3287 -0.33872 -1.9954 -1.18 -2.1607 -2.026 z"/>
   <path transform="matrix(-0.91112044,-0.4121402,0.40209005,-0.91560012,0,0)" d="M -1376.81,460.492 H-1375.81 V462.15 H-1376.81 z"/>
   <path d="m 1431.0036,129.24056 -2.1654,-2.1937 v -1.8558 l -0.6644,-0.67664 -0.6643,-2.3607 -2.1607,-0.67426 -2.1607,0.84202 -2.3276,1.5187 -2.4921,0.33951 -1.3318,1.5171 5.3203,0.5041 0.9957,1.6896 3.8271,0.33713 2.4905,2.53 c 2.1654,0.67584 2.6621,-0.33713 1.3334,-1.5171 z"/>
   <path d="m 1430.6736,120.97056 c -0.3659,-1.4829 -2.4952,1.855 -0.3298,2.5284 2.1607,0.67823 4.3183,0 4.3183,0 l 0.4998,-1.0114 8.3091,0.16936 c 0.669,-0.67584 0.9981,-1.6872 0.9981,-1.6872 0,0 1.9962,-0.67585 2.8251,-0.33872 0.8328,0.33872 0.1692,-2.3607 -0.6644,-2.0236 -0.8296,0.33713 -2.4913,0.16856 -2.4913,0.16856 h -2.9935 c -0.1653,-1.1799 -2.8251,-0.67584 -2.9912,0 -0.1684,0.67426 -1.1618,0.84282 -1.1618,0.84282 l -3.824,0.33872 c -0.3337,1.013 -2.326,1.6872 -2.4945,1.013 z"/>
   <path d="m 1414.2136 149.44056 c 2.5564 0.81101 3.4894 0.2107 3.6586 -0.46355 0.1653 -0.67584 0.3298 -0.8452 1.3287 -1.0122 0.9965 -0.16936 -0.1669 -2.1937 -1.1634 -2.0252 -0.9989 0.16857 -1.9962 -0.33712 -2.1607 -1.1807 -0.17 -0.84281 -1.8309 -3.0365 -1.9962 -1.3485 -0.1661 1.6872 -1.1634 1.6872 -0.9981 2.868 0.1676 1.1784 0.6667 2.9491 1.3311 3.1622 z"/>
   <path d="m 1395.1036 151.34056 c -0.1199 -0.59712 3.3241 -0.67425 3.824 -0.17015 0.4998 0.50728 0.1653 1.3501 1.6617 1.3501 1.494 0 0.8304 1.013 0.6643 1.5195 -0.1653 0.50569 -1.8262 0.33712 -1.9962 -0.16698 -0.1645 -0.50728 -2.6598 -0.67823 -2.6598 -0.67823 0 0 -1.3287 -1.013 -1.494 -1.8542 z"/>
   <path transform="matrix(0.78344,0,0,0.79511,1013.0936,54.380557)" d="M 558.09 77.802 557.01 76.721 556.11 77.62 557.59 79.105 558 79.51 558.44 79.154 560.57 77.455 559.77 76.462"/>
   <path transform="matrix(0.78344,0,0,0.79511,1013.0936,54.380557)" d="M 546.71 71.752 546.04 72.832 547.74 73.89 548.07 74.105 548.41 73.89 550.75 72.403 550.07 71.33 548.07 72.599"/>
   <path transform="matrix(0.78344,0,0,0.79511,1013.0936,54.380557)" d="M 540.92 116.22 538.8 116 538.67 117.27 540.49 117.45 541.81 119.52 542.88 118.84 541.4 116.51 541.23 116.25"/>
   <path d="m 1382.1336,193.85056 0.17,1.8566 h 2.4906 c 0.9981,0 -0.8297,-1.1807 -0.8297,-1.1807 0,0 -1.9954,0.16936 -1.8309,-0.67584 z"/>
   <path transform="matrix(0.63290773,-0.77422723,0.76494491,0.64409571,0,0)" d="M 744.02,1195.39 H745.026 V1196.69 H744.02 z"/>
   <path transform="matrix(0.70246161,-0.71172163,0.70125272,0.71291277,0,0)" d="M 852.259,1078.55 H853.264 V1079.97 H852.259 z"/>
   <path transform="matrix(0.78344,0,0,0.79511,1013.0936,54.380557)" d="M 495.95 407.82 495.38 408.96 496.71 409.62 496.27 410.06 497.18 410.96 498.24 409.9 498.86 409.28 498.07 408.88"/>
   <path transform="matrix(0.78344,0,0,0.79511,1013.0936,54.380557)" d="M 480.83 392.62 479.55 393.68 478.92 394.21 479.59 394.69 481.08 395.75 481.82 394.72 481 394.13 481.64 393.6"/>
   <path d="m 1514.0436,335.33056 c -0.2202,-0.85951 -1.1893,-1.2125 -1.2989,-1.2483 l -0.3173,0.96208 v -0.006 c 0.079,0.0302 0.1943,0.0906 0.3094,0.16618 l 0.2037,0.87462 c -0.074,0.11211 -0.1559,0.21707 -0.2201,0.2926 l 0.7317,0.68459 c 0.5335,-0.59395 0.731,-1.1696 0.5915,-1.7254 z"/>
   <path transform="matrix(0.78344,0,0,0.79511,1013.0936,54.380557)" d="M 639.31 349.19 639.47 347.28 641.54 347.6 641.38 349.34"/>
   <path d="m 1554.1036 318.99056 c 0.7105 -0.44924 1.6194 -1.2674 1.4964 0.6337 -0.1262 1.8971 -0.8736 1.2666 -1.4964 1.8971 -0.6229 0.63371 -0.9973 -1.8971 0 -2.5308 z"/>
   <path d="m 1562.5636 311.83056 c -0.014 -0.0334 -0.023 -0.15028 -0.03 -0.23535 -0.022 -0.27829 -0.058 -0.65756 -0.2554 -1.0559 l -0.8908 0.45242 c 0.1105 0.22581 0.1324 0.46434 0.1512 0.69333 0.025 0.29578 0.058 0.63371 0.3408 0.84759 0.1786 0.13597 0.4043 0.17493 0.673 0.12324 l -0.1904 -0.97957 c 0.077 0.0119 0.1778 0.0819 0.2013 0.15425 z"/>
   <path d="m 1560.3436 312.66056 c 0.253 1.0257 0.6228 2.0363 0.6392 2.0784 l 0.9355 -0.35621 c -0.01 -0.009 -0.3698 -0.99866 -0.6088 -1.9703 l -0.9659 0.24807 z"/>
   <path d="m 1556.7136 316.64056 -0.9934 -0.0994 c -0.078 0.79591 0.112 1.7795 0.8978 1.9393 l 0.1951 -0.9923 c 0.01 0 0.016 0.006 0.019 0.006 -0.081 -0.0716 -0.1544 -0.47866 -0.1183 -0.85316 z"/>
   <path d="m 1552.3436 296.51056 c -0.052 -0.32441 -0.246 -0.57646 -0.5453 -0.70924 -0.738 -0.3244 -1.9821 0.2123 -2.5916 0.62575 l 0.5515 0.84282 c 0.6315 -0.42777 1.4603 -0.6337 1.6452 -0.53908 -0.016 -0.006 -0.039 -0.0358 -0.045 -0.0557 l 0.9856 -0.16459 z"/>
   <path d="m 1506.3036,242.61056 c -0.6644,0.67584 -2.1607,1.013 -2.1607,1.013 l -0.4999,1.8558 -0.8288,0.67425 c 0,0 0.1645,0.5057 0,1.6872 -0.1669,1.18 -1.6632,1.8558 -1.6632,1.8558 l -0.6644,0.84361 c 0,0 -4.0073,0.21707 -4.4883,0 -1.4964,-0.67425 -0.4975,-2.6994 0.4998,-2.5308 0.9958,0.16936 -0.1684,-2.8688 -0.1684,-2.8688 l 1.3318,-0.16777 c 0,0 0.1645,-3.0381 0.6644,-3.0381 0.499,0 -0.1654,-1.0114 -0.8328,-1.5179 -0.6644,-0.5041 -1.4948,-2.1913 -2.1623,-2.0236 -0.6644,0.16777 -3.3241,0 -3.3241,0 l -0.4991,1.013 -1.8293,0.33633 c 0,0 0.1575,1.3048 -0.1622,1.688 -1.0012,1.18 -4.822,3.7108 -3.162,-0.50648 l 0.4975,-1.0106 v -1.5195 l -2.9888,-0.16697 c 0,0 -1.4964,-0.50728 -1.4964,-1.1823 0,-0.67505 -0.1669,-1.5171 -0.1669,-1.5171 l -3.4918,-3.8801 -4.1538,-0.5057 -0.3345,-0.8452 -2.4906,-0.33713 c -2.9943,-1.5171 -5.6548,-0.16856 -5.155,2.3623 0.4983,2.5324 1.3279,3.5438 -0.3314,3.5438 -1.6648,0 -1.9962,-1.3493 -1.9962,-1.3493 0,0 -1.3279,-0.50728 -1.3279,0.16697 0,0.67584 -0.4998,2.0252 0,2.6994 0.4967,0.67426 -0.6675,1.6872 -1.1665,1.1807 -0.4951,-0.50648 -1.8262,-2.022 -1.4932,-2.5284 0.3314,-0.50649 -2.3299,-3.7132 0.3314,-4.2189 2.6606,-0.50649 -0.1661,-2.0252 0.8328,-2.3607 l 1.3279,-0.67584 h 1.3287 l 0.832,-0.67585 -2.1607,-0.33553 -1.3279,-0.16936 -2.4952,-0.16856 c -2.4921,1.6872 -2.9896,3.7124 -2.9896,3.7124 -1.3326,2.53 -4.4883,-1.013 -3.3241,-2.3623 1.1618,-1.3501 -3.6586,-0.16935 -4.4906,0.50569 -0.8328,0.67426 -3.3257,0.33713 -3.3257,0.33713 -0.4974,1.5195 -2.8243,-0.16697 -2.1607,-1.1799 0.6652,-1.0122 0.6652,-1.6872 0.6652,-1.6872 l -0.8297,-0.16936 -0.9965,1.8558 c -2.3276,0 -2.9943,1.3485 -2.496,2.1929 0.4983,0.84202 -0.6644,-0.16857 -0.9981,1.0122 -0.3298,1.1807 0.1684,1.1807 1.1665,1.6872 0.9981,0.50649 -0.4998,0.50649 0.1653,1.3485 0.6644,0.8452 2.6598,0 1.4971,1.1823 -1.1634,1.18 -3.4933,0.67584 -3.4933,0.67584 -0.1653,1.5155 -3.3241,1.18 -3.6539,0.67426 -0.3345,-0.50649 -2.8259,-3.5438 -2.8259,-3.5438 l -3.1627,-0.16857 c -0.3298,-2.3607 1.4979,-1.1807 2.1623,-3.0365 0.6683,-1.8566 1.0004,-4.8915 1.0004,-4.8915 0,0 -2.6629,-0.16856 -2.8282,0.67425 -0.1645,0.84441 -1.8278,1.3501 -1.8278,1.3501 0,0 -1.3311,0.5049 -0.832,1.1807 0.499,0.67585 -0.9981,1.0106 -0.9981,1.0106 0,0 0.2593,1.0901 -0.1653,1.5187 -1.3279,1.3517 -4.6552,0.16777 -5.1519,-0.33712 l -1.9962,-0.84362 -1.9954,-1.3493 -2.326,1.0106 -0.6644,0.67584 h -2.4952 l -0.1645,2.022 4.4883,0.50569 0.333,4.1759 -1.8309,-0.63052 h -1.1634 l -0.4975,-1.013 -0.9981,-0.16936 v 3.7108 l 0.9981,0.84521 0.8328,0.84122 1.6624,0.16936 0.3329,2.0236 4.1538,0.17095 0.4991,0.84202 2.4952,0.16936 4.8205,4.8907 -0.333,1.5195 -0.8328,0.50648 c 0.3346,1.1807 -2.1583,0.50649 -2.1583,0.50649 v 1.0106 l 1.1603,0.16856 1.1664,0.67425 1.6609,-2.8672 c 1.8278,-1.1807 2.6574,0.50649 2.8267,1.5187 0.1645,1.0122 -0.8336,0.84281 -0.8336,0.84281 v 2.3639 l 0.9981,0.33554 c 1.6648,2.0251 -0.6644,3.2067 -0.6644,3.2067 l -0.4998,1.6864 c -0.4991,1.5187 -2.3268,1.18 -2.3268,1.18 l -0.6628,1.013 -1.9978,0.50648 3.947,0.50569 c 0.3753,-1.3501 1.3702,-1.6872 1.8693,-1.0122 0.4998,0.67584 0.4998,1.8566 0.4998,1.8566 l 1.0012,0.16857 -0.1692,1.855 0.9981,0.33872 v 5.398 l 1.1634,1.3493 c 1.9954,-0.84123 1.9954,0.50728 0.9965,1.1807 -0.9965,0.67346 -0.3329,3.7124 -0.3329,3.7124 l -0.8312,0.84202 v 1.3509 l -0.9966,0.67426 v 1.855 c -1.6632,-0.84282 -3.6586,-0.50728 -4.1585,0 -1.4932,-1.013 -4.652,-0.67425 -4.652,0.17016 0.9958,1.3493 -1.1618,1.6872 -1.1618,1.6872 l -1.1665,1.3493 c 0.8328,1.688 -0.8289,1.855 -0.8289,1.855 v 3.2067 l -1.9962,1.8558 0.1685,4.3866 c 0,1.1807 2.4921,1.3485 2.9888,0.67426 0.4998,-0.67426 2.496,1.3509 2.496,1.3509 h 1.4932 l 0.3345,-3.0381 -0.9989,-0.50649 v -4.8931 l 1.6632,-1.8566 c 1.9954,-0.67426 1.3311,4.389 1.3311,4.8947 0.1653,1.855 0.9942,1.6872 1.8278,1.3485 1.6617,-0.67426 0.3299,1.8582 -0.9981,1.6872 -1.3287,-0.16697 -0.4998,1.6872 -0.4998,1.6872 l 0.8336,0.33872 -1.4979,1.1807 -1.3264,1.5195 -1.6664,-0.50729 -1.9923,-0.16697 -0.6652,-1.1839 -1.1658,-0.16777 -0.1653,2.3607 -0.8296,1.0122 -1.9954,2.0275 c 2.6606,0 -0.3345,1.8518 -0.9981,1.8518 1.4956,0.50649 -0.1653,2.0267 -3.9885,0.8468 v 1.1792 l -1.3318,0.16935 1.1665,1.3477 1.3279,0.16936 -0.4991,2.868 c 0,2.1929 -5.4848,0.67267 -5.9847,0.16857 l -0.1653,3.0373 -0.9981,0.16618 0.1653,2.0267 -0.1653,2.8688 1.8278,-0.33792 v 1.1815 l 4.4907,0.16936 6.4829,-6.9191 3.8224,-0.84202 c 0.3314,-1.6896 1.9923,0.33792 1.9923,0.33792 1.6632,-0.17254 1.9962,1.0106 1.9962,1.0106 l 2.1623,0.33792 c 1.8262,0.50728 0.7224,0.68459 0.8297,1.3517 0.1645,1.0106 0.9965,0.67266 0.9965,0.67266 l 0.3346,-2.1929 0.9981,0.16856 -0.9981,-1.1815 -1.8309,-0.84521 -1.9931,-0.84202 c -1.3311,-1.855 0.3321,-1.5171 1.6632,-1.3477 h 2.1607 c 0,0 2.4952,3.3721 2.4952,4.2165 0,0.8452 1.1634,1.0138 1.1634,1.0138 l 1.4932,-0.16936 0.4998,1.1792 h 1.4956 l 0.4998,1.0106 h 2.9927 l 0.1661,-1.5171 -2.829,-0.5033 -0.1645,-1.6896 -1.9931,-0.50649 c -0.6675,-2.8656 0.4967,-3.7108 1.3279,-2.3591 l 0.9973,0.16538 -0.333,-2.5308 1.1626,-0.33792 -0.3314,-3.5438 -0.9965,-0.33475 v -1.1823 l 4.1538,0.17175 c -0.3298,-2.1961 0.1677,-3.2075 0.1677,-3.2075 h 1.1634 l 0.1653,0.846 5.0861,0.47945 3.596,-4.125 c -0.181,-0.31486 0.3611,-0.50728 -0.034,-0.91199 -0.4999,-0.50569 -1.1665,0 -2.0009,-0.50569 -0.8289,-0.50331 0,-3.3737 -0.1646,-4.0479 -0.1653,-0.67426 2.829,-1.6896 2.3299,-0.16857 -0.499,1.5195 0,2.1937 0,2.1937 2.1607,-2.0252 3.9893,0.16697 3.824,0.67425 -0.17,0.50569 1.1618,1.0122 1.9915,0.50569 0.8328,-0.50569 1.8301,1.5195 1.4972,2.5292 -0.3345,1.0122 -3.3233,0.8452 -3.4886,-0.16777 -0.17,-1.013 -0.669,-0.67425 -0.9981,-0.16777 -0.3345,0.50649 -1.8278,0.84203 -2.6606,0.33554 -0.1684,-0.10257 -0.2491,-0.18765 -0.2961,-0.26875 l -3.596,4.125 0.2335,0.0238 c 1.9931,1.1823 0.9981,2.7002 0.3345,3.0373 -0.6675,0.33792 -1.8309,0.33792 -1.8309,0.33792 l -0.3298,0.67585 -4.323,0.33553 -0.3346,1.6888 c -2.1607,-0.3411 -2.9896,2.0236 -2.4913,3.2027 0.4999,1.1792 0,2.1929 0,2.1929 l 1.8285,0.84521 2.3252,-0.67267 c 0.3345,-1.6896 1.8278,-2.0275 3.1596,-3.0373 1.3279,-1.013 3.4918,1.8518 2.8243,3.2035 -0.6643,1.3477 -0.6643,1.855 -0.6643,1.855 l 0.1645,1.5194 -1.6609,0.67346 -1.3287,0.67585 -0.1692,0.8444 h -4.4867 l -0.8297,0.84203 -2.1623,0.17254 -0.6675,1.0106 -1.4932,0.16936 c 0,0 -2.4952,1.1815 -1.4964,2.5308 0.9973,1.3509 -4.1546,1.1815 -5.3211,-0.67584 -0.3329,1.6856 -2.1607,0.16856 -2.1607,0.16856 l -1.8278,-0.50728 -0.1653,-2.5277 c -0.3329,-1.6888 -3.4918,-1.6888 -3.3241,-0.50649 0.1653,1.1815 -5.987,0.50649 -5.987,0.50649 l -1.9931,0.96845 -1.8309,1.0559 -0.1645,0.84203 -2.9943,0.33792 -1.3279,0.67584 -0.4983,-1.013 h -1.3287 l -1.3311,1.8574 c -3.4902,0.16936 -6.8143,2.1937 -6.4829,3.0373 0.333,0.84202 -1.3279,1.6896 -1.3279,1.6896 l -1.4979,0.50012 -0.9949,1.5203 -1.9954,0.67584 -0.3346,3.5446 -0.9949,0.67266 v 1.5202 l -1.1658,0.33474 v 0.84521 l -1.6617,0.16856 0.9949,2.5316 1.3342,0.67584 c 2.3268,0.33474 1.3279,3.2059 1.3279,3.2059 l 1.3287,0.16618 0.6675,1.855 1.3279,2.6994 c 0.4998,2.0275 1.9962,1.5203 2.6606,1.3517 0.6644,-0.16618 1.3279,2.0236 1.3279,2.0236 l 6.6482,0.16936 c 0,0 -0.3298,0.67584 0.8336,1.013 1.1618,0.33474 8.809,0.67585 9.1435,0.16936 -0.3345,-1.5202 4.153,-1.8582 5.9839,-0.50728 1.8262,1.3477 4.3214,0.50728 4.3214,0.50728 l 2.4929,3.0334 1.6656,3.7132 2.8243,0.84202 1.9931,0.50728 0.6675,2.868 1.4932,0.16936 0.4998,1.8574 c 1.8301,1.3485 -0.4998,4.2173 -0.4998,4.2173 v 3.71 l 1.3311,0.67584 -0.1677,1.3517 2.1638,2.1897 2.4921,0.17174 6.3184,6.7473 4.985,1.5171 0.8297,2.7002 1.3326,-0.16935 0.9965,-0.84203 3.9885,-0.16856 1.9962,-1.8582 2.1607,-0.33474 18.452,-15.691 -1.6648,-1.013 v -3.71 c 2.9927,-2.1929 3.1588,-6.0754 0.333,-6.4126 -2.1435,-0.25602 -1.1618,-2.5308 0.8335,-2.868 l 1.1618,-0.5041 v -1.5202 l 3.8232,-3.5406 v -2.7002 l -8.3091,-6.9191 c -3.6586,-1.3477 0,-9.4475 2.4906,-9.2782 2.4952,0.16617 -0.1645,-12.484 -0.1645,-12.484 l -1.3318,-0.67345 0.3346,-4.0511 h -1.8278 l -2.9935,3.8825 -0.8297,2.697 c -0.333,3.547 -10.64,2.868 -11.14,2.3615 -0.499,-0.50649 -3.9885,-2.0236 -3.9885,-2.0236 0,0 -2.6598,-2.1929 -3.1588,-1.5171 -0.499,0.67584 -2.8243,-0.8452 -2.8243,-0.33792 0,0.50648 -2.1607,-1.1792 -2.1607,-1.1792 l -3.3241,-1.1823 2.4952,-0.50728 -0.4998,-2.0236 4.3183,2.1929 c 0.4998,0.67267 2.6606,0.50729 2.6606,0.50729 l 0.6643,0.8444 c 0,0 1.3318,-0.17174 2.1654,0.84203 0.8297,1.013 5.1503,0.16935 5.1503,0.16935 l 1.1634,1.0106 1.8278,0.67585 5.155,0.16935 0.1653,-3.2035 0.9981,-1.013 -0.1668,-2.0267 1.1634,-1.0106 v -1.6856 l 0.9981,-0.33792 0.1653,-3.71 0.8296,-0.16936 v -8.099 l -2.4929,-2.3631 c -0.1645,0.8452 -2.8243,0.8452 -2.8243,0.8452 0,0 -0.6643,1.1792 -1.1634,1.1792 -0.4975,0 0.6651,1.5171 0.3314,2.5308 -0.3314,1.0106 -1.6624,1.0106 -1.6624,1.0106 l -2.4952,0.67664 -0.6644,0.84441 h -2.6606 l -0.3298,-2.1929 2.9896,-0.8452 1.6624,-0.84123 0.8328,-1.6896 c 0.1645,-1.6848 2.1607,-1.5179 2.1607,-1.5179 0,0 3.8232,-3.2059 3.9885,-4.7214 0.1692,-1.5194 1.4979,-5.7375 3.824,-5.7375 h 4.323 c 1.6609,-0.67664 1.1626,-2.8688 1.1626,-2.8688 l 2.1615,-0.33554 0.333,1.1807 c 0,0 2.9935,0.33713 3.3241,-0.16935 0.3345,-0.50411 0.9981,-1.6872 1.8309,-1.1808 0.8304,0.5057 3.4902,-1.1815 3.4902,-1.1815 0.1653,-1.1807 4.3214,-0.67425 4.3214,-0.67425 l 0.4998,-1.5179 c 0,0 -2.8251,-3.8802 -3.3241,-3.8802 -0.4998,0 -3.1588,-2.3639 -3.4926,-1.5194 -2.6566,-0.67426 -2.4921,-4.3866 -2.4921,-4.3866 l -0.9981,-2.3607 c 0,-1.3517 -2.4905,-4.2189 -2.9927,-3.8801 -2.4952,-1.8558 -0.6643,-4.0495 0,-4.2181 0.6644,-0.16777 2.3292,-2.5308 2.3292,-2.5308 l 0.8297,-2.3623 2.8259,-0.84123 0.3329,-2.1937 -1.4932,-0.16936 c 0,0 1.6593,-3.0373 2.4921,-3.0373 0.8328,0 6.3184,0 6.8135,-0.33872 0.4991,-0.33554 1.4956,-3.0349 1.4956,-3.5414 0,-0.50648 1.3334,-0.67584 1.8285,-0.8452 0.4991,-0.16697 1.6624,-1.5171 1.9954,-2.1929 0.333,-0.67902 -0.8281,-4.8979 -1.4948,-4.2228 z"/>
   <path d="m 1414.2136 303.43056 c 0.2491 -0.24966 0.4998 0.76013 0.9981 0.63371 0.4951 -0.12643 0.7474 0.88655 0.2499 0.88655 -0.4998 0 -0.4998 0.6337 -0.4998 0.88654 0 0.25365 0 0.88417 -0.3753 1.2642 -0.3737 0.38006 -0.749 0.12642 -1.2488 -0.12642 -0.4975 -0.25285 -0.7443 -0.25285 -1.3702 -0.25285 -0.6221 0 -0.1261 1.013 -0.1261 1.013 0 0 -2.6182 -0.12643 -2.1184 -0.50729 0.499 -0.37688 0.9981 -0.50648 0.6251 -0.76012 -0.3752 -0.25285 0 -0.5041 0 -1.0106 0 -0.50728 1.2472 -0.25284 0.8704 -0.6337 -0.3713 -0.38007 0.01 -1.8478 0.6229 -1.013 l 0.376 -0.88735 c -0.376 -0.37847 -0.1238 -0.50648 -0.8719 -0.75535 -0.7474 -0.25364 -0.127 -1.7731 -0.127 -1.7731 l 0.127 -1.0122 c 0.2491 -1.2626 2.7412 -1.3914 2.8674 -0.25364 0.123 1.1394 0 1.8987 0 1.8987 l 0.7489 0.25205 c 0 0 -0.1261 0.7633 -0.7489 0.7633 -0.626 0 0 0.3745 -0.3753 0.75615 l 0.376 0.63132 z"/>
   <path d="m 1405.9836 304.70056 c 0.3752 -0.76013 1.2464 -4.0495 2.2453 -3.0365 0.9942 1.0122 1.6194 0 1.6194 0 0 0 0.499 0.50728 0.2491 1.5195 -0.2491 1.0106 -0.4998 2.0244 -1.125 2.1508 -0.6212 0.12643 -1.1211 0.50649 -1.8654 0.63291 -0.7474 0.12722 -1.1234 -1.2666 -1.1234 -1.2666 z"/>
  </g>
  <path d="m 259.88092 636.38853 c -19.58197 -0.43983 -38.16705 4.59035 -49.03949 17.62922 -1.67316 1.35736 -2.23913 3.56757 -1.41428 5.36113 0.45489 0.98913 1.3796 1.88241 2.56544 2.20365 1.02731 0.2783 2.13185 0.0548 3.19037 -0.39468 l 0 0.0328 c 15.34054 -3.46363 33.14986 -4.75209 50.15775 1.61163 a 2.105192 2.105192 0 0 0 0.0328 0 c 10.83185 3.8392 18.42518 13.99262 20.03021 23.05612 a 2.105192 2.105192 0 0 0 0 0.0986 c 1.85688 8.14829 1.61626 16.18734 -2.96013 21.7734 a 2.105192 2.105192 0 0 0 -0.19734 0.26313 c -18.60303 31.98704 -36.66514 64.40147 -55.18992 96.36878 -1.67988 -0.28104 -3.3482 -0.42615 -4.93355 -0.0986 -2.11269 0.4364 -4.11077 1.56902 -5.39402 3.45348 a 2.105192 2.105192 0 0 0 -0.0658 0.0658 c -3.50922 5.70223 -6.1591 11.67575 -9.57109 17.0043 a 2.105192 2.105192 0 0 0 -0.0658 0.0986 c -20.13638 35.71563 -41.27509 70.9862 -60.68258 107.18963 a 2.105192 2.105192 0 0 0 -0.19734 0.6907 c -0.55474 3.65974 1.45454 6.84318 4.01262 9.1764 2.49408 2.27486 5.61779 3.95856 8.4857 5.098 2.9714 1.5872 6.26113 3.96506 9.80132 5.95315 3.54019 1.9881 7.43948 3.64903 11.67607 3.28904 a 2.105192 2.105192 0 0 0 0.46046 -0.0986 c 4.02267 -1.29839 6.17219 -4.40386 7.59767 -7.30165 1.42548 -2.8978 2.38986 -5.69332 3.94684 -7.499 a 2.105192 2.105192 0 0 0 0.26312 -0.36179 c 21.1838 -37.61982 43.41662 -74.7357 63.87303 -112.84679 a 2.105192 2.105192 0 0 0 0.19734 -0.65781 c 0.57236 -3.30595 -1.30362 -5.98303 -3.35481 -8.22258 18.94041 -33.88265 38.20317 -67.5922 57.72254 -101.20356 a 2.105192 2.105192 0 0 0 0.13156 -0.23023 c 1.04289 -2.4186 2.53073 -4.68431 4.47308 -6.24916 1.94235 -1.56486 4.28561 -2.52352 7.59767 -2.33522 a 2.105192 2.105192 0 0 0 0.0658 0 c 5.74145 0.16917 12.14403 3.79209 17.49766 7.59767 1.69934 1.2364 2.04607 2.32666 2.00631 3.51927 -0.0398 1.19261 -0.69745 2.53906 -1.57874 3.51926 a 2.105192 2.105192 0 0 0 -0.0658 0.0986 c -1.82152 2.2343 -2.13598 5.22019 -1.28272 7.89368 0.83642 2.62077 2.79605 5.00866 5.59135 6.64385 l -0.0328 0.0328 c 0.049 0.0343 0.11487 0.0643 0.16445 0.0986 2.53776 1.758 5.701 3.58537 9.01195 4.50598 3.37564 0.9386 7.31235 0.85917 9.93288 -1.94053 a 2.105192 2.105192 0 0 0 0.0658 -0.0986 c 4.16059 -5.05859 5.85841 -11.01096 9.07773 -15.45846 a 2.105192 2.105192 0 0 0 0.13156 -0.23023 c 4.74849 -8.68151 10.77174 -17.10463 14.3073 -26.97007 a 2.105192 2.105192 0 0 0 0.13156 -0.78937 c -0.0539 -1.35269 -0.45382 -2.71181 -1.15116 -3.94684 a 2.105192 2.105192 0 0 0 -0.0986 -0.13156 c -0.004 -0.006 0.004 -0.0262 0 -0.0328 a 2.105192 2.105192 0 0 0 -0.23023 -0.26312 c -3.52969 -4.89587 -9.59727 -8.40973 -15.35979 -9.70265 a 2.105192 2.105192 0 0 0 -0.16445 -0.0328 c -3.04118 -0.42272 -5.75089 0.46052 -7.66345 2.0392 -1.71832 1.41836 -2.72881 3.32563 -3.28903 5.32824 -0.71317 1.07386 -2.0516 1.56429 -4.0784 1.38139 -2.05108 -0.1851 -4.50347 -1.15931 -6.28206 -2.56544 a 2.105192 2.105192 0 0 0 -0.36179 -0.23024 c -3.40394 -1.73199 -6.84681 -4.15267 -9.24218 -6.8083 -2.39538 -2.65562 -3.66185 -5.40306 -3.38771 -8.09102 a 2.105192 2.105192 0 0 0 0 -0.29601 c -0.0401 -1.21036 0.34244 -2.34444 0.95382 -3.71661 0.61138 -1.37216 1.45238 -2.9436 1.80897 -4.90066 a 2.105192 2.105192 0 0 0 -0.52624 -1.77608 c -4.96391 -5.41056 -12.19922 -6.71086 -16.77407 -10.16311 a 2.105192 2.105192 0 0 0 -0.19735 -0.0986 C 308.75112 645.60749 293.8051 641.5475 279.5824 638.55942 a 2.105192 2.105192 0 0 0 -0.0328 0 c -6.4924 -1.26733 -13.13805 -2.02408 -19.66842 -2.17076 z" color="#000" fill="#fff8eb"/>
 </g>
</svg>
