<svg xmlns="http://www.w3.org/2000/svg" width="512" height="512">
 <g transform="translate(0,-540.36217)">
  <path d="M 256 31.6875 C 132.13048 31.6875 31.6875 132.13049 31.6875 256 C 31.6875 379.86951 132.13048 480.3125 256 480.3125 C 265.89387 480.3125 275.63195 479.64845 285.1875 478.40625 L 285.1875 33.59375 C 275.63195 32.35155 265.89387 31.6875 256 31.6875 z" transform="translate(0,540.36217)" fill="#9a3034" fill-rule="evenodd"/>
  <path d="M 462.71875 168.84375 L 462.71875 343.15625 C 474.02825 316.36312 480.3125 286.90793 480.3125 256 C 480.3125 225.09207 474.02825 195.63688 462.71875 168.84375 z" transform="translate(0,540.36217)" fill="#8a704d" fill-rule="evenodd"/>
  <path d="M 404.15625 87.625 L 404.15625 424.375 C 430.1499 401.48471 450.80135 372.68814 464 340.0625 L 464 171.9375 C 450.80135 139.31187 430.1499 110.51529 404.15625 87.625 z" transform="translate(0,540.36217)" fill="#366378" fill-rule="evenodd"/>
  <path d="M 344.75 49.96875 L 344.75 462.03125 C 366.74458 452.54474 386.90853 439.65422 404.59375 424 L 404.59375 88 C 386.90853 72.34578 366.74458 59.45526 344.75 49.96875 z" transform="translate(0,540.36217)" fill="#8db173" fill-rule="evenodd"/>
  <path d="M 284.9375 33.5625 L 284.9375 478.4375 C 305.932 475.73227 326.02035 470.0959 344.78125 462 L 344.78125 50 C 326.02035 41.904104 305.932 36.26773 284.9375 33.5625 z" transform="translate(0,540.36217)" fill="#e75177" fill-rule="evenodd"/>
  <path d="M 256 6 C 117.92881 6 6 117.92881 6 256 C 6 394.07119 117.92881 506 256 506 C 394.07119 506 506 394.07119 506 256 C 506 117.92881 394.07119 6 256 6 z M 256 33.84375 C 378.68612 33.84375 478.15625 133.31389 478.15625 256 C 478.15625 378.68611 378.68612 478.15625 256 478.15625 C 133.31388 478.15625 33.84375 378.68611 33.84375 256 C 33.84375 133.31389 133.31388 33.84375 256 33.84375 z" transform="translate(0,540.36217)" fill="#282629" fill-rule="evenodd"/>
  <g transform="translate(7.0710678,0)">
   <path d="m 149.93016 797.82612 c -20.7255 11.99381 -34.66928 34.38482 -34.66928 60.05285 0 25.66803 13.94378 48.07931 34.66928 60.07313 20.72645 -11.99357 34.68954 -34.40438 34.68954 -60.07313 0 -25.66876 -13.96309 -48.05929 -34.68954 -60.05285 z" fill="#fff8eb" fill-opacity="0.251462"/>
   <g>
    <path d="m 149.93016 797.82612 c 20.7255 -11.99382 34.66926 -34.38482 34.66926 -60.05286 0 -25.66804 -13.94376 -48.07931 -34.66926 -60.07312 -20.72647 11.99356 -34.68956 34.40437 -34.68956 60.07312 0 25.66876 13.96309 48.05929 34.68956 60.05286 z" fill="#fff8eb" fill-opacity="0.251462"/>
    <path d="m 149.93016 797.82612 c 20.74969 11.95189 47.11276 12.83206 69.34193 -0.002 22.22917 -12.83403 34.66602 -36.11531 34.69022 -60.06104 -20.74996 -11.95285 -47.13983 -12.83984 -69.36963 -0.005 -22.2298 12.83438 -34.63902 36.12204 -34.66252 60.06845 z" fill="#fff8eb" fill-opacity="0.251462"/>
    <path d="m 149.93016 797.82612 c 0.0241 23.94571 12.44348 47.21686 34.67265 60.05089 22.22917 12.83402 48.6098 11.96399 69.3595 0.0125 -0.0235 -23.94643 -12.45029 -47.24423 -34.68009 -60.0786 -22.22978 -12.83438 -48.6021 -11.93725 -69.35206 0.0157 z" fill="#fff8eb" fill-opacity="0.251462"/>
    <path d="m 149.93016 797.82612 c -20.74971 -11.9519 -47.11276 -12.83207 -69.34194 0.002 -22.22917 12.83403 -34.666019 36.11532 -34.690215 60.06104 20.749961 11.95286 47.13983 12.83983 69.36963 0.005 22.22978 -12.83439 34.63901 -36.12204 34.66252 -60.06846 z" fill="#fff8eb" fill-opacity="0.251462"/>
    <path d="m 149.93016 797.82612 c -0.0241 -23.94571 -12.4435 -47.21689 -34.67267 -60.0509 -22.22917 -12.83402 -48.609786 -11.964 -69.35948 -0.0125 0.02352 23.94641 12.450284 47.24422 34.680069 60.07858 22.2298 12.83439 48.602101 11.93727 69.35208 -0.0157 z" fill="#fff8eb" fill-opacity="0.251462"/>
   </g>
  </g>
  <path d="m 363.84052,635.62537 -30.59585,41.43634 13.32693,25.0246 26.01267,7.98607 30.19287,-43.60717 c 0,0 24.94559,45.34735 5.63694,71.19537 0,0 -15.57965,23.9214 -38.17411,19.51288 l -18.64736,-2.02638 c 0,0 -22.0046,-4.37353 -38.48443,19.18804 l -171.24714,177.56882 -6.74647,6.34878 c 0,0 -6.62283,8.80953 -16.22396,-0.65675 l -17.711,-18.53648 c 0,0 -10.720841,-8.30504 -0.52255,-22.11747 L 285.6156,725.15542 c 0,0 11.59555,-9.43455 7.62198,-24.08735 l -3.1019,-20.73655 c 0,0 -6.17427,-35.03035 31.49943,-46.90438 -8.4e-4,-8.9e-4 16.41129,-7.30809 42.20541,2.19823 z" fill="#fff8eb"/>
 </g>
</svg>
