<svg xmlns="http://www.w3.org/2000/svg" width="512" height="512">
 <g transform="matrix(1 0 0 1 -10 -530.36216)">
  <path transform="matrix(3.0172415,0,0,3.0172414,-406.41383,43.258686)" d="m 305.71429 246.28572 c 0 45.76074 -37.09641 82.85714 -82.85714 82.85714 -45.76074 0 -82.85714 -37.0964 -82.85714 -82.85714 0 -45.76073 37.0964 -82.85714 82.85714 -82.85714 45.76073 0 82.85714 37.09641 82.85714 82.85714 z" fill="#ffd459" fill-rule="evenodd"/>
  <text x="-299.47046" y="619.64386" font-family="Gentium Book Basic" word-spacing="0" line-height="125%" letter-spacing="0" font-size="208.33333"><tspan x="-299.47046" y="619.64386"/>
  </text>
  <path d="m 266 536.36216 c -14.93133 0 -29.53862 1.33168 -43.75 3.84114 l -28.67838 64.87631 61.71875 0 30.07812 -68.00131 C 278.97777 536.58872 272.51619 536.36216 266 536.36216 z m 48.47006 4.72005 -28.32032 63.9974 61.75131 0 20.70312 -46.77735 c -17.10238 -7.70591 -35.24613 -13.50861 -54.13411 -17.22005 z m -126.95313 7.87761 c -30.28805 10.00772 -58.01357 25.6363 -81.9336 45.67057 l -4.62239 10.44922 61.7513 0 24.80469 -56.11979 z m 206.15235 22.46093 -14.87631 33.65886 59.34245 0 c -13.47694 -12.7998 -28.40047 -24.0957 -44.46614 -33.65886 z" opacity="0.8" fill="#282629" fill-rule="evenodd"/>
  <text y="897.75989" x="-2658.3013" font-family="Gentium Book Basic" word-spacing="0" line-height="125%" letter-spacing="0" font-size="208.33333"><tspan y="897.75989" x="-2658.3013"/>
  </text>
  <path d="m 247.14277 910.80924 c -4.28702 -4.73117 -6.43545 -9.31649 -6.43545 -13.735 0 -5.80104 -5.62347 -10.67834 -18.23254 -15.81334 -14.14473 -5.76038 -16.37457 -5.77221 -26.53839 -0.14084 -12.42836 6.8861 -15.34353 6.26903 -27.33673 -5.78636 -12.01241 -12.07469 -12.59724 -14.91799 -5.7294 -27.85482 5.59405 -10.53738 5.62585 -9.64971 -0.90958 -25.39045 -5.99104 -14.4296 -8.32158 -16.70251 -20.28036 -19.77885 -11.38046 -2.92757 -13.23799 -6.01327 -13.23799 -21.99074 0 -15.98702 2.13729 -19.59978 13.86498 -23.43668 10.29967 -3.36969 12.71033 -5.64148 17.75989 -16.73677 6.66781 -14.65095 6.8701 -19.2296 1.31762 -29.82163 -6.19896 -11.82531 -5.42648 -15.51514 5.59099 -26.70656 9.77458 -9.92884 19.7116 -11.99499 27.61913 -5.74264 6.52127 5.15622 10.37041 5.15397 23.7019 -0.0135 14.6716 -5.68734 17.70398 -8.56107 21.5236 -20.39758 4.19534 -13.0008 5.97772 -14.1018 22.82875 -14.1018 18.18362 0 19.67784 1.31626 25.28257 22.2714 0.89056 3.32967 5.37288 5.94257 22.18844 12.93438 8.1207 3.37654 11.39976 3.05029 21.14755 -2.10393 13.03062 -6.89008 17.40844 -5.78505 29.78853 7.51891 8.40801 9.03546 9.17502 17.5465 2.41017 26.74392 -4.48501 6.09776 -4.21828 10.6463 1.42735 24.34172 5.98237 14.51234 7.51881 16.04571 19.74507 19.70575 13.56812 4.06173 15.20753 7.03522 14.50004 26.29988 -0.59267 16.13749 -2.4092 19.35231 -11.78689 20.85961 -12.62466 2.02924 -15.8684 4.83392 -21.6516 18.72081 -5.94329 14.27142 -5.72266 17.57856 1.95202 29.25918 5.22449 7.95148 2.90084 14.67546 -9.0219 26.10683 -10.15308 9.7346 -16.68305 10.40236 -27.75697 2.83842 -7.17448 -4.90047 -8.39305 -4.81434 -24.27745 1.71594 -14.55532 5.98388 -16.25881 7.89125 -19.33331 21.64675 -2.31261 10.34677 -5.37132 11.97375 -22.51054 11.97375 -13.17365 0 -14.83053 -0.31853 -17.6095 -3.38542 z m 34.74199 -92.67674 c 27.80236 -13.22112 33.98531 -48.33478 12.41186 -70.48814 -22.21488 -22.81198 -60.3401 -14.41402 -71.58208 15.76762 -13.59143 36.48922 24.13683 71.38027 59.17022 54.72052 z" opacity="0.8" fill="#282629" fill-rule="evenodd" color="#000"/>
  <path d="m 270.04263 619.72295 c -20.39789 -0.45815 -39.75735 4.78162 -51.0828 18.36377 -1.74288 1.41392 -2.33243 3.71622 -1.47321 5.58451 0.47384 1.03035 1.43708 1.96085 2.67233 2.29547 1.07012 0.2899 2.22068 0.0571 3.3233 -0.41112 l 0 0.0342 c 15.97973 -3.60794 34.53111 -4.95009 52.24766 1.67879 a 2.192908 2.192908 0 0 0 0.0342 0 c 11.28317 3.99916 19.19289 14.57564 20.8648 24.01679 a 2.192908 2.192908 0 0 0 0 0.10271 c 1.93425 8.4878 1.6836 16.86181 -3.08347 22.68062 a 2.192908 2.192908 0 0 0 -0.20556 0.2741 c -19.37816 33.31983 -38.19286 67.08486 -57.4895 100.38414 -1.74988 -0.29275 -3.48771 -0.4439 -5.13912 -0.1027 -2.20072 0.45458 -4.28205 1.63439 -5.61877 3.59737 a 2.192908 2.192908 0 0 0 -0.0685 0.0685 c -3.65544 5.93983 -6.41573 12.16224 -9.96989 17.71282 a 2.192908 2.192908 0 0 0 -0.0685 0.1027 c -20.97539 37.20379 -42.99488 73.94396 -63.21102 111.65587 a 2.192908 2.192908 0 0 0 -0.20556 0.71948 c -0.57786 3.81223 1.51514 7.12831 4.17981 9.55875 2.598 2.36965 5.85187 4.1235 8.83927 5.31042 3.09521 1.65333 6.52201 4.13027 10.20971 6.2012 3.6877 2.07093 7.74946 3.80107 12.16257 3.42608 a 2.192908 2.192908 0 0 0 0.47965 -0.10271 c 4.19028 -1.35249 6.42936 -4.58735 7.91424 -7.60589 1.48487 -3.01854 2.48944 -5.93054 4.11129 -7.81145 a 2.192908 2.192908 0 0 0 0.27408 -0.37687 c 22.06646 -39.18731 45.22565 -77.84969 66.53441 -117.54874 a 2.192908 2.192908 0 0 0 0.20556 -0.68522 c 0.59621 -3.4437 -1.35793 -6.23232 -3.49459 -8.56519 19.72959 -35.29443 39.79497 -70.40854 60.12765 -105.42037 a 2.192908 2.192908 0 0 0 0.13704 -0.23983 c 1.08634 -2.51937 2.63617 -4.87949 4.65946 -6.50954 2.02328 -1.63006 4.46417 -2.62867 7.91424 -2.43252 a 2.192908 2.192908 0 0 0 0.0685 0 c 5.98067 0.17622 12.65003 3.95009 18.22673 7.91424 1.77014 1.28792 2.13132 2.4236 2.0899 3.66591 -0.0415 1.2423 -0.72651 2.64485 -1.64452 3.66589 a 2.192908 2.192908 0 0 0 -0.0685 0.10271 c -1.89742 2.3274 -2.22498 5.4377 -1.33617 8.22258 0.87127 2.72997 2.91256 5.21736 5.82433 6.92068 l -0.0342 0.0342 c 0.051 0.0357 0.11966 0.067 0.1713 0.10271 2.6435 1.83125 5.93854 3.73476 9.38745 4.69373 3.51629 0.9777 7.61703 0.89496 10.34675 -2.02139 a 2.192908 2.192908 0 0 0 0.0685 -0.10271 c 4.33395 -5.26936 6.10251 -11.46975 9.45597 -16.10256 a 2.192908 2.192908 0 0 0 0.13704 -0.23982 c 4.94635 -9.04324 11.22057 -17.81733 14.90344 -28.09383 a 2.192908 2.192908 0 0 0 0.13704 -0.82226 c -0.0561 -1.40905 -0.47273 -2.8248 -1.19912 -4.11129 a 2.192908 2.192908 0 0 0 -0.10271 -0.13704 c -0.004 -0.006 0.004 -0.0273 0 -0.0342 a 2.192908 2.192908 0 0 0 -0.23982 -0.27408 c -3.67676 -5.09987 -9.99716 -8.76014 -15.99979 -10.10693 a 2.192908 2.192908 0 0 0 -0.1713 -0.0342 c -3.16789 -0.44033 -5.99051 0.47971 -7.98276 2.12417 -1.78991 1.47746 -2.84251 3.4642 -3.42607 5.55025 -0.74289 1.11861 -2.13708 1.62947 -4.24833 1.43895 -2.13655 -0.19281 -4.69112 -1.20762 -6.54382 -2.67233 a 2.192908 2.192908 0 0 0 -0.37686 -0.23984 c -3.54577 -1.80415 -7.1321 -4.3257 -9.62727 -7.09198 -2.49519 -2.76627 -3.81443 -5.62818 -3.52887 -8.42814 a 2.192908 2.192908 0 0 0 0 -0.30835 c -0.0418 -1.26079 0.35671 -2.44212 0.99357 -3.87147 0.63685 -1.42933 1.51289 -3.06625 1.88434 -5.10485 a 2.192908 2.192908 0 0 0 -0.54817 -1.85008 c -5.17074 -5.636 -12.70752 -6.99048 -17.47299 -10.58658 a 2.192908 2.192908 0 0 0 -0.20557 -0.10271 C 320.94909 629.32604 305.38032 625.09688 290.565 621.9843 a 2.192908 2.192908 0 0 0 -0.0342 0 c -6.76292 -1.32014 -13.68547 -2.10842 -20.48794 -2.26121 z" color="#000" fill="#fff8eb"/>
  <text y="670.47504" x="-2370.0864" font-family="Gentium Book Basic" word-spacing="0" line-height="125%" letter-spacing="0" font-size="208.33333"><tspan y="670.47504" x="-2370.0864"/>
  </text>
 </g>
</svg>
