<svg xmlns="http://www.w3.org/2000/svg" width="512" height="512">
 <path transform="matrix(3.0172416,0,0,3.0172416,-416.41385,-487.10351)" d="m 305.71429 246.28572 a 82.85714 82.85714 0 1 1 -165.71428 0 82.85714 82.85714 0 1 1 165.71428 0 z" fill="#999647" fill-rule="evenodd"/>
 <text x="-322.7572" y="497.36975" font-family="Gentium Book Basic" word-spacing="0" line-height="125%" letter-spacing="0" font-size="208.33334"><tspan x="-322.7572" y="497.36975"/>
 </text>
 <text y="775.48584" x="-2681.5884" font-family="Gentium Book Basic" word-spacing="0" line-height="125%" letter-spacing="0" font-size="208.33334"><tspan y="775.48584" x="-2681.5884"/>
 </text>
 <text y="548.20093" x="-2393.3733" font-family="Gentium Book Basic" word-spacing="0" line-height="125%" letter-spacing="0" font-size="208.33334"><tspan y="548.20093" x="-2393.3733"/>
 </text>
 <text y="291.30109" x="1801.2258" font-family="Gentium Book Basic" word-spacing="0" line-height="125%" letter-spacing="0" font-size="208.33334"><tspan y="291.30109" x="1801.2258"/>
 </text>
 <text x="-326.70465" y="436.3353" font-family="Gentium Book Basic" word-spacing="0" line-height="125%" letter-spacing="0" font-size="208.33334"><tspan x="-326.70465" y="436.3353"/>
 </text>
 <text y="714.45135" x="-2685.5356" font-family="Gentium Book Basic" word-spacing="0" line-height="125%" letter-spacing="0" font-size="208.33334"><tspan y="714.45135" x="-2685.5356"/>
 </text>
 <text y="487.16647" x="-2397.3203" font-family="Gentium Book Basic" word-spacing="0" line-height="125%" letter-spacing="0" font-size="208.33334"><tspan y="487.16647" x="-2397.3203"/>
 </text>
 <rect width="114.95013" height="183.93883" x="380.77682" y="-70.871124" transform="matrix(0.8660254,0.5,-0.5,0.8660254,0,0)" fill="#fff8eb" fill-rule="evenodd" rx="50.741737"/>
 <rect ry="15.612458" y="-47.23771" x="422.79736" height="56.59517" width="30.909128" transform="matrix(0.8660254,0.5,-0.5,0.8660254,0,0)" fill="#707175" fill-rule="evenodd" rx="15.454564"/>
 <path d="m 298.4166 83.943319 -57.20316 215.25986 1.78343 18.27127 10.63564 -15.04026 0.0562 0.0147 57.20316 -215.25987 -12.47526 -3.245643 z" fill="#fff8eb" fill-rule="evenodd"/>
 <path d="m 116.83324 347.78913 284.07893 -0.0359 37.98225 71.8182 -360.13474 0 z" fill="#fff8eb" fill-rule="evenodd"/>
 <path d="m 203.79574 212.38724 c -4.20682 -2.17187 -9.39043 -0.52214 -11.55738 3.67514 -2.16939 4.20206 -0.51122 9.38098 3.69561 11.55285 4.19969 2.16817 9.37252 0.51591 11.54192 -3.68615 2.16933 -4.19607 0.51953 -9.37366 -3.68015 -11.54184 z m 18.12795 -6.25541 c -4.20683 -2.17187 -9.39043 -0.52215 -11.55738 3.67514 -2.16941 4.20206 -0.51121 9.38098 3.69559 11.55285 4.19969 2.16817 9.37255 0.51591 11.54195 -3.68614 2.16931 -4.19607 0.51951 -9.37368 -3.68016 -11.54185 z m -1.64984 -19.01188 c -4.20683 -2.17186 -9.39044 -0.52215 -11.55737 3.67515 -2.16943 4.20205 -0.51124 9.38098 3.69558 11.55284 4.19969 2.16817 9.37254 0.51592 11.54194 -3.68614 2.16932 -4.19607 0.51951 -9.37368 -3.68015 -11.54185 z m -18.29574 6.56689 c -4.20683 -2.17185 -9.39045 -0.52214 -11.5574 3.67516 -2.16939 4.20206 -0.51121 9.38098 3.69561 11.55283 4.19968 2.16818 9.37253 0.51592 11.54193 -3.68613 2.16932 -4.19606 0.51952 -9.37368 -3.68014 -11.54186 z" fill="#707175"/>
 <path d="m 154.47959 163.39424 c -8.62651 -4.45361 -19.25604 -1.0707 -23.69956 7.53628 -4.44859 8.61675 -1.04832 19.23667 7.5782 23.69029 8.61186 4.44606 19.21931 1.05791 23.6679 -7.55883 4.44842 -8.60445 1.06534 -19.22168 -7.54654 -23.66774 z m 69.46272 9.94857 -0.6258 -0.32309 -0.71391 -0.0179 c -12.65321 -0.21736 -22.04301 -2.14306 -30.26206 -6.15256 1.50354 -3.57021 4.87122 -10.19939 10.14188 -12.90225 2.61267 -1.33937 5.34663 -1.50578 8.35174 -0.52776 1.36157 0.44729 2.74471 0.90935 4.1235 1.37277 15.3676 5.15432 32.78184 10.9854 44.01306 -0.51073 l -4.35772 -4.25131 c -8.55844 8.76696 -23.37979 3.79968 -37.72277 -1.00462 -1.39898 -0.47388 -2.79088 -0.93312 -4.1611 -1.38488 -4.5733 -1.49906 -8.96668 -1.19591 -13.0408 0.90839 -6.64148 3.41959 -10.73509 10.84645 -12.69132 15.30063 -6.893 -4.40605 -13.45609 -10.75287 -21.19668 -20.44333 l -0.39841 -0.50883 -0.58254 -0.30076 c -28.46342 -14.69489 -75.03655 24.95265 -92.53787 58.8521 -4.18364 8.10357 -6.367721 15.24885 -6.494545 21.23919 -0.157749 7.1468 2.702958 12.44419 8.245684 15.30574 12.639839 6.52558 24.19882 3.13186 35.37618 -0.15939 12.85432 -3.77325 26.14004 -7.68171 43.5757 1.31982 14.35282 7.40994 20.88672 21.85021 27.19469 35.8013 5.25363 11.63529 10.22246 22.61951 19.4911 27.40465 5.10726 2.63673 10.45518 2.1543 15.49569 -1.38324 4.18362 -2.93897 8.14029 -7.97112 11.75073 -14.9644 15.30823 -29.65158 23.44148 -99.03178 -2.97443 -112.66956 z m -85.12363 20.26002 c -8.07184 -4.16725 -11.24972 -14.12094 -7.08842 -22.18127 4.16131 -8.0603 14.10904 -11.22666 22.18378 -7.0579 8.05454 4.15832 11.234 14.10188 7.07269 22.16219 -4.15842 8.0618 -14.1135 11.23531 -22.16805 7.07698 z m 76.43576 -5.86566 c 4.1533 -0.36869 8.0533 2.90855 8.42395 7.02266 0.19113 2.0564 -0.43874 4.0688 -1.75988 5.65857 -1.32991 1.59255 -3.19762 2.57143 -5.26268 2.75809 -1.47067 0.13196 -2.94027 -0.15559 -4.24377 -0.82855 -2.36762 -1.22234 -3.92863 -3.53306 -4.17588 -6.18823 -0.37901 -4.25357 2.76889 -8.03041 7.01826 -8.42254 z m -25.14332 14.67944 c -0.38179 -4.26232 2.76321 -8.04065 7.00814 -8.42413 4.15197 -0.3803 8.05636 2.89553 8.42403 7.0154 0.18815 2.06218 -0.43596 4.07756 -1.76584 5.67011 -1.32405 1.58827 -3.18887 2.56864 -5.24957 2.75391 -1.47644 0.12897 -2.94463 -0.1542 -4.25101 -0.82865 -2.36325 -1.22372 -3.92277 -3.53733 -4.16575 -6.18664 z m 10.07386 26.02728 c -1.46629 0.13054 -2.94175 -0.15273 -4.25101 -0.82866 -2.37341 -1.22531 -3.92992 -3.54469 -4.16855 -6.19539 -0.19113 -2.05641 0.43436 -4.06741 1.76137 -5.66147 1.32405 -1.58826 3.18889 -2.56863 5.25253 -2.75967 4.14612 -0.37603 8.04623 2.89392 8.42831 7.02125 0.37742 4.26371 -2.77188 8.0362 -7.02265 8.42394 z m 23.38773 -9.01499 c -1.32687 1.58681 -3.19176 2.56714 -5.2583 2.75669 -1.46777 0.13344 -2.94324 -0.14983 -4.25251 -0.82577 -2.36761 -1.22234 -3.92277 -3.53733 -4.17003 -6.1925 -0.19104 -2.06367 0.43586 -4.07031 1.76286 -5.66436 1.32689 -1.5868 3.19324 -2.57003 5.26267 -2.75809 4.14314 -0.37027 8.03321 2.89086 8.41817 7.01967 0.19104 2.06368 -0.43883 4.07607 -1.76286 5.66436 z" fill="#fff8eb"/>
 <path fill="#707175" fill-rule="evenodd" d="M 382.84,395.921 H390.187 V402.954 H382.84 z"/>
 <path fill="#707175" fill-rule="evenodd" d="M 374.715,395.921 H382.062 V402.954 H374.715 z"/>
 <path fill="#707175" fill-rule="evenodd" d="M 366.59,395.921 H373.937 V402.954 H366.59 z"/>
 <path d="m 374.71503 387.74589 7.34697 0 0 7.03263 -7.34697 0 z" fill="#707175" fill-rule="evenodd"/>
</svg>
