<svg xmlns="http://www.w3.org/2000/svg" xmlns:xlink="http://www.w3.org/1999/xlink" width="512" height="512">
 <defs>
  <linearGradient id="0">
   <stop stop-color="#309bca"/>
   <stop offset="1" stop-color="#0078ad"/>
  </linearGradient>
  <radialGradient xlink:href="#0" id="1" cx="202.85715" cy="-316.57144" r="360" gradientUnits="userSpaceOnUse"/>
 </defs>
 <path d="m 562.85715 -316.57144 c 0 198.82251 -161.17749 360 -360 360 -198.82251 0 -360 -161.17749 -360 -360 0 -198.82251 161.17749 -360 360 -360 198.82251 0 360 161.17749 360 360 z" fill-rule="evenodd" fill="url(#1)" transform="matrix(0.69444444 0 0 0.69444444 115.12698 475.84132)"/>
 <text font-size="208.33334" letter-spacing="0" line-height="125%" word-spacing="0" y="340.60153" x="-1038.4531" font-family="Gentium Book Basic"><tspan y="340.60153" x="-1038.4531"/>
 </text>
 <path d="m 249.0134 47.860367 c -13.78472 1.091188 -18.61495 6.948039 -24.19177 22.960937 -5.56257 15.971648 -8.89974 19.757492 -21.54687 24.44906 -26.18856 9.714936 -33.94065 11.472666 -38.41924 8.663696 -28.18567 -17.677997 -31.21231 -17.607533 -51.63295 1.38857 -18.92421 17.60396 -19.781951 20.71855 -10.91182 39.70154 8.07592 17.28304 7.63754 23.66491 -2.897622 45.37901 -9.571372 19.73239 -13.854661 23.75568 -26.564799 24.77777 -15.412036 1.23932 -24.439602 13.94924 -25.04416 35.31088 -0.681464 24.07798 2.30522 29.04957 21.620467 35.85376 17.300903 6.09448 21.880027 11.46255 29.697481 34.88166 5.920233 17.73544 5.562583 22.77776 -2.483958 37.32198 -9.162128 16.56052 -7.768395 22.88448 8.932901 40.83826 16.69134 17.94313 21.97332 19.4152 37.81227 10.81407 16.64377 -9.03834 21.62691 -8.91431 43.42928 1.0317 23.78349 10.84977 22.83321 9.92314 27.55919 27.60096 5.80209 21.70303 9.44508 24.29438 35.54953 25.30539 26.06266 1.00944 30.00234 -1.35092 36.76589 -22.06786 5.53116 -16.94216 8.02158 -19.29287 29.92415 -27.6006 19.52473 -7.40569 30.96101 -7.77685 37.02128 -1.26212 4.61607 4.96204 11.79919 7.83228 21.55625 8.66693 6.32454 0.54097 8.5055 -0.83336 23.29987 -14.59569 19.24529 -17.9041 20.96599 -22.90695 12.75392 -36.9425 -10.91741 -18.65966 -10.96218 -22.5975 -0.86737 -44.5232 11.0163 -23.92782 12.28463 -25.26114 25.46123 -27.25291 20.33811 -3.07418 26.95076 -10.6549 28.18335 -32.19379 1.44741 -25.29312 -2.92918 -35.28066 -17.10304 -38.75248 -20.82162 -5.1 -24.51868 -8.56888 -32.75328 -30.80497 -8.01283 -21.63688 -7.33167 -28.20372 4.72614 -43.67127 8.95688 -11.4895 7.65128 -16.97168 -8.54184 -35.71368 -19.33073 -22.373757 -24.27152 -24.02523 -43.75189 -14.41226 -17.55398 8.6622 -20.91373 8.58701 -42.79285 -1.46103 C 303.15561 92.06978 298.13411 87.22024 296.80067 75.6869 294.78942 58.29079 285.02781 49.541259 266.14628 48.17794 259.19589 47.676089 253.60829 47.49666 249.0134 47.860367 z m -2.75432 64.47534 c 6.90812 -0.45252 13.77266 -0.42166 20.49298 0.0421 1.07942 0.89713 0.94642 2.18057 -1.29115 3.96111 1.35642 5.52279 -5.66765 4.41042 -12.66418 7.03202 7.57449 2.53929 18.79929 20.97145 4.62499 8.88991 -7.05721 3.27084 -2.31471 7.47948 5.36906 7.56749 -7.37524 7.34568 -18.08538 12.41642 -23.9122 19.6199 -11.45424 2.09565 -3.98095 27.49723 -14.86623 19.9134 -6.57199 -3.97388 -17.55981 -20.82862 -9.36973 -25.52508 -7.60203 -3.49392 4.39674 -6.86009 -1.82167 -10.90108 -10.63202 -4.25596 3.96951 -0.70139 -1.21986 -6.78707 -7.37924 0.58722 -6.25042 -7.32716 -8.26851 -14.6322 13.46425 -5.01997 27.85083 -8.19293 42.92646 -9.18047 z m -72.30644 23.95289 c 4.22125 3.05978 7.91137 7.56569 10.92832 9.58464 -5.24104 10.05044 18.36435 9.63325 7.93909 19.74862 -3.42603 -2.534 -12.16408 -8.4746 -3.69378 2.78941 9.01172 9.30375 -7.61338 2.43847 -3.03861 5.18313 4.30337 11.21449 -10.09509 -8.56324 -17.2574 -3.90902 4.23294 -3.53865 12.89735 -13.57516 2.33353 -18.48328 -2.6482 -5.44569 -5.5296 -6.12743 -9.42165 -6.02831 3.92446 -3.14964 7.97199 -6.13132 12.2105 -8.88519 z m 34.10541 5.79591 c 11.2908 4.6873 -5.45486 4.92415 0 0 z m 130.43751 -5.60922 c 26.25601 17.11699 47.00619 42.1768 58.55048 72.08915 -11.8886 4.10474 -0.16003 10.43445 -1.02988 19.78238 3.92682 3.59242 6.38591 3.29313 7.45302 1.33929 1.51308 6.726 2.53647 13.61594 3.12634 20.67306 -0.90352 -0.27989 -1.80958 -0.55522 -2.77053 -0.87071 -13.20762 -12.54131 -5.18721 5.80279 3.11453 5.27849 0.24645 4.50075 0.24869 8.97167 0.10243 13.39501 -2.34511 1.55468 -4.66267 2.84846 -6.29747 3.62447 -14.07601 12.20627 -15.67882 -9.57875 -24.16818 -16.41501 -6.53212 -10.4027 -7.3011 -1.90891 -1.70972 3.49012 3.77356 11.62235 15.6009 22.69513 27.9023 20.15769 -4.68215 15.6395 -26.90129 25.35076 -15.42633 43.48613 -12.34606 9.99321 -7.1132 26.24874 -22.2148 36.23314 -14.21649 10.24276 -17.69224 -4.82164 -22.33974 -14.70729 -8.40886 -10.28454 -2.40593 -21.40267 -6.28125 -32.48363 -8.68106 -4.75239 -2.07661 -11.06682 -6.12421 -15.7141 -13.30834 -10.90989 -33.91279 9.37831 -44.01083 -9.90959 -9.66875 -12.82882 1.01212 -28.28852 8.38973 -39.31483 6.89909 -9.02697 20.67712 -9.79574 31.76169 -11.38422 3.33423 2.01432 3.4397 10.9427 12.20286 10.44256 9.2104 -3.66635 20.33323 0.32258 31.12641 -2.48196 11.82697 -14.36004 -14.28216 -4.46493 -14.22643 -15.12797 -7.09178 -9.64062 -3.05057 12.91751 -10.1075 2.10193 0.64624 -5.37081 -18.25648 -20.00925 -13.26227 -9.70865 7.97206 2.8714 10.66892 11.35057 1.71931 13.56598 7.07475 -2.27706 -8.14366 -19.5329 -17.2261 -11.88564 -4.8481 4.25996 -16.06313 25.40591 -23.06726 10.53778 -8.02916 -14.97387 17.46976 -4.565 11.39657 -17.08334 -12.34781 -7.87047 8.4144 -7.92129 10.37779 -16.57352 11.20681 -1.34469 2.08093 -10.93381 8.32478 -14.94384 -1.44006 6.941 4.36588 12.84284 12.32323 8.05341 9.73953 2.93673 4.95998 -12.13959 12.51153 -8.51725 -7.58199 -8.27472 17.20412 -10.74314 2.7578 -10.31498 -15.74335 4.08833 -3.26616 -15.29532 -4.58978 -20.18957 -13.29364 7.27672 -5.62018 23.15962 -13.01504 33.80304 -9.5026 8.0844 -4.22235 -1.21587 -8.02405 -6.67367 -12.37287 7.56833 -14.17328 -13.47192 -3.02518 -19.12907 4.79928 -8.43372 8.75453 -17.94996 15.77585 -24.62482 z M 156.80438 149.263 c 7.79558 5.66129 1.60485 14.47944 -6.51614 18.03734 -0.61803 -0.90638 -5.84948 9.93937 -10.34986 17.84544 -2.40748 16.12746 24.22861 11.0605 26.23048 25.91584 4.47137 -6.99676 5.62419 -18.82736 2.6506 -28.8599 -1.15784 -11.35377 18.57341 0.66189 18.26779 7.49785 8.1938 -11.599 8.80106 8.25949 17.83724 11.07032 12.22785 12.27302 -15.2647 9.67052 -20.03226 17.98127 2.77035 -1.46106 11.40406 -4.60862 12.13637 4.35525 9.91241 -5.21025 1.84978 5.21907 -3.88474 5.79236 2.94908 -6.70121 -6.55048 -1.86486 -7.881 3.11905 -7.43479 10.73187 -21.33479 22.82762 -15.41882 36.84017 -4.43598 -12.7662 -25.39151 -10.85327 -30.16092 0.31432 -2.76608 13.07033 11.13463 14.19626 17.74259 7.08924 -3.36485 8.55004 5.11432 8.05613 7.79219 13.27891 5.017 16.82843 20.35199 -4.10805 31.90359 2.61737 8.71804 3.89969 28.69735 5.74471 27.29237 16.76418 -0.96501 1.29413 12.80124 1.26326 18.27619 3.39925 19.82543 2.98904 2.01764 21.03037 1.27149 32.09188 -12.02497 4.39018 -13.46639 15.29025 -20.13941 24.79989 -12.01096 -0.83025 -1.47459 10.87527 -13.47444 11.57076 -6.11633 6.26286 -7.2436 14.63663 -8.61731 23.15907 -4.22376 -1.63359 -8.33713 -3.45215 -12.37405 -5.44725 1.94863 -12.38474 -0.19197 -26.14014 3.02647 -39.18501 5.36784 -14.62413 -6.7339 -20.51573 -14.32674 -30.18448 -13.92899 -9.12971 2.40748 -20.51408 -2.58142 -30.95387 -7.44306 2.60053 -15.19433 -6.51141 -23.99702 -8.72855 -15.97479 -2.1373 -27.3474 -10.0825 -36.22134 -22.88011 -9.85094 -13.42925 -3.34796 1.92967 2.27479 6.82874 -0.0955 4.63467 -7.98128 -6.55912 -12.37982 -13.14456 0.69208 -39.97776 17.09412 -76.59069 43.61996 -103.42544 1.19016 2.95485 3.86964 -1.0308 5.20719 -5.04829 0.93142 -0.85638 1.87292 -1.67777 2.82598 -2.51104 z m 12.29096 4.179 c 7.38253 2.32407 -4.37635 7.89149 0 0 z m 107.23041 1.94727 c 3.94085 1.25131 6.22784 6.05384 1.48644 8.32021 -8.51369 9.11674 -13.44542 -2.14605 -14.58527 -3.69641 -0.22799 -5.36321 7.80253 1.98026 13.0988 -4.62381 z m -121.17777 11.70348 2.32585 0.84447 c 16.65709 7.70863 -12.55838 8.82863 -2.32585 -0.84447 z m 144.22707 15.52834 c -0.84815 1.05706 5.49197 7.14547 6.6831 12.41014 12.71707 5.63187 -9.73904 15.77411 -5.38636 7.38593 3.5697 -5.03231 -8.48587 -14.44891 -1.29674 -19.79607 z m -4.49612 9.98582 c 1.88768 -0.15136 1.79013 2.87967 1.6278 3.71452 -2.91689 14.4076 -12.29062 -0.0924 -1.6278 -3.71452 z m -86.1927 16.5557 c 0.31007 3.68417 4.73237 5.92183 6.50973 9.7633 -7.20751 3.42368 -16.17903 -2.57007 -6.50973 -9.7633 z m 165.54641 0.28707 c -1.54474 0.58487 -3.05114 1.31647 -4.71804 1.5273 5.25628 7.87483 -4.41397 -0.30229 -7.73973 1.89147 -10.261 10.97513 2.82397 11.30694 11.43896 9.77272 16.62244 2.16816 0.75399 -6.75325 1.01878 -13.19157 z m 24.36712 3.38793 c 0.64362 1.82928 1.2272 3.66833 1.80214 5.5306 -4.12116 -1.7029 -3.30021 -3.67899 -1.80214 -5.5306 z m -73.58486 13.73618 c 4.82481 6.54854 -6.07639 4.28339 0 0 z m -156.55782 46.4731 3.35187 0.44497 2.19751 0.57598 c 14.90528 4.45801 -6.39529 2.42638 -5.54938 -1.02095 z m 16.63637 3.72821 c 13.29814 0.97716 -5.99242 6.57893 0 0 z" fill="#fff8eb" fill-opacity="0.968627"/>
</svg>
