<?xml version="1.0" encoding="UTF-8" standalone="no"?>
<!-- Created with Inkscape (http://www.inkscape.org/) -->

<svg
   xmlns:dc="http://purl.org/dc/elements/1.1/"
   xmlns:cc="http://creativecommons.org/ns#"
   xmlns:rdf="http://www.w3.org/1999/02/22-rdf-syntax-ns#"
   xmlns:svg="http://www.w3.org/2000/svg"
   xmlns="http://www.w3.org/2000/svg"
   xmlns:xlink="http://www.w3.org/1999/xlink"
   xmlns:sodipodi="http://sodipodi.sourceforge.net/DTD/sodipodi-0.dtd"
   xmlns:inkscape="http://www.inkscape.org/namespaces/inkscape"
   width="48px"
   height="48px"
   id="svg4198"
   sodipodi:version="0.32"
   inkscape:version="0.48.1 "
   sodipodi:docname="checklist.svg"
   inkscape:output_extension="org.inkscape.output.svg.inkscape"
   version="1.1"
   inkscape:export-filename="C:\Users\Adrie\Documents\BrouwHulp Amarillo\Artwork\checklist32.png"
   inkscape:export-xdpi="60.711472"
   inkscape:export-ydpi="60.711472">
  <defs
     id="defs4200">
    <inkscape:perspective
       sodipodi:type="inkscape:persp3d"
       inkscape:vp_x="0 : 24 : 1"
       inkscape:vp_y="0 : 1000 : 0"
       inkscape:vp_z="48 : 24 : 1"
       inkscape:persp3d-origin="24 : 16 : 1"
       id="perspective37" />
    <radialGradient
       inkscape:collect="always"
       xlink:href="#linearGradient5060"
       id="radialGradient5031"
       gradientUnits="userSpaceOnUse"
       gradientTransform="matrix(-2.774389,0,0,1.969706,112.7623,-872.8854)"
       cx="605.71429"
       cy="486.64789"
       fx="605.71429"
       fy="486.64789"
       r="117.14286" />
    <linearGradient
       inkscape:collect="always"
       id="linearGradient5060">
      <stop
         style="stop-color:black;stop-opacity:1;"
         offset="0"
         id="stop5062" />
      <stop
         style="stop-color:black;stop-opacity:0;"
         offset="1"
         id="stop5064" />
    </linearGradient>
    <radialGradient
       inkscape:collect="always"
       xlink:href="#linearGradient5060"
       id="radialGradient5029"
       gradientUnits="userSpaceOnUse"
       gradientTransform="matrix(2.774389,0,0,1.969706,-1891.633,-872.8854)"
       cx="605.71429"
       cy="486.64789"
       fx="605.71429"
       fy="486.64789"
       r="117.14286" />
    <linearGradient
       id="linearGradient5048">
      <stop
         style="stop-color:black;stop-opacity:0;"
         offset="0"
         id="stop5050" />
      <stop
         id="stop5056"
         offset="0.5"
         style="stop-color:black;stop-opacity:1;" />
      <stop
         style="stop-color:black;stop-opacity:0;"
         offset="1"
         id="stop5052" />
    </linearGradient>
    <linearGradient
       inkscape:collect="always"
       xlink:href="#linearGradient5048"
       id="linearGradient5027"
       gradientUnits="userSpaceOnUse"
       gradientTransform="matrix(2.774389,0,0,1.969706,-1892.179,-872.8854)"
       x1="302.85715"
       y1="366.64789"
       x2="302.85715"
       y2="609.50507" />
    <linearGradient
       inkscape:collect="always"
       id="linearGradient3558">
      <stop
         style="stop-color:#000000;stop-opacity:1;"
         offset="0"
         id="stop3560" />
      <stop
         style="stop-color:#000000;stop-opacity:0;"
         offset="1"
         id="stop3562" />
    </linearGradient>
    <radialGradient
       inkscape:collect="always"
       xlink:href="#linearGradient3558"
       id="radialGradient3564"
       cx="22.571428"
       cy="30.857143"
       fx="22.571428"
       fy="30.857143"
       r="15.571428"
       gradientTransform="matrix(1.000000,0.000000,0.000000,0.651376,4.638648e-15,10.75754)"
       gradientUnits="userSpaceOnUse" />
    <linearGradient
       id="linearGradient15218">
      <stop
         style="stop-color:#f8f8f7;stop-opacity:1;"
         offset="0"
         id="stop15220" />
      <stop
         id="stop2269"
         offset="0.59928656"
         style="stop-color:#e8e8e8;stop-opacity:1;" />
      <stop
         style="stop-color:#e2e2de;stop-opacity:1;"
         offset="1"
         id="stop15222" />
    </linearGradient>
    <linearGradient
       inkscape:collect="always"
       xlink:href="#linearGradient15218"
       id="linearGradient2240"
       gradientUnits="userSpaceOnUse"
       gradientTransform="matrix(1.342704,0.000000,0.000000,1.235378,-8.219611,-6.577189)"
       x1="20.794008"
       y1="18.378813"
       x2="35.596001"
       y2="39.60046" />
  </defs>
  <sodipodi:namedview
     id="base"
     pagecolor="#ffffff"
     bordercolor="#bebebe"
     borderopacity="1.0000000"
     inkscape:pageopacity="0.0"
     inkscape:pageshadow="2"
     inkscape:zoom="11.313708"
     inkscape:cx="10.169487"
     inkscape:cy="27.632093"
     inkscape:current-layer="layer1"
     showgrid="false"
     inkscape:grid-bbox="true"
     inkscape:document-units="px"
     inkscape:window-width="1600"
     inkscape:window-height="838"
     inkscape:window-x="0"
     inkscape:window-y="30"
     inkscape:showpageshadow="false"
     inkscape:window-maximized="1" />
  <metadata
     id="metadata4203">
    <rdf:RDF>
      <cc:Work
         rdf:about="">
        <dc:format>image/svg+xml</dc:format>
        <dc:type
           rdf:resource="http://purl.org/dc/dcmitype/StillImage" />
        <dc:title></dc:title>
        <dc:date>2005-10-29</dc:date>
        <dc:creator>
          <cc:Agent>
            <dc:title>Andreas Nilsson</dc:title>
          </cc:Agent>
        </dc:creator>
        <dc:subject>
          <rdf:Bag>
            <rdf:li>justify</rdf:li>
            <rdf:li>left</rdf:li>
          </rdf:Bag>
        </dc:subject>
        <cc:license
           rdf:resource="http://creativecommons.org/licenses/publicdomain/" />
      </cc:Work>
      <cc:License
         rdf:about="http://creativecommons.org/licenses/publicdomain/">
        <cc:permits
           rdf:resource="http://creativecommons.org/ns#Reproduction" />
        <cc:permits
           rdf:resource="http://creativecommons.org/ns#Distribution" />
        <cc:permits
           rdf:resource="http://creativecommons.org/ns#DerivativeWorks" />
      </cc:License>
    </rdf:RDF>
  </metadata>
  <g
     id="layer1"
     inkscape:label="Layer 1"
     inkscape:groupmode="layer">
    <g
       style="display:inline"
       id="g5022"
       transform="matrix(2.330573e-2,0,0,1.227058e-2,44.47891,44.41691)">
      <rect
         y="-150.69685"
         x="-1559.2523"
         height="478.35718"
         width="1339.6335"
         id="rect4173"
         style="opacity:0.40206185;color:black;fill:url(#linearGradient5027);fill-opacity:1;fill-rule:nonzero;stroke:none;stroke-width:1;stroke-linecap:round;stroke-linejoin:miter;marker:none;marker-start:none;marker-mid:none;marker-end:none;stroke-miterlimit:4;stroke-dasharray:none;stroke-dashoffset:0;stroke-opacity:1;visibility:visible;display:inline;overflow:visible" />
      <path
         sodipodi:nodetypes="cccc"
         id="path5058"
         d="M -219.61876,-150.68038 C -219.61876,-150.68038 -219.61876,327.65041 -219.61876,327.65041 C -76.744594,328.55086 125.78146,220.48075 125.78138,88.454235 C 125.78138,-43.572302 -33.655436,-150.68036 -219.61876,-150.68038 z "
         style="opacity:0.40206185;color:black;fill:url(#radialGradient5029);fill-opacity:1;fill-rule:nonzero;stroke:none;stroke-width:1;stroke-linecap:round;stroke-linejoin:miter;marker:none;marker-start:none;marker-mid:none;marker-end:none;stroke-miterlimit:4;stroke-dasharray:none;stroke-dashoffset:0;stroke-opacity:1;visibility:visible;display:inline;overflow:visible" />
      <path
         style="opacity:0.40206185;color:black;fill:url(#radialGradient5031);fill-opacity:1;fill-rule:nonzero;stroke:none;stroke-width:1;stroke-linecap:round;stroke-linejoin:miter;marker:none;marker-start:none;marker-mid:none;marker-end:none;stroke-miterlimit:4;stroke-dasharray:none;stroke-dashoffset:0;stroke-opacity:1;visibility:visible;display:inline;overflow:visible"
         d="M -1559.2523,-150.68038 C -1559.2523,-150.68038 -1559.2523,327.65041 -1559.2523,327.65041 C -1702.1265,328.55086 -1904.6525,220.48075 -1904.6525,88.454235 C -1904.6525,-43.572302 -1745.2157,-150.68036 -1559.2523,-150.68038 z "
         id="path5018"
         sodipodi:nodetypes="cccc" />
    </g>
    <rect
       style="opacity:1;fill:url(#linearGradient2240);fill-opacity:1;fill-rule:evenodd;stroke:#888a85;stroke-width:0.99999976;stroke-linecap:butt;stroke-linejoin:miter;stroke-miterlimit:4;stroke-dasharray:none;stroke-dashoffset:0;stroke-opacity:1"
       id="rect4238"
       width="38.996792"
       height="45.003101"
       x="4.5016017"
       y="1.4968988"
       rx="0.56650788"
       ry="0.56650823" />
    <rect
       style="color:#000000;fill:#999999;fill-opacity:1;fill-rule:evenodd;stroke:none;stroke-width:1;marker:none;visibility:visible;display:inline;overflow:visible"
       id="rect4248"
       width="19.575378"
       height="2"
       x="16.424622"
       y="10" />
    <rect
       y="16"
       x="16.424622"
       height="2"
       width="18.125351"
       id="rect4250"
       style="color:#000000;fill:#999999;fill-opacity:1;fill-rule:evenodd;stroke:none;stroke-width:1;marker:none;visibility:visible;display:inline;overflow:visible" />
    <rect
       style="color:#000000;fill:#999999;fill-opacity:1;fill-rule:evenodd;stroke:none;stroke-width:1;marker:none;visibility:visible;display:inline;overflow:visible"
       id="rect4252"
       width="16.654682"
       height="2"
       x="16.424622"
       y="22" />
    <rect
       y="28"
       x="16.424622"
       height="2"
       width="19.575378"
       id="rect4254"
       style="color:#000000;fill:#999999;fill-opacity:1;fill-rule:evenodd;stroke:none;stroke-width:1;marker:none;visibility:visible;display:inline;overflow:visible" />
    <rect
       style="color:#000000;fill:#999999;fill-opacity:1;fill-rule:evenodd;stroke:none;stroke-width:1;marker:none;visibility:visible;display:inline;overflow:visible"
       id="rect4256"
       width="12.325238"
       height="2"
       x="16.424622"
       y="34" />
    <rect
       style="opacity:1;fill:none;fill-opacity:1;fill-rule:evenodd;stroke:#ffffff;stroke-width:0.99999982;stroke-linecap:butt;stroke-linejoin:miter;stroke-miterlimit:4;stroke-dasharray:none;stroke-dashoffset:0;stroke-opacity:1"
       id="rect2245"
       width="37.025566"
       height="43.022316"
       x="5.4997125"
       y="2.4997177"
       rx="0"
       ry="0" />
    <g
       id="g3889"
       transform="translate(0,0.50562485)">
      <rect
         y="8.3136301"
         x="6.9826798"
         height="5.5684662"
         width="5.833631"
         id="rect3105"
         style="fill:none;stroke:#999999;stroke-opacity:1" />
      <path
         inkscape:connector-curvature="0"
         d="m 7.8550532,8.2228191 c 0.1443746,0.2189323 0.2779436,0.4456576 0.38568,0.6849149 0.1153141,0.2302464 0.2221635,0.4645371 0.3268305,0.6997623 0.06615,0.1651341 0.1390142,0.3276708 0.2184119,0.4868207 0.051993,0.1303 0.1317897,0.245353 0.1996068,0.367589 0.061647,0.162893 0.159712,0.306114 0.2377439,0.460677 0.091079,0.143765 0.1604497,0.300301 0.2300351,0.455321 0.084624,0.174435 0.1549212,0.35439 0.2454568,0.526005 0.083885,0.139936 0.1563705,0.281239 0.2166855,0.433029 0.064372,0.145557 0.1264423,0.290136 0.1801713,0.440287 0.04096,0.116382 0.08867,0.319643 0.248988,0.280931 0.27897,-0.385061 0.04576,-0.0471 -1.0182414,0.546419 -0.027522,0.01535 0.053325,-0.03399 0.077255,-0.0545 0.08096,-0.06937 0.1409352,-0.163201 0.2035426,-0.248191 0.1497487,-0.203378 0.2939848,-0.410436 0.4191648,-0.629915 0.129014,-0.26127 0.277358,-0.512152 0.416002,-0.768216 0.145587,-0.266636 0.257793,-0.549275 0.395409,-0.819732 0.150821,-0.28721 0.349539,-0.544175 0.544328,-0.802137 0.158052,-0.225424 0.309553,-0.4519078 0.491736,-0.6588001 0.17906,-0.203328 0.373997,-0.3899031 0.581351,-0.5637956 0.169868,-0.1459954 0.349604,-0.2804201 0.534736,-0.4063731 0.485027,-0.3065962 0.993481,-0.5850711 1.492436,-0.8619965 0.06284,-0.034874 0.132814,-0.055606 0.195891,-0.090043 0.161005,-0.092607 0.323863,-0.1598108 0.507055,-0.1919831 0.166725,-0.065301 0.348522,-0.060293 0.503363,-0.1529432 0.940388,-0.5359643 -3.765556,2.1646455 0.218824,-0.1239177 0.350267,-0.2011873 -0.699511,0.4041646 -1.050864,0.6034485 -0.02271,0.012881 0.04216,-0.030981 0.06472,-0.044116 0.39484,-0.2298426 0.79154,-0.4564734 1.18731,-0.6847102 0,0 -1.020155,0.8209179 -1.020155,0.8209179 l 0,0 c 0.350768,-0.2040708 0.701052,-0.4089777 1.052305,-0.6122123 0.02261,-0.013083 -0.04383,0.028472 -0.06633,0.041732 -0.3946,0.2324759 -0.801319,0.4453064 -1.184956,0.6954591 -0.336747,0.2195782 1.397683,-0.7949304 1.04411,-0.6036198 -1.658448,0.8973502 -0.750347,0.4845771 -1.26994,0.7190971 -0.170339,0.052701 -0.347612,0.081003 -0.518376,0.1330983 -0.171558,0.049769 -0.326341,0.1344745 -0.485509,0.2142378 -0.41864,0.1895729 -0.928972,0.5179383 0.819517,-0.497792 0.278742,-0.1619264 -0.568753,0.3394522 -0.276439,0.1595538 -0.185182,0.1255115 -0.372202,0.2498498 -0.542307,0.395654 -0.208209,0.1722993 -0.415716,0.3437019 -0.593502,0.5488894 -0.186843,0.201832 -0.348941,0.4166389 -0.496231,0.6491415 -0.195553,0.2533592 -0.397586,0.5040542 -0.556418,0.7828392 -0.141276,0.268066 -0.252139,0.550665 -0.391986,0.819641 -0.133833,0.257261 -0.284998,0.505099 -0.414695,0.764693 -0.104131,0.233868 -0.262086,0.437184 -0.406008,0.647372 -0.364664,0.503016 -0.749956,1.074424 -1.5305214,1.028448 C 9.0936558,13.741269 9.0035401,13.592697 8.9517598,13.412246 8.8952899,13.265026 8.8403315,13.118603 8.7734947,12.975699 8.7123433,12.829514 8.647187,12.689064 8.5644773,12.55336 8.4719081,12.379493 8.4070925,12.194201 8.3178086,12.01881 8.2476457,11.865883 8.1717918,11.714798 8.0868619,11.569615 8.0113401,11.416629 7.9126438,11.276328 7.8524889,11.115565 7.7801549,10.99308 7.6972357,10.875696 7.6468426,10.74187 7.568378,10.579641 7.4977578,10.41354 7.4346729,10.244676 7.3336542,10.007865 7.2262624,9.7736787 7.1073022,9.5452707 7.0084386,9.3106797 6.8821318,9.0857112 6.7252186,8.8848678 c 0,0 1.1298346,-0.6620487 1.1298346,-0.6620487 z"
         id="path3875"
         style="fill:#e00000;fill-opacity:1;stroke:#e00000;stroke-opacity:1" />
    </g>
    <g
       id="g3885"
       transform="translate(0,1.0151398)">
      <rect
         style="fill:none;stroke:#999999;stroke-opacity:1"
         id="rect3877"
         width="5.833631"
         height="5.5684662"
         x="6.8942914"
         y="19.804115" />
      <path
         style="fill:#e00000;fill-opacity:1;stroke:#e00000;stroke-opacity:1"
         id="path3879"
         d="m 7.7666648,19.713305 c 0.1443746,0.218932 0.2779436,0.445657 0.38568,0.684915 0.1153141,0.230246 0.2221635,0.464537 0.3268305,0.699762 0.06615,0.165134 0.1390142,0.327671 0.2184119,0.486821 0.051993,0.1303 0.1317897,0.245353 0.1996068,0.367589 0.061647,0.162893 0.159712,0.306114 0.2377439,0.460677 0.091079,0.143765 0.1604497,0.300301 0.2300351,0.455321 0.084624,0.174435 0.1549212,0.35439 0.2454568,0.526005 0.083885,0.139936 0.1563705,0.281239 0.2166855,0.433029 0.064372,0.145557 0.1264423,0.290136 0.1801717,0.440287 0.04096,0.116382 0.08867,0.319643 0.248988,0.280931 0.27897,-0.385061 0.04576,-0.0471 -1.0182418,0.546419 -0.027522,0.01535 0.053325,-0.03399 0.077255,-0.0545 0.08096,-0.06937 0.1409352,-0.163201 0.2035426,-0.248191 0.1497487,-0.203378 0.2939848,-0.410436 0.4191646,-0.629915 0.1290136,-0.26127 0.2773576,-0.512152 0.4160016,-0.768216 0.145587,-0.266636 0.257793,-0.549275 0.395409,-0.819732 0.150821,-0.28721 0.349539,-0.544175 0.544328,-0.802137 0.158052,-0.225424 0.309553,-0.451908 0.491736,-0.6588 0.17906,-0.203328 0.373997,-0.389903 0.581351,-0.563796 0.169868,-0.145995 0.349604,-0.28042 0.534736,-0.406373 0.485027,-0.306596 0.993481,-0.585071 1.492436,-0.861997 0.06284,-0.03487 0.132814,-0.05561 0.195891,-0.09004 0.161005,-0.09261 0.323863,-0.15981 0.507055,-0.191983 0.166725,-0.0653 0.348522,-0.06029 0.503363,-0.152943 0.940388,-0.535964 -3.765556,2.164646 0.218824,-0.123918 0.350267,-0.201187 -0.699511,0.404165 -1.050864,0.603449 -0.02271,0.01288 0.04216,-0.03098 0.06472,-0.04412 0.39484,-0.229843 0.79154,-0.456473 1.18731,-0.68471 0,0 -1.020155,0.820918 -1.020155,0.820918 l 0,0 c 0.350768,-0.204071 0.701052,-0.408978 1.052305,-0.612213 0.02261,-0.01308 -0.04383,0.02847 -0.06633,0.04173 -0.3946,0.232476 -0.801319,0.445307 -1.184956,0.695459 -0.336747,0.219579 1.397683,-0.79493 1.04411,-0.603619 -1.658448,0.89735 -0.750347,0.484577 -1.26994,0.719097 -0.170339,0.0527 -0.347612,0.081 -0.518376,0.133098 -0.171558,0.04977 -0.326341,0.134475 -0.485509,0.214238 -0.41864,0.189573 -0.928972,0.517938 0.819517,-0.497792 0.278742,-0.161927 -0.568753,0.339452 -0.276439,0.159554 -0.185182,0.125511 -0.372202,0.249849 -0.542307,0.395654 -0.208209,0.172299 -0.415716,0.343702 -0.593502,0.548889 -0.186843,0.201832 -0.348941,0.416639 -0.496231,0.649142 -0.195553,0.253359 -0.397586,0.504054 -0.556418,0.782839 -0.141276,0.268066 -0.252139,0.550665 -0.391986,0.819641 -0.133833,0.257261 -0.284998,0.505099 -0.414695,0.764693 -0.104131,0.233868 -0.262086,0.437184 -0.406008,0.647372 C 10.348708,24.778858 9.9634164,25.350266 9.1828512,25.30429 9.0052674,25.231755 8.9151517,25.083183 8.8633714,24.902732 8.8069015,24.755512 8.7519431,24.609089 8.6851063,24.466185 8.6239549,24.32 8.5587986,24.17955 8.4760889,24.043846 8.3835197,23.869979 8.3187041,23.684687 8.2294202,23.509296 8.1592573,23.356369 8.0834034,23.205284 7.9984735,23.060101 7.9229517,22.907115 7.8242554,22.766814 7.7641005,22.606051 7.6917665,22.483566 7.6088473,22.366182 7.5584542,22.232356 7.4799896,22.070127 7.4093694,21.904026 7.3462845,21.735162 7.2452658,21.498351 7.137874,21.264164 7.0189138,21.035756 6.9200502,20.801165 6.7937434,20.576197 6.6368302,20.375354 c 0,0 1.1298346,-0.662049 1.1298346,-0.662049 z"
         inkscape:connector-curvature="0" />
    </g>
    <rect
       style="fill:none;stroke:#999999;stroke-opacity:1"
       id="rect3881"
       width="5.833631"
       height="5.5684662"
       x="6.8942914"
       y="32.215767" />
  </g>
</svg>
