<?xml version="1.0" encoding="UTF-8" standalone="no"?>
<!-- Created with Inkscape (http://www.inkscape.org/) -->

<svg
   xmlns:osb="http://www.openswatchbook.org/uri/2009/osb"
   xmlns:dc="http://purl.org/dc/elements/1.1/"
   xmlns:cc="http://creativecommons.org/ns#"
   xmlns:rdf="http://www.w3.org/1999/02/22-rdf-syntax-ns#"
   xmlns:svg="http://www.w3.org/2000/svg"
   xmlns="http://www.w3.org/2000/svg"
   xmlns:xlink="http://www.w3.org/1999/xlink"
   xmlns:sodipodi="http://sodipodi.sourceforge.net/DTD/sodipodi-0.dtd"
   xmlns:inkscape="http://www.inkscape.org/namespaces/inkscape"
   width="512"
   height="512"
   id="svg2"
   version="1.1"
   inkscape:version="0.48.4 r9939"
   sodipodi:docname="go-jump-rtl.svg">
  <defs
     id="defs4">
    <filter
       x="-0.192"
       y="-0.192"
       width="1.3839999"
       height="1.3839999"
       color-interpolation-filters="sRGB"
       id="filter3794-6">
      <feGaussianBlur
         id="feGaussianBlur3796-26"
         stdDeviation="5.28" />
    </filter>
    <clipPath
       id="clipPath3613-06">
      <rect
         width="84"
         height="84"
         rx="6"
         ry="6"
         x="6"
         y="6"
         id="rect3615-6"
         style="fill:#ffffff;fill-opacity:1;fill-rule:nonzero;stroke:none" />
    </clipPath>
    <filter
       color-interpolation-filters="sRGB"
       id="filter3174-4">
      <feGaussianBlur
         id="feGaussianBlur3176-9"
         stdDeviation="1.71" />
    </filter>
    <linearGradient
       id="linearGradient5284"
       osb:paint="solid">
      <stop
         style="stop-color:#a7d6f6;stop-opacity:1;"
         offset="0"
         id="stop5286" />
    </linearGradient>
    <linearGradient
       id="linearGradient5228"
       osb:paint="solid">
      <stop
         style="stop-color:#000000;stop-opacity:1;"
         offset="0"
         id="stop5230" />
    </linearGradient>
    <filter
       color-interpolation-filters="sRGB"
       id="filter3174-5">
      <feGaussianBlur
         id="feGaussianBlur3176-1"
         stdDeviation="1.71" />
    </filter>
    <filter
       x="-0.192"
       y="-0.192"
       width="1.3839999"
       height="1.3839999"
       color-interpolation-filters="sRGB"
       id="filter3794-0">
      <feGaussianBlur
         id="feGaussianBlur3796-2"
         stdDeviation="5.28" />
    </filter>
    <clipPath
       id="clipPath3613-7">
      <rect
         width="84"
         height="84"
         rx="6"
         ry="6"
         x="6"
         y="6"
         id="rect3615-8"
         style="fill:#ffffff;fill-opacity:1;fill-rule:nonzero;stroke:none" />
    </clipPath>
    <clipPath
       id="clipPath3625">
      <path
         d="M 0,0 0,96 96,96 96,0 0,0 z m 12,6 72,0 c 3.324,0 6,2.676 6,6 l 0,72 c 0,3.324 -2.676,6 -6,6 L 12,90 C 8.676,90 6,87.324 6,84 L 6,12 C 6,8.676 8.676,6 12,6 z"
         inkscape:connector-curvature="0"
         id="path3627"
         style="fill:#ffffff;fill-opacity:1;stroke:none" />
    </clipPath>
    <clipPath
       id="clipPath3649">
      <rect
         width="76"
         height="76"
         rx="4"
         ry="4"
         x="10"
         y="10"
         id="rect3651"
         style="fill:#ffffff;fill-opacity:1;fill-rule:nonzero;stroke:none" />
    </clipPath>
    <filter
       color-interpolation-filters="sRGB"
       id="filter3657">
      <feGaussianBlur
         id="feGaussianBlur3659"
         stdDeviation="1.14" />
    </filter>
    <linearGradient
       osb:paint="solid"
       id="linearGradient5228-2">
      <stop
         id="stop5230-5"
         offset="0"
         style="stop-color:#000000;stop-opacity:1;" />
    </linearGradient>
    <linearGradient
       osb:paint="solid"
       id="linearGradient5284-9">
      <stop
         id="stop5286-4"
         offset="0"
         style="stop-color:#a7d6f6;stop-opacity:1;" />
    </linearGradient>
    <filter
       id="filter3174-1"
       color-interpolation-filters="sRGB">
      <feGaussianBlur
         stdDeviation="1.71"
         id="feGaussianBlur3176-6" />
    </filter>
    <clipPath
       id="clipPath3613-0">
      <rect
         style="fill:#ffffff;fill-opacity:1;fill-rule:nonzero;stroke:none"
         id="rect3615-83"
         y="6"
         x="6"
         ry="6"
         rx="6"
         height="84"
         width="84" />
    </clipPath>
    <filter
       id="filter3794-3"
       color-interpolation-filters="sRGB"
       height="1.3839999"
       width="1.3839999"
       y="-0.192"
       x="-0.192">
      <feGaussianBlur
         stdDeviation="5.28"
         id="feGaussianBlur3796-3" />
    </filter>
    <linearGradient
       gradientTransform="scale(1.0058652,0.994169)"
       gradientUnits="userSpaceOnUse"
       id="ButtonShadow"
       y2="7.0165396"
       x2="45.447727"
       y1="92.539597"
       x1="45.447727">
      <stop
         offset="0"
         style="stop-color:#000000;stop-opacity:1"
         id="stop3750" />
      <stop
         offset="1"
         style="stop-color:#000000;stop-opacity:0.58823532"
         id="stop3752" />
    </linearGradient>
    <filter
       id="filter3174"
       color-interpolation-filters="sRGB">
      <feGaussianBlur
         stdDeviation="1.71"
         id="feGaussianBlur3176" />
    </filter>
    <linearGradient
       id="linearGradient3737-4">
      <stop
         offset="0"
         style="stop-color:#ffffff;stop-opacity:1"
         id="stop3739-2" />
      <stop
         offset="1"
         style="stop-color:#ffffff;stop-opacity:0"
         id="stop3741-9" />
    </linearGradient>
    <clipPath
       id="clipPath3613">
      <rect
         style="fill:#ffffff;fill-opacity:1;fill-rule:nonzero;stroke:none"
         id="rect3615"
         y="6"
         x="6"
         ry="6"
         rx="6"
         height="84"
         width="84" />
    </clipPath>
    <filter
       id="filter3794"
       color-interpolation-filters="sRGB"
       height="1.3839999"
       width="1.3839999"
       y="-0.192"
       x="-0.192">
      <feGaussianBlur
         stdDeviation="5.28"
         id="feGaussianBlur3796" />
    </filter>
    <linearGradient
       inkscape:collect="always"
       xlink:href="#linearGradient3737-4"
       id="linearGradient3557"
       gradientUnits="userSpaceOnUse"
       x1="48"
       y1="20.220806"
       x2="48"
       y2="138.66119" />
    <linearGradient
       inkscape:collect="always"
       xlink:href="#ButtonShadow"
       id="linearGradient3560"
       gradientUnits="userSpaceOnUse"
       gradientTransform="scale(1.0058652,0.994169)"
       x1="45.447727"
       y1="92.539597"
       x2="45.447727"
       y2="7.0165396" />
  </defs>
  <sodipodi:namedview
     id="base"
     pagecolor="#ffffff"
     bordercolor="#666666"
     borderopacity="1.0"
     inkscape:pageopacity="0.0"
     inkscape:pageshadow="2"
     inkscape:zoom="0.7"
     inkscape:cx="249.83129"
     inkscape:cy="188.87219"
     inkscape:document-units="px"
     inkscape:current-layer="layer1"
     showgrid="false"
     inkscape:window-width="1309"
     inkscape:window-height="750"
     inkscape:window-x="55"
     inkscape:window-y="-3"
     inkscape:window-maximized="1" />
  <metadata
     id="metadata7">
    <rdf:RDF>
      <cc:Work
         rdf:about="">
        <dc:format>image/svg+xml</dc:format>
        <dc:type
           rdf:resource="http://purl.org/dc/dcmitype/StillImage" />
        <dc:title></dc:title>
      </cc:Work>
    </rdf:RDF>
  </metadata>
  <g
     inkscape:label="Layer 1"
     inkscape:groupmode="layer"
     id="layer1"
     transform="translate(0,-540.36218)">
    <path
       style="fill:#555753;fill-opacity:1;stroke:none"
       d="m 506,588.43458 -73.60539,118.66419 c -14.06785,-8.01404 -29.70525,-13.6749 -46.52592,-16.39204 -78.45077,-12.67262 -152.79583,43.34941 -166.01468,125.18163 -0.77557,4.80124 -1.28454,9.59534 -1.61116,14.3505 l 115.23677,-0.002 -167.3695,213.80564 -160.1101195,-213.83958 77.4492805,0.021 c 0.50359,-11.84175 1.64225,-23.78229 3.58209,-35.79106 C 112.6134,636.06542 256.42849,527.61753 408.25181,552.14247 443.89566,557.90023 476.82474,570.51104 506,588.43458 z"
       id="path4363"
       inkscape:connector-curvature="0" />
    <rect
       width="86"
       height="85"
       rx="6"
       ry="6"
       x="5"
       y="7"
       id="rect3745-36"
       style="opacity:0.9;fill:#6788cc;fill-opacity:1;fill-rule:nonzero;stroke:none;display:none;filter:url(#filter3174-4)"
       transform="matrix(3.2282818,0,0,2.9235548,1823.9363,535.33863)" />
    <rect
       width="66"
       height="66"
       rx="12"
       ry="12"
       x="15"
       y="15"
       clip-path="url(#clipPath3613-06)"
       id="rect3171-6"
       style="opacity:0.1;fill:#6788cc;fill-opacity:1;fill-rule:nonzero;stroke:none;display:none;filter:url(#filter3794-6)"
       transform="matrix(3.2282818,0,0,2.9235548,1823.9363,535.33863)" />
    <text
       sodipodi:linespacing="125%"
       id="text4037-5"
       y="902.9682"
       x="954.48932"
       style="font-size:127.8814621px;font-style:normal;font-variant:normal;font-weight:normal;font-stretch:normal;line-height:125%;letter-spacing:0px;word-spacing:0px;fill:#555753;fill-opacity:1;stroke:none;font-family:Gentium Book Basic;-inkscape-font-specification:Gentium Book Basic"
       xml:space="preserve"
       transform="scale(1.0508243,0.95163388)"><tspan
         y="902.9682"
         x="954.48932"
         id="tspan4039-0"
         sodipodi:role="line" /></text>
    <path
       id="path23392-0"
       d="m 1547.21,568.00101 c -4.609,0 -8.8626,2.22674 -11.1671,5.84143 -2.304,3.61456 -2.3043,8.06838 0,11.68284 0.6002,0.94108 1.32,1.78105 2.1568,2.51912 0.053,0.0487 0.1071,0.0983 0.1613,0.14603 l 161.9424,146.51022 c 2.2517,1.62927 5.1204,2.54541 8.0024,2.55562 4.6765,-0.0113 9.2268,-2.52426 11.3888,-6.27953 2.1621,-3.75527 1.8407,-8.5874 -0.8264,-12.06619 -0.1604,-0.21183 -0.3285,-0.41886 -0.504,-0.62065 L 1556.5226,571.59714 c -0.054,-0.0489 -0.1067,-0.0979 -0.1613,-0.14604 -2.3374,-2.13345 -5.5707,-3.45009 -9.1513,-3.45009 z m 38.7017,0 c -4.609,0 -8.8626,2.22674 -11.1671,5.84143 -2.304,3.61456 -2.3043,8.06838 0,11.68284 0.6002,0.94108 1.32,1.78105 2.1568,2.51912 0.053,0.0487 0.1071,0.0983 0.1613,0.14603 l 161.9425,146.51022 c 2.2516,1.62927 5.1203,2.54541 8.0023,2.55562 4.6765,-0.0113 9.2268,-2.52426 11.3888,-6.27953 2.1621,-3.75527 1.8407,-8.5874 -0.8264,-12.06619 -0.1604,-0.21183 -0.3285,-0.41886 -0.5039,-0.62065 L 1595.2243,571.59714 c -0.054,-0.0489 -0.1067,-0.0979 -0.1613,-0.14604 -2.3374,-2.13345 -5.5707,-3.45009 -9.1513,-3.45009 z m 38.7017,0 c -4.6089,0 -8.8626,2.22674 -11.1671,5.84143 -2.304,3.61456 -2.3043,8.06838 0,11.68284 0.6002,0.94108 1.32,1.78105 2.1568,2.51912 0.053,0.0487 0.1071,0.0983 0.1613,0.14603 l 161.9425,146.51022 c 2.2516,1.62927 5.1203,2.54541 8.0024,2.55562 4.6764,-0.0113 9.2267,-2.52426 11.3888,-6.27953 2.162,-3.75527 1.8406,-8.5874 -0.8265,-12.06619 -0.1604,-0.21183 -0.3285,-0.41886 -0.5039,-0.62065 L 1633.926,571.59714 c -0.054,-0.0489 -0.1067,-0.0979 -0.1613,-0.14604 -2.3374,-2.13345 -5.5707,-3.45009 -9.1513,-3.45009 z"
       style="color:#000000;fill:#6788cc;fill-opacity:0.31372549;fill-rule:nonzero;stroke:none;stroke-width:1;marker:none;visibility:visible;display:none;overflow:visible;enable-background:accumulate"
       inkscape:connector-curvature="0" />
    <path
       style="fill:#6788cc;fill-opacity:0.31372549;stroke:none;display:none"
       d="m 1518.224,650.96749 c -8.8293,0 -9.755,0.53046 -11.9532,6.69938 -2.0013,5.61647 -3.6006,6.9762 -11.288,9.67486 -6.9852,2.452 -8.9999,2.44664 -12.4168,0 -4.1432,-2.96675 -9.3513,-1.9731 -14.4728,2.73817 -5.7728,5.31036 -6.1708,7.05744 -2.9228,12.66859 2.9093,5.02595 2.8083,7.19527 -0.6854,14.14719 -2.6457,5.26476 -3.9159,6.34176 -9.3125,7.94069 -6.1449,1.82062 -7.2566,3.53107 -7.2566,11.11696 0.3405,2.75194 0.026,6.3608 1.8141,8.25101 l 17.7382,16.04523 c 1.2228,3.13467 0.6512,3.88584 -1.5118,7.57559 -3.4911,5.95536 -3.3021,7.41061 2.4592,12.72336 l 196.0058,177.44949 c 0.5764,0.4825 1.1087,0.8816 1.6126,1.2413 3.5098,2.5051 5.5596,2.1167 10.5422,-0.3833 4.1334,-2.0741 5.7885,-2.5266 9.7762,-1.3509 l 17.4734,15.807 c 1.2685,1.0964 2.5737,1.2413 8.8086,1.2413 8.9803,0 10.5802,-0.7858 11.792,-5.6954 1.6109,-6.527 2.5126,-7.4196 10.139,-10.259 8.3228,-3.0986 8.96,-3.1468 12.7192,-0.8215 5.8023,3.5892 9.2134,3.2683 14.5333,-1.3508 6.247,-5.4242 7.4743,-8.6035 4.7369,-12.3765 -4.0212,-5.5425 -4.1421,-7.1198 -1.028,-13.8916 3.0301,-6.5894 4.7336,-7.9088 11.3484,-8.8717 4.9136,-0.7152 5.8576,-2.2549 6.1681,-9.91218 0.2164,-5.33544 0.01,-8.02138 -1.6125,-9.72959 l -18.0803,-16.39162 c -1.1077,-3.37109 -0.7256,-5.11282 1.0078,-7.24705 3.5445,-4.36418 3.1557,-8.3995 -1.2497,-12.68681 -0.068,-0.0657 -0.135,-0.11811 -0.2016,-0.18255 -0.4038,-0.39067 -0.7958,-0.76826 -1.1691,-1.11355 L 1567.9314,668.49264 c -0.063,-0.0566 -0.1395,-0.10904 -0.2016,-0.16429 -0.072,-0.063 -0.1308,-0.12135 -0.2015,-0.18255 -4.878,-4.28473 -7.37,-4.32104 -13.3441,-1.46035 -4.4513,2.1315 -6.329,2.51034 -9.5544,1.51512 l -16.9917,-15.3869 c -1.7603,-1.65856 -4.3526,-1.84618 -9.4141,-1.84618 z"
       id="path3132-2"
       inkscape:connector-curvature="0"
       sodipodi:nodetypes="sscssssscccsccssccsssssssssccsssccccsccs" />
    <text
       style="font-size:46.46559906px;text-anchor:middle;fill:#555753;stroke:none;font-family:Arial"
       transform="scale(4.2167858,0.23714745)"
       xml:space="preserve"
       font-size="30.001"
       id="svg_3-9"
       y="3277.9443"
       x="432.88901" />
    <rect
       width="86"
       height="85"
       rx="6"
       ry="6"
       x="5"
       y="7"
       id="rect3745-3"
       style="opacity:0.9;fill:#6788cc;fill-opacity:1;fill-rule:nonzero;stroke:none;display:none;filter:url(#filter3174-1)"
       transform="matrix(1.7281957,0,0,1.5650662,1867.0275,652.13791)" />
    <rect
       width="66"
       height="66"
       rx="12"
       ry="12"
       x="15"
       y="15"
       clip-path="url(#clipPath3613-0)"
       id="rect3171-8"
       style="opacity:0.1;fill:#6788cc;fill-opacity:1;fill-rule:nonzero;stroke:none;display:none;filter:url(#filter3794-3)"
       transform="matrix(1.7281957,0,0,1.5650662,1867.0275,652.13791)" />
    <text
       sodipodi:linespacing="125%"
       id="text4037-3"
       y="867.52014"
       x="1358.5107"
       style="font-size:68.45876312px;font-style:normal;font-variant:normal;font-weight:normal;font-stretch:normal;line-height:125%;letter-spacing:0px;word-spacing:0px;fill:#555753;fill-opacity:1;stroke:none;font-family:Gentium Book Basic;-inkscape-font-specification:Gentium Book Basic"
       xml:space="preserve"
       transform="scale(1.0508243,0.95163388)"><tspan
         y="867.52014"
         x="1358.5107"
         id="tspan4039-7"
         sodipodi:role="line" /></text>
    <path
       id="path23392-9"
       d="m 1718.8876,669.62306 c -2.4673,0 -4.7444,1.19204 -5.9781,3.12709 -1.2334,1.93498 -1.2336,4.31925 0,6.25418 0.3213,0.50378 0.7067,0.95344 1.1546,1.34855 0.028,0.0261 0.057,0.0526 0.086,0.0782 l 86.6927,78.43129 c 1.2053,0.8722 2.741,1.36264 4.2839,1.36811 2.5034,-0.006 4.9393,-1.35132 6.0967,-3.36162 1.1575,-2.01031 0.9854,-4.5971 -0.4424,-6.4594 -0.086,-0.1134 -0.1758,-0.22422 -0.2697,-0.33225 l -86.6387,-78.52904 c -0.029,-0.0262 -0.057,-0.0525 -0.086,-0.0782 -1.2513,-1.14209 -2.9822,-1.84693 -4.899,-1.84693 z m 20.7182,0 c -2.4673,0 -4.7444,1.19204 -5.9781,3.12709 -1.2334,1.93498 -1.2336,4.31925 0,6.25418 0.3213,0.50378 0.7067,0.95344 1.1546,1.34855 0.028,0.0261 0.057,0.0526 0.086,0.0782 l 86.6927,78.43129 c 1.2053,0.8722 2.741,1.36264 4.2839,1.36811 2.5034,-0.006 4.9393,-1.35132 6.0967,-3.36162 1.1575,-2.01031 0.9854,-4.5971 -0.4424,-6.4594 -0.086,-0.1134 -0.1758,-0.22422 -0.2697,-0.33225 l -86.6387,-78.52902 c -0.029,-0.0262 -0.057,-0.0525 -0.086,-0.0782 -1.2513,-1.14209 -2.9822,-1.84693 -4.899,-1.84693 z m 20.7182,0 c -2.4673,0 -4.7445,1.19204 -5.9781,3.12709 -1.2334,1.93498 -1.2336,4.31925 0,6.25418 0.3213,0.50378 0.7066,0.95344 1.1546,1.34855 0.028,0.0261 0.057,0.0526 0.086,0.0782 l 86.6927,78.43129 c 1.2053,0.8722 2.741,1.36264 4.2839,1.36811 2.5034,-0.006 4.9393,-1.35132 6.0967,-3.36162 1.1574,-2.01031 0.9854,-4.5971 -0.4424,-6.4594 -0.086,-0.1134 -0.1758,-0.22422 -0.2698,-0.33225 l -86.6387,-78.52902 c -0.029,-0.0262 -0.057,-0.0525 -0.086,-0.0782 -1.2512,-1.14209 -2.9821,-1.84693 -4.8989,-1.84693 z"
       style="color:#000000;fill:#6788cc;fill-opacity:0.31372549;fill-rule:nonzero;stroke:none;stroke-width:1;marker:none;visibility:visible;display:none;overflow:visible;enable-background:accumulate"
       inkscape:connector-curvature="0" />
    <path
       style="fill:#6788cc;fill-opacity:0.31372549;stroke:none;display:none"
       d="m 1703.3705,714.03749 c -4.7265,0 -5.2221,0.28398 -6.3989,3.58638 -1.0713,3.00667 -1.9275,3.73457 -6.0428,5.17924 -3.7394,1.31263 -4.8179,1.30976 -6.6471,0 -2.218,-1.58819 -5.006,-1.05626 -7.7477,1.46583 -3.0903,2.84279 -3.3034,3.77805 -1.5647,6.78187 1.5575,2.69055 1.5034,3.85184 -0.3668,7.57342 -1.4164,2.81838 -2.0964,3.39493 -4.9853,4.25088 -3.2896,0.97464 -3.8847,1.89029 -3.8847,5.95124 0.1823,1.4732 0.014,3.40513 0.9712,4.41701 l 9.4957,8.5895 c 0.6546,1.67808 0.3486,2.0802 -0.8093,4.05544 -1.8689,3.18808 -1.7677,3.96712 1.3165,6.81119 l 104.9278,94.99399 c 0.3085,0.25837 0.5935,0.47199 0.8632,0.66452 1.8789,1.34108 2.9762,1.13318 5.6436,-0.20521 2.2127,-1.11028 3.0988,-1.35252 5.2335,-0.72311 l 9.354,8.46195 c 0.6791,0.58689 1.3778,0.66446 4.7155,0.66446 4.8075,0 5.6639,-0.42064 6.3126,-3.04887 0.8624,-3.49417 1.3451,-3.972 5.4277,-5.49199 4.4555,-1.65879 4.7966,-1.68455 6.809,-0.43975 3.1061,1.92137 4.9322,1.74963 7.7801,-0.72316 3.3442,-2.90372 4.0013,-4.60567 2.5358,-6.62552 -2.1527,-2.96704 -2.2174,-3.81141 -0.5503,-7.43654 1.6221,-3.52752 2.5341,-4.23387 6.0752,-4.74932 2.6303,-0.38284 3.1357,-1.20707 3.3019,-5.30629 0.1159,-2.85622 0,-4.29409 -0.8632,-5.2085 l -9.679,-8.77493 c -0.5929,-1.80465 -0.3883,-2.73706 0.5396,-3.87958 1.8975,-2.33628 1.6893,-4.4965 -0.669,-6.79165 -0.036,-0.035 -0.072,-0.0632 -0.108,-0.0977 -0.2161,-0.20918 -0.426,-0.41129 -0.6258,-0.59612 L 1729.9804,723.4192 c -0.034,-0.0303 -0.075,-0.0584 -0.1079,-0.0879 -0.038,-0.0338 -0.07,-0.065 -0.1079,-0.0977 -2.6114,-2.29375 -3.9454,-2.31319 -7.1435,-0.78178 -2.3829,1.14106 -3.3881,1.34387 -5.1148,0.81109 l -9.0961,-8.23706 c -0.9424,-0.88788 -2.3301,-0.98832 -5.0397,-0.98832 z"
       id="path3132-3"
       inkscape:connector-curvature="0"
       sodipodi:nodetypes="sscssssscccsccssccsssssssssccsssccccsccs" />
    <text
       style="font-size:24.87442589px;text-anchor:middle;fill:#555753;stroke:none;font-family:Arial"
       transform="scale(4.2167856,0.23714746)"
       xml:space="preserve"
       font-size="30.001"
       id="svg_3-5"
       y="3296.2495"
       x="442.94669" />
    <rect
       style="opacity:0.9;fill:#6788cc;fill-opacity:1;fill-rule:nonzero;stroke:none;display:none;filter:url(#filter3174-5)"
       id="rect3745-9"
       clip-path="url(#clipPath3625)"
       y="7"
       x="5"
       ry="6"
       rx="6"
       height="85"
       width="86"
       transform="matrix(1.8921673,0,0,1.7135601,2133.7213,674.78029)" />
    <rect
       style="opacity:0.8;fill:#6788cc;fill-opacity:1;fill-rule:nonzero;stroke:none;display:none"
       id="rect2419"
       y="685.06165"
       x="2145.0745"
       ry="10.281361"
       rx="11.353004"
       height="143.93904"
       width="158.94205" />
    <path
       style="opacity:0.07999998;fill:#6788cc;fill-opacity:1;fill-rule:nonzero;stroke:none;display:none"
       id="rect3726"
       inkscape:connector-curvature="0"
       d="m 2160.2116,691.91589 c -4.193,0 -7.5686,3.05699 -7.5686,6.85424 l 0,116.52209 c 0,3.79725 3.3756,6.85424 7.5686,6.85424 l 128.6674,0 c 4.1931,0 7.5687,-3.05699 7.5687,-6.85424 l 0,-116.52209 c 0,-3.79725 -3.3756,-6.85424 -7.5687,-6.85424 l -128.6674,0 z m 0,5.24778 128.6674,0 c 1.0951,0 1.7739,0.61471 1.7739,1.60646 l 0,116.52209 c 0,0.99175 -0.6788,1.60646 -1.7739,1.60646 l -128.6674,0 c -1.0951,0 -1.7739,-0.61471 -1.7739,-1.60646 l 0,-116.52209 c 0,-0.99175 0.6788,-1.60646 1.7739,-1.60646 z" />
    <path
       style="fill:#6788cc;fill-opacity:1;fill-rule:nonzero;stroke:none;display:none"
       id="rect3629"
       inkscape:connector-curvature="0"
       d="m 2156.4273,685.06165 c -6.2896,0 -11.353,4.58549 -11.353,10.28136 l 0,123.37633 c 0,5.69587 5.0634,10.28136 11.353,10.28136 l 136.2361,0 c 6.2895,0 11.353,-4.58549 11.353,-10.28136 l 0,-123.37633 c 0,-5.69587 -5.0635,-10.28136 -11.353,-10.28136 l -136.2361,0 z m 3.7843,6.85424 128.6674,0 c 4.1931,0 7.5687,3.05699 7.5687,6.85424 l 0,116.52209 c 0,3.79725 -3.3756,6.85424 -7.5687,6.85424 l -128.6674,0 c -4.193,0 -7.5686,-3.05699 -7.5686,-6.85424 l 0,-116.52209 c 0,-3.79725 3.3756,-6.85424 7.5686,-6.85424 z" />
    <path
       style="fill:#6788cc;fill-opacity:1;fill-rule:nonzero;stroke:none;display:none"
       id="rect3728"
       inkscape:connector-curvature="0"
       d="m 2156.4273,685.06165 c -6.2896,0 -11.353,4.58549 -11.353,10.28136 l 0,3.42712 0,116.52209 0,3.42712 c 0,0.57356 0.078,1.11501 0.1774,1.66001 0.092,0.50652 0.1836,1.02285 0.3548,1.49936 0.019,0.0521 0.04,0.10899 0.059,0.16065 0.1871,0.49311 0.4444,0.93809 0.7096,1.39227 0.2736,0.46867 0.5972,0.91781 0.9461,1.33872 0.3488,0.42091 0.7072,0.81132 1.1234,1.17807 0.8325,0.7335 1.7842,1.39574 2.8383,1.87421 0.527,0.23923 1.0851,0.42315 1.6556,0.58903 -0.4848,-0.17173 -0.9209,-0.40486 -1.36,-0.64258 -0.014,-0.008 -0.045,0.008 -0.059,0 -0.06,-0.0331 -0.1179,-0.0728 -0.1774,-0.1071 -0.2278,-0.13143 -0.4371,-0.28019 -0.6504,-0.42839 -0.2009,-0.13846 -0.4036,-0.27607 -0.5913,-0.42839 -0.3367,-0.27663 -0.6575,-0.59184 -0.9461,-0.91033 -0.2036,-0.2232 -0.4132,-0.45458 -0.5913,-0.69613 -0.047,-0.0658 -0.073,-0.14715 -0.1183,-0.2142 -0.1225,-0.17655 -0.2464,-0.35045 -0.3548,-0.53549 -0.1911,-0.33364 -0.3891,-0.71232 -0.5321,-1.07097 -0.015,-0.0374 -0.045,-0.0695 -0.059,-0.1071 -0.06,-0.15756 -0.068,-0.32014 -0.1182,-0.48194 -0.057,-0.18269 -0.1332,-0.3479 -0.1774,-0.53548 -0.1379,-0.58521 -0.2365,-1.19642 -0.2365,-1.82066 l 0,-3.42712 0,-116.52209 0,-3.42712 c 0,-4.76686 4.1971,-8.5678 9.4608,-8.5678 l 3.7843,0 128.6674,0 3.7844,0 c 5.2637,0 9.4608,3.80094 9.4608,8.5678 l 0,3.42712 0,116.52209 0,3.42712 c 0,0.62424 -0.099,1.23545 -0.2365,1.82066 -0.084,0.35452 -0.1673,0.68141 -0.2957,1.01742 -0.015,0.0376 -0.044,0.0697 -0.059,0.1071 -0.1187,0.29771 -0.2619,0.62965 -0.4139,0.91033 -0.079,0.14188 -0.1496,0.29123 -0.2365,0.42839 -0.1034,0.16657 -0.2399,0.32275 -0.3548,0.48194 -0.1781,0.24155 -0.3878,0.47293 -0.5913,0.69613 -0.2709,0.29893 -0.5736,0.5946 -0.887,0.85678 -0.021,0.0175 -0.038,0.0362 -0.059,0.0536 -0.2619,0.21515 -0.5395,0.40172 -0.8278,0.58904 -0.1941,0.12534 -0.3866,0.26279 -0.5913,0.37484 -0.014,0.008 -0.045,-0.008 -0.059,0 -0.439,0.23772 -0.8752,0.47085 -1.36,0.64258 0.5706,-0.16587 1.1286,-0.3498 1.6557,-0.58903 1.0541,-0.47847 2.0058,-1.14071 2.8382,-1.87421 0.4163,-0.36675 0.7746,-0.75716 1.1235,-1.17807 0.3489,-0.42091 0.6725,-0.87005 0.9461,-1.33872 0.2651,-0.45418 0.5225,-0.89916 0.7096,-1.39227 0.02,-0.0527 0.04,-0.10751 0.059,-0.16065 0.1712,-0.47651 0.2626,-0.99284 0.3548,-1.49936 0.099,-0.545 0.1774,-1.08645 0.1774,-1.66001 l 0,-3.42712 0,-116.52209 0,-3.42712 c 0,-5.69587 -5.0635,-10.28136 -11.353,-10.28136 l -136.2361,0 z" />
    <path
       style="opacity:0.6;fill:#6788cc;fill-opacity:1;fill-rule:nonzero;stroke:none;display:none"
       id="path3615"
       inkscape:connector-curvature="0"
       d="m 2156.4273,829.0007 c -6.2896,0 -11.353,-4.58549 -11.353,-10.28136 l 0,-3.42712 0,-116.52209 0,-3.42712 c 0,-0.57356 0.078,-1.11501 0.1774,-1.66001 0.092,-0.50652 0.1836,-1.02285 0.3548,-1.49937 0.019,-0.0521 0.04,-0.10898 0.059,-0.16064 0.1871,-0.49311 0.4444,-0.93809 0.7096,-1.39227 0.2736,-0.46867 0.5972,-0.91781 0.9461,-1.33872 0.3488,-0.42091 0.7072,-0.81132 1.1234,-1.17807 0.8325,-0.7335 1.7842,-1.39574 2.8383,-1.87421 0.527,-0.23923 1.0851,-0.42316 1.6556,-0.58903 -0.4848,0.17173 -0.9209,0.40486 -1.36,0.64258 -0.014,0.008 -0.045,-0.008 -0.059,0 -0.06,0.0331 -0.1179,0.0729 -0.1774,0.1071 -0.2278,0.13143 -0.4371,0.28019 -0.6504,0.42839 -0.2009,0.13846 -0.4036,0.27607 -0.5913,0.42839 -0.3367,0.27662 -0.6575,0.59184 -0.9461,0.91033 -0.2036,0.2232 -0.4132,0.45458 -0.5913,0.69613 -0.047,0.0658 -0.073,0.14715 -0.1183,0.2142 -0.1225,0.17655 -0.2464,0.35045 -0.3548,0.53548 -0.1911,0.33365 -0.3891,0.71233 -0.5321,1.07098 -0.015,0.0374 -0.045,0.0695 -0.059,0.1071 -0.06,0.15756 -0.068,0.32014 -0.1182,0.48194 -0.057,0.18269 -0.1332,0.3479 -0.1774,0.53548 -0.1379,0.5852 -0.2365,1.19642 -0.2365,1.82066 l 0,3.42712 0,116.52209 0,3.42712 c 0,4.76686 4.1971,8.5678 9.4608,8.5678 l 3.7843,0 128.6674,0 3.7844,0 c 5.2637,0 9.4608,-3.80094 9.4608,-8.5678 l 0,-3.42712 0,-116.52209 0,-3.42712 c 0,-0.62424 -0.099,-1.23546 -0.2365,-1.82066 -0.084,-0.35452 -0.1673,-0.68141 -0.2957,-1.01742 -0.015,-0.0376 -0.044,-0.0697 -0.059,-0.1071 -0.1187,-0.29771 -0.2619,-0.62965 -0.4139,-0.91033 -0.079,-0.14188 -0.1496,-0.29123 -0.2365,-0.42839 -0.1034,-0.16657 -0.2399,-0.32275 -0.3548,-0.48194 -0.1781,-0.24155 -0.3878,-0.47293 -0.5913,-0.69613 -0.2709,-0.29893 -0.5736,-0.5946 -0.887,-0.85678 -0.021,-0.0175 -0.038,-0.0362 -0.059,-0.0535 -0.2619,-0.21515 -0.5395,-0.40172 -0.8278,-0.58904 -0.1941,-0.12534 -0.3866,-0.2628 -0.5913,-0.37484 -0.014,-0.008 -0.045,0.008 -0.059,0 -0.439,-0.23772 -0.8752,-0.47085 -1.36,-0.64258 0.5706,0.16587 1.1286,0.3498 1.6557,0.58903 1.0541,0.47847 2.0058,1.14071 2.8382,1.87421 0.4163,0.36675 0.7746,0.75716 1.1235,1.17807 0.3489,0.42091 0.6725,0.87005 0.9461,1.33872 0.2651,0.45418 0.5225,0.89916 0.7096,1.39227 0.02,0.0527 0.04,0.10751 0.059,0.16064 0.1712,0.47652 0.2626,0.99285 0.3548,1.49937 0.099,0.545 0.1774,1.08645 0.1774,1.66001 l 0,3.42712 0,116.52209 0,3.42712 c 0,5.69587 -5.0635,10.28136 -11.353,10.28136 l -136.2361,0 z" />
    <rect
       style="fill:#6788cc;fill-opacity:1;fill-rule:nonzero;stroke:none;display:none"
       id="rect2841"
       y="856.41766"
       x="2145.0745"
       ry="10.281361"
       rx="11.353004"
       height="143.93904"
       width="158.94205" />
    <rect
       style="fill:#6788cc;fill-opacity:1;fill-rule:nonzero;stroke:none;display:none"
       id="rect3634"
       y="863.27191"
       x="2152.6431"
       ry="6.8542404"
       rx="7.5686693"
       height="130.23056"
       width="143.80472" />
    <path
       style="font-size:medium;font-style:normal;font-variant:normal;font-weight:normal;font-stretch:normal;text-indent:0;text-align:start;text-decoration:none;line-height:normal;letter-spacing:normal;word-spacing:normal;text-transform:none;direction:ltr;block-progression:tb;writing-mode:lr-tb;text-anchor:start;color:#000000;fill:#6788cc;fill-opacity:1;stroke:none;stroke-width:2;marker:none;visibility:visible;display:none;overflow:visible;filter:url(#filter3657);enable-background:accumulate;font-family:Abandoned Bitplane;-inkscape-font-specification:Abandoned Bitplane"
       id="rect3647"
       clip-path="url(#clipPath3649)"
       transform="matrix(1.8921673,0,0,1.7135601,1925.5829,674.78029)"
       inkscape:connector-curvature="0"
       d="m 14,9 c -2.752703,0 -5,2.247297 -5,5 l 0,68 c 0,2.752703 2.247297,5 5,5 l 68,0 c 2.752703,0 5,-2.247297 5,-5 L 87,14 C 87,11.247297 84.752703,9 82,9 L 14,9 z m 0,2 68,0 c 1.679297,0 3,1.320703 3,3 l 0,68 c 0,1.679297 -1.320703,3 -3,3 l -68,0 c -1.679297,0 -3,-1.320703 -3,-3 l 0,-68 c 0,-1.679297 1.320703,-3 3,-3 z" />
    <path
       style="opacity:0.16000001;fill:#6788cc;fill-opacity:1;fill-rule:nonzero;stroke:none;display:none"
       id="path3709"
       inkscape:connector-curvature="0"
       d="m 2160.3806,691.91589 c -4.1931,0 -7.5687,3.05699 -7.5687,6.85424 l 0,116.52209 c 0,3.79725 3.3756,6.85424 7.5687,6.85424 l 128.6674,0 c 4.193,0 7.5686,-3.05699 7.5686,-6.85424 l 0,-116.52209 c 0,-3.79725 -3.3756,-6.85424 -7.5686,-6.85424 l -128.6674,0 z m 0,3.42712 128.6674,0 c 2.1576,0 3.7843,1.47315 3.7843,3.42712 l 0,116.52209 c 0,1.95397 -1.6267,3.42712 -3.7843,3.42712 l -128.6674,0 c -2.1577,0 -3.7843,-1.47315 -3.7843,-3.42712 l 0,-116.52209 c 0,-1.95397 1.6266,-3.42712 3.7843,-3.42712 z" />
    <path
       style="opacity:0.36000001;fill:#6788cc;fill-opacity:1;fill-rule:nonzero;stroke:none;display:none"
       id="path3707"
       inkscape:connector-curvature="0"
       d="m 2160.2116,691.91589 c -4.193,0 -7.5686,3.05699 -7.5686,6.85424 l 0,116.52209 c 0,3.79725 3.3756,6.85424 7.5686,6.85424 l 128.6674,0 c 4.1931,0 7.5687,-3.05699 7.5687,-6.85424 l 0,-116.52209 c 0,-3.79725 -3.3756,-6.85424 -7.5687,-6.85424 l -128.6674,0 z m 0,1.71356 128.6674,0 c 3.1672,0 5.6765,2.27244 5.6765,5.14068 l 0,116.52209 c 0,2.86824 -2.5093,5.14068 -5.6765,5.14068 l -128.6674,0 c -3.1672,0 -5.6765,-2.27244 -5.6765,-5.14068 l 0,-116.52209 c 0,-2.86824 2.5093,-5.14068 5.6765,-5.14068 z" />
    <rect
       style="opacity:0.1;fill:#6788cc;fill-opacity:1;fill-rule:nonzero;stroke:none;display:none;filter:url(#filter3794-0)"
       id="rect3171-5"
       clip-path="url(#clipPath3613-7)"
       y="15"
       x="15"
       ry="12"
       rx="12"
       height="66"
       width="66"
       transform="matrix(1.8921673,0,0,1.7135601,2133.7213,674.78029)" />
    <rect
       width="86"
       height="85"
       rx="6"
       ry="6"
       x="5"
       y="7"
       id="rect3745"
       style="opacity:0.9;fill:url(#linearGradient3560);fill-opacity:1;fill-rule:nonzero;stroke:none;display:none;filter:url(#filter3174)"
       transform="matrix(5.0048665,0,0,5.0048665,1110.9025,426.77248)" />
    <rect
       width="66"
       height="66"
       rx="12"
       ry="12"
       x="15"
       y="15"
       clip-path="url(#clipPath3613)"
       id="rect3171"
       style="opacity:0.1;fill:url(#linearGradient3557);fill-opacity:1;fill-rule:nonzero;stroke:#ffffff;stroke-width:0.5;stroke-linecap:round;stroke-linejoin:miter;stroke-miterlimit:4;stroke-opacity:1;stroke-dasharray:none;stroke-dashoffset:0;display:none;filter:url(#filter3794)"
       transform="matrix(5.0048665,0,0,5.0048665,1110.9025,426.77248)" />
    <text
       sodipodi:linespacing="125%"
       id="text4037"
       y="979.21637"
       x="-114.7506"
       style="font-size:200px;font-style:normal;font-variant:normal;font-weight:normal;font-stretch:normal;line-height:125%;letter-spacing:0px;word-spacing:0px;fill:#555753;fill-opacity:1;stroke:none;font-family:Gentium Book Basic;-inkscape-font-specification:Gentium Book Basic"
       xml:space="preserve"><tspan
         y="979.21637"
         x="-114.7506"
         id="tspan4039"
         sodipodi:role="line" /></text>
    <path
       id="path23392"
       d="m 681.88832,482.68758 c -7.14531,0 -13.73984,3.81198 -17.3125,10 -3.572,6.18782 -3.57244,13.81236 0,20 0.93042,1.61104 2.04646,3.04899 3.34375,4.3125 0.0826,0.0834 0.16601,0.1682 0.25,0.25 l 251.0625,250.8125 c 3.49073,2.78916 7.9381,4.35751 12.40625,4.375 7.25001,-0.0194 14.30437,-4.32132 17.65625,-10.75 3.35187,-6.42869 2.85356,-14.70088 -1.28125,-20.65625 -0.24864,-0.36263 -0.50925,-0.71705 -0.78125,-1.0625 l -250.90625,-251.125 c -0.0831,-0.0838 -0.16538,-0.16767 -0.25,-0.25 -3.62369,-3.65228 -8.63636,-5.90625 -14.1875,-5.90625 z m 60,0 c -7.14531,0 -13.73984,3.81198 -17.3125,10 -3.572,6.18782 -3.57244,13.81236 0,20 0.93042,1.61104 2.04646,3.04899 3.34375,4.3125 0.0826,0.0834 0.16601,0.1682 0.25,0.25 l 251.0625,250.8125 c 3.49073,2.78916 7.9381,4.35751 12.40625,4.375 7.25001,-0.0194 14.30438,-4.32132 17.65628,-10.75 3.3518,-6.42869 2.8535,-14.70088 -1.2813,-20.65625 -0.2486,-0.36263 -0.5092,-0.71705 -0.7812,-1.0625 l -250.90628,-251.125 c -0.0831,-0.0838 -0.16538,-0.16767 -0.25,-0.25 -3.62369,-3.65228 -8.63636,-5.90625 -14.1875,-5.90625 z m 60,0 c -7.14531,0 -13.73984,3.81198 -17.3125,10 -3.572,6.18782 -3.57244,13.81236 0,20 0.93042,1.61104 2.04646,3.04899 3.34375,4.3125 0.0826,0.0834 0.16601,0.1682 0.25,0.25 l 251.06253,250.8125 c 3.4907,2.78916 7.9381,4.35751 12.4062,4.375 7.25,-0.0194 14.3044,-4.32132 17.6563,-10.75 3.3518,-6.42869 2.8535,-14.70088 -1.2813,-20.65625 -0.2486,-0.36263 -0.5092,-0.71705 -0.7812,-1.0625 l -250.90628,-251.125 c -0.0831,-0.0838 -0.16538,-0.16767 -0.25,-0.25 -3.62369,-3.65228 -8.63636,-5.90625 -14.1875,-5.90625 z"
       style="color:#000000;fill:#000000;fill-opacity:0.31372549;fill-rule:nonzero;stroke:none;stroke-width:1;marker:none;visibility:visible;display:none;overflow:visible;enable-background:accumulate"
       inkscape:connector-curvature="0" />
    <path
       style="fill:#000000;fill-opacity:0.31372549;display:none"
       d="m 636.95082,624.71883 c -13.68822,0 -15.12334,0.90811 -18.53125,11.46875 -3.10272,9.6149 -5.58214,11.94264 -17.5,16.5625 -10.82927,4.19761 -13.95272,4.18843 -19.25,0 -6.42335,-5.07882 -14.49754,-3.37778 -22.4375,4.6875 -8.94958,9.09087 -9.56672,12.08171 -4.53125,21.6875 4.51032,8.60399 4.35382,12.31767 -1.0625,24.21875 -4.1018,9.01279 -6.071,10.85652 -14.4375,13.59375 -9.5265,3.11674 -11.25,6.04487 -11.25,19.03125 0.5279,4.71107 0.0399,10.88912 2.8125,14.125 l 27.4998,27.468 c 1.89574,5.36628 1.00954,6.65222 -2.34375,12.96875 -5.4123,10.19505 -5.11929,12.6863 3.8125,21.78125 l 303.8716,303.77777 c 0.89361,0.8261 1.71879,1.5093 2.5,2.125 5.4413,4.2885 8.61909,3.6237 16.34375,-0.6562 6.40819,-3.5506 8.97406,-4.3252 15.15625,-2.3125 l 27.0893,27.0601 c 1.96656,1.8769 3.99006,2.125 13.65625,2.125 13.92231,0 16.40271,-1.3453 18.28125,-9.75 2.49744,-11.1737 3.89535,-12.7018 15.71875,-17.5625 12.90303,-5.3046 13.89086,-5.387 19.71875,-1.4063 8.99543,6.1443 14.28383,5.595 22.53123,-2.3125 9.685,-9.2858 11.5877,-14.7284 7.3438,-21.1875 -6.2342,-9.4882 -6.4216,-12.1884 -1.5938,-23.7812 4.6978,-11.2805 7.3387,-13.5392 17.5938,-15.1875 7.6176,-1.2244 9.0811,-3.8602 9.5625,-16.9688 0.3354,-9.1338 0.011,-13.7319 -2.5,-16.6562 l -28.0303,-28.06099 c -1.7172,-5.771 -1.1248,-8.7527 1.5625,-12.4063 5.4952,-7.4711 4.8924,-14.3792 -1.9375,-21.7187 -0.1046,-0.1125 -0.2092,-0.2022 -0.3125,-0.3125 -0.626,-0.6688 -1.2337,-1.3152 -1.8125,-1.9063 L 714.01317,654.72033 c -0.0975,-0.0969 -0.21623,-0.18666 -0.3125,-0.28125 -0.11124,-0.10789 -0.20283,-0.20774 -0.3125,-0.3125 -7.56242,-7.33508 -11.42574,-7.39724 -20.6875,-2.5 -6.90096,3.64894 -9.81198,4.29749 -14.8125,2.59375 l -26.34255,-26.341 c -2.72899,-2.83931 -6.74787,-3.1605 -14.5948,-3.1605 z"
       id="path3132"
       inkscape:connector-curvature="0"
       sodipodi:nodetypes="sscssssscccsccssccsssssssssccsssccccsccs" />
    <text
       style="font-size:72.6697998px;text-anchor:middle;fill:#555753;stroke-width:0;font-family:Arial"
       transform="scale(4.0128361,0.24920031)"
       xml:space="preserve"
       font-size="30.001"
       id="svg_3"
       y="3389.0615"
       x="276.42096" />
    <g
       id="g28"
       style="fill:#555753"
       transform="matrix(2.1421967,0,0,2.1421967,928.35482,606.8456)" />
  </g>
</svg>
