<?xml version="1.0" encoding="UTF-8" standalone="no"?>
<svg
   xmlns:dc="http://purl.org/dc/elements/1.1/"
   xmlns:cc="http://creativecommons.org/ns#"
   xmlns:rdf="http://www.w3.org/1999/02/22-rdf-syntax-ns#"
   xmlns:svg="http://www.w3.org/2000/svg"
   xmlns="http://www.w3.org/2000/svg"
   xmlns:sodipodi="http://sodipodi.sourceforge.net/DTD/sodipodi-0.dtd"
   xmlns:inkscape="http://www.inkscape.org/namespaces/inkscape"
   width="512"
   height="512"
   id="svg2"
   version="1.1"
   inkscape:version="0.48.4 r9939"
   sodipodi:docname="zoom-original.svg">
  <metadata
     id="metadata256">
    <rdf:RDF>
      <cc:Work
         rdf:about="">
        <dc:format>image/svg+xml</dc:format>
        <dc:type
           rdf:resource="http://purl.org/dc/dcmitype/StillImage" />
        <dc:title></dc:title>
      </cc:Work>
    </rdf:RDF>
  </metadata>
  <sodipodi:namedview
     pagecolor="#ffffff"
     bordercolor="#666666"
     borderopacity="1"
     objecttolerance="10"
     gridtolerance="10"
     guidetolerance="10"
     inkscape:pageopacity="0"
     inkscape:pageshadow="2"
     inkscape:window-width="1309"
     inkscape:window-height="750"
     id="namedview254"
     showgrid="false"
     inkscape:zoom="0.921875"
     inkscape:cx="295.29006"
     inkscape:cy="245.92954"
     inkscape:window-x="55"
     inkscape:window-y="-3"
     inkscape:window-maximized="1"
     inkscape:current-layer="svg2" />
  <defs
     id="defs4" />
  <path
     d="M 267 14 C 139.9745 14 37 116.9745 37 244 C 37 254.978 37.7627 265.77595 39.25 276.34375 C 39.3558 276.49635 39.4574 276.6587 39.5625 276.8125 C 46.7788 332.6373 65.31555 387.20305 34.21875 426.28125 L 6 454.5 L 6 506 L 61.96875 506 L 87.65625 480.3125 L 87.6875 480.3125 C 128.3637 449.1509 182.1474 467.4029 241.75 472.625 C 241.76 472.6259 241.77125 472.6241 241.78125 472.625 C 250.06635 473.5346 258.4729 474 267 474 C 271.2987 474 275.572 473.8578 279.8125 473.625 C 400.8792 466.9786 497 366.7268 497 244 C 497 116.9745 394.0255 14 267 14 z M 267 75 C 360.3361 75 436 150.6639 436 244 C 436 337.3361 360.3361 413 267 413 C 173.6639 413 98 337.3361 98 244 C 98 150.6639 173.6639 75 267 75 z"
     transform="matrix(1 0 0 1 0 0)"
     fill="#555753"
     id="path178" />
  <rect
     width="77.80213"
     height="218.1888"
     x="-4630.1001"
     y="9006.9639"
     rx="25.13721"
     ry="30.96582"
     transform="matrix(0 -1 -1 0 9379.308 -4347.1988)"
     fill="#555753"
     id="rect180" />
  <text
     y="4890.6885"
     x="6998.1533"
     transform="matrix(-1 0 0 1 9379.308 -4347.1988)"
     font-family="Gentium Book Basic"
     word-spacing="0"
     line-height="125%"
     letter-spacing="0"
     font-size="208.33333"
     id="text182">
    <tspan
       y="4890.6885"
       x="6998.1533"
       id="tspan184" />
  </text>
  <text
     transform="matrix(-4.0128362 0 0 0.2492003 9379.308 -4347.1988)"
     font-size="75.69771"
     y="19062.643"
     x="2061.6677"
     font-family="Arial"
     text-anchor="middle"
     id="text186" />
  <text
     y="4929.8784"
     x="6992.3608"
     transform="matrix(-1 0 0 1 9379.308 -4347.1988)"
     font-family="Gentium Book Basic"
     word-spacing="0"
     line-height="125%"
     letter-spacing="0"
     font-size="208.33333"
     id="text188">
    <tspan
       y="4929.8784"
       x="6992.3608"
       id="tspan190" />
  </text>
  <text
     transform="matrix(-4.0128362 0 0 0.2492003 9379.308 -4347.1988)"
     font-size="75.69771"
     y="19219.906"
     x="2060.2241"
     font-family="Arial"
     text-anchor="middle"
     id="text192" />
  <text
     y="4872.6528"
     x="7219.0068"
     transform="matrix(-1.0508243 0 0 0.95163388 9379.308 -4347.1988)"
     fill="#555753"
     font-family="Gentium Book Basic"
     word-spacing="0"
     line-height="125%"
     letter-spacing="0"
     font-size="127.88146"
     id="text194">
    <tspan
       y="4872.6528"
       x="7219.0068"
       id="tspan196" />
  </text>
  <text
     transform="matrix(-4.2167858 0 0 0.23714745 9379.308 -4347.1988)"
     font-size="46.4656"
     y="19207.639"
     x="1994.0087"
     fill="#555753"
     font-family="Arial"
     text-anchor="middle"
     id="text198" />
  <text
     y="4837.2051"
     x="7623.0278"
     transform="matrix(-1.0508243 0 0 0.95163388 9379.308 -4347.1988)"
     fill="#555753"
     font-family="Gentium Book Basic"
     word-spacing="0"
     line-height="125%"
     letter-spacing="0"
     font-size="68.45876"
     id="text200">
    <tspan
       y="4837.2051"
       x="7623.0278"
       id="tspan202" />
  </text>
  <text
     transform="matrix(-4.2167856 0 0 0.23714746 9379.308 -4347.1988)"
     font-size="24.874426"
     y="19225.943"
     x="2004.0663"
     fill="#555753"
     font-family="Arial"
     text-anchor="middle"
     id="text204" />
  <text
     y="4756.9028"
     x="6468.1562"
     transform="matrix(-1 0 0 1 9379.308 -4347.1988)"
     fill="#555753"
     font-family="Gentium Book Basic"
     word-spacing="0"
     line-height="125%"
     letter-spacing="0"
     font-size="200"
     id="text206">
    <tspan
       y="4756.9028"
       x="6468.1562"
       id="tspan208" />
  </text>
  <text
     transform="matrix(-4.0128361 0 0 0.24920031 9379.308 -4347.1988)"
     font-size="72.6698"
     y="18548.299"
     x="1916.8834"
     fill="#555753"
     font-family="Arial"
     text-anchor="middle"
     id="text210" />
  <text
     y="4231.5371"
     x="7077.5815"
     transform="matrix(-1 0 0 1 9379.308 -4347.1988)"
     fill="#000"
     font-family="Gentium Book Basic"
     stroke="#cd1d31"
     word-spacing="0"
     line-height="125%"
     letter-spacing="0"
     font-size="208.33333"
     id="text212">
    <tspan
       y="4231.5371"
       x="7077.5815"
       id="tspan214" />
  </text>
  <text
     transform="matrix(-4.0128362 0 0 0.2492003 9379.308 -4347.1988)"
     font-size="75.69771"
     y="16417.576"
     x="2081.4612"
     fill="#000"
     font-family="Arial"
     text-anchor="middle"
     stroke="none"
     id="text216" />
  <text
     y="4270.7271"
     x="7071.7891"
     transform="matrix(-1 0 0 1 9379.308 -4347.1988)"
     fill="#000"
     font-family="Gentium Book Basic"
     stroke="#cd1d31"
     word-spacing="0"
     line-height="125%"
     letter-spacing="0"
     font-size="208.33333"
     id="text218">
    <tspan
       y="4270.7271"
       x="7071.7891"
       id="tspan220" />
  </text>
  <text
     transform="matrix(-4.0128362 0 0 0.2492003 9379.308 -4347.1988)"
     font-size="75.69771"
     y="16574.84"
     x="2080.0178"
     fill="#000"
     font-family="Arial"
     text-anchor="middle"
     stroke="none"
     id="text222" />
  <text
     y="4180.0005"
     x="7294.5933"
     transform="matrix(-1.0508243 0 0 0.95163388 9379.308 -4347.1988)"
     fill="#555753"
     font-family="Gentium Book Basic"
     stroke="#cd1d31"
     word-spacing="0"
     line-height="125%"
     letter-spacing="0"
     font-size="127.88146"
     id="text224">
    <tspan
       y="4180.0005"
       x="7294.5933"
       id="tspan226" />
  </text>
  <text
     transform="matrix(-4.2167858 0 0 0.23714745 9379.308 -4347.1988)"
     font-size="46.4656"
     y="16428.139"
     x="2012.8448"
     fill="#555753"
     font-family="Arial"
     text-anchor="middle"
     stroke="#cd1d31"
     id="text228" />
  <text
     y="4144.5527"
     x="7698.6147"
     transform="matrix(-1.0508243 0 0 0.95163388 9379.308 -4347.1988)"
     fill="#555753"
     font-family="Gentium Book Basic"
     stroke="#cd1d31"
     word-spacing="0"
     line-height="125%"
     letter-spacing="0"
     font-size="68.45876"
     id="text230">
    <tspan
       y="4144.5527"
       x="7698.6147"
       id="tspan232" />
  </text>
  <text
     transform="matrix(-4.2167856 0 0 0.23714746 9379.308 -4347.1988)"
     font-size="24.874426"
     y="16446.443"
     x="2022.9026"
     fill="#555753"
     font-family="Arial"
     text-anchor="middle"
     stroke="#cd1d31"
     id="text234" />
  <text
     y="4097.7515"
     x="6547.5845"
     transform="matrix(-1 0 0 1 9379.308 -4347.1988)"
     fill="#555753"
     font-family="Gentium Book Basic"
     stroke="#cd1d31"
     word-spacing="0"
     line-height="125%"
     letter-spacing="0"
     font-size="200"
     id="text236">
    <tspan
       y="4097.7515"
       x="6547.5845"
       id="tspan238" />
  </text>
  <text
     transform="matrix(-4.0128361 0 0 0.24920031 9379.308 -4347.1988)"
     font-size="72.6698"
     y="15903.231"
     x="1936.6769"
     fill="#555753"
     font-family="Arial"
     text-anchor="middle"
     stroke="none"
     id="text240" />
  <text
     y="3944.1008"
     x="7807.0146"
     transform="matrix(-1 0 0 1 9379.308 -4347.1988)"
     fill="#000"
     font-family="Gentium Book Basic"
     stroke="#cd1d31"
     word-spacing="0"
     line-height="125%"
     letter-spacing="0"
     font-size="200"
     id="text242">
    <tspan
       y="3944.1008"
       x="7807.0146"
       id="tspan244" />
  </text>
  <text
     transform="matrix(-4.0128361 0 0 0.24920031 9379.308 -4347.1988)"
     font-size="72.6698"
     y="15286.656"
     x="2250.5273"
     fill="#000"
     font-family="Arial"
     text-anchor="middle"
     stroke="none"
     id="text246" />
  <text
     y="3820.2834"
     x="8706.6299"
     transform="matrix(-1 0 0 1 9379.308 -4347.1988)"
     fill="#000"
     font-family="Gentium Book Basic"
     stroke="#cd1d31"
     word-spacing="0"
     line-height="125%"
     letter-spacing="0"
     font-size="200"
     id="text248">
    <tspan
       y="3820.2834"
       x="8706.6299"
       id="tspan250" />
  </text>
  <text
     transform="matrix(-4.0128361 0 0 0.24920031 9379.308 -4347.1988)"
     font-size="72.6698"
     y="14789.798"
     x="2474.7117"
     fill="#000"
     font-family="Arial"
     text-anchor="middle"
     stroke="none"
     id="text252" />
  <text
     xml:space="preserve"
     style="font-size:72px;font-style:normal;font-weight:bold;line-height:125%;letter-spacing:0px;word-spacing:0px;fill:#000000;fill-opacity:1;stroke:none;font-family:Symbola;-inkscape-font-specification:Symbola Bold;font-stretch:normal;font-variant:normal"
     x="-694.2373"
     y="321.08475"
     id="text3019"
     sodipodi:linespacing="125%"><tspan
       sodipodi:role="line"
       id="tspan3021"
       x="-694.2373"
       y="321.08475">1</tspan></text>
</svg>
