<?xml version="1.0" encoding="UTF-8" standalone="no"?>
<!-- Created with Inkscape (http://www.inkscape.org/) -->

<svg
   xmlns:dc="http://purl.org/dc/elements/1.1/"
   xmlns:cc="http://creativecommons.org/ns#"
   xmlns:rdf="http://www.w3.org/1999/02/22-rdf-syntax-ns#"
   xmlns:svg="http://www.w3.org/2000/svg"
   xmlns="http://www.w3.org/2000/svg"
   xmlns:sodipodi="http://sodipodi.sourceforge.net/DTD/sodipodi-0.dtd"
   xmlns:inkscape="http://www.inkscape.org/namespaces/inkscape"
   width="512"
   height="512"
   id="svg2"
   version="1.1"
   inkscape:version="0.48.4 r9939"
   sodipodi:docname="object-visible.svg">
  <defs
     id="defs4" />
  <sodipodi:namedview
     id="base"
     pagecolor="#ffffff"
     bordercolor="#666666"
     borderopacity="1.0"
     inkscape:pageopacity="0.0"
     inkscape:pageshadow="2"
     inkscape:zoom="1.4"
     inkscape:cx="365.28252"
     inkscape:cy="243.66048"
     inkscape:document-units="px"
     inkscape:current-layer="layer1"
     showgrid="false"
     inkscape:window-width="1309"
     inkscape:window-height="750"
     inkscape:window-x="55"
     inkscape:window-y="-3"
     inkscape:window-maximized="1" />
  <metadata
     id="metadata7">
    <rdf:RDF>
      <cc:Work
         rdf:about="">
        <dc:format>image/svg+xml</dc:format>
        <dc:type
           rdf:resource="http://purl.org/dc/dcmitype/StillImage" />
        <dc:title />
      </cc:Work>
    </rdf:RDF>
  </metadata>
  <g
     inkscape:label="Layer 1"
     inkscape:groupmode="layer"
     id="layer1"
     transform="translate(0,-540.36218)">
    <path
       style="font-size:medium;font-style:normal;font-variant:normal;font-weight:normal;font-stretch:normal;text-indent:0;text-align:start;text-decoration:none;line-height:normal;letter-spacing:normal;word-spacing:normal;text-transform:none;direction:ltr;block-progression:tb;writing-mode:lr-tb;text-anchor:start;baseline-shift:baseline;color:#000000;fill:#555753;fill-opacity:1;stroke:none;stroke-width:37.26290512;marker:none;visibility:visible;display:inline;overflow:visible;enable-background:accumulate;font-family:Sans;-inkscape-font-specification:Sans"
       d="M 248.40625 76.9375 C 155.15905 78.087555 65.191382 132.49531 17.09375 230.5625 C 17.08685 230.5746 17.06938 230.58175 17.0625 230.59375 C 16.880183 230.96561 16.68111 231.31439 16.5 231.6875 C 12.973936 237.93387 9.6426107 244.35132 6.5625 251 L 2.375 260.03125 L 7.5 268.5625 C 9.8111413 272.41254 12.149997 276.14343 14.53125 279.78125 C 14.55151 279.81225 14.57349 279.8441 14.59375 279.875 C 71.823571 381.10753 161.99922 434.25576 253.53125 434.3125 C 345.06334 434.3692 436.26149 381.42744 495.78125 279.65625 C 495.94975 279.40731 495.96915 279.37714 495.84375 279.5625 C 495.89805 279.4822 495.94569 279.39291 496 279.3125 C 496.15056 279.05445 496.3186 278.82117 496.46875 278.5625 C 499.1622 274.55442 501.82055 270.46553 504.40625 266.25 L 510.3125 256.625 L 504.59375 246.90625 C 501.71858 242.02101 498.73158 237.28866 495.6875 232.65625 C 495.4718 232.2762 495.2166 231.94114 495 231.5625 C 436.03229 128.48231 343.52362 77.46464 252.84375 76.9375 C 251.36213 76.928887 249.88636 76.919245 248.40625 76.9375 z M 250.1875 149.84375 C 329.76647 149.61949 411.72355 184.12569 464.34375 256.21875 C 354.60437 398.57892 144.72976 396.73165 46.59375 258.3125 C 87.715319 188.4959 165.48588 151.22504 246.40625 149.875 C 247.66809 149.85395 248.92434 149.84731 250.1875 149.84375 z "
       transform="translate(0,540.36218)"
       id="path12996" />
    <path
       inkscape:connector-curvature="0"
       style="font-size:medium;font-style:normal;font-variant:normal;font-weight:normal;font-stretch:normal;text-indent:0;text-align:start;text-decoration:none;line-height:normal;letter-spacing:normal;word-spacing:normal;text-transform:none;direction:ltr;block-progression:tb;writing-mode:lr-tb;text-anchor:start;baseline-shift:baseline;color:#000000;fill:#555753;fill-opacity:1;stroke:none;stroke-width:3.42065500999999994;marker:none;visibility:visible;display:inline;overflow:visible;enable-background:accumulate;font-family:Sans;-inkscape-font-specification:Sans"
       d="m 255.84001,676.4156 c -18.99217,0 -36.92165,4.66294 -52.89317,12.64276 l 14.70688,29.41376 c 11.55447,-5.73372 24.38944,-9.03054 38.18629,-9.03054 47.7308,0 85.91915,38.44637 85.91915,86.17717 0,47.7308 -38.18835,85.91915 -85.91915,85.91915 -47.7308,0 -86.17717,-38.18835 -86.17717,-85.91915 0,-11.158 2.09542,-21.69774 5.93436,-31.47789 l -30.18781,-12.90077 c -5.57347,13.75622 -8.77253,28.67778 -8.77253,44.37866 0,65.57936 53.62379,118.94513 119.20315,118.94513 65.57936,0 118.94513,-53.36577 118.94513,-118.94513 0,-65.57936 -53.36577,-119.20315 -118.94513,-119.20315 z"
       id="path13766" />
    <path
       inkscape:connector-curvature="0"
       style="fill:#555753;stroke:none"
       d="m 255.84001,731.11488 c -10.28495,0 -19.99897,2.4 -28.63972,6.7084 l 25.54353,51.34508 5.16031,10.0626 -10.32062,-4.38626 -51.86111,-22.18933 c -2.75461,7.164 -4.38626,14.84658 -4.38626,22.96338 0,35.54082 28.96304,64.50386 64.50387,64.50386 35.54074,0 64.50387,-28.96304 64.50387,-64.50386 0,-35.54075 -28.96313,-64.50387 -64.50387,-64.50387 z"
       id="path13768" />
  </g>
</svg>
