<?xml version="1.0" encoding="UTF-8" standalone="no"?>
<!-- Created with Inkscape (http://www.inkscape.org/) -->

<svg
   xmlns:dc="http://purl.org/dc/elements/1.1/"
   xmlns:cc="http://creativecommons.org/ns#"
   xmlns:rdf="http://www.w3.org/1999/02/22-rdf-syntax-ns#"
   xmlns:svg="http://www.w3.org/2000/svg"
   xmlns="http://www.w3.org/2000/svg"
   xmlns:xlink="http://www.w3.org/1999/xlink"
   xmlns:sodipodi="http://sodipodi.sourceforge.net/DTD/sodipodi-0.dtd"
   xmlns:inkscape="http://www.inkscape.org/namespaces/inkscape"
   version="1.0"
   width="512"
   height="512"
   id="svg2408"
   style="display:inline"
   inkscape:version="0.48.4 r9939"
   sodipodi:docname="view-list-details.svg">
  <sodipodi:namedview
     pagecolor="#ffffff"
     bordercolor="#666666"
     borderopacity="1"
     objecttolerance="10"
     gridtolerance="10"
     guidetolerance="10"
     inkscape:pageopacity="0"
     inkscape:pageshadow="2"
     inkscape:window-width="1309"
     inkscape:window-height="750"
     id="namedview76"
     showgrid="false"
     inkscape:zoom="0.30729167"
     inkscape:cx="381.39656"
     inkscape:cy="424.08403"
     inkscape:window-x="55"
     inkscape:window-y="-3"
     inkscape:window-maximized="1"
     inkscape:current-layer="svg2408" />
  <defs
     id="defs2410">
    <linearGradient
       id="linearGradient3637">
      <stop
         id="stop3639"
         style="stop-color:#f0f0f0;stop-opacity:1"
         offset="0" />
      <stop
         id="stop3641"
         style="stop-color:#dcdcdc;stop-opacity:1"
         offset="1" />
    </linearGradient>
    <linearGradient
       x1="45.447727"
       y1="92.539597"
       x2="45.447727"
       y2="7.0165396"
       id="ButtonShadow"
       gradientUnits="userSpaceOnUse"
       gradientTransform="scale(1.0058652,0.994169)">
      <stop
         id="stop3750"
         style="stop-color:#000000;stop-opacity:1"
         offset="0" />
      <stop
         id="stop3752"
         style="stop-color:#000000;stop-opacity:0.58823532"
         offset="1" />
    </linearGradient>
    <linearGradient
       id="linearGradient3737">
      <stop
         id="stop3739"
         style="stop-color:#ffffff;stop-opacity:1"
         offset="0" />
      <stop
         id="stop3741"
         style="stop-color:#ffffff;stop-opacity:0"
         offset="1" />
    </linearGradient>
    <linearGradient
       id="linearGradient3700">
      <stop
         id="stop3702"
         style="stop-color:#2276c5;stop-opacity:1"
         offset="0" />
      <stop
         id="stop3704"
         style="stop-color:#68baf4;stop-opacity:1"
         offset="1" />
    </linearGradient>
    <filter
       color-interpolation-filters="sRGB"
       id="filter3174">
      <feGaussianBlur
         id="feGaussianBlur3176"
         stdDeviation="1.71" />
    </filter>
    <linearGradient
       x1="36.357143"
       y1="6"
       x2="36.357143"
       y2="63.893143"
       id="linearGradient3188"
       xlink:href="#linearGradient3737"
       gradientUnits="userSpaceOnUse" />
    <radialGradient
       cx="48"
       cy="90.171875"
       r="42"
       fx="48"
       fy="90.171875"
       id="radialGradient3619"
       xlink:href="#linearGradient3737"
       gradientUnits="userSpaceOnUse"
       gradientTransform="matrix(1.1573129,0,0,0.99590774,-7.5510206,0.19713193)" />
    <linearGradient
       x1="48"
       y1="90"
       x2="48"
       y2="5.9877172"
       id="linearGradient2843"
       xlink:href="#linearGradient3700"
       gradientUnits="userSpaceOnUse"
       gradientTransform="translate(0,100)" />
    <clipPath
       id="clipPath3625">
      <path
         d="M 0,0 0,96 96,96 96,0 0,0 z m 12,6 72,0 c 3.324,0 6,2.676 6,6 l 0,72 c 0,3.324 -2.676,6 -6,6 L 12,90 C 8.676,90 6,87.324 6,84 L 6,12 C 6,8.676 8.676,6 12,6 z"
         inkscape:connector-curvature="0"
         id="path3627"
         style="fill:#ffffff;fill-opacity:1;stroke:none" />
    </clipPath>
    <linearGradient
       x1="44.512066"
       y1="6"
       x2="44.512066"
       y2="90.015434"
       id="linearGradient3643"
       xlink:href="#linearGradient3637"
       gradientUnits="userSpaceOnUse" />
    <clipPath
       id="clipPath3649">
      <rect
         width="76"
         height="76"
         rx="4"
         ry="4"
         x="10"
         y="10"
         id="rect3651"
         style="fill:#ffffff;fill-opacity:1;fill-rule:nonzero;stroke:none" />
    </clipPath>
    <filter
       color-interpolation-filters="sRGB"
       id="filter3657">
      <feGaussianBlur
         id="feGaussianBlur3659"
         stdDeviation="1.14" />
    </filter>
    <filter
       id="filter3657-1"
       color-interpolation-filters="sRGB">
      <feGaussianBlur
         stdDeviation="1.14"
         id="feGaussianBlur3659-5" />
    </filter>
    <clipPath
       id="clipPath3649-3">
      <rect
         style="fill:#ffffff;fill-opacity:1;fill-rule:nonzero;stroke:none"
         id="rect3651-3"
         y="10"
         x="10"
         ry="4"
         rx="4"
         height="76"
         width="76" />
    </clipPath>
    <clipPath
       id="clipPath3625-1">
      <path
         style="fill:#ffffff;fill-opacity:1;stroke:none"
         id="path3627-5"
         inkscape:connector-curvature="0"
         d="M 0,0 0,96 96,96 96,0 0,0 z m 12,6 72,0 c 3.324,0 6,2.676 6,6 l 0,72 c 0,3.324 -2.676,6 -6,6 L 12,90 C 8.676,90 6,87.324 6,84 L 6,12 C 6,8.676 8.676,6 12,6 z" />
    </clipPath>
    <filter
       id="filter3174-7"
       color-interpolation-filters="sRGB">
      <feGaussianBlur
         stdDeviation="1.71"
         id="feGaussianBlur3176-9" />
    </filter>
    <linearGradient
       id="linearGradient3700-0">
      <stop
         offset="0"
         style="stop-color:#2276c5;stop-opacity:1"
         id="stop3702-5" />
      <stop
         offset="1"
         style="stop-color:#68baf4;stop-opacity:1"
         id="stop3704-9" />
    </linearGradient>
    <linearGradient
       id="linearGradient3737-9">
      <stop
         offset="0"
         style="stop-color:#ffffff;stop-opacity:1"
         id="stop3739-3" />
      <stop
         offset="1"
         style="stop-color:#ffffff;stop-opacity:0"
         id="stop3741-4" />
    </linearGradient>
    <linearGradient
       gradientTransform="scale(1.0058652,0.994169)"
       gradientUnits="userSpaceOnUse"
       id="ButtonShadow-2"
       y2="7.0165396"
       x2="45.447727"
       y1="92.539597"
       x1="45.447727">
      <stop
         offset="0"
         style="stop-color:#000000;stop-opacity:1"
         id="stop3750-6" />
      <stop
         offset="1"
         style="stop-color:#000000;stop-opacity:0.58823532"
         id="stop3752-57" />
    </linearGradient>
    <linearGradient
       id="linearGradient3637-9">
      <stop
         offset="0"
         style="stop-color:#f0f0f0;stop-opacity:1"
         id="stop3639-6" />
      <stop
         offset="1"
         style="stop-color:#dcdcdc;stop-opacity:1"
         id="stop3641-0" />
    </linearGradient>
    <linearGradient
       inkscape:collect="always"
       xlink:href="#linearGradient3700-0"
       id="linearGradient3271"
       gradientUnits="userSpaceOnUse"
       gradientTransform="translate(0,516)"
       x1="48"
       y1="90"
       x2="48"
       y2="5.9877172" />
    <radialGradient
       inkscape:collect="always"
       xlink:href="#linearGradient3737-9"
       id="radialGradient3274"
       gradientUnits="userSpaceOnUse"
       gradientTransform="matrix(1.1573129,0,0,0.99590774,-7.5510206,416.19713)"
       cx="48"
       cy="90.171875"
       fx="48"
       fy="90.171875"
       r="42" />
    <linearGradient
       inkscape:collect="always"
       xlink:href="#linearGradient3737-9"
       id="linearGradient3277"
       gradientUnits="userSpaceOnUse"
       x1="36.357143"
       y1="6"
       x2="36.357143"
       y2="63.893143"
       gradientTransform="translate(0,416)" />
    <linearGradient
       inkscape:collect="always"
       xlink:href="#linearGradient3637-9"
       id="linearGradient3280"
       gradientUnits="userSpaceOnUse"
       x1="44.512066"
       y1="6"
       x2="44.512066"
       y2="90.015434"
       gradientTransform="translate(0,416)" />
    <linearGradient
       inkscape:collect="always"
       xlink:href="#ButtonShadow-2"
       id="linearGradient3284"
       gradientUnits="userSpaceOnUse"
       gradientTransform="scale(1.0058652,0.994169)"
       x1="45.447727"
       y1="92.539597"
       x2="45.447727"
       y2="7.0165396" />
    <filter
       id="filter3657-8"
       color-interpolation-filters="sRGB">
      <feGaussianBlur
         stdDeviation="1.14"
         id="feGaussianBlur3659-6" />
    </filter>
    <clipPath
       id="clipPath3649-6">
      <rect
         style="fill:#ffffff;fill-opacity:1;fill-rule:nonzero;stroke:none"
         id="rect3651-9"
         y="10"
         x="10"
         ry="4"
         rx="4"
         height="76"
         width="76" />
    </clipPath>
    <linearGradient
       gradientUnits="userSpaceOnUse"
       xlink:href="#linearGradient3637-2"
       id="linearGradient3643-1"
       y2="90.015434"
       x2="44.512066"
       y1="6"
       x1="44.512066" />
    <clipPath
       id="clipPath3625-2">
      <path
         style="fill:#ffffff;fill-opacity:1;stroke:none"
         id="path3627-2"
         inkscape:connector-curvature="0"
         d="M 0,0 0,96 96,96 96,0 0,0 z m 12,6 72,0 c 3.324,0 6,2.676 6,6 l 0,72 c 0,3.324 -2.676,6 -6,6 L 12,90 C 8.676,90 6,87.324 6,84 L 6,12 C 6,8.676 8.676,6 12,6 z" />
    </clipPath>
    <linearGradient
       gradientTransform="translate(0,100)"
       gradientUnits="userSpaceOnUse"
       xlink:href="#linearGradient3700-9"
       id="linearGradient2843-3"
       y2="5.9877172"
       x2="48"
       y1="90"
       x1="48" />
    <radialGradient
       gradientTransform="matrix(1.1573129,0,0,0.99590774,-7.5510206,0.19713193)"
       gradientUnits="userSpaceOnUse"
       xlink:href="#linearGradient3737-1"
       id="radialGradient3619-1"
       fy="90.171875"
       fx="48"
       r="42"
       cy="90.171875"
       cx="48" />
    <linearGradient
       gradientUnits="userSpaceOnUse"
       xlink:href="#linearGradient3737-1"
       id="linearGradient3188-2"
       y2="63.893143"
       x2="36.357143"
       y1="6"
       x1="36.357143" />
    <filter
       id="filter3174-8"
       color-interpolation-filters="sRGB">
      <feGaussianBlur
         stdDeviation="1.71"
         id="feGaussianBlur3176-92" />
    </filter>
    <linearGradient
       id="linearGradient3700-9">
      <stop
         offset="0"
         style="stop-color:#2276c5;stop-opacity:1"
         id="stop3702-3" />
      <stop
         offset="1"
         style="stop-color:#68baf4;stop-opacity:1"
         id="stop3704-7" />
    </linearGradient>
    <linearGradient
       id="linearGradient3737-1">
      <stop
         offset="0"
         style="stop-color:#ffffff;stop-opacity:1"
         id="stop3739-1" />
      <stop
         offset="1"
         style="stop-color:#ffffff;stop-opacity:0"
         id="stop3741-1" />
    </linearGradient>
    <linearGradient
       gradientTransform="scale(1.0058652,0.994169)"
       gradientUnits="userSpaceOnUse"
       id="ButtonShadow-23"
       y2="7.0165396"
       x2="45.447727"
       y1="92.539597"
       x1="45.447727">
      <stop
         offset="0"
         style="stop-color:#000000;stop-opacity:1"
         id="stop3750-2" />
      <stop
         offset="1"
         style="stop-color:#000000;stop-opacity:0.58823532"
         id="stop3752-0" />
    </linearGradient>
    <linearGradient
       id="linearGradient3637-2">
      <stop
         offset="0"
         style="stop-color:#f0f0f0;stop-opacity:1"
         id="stop3639-3" />
      <stop
         offset="1"
         style="stop-color:#dcdcdc;stop-opacity:1"
         id="stop3641-6" />
    </linearGradient>
    <linearGradient
       inkscape:collect="always"
       xlink:href="#linearGradient3637-2"
       id="linearGradient3183"
       gradientUnits="userSpaceOnUse"
       x1="44.512066"
       y1="6"
       x2="44.512066"
       y2="90.015434" />
    <linearGradient
       inkscape:collect="always"
       xlink:href="#linearGradient3737-1"
       id="linearGradient3185"
       gradientUnits="userSpaceOnUse"
       x1="36.357143"
       y1="6"
       x2="36.357143"
       y2="63.893143" />
    <radialGradient
       inkscape:collect="always"
       xlink:href="#linearGradient3737-1"
       id="radialGradient3187"
       gradientUnits="userSpaceOnUse"
       gradientTransform="matrix(1.1573129,0,0,0.99590774,-7.5510206,0.19713193)"
       cx="48"
       cy="90.171875"
       fx="48"
       fy="90.171875"
       r="42" />
    <linearGradient
       inkscape:collect="always"
       xlink:href="#linearGradient3700-9"
       id="linearGradient3189"
       gradientUnits="userSpaceOnUse"
       gradientTransform="translate(0,100)"
       x1="48"
       y1="90"
       x2="48"
       y2="5.9877172" />
    <linearGradient
       inkscape:collect="always"
       xlink:href="#linearGradient3700-9"
       id="linearGradient3196"
       gradientUnits="userSpaceOnUse"
       gradientTransform="translate(0,516)"
       x1="48"
       y1="90"
       x2="48"
       y2="5.9877172" />
    <radialGradient
       inkscape:collect="always"
       xlink:href="#linearGradient3737-1"
       id="radialGradient3199"
       gradientUnits="userSpaceOnUse"
       gradientTransform="matrix(1.1573129,0,0,0.99590774,-7.5510206,416.19713)"
       cx="48"
       cy="90.171875"
       fx="48"
       fy="90.171875"
       r="42" />
    <linearGradient
       inkscape:collect="always"
       xlink:href="#linearGradient3737-1"
       id="linearGradient3202"
       gradientUnits="userSpaceOnUse"
       x1="36.357143"
       y1="6"
       x2="36.357143"
       y2="63.893143"
       gradientTransform="translate(0,416)" />
    <linearGradient
       inkscape:collect="always"
       xlink:href="#linearGradient3637-2"
       id="linearGradient3205"
       gradientUnits="userSpaceOnUse"
       x1="44.512066"
       y1="6"
       x2="44.512066"
       y2="90.015434"
       gradientTransform="translate(0,416)" />
    <linearGradient
       inkscape:collect="always"
       xlink:href="#ButtonShadow-23"
       id="linearGradient3209"
       gradientUnits="userSpaceOnUse"
       gradientTransform="scale(1.0058652,0.994169)"
       x1="45.447727"
       y1="92.539597"
       x2="45.447727"
       y2="7.0165396" />
  </defs>
  <metadata
     id="metadata2413">
    <rdf:RDF>
      <cc:Work
         rdf:about="">
        <dc:format>image/svg+xml</dc:format>
        <dc:type
           rdf:resource="http://purl.org/dc/dcmitype/StillImage" />
        <dc:title />
      </cc:Work>
    </rdf:RDF>
  </metadata>
  <rect
     style="opacity:0.9;fill:url(#linearGradient3284);fill-opacity:1;fill-rule:nonzero;stroke:none;display:none;filter:url(#filter3174-7)"
     id="rect3745-8"
     clip-path="url(#clipPath3625-1)"
     y="7"
     x="5"
     ry="6"
     rx="6"
     height="85"
     width="86"
     transform="translate(0,416)" />
  <rect
     style="opacity:0.7;fill:#000000;fill-opacity:1;fill-rule:nonzero;stroke:none;display:none"
     id="rect2419-5"
     y="422"
     x="6"
     ry="6"
     rx="6"
     height="84"
     width="84" />
  <path
     style="opacity:0.07999998;fill:#000000;fill-opacity:1;fill-rule:nonzero;stroke:none;display:none"
     id="rect3726-9"
     inkscape:connector-curvature="0"
     d="m 14,426 c -2.216,0 -4,1.784 -4,4 l 0,68 c 0,2.216 1.784,4 4,4 l 68,0 c 2.216,0 4,-1.784 4,-4 l 0,-68 c 0,-2.216 -1.784,-4 -4,-4 l -68,0 z m 0,3.0625 68,0 c 0.578769,0 0.9375,0.35873 0.9375,0.9375 l 0,68 c 0,0.57877 -0.358731,0.9375 -0.9375,0.9375 l -68,0 c -0.578769,0 -0.9375,-0.35873 -0.9375,-0.9375 l 0,-68 c 0,-0.57877 0.358731,-0.9375 0.9375,-0.9375 z" />
  <path
     style="fill:url(#linearGradient3280);fill-opacity:1;fill-rule:nonzero;stroke:none;display:none"
     id="rect3629-5"
     inkscape:connector-curvature="0"
     d="m 12,422 c -3.324,0 -6,2.676 -6,6 l 0,72 c 0,3.324 2.676,6 6,6 l 72,0 c 3.324,0 6,-2.676 6,-6 l 0,-72 c 0,-3.324 -2.676,-6 -6,-6 l -72,0 z m 2,4 68,0 c 2.216,0 4,1.784 4,4 l 0,68 c 0,2.216 -1.784,4 -4,4 l -68,0 c -2.216,0 -4,-1.784 -4,-4 l 0,-68 c 0,-2.216 1.784,-4 4,-4 z" />
  <path
     style="fill:url(#linearGradient3277);fill-opacity:1;fill-rule:nonzero;stroke:none;display:none"
     id="rect3728-1"
     inkscape:connector-curvature="0"
     d="m 12,422 c -3.324,0 -6,2.676 -6,6 l 0,2 0,68 0,2 c 0,0.33472 0.04135,0.6507 0.09375,0.96875 0.0487,0.2956 0.09704,0.59691 0.1875,0.875 0.00988,0.0304 0.020892,0.0636 0.03125,0.0937 0.098865,0.28777 0.2348802,0.54745 0.375,0.8125 0.1445918,0.27351 0.3156161,0.53561 0.5,0.78125 0.1843839,0.24563 0.3737765,0.47347 0.59375,0.6875 0.439947,0.42806 0.94291,0.81453 1.5,1.09375 0.278545,0.13961 0.5734731,0.24695 0.875,0.34375 -0.2562018,-0.10022 -0.4867109,-0.23627 -0.71875,-0.375 -0.00741,-0.004 -0.023866,0.005 -0.03125,0 -0.031933,-0.0193 -0.062293,-0.0425 -0.09375,-0.0625 -0.120395,-0.0767 -0.2310226,-0.16351 -0.34375,-0.25 -0.1061728,-0.0808 -0.2132809,-0.16111 -0.3125,-0.25 -0.1779299,-0.16143 -0.3474596,-0.34539 -0.5,-0.53125 -0.1075789,-0.13026 -0.2183939,-0.26529 -0.3125,-0.40625 -0.025089,-0.0384 -0.038446,-0.0859 -0.0625,-0.125 -0.064763,-0.10303 -0.1302275,-0.20452 -0.1875,-0.3125 -0.1010083,-0.19471 -0.2056748,-0.4157 -0.28125,-0.625 -0.00796,-0.0218 -0.023589,-0.0405 -0.03125,-0.0625 -0.031825,-0.0919 -0.035805,-0.18683 -0.0625,-0.28125 C 7.1884177,502.26838 7.1483606,502.17197 7.125,502.0625 7.0521214,501.72099 7,501.36429 7,501 l 0,-2 0,-68 0,-2 c 0,-2.78185 2.2181517,-5 5,-5 l 2,0 68,0 2,0 c 2.781848,0 5,2.21815 5,5 l 0,2 0,68 0,2 c 0,0.36429 -0.05212,0.72099 -0.125,1.0625 -0.04415,0.20689 -0.08838,0.39766 -0.15625,0.59375 -0.0077,0.022 -0.0233,0.0407 -0.03125,0.0625 -0.06274,0.17374 -0.138383,0.36745 -0.21875,0.53125 -0.04158,0.0828 -0.07904,0.16995 -0.125,0.25 -0.0546,0.0972 -0.126774,0.18835 -0.1875,0.28125 -0.09411,0.14096 -0.204921,0.27599 -0.3125,0.40625 -0.143174,0.17445 -0.303141,0.347 -0.46875,0.5 -0.01117,0.0102 -0.01998,0.0211 -0.03125,0.0312 -0.138386,0.12556 -0.285091,0.23444 -0.4375,0.34375 -0.102571,0.0731 -0.204318,0.15336 -0.3125,0.21875 -0.0074,0.005 -0.02384,-0.004 -0.03125,0 -0.232039,0.13873 -0.462548,0.27478 -0.71875,0.375 0.301527,-0.0968 0.596455,-0.20414 0.875,-0.34375 0.55709,-0.27922 1.060053,-0.66569 1.5,-1.09375 0.219973,-0.21403 0.409366,-0.44187 0.59375,-0.6875 0.184384,-0.24564 0.355408,-0.50774 0.5,-0.78125 0.14012,-0.26505 0.276135,-0.52473 0.375,-0.8125 0.01041,-0.0308 0.02133,-0.0627 0.03125,-0.0937 0.09046,-0.27809 0.1388,-0.5794 0.1875,-0.875 C 89.95865,500.6507 90,500.33472 90,500 l 0,-2 0,-68 0,-2 c 0,-3.324 -2.676,-6 -6,-6 l -72,0 z" />
  <path
     style="opacity:0.6;fill:url(#radialGradient3274);fill-opacity:1;fill-rule:nonzero;stroke:none;display:none"
     id="path3615-1"
     inkscape:connector-curvature="0"
     d="m 12,506 c -3.324,0 -6,-2.676 -6,-6 l 0,-2 0,-68 0,-2 c 0,-0.33472 0.04135,-0.6507 0.09375,-0.96875 0.0487,-0.2956 0.09704,-0.59692 0.1875,-0.875 0.00988,-0.0304 0.020892,-0.0636 0.03125,-0.0937 0.098865,-0.28777 0.2348802,-0.54745 0.375,-0.8125 0.1445918,-0.27351 0.3156161,-0.53562 0.5,-0.78125 0.1843839,-0.24564 0.3737765,-0.47347 0.59375,-0.6875 0.439947,-0.42806 0.94291,-0.81453 1.5,-1.09375 0.278545,-0.13961 0.5734731,-0.24695 0.875,-0.34375 -0.2562018,0.10022 -0.4867109,0.23627 -0.71875,0.375 -0.00741,0.004 -0.023866,-0.005 -0.03125,0 -0.031933,0.0193 -0.062293,0.0425 -0.09375,0.0625 -0.120395,0.0767 -0.2310226,0.16351 -0.34375,0.25 -0.1061728,0.0808 -0.2132809,0.16111 -0.3125,0.25 -0.1779299,0.16143 -0.3474596,0.34539 -0.5,0.53125 -0.1075789,0.13025 -0.2183939,0.26528 -0.3125,0.40625 -0.025089,0.0384 -0.038446,0.0859 -0.0625,0.125 -0.064763,0.10303 -0.1302275,0.20452 -0.1875,0.3125 -0.1010083,0.19471 -0.2056748,0.4157 -0.28125,0.625 -0.00796,0.0218 -0.023589,0.0405 -0.03125,0.0625 -0.031825,0.0919 -0.035805,0.18683 -0.0625,0.28125 -0.030332,0.10662 -0.070389,0.20303 -0.09375,0.3125 C 7.0521214,426.27901 7,426.6357 7,427 l 0,2 0,68 0,2 c 0,2.78185 2.2181517,5 5,5 l 2,0 68,0 2,0 c 2.781848,0 5,-2.21815 5,-5 l 0,-2 0,-68 0,-2 c 0,-0.3643 -0.05212,-0.72099 -0.125,-1.0625 -0.04415,-0.20689 -0.08838,-0.39766 -0.15625,-0.59375 -0.0077,-0.022 -0.0233,-0.0407 -0.03125,-0.0625 -0.06274,-0.17374 -0.138383,-0.36745 -0.21875,-0.53125 -0.04158,-0.0828 -0.07904,-0.16995 -0.125,-0.25 -0.0546,-0.0972 -0.126774,-0.18835 -0.1875,-0.28125 -0.09411,-0.14097 -0.204921,-0.276 -0.3125,-0.40625 -0.143174,-0.17445 -0.303141,-0.347 -0.46875,-0.5 -0.01117,-0.0102 -0.01998,-0.0211 -0.03125,-0.0312 -0.138386,-0.12556 -0.285091,-0.23444 -0.4375,-0.34375 -0.102571,-0.0731 -0.204318,-0.15336 -0.3125,-0.21875 -0.0074,-0.005 -0.02384,0.004 -0.03125,0 -0.232039,-0.13873 -0.462548,-0.27478 -0.71875,-0.375 0.301527,0.0968 0.596455,0.20414 0.875,0.34375 0.55709,0.27922 1.060053,0.66569 1.5,1.09375 0.219973,0.21403 0.409366,0.44186 0.59375,0.6875 0.184384,0.24563 0.355408,0.50774 0.5,0.78125 0.14012,0.26505 0.276135,0.52473 0.375,0.8125 0.01041,0.0308 0.02133,0.0627 0.03125,0.0937 0.09046,0.27808 0.1388,0.5794 0.1875,0.875 C 89.95865,427.3493 90,427.66528 90,428 l 0,2 0,68 0,2 c 0,3.324 -2.676,6 -6,6 l -72,0 z" />
  <rect
     style="fill:url(#linearGradient3271);fill-opacity:1;fill-rule:nonzero;stroke:none;display:none"
     id="rect2841-2"
     y="522"
     x="6"
     ry="6"
     rx="6"
     height="84"
     width="84" />
  <rect
     style="fill:#ff0000;fill-opacity:1;fill-rule:nonzero;stroke:none;display:none"
     id="rect3634-3"
     y="526"
     x="10"
     ry="4"
     rx="4"
     height="76"
     width="76" />
  <path
     style="font-size:medium;font-style:normal;font-variant:normal;font-weight:normal;font-stretch:normal;text-indent:0;text-align:start;text-decoration:none;line-height:normal;letter-spacing:normal;word-spacing:normal;text-transform:none;direction:ltr;block-progression:tb;writing-mode:lr-tb;text-anchor:start;color:#000000;fill:#000000;fill-opacity:1;stroke:none;stroke-width:2;marker:none;visibility:visible;display:none;overflow:visible;filter:url(#filter3657-1);enable-background:accumulate;font-family:Abandoned Bitplane;-inkscape-font-specification:Abandoned Bitplane"
     id="rect3647-6"
     clip-path="url(#clipPath3649-3)"
     transform="translate(-110,416)"
     inkscape:connector-curvature="0"
     d="m 14,9 c -2.752703,0 -5,2.247297 -5,5 l 0,68 c 0,2.752703 2.247297,5 5,5 l 68,0 c 2.752703,0 5,-2.247297 5,-5 L 87,14 C 87,11.247297 84.752703,9 82,9 L 14,9 z m 0,2 68,0 c 1.679297,0 3,1.320703 3,3 l 0,68 c 0,1.679297 -1.320703,3 -3,3 l -68,0 c -1.679297,0 -3,-1.320703 -3,-3 l 0,-68 c 0,-1.679297 1.320703,-3 3,-3 z" />
  <path
     style="opacity:0.16000001;fill:#000000;fill-opacity:1;fill-rule:nonzero;stroke:none;display:none"
     id="path3709-6"
     inkscape:connector-curvature="0"
     d="m 14.089286,426 c -2.216,0 -4,1.784 -4,4 l 0,68 c 0,2.216 1.784,4 4,4 l 68,0 c 2.216,0 4,-1.784 4,-4 l 0,-68 c 0,-2.216 -1.784,-4 -4,-4 l -68,0 z m 0,2 68,0 c 1.140301,0 2,0.8597 2,2 l 0,68 c 0,1.1403 -0.859699,2 -2,2 l -68,0 c -1.140301,0 -2,-0.8597 -2,-2 l 0,-68 c 0,-1.1403 0.859699,-2 2,-2 z" />
  <path
     style="opacity:0.36000001;fill:#000000;fill-opacity:1;fill-rule:nonzero;stroke:none;display:none"
     id="path3707-4"
     inkscape:connector-curvature="0"
     d="m 14,426 c -2.216,0 -4,1.784 -4,4 l 0,68 c 0,2.216 1.784,4 4,4 l 68,0 c 2.216,0 4,-1.784 4,-4 l 0,-68 c 0,-2.216 -1.784,-4 -4,-4 l -68,0 z m 0,1 68,0 c 1.673848,0 3,1.32615 3,3 l 0,68 c 0,1.67385 -1.326152,3 -3,3 l -68,0 c -1.673848,0 -3,-1.32615 -3,-3 l 0,-68 c 0,-1.67385 1.326152,-3 3,-3 z" />
  <g
     id="layer2"
     style="display:none"
     transform="translate(0,416)">
    <rect
       width="86"
       height="85"
       rx="6"
       ry="6"
       x="5"
       y="7"
       clip-path="url(#clipPath3625)"
       id="rect3745"
       style="opacity:0.9;fill:url(#ButtonShadow);fill-opacity:1;fill-rule:nonzero;stroke:none;filter:url(#filter3174)" />
  </g>
  <g
     id="layer1"
     style="display:none"
     transform="translate(0,416)">
    <rect
       width="84"
       height="84"
       rx="6"
       ry="6"
       x="6"
       y="6"
       id="rect2419"
       style="opacity:0.7;fill:#000000;fill-opacity:1;fill-rule:nonzero;stroke:none" />
    <path
       d="m 14,10 c -2.216,0 -4,1.784 -4,4 l 0,68 c 0,2.216 1.784,4 4,4 l 68,0 c 2.216,0 4,-1.784 4,-4 l 0,-68 c 0,-2.216 -1.784,-4 -4,-4 l -68,0 z m 0,3.0625 68,0 c 0.578769,0 0.9375,0.358731 0.9375,0.9375 l 0,68 c 0,0.578769 -0.358731,0.9375 -0.9375,0.9375 l -68,0 c -0.578769,0 -0.9375,-0.358731 -0.9375,-0.9375 l 0,-68 c 0,-0.578769 0.358731,-0.9375 0.9375,-0.9375 z"
       inkscape:connector-curvature="0"
       id="rect3726"
       style="opacity:0.07999998;fill:#000000;fill-opacity:1;fill-rule:nonzero;stroke:none" />
    <path
       d="M 12,6 C 8.676,6 6,8.676 6,12 l 0,72 c 0,3.324 2.676,6 6,6 l 72,0 c 3.324,0 6,-2.676 6,-6 L 90,12 C 90,8.676 87.324,6 84,6 L 12,6 z m 2,4 68,0 c 2.216,0 4,1.784 4,4 l 0,68 c 0,2.216 -1.784,4 -4,4 l -68,0 c -2.216,0 -4,-1.784 -4,-4 l 0,-68 c 0,-2.216 1.784,-4 4,-4 z"
       inkscape:connector-curvature="0"
       id="rect3629"
       style="fill:url(#linearGradient3643);fill-opacity:1;fill-rule:nonzero;stroke:none" />
    <path
       d="M 12,6 C 8.676,6 6,8.676 6,12 l 0,2 0,68 0,2 c 0,0.334721 0.04135,0.6507 0.09375,0.96875 0.0487,0.295596 0.09704,0.596915 0.1875,0.875 0.00988,0.03038 0.020892,0.0636 0.03125,0.09375 0.098865,0.287771 0.2348802,0.547452 0.375,0.8125 0.1445918,0.273507 0.3156161,0.535615 0.5,0.78125 0.1843839,0.245635 0.3737765,0.473472 0.59375,0.6875 0.439947,0.428056 0.94291,0.814526 1.5,1.09375 0.278545,0.139612 0.5734731,0.246947 0.875,0.34375 -0.2562018,-0.100222 -0.4867109,-0.236272 -0.71875,-0.375 -0.00741,-0.0044 -0.023866,0.0045 -0.03125,0 -0.031933,-0.0193 -0.062293,-0.04251 -0.09375,-0.0625 -0.120395,-0.0767 -0.2310226,-0.163513 -0.34375,-0.25 -0.1061728,-0.0808 -0.2132809,-0.161112 -0.3125,-0.25 C 8.4783201,88.557317 8.3087904,88.373362 8.15625,88.1875 8.0486711,88.057245 7.9378561,87.922215 7.84375,87.78125 7.818661,87.74287 7.805304,87.69538 7.78125,87.65625 7.716487,87.553218 7.6510225,87.451733 7.59375,87.34375 7.4927417,87.149044 7.3880752,86.928049 7.3125,86.71875 7.30454,86.69694 7.288911,86.6782 7.28125,86.65625 7.2494249,86.5643 7.2454455,86.469419 7.21875,86.375 7.1884177,86.268382 7.1483606,86.171969 7.125,86.0625 7.0521214,85.720988 7,85.364295 7,85 L 7,83 7,15 7,13 C 7,10.218152 9.2181517,8 12,8 l 2,0 68,0 2,0 c 2.781848,0 5,2.218152 5,5 l 0,2 0,68 0,2 c 0,0.364295 -0.05212,0.720988 -0.125,1.0625 -0.04415,0.206893 -0.08838,0.397658 -0.15625,0.59375 -0.0077,0.02195 -0.0233,0.04069 -0.03125,0.0625 -0.06274,0.173739 -0.138383,0.367449 -0.21875,0.53125 -0.04158,0.0828 -0.07904,0.169954 -0.125,0.25 -0.0546,0.09721 -0.126774,0.18835 -0.1875,0.28125 -0.09411,0.140965 -0.204921,0.275995 -0.3125,0.40625 -0.143174,0.17445 -0.303141,0.346998 -0.46875,0.5 -0.01117,0.0102 -0.01998,0.02115 -0.03125,0.03125 -0.138386,0.125556 -0.285091,0.234436 -0.4375,0.34375 -0.102571,0.07315 -0.204318,0.153364 -0.3125,0.21875 -0.0074,0.0045 -0.02384,-0.0044 -0.03125,0 -0.232039,0.138728 -0.462548,0.274778 -0.71875,0.375 0.301527,-0.0968 0.596455,-0.204138 0.875,-0.34375 0.55709,-0.279224 1.060053,-0.665694 1.5,-1.09375 0.219973,-0.214028 0.409366,-0.441865 0.59375,-0.6875 0.184384,-0.245635 0.355408,-0.507743 0.5,-0.78125 0.14012,-0.265048 0.276135,-0.524729 0.375,-0.8125 0.01041,-0.03078 0.02133,-0.06274 0.03125,-0.09375 0.09046,-0.278085 0.1388,-0.579404 0.1875,-0.875 C 89.95865,84.6507 90,84.334721 90,84 l 0,-2 0,-68 0,-2 C 90,8.676 87.324,6 84,6 L 12,6 z"
       inkscape:connector-curvature="0"
       id="rect3728"
       style="fill:url(#linearGradient3188);fill-opacity:1;fill-rule:nonzero;stroke:none" />
    <path
       d="M 12,90 C 8.676,90 6,87.324 6,84 L 6,82 6,14 6,12 c 0,-0.334721 0.04135,-0.6507 0.09375,-0.96875 0.0487,-0.295596 0.09704,-0.596915 0.1875,-0.875 C 6.29113,10.12587 6.302142,10.09265 6.3125,10.0625 6.411365,9.774729 6.5473802,9.515048 6.6875,9.25 6.8320918,8.976493 7.0031161,8.714385 7.1875,8.46875 7.3718839,8.223115 7.5612765,7.995278 7.78125,7.78125 8.221197,7.353194 8.72416,6.966724 9.28125,6.6875 9.559795,6.547888 9.8547231,6.440553 10.15625,6.34375 9.9000482,6.443972 9.6695391,6.580022 9.4375,6.71875 c -0.00741,0.0044 -0.023866,-0.0045 -0.03125,0 -0.031933,0.0193 -0.062293,0.04251 -0.09375,0.0625 -0.120395,0.0767 -0.2310226,0.163513 -0.34375,0.25 -0.1061728,0.0808 -0.2132809,0.161112 -0.3125,0.25 C 8.4783201,7.442683 8.3087904,7.626638 8.15625,7.8125 8.0486711,7.942755 7.9378561,8.077785 7.84375,8.21875 7.818661,8.25713 7.805304,8.30462 7.78125,8.34375 7.716487,8.446782 7.6510225,8.548267 7.59375,8.65625 7.4927417,8.850956 7.3880752,9.071951 7.3125,9.28125 7.30454,9.30306 7.288911,9.3218 7.28125,9.34375 7.2494249,9.4357 7.2454455,9.530581 7.21875,9.625 7.1884177,9.731618 7.1483606,9.828031 7.125,9.9375 7.0521214,10.279012 7,10.635705 7,11 l 0,2 0,68 0,2 c 0,2.781848 2.2181517,5 5,5 l 2,0 68,0 2,0 c 2.781848,0 5,-2.218152 5,-5 l 0,-2 0,-68 0,-2 C 89,10.635705 88.94788,10.279012 88.875,9.9375 88.83085,9.730607 88.78662,9.539842 88.71875,9.34375 88.71105,9.3218 88.69545,9.30306 88.6875,9.28125 88.62476,9.107511 88.549117,8.913801 88.46875,8.75 88.42717,8.6672 88.38971,8.580046 88.34375,8.5 88.28915,8.40279 88.216976,8.31165 88.15625,8.21875 88.06214,8.077785 87.951329,7.942755 87.84375,7.8125 87.700576,7.63805 87.540609,7.465502 87.375,7.3125 87.36383,7.3023 87.35502,7.29135 87.34375,7.28125 87.205364,7.155694 87.058659,7.046814 86.90625,6.9375 86.803679,6.86435 86.701932,6.784136 86.59375,6.71875 c -0.0074,-0.0045 -0.02384,0.0044 -0.03125,0 -0.232039,-0.138728 -0.462548,-0.274778 -0.71875,-0.375 0.301527,0.0968 0.596455,0.204138 0.875,0.34375 0.55709,0.279224 1.060053,0.665694 1.5,1.09375 0.219973,0.214028 0.409366,0.441865 0.59375,0.6875 0.184384,0.245635 0.355408,0.507743 0.5,0.78125 0.14012,0.265048 0.276135,0.524729 0.375,0.8125 0.01041,0.03078 0.02133,0.06274 0.03125,0.09375 0.09046,0.278085 0.1388,0.579404 0.1875,0.875 C 89.95865,11.3493 90,11.665279 90,12 l 0,2 0,68 0,2 c 0,3.324 -2.676,6 -6,6 l -72,0 z"
       inkscape:connector-curvature="0"
       id="path3615"
       style="opacity:0.6;fill:url(#radialGradient3619);fill-opacity:1;fill-rule:nonzero;stroke:none" />
    <rect
       width="84"
       height="84"
       rx="6"
       ry="6"
       x="6"
       y="106"
       id="rect2841"
       style="fill:url(#linearGradient2843);fill-opacity:1;fill-rule:nonzero;stroke:none" />
    <rect
       width="76"
       height="76"
       rx="4"
       ry="4"
       x="10"
       y="110"
       id="rect3634"
       style="fill:#ff0000;fill-opacity:1;fill-rule:nonzero;stroke:none" />
    <path
       d="m 14,9 c -2.752703,0 -5,2.247297 -5,5 l 0,68 c 0,2.752703 2.247297,5 5,5 l 68,0 c 2.752703,0 5,-2.247297 5,-5 L 87,14 C 87,11.247297 84.752703,9 82,9 L 14,9 z m 0,2 68,0 c 1.679297,0 3,1.320703 3,3 l 0,68 c 0,1.679297 -1.320703,3 -3,3 l -68,0 c -1.679297,0 -3,-1.320703 -3,-3 l 0,-68 c 0,-1.679297 1.320703,-3 3,-3 z"
       inkscape:connector-curvature="0"
       transform="translate(-110,0)"
       clip-path="url(#clipPath3649)"
       id="rect3647"
       style="font-size:medium;font-style:normal;font-variant:normal;font-weight:normal;font-stretch:normal;text-indent:0;text-align:start;text-decoration:none;line-height:normal;letter-spacing:normal;word-spacing:normal;text-transform:none;direction:ltr;block-progression:tb;writing-mode:lr-tb;text-anchor:start;color:#000000;fill:#000000;fill-opacity:1;stroke:none;stroke-width:2;marker:none;visibility:visible;display:inline;overflow:visible;filter:url(#filter3657);enable-background:accumulate;font-family:Abandoned Bitplane;-inkscape-font-specification:Abandoned Bitplane" />
    <path
       d="m 14.089286,10 c -2.216,0 -4,1.784 -4,4 l 0,68 c 0,2.216 1.784,4 4,4 l 68,0 c 2.216,0 4,-1.784 4,-4 l 0,-68 c 0,-2.216 -1.784,-4 -4,-4 l -68,0 z m 0,2 68,0 c 1.140301,0 2,0.859699 2,2 l 0,68 c 0,1.140301 -0.859699,2 -2,2 l -68,0 c -1.140301,0 -2,-0.859699 -2,-2 l 0,-68 c 0,-1.140301 0.859699,-2 2,-2 z"
       inkscape:connector-curvature="0"
       id="path3709"
       style="opacity:0.16000001;fill:#000000;fill-opacity:1;fill-rule:nonzero;stroke:none" />
    <path
       d="m 14,10 c -2.216,0 -4,1.784 -4,4 l 0,68 c 0,2.216 1.784,4 4,4 l 68,0 c 2.216,0 4,-1.784 4,-4 l 0,-68 c 0,-2.216 -1.784,-4 -4,-4 l -68,0 z m 0,1 68,0 c 1.673848,0 3,1.326152 3,3 l 0,68 c 0,1.673848 -1.326152,3 -3,3 l -68,0 c -1.673848,0 -3,-1.326152 -3,-3 l 0,-68 c 0,-1.673848 1.326152,-3 3,-3 z"
       inkscape:connector-curvature="0"
       id="path3707"
       style="opacity:0.36000001;fill:#000000;fill-opacity:1;fill-rule:nonzero;stroke:none" />
  </g>
  <g
     id="g3984"
     transform="translate(0,2.1610189)">
    <rect
       ry="9.7627115"
       y="122.58425"
       x="244.90523"
       height="19.525423"
       width="196.88136"
       id="rect3287"
       style="fill:#555753;fill-opacity:1;stroke:#555753;stroke-width:11;stroke-miterlimit:4;stroke-opacity:1;stroke-dasharray:none" />
    <rect
       style="fill:#555753;fill-opacity:1;stroke:#555753;stroke-width:11;stroke-miterlimit:4;stroke-opacity:1;stroke-dasharray:none"
       id="rect4057"
       width="196.88136"
       height="19.525423"
       x="244.90523"
       y="177.10968"
       ry="9.7627115" />
  </g>
  <g
     id="g3988"
     transform="translate(0,20.045499)">
    <rect
       ry="9.7627115"
       y="293.15839"
       x="244.90523"
       height="19.525423"
       width="140.50458"
       id="rect4059"
       style="fill:#555753;fill-opacity:1;stroke:#555753;stroke-width:11;stroke-miterlimit:4;stroke-opacity:1;stroke-dasharray:none" />
    <rect
       style="fill:#555753;fill-opacity:1;stroke:#555753;stroke-width:11;stroke-miterlimit:4;stroke-opacity:1;stroke-dasharray:none"
       id="rect4061"
       width="140.50458"
       height="19.525423"
       x="244.90523"
       y="347.68381"
       ry="9.7627115" />
  </g>
  <rect
     style="opacity:0.9;fill:url(#linearGradient3209);fill-opacity:1;fill-rule:nonzero;stroke:none;display:none;filter:url(#filter3174-8)"
     id="rect3745-0"
     clip-path="url(#clipPath3625-2)"
     y="7"
     x="5"
     ry="6"
     rx="6"
     height="85"
     width="86"
     transform="translate(0,416)" />
  <rect
     style="opacity:0.7;fill:#000000;fill-opacity:1;fill-rule:nonzero;stroke:none;display:none"
     id="rect2419-1"
     y="422"
     x="6"
     ry="6"
     rx="6"
     height="84"
     width="84" />
  <path
     style="opacity:0.07999998;fill:#000000;fill-opacity:1;fill-rule:nonzero;stroke:none;display:none"
     id="rect3726-4"
     inkscape:connector-curvature="0"
     d="m 14,426 c -2.216,0 -4,1.784 -4,4 l 0,68 c 0,2.216 1.784,4 4,4 l 68,0 c 2.216,0 4,-1.784 4,-4 l 0,-68 c 0,-2.216 -1.784,-4 -4,-4 l -68,0 z m 0,3.0625 68,0 c 0.578769,0 0.9375,0.35873 0.9375,0.9375 l 0,68 c 0,0.57877 -0.358731,0.9375 -0.9375,0.9375 l -68,0 c -0.578769,0 -0.9375,-0.35873 -0.9375,-0.9375 l 0,-68 c 0,-0.57877 0.358731,-0.9375 0.9375,-0.9375 z" />
  <path
     style="fill:url(#linearGradient3205);fill-opacity:1;fill-rule:nonzero;stroke:none;display:none"
     id="rect3629-50"
     inkscape:connector-curvature="0"
     d="m 12,422 c -3.324,0 -6,2.676 -6,6 l 0,72 c 0,3.324 2.676,6 6,6 l 72,0 c 3.324,0 6,-2.676 6,-6 l 0,-72 c 0,-3.324 -2.676,-6 -6,-6 l -72,0 z m 2,4 68,0 c 2.216,0 4,1.784 4,4 l 0,68 c 0,2.216 -1.784,4 -4,4 l -68,0 c -2.216,0 -4,-1.784 -4,-4 l 0,-68 c 0,-2.216 1.784,-4 4,-4 z" />
  <path
     style="fill:url(#linearGradient3202);fill-opacity:1;fill-rule:nonzero;stroke:none;display:none"
     id="rect3728-7"
     inkscape:connector-curvature="0"
     d="m 12,422 c -3.324,0 -6,2.676 -6,6 l 0,2 0,68 0,2 c 0,0.33472 0.04135,0.6507 0.09375,0.96875 0.0487,0.2956 0.09704,0.59691 0.1875,0.875 0.00988,0.0304 0.020892,0.0636 0.03125,0.0937 0.098865,0.28777 0.2348802,0.54745 0.375,0.8125 0.1445918,0.27351 0.3156161,0.53561 0.5,0.78125 0.1843839,0.24563 0.3737765,0.47347 0.59375,0.6875 0.439947,0.42806 0.94291,0.81453 1.5,1.09375 0.278545,0.13961 0.5734731,0.24695 0.875,0.34375 -0.2562018,-0.10022 -0.4867109,-0.23627 -0.71875,-0.375 -0.00741,-0.004 -0.023866,0.005 -0.03125,0 -0.031933,-0.0193 -0.062293,-0.0425 -0.09375,-0.0625 -0.120395,-0.0767 -0.2310226,-0.16351 -0.34375,-0.25 -0.1061728,-0.0808 -0.2132809,-0.16111 -0.3125,-0.25 -0.1779299,-0.16143 -0.3474596,-0.34539 -0.5,-0.53125 -0.1075789,-0.13026 -0.2183939,-0.26529 -0.3125,-0.40625 -0.025089,-0.0384 -0.038446,-0.0859 -0.0625,-0.125 -0.064763,-0.10303 -0.1302275,-0.20452 -0.1875,-0.3125 -0.1010083,-0.19471 -0.2056748,-0.4157 -0.28125,-0.625 -0.00796,-0.0218 -0.023589,-0.0405 -0.03125,-0.0625 -0.031825,-0.0919 -0.035805,-0.18683 -0.0625,-0.28125 C 7.1884177,502.26838 7.1483606,502.17197 7.125,502.0625 7.0521214,501.72099 7,501.36429 7,501 l 0,-2 0,-68 0,-2 c 0,-2.78185 2.2181517,-5 5,-5 l 2,0 68,0 2,0 c 2.781848,0 5,2.21815 5,5 l 0,2 0,68 0,2 c 0,0.36429 -0.05212,0.72099 -0.125,1.0625 -0.04415,0.20689 -0.08838,0.39766 -0.15625,0.59375 -0.0077,0.022 -0.0233,0.0407 -0.03125,0.0625 -0.06274,0.17374 -0.138383,0.36745 -0.21875,0.53125 -0.04158,0.0828 -0.07904,0.16995 -0.125,0.25 -0.0546,0.0972 -0.126774,0.18835 -0.1875,0.28125 -0.09411,0.14096 -0.204921,0.27599 -0.3125,0.40625 -0.143174,0.17445 -0.303141,0.347 -0.46875,0.5 -0.01117,0.0102 -0.01998,0.0211 -0.03125,0.0312 -0.138386,0.12556 -0.285091,0.23444 -0.4375,0.34375 -0.102571,0.0731 -0.204318,0.15336 -0.3125,0.21875 -0.0074,0.005 -0.02384,-0.004 -0.03125,0 -0.232039,0.13873 -0.462548,0.27478 -0.71875,0.375 0.301527,-0.0968 0.596455,-0.20414 0.875,-0.34375 0.55709,-0.27922 1.060053,-0.66569 1.5,-1.09375 0.219973,-0.21403 0.409366,-0.44187 0.59375,-0.6875 0.184384,-0.24564 0.355408,-0.50774 0.5,-0.78125 0.14012,-0.26505 0.276135,-0.52473 0.375,-0.8125 0.01041,-0.0308 0.02133,-0.0627 0.03125,-0.0937 0.09046,-0.27809 0.1388,-0.5794 0.1875,-0.875 C 89.95865,500.6507 90,500.33472 90,500 l 0,-2 0,-68 0,-2 c 0,-3.324 -2.676,-6 -6,-6 l -72,0 z" />
  <path
     style="opacity:0.6;fill:url(#radialGradient3199);fill-opacity:1;fill-rule:nonzero;stroke:none;display:none"
     id="path3615-9"
     inkscape:connector-curvature="0"
     d="m 12,506 c -3.324,0 -6,-2.676 -6,-6 l 0,-2 0,-68 0,-2 c 0,-0.33472 0.04135,-0.6507 0.09375,-0.96875 0.0487,-0.2956 0.09704,-0.59692 0.1875,-0.875 0.00988,-0.0304 0.020892,-0.0636 0.03125,-0.0937 0.098865,-0.28777 0.2348802,-0.54745 0.375,-0.8125 0.1445918,-0.27351 0.3156161,-0.53562 0.5,-0.78125 0.1843839,-0.24564 0.3737765,-0.47347 0.59375,-0.6875 0.439947,-0.42806 0.94291,-0.81453 1.5,-1.09375 0.278545,-0.13961 0.5734731,-0.24695 0.875,-0.34375 -0.2562018,0.10022 -0.4867109,0.23627 -0.71875,0.375 -0.00741,0.004 -0.023866,-0.005 -0.03125,0 -0.031933,0.0193 -0.062293,0.0425 -0.09375,0.0625 -0.120395,0.0767 -0.2310226,0.16351 -0.34375,0.25 -0.1061728,0.0808 -0.2132809,0.16111 -0.3125,0.25 -0.1779299,0.16143 -0.3474596,0.34539 -0.5,0.53125 -0.1075789,0.13025 -0.2183939,0.26528 -0.3125,0.40625 -0.025089,0.0384 -0.038446,0.0859 -0.0625,0.125 -0.064763,0.10303 -0.1302275,0.20452 -0.1875,0.3125 -0.1010083,0.19471 -0.2056748,0.4157 -0.28125,0.625 -0.00796,0.0218 -0.023589,0.0405 -0.03125,0.0625 -0.031825,0.0919 -0.035805,0.18683 -0.0625,0.28125 -0.030332,0.10662 -0.070389,0.20303 -0.09375,0.3125 C 7.0521214,426.27901 7,426.6357 7,427 l 0,2 0,68 0,2 c 0,2.78185 2.2181517,5 5,5 l 2,0 68,0 2,0 c 2.781848,0 5,-2.21815 5,-5 l 0,-2 0,-68 0,-2 c 0,-0.3643 -0.05212,-0.72099 -0.125,-1.0625 -0.04415,-0.20689 -0.08838,-0.39766 -0.15625,-0.59375 -0.0077,-0.022 -0.0233,-0.0407 -0.03125,-0.0625 -0.06274,-0.17374 -0.138383,-0.36745 -0.21875,-0.53125 -0.04158,-0.0828 -0.07904,-0.16995 -0.125,-0.25 -0.0546,-0.0972 -0.126774,-0.18835 -0.1875,-0.28125 -0.09411,-0.14097 -0.204921,-0.276 -0.3125,-0.40625 -0.143174,-0.17445 -0.303141,-0.347 -0.46875,-0.5 -0.01117,-0.0102 -0.01998,-0.0211 -0.03125,-0.0312 -0.138386,-0.12556 -0.285091,-0.23444 -0.4375,-0.34375 -0.102571,-0.0731 -0.204318,-0.15336 -0.3125,-0.21875 -0.0074,-0.005 -0.02384,0.004 -0.03125,0 -0.232039,-0.13873 -0.462548,-0.27478 -0.71875,-0.375 0.301527,0.0968 0.596455,0.20414 0.875,0.34375 0.55709,0.27922 1.060053,0.66569 1.5,1.09375 0.219973,0.21403 0.409366,0.44186 0.59375,0.6875 0.184384,0.24563 0.355408,0.50774 0.5,0.78125 0.14012,0.26505 0.276135,0.52473 0.375,0.8125 0.01041,0.0308 0.02133,0.0627 0.03125,0.0937 0.09046,0.27808 0.1388,0.5794 0.1875,0.875 C 89.95865,427.3493 90,427.66528 90,428 l 0,2 0,68 0,2 c 0,3.324 -2.676,6 -6,6 l -72,0 z" />
  <rect
     style="fill:url(#linearGradient3196);fill-opacity:1;fill-rule:nonzero;stroke:none;display:none"
     id="rect2841-4"
     y="522"
     x="6"
     ry="6"
     rx="6"
     height="84"
     width="84" />
  <rect
     style="fill:#ff0000;fill-opacity:1;fill-rule:nonzero;stroke:none;display:none"
     id="rect3634-9"
     y="526"
     x="10"
     ry="4"
     rx="4"
     height="76"
     width="76" />
  <path
     style="font-size:medium;font-style:normal;font-variant:normal;font-weight:normal;font-stretch:normal;text-indent:0;text-align:start;text-decoration:none;line-height:normal;letter-spacing:normal;word-spacing:normal;text-transform:none;direction:ltr;block-progression:tb;writing-mode:lr-tb;text-anchor:start;color:#000000;fill:#000000;fill-opacity:1;stroke:none;stroke-width:2;marker:none;visibility:visible;display:none;overflow:visible;filter:url(#filter3657-8);enable-background:accumulate;font-family:Abandoned Bitplane;-inkscape-font-specification:Abandoned Bitplane"
     id="rect3647-2"
     clip-path="url(#clipPath3649-6)"
     transform="translate(-110,416)"
     inkscape:connector-curvature="0"
     d="m 14,9 c -2.752703,0 -5,2.247297 -5,5 l 0,68 c 0,2.752703 2.247297,5 5,5 l 68,0 c 2.752703,0 5,-2.247297 5,-5 L 87,14 C 87,11.247297 84.752703,9 82,9 L 14,9 z m 0,2 68,0 c 1.679297,0 3,1.320703 3,3 l 0,68 c 0,1.679297 -1.320703,3 -3,3 l -68,0 c -1.679297,0 -3,-1.320703 -3,-3 l 0,-68 c 0,-1.679297 1.320703,-3 3,-3 z" />
  <path
     style="opacity:0.16000001;fill:#000000;fill-opacity:1;fill-rule:nonzero;stroke:none;display:none"
     id="path3709-61"
     inkscape:connector-curvature="0"
     d="m 14.089286,426 c -2.216,0 -4,1.784 -4,4 l 0,68 c 0,2.216 1.784,4 4,4 l 68,0 c 2.216,0 4,-1.784 4,-4 l 0,-68 c 0,-2.216 -1.784,-4 -4,-4 l -68,0 z m 0,2 68,0 c 1.140301,0 2,0.8597 2,2 l 0,68 c 0,1.1403 -0.859699,2 -2,2 l -68,0 c -1.140301,0 -2,-0.8597 -2,-2 l 0,-68 c 0,-1.1403 0.859699,-2 2,-2 z" />
  <path
     style="opacity:0.36000001;fill:#000000;fill-opacity:1;fill-rule:nonzero;stroke:none;display:none"
     id="path3707-1"
     inkscape:connector-curvature="0"
     d="m 14,426 c -2.216,0 -4,1.784 -4,4 l 0,68 c 0,2.216 1.784,4 4,4 l 68,0 c 2.216,0 4,-1.784 4,-4 l 0,-68 c 0,-2.216 -1.784,-4 -4,-4 l -68,0 z m 0,1 68,0 c 1.673848,0 3,1.32615 3,3 l 0,68 c 0,1.67385 -1.326152,3 -3,3 l -68,0 c -1.673848,0 -3,-1.32615 -3,-3 l 0,-68 c 0,-1.67385 1.326152,-3 3,-3 z" />
  <rect
     style="fill:none;stroke:#555753;stroke-width:35.08555984;stroke-linecap:round;stroke-linejoin:round;stroke-miterlimit:4;stroke-opacity:1;stroke-dasharray:none"
     id="rect3795"
     width="464.91443"
     height="464.91443"
     x="23.542786"
     y="23.542786"
     ry="28.758642" />
  <path
     sodipodi:type="arc"
     style="fill:none;stroke:#555753;stroke-width:51.72349167;stroke-linecap:square;stroke-linejoin:round;stroke-miterlimit:4;stroke-opacity:1;stroke-dasharray:none"
     id="path3801"
     sodipodi:cx="-572.97223"
     sodipodi:cy="149.57782"
     sodipodi:rx="66.731705"
     sodipodi:ry="66.731705"
     d="m -506.24052,149.57782 a 66.731705,66.731705 0 1 1 -133.46341,0 66.731705,66.731705 0 1 1 133.46341,0 z"
     transform="matrix(0.80166904,0,0,0.80166904,601.5455,41.858789)" />
  <path
     transform="matrix(0.80166904,0,0,0.80166904,601.5455,230.3174)"
     d="m -506.24052,149.57782 a 66.731705,66.731705 0 1 1 -133.46341,0 66.731705,66.731705 0 1 1 133.46341,0 z"
     sodipodi:ry="66.731705"
     sodipodi:rx="66.731705"
     sodipodi:cy="149.57782"
     sodipodi:cx="-572.97223"
     id="path3813"
     style="fill:none;stroke:#555753;stroke-width:51.72349167;stroke-linecap:square;stroke-linejoin:round;stroke-miterlimit:4;stroke-opacity:1;stroke-dasharray:none"
     sodipodi:type="arc" />
</svg>
