<?xml version="1.0" encoding="UTF-8" standalone="no"?>
<svg
   xmlns:dc="http://purl.org/dc/elements/1.1/"
   xmlns:cc="http://creativecommons.org/ns#"
   xmlns:rdf="http://www.w3.org/1999/02/22-rdf-syntax-ns#"
   xmlns:svg="http://www.w3.org/2000/svg"
   xmlns="http://www.w3.org/2000/svg"
   xmlns:sodipodi="http://sodipodi.sourceforge.net/DTD/sodipodi-0.dtd"
   xmlns:inkscape="http://www.inkscape.org/namespaces/inkscape"
   width="512"
   height="512"
   id="svg2"
   version="1.1"
   inkscape:version="0.48.4 r9939"
   sodipodi:docname="zoom-select.svg">
  <metadata
     id="metadata10">
    <rdf:RDF>
      <cc:Work
         rdf:about="">
        <dc:format>image/svg+xml</dc:format>
        <dc:type
           rdf:resource="http://purl.org/dc/dcmitype/StillImage" />
      </cc:Work>
    </rdf:RDF>
  </metadata>
  <defs
     id="defs8" />
  <sodipodi:namedview
     pagecolor="#ffffff"
     bordercolor="#666666"
     borderopacity="1"
     objecttolerance="10"
     gridtolerance="10"
     guidetolerance="10"
     inkscape:pageopacity="0"
     inkscape:pageshadow="2"
     inkscape:window-width="1309"
     inkscape:window-height="750"
     id="namedview6"
     showgrid="false"
     inkscape:zoom="0.921875"
     inkscape:cx="265.4626"
     inkscape:cy="142.20782"
     inkscape:window-x="55"
     inkscape:window-y="-3"
     inkscape:window-maximized="1"
     inkscape:current-layer="svg2" />
  <path
     d="M 267 14 C 139.97451 14 37 116.97451 37 244 C 37 254.97804 37.762692 265.77587 39.25 276.34375 C 39.35576 276.4963 39.45742 276.65865 39.5625 276.8125 C 46.778792 332.63734 65.31549 387.20305 34.21875 426.28125 L 6 454.5 L 6 506 L 61.96875 506 L 87.65625 480.3125 L 87.6875 480.3125 C 128.3637 449.15088 182.14736 467.40291 241.75 472.625 C 241.7603 472.62591 241.77095 472.62409 241.78125 472.625 C 250.06631 473.5346 258.47295 474 267 474 C 271.29868 474 275.57196 473.8578 279.8125 473.625 C 400.87929 466.97864 497 366.72681 497 244 C 497 116.97451 394.02549 14 267 14 z M 267 75 C 360.33612 75 436 150.66388 436 244 C 436 337.33612 360.33612 413 267 413 C 173.66388 413 98 337.33612 98 244 C 98 150.66388 173.66388 75 267 75 z "
     id="path3770"
     style="fill:#555753" />
  <rect
     style="fill:none;stroke:#555753;stroke-width:25;stroke-miterlimit:4;stroke-opacity:1;stroke-dasharray:25,25;stroke-dashoffset:7.5"
     id="rect2998"
     width="190.22371"
     height="190.22371"
     x="171.88815"
     y="148.88815"
     ry="13.889598" />
</svg>
