<svg xmlns="http://www.w3.org/2000/svg" xmlns:xlink="http://www.w3.org/1999/xlink" width="512" height="512">
 <defs>
  <linearGradient id="0">
   <stop stop-color="#75a8bf"/>
   <stop offset="1" stop-color="#366378"/>
  </linearGradient>
  <radialGradient xlink:href="#0" id="1" cx="222.85715" cy="246.28572" r="82.85714" gradientUnits="userSpaceOnUse"/>
  <path id="2" d="m 305.71429 246.28572 a 82.85714 82.85714 0 1 1 -165.71428 0 82.85714 82.85714 0 1 1 165.71428 0 z" opacity="0.15" stroke="#fff8eb" fill="none"/>
 </defs>
 <g transform="translate(0,-540.36217)">
  <path transform="matrix(3.0172415,0,0,3.0172415,-416.41383,53.258672)" d="m 305.71429 246.28572 c 0 45.76074 -37.09641 82.85714 -82.85714 82.85714 -45.76074 0 -82.85714 -37.0964 -82.85714 -82.85714 0 -45.76073 37.0964 -82.85714 82.85714 -82.85714 45.76073 0 82.85714 37.09641 82.85714 82.85714 z" fill="url(#1)" fill-rule="evenodd"/>
  <use transform="matrix(2.6149221,0,0,2.6149221,-326.75408,152.34419)" stroke-width="7.648411" xlink:href="#2"/>
  <use transform="matrix(1.9972796,0,0,1.9972796,-189.10803,304.46072)" stroke-width="10.01362" xlink:href="#2"/>
  <use transform="matrix(1.2040018,0,0,1.2040018,-12.320395,499.83372)" stroke-width="16.611271" xlink:href="#2"/>
  <path d="m 295.08091,667.86484 c 0,21.06941 -16.71755,38.16923 -37.31595,38.16923 -20.59839,0 -37.31595,-17.09982 -37.31595,-38.16923 0,-21.06946 16.71756,-38.16935 37.31595,-38.16935 20.5984,0 37.31595,17.09989 37.31595,38.16935 z m 93.13553,40.58631 c -1.72589,0.28571 -3.19464,0.76054 -4.91821,1.04911 L 255.9955,730.81401 129.21563,708.58162 c -4.01935,-0.70487 -7.88495,-1.53904 -11.54691,0.26608 -3.66197,1.80506 -6.06262,6.08339 -6.11316,10.15452 -0.0476,4.07166 2.49667,7.58304 6.11316,9.47767 l 99.3444,32.23549 -0.67946,74.00189 -35.05465,110.83102 c -3.37618,5.04673 -2.34714,11.52822 2.71697,14.89274 5.06435,3.36506 12.24601,2.33988 15.62255,-2.70756 l 56.57114,-119.63107 55.50321,119.42434 c 3.00125,5.23464 9.69136,7.05298 14.94321,4.06203 5.2519,-2.9912 7.07655,-9.65881 4.07541,-14.89346 l -34.40392,-111.30785 -0.0476,-72.94137 99.42898,-34.36274 c 4.07024,-2.84476 5.83846,-8.2303 4.07555,-12.8622 -1.76305,-4.63238 -6.60805,-7.33131 -11.54715,-6.77 l 2.9e-4,0 z" fill="#fff8eb"/>
 </g>
</svg>
