<?xml version="1.0" encoding="UTF-8" standalone="no"?>
<!-- Created with Inkscape (http://www.inkscape.org/) -->

<svg
   xmlns:osb="http://www.openswatchbook.org/uri/2009/osb"
   xmlns:dc="http://purl.org/dc/elements/1.1/"
   xmlns:cc="http://creativecommons.org/ns#"
   xmlns:rdf="http://www.w3.org/1999/02/22-rdf-syntax-ns#"
   xmlns:svg="http://www.w3.org/2000/svg"
   xmlns="http://www.w3.org/2000/svg"
   xmlns:xlink="http://www.w3.org/1999/xlink"
   xmlns:sodipodi="http://sodipodi.sourceforge.net/DTD/sodipodi-0.dtd"
   xmlns:inkscape="http://www.inkscape.org/namespaces/inkscape"
   width="512"
   height="512"
   id="svg2"
   version="1.1"
   inkscape:version="0.48.4 r9939"
   sodipodi:docname="base.svg">
  <defs
     id="defs4">
    <style
       type="text/css"
       id="style5970">
    .fil2 {fill:#11A861}
    .fil0 {fill:#3777E3}
    .fil1 {fill:#FFCF63}
   </style>
    <linearGradient
       id="linearGradient5284"
       osb:paint="solid">
      <stop
         style="stop-color:#a7d6f6;stop-opacity:1;"
         offset="0"
         id="stop5286" />
    </linearGradient>
    <linearGradient
       id="linearGradient5228"
       osb:paint="solid">
      <stop
         style="stop-color:#000000;stop-opacity:1;"
         offset="0"
         id="stop5230" />
    </linearGradient>
    <radialGradient
       inkscape:collect="always"
       xlink:href="#linearGradient3895-9-0-3-2-4-0"
       id="radialGradient4432"
       gradientUnits="userSpaceOnUse"
       gradientTransform="matrix(0.9765625,0,0,0.9765625,-16.534898,-236.25)"
       cx="148.00372"
       cy="160"
       fx="148.00372"
       fy="160"
       r="128" />
    <linearGradient
       id="linearGradient3895-9-0-3-2-4-0">
      <stop
         offset="0"
         style="stop-color:#e2b9b7;stop-opacity:1;"
         id="stop3897-0-5-7-0-3-0" />
      <stop
         offset="1"
         style="stop-color:#9c0008;stop-opacity:1;"
         id="stop3899-8-7-06-7-9-9" />
    </linearGradient>
    <radialGradient
       inkscape:collect="always"
       xlink:href="#linearGradient3895-9-0-3-2-4-0"
       id="radialGradient5715"
       gradientUnits="userSpaceOnUse"
       gradientTransform="matrix(0.9765625,0,0,0.9765625,1266.8937,584.68361)"
       cx="148.00372"
       cy="160"
       fx="148.00372"
       fy="160"
       r="128" />
  </defs>
  <sodipodi:namedview
     id="base"
     pagecolor="#ffffff"
     bordercolor="#666666"
     borderopacity="1.0"
     inkscape:pageopacity="0.0"
     inkscape:pageshadow="2"
     inkscape:zoom="0.7"
     inkscape:cx="287.73067"
     inkscape:cy="158.78468"
     inkscape:document-units="px"
     inkscape:current-layer="layer1"
     showgrid="false"
     inkscape:window-width="1309"
     inkscape:window-height="750"
     inkscape:window-x="55"
     inkscape:window-y="-3"
     inkscape:window-maximized="1" />
  <metadata
     id="metadata7">
    <rdf:RDF>
      <cc:Work
         rdf:about="">
        <dc:format>image/svg+xml</dc:format>
        <dc:type
           rdf:resource="http://purl.org/dc/dcmitype/StillImage" />
        <dc:title></dc:title>
      </cc:Work>
    </rdf:RDF>
  </metadata>
  <g
     inkscape:label="Layer 1"
     inkscape:groupmode="layer"
     id="layer1"
     transform="translate(0,-540.36218)">
    <path
       sodipodi:type="arc"
       style="fill:#cd1d31;fill-rule:evenodd;stroke:none"
       id="path2985"
       sodipodi:cx="202.85715"
       sodipodi:cy="-316.57144"
       sodipodi:rx="360"
       sodipodi:ry="360"
       d="m 562.85715,-316.57144 c 0,198.82251 -161.17749,359.999998 -360,359.999998 -198.8225127,0 -360,-161.177488 -360,-359.999998 0,-198.82251 161.1774873,-360 360,-360 198.82251,0 360,161.17749 360,360 z"
       transform="matrix(0.69444444,0,0,0.69444444,115.12698,1016.2035)" />
    <g
       id="text6110-1-8-2"
       style="font-size:220.81851196px;font-style:normal;font-weight:normal;line-height:125%;letter-spacing:0px;word-spacing:0px;fill:#fff8c1;fill-opacity:1;stroke:none;font-family:Sans"
       transform="matrix(0.23463968,0,0,0.23138396,1320.248,618.69792)" />
    <path
       style="fill:#ffffff;fill-opacity:1;stroke:none"
       id="path3727"
       inkscape:connector-curvature="0"
       d="m 376.28588,646.104 0,60.49444 c -60.39893,1.06097 -75.24263,59.96351 -75.24263,59.96351 l 45.55491,0 0,60.49351 -70.63584,0 c -42.48402,131.0713 -140.2482,119.39697 -140.2482,119.39697 l 0,-60.49443 c 0,0 62.03751,11.50892 93.66935,-104.0079 C 268.95221,637.45093 376.28588,646.104 376.28588,646.104 z" />
    <path
       style="fill:#fff8eb;fill-rule:evenodd;stroke:none"
       d="m 256,566.36218 c -127.02549,0 -230,102.97451 -230,230 0,127.02549 102.97451,230.00002 230,230.00002 127.02549,0 230,-102.97453 230,-230.00002 0,-127.02549 -102.97451,-230 -230,-230 z m 0,23.66125 c 113.96001,0 206.33875,92.37874 206.33875,206.33875 0,113.96001 -92.37874,206.33872 -206.33875,206.33872 -113.96001,0 -206.33875,-92.37871 -206.33875,-206.33872 0,-113.96001 92.37874,-206.33875 206.33875,-206.33875 z"
       id="path5717"
       inkscape:connector-curvature="0" />
  </g>
</svg>
