<?xml version="1.0" encoding="UTF-8" standalone="no"?>
<!-- Created with Inkscape (http://www.inkscape.org/) -->

<svg
   xmlns:dc="http://purl.org/dc/elements/1.1/"
   xmlns:cc="http://creativecommons.org/ns#"
   xmlns:rdf="http://www.w3.org/1999/02/22-rdf-syntax-ns#"
   xmlns:svg="http://www.w3.org/2000/svg"
   xmlns="http://www.w3.org/2000/svg"
   xmlns:sodipodi="http://sodipodi.sourceforge.net/DTD/sodipodi-0.dtd"
   xmlns:inkscape="http://www.inkscape.org/namespaces/inkscape"
   width="512"
   height="512"
   id="svg2"
   version="1.1"
   inkscape:version="0.48.4 r9939"
   sodipodi:docname="apport.svg">
  <defs
     id="defs4" />
  <sodipodi:namedview
     id="base"
     pagecolor="#ffffff"
     bordercolor="#666666"
     borderopacity="1.0"
     inkscape:pageopacity="0.0"
     inkscape:pageshadow="2"
     inkscape:zoom="0.7"
     inkscape:cx="108.36051"
     inkscape:cy="148.20919"
     inkscape:document-units="px"
     inkscape:current-layer="layer1"
     showgrid="false"
     inkscape:window-width="1309"
     inkscape:window-height="750"
     inkscape:window-x="55"
     inkscape:window-y="-3"
     inkscape:window-maximized="1" />
  <metadata
     id="metadata7">
    <rdf:RDF>
      <cc:Work
         rdf:about="">
        <dc:format>image/svg+xml</dc:format>
        <dc:type
           rdf:resource="http://purl.org/dc/dcmitype/StillImage" />
        <dc:title />
      </cc:Work>
    </rdf:RDF>
  </metadata>
  <g
     inkscape:label="Layer 1"
     inkscape:groupmode="layer"
     id="layer1"
     transform="translate(0,-540.36218)">
    <path
       sodipodi:type="arc"
       style="fill:#cb2f1d;fill-rule:evenodd;stroke:none;fill-opacity:1"
       id="path2985"
       sodipodi:cx="202.85715"
       sodipodi:cy="-316.57144"
       sodipodi:rx="360"
       sodipodi:ry="360"
       d="m 562.85715,-316.57144 c 0,198.82251 -161.17749,359.999998 -360,359.999998 -198.8225127,0 -360,-161.177488 -360,-359.999998 0,-198.82251 161.1774873,-360 360,-360 198.82251,0 360,161.17749 360,360 z"
       transform="matrix(0.69444444,0,0,0.69444444,115.12698,1016.2035)" />
    <path
       style="fill:#fff8eb;stroke:#fff8eb;stroke-width:1.81006396px;stroke-linecap:butt;stroke-linejoin:miter;stroke-opacity:1"
       d="m 227.29177,628.49483 -26.81158,89.82442 -107.642237,-17.42186 70.139977,72.06317 -87.901229,37.16287 93.048599,14.53708 -74.94796,94.40615 106.34126,-32.01551 20.64604,67.59458 53.67971,-53.34033 91.12541,54.92413 -21.60764,-102.4383 95.31118,-7.46652 -79.47312,-57.18671 55.88572,-34.61747 -58.1483,-7.07056 61.37248,-101.8161 -135.07602,61.71187 -55.94229,-78.85091 z m 16.17744,106.9069 23.92679,0 c 5.55106,0 10.01191,4.00497 10.01191,8.99375 l 0,59.84524 c 0,4.98879 -4.46085,9.05032 -10.01191,9.05032 l -23.92679,0 c -5.55106,0 -10.01191,-4.06153 -10.01191,-9.05032 l 0,-59.84524 c 0,-4.98878 4.46085,-8.99375 10.01191,-8.99375 z m 0,88.86283 23.92679,0 c 5.55106,0 10.01191,4.00496 10.01191,8.99375 l 0,26.58532 c 0,4.98879 -4.46085,9.05032 -10.01191,9.05032 l -23.92679,0 c -5.55106,0 -10.01191,-4.06153 -10.01191,-9.05032 l 0,-26.58532 c 0,-4.98879 4.46085,-8.99375 10.01191,-8.99375 z"
       id="path13000"
       inkscape:connector-curvature="0" />
  </g>
</svg>
