<svg xmlns="http://www.w3.org/2000/svg" width="512" height="512">
 <defs>
  <clipPath>
   <path d="M 89 7 L 5 25 L 24 124 L 90 110 L 108 104 L 104.86911 84.75865 L 89 7 z"/>
  </clipPath>
  <clipPath>
   <path d="M 62.65625 4 C 61.672837 4 60.875 4.797837 60.875 5.78125 L 60.875 8.03125 C 60.38634 8.097348 60 8.492928 60 9 L 60 57 C 60 57.55317 60.44683 58 61 58 C 60.44683 58 60 58.44683 60 59 L 60 111 L 61 142 C 61 142.55317 61.44683 143 62 143 L 68 143 C 68.55317 143 69 142.55317 69 142 L 70 111 L 70 59 C 70 58.44683 69.55317 58 69 58 C 69.55317 58 70 57.55317 70 57 L 70 9 C 70 8.44683 69.55317 8 69 8 L 69 5.78125 C 69 4.797837 68.20216 4 67.21875 4 L 62.65625 4 z"/>
  </clipPath>
 </defs>
 <g transform="translate(0,-540.36218)">
  <path d="m 562.85715 -316.57144 c 0 198.82251 -161.17749 360 -360 360 -198.82251 0 -360 -161.17749 -360 -360 0 -198.82251 161.17749 -360 360 -360 198.82251 0 360 161.17749 360 360 z" transform="matrix(0.69444444,0,0,0.69444444,115.12698,1016.2035)" fill="#cd1d31" fill-rule="evenodd"/>
  <path d="m 256 566.36218 c -127.02549 0 -230 102.9745 -230 229.99999 0 127.02548 102.97451 230.00003 230 230.00003 127.02549 0 230 -102.97455 230 -230.00003 C 486 669.33668 383.02549 566.36218 256 566.36218 z m 0 17.0775 c 117.58932 0 212.9225 95.33318 212.9225 212.92249 0 117.5893 -95.33318 212.92243 -212.9225 212.92243 -117.58931 0 -212.9225 -95.33313 -212.9225 -212.92243 0 -117.58931 95.33319 -212.92249 212.9225 -212.92249 z" fill="#fff8eb" fill-rule="evenodd"/>
  <path d="M 256 71 C 153.82732 71 71 153.82732 71 256 C 71 358.17268 153.82732 441 256 441 C 358.17268 441 441 358.17268 441 256 C 441 153.82732 358.17268 71 256 71 z M 220.4375 123.625 L 346.125 140.46875 L 346.875 139.875 L 357.0625 177.78125 L 325.375 202.1875 L 364.65625 206.21875 L 374.8125 244.15625 L 344.5 267.5 L 382.4375 272.59375 L 392.59375 310.5 L 291.5625 388.375 L 165.125 371.4375 L 154.96875 333.53125 L 185.28125 310.15625 L 147.34375 305.09375 L 137.1875 267.1875 L 169.25 244.0625 L 129.5625 238.75 L 119.59375 201.53125 L 119.40625 201.5 L 119.5625 201.375 L 119.40625 200.84375 L 120.125 200.9375 L 220.4375 123.625 z" transform="translate(0,540.36218)" fill="#fff8eb" fill-rule="evenodd"/>
 </g>
</svg>
