<?xml version="1.0" encoding="UTF-8" standalone="no"?>
<!-- Created with Inkscape (http://www.inkscape.org/) -->

<svg
   xmlns:dc="http://purl.org/dc/elements/1.1/"
   xmlns:cc="http://creativecommons.org/ns#"
   xmlns:rdf="http://www.w3.org/1999/02/22-rdf-syntax-ns#"
   xmlns:svg="http://www.w3.org/2000/svg"
   xmlns="http://www.w3.org/2000/svg"
   xmlns:xlink="http://www.w3.org/1999/xlink"
   xmlns:sodipodi="http://sodipodi.sourceforge.net/DTD/sodipodi-0.dtd"
   xmlns:inkscape="http://www.inkscape.org/namespaces/inkscape"
   width="512"
   height="512"
   id="svg2"
   version="1.1"
   inkscape:version="0.48.4 r9939"
   sodipodi:docname="base.svg">
  <defs
     id="defs4">
    <linearGradient
       y2="36.643665"
       x2="19.360001"
       y1="6.2951212"
       x1="18.930269"
       gradientTransform="matrix(12.102564,0,0,12.102564,-34.468235,494.17507)"
       gradientUnits="userSpaceOnUse"
       id="linearGradient3159"
       xlink:href="#linearGradient2460"
       inkscape:collect="always" />
    <linearGradient
       id="linearGradient2460"
       y2="44.984001"
       gradientUnits="userSpaceOnUse"
       x2="19.360001"
       y1="21.030804"
       x1="19.244999">
      <stop
         id="stop3602"
         style="stop-color:#fafafa;stop-opacity:1;"
         offset="0" />
      <stop
         id="stop3604"
         style="stop-color:#f0f0f0;stop-opacity:1;"
         offset="1" />
    </linearGradient>
    <linearGradient
       y2="-55.941216"
       x2="1763.6903"
       y1="155.59685"
       x1="1764.6487"
       gradientUnits="userSpaceOnUse"
       id="linearGradient3740"
       xlink:href="#linearGradient4046"
       inkscape:collect="always" />
    <linearGradient
       y2="363.73825"
       x2="988.78552"
       y1="51.511765"
       x1="993.43896"
       gradientTransform="translate(778.59979,-360.55963)"
       gradientUnits="userSpaceOnUse"
       id="linearGradient3738"
       xlink:href="#linearGradient3737"
       inkscape:collect="always" />
    <linearGradient
       y2="20.625916"
       x2="1006.8082"
       y1="484.41721"
       x1="1012.5133"
       gradientTransform="matrix(1.0074153,0,0,1.0074153,-810.48879,593.1369)"
       gradientUnits="userSpaceOnUse"
       id="linearGradient3734"
       xlink:href="#ButtonShadow-0-1-1-5"
       inkscape:collect="always" />
    <linearGradient
       y2="20.625916"
       x2="1006.8082"
       y1="484.41721"
       x1="1012.5133"
       gradientTransform="matrix(1.0148305,0,0,1.0148305,-816.68996,592.99723)"
       gradientUnits="userSpaceOnUse"
       id="linearGradient3732"
       xlink:href="#ButtonShadow-0-1-1-5"
       inkscape:collect="always" />
    <linearGradient
       y2="20.625916"
       x2="1006.8082"
       y1="484.41721"
       x1="1012.5133"
       gradientTransform="matrix(1.023305,0,0,1.023305,-823.77704,592.83757)"
       gradientUnits="userSpaceOnUse"
       id="linearGradient3730"
       xlink:href="#ButtonShadow-0-1-1-5"
       inkscape:collect="always" />
    <linearGradient
       y2="20.625916"
       x2="1006.8082"
       y1="484.41721"
       x1="1012.5133"
       gradientTransform="matrix(1.0402541,0,0,1.0402541,-837.95116,592.51825)"
       gradientUnits="userSpaceOnUse"
       id="linearGradient3728"
       xlink:href="#ButtonShadow-0-1-1-5"
       inkscape:collect="always" />
    <linearGradient
       y2="20.625916"
       x2="1006.8082"
       y1="484.41721"
       x1="1012.5133"
       gradientTransform="matrix(1.0317796,0,0,1.0317796,-830.86406,592.67791)"
       gradientUnits="userSpaceOnUse"
       id="linearGradient3726"
       xlink:href="#ButtonShadow-0-1-1-5"
       inkscape:collect="always" />
    <linearGradient
       id="linearGradient4046">
      <stop
         offset="0"
         style="stop-color:#000000;stop-opacity:1;"
         id="stop4048" />
      <stop
         offset="1"
         style="stop-color:#ffffff;stop-opacity:0.2"
         id="stop4050" />
    </linearGradient>
    <linearGradient
       id="linearGradient3737">
      <stop
         offset="0"
         style="stop-color:#ffffff;stop-opacity:1"
         id="stop3739" />
      <stop
         offset="1"
         style="stop-color:#ffffff;stop-opacity:0"
         id="stop3741" />
    </linearGradient>
    <linearGradient
       gradientTransform="matrix(1.0058652,0,0,0.994169,100,0)"
       gradientUnits="userSpaceOnUse"
       id="ButtonShadow-0-1-1-5"
       y2="7.0165396"
       x2="45.447727"
       y1="92.539597"
       x1="45.447727">
      <stop
         offset="0"
         style="stop-color:#000000;stop-opacity:1"
         id="stop3750-8-9-3-6" />
      <stop
         offset="1"
         style="stop-color:#000000;stop-opacity:0.58823532"
         id="stop3752-5-6-4-2" />
    </linearGradient>
    <linearGradient
       inkscape:collect="always"
       xlink:href="#linearGradient2460"
       id="linearGradient3195"
       gradientUnits="userSpaceOnUse"
       gradientTransform="matrix(12.102564,0,0,12.102564,-745.68253,449.24686)"
       x1="18.930269"
       y1="6.2951212"
       x2="19.360001"
       y2="36.643665" />
  </defs>
  <sodipodi:namedview
     id="base"
     pagecolor="#ffffff"
     bordercolor="#666666"
     borderopacity="1.0"
     inkscape:pageopacity="0.0"
     inkscape:pageshadow="2"
     inkscape:zoom="0.35"
     inkscape:cx="720.7486"
     inkscape:cy="86.575026"
     inkscape:document-units="px"
     inkscape:current-layer="layer1"
     showgrid="false"
     inkscape:window-width="1309"
     inkscape:window-height="750"
     inkscape:window-x="55"
     inkscape:window-y="-3"
     inkscape:window-maximized="1" />
  <metadata
     id="metadata7">
    <rdf:RDF>
      <cc:Work
         rdf:about="">
        <dc:format>image/svg+xml</dc:format>
        <dc:type
           rdf:resource="http://purl.org/dc/dcmitype/StillImage" />
        <dc:title></dc:title>
      </cc:Work>
    </rdf:RDF>
  </metadata>
  <g
     inkscape:label="Layer 1"
     inkscape:groupmode="layer"
     id="layer1"
     transform="translate(0,-540.36218)">
    <path
       sodipodi:type="arc"
       style="fill:#fff8eb;fill-rule:evenodd;stroke:none"
       id="path2985"
       sodipodi:cx="202.85715"
       sodipodi:cy="-316.57144"
       sodipodi:rx="360"
       sodipodi:ry="360"
       d="m 562.85715,-316.57144 c 0,198.82251 -161.17749,359.999998 -360,359.999998 -198.8225127,0 -360,-161.177488 -360,-359.999998 0,-198.82251 161.1774873,-360 360,-360 198.82251,0 360,161.17749 360,360 z"
       transform="matrix(0.69444444,0,0,0.69444444,115.12698,1016.2035)" />
    <path
       sodipodi:nodetypes="ccsscccssccsscccssccccccccscccccsccsscccsccccccccccccscsccccccsccsccsccsccsccsccsccsccsccsccsccsccsccscscccccccccccccssccccssscccc"
       inkscape:connector-curvature="0"
       id="path8574"
       d="m -328.62054,644.43397 c -0.029,-0.007 -0.0345,0.0203 -0.0625,0.0312 -0.15221,0.0589 -3.01954,1.11629 -6.375,2.375 -18.39735,6.90112 -39.22465,15.30527 -71.5,28.8125 -19.71362,8.25016 -31.4556,13.1191 -40.53125,16.84375 l -8.28125,3.40625 -3.5,-1.1875 c -2.10838,-0.71809 -8.83161,-3.44935 -17.125,-6.9375 -7.51433,-3.16043 -25.32123,-10.65184 -39.59375,-16.65625 -40.00856,-16.83126 -55.37501,-23.24173 -57.0625,-23.8125 -2.39424,-0.80971 -9.38478,-2.7786 -9.53125,-2.6875 -0.22048,0.13628 -2.51239,4.86953 -3.34375,6.90625 -3.82322,9.36642 -6.66084,21.98795 -7.125,31.6875 -0.14574,3.04545 -0.003,8.00991 0.25,8.25 l 32.7734,32.68175 c -0.86111,3.60686 -1.00233,5.10089 -1,9.5625 0.003,4.73813 0.26593,6.77267 1.375,10.625 1.82891,6.35282 5.79171,13.26275 10.46875,18.59375 0.3083,0.3514 0.62327,0.69435 0.9375,1.03125 0.18528,0.2032 0.37525,0.39585 0.5625,0.59375 0.15978,0.1649 0.30775,0.3392 0.46875,0.5 0.24052,0.24614 0.47557,0.48206 0.71875,0.71875 0.0532,0.0531 0.10296,0.10362 0.15625,0.15625 0.0214,0.0206 0.041,0.0419 0.0625,0.0625 0.0408,0.0411 0.0841,0.0842 0.125,0.125 0,0 28.21234,28.18138 28.21375,28.1821 -1.64865,1.86426 -3.19097,3.71361 -4.53125,5.5 -4.88855,6.51577 -7.54019,11.5336 -8.25,15.5625 -0.25042,1.42129 -0.21333,4.89064 0.0625,6.34375 l 0.21875,1.125 13.2473,13.15505 c -0.74718,-0.11663 -0.89784,-0.20973 -1.09375,-0.4375 -0.15088,-0.1754 -0.28432,-0.23585 -0.375,-0.1875 -0.15113,0.0806 -0.19936,0.41273 -0.0937,0.6875 0.77263,1.25333 1.03975,1.23226 1.28125,2.15625 0.75409,2.89981 1.01584,3.53948 2.65625,6.375 3.63895,6.2901 7.95874,12.17282 12.9375,17.71875 0.9761,1.08729 1.97098,2.15879 3,3.21875 0.12285,0.12898 0.25137,0.24642 0.375,0.375 0.12276,0.12887 0.25147,0.24652 0.375,0.375 0.2594,0.26233 0.51854,0.5206 0.78125,0.78125 0.53335,0.52918 1.04672,1.07142 1.59375,1.59375 0.0316,0.0304 0.0621,0.0633 0.0937,0.0937 0.0958,0.0929 0.18505,0.18854 0.28125,0.28125 0.0316,0.0304 0.0621,0.0634 0.0937,0.0937 0.0957,0.0928 0.18514,0.18863 0.28125,0.28125 0.13254,0.12894 0.27288,0.24647 0.40625,0.375 0.0212,0.0202 0.0413,0.0423 0.0625,0.0625 0.1379,0.1339 0.26746,0.2728 0.40625,0.40625 l 347.671,347.69923 c 9.70301,9.4251 21.59614,17.7801 35.875,25.1563 1.93766,1.0009 3.55479,1.8421 3.59375,1.8437 0.039,0 1.69429,-0.849 3.6875,-1.875 13.96514,-7.1879 25.34981,-15.256 34.84375,-24.75 6.56578,-6.5657 11.56247,-12.969 16.21875,-20.7187 1.38253,-2.3011 4.03125,-7.2912 4.03125,-7.5938 0,-0.047 -0.15216,-0.1197 -0.40625,-0.1875 0.008,-0.026 0.0621,-0.1439 0.0625,-0.1562 0,-0.048 -0.17023,-0.1177 -0.4375,-0.1875 0.008,-0.026 0.0621,-0.144 0.0625,-0.1563 -0.0234,-0.047 -0.15998,-0.1231 -0.40625,-0.1875 0.006,-0.019 0.0622,-0.1148 0.0625,-0.125 0.004,-0.01 0,-0.029 0,-0.031 0,-0.047 -0.15314,-0.12 -0.40625,-0.1875 0.006,-0.019 0.0622,-0.1148 0.0625,-0.125 0.006,-0.01 0,-0.029 0,-0.031 0,-0.048 -0.17062,-0.1178 -0.4375,-0.1875 0.006,-0.019 0.0622,-0.1148 0.0625,-0.125 0.007,-0.012 0.0312,-0.029 0.0312,-0.031 0,-0.048 -0.1713,-0.1178 -0.4375,-0.1875 0.006,-0.019 0.0622,-0.1148 0.0625,-0.125 0.008,-0.014 0.0312,-0.061 0.0312,-0.062 0,-0.048 -0.17173,-0.087 -0.4375,-0.1562 0.006,-0.019 0.0622,-0.1149 0.0625,-0.125 0.01,-0.017 0.0312,-0.059 0.0312,-0.062 0,-0.046 -0.15416,-0.1202 -0.40625,-0.1875 0.003,-0.012 0.031,-0.086 0.0312,-0.094 0.0111,-0.019 0.0312,-0.061 0.0312,-0.062 0,-0.049 -0.18956,-0.116 -0.46875,-0.1875 0.006,-0.019 0.0622,-0.1149 0.0625,-0.125 0.0125,-0.021 0.0312,-0.06 0.0312,-0.062 0,-0.046 -0.15466,-0.1204 -0.40625,-0.1875 0.003,-0.012 0.031,-0.087 0.0312,-0.094 0.0138,-0.024 0.0312,-0.059 0.0312,-0.062 0,-0.047 -0.15492,-0.1204 -0.40625,-0.1875 0.002,-0.01 0.0311,-0.057 0.0312,-0.062 0.0152,-0.026 0.0312,-0.09 0.0312,-0.094 0,-0.048 -0.1729,-0.1184 -0.4375,-0.1875 0.002,-0.01 0.0311,-0.057 0.0312,-0.062 0.0166,-0.028 0.0625,-0.09 0.0625,-0.094 0,-0.048 -0.17317,-0.1184 -0.4375,-0.1875 0.002,-0.01 0.0311,-0.057 0.0312,-0.062 0.018,-0.03 0.0625,-0.1206 0.0625,-0.125 0,-0.048 -0.17344,-0.087 -0.4375,-0.1563 0.002,-0.01 0.0311,-0.057 0.0312,-0.062 0.0194,-0.033 0.0312,-0.1202 0.0312,-0.125 0,-0.046 -0.15593,-0.1207 -0.40625,-0.1875 3e-4,-0 -7e-5,-0.029 0,-0.031 0.0207,-0.035 0.0625,-0.1199 0.0625,-0.125 0,-0.047 -0.15619,-0.1208 -0.40625,-0.1875 7.85697,-2.0759 15.73048,-4.4554 17.9375,-5.5625 1.51504,-0.7599 2.8567,-2.0631 3.375,-3.2187 0.61275,-1.3662 0.55574,-3.8312 -0.15625,-6.5 -1.59055,-5.9617 -4.22752,-11.5818 -8.5,-18.0625 -3.32108,-5.0377 -7.30447,-10.0059 -11.84375,-14.8125 -0.11008,-0.1175 -0.233,-0.2265 -0.34375,-0.3438 -0.24498,-0.2613 -0.50169,-0.5209 -0.75,-0.7812 -10.13723,-10.1379 -21.43184,-21.5521 -31.12385,-30.9055 -0.2193,-0.2185 -0.43442,-0.4387 -0.65625,-0.6563 -0.11417,-0.1128 -0.22891,-0.2311 -0.34375,-0.3437 -0.10366,-0.1025 -0.20828,-0.2102 -0.3125,-0.3125 -0.10355,-0.1024 -0.20839,-0.2104 -0.3125,-0.3125 7.4078,3.561 15.18721,8.6304 24.75,16 1.39191,1.0726 2.3904,1.8633 3.25,2.5625 l 11.24705,11.2168 c 0.0802,0 2.90372,-0.9193 6.28125,-2.0625 7.44476,-2.52 9.31971,-3.2728 12.65625,-4.9063 7.53916,-3.6912 13.23473,-9.0947 17.59375,-16.7187 2.56856,-4.4924 4.38323,-9.7865 5.125,-14.9688 0.3768,-2.6325 0.35585,-7.5753 -0.0312,-9.8125 -2.95963,-12.4742 -2.69173,-21.4168 -9.90625,-28.5937 -0.23415,-0.2406 -0.4875,-0.5063 -0.6875,-0.7186 l 37.59375,-9.4687 c 5.08655,-1.6739 10.90625,-4.1072 10.90625,-4.5625 0,-0.5945 -0.56438,-6.1461 -0.875,-8.625 -1.44919,-11.566 -4.56181,-23.8664 -8.9375,-35.37503 -0.73003,-1.9201 -1.15625,-2.28125 -1.15625,-2.28125 0,0 -349.67019,-349.71657 -349.6698,-349.71585 -0.11632,-0.2149 -0.18373,-0.26391 -0.26395,-0.28386 z"
       style="fill:#000000;fill-opacity:0.39215686;display:none" />
    <path
       style="fill:#000000;fill-opacity:0.33333333;display:none"
       d="m 349.82231,643.5319 c -0.029,-0.007 -0.034,0.0203 -0.062,0.0312 -0.1522,0.0589 -3.0195,1.11629 -6.375,2.375 -18.3973,6.90112 -39.2246,15.30527 -71.50002,28.8125 -19.7136,8.25016 -31.4556,13.1191 -40.5312,16.84375 l -8.2813,3.40625 -3.5,-1.1875 c -2.1083,-0.71809 -8.8316,-3.44935 -17.125,-6.9375 -7.5143,-3.16043 -25.3212,-10.65184 -39.5937,-16.65625 -40.0086,-16.83126 -55.375,-23.24173 -57.0625,-23.8125 -2.3943,-0.80971 -9.3848,-2.7786 -9.5313,-2.6875 -0.2204,0.13628 -2.5124,4.86953 -3.3437,6.90625 -3.8232,9.36642 -6.6609,21.98795 -7.125,31.6875 -0.1458,3.04545 0,8.00991 0.25,8.25 0,0 18.2026,18.6573 27.2787,27.27735 -0.8895,3.85524 -1.7216,7.48497 -1.875,8.3125 -1.1178,6.03136 -1.04,13.28321 0.1875,19.4375 1.5942,7.99262 5.2872,15.8834 10.4063,22.28125 0.5306,0.66312 1.2286,1.45352 2,2.28125 0.1127,0.12283 0.2585,0.25011 0.375,0.375 0.4518,0.47735 0.8965,0.95826 1.375,1.4375 0.1896,0.19244 0.3708,0.37199 0.5625,0.5625 0.096,0.0971 0.1843,0.1847 0.2812,0.28125 0.021,0.0213 0.041,0.0412 0.062,0.0625 0.011,0.0106 0.021,0.0207 0.031,0.0312 0.1073,0.10782 0.2048,0.20543 0.3125,0.3125 0.011,0.0106 0.021,0.0207 0.031,0.0312 0.054,0.0541 0.1023,0.10232 0.1563,0.15625 0.1056,0.10697 0.2062,0.20604 0.3125,0.3125 0.043,0.0425 0.082,0.0827 0.125,0.125 0.1535,0.15506 0.2828,0.31511 0.4375,0.46875 0,0 21.4987,21.46755 21.4675,21.43635 0.011,0.0107 0.02,0.0205 0.031,0.0312 -7.9375,13.92061 -11.9409,21.1705 -12.0313,21.78125 -0.1883,1.27269 0.2,3.35599 0.875,4.78125 0.3409,0.71968 0.7825,1.32694 1.3438,1.9375 0.1021,0.12542 0.2299,0.25186 0.3437,0.375 0.071,0.0689 0.1429,0.14995 0.2188,0.21875 0.039,0.044 0.085,0.0812 0.125,0.125 0.051,0.0487 0.1035,0.10763 0.1562,0.15625 l 10.531,10.531 c 1.2909,3.63465 2.8376,7.33726 4.4688,10.59375 3.9036,7.79291 9.0242,15.03928 15.5312,21.96875 0.1098,0.11796 0.2332,0.22598 0.3438,0.34375 1.2329,1.34747 2.5444,2.6391 3.781,3.87485 l 348.77992,348.74845 c 5.6829,5.621 12.3019,11.0582 20.0312,16.4063 5.7024,3.9457 12.5678,8.2086 22.6563,14.125 3.5185,2.0635 6.4656,3.7812 6.5312,3.7812 0.3192,0.029 10.0582,-6.0143 15,-9.3125 11.5878,-7.7338 20.2356,-14.7627 28.875,-23.4062 6.2324,-6.2355 10.1611,-10.8221 14.5938,-17.0313 3.7427,-5.2425 6.132,-9.1894 9.375,-15.5937 l 2.3125,-4.625 6.375,-2.9688 6.3437,-2.9375 0.094,-4.7187 c 0.073,-4.033 0.042,-4.9831 -0.2187,-6.4063 l -0.3067,-1.6491 -7.8125,-13.5312 c -4.2933,-7.4495 -7.7556,-13.6195 -7.6875,-13.6875 0.068,-0.068 2.8503,-1.3431 6.1563,-2.8438 3.3059,-1.5008 6.7735,-3.1156 7.7187,-3.5937 6.4076,-3.2409 12.0762,-8.3476 16.25,-14.625 5.9957,-9.0178 9.5,-21.2528 9.5,-33.1875 0,-8.8188 -1.6828,-16.3751 -5.4062,-24.375 -0.7058,-1.5164 -1.2049,-2.9544 -1.625,-4.5938 -0.5604,-2.1865 -0.6554,-2.4518 -1.2188,-2.9375 -0.099,-0.1249 -0.2298,-0.2194 -0.375,-0.3437 -0.014,-0.012 -0.018,-0.02 -0.031,-0.031 -0.1459,-0.1769 -0.1533,-0.2904 -0.031,-0.4375 0.1223,-0.1473 0.4806,-0.313 0.7813,-0.375 0.3006,-0.061 1.3513,-0.3726 2.3437,-0.6875 2.8209,-0.8949 6.1884,-1.828 11.5938,-3.25 6.6547,-1.7506 10.4219,-2.8432 13.9375,-4 5.0865,-1.674 10.9062,-4.1072 10.9062,-4.5625 0,-0.5945 -0.5644,-6.146 -0.875,-8.625 -1.4492,-11.5659 -4.5618,-23.8663 -8.9375,-35.37501 -0.6935,-1.8241 -0.9109,-2.2811 -1.125,-2.25 0,0 -349.6963,-349.64455 -349.6876,-349.65629 -0.1177,-0.21673 -0.2004,-0.35489 -0.2813,-0.375 z"
       id="path8003"
       inkscape:connector-curvature="0"
       sodipodi:nodetypes="ccsscccssccsscccsccccccccccccccccccccccccsccccsscsssccccccccccccscsccccccscsssccc" />
    <g
       transform="matrix(6.1659046,0,0,6.1659046,-1754.6771,-154.03751)"
       id="g15" />
    <g
       transform="matrix(6.1659046,0,0,6.1659046,-1754.6771,-154.03751)"
       id="g17" />
    <g
       transform="matrix(6.1659046,0,0,6.1659046,-1754.6771,-154.03751)"
       id="g19" />
    <g
       transform="matrix(6.1659046,0,0,6.1659046,-1754.6771,-154.03751)"
       id="g21" />
    <g
       transform="matrix(6.1659046,0,0,6.1659046,-1754.6771,-154.03751)"
       id="g23" />
    <g
       transform="matrix(6.1659046,0,0,6.1659046,-1754.6771,-154.03751)"
       id="g25" />
    <path
       sodipodi:nodetypes="cccscccscccccccccscscccccccccccc"
       inkscape:connector-curvature="0"
       id="path17467"
       d="m -570.05804,562.55897 c -35.1687,0.65003 -77.11323,5.9486 -115.34375,37.59375 -1.64011,1.41214 -3.39102,3.00398 -4.96875,4.5 -0.29824,3.132 -0.4375,6.31857 -0.4375,9.53125 l 0,154.96875 97.96875,97.9591 c -27.66601,0.66617 -71.36929,-0.0296 -97.96875,21.25 l 0,1.125 c 1.1e-4,11.00641 1.78731,21.60348 5.09375,31.46875 l 399.59375,399.59373 c 13.68456,-14.583 31.96126,-21.5237 40.53125,-24.6562 26.91966,-9.0177 60.91472,-10.6237 69.1875,-10.75 l 101.75,102.2812 39.28125,0 c 4.04601,-9.4529 5.40625,-20.6207 5.40625,-33.0625 -0.003,-26.3468 -12.42384,-47.0193 -28.53125,-64.5312 l -81.02955,-81.2775 c -0.0484,-0.7048 -0.0937,-1.4186 -0.0937,-2.1562 0,-14.8293 10.0635,-24.2954 18.78125,-33.0313 28.17021,-22.1741 54.40625,-45.7649 54.40625,-95.5625 0,-17.1216 -3.4943,-31.4148 -8.71875,-43.3437 l 134.125,134.2812 36.46875,0 0,-85.8125 85.34375,0 0,-35.7187 -484.93925,-484.65043 -36.46875,0 0,85.0625 -3.40625,0 -84.28125,-85.0625 z"
       style="fill:#000000;fill-opacity:0.31372549;display:none" />
    <path
       style="fill:#000000;fill-opacity:0.31372549;fill-rule:evenodd;display:none"
       d="m -498.65179,607.34022 35.40625,61.59375 -52.7499,-52.90625 -104.21885,180.53125 52.125,90.28125 349.9995,349.99998 c 3.14521,-7.8925 5.90753,-4.4109 6.46875,-2.1562 l 10.8439,10.8436 208.4375,0 52.125,-90.2812 -26.93715,-17.3434 26.9375,0 -104.21875,-180.56248 c 0,0 -350.00047,-349.99124 -350,-350.0003 z"
       id="path8312"
       inkscape:connector-curvature="0"
       sodipodi:nodetypes="ccccccccccccccc" />
    <polygon
       class="fil0"
       points="133156,76894 110963,115341 22194,115341 44385,76894 "
       id="polygon10-3"
       style="fill:#0078ad;fill-rule:evenodd"
       transform="matrix(0.00276658,0,0,0.00276658,71.806841,636.81229)" />
    <polygon
       class="fil1"
       points="88772,0 44385,0 88772,76894 133156,76894 "
       id="polygon12-2"
       style="fill:#ffd459;fill-rule:evenodd"
       transform="matrix(0.00276658,0,0,0.00276658,71.806841,636.81229)" />
    <polygon
       class="fil2"
       points="66578,38447 44385,0 0,76894 22194,115341 "
       id="polygon14-4"
       style="fill:#8db173;fill-rule:evenodd"
       transform="matrix(0.00276658,0,0,0.00276658,71.806841,636.81229)" />
  </g>
</svg>
