<svg xmlns="http://www.w3.org/2000/svg" xmlns:xlink="http://www.w3.org/1999/xlink" width="512" height="512">
 <defs>
  <linearGradient id="0">
   <stop stop-color="#6d8cad"/>
   <stop offset="1" stop-color="#32465c"/>
  </linearGradient>
  <filter color-interpolation-filters="sRGB">
   <feGaussianBlur stdDeviation="1.71"/>
  </filter>
  <radialGradient xlink:href="#0" id="1" cx="256" cy="256.00004" r="250" gradientTransform="translate(0,1.8944003e-6)" gradientUnits="userSpaceOnUse"/>
 </defs>
 <path d="m 506 256.00004 c 0 138.07119 -111.92881 250 -250 250 -138.07119 0 -250 -111.92881 -250 -250 C 6 117.92886 117.92881 6.00005 256 6.00005 c 138.07119 0 250 111.92881 250 249.99999 z" fill="url(#1)" fill-rule="evenodd"/>
 <path d="m 256 45.93774 c -116.01418 0 -210.06224 94.04808 -210.06224 210.06224 0 116.01418 94.04806 210.06228 210.06224 210.06228 116.01418 0 210.06224 -94.04809 210.06224 -210.06228 C 466.06224 139.98582 372.01418 45.93774 256 45.93774 z" fill="none" stroke="#fff8eb" stroke-width="29.875519"/>
 <g transform="matrix(1.8528721,0,0,1.8528721,-1038.8768,-1046.9328)" fill="#fff8eb">
  <path d="m 145.733 271.744 c -36.944 0 -67.002 -31.225 -67.002 -69.607 0 -21.093 9.077 -40.82 24.902 -54.123 3.606 -3.032 8.876 -3.032 12.484 0.001 8.506 7.154 18.747 10.937 29.616 10.937 10.882 0 21.13 -3.782 29.636 -10.937 3.607 -3.033 8.876 -3.033 12.483 -0.001 15.812 13.29 24.88 33.019 24.88 54.123 0 38.383 -30.055 69.607 -66.999 69.607 z M 110.857 168.218 c -8.094 9.196 -12.625 21.217 -12.625 33.952 0 27.601 21.309 50.053 47.501 50.053 26.191 0 47.499 -22.452 47.499 -50.053 0 -12.744 -4.522 -24.761 -12.604 -33.952 -10.448 6.629 -22.563 10.211 -34.895 10.211 -12.32 0 -24.429 -3.581 -34.876 -10.211 z" transform="translate(553.11693,533.00175)"/>
  <path d="m 682.85793,681.73975 h -0.008 c -6.61,0 -11.993,-5.376 -12,-11.982 -0.005,-6.628 5.374,-12.012 11.99,-12.019 6.62,0 12.002,5.376 12.01,11.982 0.005,6.628 -5.374,12.013 -11.99,12.02 h -0.002 z"/>
  <path d="m 696.85593,654.73875 h -0.006 c -5.51,0 -9.995,-4.48 -10,-9.986 -0.002,-2.681 1.036,-5.192 2.923,-7.081 1.888,-1.891 4.398,-2.932 7.069,-2.934 5.519,0 10.005,4.48 10.008,9.987 0.002,2.68 -1.036,5.19 -2.923,7.08 -1.887,1.889 -4.397,2.932 -7.069,2.934 h -0.002 z"/>
  <path d="m 718.84993,673.73975 c -6.062,0 -10.996,-4.929 -11,-10.986 -0.006,-6.073 4.924,-11.01 10.99,-11.015 6.07,0 11.004,4.928 11.01,10.985 0.005,6.073 -4.925,11.01 -10.99,11.016 h -0.01 z"/>
  <path d="m 691.85393 622.73675 l -0.006 0 c -4.407 0 -7.996 -3.584 -7.999 -7.991 -0.003 -2.141 0.828 -4.149 2.337 -5.662 1.51 -1.512 3.519 -2.346 5.656 -2.348 4.414 0 8.002 3.585 8.006 7.99 0.004 4.418 -3.582 8.007 -7.994 8.011 z"/>
  <path d="m 715.85693 636.73775 l -0.005 0 c -4.958 0 -8.997 -4.032 -9.002 -8.987 -0.002 -4.973 4.032 -9.011 8.994 -9.014 4.964 0 9.001 4.032 9.006 8.988 0.002 2.411 -0.932 4.672 -2.63 6.372 -1.7 1.702 -3.959 2.638 -6.363 2.641 z"/>
 </g>
</svg>
