<svg xmlns="http://www.w3.org/2000/svg" xmlns:xlink="http://www.w3.org/1999/xlink" width="512" height="512">
 <defs>
  <linearGradient id="0">
   <stop stop-color="#ef87a1"/>
   <stop offset="1" stop-color="#e75177"/>
  </linearGradient>
  <radialGradient xlink:href="#0" id="1" cx="256" cy="256.00004" r="250" gradientTransform="translate(0,1.8944003e-6)" gradientUnits="userSpaceOnUse"/>
 </defs>
 <path d="m 506 256.00004 c 0 138.07119 -111.92881 250 -250 250 -138.07119 0 -250 -111.92881 -250 -250 C 6 117.92886 117.92881 6.00005 256 6.00005 c 138.07119 0 250 111.92881 250 249.99999 z" fill="url(#1)" fill-rule="evenodd"/>
 <path d="m 256 45.93774 c -116.01418 0 -210.06224 94.04808 -210.06224 210.06224 0 116.01418 94.04806 210.06228 210.06224 210.06228 116.01418 0 210.06224 -94.04809 210.06224 -210.06228 C 466.06224 139.98582 372.01418 45.93774 256 45.93774 z" fill="none" stroke="#fff8eb" stroke-width="29.875519"/>
 <path d="m 362.73756 231.07957 c 0.34727 9.34073 -2.72521 13.87934 -5.50503 21.9056 l -4.99916 2.48597 c -4.08638 7.94097 0.41133 5.04142 -2.52055 11.35459 -6.3867 5.67157 -19.35378 17.74147 -23.50574 18.84758 -3.03511 -0.0337 2.05249 -3.57994 2.71759 -4.9524 -8.5403 5.86092 -6.8546 8.79915 -19.91837 12.3674 l -0.37976 -0.85188 c -32.20497 15.15536 -76.94367 -14.87271 -76.35633 -55.83819 -0.34279 2.59813 -0.97327 1.94877 -1.69053 2.99238 -1.66162 -21.07405 9.735 -42.24127 28.95726 -50.89736 18.80094 -9.30208 40.84165 -5.48995 54.29968 7.0711 -7.3919 -9.68845 -22.1182 -19.96077 -39.55797 -19.00975 -17.09251 0.27758 -33.08646 11.13824 -38.42187 22.93393 -8.75285 5.50917 -9.77343 21.24804 -13.58535 24.1322 -5.13826 37.73348 9.65375 54.02888 34.67923 73.20891 3.92792 2.65219 1.10693 3.05823 1.63004 5.07625 -8.31231 -3.88935 -15.92087 -9.7658 -22.18403 -16.96074 3.32505 4.85979 6.90883 9.58417 11.54452 13.29582 -7.84454 -2.64849 -18.3178 -18.99434 -21.36817 -19.65923 13.51249 24.1939 54.814 42.43065 76.4524 33.37998 -10.01325 0.3675 -22.7287 0.20568 -33.97134 -3.95126 -4.73577 -2.4318 -11.14992 -7.46142 -10.00166 -8.40107 29.52168 11.02226 60.00983 8.34297 85.54962 -12.12803 6.50275 -5.06434 13.60107 -13.67445 15.65402 -13.79031 -3.08926 4.64704 0.53272 2.23445 -1.84493 6.33643 6.46417 -10.44213 -2.8184 -4.25269 6.68852 -18.03144 l 3.51034 4.8325 c -1.31403 -8.67531 10.76712 -19.19914 9.53758 -32.90842 2.77218 -4.19076 3.08925 4.51555 0.15251 14.15759 4.07875 -10.69734 1.07657 -12.41776 2.12264 -21.24803 1.12554 2.96913 2.62121 6.1202 3.38269 9.25532 -2.65994 -10.34153 2.7179 -17.40904 4.05572 -23.4209 -1.31967 -0.5788 -4.10208 4.56996 -4.74384 -7.63932 0.12658 -5.30442 1.4824 -2.77977 2.00977 -4.08647 -1.03721 -0.60127 -3.76929 -4.66649 -5.42802 -12.46428 1.19494 -1.83695 3.21676 4.75113 4.85597 5.01804 -1.05537 -6.19753 -2.86873 -10.92583 -2.94606 -15.68482 -4.79387 -10.01336 -1.69607 1.33616 -5.57884 -4.29898 -5.10317 -15.90544 4.22958 -3.69233 4.86372 -10.91416 7.72437 11.19231 12.12798 28.55122 14.15774 35.73842 -1.54478 -8.76455 -4.04016 -17.25856 -7.09054 -25.47408 2.35445 0.99012 -3.78517 -18.02761 3.05816 -5.43184 -7.3033 -26.85025 -31.23059 -51.94132 -53.24842 -63.70982 2.68738 2.46283 6.08548 5.55569 4.87195 6.04289 -10.95714 -6.51446 -9.03154 -7.02862 -10.60103 -9.781626 -8.91167 -3.629961 -9.50707 0.295566 -15.4033 0.01071 -16.81676 -8.922875 -20.05672 -7.975794 -35.53305 -13.558576 l 0.70582 3.294032 c -11.13833 -3.711324 -12.97884 1.399656 -25.01394 0.01071 -0.72945 -0.569786 3.85837 -2.072175 7.63942 -2.617367 -10.77092 1.422243 -10.26839 -2.126335 -20.8074 0.385484 2.5942 -1.820325 5.34697 -3.03083 8.11499 -4.577821 -8.77987 0.53497 -20.96993 5.111204 -17.20804 0.939556 -14.32403 6.394417 -39.76698 15.367881 -54.04473 28.756309 l -0.44841 -3.00026 c -6.54122 7.85209 -28.52807 23.45226 -30.27949 33.63129 l -1.75041 0.40234 c -3.39878 5.76407 -5.60593 12.29414 -8.30465 18.22082 -4.4497 7.58931 -6.52593 2.92293 -5.89228 4.11364 -8.75622 17.75318 -13.11366 32.66892 -16.86779 44.90901 2.67534 4.0014 0.0337 24.09374 1.07441 40.17294 -4.39205 79.42553 55.74186 156.53536 121.47341 174.33481 9.63474 3.45262 23.95853 3.32866 36.14461 3.66907 -14.374 -4.11377 -16.23037 -2.17703 -30.24098 -7.05952 -10.10238 -4.76315 -12.31324 -10.19465 -19.47323 -16.4079 l 2.83357 5.0069 c -14.03351 -4.96857 -8.1609 -6.14752 -19.58178 -9.76275 l 3.027 -3.94666 c -4.55018 -0.34726 -12.05048 -7.66315 -14.09949 -11.72601 l -4.9796 0.20566 c -5.97714 -7.36914 -9.16689 -12.69287 -8.93076 -16.81777 l -1.6088 2.86832 c -1.81997 -3.12759 -22.00214 -27.67336 -11.5326 -21.95887 -1.94462 -1.77132 -4.53096 -2.88821 -7.33409 -7.98739 l 2.13028 -2.4326 c -5.02984 -6.48354 -9.27106 -14.79145 -8.94626 -17.5593 2.68703 3.62625 4.55062 4.30653 6.39858 4.92937 -12.72356 -31.56348 -13.43866 -1.73614 -23.06947 -32.12791 l 2.03429 -0.16744 c -1.55767 -2.36191 -2.51305 -4.9097 -3.76582 -7.41882 l 0.88673 -8.834 c -9.15485 -10.57776 -2.55949 -45.02104 -1.2322 -63.90727 0.9047 -7.67777 7.64336 -15.85486 12.75827 -28.67877 l -3.11612 -0.53496 c 5.96151 -10.39232 34.02968 -41.75039 47.03522 -40.14225 6.29789 -7.90995 -1.24995 -0.0107 -2.48598 -2.01777 13.83685 -14.31596 18.1863 -10.11363 27.52311 -12.69232 10.06348 -5.97308 -8.64069 2.33504 -3.87013 -2.27727 17.40928 -4.44184 12.3329 -10.10598 35.03888 -12.35988 2.39686 1.36246 -5.55577 2.10308 -7.55062 3.87001 14.49779 -7.09807 45.88683 -5.47826 66.28439 3.93565 23.6491 11.06114 50.23663 43.74152 51.2882 74.48864 l 1.19477 0.3248 c -0.60455 12.22479 1.87131 26.36316 -2.42431 39.34564 l 2.90381 -6.15086" fill="#fff8eb"/>
</svg>
