<svg xmlns="http://www.w3.org/2000/svg" width="512" height="512">
 <g transform="translate(0,464)">
  <path d="M 506 -208.00001 C 506 -69.928806 394.07117 42 256 42 117.92881 42 5.999999 -69.928806 5.999999 -208.00001 5.999999 -346.07118 117.92881 -458 256 -458 c 138.07117 0 250 111.92882 250 249.99999 z" fill="#999647"/>
  <path d="m 150.6449 -262.3893 c 0 0 0 0 0.0112 -0.002 l 23.7871 -6.37373 c 1.36303 -0.36522 2.16181 -1.76916 1.80195 -3.12243 -0.002 -0.009 -5.75318 -20.3187 -7.27229 -25.98812 l -0.0193 -0.0717 c -1.24768 -4.65642 -1.3583 -8.97771 -0.56746 -12.83592 l 0.40471 -1.74594 c -0.0893 0.0355 -0.16601 0.11047 -0.23233 0.2238 l -33.93801 58.21702 c -0.073 0.0965 -0.10069 0.2105 -0.10102 0.31608 0.82967 -0.73002 1.96299 -1.72621 2.12607 -1.85695 3.53841 -2.89462 8.15205 -5.19756 13.99454 -6.76305 z m 183.75665 -54.5863 c -4.59986 -9.60837 -11.94915 -12.98195 -17.91137 -13.48497 -6.43417 -0.5484 -18.91726 0.44256 -34.33425 2.68559 -12.4028 1.80572 -26.50444 5.70501 -34.97008 8.25623 -2.90454 -6.74281 -9.54438 -11.83474 -15.64659 -12.57848 -16.25614 -1.97436 -38.54509 5.5272 -43.92902 8.71829 -4.27886 2.53202 -8.68883 6.55316 -10.44417 11.39938 -1.18016 3.239 -1.48052 7.06404 -0.18236 11.94746 0.7402 2.76249 2.55566 9.25062 4.17969 15.01235 1.62581 5.78039 3.08949 10.94772 3.09896 10.98308 1.38117 5.16416 -1.67794 10.48798 -6.86246 11.88419 l -23.7909 6.37476 c -5.07482 1.35979 -8.72363 3.2518 -11.32515 5.39075 -2.6056 2.14182 -4.22002 4.52047 -5.24081 7.09643 -2.03453 5.11708 -1.17574 10.529 0.27669 15.89737 0 0 1.22749 4.3761 4.55732 12.59037 2.64129 6.33862 22.0765 50.35442 32.59079 62.50755 4.08173 4.73088 6.43719 6.52569 12.23736 7.53904 12.81159 1.84106 40.53018 0.28101 53.25425 -1.44829 12.70275 -1.71937 21.29629 -0.48153 23.30915 -11.34451 0.005 -0.0233 0.27864 -2.64294 0.59013 -6.45645 0.74997 -13.1543 -1.56843 -24.0263 -3.64768 -31.78619 -0.21155 -0.78949 0.93662 -1.13558 1.15777 -0.31022 1.46795 5.47849 5.61621 25.14568 21.65471 26.42265 6.33068 0.5013 18.81379 -0.8845 31.38239 -2.72146 11.35806 -1.68644 20.51615 0.50708 28.0908 28.77607 4.60841 17.19883 1.62765 20.52512 -17.25707 25.58527 -15.30846 4.10189 -21.037 6.06103 -24.29567 -6.10049 -2.63376 -9.82936 7.36384 -11.40413 14.56885 -13.33469 3.21822 -0.86233 0.24141 -2.63022 -1.38355 -8.69467 -1.61639 -6.03247 1.22223 -10.53059 -2.3704 -9.66256 -25.09814 5.99095 -39.5825 10.57319 -31.23286 41.73449 7.57947 28.28695 19.81203 30.638976 55.17253 21.16416 27.72467 -7.428805 37.25459 -10.954885 39.18462 -49.542725 0.38727 -7.61912 0.13151 -30.48606 -6.18012 -67.30379 -3.9906 -23.27928 -26.43532 -90.75537 -34.30283 -107.19563 z m -28.02196 88.73826 c -3.45737 0.79784 -6.69501 1.89279 -9.63371 3.21432 -1.00567 -7.21459 -0.42019 -16.55477 9.88598 -18.93189 11.40633 -2.63982 15.85237 7.61833 17.83126 14.84325 -5.33481 -0.84816 -11.59724 -0.62115 -18.08346 0.87463 z" fill="#fff8eb"/>
  <path d="m 256 -431.14286 c -123.2384 0 -223.14286 99.90447 -223.14286 223.14286 0 123.23841 99.90446 223.14286 223.14286 223.14286 123.23839 0 223.14286 -99.90445 223.14286 -223.14286 0 -123.23839 -99.90447 -223.14286 -223.14286 -223.14286 z m 0 29.59432 c 106.9005 0 193.54854 86.64804 193.54854 193.54854 0 106.90052 -86.64804 193.54854 -193.54854 193.54854 -106.90052 0 -193.54854 -86.64802 -193.54854 -193.54854 0 -106.9005 86.64802 -193.54854 193.54854 -193.54854 z" fill="#fff8eb"/>
 </g>
</svg>
