<svg xmlns="http://www.w3.org/2000/svg" xmlns:xlink="http://www.w3.org/1999/xlink" width="512" height="512">
 <defs>
  <linearGradient y2="7.01654" x2="0" y1="92.5396" gradientTransform="scale(1.0058652,0.994169)" gradientUnits="userSpaceOnUse" xlink:href="#1"/>
  <filter x="-0.192" y="-0.192" width="1.384" height="1.384" color-interpolation-filters="sRGB">
   <feGaussianBlur stdDeviation="5.28"/>
  </filter>
  <clipPath>
   <rect width="84" height="84" rx="6" x="6" y="6" fill="#fff"/>
  </clipPath>
  <linearGradient id="0">
   <stop stop-color="#fff"/>
   <stop offset="1" stop-color="#fff" stop-opacity="0"/>
  </linearGradient>
  <linearGradient y1="20.220806" x2="0" y2="138.66119" xlink:href="#0" gradientUnits="userSpaceOnUse"/>
  <filter color-interpolation-filters="sRGB">
   <feGaussianBlur stdDeviation="1.71"/>
  </filter>
  <linearGradient y1="92.5396" x2="0" y2="7.01654" id="1" gradientUnits="userSpaceOnUse" gradientTransform="scale(1.0058652,0.994169)">
   <stop/>
   <stop offset="1" stop-opacity="0.588235"/>
  </linearGradient>
  <linearGradient gradientUnits="userSpaceOnUse" xlink:href="#0" y2="138.66119" x2="0" y1="20.220806"/>
  <clipPath>
   <rect y="6" x="6" rx="6" height="84" width="84" fill="#fff"/>
  </clipPath>
  <linearGradient xlink:href="#1" gradientUnits="userSpaceOnUse" gradientTransform="scale(1.0058652,0.994169)" y1="92.5396" x2="0" y2="7.01654"/>
  <linearGradient id="2">
   <stop stop-color="#fff" stop-opacity="0.7897"/>
   <stop offset="1" stop-color="#fff" stop-opacity="0"/>
  </linearGradient>
  <radialGradient xlink:href="#2" id="3" gradientUnits="userSpaceOnUse" gradientTransform="matrix(1.1120554,7.5424316e-8,-1.6663972e-7,2.4569345,-28.722136,-679.77432)" cx="254.58705" cy="472.1575" r="242.48438"/>
  <path id="4" d="m 1192.7377 171.57858 c 0 16.73676 -13.5678 30.30458 -30.3046 30.30458 -16.7368 0 -30.3046 -13.56782 -30.3046 -30.30458 0 -16.73675 13.5678 -30.30457 30.3046 -30.30457 16.7368 0 30.3046 13.56782 30.3046 30.30457 z" fill-rule="evenodd"/>
 </defs>
 <g transform="translate(0,-540.36217)">
  <path d="m 171.19523 546.36217 c -2.97837 0.87749 -5.96431 1.80524 -8.90037 2.77188 2.936 -0.96683 5.92206 -1.89422 8.90037 -2.77188 z m 169.60954 0 c 2.97831 0.87766 5.96437 1.80505 8.90037 2.77188 -2.93606 -0.96664 -5.922 -1.89439 -8.90037 -2.77188 z m -182.88832 4.24338 c -2.91425 1.0106 -5.81572 2.08528 -8.68504 3.18253 2.86925 -1.09746 5.77085 -2.17173 8.68504 -3.18253 z m 196.1671 0 c 2.91419 1.0108 5.81579 2.08507 8.68504 3.18253 -2.86932 -1.09725 -5.77079 -2.17193 -8.68504 -3.18253 z m -225.91875 12.1826 c -4.12408 1.9599 -8.19383 4.01892 -12.20212 6.15974 4.00818 -2.14115 8.07815 -4.19951 12.20212 -6.15974 z m -12.20212 6.15974 c -2.67221 1.42721 -5.31281 2.90895 -7.93139 4.41448 2.61849 -1.50574 5.25925 -2.98705 7.93139 -4.41448 z m -7.93139 4.41448 c -2.60995 1.50058 -5.19699 3.04308 -7.75193 4.61981 2.56312 -1.5824 5.13345 -3.11406 7.75193 -4.61981 z M 383.8352 562.78815 c 4.12397 1.96023 8.19394 4.01859 12.20212 6.15974 -4.00829 -2.14082 -8.07804 -4.19984 -12.20212 -6.15974 z m 12.20212 6.15974 c 2.67214 1.42743 5.3129 2.90874 7.93139 4.41448 -2.61858 -1.50553 -5.25918 -2.98727 -7.93139 -4.41448 z m 7.93139 4.41448 c 2.61848 1.50575 5.18881 3.03741 7.75193 4.61981 -2.55494 -1.57673 -5.14198 -3.11923 -7.75193 -4.61981 z M 256 569.59809 c -91.41297 0 -171.34261 46.82997 -214.93684 116.65867 C 18.815906 721.89215 6 763.49768 6 807.98011 c 0 131.64726 111.93666 238.38209 250 238.38209 138.06334 0 250 -106.73483 250 -238.38209 0 -44.48243 -12.81592 -86.08796 -35.06316 -121.72335 C 427.34259 616.42806 347.41297 569.59809 256 569.59809 z M 92.67097 582.84153 c -3.75911 2.48575 -7.46386 5.04992 -11.08957 7.69968 3.62561 -2.65008 7.33056 -5.21361 11.08957 -7.69968 z m -11.08957 7.69968 c -2.41715 1.7665 -4.82205 3.56956 -7.17773 5.40689 2.35562 -1.83754 4.76065 -3.64017 7.17773 -5.40689 z m -7.17773 5.40689 c -3.53351 2.75598 -6.981489 5.61034 -10.371801 8.52097 3.390225 -2.9109 6.838391 -5.76468 10.371801 -8.52097 z m -10.371801 8.52097 c -2.260208 1.94041 -4.480892 3.91314 -6.67528 5.9202 2.194334 -2.00723 4.415131 -3.9796 6.67528 -5.9202 z m -6.67528 5.9202 c -1.103289 1.0091 -2.179542 2.02001 -3.265863 3.04565 1.080386 -1.01997 2.168696 -2.04203 3.265863 -3.04565 z M 419.32903 582.84153 c 3.75901 2.48607 7.46396 5.0496 11.08957 7.69968 -3.62571 -2.64976 -7.33046 -5.21393 -11.08957 -7.69968 z m 11.08957 7.69968 c 2.41708 1.76672 4.82211 3.56935 7.17773 5.40689 -2.35568 -1.83733 -4.76058 -3.64039 -7.17773 -5.40689 z m 7.17773 5.40689 c 3.53341 2.75629 6.98157 5.61007 10.3718 8.52097 -3.39031 -2.91063 -6.8383 -5.76499 -10.3718 -8.52097 z m 10.3718 8.52097 c 2.26016 1.9406 4.48094 3.91297 6.67528 5.9202 -2.19438 -2.00706 -4.41507 -3.97979 -6.67528 -5.9202 z m 6.67528 5.9202 c 1.09717 1.00362 2.18547 2.02568 3.26586 3.04565 -1.08631 -1.02564 -2.16257 -2.03655 -3.26586 -3.04565 z" fill="#ef6a47" fill-rule="evenodd"/>
  <path d="M 256 29.25 C 240.96366 29.25 226.24184 30.509468 211.9375 32.9375 L 241.15625 438.8125 L 75.1875 103.09375 C 62.20897 116.06233 50.734987 130.41298 41.0625 145.90625 C 35.434397 154.92128 30.397367 164.30214 26.03125 174.03125 L 215 452.875 L 13.34375 318.46875 C 21.72812 351.88103 36.81388 382.63449 57.125 409.1875 L 199.375 478.1875 L 130.40625 473.75 C 130.85599 473.99969 131.29849 474.25291 131.75 474.5 C 162.93446 491.56542 198.35711 502.41468 236.125 505.25 L 237.5 505.15625 C 237.53253 505.22775 237.55986 505.30353 237.59375 505.375 C 243.67592 505.79742 249.80487 506 256 506 C 298.04601 506 337.66145 496.08104 372.4375 478.59375 C 372.51136 478.55471 372.58244 478.50786 372.65625 478.46875 C 373.70518 477.91294 374.77247 477.35145 375.8125 476.78125 L 310.34375 481.5 L 453.21875 410.84375 C 474.19615 383.88962 489.75779 352.52362 498.3125 318.375 L 296.15625 455.375 L 485.0625 172.0625 C 480.90893 163.03364 476.18487 154.31143 470.9375 145.90625 C 460.82521 129.70852 448.77482 114.73779 435.0625 101.3125 L 270.90625 439.71875 L 297.125 32.4375 C 283.74357 30.32321 270.0104 29.25 256 29.25 z" transform="translate(0,540.36217)" fill="url(#3)" fill-rule="evenodd"/>
  <text y="1089.8812" x="-1160.4812" font-family="Gentium Book Basic" word-spacing="0" line-height="125%" letter-spacing="0" font-size="208.33333"><tspan y="1089.8812" x="-1160.4812"/>
  </text>
  <text transform="scale(4.0128362,0.2492003)" font-size="75.69771" y="3810.6255" x="28.533577" font-family="Arial" text-anchor="middle"/>
  <path d="M 168.875 105.75 L 170.15625 116.75 L 170.75 129.03125 L 171.4375 147.34375 L 171.125 162.65625 L 170.09375 174.46875 C 170.09375 174.46875 167.03968 191.37395 166.9375 192.15625 C 166.83533 192.93859 163.1875 203.90625 163.1875 203.90625 L 157.125 215.3125 L 150.09375 223.53125 L 138.1875 231.375 L 125.84375 233.53125 L 113.28125 233.28125 L 107.8125 230.96875 L 95.59375 252.9375 L 86.75 263.46875 L 79.28125 273.65625 L 93.25 294.3125 L 120.78125 325.59375 L 141.65625 345.40625 L 158.53125 359.375 L 175.375 370.9375 L 198.1875 383.46875 L 223.6875 396.4375 L 245.59375 403.21875 L 267.09375 405.15625 L 293.125 406.25 L 317.78125 402.3125 L 338.21875 394.0625 L 358.8125 382.25 L 378.03125 367.84375 L 393.34375 351.96875 L 407.5 334.71875 L 419.625 317.53125 L 429.65625 300.40625 L 448.09375 263.46875 L 459.5 233.375 L 471.53125 201 L 478.4375 174.15625 L 480.96875 163.6875 C 477.87425 157.61469 474.54137 151.67888 470.9375 145.90625 C 470.54278 145.27399 470.15066 144.62847 469.75 144 L 424.75 179.34375 L 401.03125 191.8125 L 385.125 196.40625 C 381.7919 187.63816 375.93654 182.57424 369.875 176.53125 L 360.78125 168.03125 L 352.375 162.0625 L 339.96875 154.21875 L 329.40625 149.28125 L 316.4375 144.5625 L 294.21875 140.125 L 281 138.5625 L 269.78125 138.71875 C 259.56572 138.42025 257.14104 139.00678 251.09375 139.84375 C 249.35316 140.15729 239.77389 143.18709 238.75 143.21875 C 237.7261 143.25045 216.53125 149.34375 216.53125 149.34375 L 196.53125 130.6875 L 182.71875 118.21875 L 168.875 105.75 z" transform="translate(0,540.36217)" fill="#5a4739"/>
  <path d="m 1060.6601 183.19534 c 0 23.15251 -18.7688 41.92133 -41.9213 41.92133 -23.15254 0 -41.92136 -18.76882 -41.92136 -41.92133 0 -23.15251 18.76882 -41.92133 41.92136 -41.92133 23.1525 0 41.9213 18.76882 41.9213 41.92133 z" transform="matrix(0.98814739,-0.42983074,0.43298198,1.2122677,-1018.2654,976.50608)" fill="#282629" fill-rule="evenodd"/>
  <use transform="matrix(0.98617614,0.1619188,-0.15140261,1.159135,-921.66312,379.06584)" fill="#fff8eb" xlink:href="#4"/>
  <use transform="matrix(1.4520861,0.23841587,-0.2229314,1.7067578,-1370.2237,227.52341)" fill="#fff8eb" xlink:href="#4"/>
  <use transform="matrix(0.27954596,0.04589824,-0.04291727,0.32857367,-118.86659,656.43851)" fill="#282629" xlink:href="#4"/>
  <use transform="matrix(0.52026611,0.08542172,-0.07987381,0.61151213,-311.59089,593.28956)" fill="#282629" xlink:href="#4"/>
  <use transform="matrix(0.15530329,0.02549902,-0.02384293,0.18254091,96.332155,729.93738)" fill="#fff8eb" xlink:href="#4"/>
  <use transform="matrix(0.09579921,0.01572913,-0.01470757,0.1126008,86.80414,723.80455)" fill="#fff8eb" xlink:href="#4"/>
  <text y="963.94189" x="-348.64853" font-family="Gentium Book Basic" word-spacing="0" line-height="125%" letter-spacing="0" font-size="208.33334"><tspan y="963.94189" x="-348.64853"/>
  </text>
  <text transform="scale(4.0128361,0.24920031)" font-size="75.69771" y="3305.2522" x="230.84256" font-family="Arial" text-anchor="middle"/>
 </g>
</svg>
