<?xml version="1.0" encoding="UTF-8" standalone="no"?>
<!-- Created with Inkscape (http://www.inkscape.org/) -->

<svg
   xmlns:dc="http://purl.org/dc/elements/1.1/"
   xmlns:cc="http://creativecommons.org/ns#"
   xmlns:rdf="http://www.w3.org/1999/02/22-rdf-syntax-ns#"
   xmlns:svg="http://www.w3.org/2000/svg"
   xmlns="http://www.w3.org/2000/svg"
   xmlns:sodipodi="http://sodipodi.sourceforge.net/DTD/sodipodi-0.dtd"
   xmlns:inkscape="http://www.inkscape.org/namespaces/inkscape"
   width="512"
   height="512"
   id="svg2"
   version="1.1"
   inkscape:version="0.48+devel r13149 custom"
   sodipodi:docname="hugin.svg">
  <defs
     id="defs4" />
  <sodipodi:namedview
     id="base"
     pagecolor="#ffffff"
     bordercolor="#666666"
     borderopacity="1.0"
     inkscape:pageopacity="0.0"
     inkscape:pageshadow="2"
     inkscape:zoom="0.98994949"
     inkscape:cx="324.86028"
     inkscape:cy="207.62434"
     inkscape:document-units="px"
     inkscape:current-layer="layer1"
     showgrid="false"
     inkscape:window-width="1309"
     inkscape:window-height="750"
     inkscape:window-x="55"
     inkscape:window-y="-3"
     inkscape:window-maximized="1" />
  <metadata
     id="metadata7">
    <rdf:RDF>
      <cc:Work
         rdf:about="">
        <dc:format>image/svg+xml</dc:format>
        <dc:type
           rdf:resource="http://purl.org/dc/dcmitype/StillImage" />
        <dc:title></dc:title>
      </cc:Work>
    </rdf:RDF>
  </metadata>
  <g
     inkscape:label="Layer 1"
     inkscape:groupmode="layer"
     id="layer1"
     transform="translate(0,-540.36218)">
    <path
       style="fill:#999647;fill-rule:evenodd;stroke:none"
       d="M 256 6 A 250 250 0 0 0 234.70898 7.0644531 A 250 250 0 0 1 256 6 z M 268.78516 6.6386719 A 250 250 0 0 1 282.06055 7.4140625 A 250 250 0 0 0 268.78516 6.6386719 z M 222.26758 8.5742188 A 250 250 0 0 0 209.94922 10.435547 A 250 250 0 0 1 222.26758 8.5742188 z M 292.47461 8.9902344 A 250 250 0 0 1 306.81836 11.277344 A 250 250 0 0 0 292.47461 8.9902344 z M 197.72852 13.179688 A 250 250 0 0 0 185.66992 16.259766 A 250 250 0 0 1 197.72852 13.179688 z M 316.00391 13.623047 A 250 250 0 0 1 331.10352 17.613281 A 250 250 0 0 0 316.00391 13.623047 z M 173.79102 20.205078 A 250 250 0 0 0 162.08203 24.480469 A 250 250 0 0 1 173.79102 20.205078 z M 338.74414 20.400391 A 250 250 0 0 1 354.625 26.347656 A 250 250 0 0 0 338.74414 20.400391 z M 360.81836 29.339844 A 250 250 0 0 1 377.14844 37.396484 A 250 250 0 0 0 360.81836 29.339844 z M 150.67188 29.585938 A 250 250 0 0 0 139.43359 35.015625 A 250 250 0 0 1 150.67188 29.585938 z M 382.0293 40.388672 A 250 250 0 0 1 398.42773 50.628906 A 250 250 0 0 0 382.0293 40.388672 z M 128.59766 41.230469 A 250 250 0 0 0 117.95312 47.757812 A 250 250 0 0 1 128.59766 41.230469 z M 402.24023 53.527344 A 250 250 0 0 1 418.29883 65.947266 A 250 250 0 0 0 402.24023 53.527344 z M 107.79688 55.019531 A 250 250 0 0 0 97.855469 62.576172 A 250 250 0 0 1 107.79688 55.019531 z M 420.95117 68.419922 A 250 250 0 0 1 436.50586 83.152344 A 250 250 0 0 0 420.95117 68.419922 z M 88.464844 70.826172 A 250 250 0 0 0 79.333984 79.333984 A 250 250 0 0 1 88.464844 70.826172 z M 438.38867 85.294922 A 250 250 0 0 1 452.89844 102.08984 A 250 250 0 0 0 438.38867 85.294922 z M 70.826172 88.464844 A 250 250 0 0 0 62.576172 97.855469 A 250 250 0 0 1 70.826172 88.464844 z M 454.1543 103.84375 A 250 250 0 0 1 467.3125 122.57227 A 250 250 0 0 0 454.1543 103.84375 z M 55.019531 107.79688 A 250 250 0 0 0 47.757812 117.95312 A 250 250 0 0 1 55.019531 107.79688 z M 468.03906 123.83789 A 250 250 0 0 1 479.60547 144.39648 A 250 250 0 0 0 468.03906 123.83789 z M 41.230469 128.59766 A 250 250 0 0 0 35.015625 139.43359 A 250 250 0 0 1 41.230469 128.59766 z M 479.91406 145.08398 A 250 250 0 0 1 489.64453 167.32422 A 250 250 0 0 0 479.91406 145.08398 z M 29.585938 150.67188 A 250 250 0 0 0 24.480469 162.08203 A 250 250 0 0 1 29.585938 150.67188 z M 489.73047 167.57617 A 250 250 0 0 1 497.33594 191.11719 A 250 250 0 0 0 489.73047 167.57617 z M 20.205078 173.79102 A 250 250 0 0 0 16.259766 185.66992 A 250 250 0 0 1 20.205078 173.79102 z M 497.33789 191.12305 C 483.68108 201.13884 472.72656 209.17969 472.72656 209.17969 L 370.70117 267.76953 L 237.36133 302.11328 L 102.00195 305.14453 L 9.0742188 293.86133 A 250 250 0 0 0 256 506 A 250 250 0 0 0 506 256 A 250 250 0 0 0 497.33789 191.12305 z M 13.179688 197.72852 A 250 250 0 0 0 10.435547 209.94922 A 250 250 0 0 1 13.179688 197.72852 z M 8.5742188 222.26758 A 250 250 0 0 0 7.0644531 234.70898 A 250 250 0 0 1 8.5742188 222.26758 z M 6 256 A 250 250 0 0 0 7.2597656 278.90625 A 250 250 0 0 1 6 256 z "
       transform="translate(0,540.36218)"
       id="path2985" />
    <path
       style="fill:#62c0dc;stroke:none;stroke-width:1px;stroke-linecap:butt;stroke-linejoin:miter;stroke-opacity:1"
       d="M 256 6 A 250 250 0 0 0 6 256 A 250 250 0 0 0 9.0742188 293.86133 L 102.00195 305.14453 L 237.36133 302.11328 L 370.70117 267.76953 L 472.72656 209.17969 C 472.72656 209.17969 483.68108 201.13884 497.33789 191.12305 A 250 250 0 0 0 256 6 z "
       id="path4134"
       transform="translate(0,540.36218)" />
    <path
       style="fill:#000000;fill-rule:evenodd;stroke:none;stroke-width:5.23261786px;stroke-linecap:butt;stroke-linejoin:miter;stroke-opacity:1"
       d="M 494.85742 183.00977 C 439.7651 221.39634 371.304 257.88209 318.91406 276.39453 C 299.80373 283.14733 268.19807 291.19147 249.08398 294.16797 C 229.54837 297.2101 161.28551 298.3676 122.11523 296.32031 C 107.72553 295.56821 77.945274 293.21688 55.9375 291.0957 C 39.326627 289.49471 20.573003 287.85302 8.2304688 286.89648 A 250 250 0 0 0 9.3867188 296.4375 C 32.881674 299.83742 56.44328 302.78348 80.058594 305.20898 C 113.31122 308.62433 146.6866 311.07312 180.11133 311.50781 C 196.11789 311.71597 212.13787 311.45529 228.10742 310.34766 C 242.14354 309.37417 256.16356 307.78476 269.91797 304.82227 C 322.5959 293.47625 372.46228 271.23341 419.20117 244.41602 C 441.78325 231.45909 463.65979 217.26263 484.60938 201.80469 C 488.95897 198.59527 493.26859 195.32914 497.53516 192.00781 A 250 250 0 0 0 494.85742 183.00977 z "
       transform="translate(0,540.36218)"
       id="path2384" />
    <path
       style="fill:#000000;fill-opacity:1;fill-rule:evenodd;stroke:none"
       d="m 313.01562,832.36078 -66.16601,11.16206 1.53711,20.73038 c 0,0 12.31119,4.78283 15.38867,28.70099 2.507,19.48438 16.2421,102.44843 20.41797,151.50559 a 250,256.92188 0 0 0 30.4082,-5.4997 c -2.6066,-9.7579 -4.90031,-20.3974 -6.20312,-31.1979 -4.61623,-38.26905 -7.69336,-76.53868 -7.69336,-76.53868 0,0 34.79831,52.45393 56.76758,92.72668 a 250,256.92188 0 0 0 27.73828,-14.8091 l -64.50196,-111.40374 -7.69336,-65.37658 z"
       id="path3183"
       inkscape:connector-curvature="0" />
    <path
       inkscape:connector-curvature="0"
       d="m 271.27226,738.41193 c -22.69605,0 -41.12721,17.62134 -41.12722,39.3234 0,21.70206 18.43118,39.32341 41.12722,39.3234 22.69605,0 41.12722,-17.62134 41.12722,-39.3234 0,-21.70206 -18.43116,-39.3234 -41.12722,-39.3234 z m -0.72153,8.47798 c 19.21138,10e-6 34.63345,14.04947 34.63345,31.38657 10e-6,17.33709 -15.42207,31.38656 -34.63345,31.38656 -19.21137,-10e-6 -34.81383,-14.04947 -34.81383,-31.38656 0,-17.3371 15.60245,-31.38657 34.81383,-31.38657 z"
       id="path3187"
       style="fill:#ffd459;fill-opacity:1;stroke:#000000;stroke-width:15.69785404;stroke-miterlimit:4;stroke-opacity:1;stroke-dasharray:none" />
  </g>
</svg>
