<svg xmlns="http://www.w3.org/2000/svg" xmlns:xlink="http://www.w3.org/1999/xlink" width="512" height="512">
 <defs>
  <linearGradient y2="7.01654" x2="0" y1="92.5396" gradientTransform="scale(1.0058652,0.994169)" gradientUnits="userSpaceOnUse" xlink:href="#1"/>
  <filter x="-0.192" y="-0.192" width="1.384" height="1.384" color-interpolation-filters="sRGB">
   <feGaussianBlur stdDeviation="5.28"/>
  </filter>
  <clipPath>
   <rect width="84" height="84" rx="6" x="6" y="6" fill="#fff"/>
  </clipPath>
  <linearGradient id="0">
   <stop stop-color="#fff"/>
   <stop offset="1" stop-color="#fff" stop-opacity="0"/>
  </linearGradient>
  <linearGradient y1="20.220806" x2="0" y2="138.66119" xlink:href="#0" gradientUnits="userSpaceOnUse"/>
  <filter color-interpolation-filters="sRGB">
   <feGaussianBlur stdDeviation="1.71"/>
  </filter>
  <linearGradient y1="92.5396" x2="0" y2="7.01654" id="1" gradientUnits="userSpaceOnUse" gradientTransform="scale(1.0058652,0.994169)">
   <stop/>
   <stop offset="1" stop-opacity="0.588235"/>
  </linearGradient>
 </defs>
 <g transform="translate(0,-540.36217)">
  <path d="m 171.19523 546.36217 c -2.97837 0.87749 -5.96431 1.80524 -8.90037 2.77188 2.936 -0.96683 5.92206 -1.89422 8.90037 -2.77188 z m 169.60954 0 c 2.97831 0.87766 5.96437 1.80505 8.90037 2.77188 -2.93606 -0.96664 -5.922 -1.89439 -8.90037 -2.77188 z m -182.88832 4.24338 c -2.91425 1.0106 -5.81572 2.08528 -8.68504 3.18253 2.86925 -1.09746 5.77085 -2.17173 8.68504 -3.18253 z m 196.1671 0 c 2.91419 1.0108 5.81579 2.08507 8.68504 3.18253 -2.86932 -1.09725 -5.77079 -2.17193 -8.68504 -3.18253 z m -225.91875 12.1826 c -4.12408 1.9599 -8.19383 4.01892 -12.20212 6.15974 4.00818 -2.14115 8.07815 -4.19951 12.20212 -6.15974 z m -12.20212 6.15974 c -2.67221 1.42721 -5.31281 2.90895 -7.93139 4.41448 2.61849 -1.50574 5.25925 -2.98705 7.93139 -4.41448 z m -7.93139 4.41448 c -2.60995 1.50058 -5.19699 3.04308 -7.75193 4.61981 2.56312 -1.5824 5.13345 -3.11406 7.75193 -4.61981 z M 383.8352 562.78815 c 4.12397 1.96023 8.19394 4.01859 12.20212 6.15974 -4.00829 -2.14082 -8.07804 -4.19984 -12.20212 -6.15974 z m 12.20212 6.15974 c 2.67214 1.42743 5.3129 2.90874 7.93139 4.41448 -2.61858 -1.50553 -5.25918 -2.98727 -7.93139 -4.41448 z m 7.93139 4.41448 c 2.61848 1.50575 5.18881 3.03741 7.75193 4.61981 -2.55494 -1.57673 -5.14198 -3.11923 -7.75193 -4.61981 z M 256 569.59809 c -91.41297 0 -171.34261 46.82997 -214.93684 116.65867 C 18.815906 721.89215 6 763.49768 6 807.98011 c 0 131.64726 111.93666 238.38209 250 238.38209 138.06334 0 250 -106.73483 250 -238.38209 0 -44.48243 -12.81592 -86.08796 -35.06316 -121.72335 C 427.34259 616.42806 347.41297 569.59809 256 569.59809 z M 92.67097 582.84153 c -3.75911 2.48575 -7.46386 5.04992 -11.08957 7.69968 3.62561 -2.65008 7.33056 -5.21361 11.08957 -7.69968 z m -11.08957 7.69968 c -2.41715 1.7665 -4.82205 3.56956 -7.17773 5.40689 2.35562 -1.83754 4.76065 -3.64017 7.17773 -5.40689 z m -7.17773 5.40689 c -3.53351 2.75598 -6.981489 5.61034 -10.371801 8.52097 3.390225 -2.9109 6.838391 -5.76468 10.371801 -8.52097 z m -10.371801 8.52097 c -2.260208 1.94041 -4.480892 3.91314 -6.67528 5.9202 2.194334 -2.00723 4.415131 -3.9796 6.67528 -5.9202 z m -6.67528 5.9202 c -1.103289 1.0091 -2.179542 2.02001 -3.265863 3.04565 1.080386 -1.01997 2.168696 -2.04203 3.265863 -3.04565 z M 419.32903 582.84153 c 3.75901 2.48607 7.46396 5.0496 11.08957 7.69968 -3.62571 -2.64976 -7.33046 -5.21393 -11.08957 -7.69968 z m 11.08957 7.69968 c 2.41708 1.76672 4.82211 3.56935 7.17773 5.40689 -2.35568 -1.83733 -4.76058 -3.64039 -7.17773 -5.40689 z m 7.17773 5.40689 c 3.53341 2.75629 6.98157 5.61007 10.3718 8.52097 -3.39031 -2.91063 -6.8383 -5.76499 -10.3718 -8.52097 z m 10.3718 8.52097 c 2.26016 1.9406 4.48094 3.91297 6.67528 5.9202 -2.19438 -2.00706 -4.41507 -3.97979 -6.67528 -5.9202 z m 6.67528 5.9202 c 1.09717 1.00362 2.18547 2.02568 3.26586 3.04565 -1.08631 -1.02564 -2.16257 -2.03655 -3.26586 -3.04565 z" fill="#514a85" fill-rule="evenodd"/>
  <text y="1089.8812" x="-1160.4812" font-family="Gentium Book Basic" word-spacing="0" line-height="125%" letter-spacing="0" font-size="208.33333"><tspan y="1089.8812" x="-1160.4812"/>
  </text>
  <text transform="scale(4.0128362,0.2492003)" font-size="75.69771" y="3810.6255" x="28.533577" font-family="Arial" text-anchor="middle"/>
  <path d="m 396.28285 661.18458 c -1.15344 -1.1388 -2.31981 -2.26296 -3.49996 -3.37333 1.1612 1.12157 2.32929 2.24573 3.49996 3.37333 z" fill="#282629"/>
  <path d="m 55.47998 774.06453 c 0 0 -0.59352 0.72618 -1.486815 1.93648 -0.127491 0.66071 -0.259288 1.32056 -0.379887 1.98299 0.561647 -1.56434 1.18101 -2.89007 1.866702 -3.91947 z" fill="#282629"/>
  <path d="m 286.6875 127.34375 c -17.96953 1.21781 -22.61666 5.45015 -29.23454 9.62393 -7.80506 4.80459 -7.69589 10.56279 -13.79104 17.46809 -2.23823 2.51455 -4.32978 5.37091 -5.88067 8.25173 0.82347 -3.11435 1.49659 -6.8308 4.52376 -8.60625 1.33848 -0.94324 1.59405 -3.06797 0.22624 -4.1125 -0.75584 -0.8324 -1.65796 -1.60614 -2 -2.71875 -1.80345 -0.12173 -3.29621 -1.20604 -4.76718 -2.12031 -3.2587 -1.20451 -12.13157 0.94894 -15.35225 1.40081 -7.33 1.59452 -9.23301 1.87668 -16.60871 3.21353 -5.90805 0.91765 -11.8274 2.14423 -17.28266 4.67396 -10.05419 4.34127 -18.92918 11.03663 -26.76825 18.60924 -6.63293 6.9998 -10.78307 15.81647 -15.65245 24.03103 -6.08385 10.7899 -11.2849 22.08374 -15.31908 33.80015 -4.38605 12.02965 -8.32287 24.2157 -12.37442 36.36034 -1.05386 1.0674 1.33508 2.59527 1.80629 1.08951 0.99669 -1.77188 1.86461 -3.62187 3.00621 -5.30826 -0.49727 13.84255 -1.86214 27.63188 -2.79115 41.44785 -0.83871 11.01805 -1.63015 22.04166 -2.08385 33.0834 1.0008 -1.54776 1.17121 -3.46242 1.89438 -5.13918 1.14442 -3.59784 2.28215 -7.1978 3.41812 -10.79832 5.609 19.21881 9.93158 38.82163 16.5541 57.73681 7.13873 20.37338 17.19451 39.73053 29.80419 57.25422 5.26966 7.27374 11.03614 14.22809 17.55309 20.4179 6.07307 5.03125 14.04482 7.0611 21.78559 7.46977 16.40642 1.50489 32.90109 1.4912 49.36075 1.33446 19.33601 -0.57965 38.87605 -1.07216 57.76314 -5.66673 13.3052 -3.51586 25.89924 -9.15635 38.77988 -13.9119 15.01854 -5.9252 30.1788 -11.68459 44.36953 -19.44794 2.47068 -1.41933 5.10539 -3.89416 4.52973 -7.03034 -0.74248 -3.69254 -4.29352 -5.67292 -6.83803 -8.0614 -5.11823 -4.38191 -9.97281 -9.38736 -16.28697 -12.03235 -2.00142 -0.40984 -3.90748 0.71579 -5.88041 0.92548 -4.49923 0.70929 -9.10263 0.0922 -13.52584 -0.83173 -5.51237 -1.27195 -10.93492 -2.90702 -16.45579 -4.13995 -11.23068 -2.93532 -21.77487 -7.90946 -32.30485 -12.69493 -7.51042 -3.57733 -14.64091 -8.12019 -20.48739 -14.08716 -9.29265 -9.14654 -16.27471 -20.47946 -21.03322 -32.57796 -3.44319 -9.26309 -5.45044 -19.32656 -3.8677 -29.19296 0.99136 -6.68209 3.21166 -13.09715 4.91823 -19.60665 0.50667 -3.47978 4.41188 -10.00723 2.85593 -13.24599 -1.58595 -1.04598 -17.38947 8.38171 -18.49967 9.33559 -7.58543 6.31347 -6.11132 6.22641 -12.17613 14.20914 -10.18984 13.17387 -14.50905 30.77853 -11.24969 47.14187 1.19159 6.44733 3.84339 12.5737 7.42528 18.0465 -0.49428 1.12239 -1.91848 0.0701 -2.125 -0.75 -6.95208 -9.192 -10.29207 -20.89304 -9.70045 -32.36787 0.4827 -9.97596 3.03574 -19.83277 7.22219 -28.88812 3.91789 -8.00449 9.62741 -15.20835 16.97101 -20.32635 6.50079 -4.79401 13.73927 -8.57301 21.2885 -11.41766 1.65512 -0.37825 3.25136 0.36369 4.77615 0.85591 2.59684 0.0925 4.50583 -2.15041 7.02278 -2.47468 2.94989 -0.85993 5.85105 -2.39924 7.52888 -5.06835 5.50439 -6.61218 11.36873 -13.22985 14.45873 -21.39188 3.85199 -8.90956 6.12789 -18.86835 4.44543 -28.55888 -2.1843 -11.04698 -6.2782 -20.4754 -8.6593 -31.45685 -0.62734 -3.14912 -2.9972 -6.51284 -1.29857 -9.27317 2.27715 -4.13031 5.55806 -7.88047 6.32532 -12.68174 1.48607 -6.64745 1.29986 -13.83246 -1.57089 -20.09632 -1.36463 -3.76471 -3.40661 -7.60602 -7.09103 -9.54154 -4.6113 -2.57785 -15.79812 -2.8726 -20.77871 -1.5057 1.32256 -0.39474 8.26867 -0.31825 9.59121 -0.71305 -0.15625 0.0208 -0.3125 0.0417 -0.46875 0.0625 z m -120.96875 1.5625 c -7.18321 2.23357 -12.17503 8.92978 -13.95817 16.02872 -2.21895 8.01532 -3.99164 16.18692 -5.01916 24.43393 0.22609 2.64106 1.38137 5.06982 2.60233 7.3811 1.406 0.81826 2.46236 -0.92589 2.95675 -2.00726 1.70241 -3.64231 4.44799 -6.84582 8.02869 -8.73762 8.0598 -5.4999 16.29582 -10.76299 23.98331 -16.78637 2.29231 -3.99514 0.40906 -9.16401 -2.88946 -11.98672 -3.12584 -2.72662 -6.62017 -5.01702 -10.17304 -7.13828 -1.73738 -0.78494 -3.59957 -1.39142 -5.53125 -1.1875 z m 144 37.6875 c -0.49157 0.77011 -0.22001 1.9483 -0.16836 2.8693 0.26389 2.35284 0.70519 4.85829 -0.41854 7.07045 -1.06342 3.27132 -2.81994 6.87659 -1.28399 10.29299 1.55936 4.01326 3.4268 7.91978 4.50368 12.10314 3.28188 9.70156 5.82589 20.04449 4.28672 30.33491 -1.17651 7.79425 -5.11576 14.74192 -7.88826 22.01671 0.76802 0.21332 1.63625 -0.82587 2.46875 -1.03125 9.20961 -4.64094 18.33223 -9.46851 27.76991 -13.63805 3.90288 -1.88994 7.97091 -3.69412 11.23009 -6.61195 2.12506 -2.45506 3.30681 -5.54125 5.14853 -8.19255 2.38944 -4.27229 1.62264 -9.40168 0.32819 -13.88819 -1.40931 -4.19642 -3.14127 -8.39544 -5.88429 -11.90802 -2.42734 -3.18556 -5.93359 -5.45285 -9.8134 -6.42554 -3.92399 -1.18171 -8.11902 -2.22938 -11.16761 -5.14566 -3.2144 -2.50389 -6.80308 -4.59353 -9.60539 -7.57884 -2.70533 -3.23416 -4.06396 -7.80336 -8.04851 -9.80947 -0.46941 -0.16862 -0.94615 -0.52084 -1.45752 -0.45798 z m -1.25 87.34375 c -1.75166 0.14378 -2.85811 1.65462 -3.71875 3 -0.69917 0.46156 -1.65947 1.5392 -0.46875 2.0625 1.39461 1.09386 4.0409 1.16988 4.66335 -0.82529 0.54509 -1.343 0.69619 -2.83183 0.5554 -4.26846 -0.3455 0.0327 -0.68415 -0.015 -1.03125 0.0312 z m -2.4375 0.1875 c 0.12187 0.0427 0.0467 -0.0975 0 0 z M 303 258.3125 c -0.0622 0.54463 0.17955 -0.18255 0 0 z m -28.9318 61.51435 c -0.66541 9.18212 2.02457 11.76834 3.75092 16.77898 3.32769 8.7074 6.90767 12.63496 12.63659 19.9226 6.68366 8.09679 14.81143 15.53012 24.87707 19.05125 7.9503 2.67529 16.48337 2.98937 24.79222 2.51407 6.3487 -0.50263 12.77948 -1.66477 18.53125 -4.5 5.30953 -2.8424 9.58141 -7.24307 13.08635 -12.07929 3.98029 -5.04653 8.69088 -10.09276 15.0761 -11.90194 5.20179 -1.66536 10.99423 -1.9148 15.58755 -5.14377 2.62241 -2.53166 1.9353 -7.2587 -1.04125 -9.21701 -3.89781 -3.57436 -8.92718 -5.46994 -13.48441 -8.02031 -8.63104 -4.3113 -18.4672 -6.30354 -28.08293 -5.1917 -14.03434 1.13611 -15.55795 18.85846 -37.06442 17.64682 -13.37108 -0.46412 -15.35696 -1.55405 -26.71743 -9.38823 -1.7126 -0.46605 -11.47745 -10.19579 -21.94761 -10.47147 z m 112.9943 81.6419 c 1.05298 0.71865 2.30814 1.01047 3.46875 1.5 -1.1789 -0.59716 -2.39615 -1.10959 -3.625 -1.59375 z" transform="translate(0,540.36217)" fill="#fff8eb"/>
  <path d="M 256 46.59375 C 171.23559 46.59375 97.11107 90.00001 56.6875 154.75 C 36.05831 187.7936 24.1875 226.37782 24.1875 267.625 C 24.1875 389.69743 127.97814 488.65625 256 488.65625 C 384.02186 488.65625 487.8125 389.69743 487.8125 267.625 C 487.8125 226.37782 475.94168 187.7936 455.3125 154.75 C 414.88891 90.00001 340.76441 46.59375 256 46.59375 z M 256 68.40625 C 332.09465 68.40625 398.64844 107.37269 434.9375 165.5 C 453.45669 195.16387 464.125 229.81536 464.125 266.84375 C 464.125 376.43052 370.9277 465.28125 256 465.28125 C 141.0723 465.28125 47.875 376.43052 47.875 266.84375 C 47.875 229.81536 58.54327 195.16387 77.0625 165.5 C 113.35153 107.37269 179.90535 68.40625 256 68.40625 z" transform="translate(0,540.36217)" fill="#fff8eb" fill-rule="evenodd"/>
  <path d="m 289.53873 270.71416 c -0.81855 -0.19996 -1.63177 -0.42388 -2.46114 -0.57767 -0.59603 -0.10418 -1.17121 -0.18267 -1.77612 -0.17319 -0.22608 -0.0112 -0.62115 0.005 -0.83712 -0.0287 -0.10119 -0.016 -0.19152 -0.0784 -0.2929 -0.0931 -0.18098 -0.0263 -0.3664 0.002 -0.54844 -0.0152 -0.47244 0.089 -0.96535 0.0744 -1.42723 0.2065 -0.47802 0.0696 -1.07609 -0.0257 -1.51772 0.12878 -0.50133 0.0701 -0.99753 -0.1009 -1.49591 -0.0402 -0.29975 0.007 -0.60526 -0.0996 -0.90486 -0.0774 -0.59299 0.0439 0.25009 0.0717 -0.39724 0.0342 -0.46112 0.1035 0.0985 -0.002 -0.42483 0.0257 -0.0636 0.003 -0.1233 0.0374 -0.18699 0.0401 -0.0584 0.002 -0.40635 -0.055 -0.45257 -0.0484 -0.0718 0.0104 -0.13256 0.059 -0.19885 0.0886 -0.46876 0.0702 -0.91805 0.21162 -1.39038 0.27602 -0.50239 -0.018 -1.0308 0.0101 -1.52402 0.11935 -0.59234 0.082 -1.18692 0.0955 -1.7833 0.15501 -0.31475 -0.0162 -0.66616 -0.0303 -0.97821 0.0388 -0.51897 0.11492 0.14853 0.0591 -0.40891 0.0863 -1.56495 0.38657 -3.41414 1.65875 2.29854 -1.54497 0 0 -3.76955 1.48101 -3.76955 1.48101 c 1.55091 -0.88942 2.93734 -2.11269 4.71899 -2.36086 0.45455 -0.10157 0.92039 -0.0892 1.38343 -0.10197 0.59127 -0.0469 1.18146 -0.0829 1.76758 -0.18041 0.50749 -0.0573 1.01717 -0.0803 1.5247 -0.12816 0.46098 -0.10504 0.92469 -0.192 1.38858 -0.28372 0.43923 -0.006 0.87595 -0.0138 1.31416 -0.0473 0.43121 -0.0332 0.85769 0.0546 1.28948 0.0416 0.48454 0.0267 0.96962 0.0907 1.45142 -0.0108 0.50701 -0.0359 1.01915 -0.0391 1.52015 -0.13366 0.4933 -0.0637 0.99206 -0.14209 1.49026 -0.11208 0.5536 0.0354 1.10299 0.14589 1.66081 0.11278 0.61071 0.0162 1.20498 0.14149 1.80553 0.24784 0.83716 0.18254 1.66489 0.40609 2.50218 0.58814 0 0 -3.33952 2.28708 -3.33952 2.28708 z" transform="translate(0,540.36217)" fill="#514a85"/>
  <path d="m 307.26829 263.7149 c -0.4649 -0.44963 -0.92564 -0.9129 -1.32567 -1.42306 -0.39214 -0.54491 -0.80135 -1.09595 -1.09136 -1.70428 -0.25072 -0.45317 -0.39411 -0.95149 -0.49309 -1.4568 -0.0438 -0.57513 0.149 -1.11674 0.40361 -1.62242 0.20349 -0.51076 0.51389 -0.94675 0.85294 -1.37334 1.41672 -1.9257 1.2206 -1.26805 4.57853 -3.11931 0.53495 0.11547 0.71183 0.56513 0.86132 1.03512 0.0814 0.51795 0.0104 1.05221 -0.0659 1.56767 -0.0864 0.40135 -0.005 0.80355 -0.002 1.2084 0.0104 2.19189 -1.08889 1.73273 -3.729 3.33229 -0.43175 -0.1972 -0.62897 -0.53901 -0.82342 -0.94987 -0.22159 -0.52626 -0.38427 -1.07464 -0.57131 -1.61351 -0.17625 -0.47682 -0.529 -0.77255 -0.89124 -1.09935 -0.36928 -0.18614 -0.33565 -0.12091 -0.64079 0.0336 -0.42688 0.21622 0.11975 -0.17394 -0.33576 0.1793 5.72077 -3.5293 3.26514 -2.11649 2.22665 -0.73117 -0.2997 0.45909 -0.43818 0.97705 -0.47522 1.51768 -0.0752 0.44795 -0.0389 0.88704 0.0341 1.32996 0.0705 0.21149 0.14298 0.77574 0.25917 0.19883 -7.68159 4.08453 -3.73492 2.64913 -3.03537 1.60809 0.14433 -0.21479 0.23539 -0.46406 0.32406 -0.70478 0.1964 -0.52829 0.28495 -1.08732 0.41169 -1.63443 0.11837 -0.54624 0.35632 -1.04776 0.59816 -1.54672 0.79445 -1.78663 2.39466 -1.9983 4.29782 -3.09008 0.37129 -0.14275 0.67643 -0.25271 1.08154 -0.1664 0 0 -3.29488 2.36297 -3.29488 2.36297 c -0.34094 0.0483 -0.65145 0.18818 -0.96477 0.32686 1.10319 -0.6456 2.20638 -1.2912 3.30958 -1.9368 -0.006 0.004 -0.33955 0.1997 -0.34932 0.20951 -0.16393 0.1646 -0.28704 0.41128 -0.40161 0.60961 -0.20442 0.50108 -0.52317 0.95106 -0.63107 1.49141 -0.16493 0.54282 -0.20559 1.11954 -0.40151 1.65162 -0.58241 2.11257 -1.50387 1.86475 -4.1154 3.36717 -0.43775 -0.1009 -0.58541 -0.45194 -0.67728 -0.86015 -0.039 -0.46429 -0.18198 -0.92767 -0.0538 -1.39796 0.0134 -0.60415 0.11142 -1.17216 0.38767 -1.71778 1.00048 -1.70193 3.00797 -2.479 4.62868 -3.42198 0.50487 -0.16496 0.81687 -0.16612 1.25624 0.18836 0.41447 0.36853 0.77663 0.75102 0.98546 1.27776 0.18943 0.52109 0.33863 1.05732 0.55751 1.56766 0.0593 0.11588 0.30375 0.69997 0.47233 0.40296 -1.1063 0.67616 -2.2126 1.35233 -3.31889 2.02849 0.11533 -0.1149 0.15417 -0.13139 0.21525 -0.30045 0.0788 -0.218 0.0413 -0.44793 0.0532 -0.67327 0.004 -0.43288 -0.074 -0.8513 -0.0215 -1.2818 0.11014 -0.45138 0.11734 -0.92442 0.14722 -1.38704 -0.0841 -0.28402 -0.13774 -0.65281 -0.51276 -0.5025 1.09586 -0.63644 2.19718 -1.26356 3.28757 -1.90932 0.0728 -0.0431 -0.15953 0.0585 -0.23307 0.10034 -0.33552 0.19072 -0.49636 0.56008 -0.71047 0.86384 -0.33606 0.406 -0.71063 0.78568 -0.88238 1.29696 -0.23678 0.44185 -0.48125 0.87538 -0.51656 1.38975 0.0569 0.47409 0.2238 0.93757 0.4327 1.36595 0.25591 0.5878 0.66382 1.11263 1.05059 1.61921 0.3872 0.4998 0.82422 0.96658 1.30439 1.37765 0 0 -3.45218 2.1155 -3.45218 2.1155 z" transform="translate(0,540.36217)" fill="#514a85"/>
  <path d="m 241.57189 148.08827 c -0.75158 -0.11719 -1.4934 -0.28702 -2.21837 -0.51617 -0.51159 -0.21566 -1.04033 -0.44829 -1.59074 -0.53633 -0.50555 -0.2853 -1.05891 -0.34239 -1.61953 -0.43003 -0.45438 -0.13371 -0.88273 -0.34828 -1.35716 -0.38668 -0.4659 -0.0988 -0.9498 -0.12123 -1.41358 -0.25818 -0.45235 -0.0292 -0.89007 -0.0879 -1.33777 -0.15859 -0.40906 0.0436 -0.8208 -0.0828 -1.22175 0.0222 -0.17323 -0.011 -0.35972 0.11565 -0.49012 0.15515 -0.17042 0.0516 -0.42072 0.0124 -0.59609 0.0101 -0.22774 -0.0449 -0.43912 0.0201 -0.65763 0.0449 -0.22287 0.0253 -0.40247 -0.0292 -0.62414 0.0311 -0.47747 -0.0679 -0.84289 -0.0627 -1.31476 0.0207 -0.47599 0.11731 -1.00701 0.11469 -1.47421 0.23357 -0.1419 -0.0858 -0.26521 0.0524 -0.39851 0.0432 -0.0918 -0.006 -0.17337 -0.0694 -0.26507 -0.0771 -0.09 -0.008 -0.17865 0.0292 -0.26886 0.0324 -0.6831 0.0241 0.086 -0.0636 -0.56085 0.0238 -0.47335 0.0295 -0.9618 0.0834 -1.43374 0.0226 -0.47195 0.0199 -0.93886 0.002 -1.41807 0.0425 -0.57991 -0.0209 -1.19346 -0.0154 -1.76096 0.12098 -0.34965 -0.004 -0.69099 0.0914 -1.03692 0.1083 -1.02539 0.0502 0.47194 -0.10387 -0.54068 0.0115 -0.58123 -0.0391 -1.15888 0.014 -1.7407 0.0554 -0.51093 0.0282 -1.01872 0.0193 -1.52385 0.10429 0 0 3.22822 -2.40515 3.22822 -2.40515 c 0.51289 -0.0383 1.02705 -0.0502 1.53979 -0.0919 0.5824 -0.0423 1.16384 -0.05 1.74751 -0.0619 0.52018 -0.02 1.03833 -0.0764 1.55376 -0.14902 0.59244 -0.0623 1.18701 -0.0876 1.78261 -0.0868 0.48699 -0.0256 0.97489 -0.0207 1.46201 -0.0114 0.46411 -0.011 0.92947 -0.00022 1.39141 -0.0585 0.49335 -0.01 0.98881 0.0285 1.47696 -0.0592 0.49689 -0.0508 0.98369 -0.15932 1.47963 -0.21999 0.44342 -0.0456 0.88286 0.0252 1.32519 -0.0233 0.43495 -0.002 0.86655 -0.0505 1.30213 -0.046 0.36595 -0.034 0.70512 -0.17543 1.07585 -0.18853 0.42322 0.0154 0.84755 0.0146 1.26913 0.0663 0.45234 0.0616 0.91055 0.0898 1.3567 0.1908 0.46687 0.0866 0.93872 0.13453 1.40443 0.22661 0.45569 0.10738 0.88628 0.30366 1.34668 0.39523 0.56514 0.0981 1.107 0.23718 1.64147 0.44827 0.54085 0.16558 1.07301 0.35061 1.595 0.56897 0.71396 0.22247 1.45088 0.37294 2.19457 0.4529 0 0 -3.30899 2.33312 -3.30899 2.33312 z" transform="translate(0,540.36217)" fill="#514a85"/>
  <path d="m 293.94977 265.97422 c -0.66097 0.16141 -1.35002 0.28907 -2.03323 0.30433 -0.4389 0.0745 -0.91591 -0.001 -1.32516 0.20654 -0.36934 0.004 -0.70528 0.0626 -1.05914 0.15303 -0.40785 0.11186 -0.82954 0.17975 -1.2571 0.17593 -0.42874 0.0743 -0.8428 0.23173 -1.23396 0.42387 -0.45314 0.21174 -0.82318 0.48623 -1.34564 0.46587 -0.52469 -0.0221 -0.97322 0.263 -1.46005 0.36128 -0.45633 0.17099 -0.91347 0.29539 -1.37891 0.43491 -0.42705 0.21041 -0.92378 0.2221 -1.36271 0.40862 -0.43093 0.15509 -0.84148 0.29967 -1.28552 0.4152 -0.0726 0.0324 -0.14105 0.0763 -0.2177 0.0974 -0.0832 0.0229 -0.17278 0.0132 -0.25677 0.033 -0.30505 0.072 -0.56019 0.23065 -0.8717 0.27334 -0.2952 0.0534 -0.60729 0.16007 -0.91155 0.16907 -0.78682 0.0233 0.16721 -0.0738 -0.52812 0.008 -0.47518 0.0453 -0.93278 0.13105 -1.39515 0.24472 -0.0735 0.0136 -0.14864 0.02 -0.22041 0.0407 -0.15199 0.0439 -0.30336 0.093 -0.44733 0.15857 -0.0701 0.0319 -0.26318 0.16002 -0.19619 0.12201 1.08854 -0.61761 4.30998 -2.54361 3.26103 -1.86091 -1.17581 0.76525 -2.42812 1.40599 -3.64219 2.10898 6.30433 -3.26569 3.67417 -2.33869 2.55618 -1.38588 -0.32225 0.20563 -0.58358 0.50119 -0.85318 0.77343 -0.15799 0.0868 -0.29274 0.18481 -0.41881 0.31214 0 0 -3.78558 1.46999 -3.78558 1.46999 c 0.19951 -0.0659 0.24636 -0.20406 0.42437 -0.31297 0.22898 -0.0765 0.2673 -0.19782 0.4453 -0.34335 0.047 -0.0384 0.11327 -0.0516 0.15501 -0.0957 0.0954 -0.10088 0.11371 -0.26232 0.24519 -0.3368 0.17583 -0.0738 0.25933 -0.2121 0.42196 -0.30108 0.0534 -0.0292 0.12201 -0.0264 0.17213 -0.0609 0.0587 -0.0404 0.0965 -0.10489 0.14472 -0.15734 1.2151 -0.70286 2.43019 -1.40572 3.64529 -2.10859 -1.09358 0.63524 -4.38389 2.52418 -3.28074 1.90571 1.75084 -0.98159 2.82993 -2.03071 4.59658 -2.38119 0.47003 -0.097 0.94811 -0.16022 1.42702 -0.19395 0.47566 -0.0159 0.94325 -0.10584 1.40151 -0.23261 0.4392 -0.1632 0.89368 -0.26869 1.33757 -0.41709 0.42743 -0.13477 0.84704 -0.28618 1.27368 -0.42506 0.46404 -0.11161 0.92176 -0.24217 1.37066 -0.40393 0.46078 -0.14276 0.92281 -0.28085 1.38291 -0.42713 0.48333 -0.17975 0.98682 -0.26611 1.50009 -0.30796 0.44894 -0.13429 0.83438 -0.39995 1.27483 -0.55825 0.4302 -0.15258 0.85225 -0.31786 1.31785 -0.31623 0.41525 -0.0576 0.82295 -0.11916 1.22711 -0.23408 0.34442 -0.0661 0.70101 -0.0646 1.03691 -0.17403 0.45475 -0.0621 0.90927 -0.0904 1.3671 -0.12065 0.68118 -0.072 1.35474 -0.18787 2.0233 -0.3372 0 0 -3.24146 2.42606 -3.24146 2.42606 z" transform="translate(0,540.36217)" fill="#514a85"/>
  <path d="m 283.45408 268.88121 c 0.64427 -0.29233 1.30455 -0.53087 1.97008 -0.76802 1.51023 -0.57056 3.98536 -2.10891 -2.05956 1.33879 12.21162 -6.96502 -8.10457 4.58336 4.09375 -2.31903 0.18024 -0.102 0.36503 -0.17784 0.54387 -0.28261 -0.10106 0.0998 0.56225 -0.28963 0.42508 -0.21088 -8.05922 4.62738 -0.16345 0.0952 0.47523 -0.29025 1.06235 -0.64108 -2.14606 1.24621 -3.22715 1.85515 -0.0803 0.0452 0.14883 -0.10876 0.22324 -0.16314 0.39044 -0.24769 0.73905 -0.53848 1.08795 -0.84112 0.4355 -0.37656 0.71999 -0.88271 1.06632 -1.33476 0.33708 -0.46273 0.77363 -0.81137 1.23451 -1.14073 1.41757 -0.99151 0.13996 -0.10881 3.96034 -2.30401 1.07587 -0.6182 -4.35508 2.37325 -3.22866 1.85281 2.64871 -1.22382 2.45502 -2.01389 4.18485 -2.11852 0.0824 -0.002 0.16488 -0.003 0.24731 -0.005 0 0 -3.25801 2.40106 -3.25801 2.40106 c -0.0771 0.009 -0.15418 0.0187 -0.23128 0.028 -0.14404 0.0327 -0.55127 0.2033 -0.42428 0.12786 1.07782 -0.6403 4.35121 -2.49227 3.25269 -1.88818 -0.60441 0.33238 -8.52583 4.93901 -0.49467 0.26808 0.0854 -0.0496 -0.17009 0.10034 -0.25513 0.15052 -0.44279 0.32984 -0.94357 0.59538 -1.27017 1.05577 -0.40684 0.4163 -0.65561 0.94164 -1.03772 1.37931 -0.33987 0.31337 -0.66028 0.67249 -1.0859 0.8604 -1.3409 1.21087 0.99613 -0.87397 -3.88415 2.35702 -1.03023 0.68206 4.27803 -2.47456 3.20728 -1.85808 -1.41164 0.81275 -2.69936 1.65725 -4.12762 2.35382 -0.0664 0.0305 -0.13283 0.0609 -0.19924 0.0914 -0.0582 0.0293 -0.11549 0.0602 -0.17444 0.0878 -0.0614 0.0287 -0.24469 0.11561 -0.18634 0.0812 1.08591 -0.641 4.36221 -2.53225 3.27028 -1.90156 -0.13771 0.0795 -8.97864 5.21687 -0.41185 0.24082 -1.68871 0.97344 -3.12202 1.98338 -4.8973 2.61238 -0.6672 0.24715 -1.32759 0.51064 -1.99643 0.75255 0 0 3.20712 -2.46932 3.20712 -2.46932 z" transform="translate(0,540.36217)" fill="#514a85"/>
  <path d="m 359.76135 198.06231 c -0.01 0.71678 -0.0324 1.43361 -0.11381 2.14622 -0.0816 0.47952 -0.21651 0.94808 -0.27496 1.43108 -0.0466 0.40268 -0.20122 0.78089 -0.36158 1.15001 -0.12125 0.47642 -0.31166 0.92942 -0.51371 1.3761 -0.22803 0.48431 -0.30578 1.00917 -0.35026 1.53683 -0.09 0.51169 -0.0716 1.03004 -0.0583 1.54661 0.0963 0.48352 0.0501 0.97607 0.0812 1.46377 0.0775 0.50001 0.2352 0.97896 0.27431 1.48577 0.13911 0.41176 0.18604 0.83856 0.21083 1.26983 0.077 0.57466 -0.0685 1.10066 -0.24585 1.63925 -0.19522 0.44317 -0.34791 0.90399 -0.53568 1.35002 -0.10013 0.38469 -0.21759 0.76805 -0.30537 1.15662 -0.11694 0.47225 -0.34616 0.90348 -0.53218 1.34982 -0.25587 0.55168 -0.40452 1.13992 -0.57829 1.71973 -0.24997 0.6266 -0.39997 1.28433 -0.63042 1.91689 -0.20892 0.57985 -0.44599 1.14583 -0.5845 1.74773 -0.12973 0.46788 -0.17096 0.95274 -0.21441 1.43453 -0.097 0.4602 -0.20209 0.91949 -0.22581 1.39039 -0.0154 0.47055 -0.0673 0.92832 -0.17908 1.38533 -0.0381 0.23733 -0.11373 0.46618 -0.19282 0.6924 -0.007 0.0196 -0.008 0.0727 -0.0228 0.0578 -0.0931 -0.0953 -0.10077 -0.24671 -0.1452 -0.37228 -1.12548 0.64545 -2.24859 1.29507 -3.37644 1.93637 -0.12719 0.0723 0.23056 -0.18332 0.32482 -0.29523 0.32481 -0.38563 0.54192 -0.82545 0.76901 -1.27203 0.50998 -0.92866 0.93649 -1.8986 1.4183 -2.84146 0.25416 -0.52942 0.54675 -1.03786 0.82967 -1.55165 0.22634 -0.42537 0.47909 -0.83604 0.71348 -1.25723 0.20062 -0.43457 0.22784 -0.91887 0.29861 -1.38602 0.0927 -0.45124 0.13077 -0.88398 0.0876 -1.34107 -0.0732 -0.81032 -0.0212 -1.63842 0.007 -2.45181 0.10382 -1.77894 0.20576 -3.55773 0.17265 -5.34019 -0.0489 -0.88745 -0.0669 -1.77727 -0.14046 -2.66319 1.18737 -0.53148 2.32114 -1.20418 3.56212 -1.59443 0.18706 -0.0588 -0.16992 0.3556 -0.22301 0.54437 -0.10533 0.37447 -0.1631 0.76075 -0.2507 1.13975 -0.33534 1.45088 -0.7705 2.86644 -1.19192 4.29399 -0.72919 2.09936 -1.39094 4.22424 -2.22842 6.28402 -0.46009 0.943 -0.76875 1.94109 -1.10911 2.92968 -0.21729 0.57264 -0.44559 1.13642 -0.62182 1.72341 -0.15231 0.80727 -0.38525 1.57793 -0.71272 2.33091 -0.2826 0.56547 -0.58617 1.12269 -0.8994 1.67228 -0.23892 0.4429 -0.52919 0.84913 -0.85906 1.22691 -0.83904 1.16678 -3.71478 2.29627 -3.88747 2.39626 -0.064 0.0371 -0.25957 0.14223 -0.19548 0.10522 3.42312 -1.97658 4.28272 -2.54276 3.03172 -1.72701 -0.44382 0.32677 -0.85713 0.67175 -1.19066 1.11204 -0.33188 0.42525 -0.59631 0.89683 -0.88381 1.35203 -0.31081 0.50305 -0.60688 1.01626 -0.86528 1.54835 -0.0165 0.0504 -0.0184 0.10826 -0.0496 0.15107 -0.0144 0.0197 -0.03 -0.0631 -0.008 -0.0727 0.0605 -0.0259 0.1323 0.002 0.19725 -0.008 0.17048 -0.0278 0.34081 -0.0598 0.50714 -0.10641 0.17445 -0.0489 1.39477 -0.46732 1.52232 -0.51075 0.88796 -0.39625 1.80786 -0.72316 2.68638 -1.141 0.14179 -0.0674 0.27676 -0.14839 0.41514 -0.22259 -1.03185 0.58933 -2.0637 1.17865 -3.09555 1.76798 0.49711 -0.29593 0.83629 -0.76432 1.17816 -1.21782 0.2483 -0.41127 -0.19625 -0.47611 -0.51095 -0.53907 -0.11265 0.007 -0.36334 0.0189 -0.47276 0.0461 -0.24394 0.0606 -0.42673 0.2272 -0.63625 0.35613 1.09008 -0.62605 2.18015 -1.2521 3.27023 -1.87815 -0.054 0.0442 -0.11178 0.0841 -0.16202 0.13254 -0.32845 0.31657 0.0554 -0.03 -0.16634 0.22525 -0.57598 0.663 -4.45481 2.74335 -3.59966 1.32103 0.25766 -0.32206 0.37982 -0.71996 0.52437 -1.10018 0.008 -0.0309 -0.004 -0.0794 0.025 -0.0929 2.58265 -1.19006 4.48364 -2.74749 3.28288 -0.67259 -0.21581 0.41747 -0.46825 0.81369 -0.71004 1.21629 -0.23486 0.33534 -0.53739 0.60611 -0.77332 0.93931 -0.37971 0.42753 -0.68464 0.91403 -1.0875 1.32034 -0.22613 0.21531 -0.13482 0.13827 -0.38188 0.33338 -0.18683 0.14754 -0.23779 0.18075 -0.23902 0.17781 -0.61753 -1.46523 2.4025 -1.86498 -3.19963 1.26817 1.043 -0.64996 1.93264 -1.49631 2.66689 -2.47577 0.69861 -0.89817 1.22099 -1.9135 1.87557 -2.84117 0.52044 -0.63262 1.09899 -1.2395 1.46393 -1.98037 0.17446 -0.44955 0.20538 -0.93047 0.23834 -1.40571 0.0157 -0.47806 0.0843 -0.95251 0.15954 -1.42436 0.0523 -0.47327 0.0837 -0.9415 0.21898 -1.40015 0.13703 -0.49802 0.3736 -0.95625 0.50554 -1.45556 0.0861 -0.47651 0.14413 -0.95774 0.23093 -1.43434 0.0736 -0.66975 0.22229 -1.31179 0.44622 -1.94567 0.16642 -0.62984 0.34489 -1.25214 0.56295 -1.86592 0.24526 -0.66958 0.62629 -1.27438 0.9707 -1.89458 0.80845 -1.52528 2.20071 -3.10079 4.20938 -2.99685 0.49754 0.54779 0.66048 1.33149 0.8574 2.03079 0.15361 0.61361 0.19317 1.25975 0.13225 1.88859 -0.13242 0.66255 -0.28304 1.31396 -0.53102 1.94316 -0.17118 0.5171 -0.40697 0.99383 -0.74383 1.42077 -0.3406 0.4203 -0.74866 0.77274 -1.08854 1.19508 -0.35493 0.50235 -0.66829 1.03356 -0.98689 1.55962 -0.29183 0.47134 -0.55975 0.95485 -0.83158 1.43755 -0.26022 0.42674 -0.51066 0.85955 -0.77509 1.28356 -0.27387 0.42499 -0.49976 0.87812 -0.76643 1.30719 -0.26102 0.41976 -0.60821 0.77886 -0.95621 1.12699 -0.40548 0.39198 -0.68636 0.87513 -1.00302 1.3343 -0.43868 0.54265 -0.83187 1.11934 -1.24159 1.68356 -0.39937 0.44806 -0.75101 0.92975 -1.08954 1.42456 -0.28817 0.46434 -0.59216 0.91998 -0.84516 1.40475 -0.28471 0.48692 -0.54784 0.98692 -0.84763 1.46483 -0.23516 0.43177 -0.48595 0.85447 -0.74632 1.27158 -0.33165 0.41506 -0.72373 0.78211 -1.12895 1.12467 -0.37916 0.30372 -0.79396 0.5592 -1.15846 0.88108 -0.34358 0.27674 -0.5857 0.65356 -0.82542 1.01884 -0.22293 0.42886 -0.48382 0.82237 -0.79734 1.18929 -0.20657 0.19846 -0.10591 0.0988 -0.30219 0.2989 0 0 -3.77575 1.47808 -3.77575 1.47808 c 0.25133 -0.0975 0.13809 -0.0223 0.33198 -0.23699 0.37588 -0.28267 0.62861 -0.67407 0.84566 -1.08349 0.21064 -0.41213 0.48694 -0.78723 0.77041 -1.14907 0.38099 -0.30167 0.72544 -0.65228 1.15854 -0.88505 0.40929 -0.32656 0.78875 -0.67716 1.17389 -1.03117 0.31103 -0.36645 0.5225 -0.82398 0.75586 -1.24146 0.28672 -0.48025 0.58043 -0.95477 0.85789 -1.44157 0.26291 -0.4911 0.52713 -0.97317 0.8372 -1.43727 0.30896 -0.51905 0.65518 -1.0323 1.08808 -1.4555 0.4206 -0.55193 0.79469 -1.13904 1.22758 -1.67813 0.35582 -0.44003 0.58294 -0.9608 0.98571 -1.3668 0.30343 -0.37465 0.68169 -0.67976 0.98566 -1.05612 0.25375 -0.43479 0.51385 -0.86434 0.76387 -1.302 0.2459 -0.44057 0.52796 -0.85617 0.78302 -1.29077 0.30123 -0.46888 0.52684 -0.98086 0.83606 -1.44443 0.32919 -0.52495 0.63865 -1.06155 0.97053 -1.58407 0.2961 -0.45818 0.66131 -0.84813 1.07789 -1.19986 0.30614 -0.42591 0.67665 -0.7951 0.80017 -1.33021 0.25098 -0.60696 0.45195 -1.21148 0.55903 -1.86333 0.15636 -0.54964 0.0515 -1.18254 -0.0362 -1.73766 -0.0755 -0.28591 -0.3361 -1.34879 -0.52716 -1.52947 -0.0159 -0.015 -0.0133 0.0417 -0.02 0.0625 -0.96903 0.97915 0.0561 -0.0666 3.24718 -1.93712 0.0562 -0.0329 -0.0967 0.0882 -0.13699 0.13944 -0.16007 0.20353 -0.24604 0.45316 -0.4142 0.65132 -0.30626 0.62521 -0.73374 1.18437 -0.99086 1.83625 -0.20398 0.62407 -0.47781 1.2235 -0.57585 1.88012 -0.22589 0.61089 -0.4272 1.21455 -0.46137 1.87097 -0.0721 0.48815 -0.16935 0.96283 -0.21867 1.45402 -0.0986 0.52487 -0.31163 0.99109 -0.49414 1.48659 -0.049 0.14881 -0.12933 0.28859 -0.15807 0.44259 -0.0134 0.0716 0.008 0.14622 -0.00061 0.21852 -0.0285 0.23136 -0.0854 0.46184 -0.0812 0.70023 -0.10635 0.45096 -0.14661 0.93171 -0.1638 1.39188 -0.0862 0.49938 -0.0427 1.0208 -0.20202 1.51313 -0.28438 0.80451 -0.88496 1.46515 -1.45719 2.08331 -0.6972 0.90486 -1.20897 1.92802 -1.88963 2.8445 -0.13133 0.18599 -0.54572 0.78237 -0.69409 0.95415 -0.54547 0.63157 -1.24875 1.13206 -1.88604 1.66172 -1.28291 0.72588 -2.49041 1.60517 -3.84873 2.17766 -0.58177 0.24519 -0.45841 -0.39452 -0.36425 -0.53285 0.0786 -0.11551 0.2443 -0.22137 0.35204 -0.29748 0.0663 -0.0468 0.13365 -0.0922 0.20048 -0.13832 0.13256 -0.12929 0.28914 -0.23348 0.4149 -0.3694 0.25618 -0.27688 0.41258 -0.64581 0.68032 -0.91582 0.35048 -0.34368 -0.0257 0.06 0.27492 -0.39329 0.29632 -0.44681 -0.0206 0.0984 0.27158 -0.21272 0.0908 -0.0966 0.0915 -0.26079 0.22546 -0.3276 0.33752 -0.29022 0.50996 -0.78319 0.7415 -1.15798 0.28525 -0.48646 5.51329 -9.22527 4.06441 -2.60019 -0.12948 0.4106 -0.29114 0.82283 -0.47755 1.20832 -1.02909 1.17538 -0.11502 0.16762 -3.92022 1.8523 -0.015 0.007 0.005 -0.0368 0.019 -0.0454 0.20373 -0.126 -0.00029 0.1354 0.21523 -0.16349 0.0481 -0.0667 0.0884 -0.1386 0.13258 -0.2079 1.21307 -0.72104 2.42293 -1.44751 3.63921 -2.16313 0.39402 -0.23183 0.85591 -0.25104 1.2921 -0.14728 0.54092 0.18885 1.01004 0.54051 0.87491 1.18074 -0.22435 0.48652 -0.74079 1.04173 -1.12585 1.41388 -1.26111 0.72748 -2.51605 1.46577 -3.78335 2.18243 -0.96485 0.54563 -2.08235 0.80759 -3.08135 1.27642 -0.5077 0.16607 -2.50867 1.00454 -2.75399 0.059 -0.0201 -0.0775 0.0133 -0.15963 0.02 -0.23944 0.21436 -0.56368 0.54747 -1.07993 0.84842 -1.60048 0.2701 -0.4752 0.57309 -0.93109 0.85772 -1.3976 0.35705 -0.43284 0.65159 -0.90415 1.15538 -1.19597 1.21005 -1.1737 0.13293 -0.15926 3.87505 -2.31965 0.0655 -0.0378 0.26442 -0.14666 0.19925 -0.10833 -5.67586 3.33804 -4.19132 2.42865 -2.99064 1.75583 0.12837 -0.20873 0.29075 -0.31722 0.43985 -0.50036 0.16894 -0.2075 0.27881 -0.47591 0.44798 -0.68548 0.30196 -0.55367 0.61926 -1.09718 0.93105 -1.64612 0.33292 -0.73776 0.66356 -1.46034 0.72616 -2.28074 0.17721 -0.59686 0.35779 -1.18447 0.61995 -1.7512 0.39404 -0.99258 0.65943 -2.03297 1.17078 -2.97846 0.90469 -2.05282 1.59799 -4.19025 2.36214 -6.29759 0.52036 -1.76833 1.08684 -3.5075 1.31218 -5.34406 0.0286 -0.23278 -0.13604 -0.572 0.0598 -0.70104 1.16761 -0.76929 2.51752 -1.2176 3.77628 -1.82641 0.0109 0.90208 0.0709 1.80209 0.0956 2.70377 -0.004 1.79347 -0.16437 3.58262 -0.21789 5.37496 -0.003 3.04941 -0.0398 -0.7623 0.0836 1.51308 0.005 0.0961 -0.0355 0.19028 -0.0352 0.2865 0.0002 0.0698 0.0389 0.13634 0.0366 0.20608 -0.002 0.0488 -0.0478 0.0897 -0.0477 0.13857 0.0002 0.0751 0.0324 0.14663 0.0487 0.21995 0.037 0.85166 -0.0331 -0.5402 0.0562 0.47254 0.0224 0.25469 -0.0385 0.46433 -0.083 0.70816 -0.0142 0.0779 -0.0152 0.15773 -0.0228 0.2366 -0.0667 0.50871 -0.13643 1.01181 -0.24688 1.5119 -0.20673 0.43251 -0.44891 0.84969 -0.71357 1.24861 -0.23984 0.54613 -0.61392 1.0216 -0.8462 1.57448 -0.52138 0.93112 -0.93927 1.91303 -1.46754 2.84044 -1.04886 2.43573 -1.36316 2.07457 -4.52973 3.81493 -0.5219 -0.42566 -0.23386 -0.59309 -0.0857 -1.13881 0.067 -0.55102 -0.0246 0.0289 0.10523 -0.43505 0.0636 -0.22752 0.0501 -0.44213 0.0656 -0.67298 0.005 -0.075 0.0249 -0.1482 0.0373 -0.2223 -0.002 -0.4799 0.0539 -0.97054 0.2089 -1.42575 0.0743 -0.48837 0.0468 -0.99355 0.20715 -1.46823 0.11367 -0.62887 0.33426 -1.21395 0.56531 -1.80735 0.23815 -0.62923 0.40221 -1.27356 0.63186 -1.90686 0.22258 -0.5632 0.28362 -1.18248 0.56537 -1.72661 0.15342 -0.45065 0.3933 -0.86214 0.53508 -1.3154 0.20596 -0.57099 -0.0893 0.28895 0.0924 -0.41359 0.0671 -0.25961 0.21488 -0.50534 0.1961 -0.78733 0.18515 -0.44304 0.32428 -0.90185 0.56085 -1.32315 0.15704 -0.50183 0.39021 -0.9622 0.303 -1.50469 -0.0185 -0.43174 -0.0408 -0.86749 -0.21263 -1.27091 -0.005 -0.50598 -0.16223 -0.97365 -0.25968 -1.46618 -0.0702 -0.4968 0.0238 -1.001 -0.0905 -1.49391 -0.0167 -0.52563 -0.0788 -1.06371 0.0383 -1.5811 0.0317 -0.56344 0.0841 -1.13039 0.29047 -1.66134 0.18396 -0.43673 0.40027 -0.8585 0.53108 -1.31579 0.0568 -0.39073 0.31519 -0.71715 0.37681 -1.11079 0.0931 -0.47712 0.13544 -0.96829 0.29875 -1.43005 0.0977 -0.69357 0.15899 -1.3927 0.12295 -2.09353 0 0 3.60788 -1.8383 3.60788 -1.8383 z" transform="translate(0,540.36217)" fill="#514a85"/>
  <path d="m 358.39823 199.69806 c -0.0508 0.76976 -0.12159 1.5376 -0.19145 2.30592 -0.0548 0.5937 -0.0727 1.18969 -0.0818 1.78554 0.0642 0.46968 0.0419 0.94276 0.0265 1.41461 -0.004 0.50793 -0.0461 1.01497 -0.13088 1.51573 -0.0299 0.49871 -0.0565 0.99559 -0.18589 1.47977 -0.13654 0.52251 -0.31372 1.02472 -0.37759 1.56258 -0.0705 0.4745 -0.11732 0.95149 -0.17795 1.42723 -0.0465 0.50008 -0.1772 0.98649 -0.30562 1.47046 -0.0406 0.39127 -0.12129 0.76571 -0.24336 1.13866 -0.077 0.36507 -0.19571 0.71448 -0.27859 1.07778 -0.21677 0.34892 -0.31741 0.71213 -0.39004 1.11004 -0.0963 0.41299 -0.21022 0.82151 -0.28859 1.23876 -0.0914 0.49185 -0.26619 0.96195 -0.4168 1.43762 -0.16501 0.46421 -0.36932 0.91445 -0.60512 1.34699 -0.23677 0.47734 -0.55272 0.91115 -0.77546 1.39479 -0.17181 0.52099 -0.44308 0.99746 -0.66321 1.49672 -0.16489 0.46236 -0.31655 0.92869 -0.54024 1.36671 -0.14067 0.3536 -0.26144 0.71135 -0.41709 1.05951 -0.20585 0.49918 -0.48605 0.96495 -0.75168 1.43422 -0.28122 0.46395 -0.53798 0.94206 -0.80873 1.41252 -0.27886 0.4392 -0.4977 0.90358 -0.69358 1.38397 -0.20791 0.55472 -0.51147 1.06378 -0.799 1.57929 -0.2706 0.52852 -0.56144 1.03879 -0.91345 1.51711 -0.30227 0.38269 -0.6248 0.74668 -0.98694 1.07354 -0.36846 0.28348 -0.73352 0.57152 -1.10217 0.85483 -0.34965 0.25241 -0.59905 0.61779 -0.92955 0.89061 -0.31971 -2.07166 -5.25017 2.61335 -3.14927 1.18423 0.34422 -0.31304 0.73261 -0.57264 1.11705 -0.83329 0.41322 -0.24562 0.77097 -0.57134 1.14057 -0.87593 0.1417 0.00096 0.12181 -0.19675 0.22141 -0.24161 0.005 -0.002 0.25738 0.28614 -0.0407 0.45861 1.1054 -0.63216 2.20977 -1.2661 3.31619 -1.89647 0.0598 -0.0341 -0.12061 0.0672 -0.17636 0.10759 -0.18218 0.13213 -0.33875 0.32647 -0.53382 0.43921 -1.21388 0.70157 -2.43916 1.38324 -3.65874 2.07486 -0.0778 -0.01 -0.1557 -0.0197 -0.23354 -0.0295 0 0 3.25549 -2.41742 3.25549 -2.41742 c 0.0521 -0.0234 0.10426 -0.0468 0.15638 -0.0702 -1.09827 0.63815 -2.19881 1.27242 -3.29482 1.91444 -0.0609 0.0357 0.13061 -0.0558 0.18918 -0.0952 0.12045 -0.0811 0.43751 -0.41966 0.51241 -0.46432 1.20397 -0.71791 2.43112 -1.39621 3.64668 -2.09431 0.46317 -0.17721 0.73288 0.45896 0.38516 0.77336 -0.33121 0.36264 -0.74755 0.63037 -1.11024 0.96129 -0.40782 0.21231 -0.76349 0.50227 -1.14092 0.75884 -0.13584 0.15635 -0.24952 0.25599 -0.4291 0.35601 -1.11696 0.62209 -3.234 3.32509 -3.92249 1.5685 0.25132 -0.36104 0.67606 -0.58984 0.91939 -0.96747 0.36724 -0.28615 0.7164 -0.59124 1.11205 -0.83591 0.3719 -0.30526 0.7317 -0.62265 1.01239 -1.01743 0.41464 -0.41501 0.68626 -0.92445 0.9566 -1.44011 0.26435 -0.51783 0.60453 -0.99828 0.80527 -1.54612 0.22279 -0.48339 0.37116 -0.99312 0.67837 -1.4329 0.28402 -0.46565 0.5435 -0.94312 0.79943 -1.42357 0.30442 -0.42056 0.51339 -0.90612 0.77391 -1.35426 0.12312 -0.37509 0.3455 -0.70286 0.40443 -1.10165 0.22118 -0.42907 0.43419 -0.85277 0.56339 -1.32261 0.16103 -0.52637 0.50427 -0.97127 0.6596 -1.50325 0.17118 -0.52643 0.49386 -0.95878 0.76027 -1.43917 0.21619 -0.42446 0.43658 -0.83983 0.63267 -1.27359 0.13429 -0.47218 0.30575 -0.91861 0.44 -1.38965 0.057 -0.41718 0.1357 -0.84926 0.28178 -1.23825 0.0641 -0.41777 0.0846 -0.84771 0.3425 -1.20303 0.15687 -0.17805 0.0714 -0.30841 0.14464 -0.52135 0.0526 -0.15289 0.15823 -0.29595 0.17086 -0.46959 0.0408 -0.39699 0.3005 -0.74642 0.2439 -1.16689 0.11938 -0.47208 0.26346 -0.92848 0.33854 -1.40975 0.0215 -0.4832 0.11865 -0.9653 0.16539 -1.44884 0.0588 -0.3383 0.0372 -0.15745 0.057 -0.5434 0.0551 -0.36548 0.25255 -0.69357 0.30056 -1.06023 0.12285 -0.47361 0.24604 -0.94712 0.20566 -1.44518 0.0741 -0.48809 0.16519 -0.97136 0.15182 -1.46783 0.013 -0.46954 0.0609 -0.9462 -0.0185 -1.41134 0.008 -0.60736 0.0225 -1.21507 0.0797 -1.82015 0.0721 -0.75413 0.16336 -1.50553 0.18829 -2.26227 0 0 3.60788 -1.83831 3.60788 -1.83831 z" transform="translate(0,540.36217)" fill="#514a85"/>
  <path d="m 344.6091 237.18121 c -0.7126 -0.27899 -1.42764 -0.55482 -2.12718 -0.866 -0.50359 -0.25817 -0.91047 -0.5955 -1.22584 -1.06352 -0.17963 -0.27464 -0.2078 -0.55577 -0.18339 -0.87271 0 0 3.65083 -1.76477 3.65083 -1.76477 c -0.0919 0.20889 -0.10084 0.38578 0.0276 0.58568 0.27456 0.40156 0.64316 0.6757 1.08491 0.88278 0.69424 0.29528 1.3824 0.61324 2.11256 0.81146 0 0 -3.33952 2.28708 -3.33952 2.28708 z" transform="translate(0,540.36217)" fill="#514a85"/>
  <path d="m 361.03652 204.15616 c -0.37061 0.69772 -0.60076 1.4705 -1.06617 2.11463 1.19515 1.01547 -3.13906 2.95965 -4.30126 1.90664 -0.0227 -0.0205 -0.21935 -0.27575 -0.25587 -0.32282 -0.21795 -0.45248 -0.32896 -0.94497 -0.49514 -1.41771 -0.24059 -0.57336 -0.48423 -1.14686 -0.68515 -1.73557 -0.21164 -0.52548 -0.35891 -1.0718 -0.52557 -1.61215 -0.16073 -0.52249 -0.27495 -1.05762 -0.42359 -1.58327 -0.11642 -0.48458 -0.22774 -0.96383 -0.26933 -1.46132 -0.056 -1.63819 0.1892 -0.58987 3.70626 -2.14841 0.037 -0.0164 0.36885 0.34228 0.42451 0.38402 0.36562 0.27706 0.56529 0.7109 0.73048 1.1271 0.1514 0.26474 0.26456 0.96579 0.56651 1.09926 0.0412 0.0182 0.0898 -0.008 0.13469 -0.0125 0 0 -3.3648 2.2615 -3.3648 2.2615 c -0.51186 -0.33315 -0.64992 -0.83689 -0.87063 -1.37911 -0.13749 -0.36255 -0.31258 -0.71443 -0.63849 -0.94202 -0.0278 -0.025 -0.21892 -0.19869 -0.25519 -0.2234 -0.0294 -0.02 -0.12745 -0.0266 -0.0969 -0.0449 1.12926 -0.67717 2.30937 -1.2677 3.43237 -1.95518 0.0389 -0.0238 -0.0678 -0.0745 -0.11342 -0.0766 -0.0263 -0.001 -0.0248 0.0464 -0.0372 0.0695 -0.0589 0.46402 0.13293 0.90952 0.19359 1.36493 0.16497 0.5207 0.26622 1.05646 0.42533 1.57843 0.1673 0.53794 0.30339 1.08478 0.51788 1.60721 0.18921 0.5888 0.43393 1.15954 0.68039 1.72623 0.15948 0.43125 0.28134 0.86729 0.45061 1.29314 0.0856 0.10657 0.14996 0.21029 0.30067 0.22607 0.0939 0.01 0.34272 -0.15646 0.26173 -0.108 -1.07415 0.64261 -2.15019 1.28206 -3.22528 1.9231 0.0757 -0.0521 0.16366 -0.0898 0.22718 -0.15623 0.1921 -0.20087 0.27081 -0.44943 0.38716 -0.69464 0.1804 -0.38019 0.37517 -0.75486 0.49183 -1.16174 0 0 3.69284 -1.64613 3.69284 -1.64613 z" transform="translate(0,540.36217)" fill="#514a85"/>
  <path d="m 320.0728 175.56783 c -0.76622 -0.22579 -1.53945 -0.45672 -2.26052 -0.80422 -0.55829 -0.20612 -1.05228 -0.54105 -1.59785 -0.77225 -0.43484 -0.22366 -0.91242 -0.37255 -1.37437 -0.542 -0.48301 -0.22478 -0.95844 -0.46165 -1.43172 -0.70652 -0.45909 -0.28377 -0.95363 -0.49362 -1.4155 -0.77393 -0.50177 -0.21683 -0.9296 -0.54147 -1.37619 -0.84746 -0.41119 -0.35188 -0.8495 -0.67344 -1.26481 -1.02027 -0.37213 -0.34402 -0.79217 -0.62944 -1.09607 -1.03937 -0.22539 -0.35033 -0.60286 -0.5132 -0.88741 -0.79982 -0.64127 -1.44382 -0.22408 -0.34452 3.52389 -2.30097 0.0112 -0.006 1.03281 0.50576 1.12908 0.5577 0.53263 0.33537 0.98969 0.77334 1.46223 1.18548 0.46512 0.40638 0.84496 0.89984 1.25629 1.35899 0.38871 0.41389 0.68596 0.89623 1.04401 1.33372 0.26753 0.43971 0.69213 0.71799 1.08906 1.0267 0.35529 0.38577 0.8275 0.61556 1.20771 0.97174 0.4145 0.32725 0.91992 0.50167 1.37026 0.77006 0.5013 0.23597 0.98713 0.49894 1.46325 0.78342 0.52816 0.29308 1.0732 0.55372 1.60377 0.84212 0.55589 0.21945 1.03556 0.55507 1.52779 0.88341 0.42125 0.31362 0.8661 0.57971 1.32319 0.83548 0.45907 0.33557 0.99168 0.53742 1.48467 0.80908 0.47285 0.25284 0.95339 0.49225 1.42211 0.75323 0.53587 0.21532 0.96457 0.60852 1.45026 0.90932 0.43712 0.298 0.89568 0.55123 1.36012 0.80221 0.43961 0.29709 0.83295 0.65707 1.30469 0.90295 0.43832 0.27165 0.89824 0.50842 1.35564 0.74838 0.4776 0.21467 0.93886 0.47279 1.39204 0.73639 0.42394 0.28382 0.88623 0.46046 1.35198 0.65751 0.26606 0.0461 0.13353 0.0309 0.3975 0.0465 0 0 -3.31325 2.33316 -3.31325 2.33316 c -0.29828 -0.0683 -0.14971 -0.0254 -0.44535 -0.12999 -0.48587 -0.18786 -0.92676 -0.44382 -1.37775 -0.70229 -0.45907 -0.24925 -0.91347 -0.50843 -1.38678 -0.73016 -0.45545 -0.24954 -0.9284 -0.46659 -1.36084 -0.75608 -0.45032 -0.27378 -0.85344 -0.61418 -1.30178 -0.89163 -0.47651 -0.24832 -0.92177 -0.54674 -1.37611 -0.83288 -0.46657 -0.31271 -0.90964 -0.66285 -1.431 -0.88403 -0.47526 -0.24793 -0.94913 -0.49841 -1.42356 -0.74788 -0.50651 -0.2545 -1.00973 -0.51265 -1.49052 -0.81473 -0.46868 -0.25615 -0.89934 -0.56851 -1.34053 -0.86863 -0.47497 -0.32922 -0.97201 -0.60918 -1.49878 -0.84938 -0.54076 -0.27938 -1.0825 -0.55694 -1.61382 -0.85411 -0.48225 -0.27168 -0.97445 -0.52125 -1.46356 -0.77943 -0.48482 -0.26282 -1.01113 -0.46854 -1.42864 -0.83826 -0.37972 -0.33352 -0.82315 -0.58554 -1.17758 -0.95043 -0.42701 -0.32213 -0.85511 -0.64393 -1.14538 -1.10414 -0.34898 -0.43473 -0.63534 -0.91559 -1.01979 -1.32357 -0.40469 -0.44659 -0.7827 -0.92271 -1.24002 -1.31736 -0.43942 -0.40049 -0.8871 -0.79918 -1.40042 -1.10417 -0.26944 -0.13223 -0.55626 -0.2993 -0.85157 -0.36822 -0.0648 -0.0151 -0.25413 0.023 -0.19922 -0.0147 3.25868 -2.23504 4.24859 -1.19236 3.24123 -2.20213 0.2729 0.30461 0.68875 0.47302 0.89545 0.84863 0.29118 0.37438 0.69557 0.63897 1.04048 0.96052 0.41609 0.33186 0.82413 0.67405 1.2472 0.9959 0.43285 0.30934 0.88249 0.5811 1.35964 0.81845 0.46286 0.25902 0.93823 0.49269 1.40092 0.75185 0.46899 0.22529 0.9176 0.49174 1.40753 0.67162 0.46677 0.17787 0.95108 0.31768 1.38661 0.56778 0.53089 0.2583 1.04515 0.54922 1.58916 0.78118 0.72037 0.3201 1.47588 0.55818 2.24245 0.74043 0 0 -3.33952 2.28709 -3.33952 2.28709 z" transform="translate(0,540.36217)" fill="#514a85"/>
  <path d="m 322.50126 179.82285 c -0.7427 -0.4241 -1.51452 -0.79248 -2.27019 -1.19186 -0.59823 -0.26317 -1.19707 -0.5271 -1.80101 -0.77746 -0.49465 -0.2689 -1.03671 -0.41406 -1.55928 -0.61465 -0.49016 -0.17885 -0.97971 -0.4042 -1.43532 -0.66129 -0.42756 -0.27904 -0.92535 -0.37984 -1.39205 -0.57389 -0.48172 -0.20792 -0.97352 -0.41509 -1.42373 -0.68874 -0.48244 -0.21166 -0.92697 -0.49487 -1.3962 -0.7327 -0.50112 -0.27604 -1.00504 -0.55082 -1.52341 -0.79388 -0.44072 -0.29976 -0.94079 -0.48807 -1.41128 -0.73286 -0.46315 -0.24848 -0.94859 -0.46176 -1.39647 -0.7395 -0.33068 -0.17697 -0.16418 -0.0825 -0.4989 -0.28457 0 0 3.38774 -2.19671 3.38774 -2.19671 c 0.33438 0.19027 0.16722 0.0961 0.50145 0.28244 0.45467 0.24949 0.91995 0.4813 1.38161 0.71706 0.47712 0.22769 0.95565 0.4523 1.40579 0.73125 0.51624 0.25907 1.02994 0.52358 1.53642 0.80132 0.46436 0.25384 0.92893 0.50614 1.40097 0.74511 0.45038 0.23778 0.91669 0.453 1.39082 0.63807 0.48856 0.17274 0.9781 0.33731 1.42129 0.61318 0.4604 0.22839 0.9219 0.45948 1.41107 0.62036 0.52153 0.20599 1.06077 0.36587 1.55785 0.63137 0.60406 0.26559 1.21814 0.51115 1.80469 0.81424 0.76364 0.40119 1.52838 0.80061 2.298 1.19016 0 0 -3.38986 2.20355 -3.38986 2.20355 z" transform="translate(0,540.36217)" fill="#514a85"/>
  <path d="m 388.40516 406.03424 c -1.64194 -0.0705 -3.28651 -0.055 -4.92963 -0.0538 -1.40149 -0.25545 -2.78561 -0.39247 -4.19796 -0.59551 -0.22812 -0.0803 -0.44852 -0.18738 -0.68436 -0.241 -0.18467 -0.042 -0.38065 -0.007 -0.56649 -0.0434 -0.89665 -0.17606 -1.73193 -0.57811 -2.58278 -0.89375 -1.30951 -0.0151 -2.43724 -0.68219 -3.64785 -1.07804 -1.47776 -0.25795 -2.92528 -0.50169 -4.33215 -1.04562 -1.02778 -0.31999 -1.93652 -0.89516 -2.93412 -1.2949 0 0 10.06028 -6.69817 10.06028 -6.69817 c 0.93805 0.4363 1.84606 0.95055 2.84941 1.22829 1.45666 0.41092 2.96143 0.56169 4.40359 1.02095 1.18999 0.45187 2.38708 0.80314 3.62295 1.10544 1.21422 0.42979 2.46484 0.71973 3.72948 0.95745 1.33175 0.20764 2.6719 0.38315 4.01266 0.50706 1.69256 0.001 3.3863 0.0144 5.07781 -0.0538 0 0 -9.88084 7.17886 -9.88084 7.17886 z" transform="translate(0,540.36217)" fill="#514a85"/>
  <path d="m 389.96797 413.22587 c -1.61992 -0.68051 -3.20833 -1.40881 -4.77898 -2.19913 -1.55409 -0.62363 -3.19887 -0.94599 -4.77884 -1.50496 -1.71465 -0.43298 -3.38344 -0.99458 -5.08584 -1.46768 -1.48212 -0.74661 -2.92248 -1.44762 -4.55537 -1.79839 -1.43352 -0.56442 -2.87699 -1.11002 -4.28293 -1.74025 -1.45107 -0.45408 -2.78757 -1.17034 -4.26962 -1.52744 -1.59469 -0.4368 -3.02029 -1.36501 -4.6181 -1.75544 -1.48379 -0.35512 -2.82033 -1.16954 -4.27191 -1.56744 -1.02246 -0.38286 -0.50811 -0.20715 -1.54282 -0.52781 0 0 9.97222 -6.77767 9.97222 -6.77767 c 1.05373 0.35684 0.5324 0.17809 1.56407 0.53602 1.39859 0.56342 2.81613 1.05244 4.23806 1.55474 1.53979 0.58305 3.04119 1.27487 4.63665 1.70339 1.46905 0.47946 2.86244 1.15914 4.32401 1.66262 1.39186 0.53822 2.75003 1.16594 4.18026 1.5989 1.59872 0.47249 3.04394 1.26092 4.60484 1.82704 1.66842 0.54503 3.34983 1.02605 5.03104 1.53022 1.6621 0.47979 3.38352 0.82765 4.924 1.64489 1.51187 0.79434 3.08404 1.50488 4.75937 1.87622 0 0 -10.05011 6.93217 -10.05011 6.93217 z" transform="translate(0,540.36217)" fill="#514a85"/>
  <path d="m 388.40516 415.09519 c -0.27858 0.10335 -0.7956 0.31945 -1.08248 0.30557 -0.30814 -0.0149 -0.59987 -0.14457 -0.90128 -0.2103 -1.04897 -0.22874 -2.10467 -0.40073 -3.16547 -0.56303 -1.84907 -0.36031 -3.51368 -1.07979 -5.19645 -1.88476 -1.48661 -0.6163 -2.90112 -1.42158 -4.28584 -2.24236 -1.22884 -0.78363 -2.60535 -1.11565 -3.95892 -1.59588 -1.41691 -0.23681 -2.72068 -0.8187 -4.05439 -1.32643 -1.54923 -0.86293 -3.29321 -1.1587 -4.87818 -1.93149 -1.06187 -0.4058 -2.07193 -0.89847 -3.09889 -1.38282 0 0 10.08297 -6.65081 10.08297 -6.65081 c 0.99554 0.49783 2.00997 0.94325 3.03538 1.37595 1.61243 0.64331 3.30036 1.08735 4.86434 1.85882 1.35079 0.50827 2.73599 0.8633 4.11728 1.27046 1.37312 0.52288 2.74192 1.02343 3.99825 1.80788 1.39182 0.7555 2.76388 1.5583 4.22179 2.18197 1.57496 0.75044 3.22296 1.29039 4.93499 1.64032 1.77503 0.28069 3.47205 0.55179 5.24774 0.16806 0 0 -9.88084 7.17885 -9.88084 7.17885 z" transform="translate(0,540.36217)" fill="#514a85"/>
  <path d="m 392.57242 408.67457 c 0.37844 0.54502 0.66294 1.14617 1.05499 1.68128 0.30377 0.37106 0.66657 0.63164 1.09721 0.8338 0.4589 0.17178 0.91801 0.33247 1.37125 0.51793 0.3748 0.19766 0.75829 0.37696 1.12942 0.58175 0 0 -3.1622 2.06927 -3.1622 2.06927 c -0.36866 -0.18846 -0.73755 -0.37715 -1.11526 -0.54701 -0.45863 -0.19099 -0.93706 -0.33078 -1.38654 -0.54481 -0.46274 -0.25478 -0.86046 -0.56649 -1.1832 -0.99072 -0.38737 -0.54447 -0.6579 -1.16111 -1.07374 -1.6865 0 0 3.26807 -1.91499 3.26807 -1.91499 z" transform="translate(0,540.36217)" fill="#514a85"/>
  <path d="m 391.83973 411.80718 c 0.6168 0.30311 1.10627 0.7551 1.58534 1.23349 0.32809 0.31885 0.65307 0.64788 1.08973 0.80566 0 0 -3.15559 2.09596 -3.15559 2.09596 c -0.44464 -0.23157 -0.8068 -0.57603 -1.15814 -0.93015 -0.43959 -0.45714 -0.90941 -0.87143 -1.51155 -1.10562 0 0 3.15021 -2.09934 3.15021 -2.09934 z" transform="translate(0,540.36217)" fill="#514a85"/>
  <path d="m 390.30911 413.08269 c 0.69594 0.2684 1.38967 0.54438 2.11459 0.72526 0.4006 0.13068 0.20749 0.0848 0.57686 0.14758 0 0 -3.10575 2.1526 -3.10575 2.1526 c -0.37226 -0.10435 -0.1802 -0.0484 -0.57593 -0.16871 -0.73178 -0.21757 -1.44068 -0.50267 -2.15997 -0.75738 0 0 3.1502 -2.09935 3.1502 -2.09935 z" transform="translate(0,540.36217)" fill="#514a85"/>
  <path d="m 393.17419 412.69275 c -0.053 -0.32939 -0.12728 -0.65472 -0.19903 -0.98034 0 0 3.31672 -1.7824 3.31672 -1.7824 c 0.071 0.31633 0.15443 0.63008 0.20779 0.95004 0 0 -3.32548 1.8127 -3.32548 1.8127 z" transform="translate(0,540.36217)" fill="#514a85"/>
  <path d="m 392.86794 411.51546 c -0.44044 -0.56825 -0.85146 -1.14791 -1.14766 -1.80582 -0.12255 -0.30827 -0.21996 -0.62222 -0.3207 -0.93777 0 0 3.32434 -1.82402 3.32434 -1.82402 c 0.0954 0.30499 0.16711 0.61323 0.28404 0.91226 0.26723 0.63241 0.65343 1.19112 1.10467 1.70724 0 0 -3.24469 1.94811 -3.24469 1.94811 z" transform="translate(0,540.36217)" fill="#514a85"/>
  <path d="m 395.66506 409.87375 c 0.0877 0.0547 0.17535 0.10948 0.26303 0.16421 0 0 -3.16841 2.03839 -3.16841 2.03839 c -0.10115 -0.0653 -0.20231 -0.13065 -0.30346 -0.19598 0 0 3.20884 -2.00662 3.20884 -2.00662 z" transform="translate(0,540.36217)" fill="#514a85"/>
  <path d="m 287.27227 275.88093 c 0.346 -1.37869 0.46126 -2.80115 0.69703 -4.20046 0.24972 -1.052 0.17647 -2.0055 -0.43348 -2.90086 -0.66789 -0.66534 -1.32914 -1.40526 -2.33848 -1.38106 -0.9343 -0.21425 -1.83413 -0.20497 -2.70067 0.22414 -0.14806 0.0628 -0.29611 0.12559 -0.44417 0.18839 0.30443 -0.0951 -1.2251 0.66807 -0.92316 0.49325 2.31466 -1.34013 9.32515 -5.2424 6.96671 -3.98091 -5.17271 2.76679 -5.42791 2.93432 -8.2019 4.6749 -0.82865 0.34017 -1.66712 0.61837 -2.54825 0.78565 -0.92189 0.01 -1.85112 -0.061 -2.72609 0.2827 -2.62418 0.96844 -7.56158 4.03283 6.15271 -3.60676 0.1416 -0.0789 -0.25915 0.19535 -0.38034 0.30299 -0.2526 0.22435 -0.48321 0.47232 -0.72659 0.70666 -0.114 0.1223 -0.228 0.2446 -0.342 0.36689 0 0 -7.99141 3.29602 -7.99141 3.29602 c 0.12162 -0.10631 0.24324 -0.21261 0.36486 -0.31892 2.40937 -2.99304 6.07968 -5.02788 9.7901 -6.00198 0.90715 -0.12452 1.82752 -0.0704 2.72298 -0.27693 0.83241 -0.26148 1.67314 -0.50995 2.42796 -0.96325 0.12958 -0.0588 0.51137 -0.24847 0.38875 -0.17629 -2.32042 1.36583 -9.33664 5.36819 -6.98412 4.05842 2.77235 -1.54351 5.97282 -4.00971 9.28846 -5.12392 0.99878 -0.16818 1.96955 -0.1304 2.95764 0.10822 1.10417 0.37794 1.95341 1.07645 2.69266 1.97444 0.70541 1.0579 1.0251 2.2236 0.74014 3.49285 -0.27811 1.41455 -0.46444 2.83746 -0.64316 4.26827 0 0 -7.80618 3.70755 -7.80618 3.70755 z" transform="translate(0,540.36217)" fill="#514a85"/>
  <path d="m 292.29027 267.16011 c -0.99524 -0.25391 -2.02084 -0.0515 -3.02887 -0.0957 -2.01753 -0.0884 0.4531 -0.10592 -1.41561 -0.0706 -1.02336 -0.0815 -2.00339 0.50298 -3.00284 0.42674 -0.78197 0.20225 -1.58298 0.27071 -2.34306 0.52524 -0.31131 -0.0126 -0.54955 -0.0708 -0.83587 0.0847 -0.10254 0.0557 -0.1531 0.18592 -0.25846 0.23604 -0.11955 0.0569 -0.92713 0.27985 -1.0874 0.32786 -2.99249 1.43265 -8.05513 4.42627 4.80033 -2.90711 -2.61652 1.457 -5.23305 2.914 -7.84957 4.37099 -0.1136 0.0628 -0.4534 0.25283 -0.3408 0.1883 2.37545 -1.36121 4.745 -2.73281 7.12936 -4.07835 0.10559 -0.0596 -0.19405 0.14544 -0.29043 0.21901 -0.42622 0.32534 -0.17871 0.16348 -0.63071 0.4242 -3.63046 -0.41111 -5.96836 4.61607 -9.5618 5.07074 -0.50327 0.1824 -0.2767 0.0508 -0.68128 0.39211 0 0 6.74828 -5.42857 6.74828 -5.42857 c 0.53755 -0.16335 0.26711 -0.0874 0.81132 -0.22776 3.01728 -1.2425 7.51029 -3.63389 -5.36803 3.39369 0.278 -0.26048 0.59259 -0.44456 0.91965 -0.63817 2.56194 -1.51658 5.12677 -3.02852 7.70683 -4.51408 0.11443 -0.0659 0.48533 -0.20434 0.37157 -0.13731 -2.33416 1.37525 -4.69193 2.71001 -7.03789 4.06501 3.14224 -1.79507 6.55737 -4.15638 10.10714 -5.50845 0.7356 -0.28071 1.43799 -0.51358 2.22565 -0.59113 0.80966 -0.13942 1.60771 -0.37678 2.43515 -0.40178 0.98266 -0.24167 1.99178 -0.37633 3.00629 -0.34275 1.48829 0.07 2.97747 0.049 4.46526 0.13552 0 0 -6.99421 5.0816 -6.99421 5.0816 z" transform="translate(0,540.36217)" fill="#514a85"/>
  <path d="m 291.61135 267.96964 c -1.18657 -0.73349 -2.48272 -1.24617 -3.69838 -1.92716 0 0 7.18813 -4.6919 7.18813 -4.6919 c 1.21396 0.64664 2.46574 1.2188 3.69815 1.82893 0 0 -7.1879 4.79013 -7.1879 4.79013 z" transform="translate(0,540.36217)" fill="#514a85"/>
  <path d="m 291.70819 265.41389 c -1.39613 0.20989 -2.80353 0.36423 -4.17226 0.70834 -0.49563 0.25751 -1.04172 0.0243 -1.54921 0.21237 -0.3546 0.13141 -0.75178 0.42083 -1.06021 0.63578 -3.40092 1.7198 8.78739 -5.03885 6.57489 -3.8067 -2.61868 1.45834 -5.20744 2.9698 -7.8055 4.46459 -5.84933 3.3654 24.70207 -14.26785 -1.01603 0.63645 -2.97046 1.72113 5.7732 -3.34526 6.77175 -3.91175 0.23503 -0.13334 -0.18348 0.14612 -0.66969 0.52067 -0.25571 0.19699 -0.6006 0.47475 -0.85053 0.6746 -21.39822 12.36519 -0.5969 0.42647 -0.9246 0.5876 -2.70056 1.32788 -5.23708 2.96617 -7.85663 4.44745 -0.12617 0.0713 -0.24136 0.16993 -0.38054 0.21045 -1.58708 0.46214 0.50245 -0.36168 -0.76612 0.16297 -0.92674 0.14832 -1.72669 0.62574 -2.52826 1.09707 11.70019 -7.90394 8.02821 -4.67595 5.47093 -2.94837 0 0 -8.03326 3.18629 -8.03326 3.18629 c 0.5509 -0.43923 0.25327 -0.23898 0.89723 -0.59427 0.17291 -0.12984 0.31184 -0.29964 0.46777 -0.44946 2.63958 -1.53436 5.27916 -3.06872 7.91874 -4.60308 0.86095 -0.42172 1.7236 -0.77273 2.65659 -1.00123 0.34768 -0.0845 1.70453 -0.79843 1.07571 -0.42669 -2.31393 1.36794 -9.26898 5.44872 -6.96851 4.05826 0.0819 -0.0495 19.26492 -11.26406 0.94181 -0.55185 0.53306 -0.34324 0.96668 -0.81542 1.50935 -1.14077 2.55696 -1.53298 5.12112 -3.05393 7.68545 -4.57455 0.10862 -0.0644 0.22209 -0.12027 0.33314 -0.1804 -2.36196 1.37655 -9.40083 5.58387 -7.08588 4.12965 2.53739 -1.59394 5.16304 -3.04292 7.75351 -4.54905 0.11674 -0.0679 0.48305 -0.24064 0.36672 -0.1721 -14.51781 8.55369 -3.77001 2.0864 1.19645 -0.69731 0.8887 -0.38036 1.80298 -0.43591 2.74494 -0.62677 1.42522 -0.2376 2.84959 -0.51693 4.29647 -0.57978 0 0 -6.99422 5.08159 -6.99422 5.08159 z" transform="translate(0,540.36217)" fill="#514a85"/>
  <path d="m 330.6391 186.01355 c -1.56532 -0.3226 -3.04979 -0.87806 -4.53385 -1.45508 -0.99684 -0.55165 -2.14549 -0.62485 -3.16033 -1.13101 -0.9835 -0.13833 -1.97217 -0.31619 -2.91424 -0.64578 -1.03952 -0.55045 -2.10939 -0.98905 -3.20837 -1.39995 -1.06748 -0.29282 -2.04487 -0.82125 -3.09694 -1.16086 -1.00007 -0.33903 -2.04456 -0.49506 -3.03299 -0.88216 -1.04933 -0.51288 -2.20454 -0.75865 -3.27494 -1.20551 -1.04452 -0.39744 -1.99248 -0.99416 -3.04336 -1.37782 -0.16943 -0.09 -0.33886 -0.18006 -0.50829 -0.27009 0 0 7.21372 -4.7473 7.21372 -4.7473 c 0.15408 0.0714 0.30816 0.14273 0.46223 0.21409 1.02106 0.43903 1.99493 0.98431 3.04231 1.3628 1.09534 0.37333 2.17571 0.77544 3.25912 1.18152 1.01083 0.29473 2.03596 0.53485 3.02876 0.89094 1.04263 0.3915 2.06399 0.839 3.12552 1.18065 1.06143 0.4359 2.09899 0.92176 3.1649 1.34362 0.99326 0.24527 2.01602 0.39092 2.98085 0.7262 1.036 0.37825 2.12639 0.60219 3.10769 1.12721 1.4681 0.58316 2.96711 1.05393 4.51829 1.36547 0 0 -7.13008 4.88306 -7.13008 4.88306 z" transform="translate(0,540.36217)" fill="#514a85"/>
 </g>
</svg>
