<svg xmlns="http://www.w3.org/2000/svg" width="512" height="512">
 <g transform="translate(0,-540.36218)">
  <path d="m 562.85715 -316.57144 c 0 198.82251 -161.17749 360 -360 360 -198.82251 0 -360 -161.17749 -360 -360 0 -198.82251 161.17749 -360 360 -360 198.82251 0 360 161.17749 360 360 z" transform="matrix(0.69444444,0,0,0.69444444,115.12698,1016.2035)" fill="#5c805a" fill-rule="evenodd"/>
  <path d="m 256 568.50057 c -125.83699 0 -227.86161 102.02462 -227.86161 227.86161 0 125.83699 102.02462 227.86162 227.86161 227.86162 125.83699 0 227.86161 -102.02463 227.86161 -227.86162 C 483.86161 670.52519 381.83699 568.50057 256 568.50057 z m 0 27.13176 c 110.86238 0 200.72985 89.86747 200.72985 200.72985 0 110.86238 -89.86747 200.72985 -200.72985 200.72985 -110.86238 0 -200.72985 -89.86747 -200.72985 -200.72985 C 55.27015 685.4998 145.13762 595.63233 256 595.63233 z" fill="#fff8eb" fill-rule="evenodd"/>
  <path d="m 139.35737 690.39671 c -7.33247 0 -12.79811 0.57006 -16.42173 1.93182 -3.62363 1.36497 -5.895 3.55131 -7.0034 6.27963 -1.10838 2.72753 -1.69047 8.44993 -1.69047 17.14635 l 0 52.8875 c 0 8.73898 0.58207 14.45978 1.69047 17.14715 1.15099 2.68496 3.50766 4.63043 7.0034 6.03634 3.53833 1.36498 8.91871 2.17351 16.42173 2.17351 l 8.21087 0 0 -13.52277 c -3.75151 0 -6.17911 -0.34525 -7.24489 -0.73065 -1.0234 -0.38541 -1.79 -1.02213 -2.17346 -2.17352 -0.38347 -1.19313 -0.483 -4.20247 -0.483 -8.93488 l 0 -52.8875 c 0 -5.07285 0.2558 -8.35197 0.7245 -9.41824 0.51158 -1.10884 1.15027 -1.63315 2.17345 -1.93263 1.0658 -0.29708 3.46505 -0.48176 7.0034 -0.48176 l 0 -13.52437 -8.21087 0.004 z m 27.04757 0 -13.76528 103.6023 27.77205 0 1.69047 -18.59562 9.65985 0 1.44897 18.59562 27.53057 0 -15.45575 -103.6023 -38.8809 0 z m 128.71744 0 0 103.6023 31.153 0 c 10.8282 0 17.99743 -0.69854 21.49315 -1.93183 3.49574 -1.23649 5.90905 -3.63481 7.48639 -7.00386 1.61995 -3.36745 2.41496 -8.46358 2.41496 -15.4554 l 0 -9.66073 c 0 -6.73489 -0.92267 -11.73145 -3.13946 -14.97203 -2.21678 -3.28234 -6.57514 -5.59635 -12.79928 -7.00307 5.58469 -1.27985 9.4746 -3.16751 11.35031 -5.55459 1.91841 -2.38709 2.65646 -6.50365 2.65646 -12.55846 0 -8.95095 -1.17819 -15.31169 -3.86395 -19.31905 -2.68571 -4.04993 -6.23479 -6.88904 -10.62581 -8.21146 -4.34836 -1.32081 -10.83617 -1.93182 -19.3197 -1.93182 l -26.80607 0 z m 69.30939 0 0 13.52437 c 3.53835 0 5.73872 0.18468 6.76189 0.48176 1.06606 0.29708 1.9037 0.82378 2.41496 1.93262 0.51123 1.06548 0.7245 4.3454 0.7245 9.41824 l 0 52.8875 c 0 4.73242 -0.057 7.74175 -0.48305 8.9365 -0.38371 1.15219 -1.15037 1.79132 -2.17347 2.1719 -1.02318 0.37736 -3.45076 0.73066 -7.24488 0.73066 l 0 13.52277 8.21088 0 c 7.50294 0 12.88331 -0.81175 16.42172 -2.17351 3.53834 -1.40591 5.89501 -3.35139 7.00339 -6.03635 1.10839 -2.68657 1.69048 -8.40737 1.69048 -17.14715 l 0 -52.8875 c 0 -8.69642 -0.58212 -14.41801 -1.69048 -17.14634 -1.10838 -2.72833 -3.37977 -4.91467 -7.00339 -6.27963 -3.62363 -1.36337 -9.08927 -1.93102 -16.42172 -1.93102 l -8.21083 -0.004 z m -42.50332 17.62969 c 2.77101 0.0803 4.61624 0.40147 5.55441 0.73067 0.98015 0.33722 1.81779 1.09277 2.41497 2.41437 0.59656 1.27985 0.96598 3.52161 0.96598 6.76139 0 6.13911 -0.48281 9.78759 -1.20748 11.1092 -0.7248 1.27985 -2.18687 1.93261 -4.82993 1.93261 -0.63943 0 -1.74695 0.19271 -2.89795 0.23286 l 0 -23.1811 z m -74.86379 3.38111 0 22.94181 -23.18364 0 0 15.69787 23.18364 0 0 22.94183 15.45575 0 0 -22.94183 23.18362 0 0 -15.69787 -23.18362 0 0 -22.94181 -15.45575 0 z m -60.13255 2.17269 c 1.36417 17.22343 2.74127 31.74664 4.10543 43.46926 l -9.17685 0 c 0.68208 -9.16533 2.34301 -23.68773 5.07142 -43.46926 z m 134.99634 33.56926 c 4.00729 0.12844 6.54848 0.74672 7.48639 1.69015 0.93781 0.9378 1.44897 3.53525 1.44897 7.96898 l 0 9.65992 c 0 4.17758 -0.62476 6.9035 -1.69048 7.96898 -1.02317 1.06466 -3.45077 1.56247 -7.24488 1.69095 l 0 -28.97898 z m -227.97235 73.8975 0 18.594 324.08781 0 0 -18.594 -324.08781 0 z m 152.38406 53.12917 0 8.20987 16.18025 0 0 -8.20987 -16.18025 0 z m -22.21765 10.38336 c -3.42784 0 -6.57376 0.40146 -9.17684 1.44927 -2.57735 1.05744 -4.23045 2.63037 -5.31293 4.58948 -1.08247 1.93183 -1.69046 5.07686 -1.69046 9.17577 0 2.8865 0.44385 5.37393 1.44897 7.48642 1.00515 2.0892 3.86473 4.4257 8.45237 7.00387 5.46372 3.03985 8.58385 4.69387 9.17685 5.31212 0.56718 0.61825 0.72447 2.13978 0.72447 4.58868 0 1.77767 -0.28656 3.05591 -0.72447 3.62277 -0.43823 0.54599 -1.06521 0.73066 -2.17347 0.73066 -1.03066 0 -1.81237 -0.38541 -2.17346 -1.2076 -0.33529 -0.8254 -0.48303 -2.55488 -0.48303 -5.3129 l 0 -3.13943 -13.76528 0 0 2.41519 c 0 4.27795 0.39229 7.54664 1.44898 9.65993 1.0567 2.11329 2.98661 3.59226 5.7959 4.83035 2.83506 1.2365 6.41525 1.93102 10.38433 1.93102 3.58249 0 6.65107 -0.55401 9.17686 -1.68934 2.55155 -1.16102 4.23044 -2.71708 5.3129 -4.83036 1.08249 -2.13898 1.69048 -5.48555 1.69048 -9.65993 0 -3.73677 -0.75603 -6.49321 -2.17344 -8.45233 -1.41754 -1.95832 -4.39929 -4.06276 -8.93537 -6.27883 -3.40208 -1.67569 -5.65365 -2.98846 -6.76191 -3.86444 -1.08255 -0.876 -1.70006 -1.69256 -1.93196 -2.41439 -0.20602 -0.74672 -0.24152 -1.80897 -0.24152 -3.38108 0 -1.15944 0.0449 -2.08921 0.48303 -2.65608 0.43824 -0.59415 1.05567 -0.73064 1.93198 -0.73064 1.08245 0 1.91572 0.32116 2.17345 0.96591 0.28351 0.61825 0.48305 1.97598 0.48305 4.34701 l 0 2.89774 13.76527 0 0 -3.13863 c 0 -2.57817 -0.19945 -4.3438 -0.48304 -5.55459 -0.25774 -1.2116 -0.8848 -2.68817 -2.17345 -4.10613 -1.26291 -1.41715 -3.15751 -2.5308 -5.55441 -3.38029 -2.37113 -0.87758 -5.29178 -1.2092 -8.69385 -1.2092 z m 69.3094 0 c -2.13919 0 -3.90493 0.49781 -5.55441 1.44927 -1.62372 0.92819 -3.2129 2.22409 -4.34693 4.10532 l 0.48304 -4.58787 -15.93875 0 0 51.19655 15.45575 0 0 -34.53356 c 0 -3.86607 0.19944 -6.36876 0.48304 -7.24475 0.2835 -0.90167 1.0652 -1.20758 2.17345 -1.20758 1.05679 0 1.70008 0.19269 1.93196 0.9659 0.2319 0.77081 0.24154 2.98927 0.24154 6.52132 l 0 35.49867 15.69725 0 0 -35.98203 c 0 -4.48511 -0.23487 -7.51212 -0.72448 -9.41905 -0.48971 -1.93263 -1.67991 -3.56737 -3.38095 -4.83037 -1.70116 -1.26219 -3.84009 -1.93182 -6.52051 -1.93182 z m -47.09175 0.96672 0 51.19655 16.18025 0 0 -51.19655 -16.18025 0 z" fill="#fff8eb"/>
 </g>
</svg>
