<?xml version="1.0" encoding="UTF-8" standalone="no"?>
<!-- Created with Inkscape (http://www.inkscape.org/) -->

<svg
   xmlns:dc="http://purl.org/dc/elements/1.1/"
   xmlns:cc="http://creativecommons.org/ns#"
   xmlns:rdf="http://www.w3.org/1999/02/22-rdf-syntax-ns#"
   xmlns:svg="http://www.w3.org/2000/svg"
   xmlns="http://www.w3.org/2000/svg"
   xmlns:xlink="http://www.w3.org/1999/xlink"
   xmlns:sodipodi="http://sodipodi.sourceforge.net/DTD/sodipodi-0.dtd"
   xmlns:inkscape="http://www.inkscape.org/namespaces/inkscape"
   width="512"
   height="512"
   id="svg2"
   version="1.1"
   inkscape:version="0.48.4 r9939"
   sodipodi:docname="kapow.svg">
  <defs
     id="defs4">
    <linearGradient
       x1="45.447727"
       y1="92.539597"
       x2="45.447727"
       y2="7.0165396"
       id="ButtonShadow-6"
       gradientUnits="userSpaceOnUse"
       gradientTransform="scale(1.0058652,0.994169)">
      <stop
         id="stop3750-08"
         style="stop-color:#000000;stop-opacity:1"
         offset="0" />
      <stop
         id="stop3752-53"
         style="stop-color:#000000;stop-opacity:0.58823532"
         offset="1" />
    </linearGradient>
    <linearGradient
       id="linearGradient3737-9">
      <stop
         id="stop3739-4"
         style="stop-color:#ffffff;stop-opacity:1"
         offset="0" />
      <stop
         id="stop3741-1"
         style="stop-color:#ffffff;stop-opacity:0"
         offset="1" />
    </linearGradient>
    <filter
       color-interpolation-filters="sRGB"
       id="filter3174-5">
      <feGaussianBlur
         id="feGaussianBlur3176-41"
         stdDeviation="1.71" />
    </filter>
    <linearGradient
       x1="36.357143"
       y1="6"
       x2="36.357143"
       y2="63.893143"
       id="linearGradient3188-5"
       xlink:href="#linearGradient3737-9"
       gradientUnits="userSpaceOnUse" />
    <filter
       x="-0.192"
       y="-0.192"
       width="1.3839999"
       height="1.3839999"
       color-interpolation-filters="sRGB"
       id="filter3794-5">
      <feGaussianBlur
         id="feGaussianBlur3796-4"
         stdDeviation="5.28" />
    </filter>
    <linearGradient
       x1="48"
       y1="20.220806"
       x2="48"
       y2="138.66119"
       id="linearGradient3613-9"
       xlink:href="#linearGradient3737-9"
       gradientUnits="userSpaceOnUse" />
    <radialGradient
       cx="48"
       cy="90.171875"
       r="42"
       fx="48"
       fy="90.171875"
       id="radialGradient3619-83"
       xlink:href="#linearGradient3737-9"
       gradientUnits="userSpaceOnUse"
       gradientTransform="matrix(1.1573129,0,0,0.99590774,-7.5510206,0.19713193)" />
    <clipPath
       id="clipPath3613-8">
      <rect
         width="84"
         height="84"
         rx="6"
         ry="6"
         x="6"
         y="6"
         id="rect3615-5"
         style="fill:#ffffff;fill-opacity:1;fill-rule:nonzero;stroke:none" />
    </clipPath>
    <linearGradient
       x1="45.447727"
       y1="92.539597"
       x2="45.447727"
       y2="7.0165396"
       id="ButtonShadow-3"
       gradientUnits="userSpaceOnUse"
       gradientTransform="scale(1.0058652,0.994169)">
      <stop
         id="stop3750-0"
         style="stop-color:#000000;stop-opacity:1"
         offset="0" />
      <stop
         id="stop3752-7"
         style="stop-color:#000000;stop-opacity:0.58823532"
         offset="1" />
    </linearGradient>
    <filter
       color-interpolation-filters="sRGB"
       id="filter3174-1">
      <feGaussianBlur
         id="feGaussianBlur3176-4"
         stdDeviation="1.71" />
    </filter>
    <filter
       id="filter3174"
       color-interpolation-filters="sRGB">
      <feGaussianBlur
         stdDeviation="1.71"
         id="feGaussianBlur3176" />
    </filter>
    <linearGradient
       gradientTransform="scale(1.0058652,0.994169)"
       gradientUnits="userSpaceOnUse"
       id="ButtonShadow"
       y2="7.0165396"
       x2="45.447727"
       y1="92.539597"
       x1="45.447727">
      <stop
         offset="0"
         style="stop-color:#000000;stop-opacity:1"
         id="stop3750" />
      <stop
         offset="1"
         style="stop-color:#000000;stop-opacity:0.58823532"
         id="stop3752" />
    </linearGradient>
  </defs>
  <sodipodi:namedview
     id="base"
     pagecolor="#ffffff"
     bordercolor="#666666"
     borderopacity="1.0"
     inkscape:pageopacity="0.0"
     inkscape:pageshadow="2"
     inkscape:zoom="0.49497475"
     inkscape:cx="492.06553"
     inkscape:cy="280.60299"
     inkscape:document-units="px"
     inkscape:current-layer="layer1"
     showgrid="false"
     inkscape:window-width="1309"
     inkscape:window-height="750"
     inkscape:window-x="55"
     inkscape:window-y="-3"
     inkscape:window-maximized="1" />
  <metadata
     id="metadata7">
    <rdf:RDF>
      <cc:Work
         rdf:about="">
        <dc:format>image/svg+xml</dc:format>
        <dc:type
           rdf:resource="http://purl.org/dc/dcmitype/StillImage" />
        <dc:title />
      </cc:Work>
    </rdf:RDF>
  </metadata>
  <g
     inkscape:label="Layer 1"
     inkscape:groupmode="layer"
     id="layer1"
     transform="translate(0,-540.36218)">
    <path
       sodipodi:type="arc"
       style="fill:#cd1d31;fill-rule:evenodd;stroke:none;fill-opacity:1"
       id="path2985"
       sodipodi:cx="202.85715"
       sodipodi:cy="-316.57144"
       sodipodi:rx="360"
       sodipodi:ry="360"
       d="m 562.85715,-316.57144 c 0,198.82251 -161.17749,359.999998 -360,359.999998 -198.8225127,0 -360,-161.177488 -360,-359.999998 0,-198.82251 161.1774873,-360 360,-360 198.82251,0 360,161.17749 360,360 z"
       transform="matrix(0.69444444,0,0,0.69444444,115.12698,1016.2035)" />
    <path
       style="fill:#fff8eb;fill-opacity:1;fill-rule:evenodd;stroke:none"
       d="M 256.59375 38.28125 C 254.65307 38.277881 252.71874 38.326544 250.78125 38.375 C 245.56076 38.505562 240.33935 38.809485 235.15625 39.3125 C 233.46183 39.476942 231.78271 39.639896 230.09375 39.84375 C 230.04141 39.849987 229.98983 39.868725 229.9375 39.875 C 228.37269 40.065024 226.8095 40.276303 225.25 40.5 C 225.08371 40.523596 224.91625 40.538519 224.75 40.5625 C 223.19063 40.789834 221.61592 41.020394 220.0625 41.28125 C 197.90651 44.971707 176.21844 52.123813 155.84375 62.6875 C 152.73688 64.298322 149.66743 65.97936 146.625 67.75 C 145.12075 68.625444 143.61238 69.522988 142.125 70.4375 C 140.62874 71.357473 139.1347 72.290491 137.65625 73.25 C 136.62772 73.917509 135.61335 74.594606 134.59375 75.28125 C 133.64011 75.920806 132.69441 76.56337 131.75 77.21875 C 130.25463 78.256471 128.78405 79.329043 127.3125 80.40625 C 125.84588 81.47985 124.37961 82.574907 122.9375 83.6875 C 117.10753 88.185352 111.48801 92.999257 106.09375 98.125 C 100.72224 103.22912 95.571389 108.63192 90.6875 114.34375 C 88.305898 117.12909 85.974587 119.97902 83.71875 122.90625 C 83.128949 123.67159 82.549676 124.44379 81.96875 125.21875 C 81.165511 126.285 80.374807 127.36 79.59375 128.4375 C 78.506574 129.9373 77.450448 131.44789 76.40625 132.96875 C 75.354676 134.50035 74.320488 136.04165 73.3125 137.59375 C 68.191454 145.47913 63.652278 153.62242 59.65625 161.96875 C 58.856511 163.63913 58.067178 165.31389 57.3125 167 C 56.586891 168.62116 55.871453 170.24012 55.1875 171.875 C 55.135036 171.99981 55.083464 172.12513 55.03125 172.25 C 54.54689 173.41395 54.088272 174.57949 53.625 175.75 C 53.318758 176.51949 53.015611 177.29104 52.71875 178.0625 C 52.368925 178.97685 52.024548 179.89445 51.6875 180.8125 C 51.429122 181.51214 51.156992 182.20513 50.90625 182.90625 C 50.477867 184.11133 50.062747 185.32028 49.65625 186.53125 C 49.516401 186.94517 49.387218 187.36686 49.25 187.78125 C 48.921385 188.78023 48.595019 189.77854 48.28125 190.78125 C 47.998514 191.6787 47.708015 192.56933 47.4375 193.46875 C 47.30711 193.90523 47.190095 194.34412 47.0625 194.78125 C 46.643517 196.20706 46.263464 197.63225 45.875 199.0625 C 38.902691 224.73321 36.812411 251.08268 39.3125 276.84375 C 39.476942 278.53817 39.639896 280.21729 39.84375 281.90625 C 39.849987 281.95859 39.868725 282.01017 39.875 282.0625 C 40.065024 283.62731 40.276303 285.1905 40.5 286.75 C 40.611152 287.53333 40.724059 288.31144 40.84375 289.09375 C 41.014097 290.19648 41.18786 291.30657 41.375 292.40625 C 41.647691 294.00864 41.941794 295.59212 42.25 297.1875 C 42.273867 297.31194 42.288415 297.43809 42.3125 297.5625 C 42.613451 299.10596 42.947203 300.65124 43.28125 302.1875 C 43.636464 303.83133 44.012638 305.45691 44.40625 307.09375 C 44.425852 307.17487 44.417805 307.26265 44.4375 307.34375 C 44.642129 308.1904 44.878843 309.03038 45.09375 309.875 C 45.338953 310.8346 45.585558 311.79382 45.84375 312.75 C 45.857522 312.80119 45.86119 312.85506 45.875 312.90625 C 47.182336 317.75163 48.664864 322.54928 50.3125 327.3125 C 50.883806 328.96411 51.481529 330.6098 52.09375 332.25 C 52.60817 333.62818 53.144194 335.00539 53.6875 336.375 C 53.811754 336.6884 53.936785 336.99965 54.0625 337.3125 C 54.141121 337.50803 54.202039 337.7109 54.28125 337.90625 C 55.481833 340.86706 56.757518 343.80248 58.09375 346.71875 C 58.822103 348.30835 59.575094 349.89347 60.34375 351.46875 C 61.111129 353.04141 61.879952 354.59864 62.6875 356.15625 C 63.49059 357.70526 64.313433 359.24787 65.15625 360.78125 C 65.777687 361.91186 66.419465 363.0345 67.0625 364.15625 C 67.439593 364.8165 67.834537 365.46837 68.21875 366.125 C 68.742748 367.01709 69.243461 367.92635 69.78125 368.8125 C 70.028824 369.222 70.280879 369.62323 70.53125 370.03125 C 71.246045 371.19167 71.980156 372.35027 72.71875 373.5 C 73.059337 374.03226 73.404579 374.56418 73.75 375.09375 C 74.009012 375.48928 74.269396 375.88704 74.53125 376.28125 C 75.421219 377.62633 76.328762 378.9543 77.25 380.28125 C 78.263231 381.74071 79.292897 383.18824 80.34375 384.625 C 80.388249 384.68562 80.42418 384.75192 80.46875 384.8125 C 90.190896 398.07609 101.53655 410.33743 114.375 421.3125 C 115.77974 422.51336 117.18407 423.70572 118.625 424.875 C 120.04169 426.02461 121.48604 427.16296 122.9375 428.28125 C 124.09816 429.17549 125.25473 430.06373 126.4375 430.9375 C 126.94622 431.3153 127.4575 431.68971 127.96875 432.0625 C 128.6389 432.54855 129.32291 433.02057 130 433.5 C 130.83132 434.09166 131.6623 434.67142 132.5 435.25 C 132.83272 435.4787 133.16565 435.71039 133.5 435.9375 C 134.86211 436.86702 136.21551 437.79235 137.59375 438.6875 C 139.1528 439.70008 140.73365 440.68765 142.3125 441.65625 C 143.91569 442.63978 145.53355 443.59306 147.15625 444.53125 C 156.28081 449.80676 165.6988 454.37703 175.34375 458.21875 C 176.59243 458.71612 177.8379 459.21417 179.09375 459.6875 C 180.58148 460.25037 182.09925 460.78429 183.59375 461.3125 C 184.17523 461.51712 184.7609 461.70672 185.34375 461.90625 C 186.50215 462.30455 187.65045 462.71607 188.8125 463.09375 C 189.41488 463.28866 190.02127 463.46673 190.625 463.65625 C 191.17667 463.83024 191.72883 464.01812 192.28125 464.1875 C 193.114 464.44161 193.9461 464.6936 194.78125 464.9375 C 200.78211 466.69833 206.83952 468.18026 212.90625 469.40625 L 212.90625 469.375 C 215.1009 469.81624 217.29522 470.25187 219.5 470.625 C 236.74188 473.54296 254.25186 474.37242 271.65625 473.125 C 321.45429 469.55585 370.24343 448.88844 408.5625 411.21875 L 408.59375 411.25 C 409.04522 410.80574 409.48937 410.35491 409.9375 409.90625 C 410.70134 409.1415 411.46479 408.37124 412.21875 407.59375 C 412.70155 407.09651 413.17917 406.59445 413.65625 406.09375 C 414.51787 405.18829 415.37071 404.29733 416.21875 403.375 C 417.01486 402.51064 417.78301 401.65529 418.5625 400.78125 C 418.77706 400.54027 419.00512 400.30459 419.21875 400.0625 C 419.80923 399.39442 420.38792 398.70482 420.96875 398.03125 C 421.36461 397.57144 421.76373 397.11996 422.15625 396.65625 C 422.54942 396.19262 422.92385 395.71614 423.3125 395.25 C 423.87079 394.57914 424.44874 393.89761 425 393.21875 C 425.21995 392.94836 425.43779 392.67745 425.65625 392.40625 C 425.72175 392.3248 425.77835 392.23781 425.84375 392.15625 C 427.31411 390.32553 428.75387 388.49145 430.15625 386.625 C 430.89696 385.63917 431.62198 384.65168 432.34375 383.65625 C 433.07314 382.65031 433.78995 381.64048 434.5 380.625 C 435.20888 379.61118 435.90413 378.58557 436.59375 377.5625 C 437.29024 376.52924 437.9794 375.47993 438.65625 374.4375 C 443.20575 367.43079 447.33532 360.24947 451 352.875 L 450.9375 352.84375 C 484.05871 286.32464 480.00203 209.94482 445.46875 148.78125 C 445.45033 148.74874 445.42469 148.72001 445.40625 148.6875 C 444.83301 147.67343 444.24621 146.66182 443.65625 145.65625 C 442.96142 144.47562 442.28119 143.2954 441.5625 142.125 C 441.01904 141.23769 440.4629 140.34891 439.90625 139.46875 C 439.52137 138.86153 439.14141 138.26051 438.75 137.65625 C 438.48522 137.2466 438.20516 136.84553 437.9375 136.4375 C 435.93605 133.3864 433.84872 130.39435 431.6875 127.4375 C 429.51872 124.47031 427.26528 121.55276 424.9375 118.6875 C 421.03972 113.88974 416.93029 109.23561 412.59375 104.75 C 412.49691 104.64976 412.40957 104.5376 412.3125 104.4375 C 411.53278 103.63412 410.73117 102.85519 409.9375 102.0625 C 408.6129 100.73954 407.26951 99.417455 405.90625 98.125 C 404.55924 96.847949 403.19702 95.59016 401.8125 94.34375 C 400.85433 93.481163 399.88229 92.628816 398.90625 91.78125 C 398.18711 91.154196 397.47536 90.522271 396.75 89.90625 C 396.66544 89.834439 396.58464 89.759161 396.5 89.6875 C 395.47477 88.823304 394.45047 87.97255 393.40625 87.125 C 392.47644 86.370314 391.53855 85.616253 390.59375 84.875 C 389.72419 84.189344 388.84626 83.514261 387.96875 82.84375 C 386.51386 81.732062 385.03861 80.663806 383.5625 79.59375 C 369.82041 69.631911 355.18811 61.478651 339.96875 55.125 C 338.27585 54.418262 336.58169 53.724594 334.875 53.0625 C 333.18431 52.406612 331.48459 51.768327 329.78125 51.15625 C 328.06623 50.539976 326.35195 49.946861 324.625 49.375 C 324.09296 49.197662 323.56404 49.016752 323.03125 48.84375 C 321.84497 48.461108 320.66016 48.080519 319.46875 47.71875 C 318.9771 47.568432 318.49223 47.427914 318 47.28125 C 316.77279 46.918045 315.5447 46.559885 314.3125 46.21875 C 313.85576 46.091483 313.39468 45.967903 312.9375 45.84375 C 311.65977 45.499004 310.37636 45.164832 309.09375 44.84375 C 308.67468 44.738145 308.26314 44.634263 307.84375 44.53125 C 307.4394 44.432563 307.0298 44.34634 306.625 44.25 C 305.3211 43.937768 304.02544 43.631054 302.71875 43.34375 C 301.01855 42.969924 299.29802 42.613044 297.59375 42.28125 C 295.88848 41.949261 294.17738 41.633853 292.46875 41.34375 C 292.4586 41.342026 292.44765 41.345472 292.4375 41.34375 C 292.41722 41.340327 292.39528 41.347167 292.375 41.34375 C 280.47143 39.327926 268.51918 38.30195 256.59375 38.28125 z M 255.8125 257.09375 L 257.28125 258.5625 L 255.09375 257.5 L 255.8125 257.09375 z M 453.90625 346.78125 C 453.50015 347.66669 453.07495 348.55647 452.65625 349.4375 C 453.07479 348.55669 453.50021 347.66644 453.90625 346.78125 z "
       transform="translate(0,540.36218)"
       id="path4152" />
    <path
       style="fill:#282629;stroke:none"
       id="path3887"
       inkscape:connector-curvature="0"
       d="m 248.8106,784.45184 182.80338,-105.85254 6.96598,11.20755 -175.8373,117.06001 -50.05463,19.45847 -3.48296,-5.60382 39.60553,-36.26967 z"
       inkscape:transform-center-x="-68.100374"
       inkscape:transform-center-y="-43.394839" />
    <path
       style="fill:#282629;stroke:none"
       id="path3877"
       inkscape:connector-curvature="0"
       d="m 250.09493,803.3433 -126.98522,-94.83453 7.44899,-10.89251 134.43422,83.942 37.9831,37.96549 -3.72451,5.44626 -49.15658,-21.62671 z"
       inkscape:transform-center-x="42.253584"
       inkscape:transform-center-y="-34.658639" />
    <rect
       style="color:#000000;fill:#cd1d31;fill-opacity:1;fill-rule:nonzero;stroke:none;stroke-width:1;marker:none;visibility:visible;display:inline;overflow:visible;enable-background:accumulate"
       id="rect3905"
       transform="matrix(0.89803763,-0.43991864,0.43991864,0.89803763,0,0)"
       y="824.30219"
       x="-126.21841"
       height="193.54108"
       width="8.7973223"
       inkscape:transform-center-x="-41.906379"
       inkscape:transform-center-y="91.251752" />
    <path
       transform="matrix(0.03219144,0,0,0.03219144,249.61694,806.639)"
       d="m 562.85715,-316.57144 a 360,360 0 1 1 -720,0 360,360 0 1 1 720,0 z"
       sodipodi:ry="360"
       sodipodi:rx="360"
       sodipodi:cy="-316.57144"
       sodipodi:cx="202.85715"
       id="path4150"
       style="fill:#bea68e;fill-opacity:1;fill-rule:evenodd;stroke:none"
       sodipodi:type="arc" />
    <g
       id="layer2"
       style="display:none"
       transform="matrix(7.275125,0,0,7.275125,839.3654,635.10063)">
      <rect
         width="86"
         height="85"
         rx="6"
         ry="6"
         x="5"
         y="7"
         id="rect3745"
         style="opacity:0.9;fill:url(#ButtonShadow);fill-opacity:1;fill-rule:nonzero;stroke:none;filter:url(#filter3174)" />
    </g>
    <g
       id="layer2-1"
       style="display:none"
       transform="matrix(7.275125,0,0,7.275125,95.957116,277.76446)">
      <rect
         width="86"
         height="85"
         rx="6"
         ry="6"
         x="5"
         y="7"
         id="rect3745-7"
         style="opacity:0.9;fill:url(#ButtonShadow-3);fill-opacity:1;fill-rule:nonzero;stroke:none;filter:url(#filter3174-1)" />
    </g>
    <g
       id="layer2-3"
       style="display:none"
       transform="matrix(7.275125,0,0,7.275125,-249.06074,1216.6755)">
      <rect
         width="86"
         height="85"
         rx="6"
         ry="6"
         x="5"
         y="7"
         id="rect3745-3"
         style="opacity:0.9;fill:url(#ButtonShadow-6);fill-opacity:1;fill-rule:nonzero;stroke:none;filter:url(#filter3174-5)" />
    </g>
    <g
       id="layer5-2"
       style="display:none"
       transform="matrix(7.275125,0,0,7.275125,-249.06074,1216.6755)">
      <rect
         width="66"
         height="66"
         rx="12"
         ry="12"
         x="15"
         y="15"
         clip-path="url(#clipPath3613-8)"
         id="rect3171-4"
         style="opacity:0.1;fill:url(#linearGradient3613-9);fill-opacity:1;fill-rule:nonzero;stroke:#ffffff;stroke-width:0.5;stroke-linecap:round;stroke-linejoin:miter;stroke-miterlimit:4;stroke-opacity:1;stroke-dasharray:none;stroke-dashoffset:0;filter:url(#filter3794-5)" />
    </g>
    <g
       id="layer4"
       style="display:inline"
       transform="matrix(7.275125,0,0,7.275125,-249.06074,1216.6755)">
      <path
         d="M 12,90 C 8.676,90 6,87.324 6,84 L 6,82 6,14 6,12 c 0,-0.334721 0.04135,-0.6507 0.09375,-0.96875 0.0487,-0.295596 0.09704,-0.596915 0.1875,-0.875 C 6.29113,10.12587 6.302142,10.09265 6.3125,10.0625 6.411365,9.774729 6.5473802,9.515048 6.6875,9.25 6.8320918,8.976493 7.0031161,8.714385 7.1875,8.46875 7.3718839,8.223115 7.5612765,7.995278 7.78125,7.78125 8.221197,7.353194 8.72416,6.966724 9.28125,6.6875 9.559795,6.547888 9.8547231,6.440553 10.15625,6.34375 9.9000482,6.443972 9.6695391,6.580022 9.4375,6.71875 c -0.00741,0.0044 -0.023866,-0.0045 -0.03125,0 -0.031933,0.0193 -0.062293,0.04251 -0.09375,0.0625 -0.120395,0.0767 -0.2310226,0.163513 -0.34375,0.25 -0.1061728,0.0808 -0.2132809,0.161112 -0.3125,0.25 C 8.4783201,7.442683 8.3087904,7.626638 8.15625,7.8125 8.0486711,7.942755 7.9378561,8.077785 7.84375,8.21875 7.818661,8.25713 7.805304,8.30462 7.78125,8.34375 7.716487,8.446782 7.6510225,8.548267 7.59375,8.65625 7.4927417,8.850956 7.3880752,9.071951 7.3125,9.28125 7.30454,9.30306 7.288911,9.3218 7.28125,9.34375 7.2494249,9.4357 7.2454455,9.530581 7.21875,9.625 7.1884177,9.731618 7.1483606,9.828031 7.125,9.9375 7.0521214,10.279012 7,10.635705 7,11 l 0,2 0,68 0,2 c 0,2.781848 2.2181517,5 5,5 l 2,0 68,0 2,0 c 2.781848,0 5,-2.218152 5,-5 l 0,-2 0,-68 0,-2 C 89,10.635705 88.94788,10.279012 88.875,9.9375 88.83085,9.730607 88.78662,9.539842 88.71875,9.34375 88.71105,9.3218 88.69545,9.30306 88.6875,9.28125 88.62476,9.107511 88.549117,8.913801 88.46875,8.75 88.42717,8.6672 88.38971,8.580046 88.34375,8.5 88.28915,8.40279 88.216976,8.31165 88.15625,8.21875 88.06214,8.077785 87.951329,7.942755 87.84375,7.8125 87.700576,7.63805 87.540609,7.465502 87.375,7.3125 87.36383,7.3023 87.35502,7.29135 87.34375,7.28125 87.205364,7.155694 87.058659,7.046814 86.90625,6.9375 86.803679,6.86435 86.701932,6.784136 86.59375,6.71875 c -0.0074,-0.0045 -0.02384,0.0044 -0.03125,0 -0.232039,-0.138728 -0.462548,-0.274778 -0.71875,-0.375 0.301527,0.0968 0.596455,0.204138 0.875,0.34375 0.55709,0.279224 1.060053,0.665694 1.5,1.09375 0.219973,0.214028 0.409366,0.441865 0.59375,0.6875 0.184384,0.245635 0.355408,0.507743 0.5,0.78125 0.14012,0.265048 0.276135,0.524729 0.375,0.8125 0.01041,0.03078 0.02133,0.06274 0.03125,0.09375 0.09046,0.278085 0.1388,0.579404 0.1875,0.875 C 89.95865,11.3493 90,11.665279 90,12 l 0,2 0,68 0,2 c 0,3.324 -2.676,6 -6,6 l -72,0 z"
         inkscape:connector-curvature="0"
         id="path3615-7"
         style="opacity:0.2;fill:url(#radialGradient3619-83);fill-opacity:1;fill-rule:nonzero;stroke:none;display:none" />
      <path
         d="M 12,6 C 8.676,6 6,8.676 6,12 l 0,2 0,68 0,2 c 0,0.334721 0.04135,0.6507 0.09375,0.96875 0.0487,0.295596 0.09704,0.596915 0.1875,0.875 0.00988,0.03038 0.020892,0.0636 0.03125,0.09375 0.098865,0.287771 0.2348802,0.547452 0.375,0.8125 0.1445918,0.273507 0.3156161,0.535615 0.5,0.78125 0.1843839,0.245635 0.3737765,0.473472 0.59375,0.6875 0.439947,0.428056 0.94291,0.814526 1.5,1.09375 0.278545,0.139612 0.5734731,0.246947 0.875,0.34375 -0.2562018,-0.100222 -0.4867109,-0.236272 -0.71875,-0.375 -0.00741,-0.0044 -0.023866,0.0045 -0.03125,0 -0.031933,-0.0193 -0.062293,-0.04251 -0.09375,-0.0625 -0.120395,-0.0767 -0.2310226,-0.163513 -0.34375,-0.25 -0.1061728,-0.0808 -0.2132809,-0.161112 -0.3125,-0.25 C 8.4783201,88.557317 8.3087904,88.373362 8.15625,88.1875 8.0486711,88.057245 7.9378561,87.922215 7.84375,87.78125 7.818661,87.74287 7.805304,87.69538 7.78125,87.65625 7.716487,87.553218 7.6510225,87.451733 7.59375,87.34375 7.4927417,87.149044 7.3880752,86.928049 7.3125,86.71875 7.30454,86.69694 7.288911,86.6782 7.28125,86.65625 7.2494249,86.5643 7.2454455,86.469419 7.21875,86.375 7.1884177,86.268382 7.1483606,86.171969 7.125,86.0625 7.0521214,85.720988 7,85.364295 7,85 L 7,83 7,15 7,13 C 7,10.218152 9.2181517,8 12,8 l 2,0 68,0 2,0 c 2.781848,0 5,2.218152 5,5 l 0,2 0,68 0,2 c 0,0.364295 -0.05212,0.720988 -0.125,1.0625 -0.04415,0.206893 -0.08838,0.397658 -0.15625,0.59375 -0.0077,0.02195 -0.0233,0.04069 -0.03125,0.0625 -0.06274,0.173739 -0.138383,0.367449 -0.21875,0.53125 -0.04158,0.0828 -0.07904,0.169954 -0.125,0.25 -0.0546,0.09721 -0.126774,0.18835 -0.1875,0.28125 -0.09411,0.140965 -0.204921,0.275995 -0.3125,0.40625 -0.143174,0.17445 -0.303141,0.346998 -0.46875,0.5 -0.01117,0.0102 -0.01998,0.02115 -0.03125,0.03125 -0.138386,0.125556 -0.285091,0.234436 -0.4375,0.34375 -0.102571,0.07315 -0.204318,0.153364 -0.3125,0.21875 -0.0074,0.0045 -0.02384,-0.0044 -0.03125,0 -0.232039,0.138728 -0.462548,0.274778 -0.71875,0.375 0.301527,-0.0968 0.596455,-0.204138 0.875,-0.34375 0.55709,-0.279224 1.060053,-0.665694 1.5,-1.09375 0.219973,-0.214028 0.409366,-0.441865 0.59375,-0.6875 0.184384,-0.245635 0.355408,-0.507743 0.5,-0.78125 0.14012,-0.265048 0.276135,-0.524729 0.375,-0.8125 0.01041,-0.03078 0.02133,-0.06274 0.03125,-0.09375 0.09046,-0.278085 0.1388,-0.579404 0.1875,-0.875 C 89.95865,84.6507 90,84.334721 90,84 l 0,-2 0,-68 0,-2 C 90,8.676 87.324,6 84,6 L 12,6 z"
         inkscape:connector-curvature="0"
         id="rect3728-6"
         style="opacity:0.5;fill:url(#linearGradient3188-5);fill-opacity:1;fill-rule:nonzero;stroke:none;display:none" />
    </g>
  </g>
</svg>
