<svg xmlns="http://www.w3.org/2000/svg" width="512" height="512">
 <path d="m 506 256.00004 c 0 138.07119 -111.92881 250 -250 250 -138.07119 0 -250 -111.92881 -250 -250 C 6 117.92886 117.92881 6.00005 256 6.00005 c 138.07119 0 250 111.92881 250 249.99999 z" fill="#31afbc" fill-rule="evenodd"/>
 <path d="m 255.64159 54.04124 c -21.184 0 -41.63334 3.115736 -60.93227 8.905486 2.15408 10.406 -0.14981 21.402693 10.22886 21.257365 6.7031 8.990545 -13.35564 2.665421 1.13046 9.594763 8.33029 6.223961 -8.80001 9.799301 1.51638 15.384711 -11.88993 5.82053 1.9215 30.45199 10.75275 36.6145 14.53534 11.60878 6.44485 -24.58594 22.66349 -26.46831 8.81298 -9.54492 24.27103 -15.68082 35.26355 -25.28276 -10.74292 -0.8274 -17.03933 -7.181542 -6.86525 -11.11118 18.72511 18.203308 4.7133 -8.600993 -5.65202 -12.848161 10.02966 -3.02681 19.78161 -0.833222 18.38993 -8.684915 3.29396 -2.286227 3.5511 -4.077356 2.12297 -5.43152 -9.36038 -1.264832 -18.91168 -1.929981 -28.61885 -1.929981 z M 152.27726 80.950689 c -6.18282 3.464658 -12.16898 7.229369 -17.94878 11.276604 5.45477 0.218029 9.47654 1.429263 12.68274 9.291487 14.33082 7.83554 1.25654 21.13303 -4.99043 25.69632 10.44793 -5.85564 28.75968 23.14368 23.76635 7.05821 -6.1493 -4.2596 16.52619 6.8405 4.76985 -7.00307 -10.8191 -16.53669 0.84257 -7.38866 5.40395 -3.52911 15.51387 -13.19772 -17.54585 -14.81628 -9.29153 -28.398295 -4.03624 -3.101417 -8.76631 -9.724133 -14.39215 -14.392146 z M 142.02079 127.2151 c -0.33703 0.18889 -0.6453 0.39761 -0.96494 0.6617 0.29936 -0.19729 0.61732 -0.40777 0.96494 -0.6617 z m 57.40316 -35.07052 c -8.0836 6.389842 15.36821 7.593231 0 0 z m 183.0725 4.108104 c -10.43589 8.695786 -16.91236 21.669826 -24.40041 33.03026 -16.11662 6.89361 -15.52415 36.47514 2.48142 27.01973 4.8191 7.98483 -3.36677 20.55922 10.66999 10.11862 11.32209 -14.21427 1.99016 -37.19112 21.2574 -46.15412 1.40346 6.96922 -17.77053 33.00651 4.63191 28.72915 20.25229 0.72494 -14.70249 1.89881 -4.85246 14.17157 -10.23388 -5.76046 -4.92142 15.72685 -18.27974 10.72518 -11.57263 5.97197 -19.16619 -2.77217 -16.51513 -12.35187 -9.10383 5.0385 2.84528 19.27265 -12.95838 20.12694 -3.54014 11.92607 -32.65698 10.10599 -16.10154 22.24993 7.35015 18.072 -27.36959 1.1419 -17.50779 22.82892 8.43733 21.44516 26.10453 -7.08387 33.27842 -12.60003 13.4088 -9.86743 33.07438 15.65938 22.96679 18.19697 12.72511 -2.27951 9.73339 -14.35855 -1.158 -19.10682 -6.04358 -14.87013 19.12452 7.32264 17.72826 14.77815 8.88251 15.77971 5.24285 -16.17914 14.28189 -2.04026 -1.05536 14.91444 36.36433 3.51735 18.50021 22.52563 -15.359 2.93484 -30.5048 -3.7343 -43.72786 0.55142 -12.30714 -0.10342 -11.64835 -12.59158 -16.12907 -15.71556 -15.65484 1.2066 -35.03964 1.07069 -45.52008 13.06873 -11.33318 14.7516 -27.65446 35.36891 -15.3019 54.20491 12.36117 27.91276 43.00817 1.4366 60.62895 17.92125 5.23751 6.87336 -4.54231 15.05296 7.16847 22.49807 4.4067 15.85942 -5.00535 30.91079 5.81761 46.07141 5.59646 14.25775 9.08485 35.60925 29.91461 22.58078 22.04544 -12.58587 16.16329 -35.78478 34.35367 -48.63553 -14.39318 -26.42631 17.62917 -37.99007 25.61362 -59.44343 -17.44461 2.42288 -33.00628 -14.10666 -37.22106 -30.71427 -7.3283 -8.06668 -5.42892 -19.95131 2.75711 -4.79738 11.25162 10.34325 11.49978 41.01624 32.31345 25.22762 2.35868 -0.93596 5.73003 -2.50616 9.15363 -4.46653 0.61008 -6.17557 0.95218 -12.42845 1.02011 -18.74839 -11.66401 -0.0273 -21.19023 -26.45038 -3.85997 -7.69236 1.31554 0.52951 2.59398 1.01441 3.83245 1.48884 -0.17914 -9.92825 -1.00834 -19.70347 -2.50903 -29.253 -1.6722 2.63594 -5.11884 2.84983 -10.28402 -2.53654 2.07427 -12.99971 -13.75725 -22.91754 3.25336 -27.57116 -13.41126 -42.91083 -40.12868 -79.93069 -75.29689 -106.28682 z m -255.39161 1.268268 c -1.40988 1.078544 -2.80917 2.168115 -4.19082 3.280968 -2.23966 5.49859 -6.35319 10.80538 -7.74754 6.56194 -39.573924 35.11544 -65.894634 84.82301 -70.52703 140.69564 5.550842 9.61738 15.515548 26.05151 16.07402 19.57552 -7.418268 -7.37 -15.06144 -29.48058 -2.509019 -9.78776 11.2433 18.71946 26.424643 30.86406 48.580383 35.31866 12.11332 3.90894 22.07449 17.34859 32.72701 14.39214 6.02357 15.06434 -17.85287 29.5393 0.79952 43.59 9.73752 14.22424 26.11046 23.56506 17.25954 43.53487 -5.6988 17.95716 -3.94104 37.35831 -7.80258 54.5082 5.46544 3.16147 11.08581 6.09477 16.84593 8.76763 2.70312 -11.79851 5.01222 -23.36672 14.14405 -31.569 16.8537 0.12668 3.23213 -17.20603 19.96152 -14.94357 10.2083 -12.69405 13.15599 -27.85179 30.38342 -32.89239 2.05782 -15.40864 28.65091 -38.99689 1.18551 -44.99614 -7.46468 -3.49046 -26.69638 -4.72934 -25.22756 -6.45165 2.97583 -15.28944 -24.82896 -19.6615 -36.66964 -25.91689 -15.54635 -10.46885 -38.91231 17.38873 -44.38958 -6.61708 -3.26821 -7.55302 -15.22439 -7.64519 -9.73266 -19.29981 -9.89711 9.33833 -29.24801 6.48192 -24.17986 -11.55232 7.696808 -15.18832 37.2575 -15.92524 42.29415 2.34355 -6.99319 -20.14829 13.51058 -35.84516 24.89672 -50.17951 2.31844 -6.85146 16.0998 -12.71774 11.35932 -3.61182 8.07619 -0.27655 20.30217 -14.10146 5.95537 -7.71993 -0.20302 -12.60916 -12.56009 -9.01404 -16.57023 -7.22364 7.4324 -11.19129 45.62308 -5.05992 29.63896 -23.35277 -12.38559 -4.76107 -11.37644 -32.54467 -23.90415 -17.06655 1.05423 -9.53673 -25.50372 -28.20607 -24.92433 -12.21403 3.24113 14.3099 0.58371 30.79127 -6.31384 40.17118 -1.43944 -20.96876 -39.14514 -16.36534 -34.29852 -38.70991 7.02142 -10.6495 15.26471 -25.33933 16.04641 -24.01447 11.68885 -4.23384 21.22406 -15.98542 10.83551 -24.621057 z m 16.76326 6.947938 c -6.84664 10.6405 10.11646 3.92842 0 0 z m 149.90435 12.60002 c -8.0157 8.75485 -18.57587 -2.31403 -18.7484 5.21095 1.45275 2.27369 7.26892 18.51 20.01668 6.53436 6.84178 -2.73652 4.131 -9.63328 -1.26828 -11.74531 z m -170.66548 5.21095 c -15.20375 12.59655 25.82558 13.77369 3.22587 1.46127 l -3.22587 -1.46127 z m 200.38725 35.01538 c -10.54896 6.82273 5.45585 21.05021 0 27.76415 -6.85898 11.33758 25.49351 -0.79734 8.21618 -9.8429 -1.18408 -7.47538 -9.47218 -16.51999 -8.18857 -17.92125 l -0.0271 0 z m -7.19609 13.53743 c -15.25116 4.09064 -3.4717 25.21272 1.93004 5.32124 0.30364 -1.15323 0.72502 -5.35978 -1.93004 -5.32124 z m -122.1127 15.27442 c -14.18835 9.17844 -2.20966 18.35648 8.18867 14.22673 -2.13476 -5.53784 -8.09252 -9.04348 -8.18867 -14.22673 z m 231.62538 15.57771 c -0.96048 8.98412 20.41202 22.91959 -2.64683 18.3624 -12.19457 1.35709 -30.47177 -0.36244 -15.10897 -14.77815 4.85424 -2.76467 17.6057 9.57008 10.97329 -1.92997 2.35132 -0.14216 4.56746 -0.97751 6.78251 -1.65428 z m 33.74714 6.92036 c -2.2656 2.45343 -3.56996 5.15255 2.04022 7.91292 -0.63372 -2.65838 -1.30732 -5.29447 -2.04022 -7.91292 z m -104.19148 12.51731 c -8.89454 5.4363 6.15056 9.60481 0 0 z M 132.0125 271.79826 c -1.49951 4.74602 28.13891 9.56118 7.69231 1.95756 l -3.06035 -1.02014 -4.63196 -0.93742 z m 22.99435 6.75494 c -8.98749 8.6559 18.51689 2.58603 0 0 z" opacity="0.2" fill="#e6e6e6"/>
 <path d="M 256 27.28125 C 129.68966 27.28125 27.28125 129.68966 27.28125 256 27.28125 382.31034 129.68966 484.71875 256 484.71875 382.31034 484.71875 484.71875 382.31034 484.71875 256 484.71875 129.68966 382.31034 27.28125 256 27.28125 z m 0 27.23382 c 111.27941 0 201.48493 90.20552 201.48493 201.48493 0 111.27941 -90.20552 201.48493 -201.48493 201.48493 C 144.72059 457.48493 54.51507 367.27941 54.51507 256 54.51507 144.72059 144.72059 54.51507 256 54.51507 z" fill="#e6e6e6" fill-rule="evenodd"/>
 <path d="M 255.1875 132.34375 C 254.67172 132.66156 251.65329 144.0321 248.34375 158.25 C 244.92755 172.92653 241.67775 185.51509 241.09375 186.21875 C 240.96876 186.36935 240.70077 186.55367 240.375 186.75 C 213.98105 192.67894 193.1672 213.28362 186.9375 239.5625 C 186.92766 239.60399 186.91602 239.64598 186.90625 239.6875 C 185.79468 242.41116 184.90859 242.8678 182.375 243.53125 C 180.3541 244.06048 168.5625 246.82005 156.1875 249.65625 C 143.8125 252.49245 133.3473 255.1181 132.9375 255.5 C 132.5277 255.88191 143.5527 258.82369 157.4375 262.03125 C 171.3223 265.23881 183.60285 268.40559 184.71875 269.09375 C 185.33326 269.47268 186.08036 270.54408 186.8125 271.9375 C 192.94281 298.66381 214.1405 319.62968 241 325.40625 C 244.35321 327.61759 244.80833 330.93416 247.4375 342.03125 C 249.4535 350.54025 252.32875 362.90573 253.84375 369.5 C 255.88745 378.39569 256.8298 380.97618 257.4375 379.5 C 257.888 378.40573 260.73535 366.7 263.78125 353.5 C 266.82715 340.3 269.6942 328.65457 270.125 327.625 C 270.48569 326.76304 272.4125 325.61023 275.59375 324.25 C 298.75499 317.61554 317.06839 299.53413 324 276.5 C 324.27327 275.59189 324.51251 274.67303 324.75 273.75 C 324.51182 274.67684 324.27429 275.5885 324 276.5 C 324.97352 273.49354 326.32018 270.82809 327.09375 270.53125 C 327.89515 270.22374 340.3196 267.24483 354.6875 263.90625 C 369.0555 260.56768 380.96325 257.69086 381.15625 257.5 C 381.62545 257.03615 377.7107 256.01964 351.8125 250.03125 C 339.7125 247.23339 328.967 244.60884 327.9375 244.1875 C 327.22489 243.89587 326.31 242.54126 325.25 240.3125 C 325.24348 240.29879 325.22528 240.29503 325.21875 240.28125 C 318.98312 212.70178 296.72285 191.22354 268.71875 186.15625 C 268.47015 185.86988 268.28744 185.56453 268.15625 185.25 C 267.66165 184.06393 264.6892 171.84375 261.5625 158.09375 C 258.4358 144.34375 255.58305 132.76208 255.21875 132.34375 C 255.20737 132.33068 255.20414 132.3335 255.1875 132.34375 z M 256 185 C 257.22432 185 258.44783 185.03033 259.65625 185.09375 C 258.44611 185.03241 257.22538 185 256 185 z M 256 185 C 255.01562 185 254.03714 185.02282 253.0625 185.0625 C 254.03816 185.02138 255.01438 185 256 185 z M 251.71875 185.15625 C 250.72175 185.2156 249.73551 185.27492 248.75 185.375 C 247.87105 185.46426 246.99418 185.56647 246.125 185.6875 C 246.99674 185.56405 247.86843 185.46659 248.75 185.375 C 249.7352 185.27265 250.72198 185.21739 251.71875 185.15625 z M 256 204 C 284.71881 204 308 227.2812 308 256 C 308 284.71881 284.71881 308 256 308 C 227.28119 308 204 284.71881 204 256 C 204 227.2812 227.28119 204 256 204 z M 185.34375 249.03125 C 185.25455 249.9456 185.17918 250.85707 185.125 251.78125 C 185.18072 250.85567 185.25244 249.94693 185.34375 249.03125 z M 326.65625 249.125 C 326.7462 250.02988 326.82001 250.92915 326.875 251.84375 C 326.82222 250.92979 326.74328 250.02937 326.65625 249.125 z M 185.09375 252.65625 C 185.04239 253.76427 185 254.87928 185 256 C 185 257.04745 185.04885 258.08861 185.09375 259.125 C 185.04822 258.09251 185 257.04353 185 256 C 185 254.88078 185.04098 253.76268 185.09375 252.65625 z M 326.9375 253 C 326.98055 253.99199 327 254.99758 327 256 C 327 254.99468 326.97888 253.99515 326.9375 253 z M 185.125 260.09375 C 185.18416 261.13404 185.27152 262.15967 185.375 263.1875 C 185.26948 262.15519 185.18542 261.13866 185.125 260.09375 z M 326.875 260.1875 C 326.81534 261.21203 326.72759 262.2374 326.625 263.25 C 326.53946 264.09434 326.42733 264.94585 326.3125 265.78125 C 326.4282 264.94233 326.53888 264.09801 326.625 263.25 C 326.72831 262.23274 326.8151 261.21699 326.875 260.1875 z M 326 267.84375 C 325.89425 268.4744 325.77849 269.09388 325.65625 269.71875 C 325.77792 269.09739 325.89465 268.4708 326 267.84375 z M 248.75 326.625 C 249.88152 326.73991 251.00965 326.84511 252.15625 326.90625 C 251.01124 326.84477 249.87999 326.74028 248.75 326.625 z M 252.34375 326.90625 C 253.55389 326.96759 254.77462 327 256 327 C 257.16258 327 258.31985 326.9615 259.46875 326.90625 C 258.3182 326.96227 257.16409 327 256 327 C 254.77668 327 253.55191 326.96793 252.34375 326.90625 z" fill="#fff8eb"/>
 <path d="m 238.3273 238.95087 c 37.4349 -30.22881 -0.097 -0.0342 37.3577 -30.13489 99.7771 -81.56667 0.4382 0.0878 99.865 -81.8488 -88.8409 125.69619 -61.9651 88.40424 -89.231 126.48369 -7.2717 10.175 -13.7825 18.5 -14.4683 18.5 -33.6372 -32.76029 -0.1041 -0.1214 -33.5234 -33 z" fill="#d04742"/>
 <path d="m 273.01 271.24637 c -37.0324 30.72064 0.097 0.0329 -36.9564 30.62571 -98.691 82.87747 -0.4393 -0.082 -98.7752 83.16074 87.1729 -126.85869 60.792 -89.215 87.5526 -127.65128 7.1366 -10.27016 13.5369 -18.68043 14.2226 -18.68949 34.067 32.31313 0.1057 0.12001 33.9564 32.55432 z" fill="#e6e6e6"/>
</svg>
