<?xml version="1.0" encoding="UTF-8" standalone="no"?>
<!-- Created with Inkscape (http://www.inkscape.org/) -->

<svg
   xmlns:dc="http://purl.org/dc/elements/1.1/"
   xmlns:cc="http://creativecommons.org/ns#"
   xmlns:rdf="http://www.w3.org/1999/02/22-rdf-syntax-ns#"
   xmlns:svg="http://www.w3.org/2000/svg"
   xmlns="http://www.w3.org/2000/svg"
   xmlns:sodipodi="http://sodipodi.sourceforge.net/DTD/sodipodi-0.dtd"
   xmlns:inkscape="http://www.inkscape.org/namespaces/inkscape"
   width="512"
   height="512"
   id="svg2"
   version="1.1"
   inkscape:version="0.48.4 r9939"
   sodipodi:docname="midori.svg">
  <defs
     id="defs4" />
  <sodipodi:namedview
     id="base"
     pagecolor="#ffffff"
     bordercolor="#666666"
     borderopacity="1.0"
     inkscape:pageopacity="0.0"
     inkscape:pageshadow="2"
     inkscape:zoom="0.7"
     inkscape:cx="276.58096"
     inkscape:cy="270.65125"
     inkscape:document-units="px"
     inkscape:current-layer="layer1"
     showgrid="false"
     inkscape:window-width="1309"
     inkscape:window-height="750"
     inkscape:window-x="55"
     inkscape:window-y="-3"
     inkscape:window-maximized="1" />
  <metadata
     id="metadata7">
    <rdf:RDF>
      <cc:Work
         rdf:about="">
        <dc:format>image/svg+xml</dc:format>
        <dc:type
           rdf:resource="http://purl.org/dc/dcmitype/StillImage" />
        <dc:title></dc:title>
      </cc:Work>
    </rdf:RDF>
  </metadata>
  <g
     inkscape:label="Layer 1"
     inkscape:groupmode="layer"
     id="layer1"
     transform="translate(0,-540.36218)">
    <path
       sodipodi:type="arc"
       style="fill:#49a026;fill-opacity:1;stroke:#fff8eb;stroke-width:18.25692748999999893;stroke-linecap:round;stroke-linejoin:round;stroke-miterlimit:4;stroke-opacity:1;stroke-dasharray:none;stroke-dashoffset:200"
       id="path12995"
       sodipodi:cx="-400"
       sodipodi:cy="237.71428"
       sodipodi:rx="128.57143"
       sodipodi:ry="157.14285"
       d="m -271.42857,237.71428 a 128.57143,157.14285 0 1 1 -257.14286,0 128.57143,157.14285 0 1 1 257.14286,0 z"
       transform="matrix(1.8271056,0,0,1.4949046,986.84224,441.00201)" />
    <path
       style="fill:#fff8eb;fill-opacity:1;stroke:#fff8eb;stroke-width:0.97464186"
       inkscape:connector-curvature="0"
       d="m 255.62485,575.17967 c -22.17502,0 -43.58101,3.24087 -63.78277,9.26317 2.25485,10.82399 -0.15682,22.26239 10.70737,22.11122 7.01669,9.35168 -13.98042,2.7725 1.18336,9.98017 8.71998,6.47395 -9.21169,10.19292 1.58732,16.00267 -12.44616,6.05431 2.01139,31.67516 11.25577,38.0852 15.21533,12.07506 6.74635,-25.57349 23.72373,-27.53146 9.22526,-9.92833 25.40642,-16.31069 36.91324,-26.2983 -11.24554,-0.86063 -17.83646,-7.47 -7.18643,-11.55749 19.60108,18.93448 4.93379,-8.94647 -5.91646,-13.36424 10.49894,-3.14838 20.70704,-0.86668 19.25022,-9.03375 3.44808,-2.37806 3.71721,-4.24113 2.22234,-5.64969 -9.79831,-1.31564 -19.79642,-2.0075 -29.95769,-2.0075 z m -108.19986,27.99032 c -6.47207,3.60384 -12.73826,7.51976 -18.78845,11.72957 5.70995,0.22677 9.91986,1.48666 13.27605,9.66468 15.00124,8.15029 1.31531,21.98189 -5.22389,26.72847 10.93669,-6.09085 30.10509,24.07329 24.87817,7.34173 -6.43698,-4.43071 17.29932,7.11526 4.993,-7.28437 -11.32525,-17.20092 0.88198,-7.68544 5.65675,-3.67087 16.23963,-13.72783 -18.36668,-15.41141 -9.7262,-29.53897 -4.22506,-3.226 -9.1764,-10.11473 -15.06543,-14.97024 z m -10.73629,48.12272 c -0.3528,0.19649 -0.67548,0.41359 -1.01008,0.68829 0.31336,-0.20523 0.6462,-0.42415 1.01008,-0.68829 z m 60.08856,-36.4792 c -8.46175,6.6465 16.08716,7.89823 0,0 z m 191.63691,4.27312 c -10.92412,9.04507 -17.70355,22.54023 -25.54191,34.35699 -16.8706,7.1705 -16.25036,37.94024 2.59748,28.10502 5.04454,8.30556 -3.52428,21.38504 11.16916,10.52508 11.85174,-14.78524 2.08325,-38.68499 22.25185,-48.00801 1.4691,7.24914 -18.60188,34.33228 4.84864,29.88311 21.19967,0.75406 -15.39033,1.97508 -5.07952,14.74081 -10.71265,-5.99184 -5.15167,16.35854 -19.13487,11.15598 -12.11404,6.21184 -20.06278,-2.88354 -17.28768,-12.84802 -9.52977,5.24088 2.97835,20.04678 -13.56467,20.93539 -3.70575,12.40511 -34.18471,10.51191 -16.85481,23.14364 7.69401,18.7979 -28.64995,1.18777 -18.32676,23.7459 8.83201,22.30655 27.32575,-7.36841 34.83524,-13.10614 14.03604,-10.26378 34.62163,16.28838 24.04115,18.92789 13.32048,-2.37108 10.18871,-14.9353 -1.21216,-19.87428 -6.32633,-15.46743 20.01918,7.61676 18.55765,15.37174 9.29804,16.41354 5.48811,-16.82901 14.94999,-2.12223 -1.10476,15.51353 38.06548,3.65866 19.36566,23.43044 -16.07753,3.05272 -31.93187,-3.88431 -45.7735,0.57358 -12.88289,-0.10758 -12.19327,-13.09736 -16.88362,-16.34682 -16.38723,1.25506 -36.67885,1.1137 -47.64954,13.59366 -11.86337,15.34413 -28.94816,36.78958 -16.0178,56.38216 12.93942,29.03395 45.02018,1.49431 63.46526,18.6411 5.48257,7.14945 -4.75482,15.65759 7.50386,23.40176 4.61286,16.49645 -5.2395,32.15239 6.08971,47.92196 5.85826,14.83045 9.5099,37.03958 31.31411,23.4878 23.07678,-13.09142 16.91948,-37.22216 35.96079,-50.58909 -15.06654,-27.48778 18.45385,-39.51603 26.81191,-61.8311 -18.26074,2.52019 -34.55044,-14.67328 -38.96233,-31.94797 -7.67112,-8.39071 -5.6829,-20.75271 2.88608,-4.99008 11.77796,10.75871 12.03776,42.66374 33.82508,26.24094 2.46901,-0.97355 5.9981,-2.60682 9.58184,-4.64595 0.63864,-6.42362 0.99679,-12.92765 1.06782,-19.50145 -12.20963,-0.0283 -22.18149,-27.51281 -4.04054,-8.00134 1.3771,0.55078 2.71533,1.05515 4.01172,1.54864 -0.18748,-10.32704 -1.05543,-20.49489 -2.6264,-30.42801 -1.75041,2.74181 -5.35826,2.9643 -10.7651,-2.63843 2.17137,-13.52188 -14.40084,-23.83807 3.40561,-28.67862 -14.03873,-44.63442 -42.00599,-83.14128 -78.8194,-110.55606 z m -267.33922,1.31922 c -1.47583,1.12186 -2.94058,2.25519 -4.38686,3.41275 -2.34442,5.71944 -6.6504,11.2394 -8.10997,6.8255 -41.42526,36.52594 -68.977291,88.23012 -73.826396,146.347 5.810517,10.00367 16.241387,27.09792 16.825991,20.3618 -7.765305,-7.66602 -15.766031,-30.66472 -2.626394,-10.1809 11.769279,19.47136 27.660827,32.10379 50.85304,36.73729 12.679999,4.06596 23.107179,18.04544 34.258039,14.97024 6.30536,15.66944 -18.68805,30.72582 0.83693,45.34088 10.19305,14.79559 27.33194,24.51162 18.06695,45.28355 -5.96539,18.67844 -4.12539,38.85887 -8.16759,56.69755 5.72111,3.28855 11.60442,6.33973 17.63401,9.11987 2.82958,-12.27242 5.24669,-24.3053 14.80572,-32.83701 17.64215,0.13176 3.38334,-17.89715 20.89536,-15.54382 10.68586,-13.20393 13.77145,-28.97052 31.8048,-34.2136 2.15409,-16.02755 29.99122,-40.56328 1.24098,-46.80348 -7.8139,-3.63068 -27.9453,-4.91931 -26.40776,-6.7108 3.11505,-15.90358 -25.99049,-20.45126 -38.38509,-26.95791 -16.27363,-10.88934 -40.73269,18.0872 -46.46619,-6.88284 -3.42112,-7.85642 -15.93661,-7.95228 -10.18798,-20.07505 -10.360108,9.71344 -30.61627,6.74228 -25.311022,-12.01633 8.056876,-15.79841 39.000462,-16.56492 44.272732,2.43769 -7.32033,-20.95761 14.14263,-37.28498 26.06143,-52.1951 2.4269,-7.12666 16.85296,-13.22856 11.89072,-3.7569 8.454,-0.28766 21.25193,-14.66786 6.23397,-8.03001 -0.21252,-13.11565 -13.14768,-9.3761 -17.34541,-7.5138 7.78011,-11.64081 47.7574,-5.26316 31.02552,-24.29078 -12.96501,-4.9523 -11.90864,-33.8519 -25.02242,-17.75206 1.10355,-9.9198 -26.69683,-29.33904 -26.09034,-12.70463 3.39277,14.88468 0.61103,32.02806 -6.6092,41.78474 -1.50678,-21.81103 -40.976409,-17.0227 -35.903061,-40.26477 7.349891,-11.07728 15.978811,-26.35714 16.797081,-24.97908 12.23567,-4.4039 22.21696,-16.62751 11.34241,-25.61 z m 17.54748,7.227 c -7.16693,11.0679 10.58971,4.08621 0,0 z m 156.9171,13.10613 c -8.39072,9.1065 -19.44489,-2.40698 -19.62545,5.42026 1.52072,2.36502 7.60895,19.25349 20.95306,6.79683 7.16188,-2.84645 4.32426,-10.02024 -1.32761,-12.21709 z m -178.64945,5.42025 c -15.91501,13.10253 27.03373,14.32694 3.37676,1.51997 l -3.37676,-1.51997 z m 209.76159,36.42184 c -11.04243,7.09679 5.71116,21.89575 0,28.87937 -7.17987,11.79297 26.68621,-0.82937 8.60058,-10.23827 -1.2395,-7.77564 -9.91534,-17.18355 -8.57167,-18.6411 l -0.0286,0 z m -7.53266,14.08119 c -15.9647,4.25496 -3.63418,26.22545 2.02026,5.53498 0.31789,-1.19955 0.75898,-5.57506 -2.02026,-5.53498 z m -127.82533,15.88796 c -14.85209,9.5471 -2.31303,19.09381 8.57176,14.79817 -2.23462,-5.76026 -8.4711,-9.40671 -8.57176,-14.79817 z m 242.46113,16.20342 c -1.00546,9.34498 21.36692,23.84021 -2.77065,19.09996 -12.76504,1.4116 -31.89724,-0.377 -15.81581,-15.37173 5.08138,-2.87573 18.42938,9.95447 11.48667,-2.00751 2.46136,-0.14787 4.78114,-1.01678 7.09979,-1.72072 z m 35.32585,7.19833 c -2.37158,2.55198 -3.73696,5.35952 2.1357,8.23076 -0.66338,-2.76516 -1.3685,-5.50713 -2.1357,-8.23076 z m -109.06568,13.0201 c -9.3106,5.65466 6.43825,9.99061 0,0 z m -233.80277,52.71129 c -1.56968,4.93666 29.45529,9.94522 8.05216,2.03619 l -3.20352,-1.06112 -4.84864,-0.97506 z m 24.07006,7.02626 c -9.40793,9.00358 19.38313,2.68991 0,0 z"
       id="path13771" />
  </g>
</svg>
