<svg xmlns="http://www.w3.org/2000/svg" width="512" height="512">
 <g transform="translate(0,-540.36218)">
  <path d="m 562.85715 -316.57144 c 0 198.82251 -161.17749 360 -360 360 -198.82251 0 -360 -161.17749 -360 -360 0 -198.82251 161.17749 -360 360 -360 198.82251 0 360 161.17749 360 360 z" transform="matrix(0.69444444,0,0,0.69444444,115.12698,1016.2035)" fill="#282629" fill-rule="evenodd"/>
  <g transform="matrix(2.0023805,-0.53653624,0.53653624,2.0023805,-678.80718,-655.81655)" fill="#fff8eb">
   <rect y="761.37042" x="187.39189" height="52.15534" width="63.61238" rx="8.630852"/>
   <rect width="63.61238" height="40.36962" x="179.89189" y="767.26324" rx="6.68051"/>
   <path d="m 245.80636 759.22669 59.00456 -26.76905 c 6.64166 -3.01317 13.16464 6.48977 13.16464 14.55107 l 0 83.34866 c 0 8.0613 -6.61002 17.74918 -13.16464 14.55107 l -59.00456 -28.78935 c -6.55463 -3.19811 -13.16465 -6.48977 -13.16465 -14.55107 l 0 -27.79026 c 0 -8.0613 6.52298 -11.5379 13.16465 -14.55107 z"/>
   <ellipse ry="12.2481" rx="11.639733" cy="789.09973" cx="316.71838"/>
   <rect ry="13.01836" y="790.27484" x="208.72136" height="57.644684" width="24.24137" rx="12.12069"/>
  </g>
  <path d="m 256 563.50504 c -128.60345 0 -232.85714 104.25369 -232.85714 232.85714 0 128.60345 104.25369 232.85712 232.85714 232.85712 128.60345 0 232.85714 -104.25367 232.85714 -232.85712 C 488.85714 667.75873 384.60345 563.50504 256 563.50504 z m 0 27.27339 c 113.53847 0 205.58375 92.04528 205.58375 205.58375 0 113.53847 -92.04528 205.58372 -205.58375 205.58372 -113.53847 0 -205.58375 -92.04525 -205.58375 -205.58372 0 -113.53847 92.04528 -205.58375 205.58375 -205.58375 z" fill="#fff8eb" fill-rule="evenodd"/>
 </g>
</svg>
