<svg xmlns="http://www.w3.org/2000/svg" xmlns:xlink="http://www.w3.org/1999/xlink" width="512" height="512">
 <defs>
  <linearGradient y2="7.01654" x2="0" y1="92.5396" gradientTransform="scale(1.0058652,0.994169)" gradientUnits="userSpaceOnUse" xlink:href="#1"/>
  <filter x="-0.192" y="-0.192" width="1.384" height="1.384" color-interpolation-filters="sRGB">
   <feGaussianBlur stdDeviation="5.28"/>
  </filter>
  <clipPath>
   <rect width="84" height="84" rx="6" x="6" y="6" fill="#fff"/>
  </clipPath>
  <linearGradient id="0">
   <stop stop-color="#fff"/>
   <stop offset="1" stop-color="#fff" stop-opacity="0"/>
  </linearGradient>
  <linearGradient y1="20.220806" x2="0" y2="138.66119" xlink:href="#0" gradientUnits="userSpaceOnUse"/>
  <filter color-interpolation-filters="sRGB">
   <feGaussianBlur stdDeviation="1.71"/>
  </filter>
  <linearGradient y1="92.5396" x2="0" y2="7.01654" id="1" gradientUnits="userSpaceOnUse" gradientTransform="scale(1.0058652,0.994169)">
   <stop/>
   <stop offset="1" stop-opacity="0.588235"/>
  </linearGradient>
  <linearGradient gradientUnits="userSpaceOnUse" xlink:href="#0" y2="138.66119" x2="0" y1="20.220806"/>
  <clipPath>
   <rect y="6" x="6" rx="6" height="84" width="84" fill="#fff"/>
  </clipPath>
  <linearGradient xlink:href="#1" gradientUnits="userSpaceOnUse" gradientTransform="scale(1.0058652,0.994169)" y1="92.5396" x2="0" y2="7.01654"/>
  <path id="2" d="m 911.91522 301.50946 c 0 5.36971 -4.35301 9.72272 -9.72272 9.72272 -5.3697 0 -9.72271 -4.35301 -9.72271 -9.72272 0 -5.36971 4.35301 -9.72272 9.72271 -9.72272 5.36971 0 9.72272 4.35301 9.72272 9.72272 z" fill-rule="evenodd"/>
 </defs>
 <g transform="translate(0,-540.36217)">
  <path d="m 256 546.36217 c -91.41816 0 -171.34469 49.09463 -214.94141 122.33072 C 18.81007 706.06715 6 749.70913 6 796.36215 c 0 138.07117 111.92881 250.00005 250 250.00005 138.07119 0 250 -111.92888 250 -250.00005 0 -46.65302 -12.81007 -90.295 -35.05859 -127.66926 C 427.34469 595.4568 347.41816 546.36217 256 546.36217 z" fill="#6ea6c1" fill-rule="evenodd"/>
  <text y="1089.8812" x="-1160.4812" font-family="Gentium Book Basic" word-spacing="0" line-height="125%" letter-spacing="0" font-size="208.33333"><tspan y="1089.8812" x="-1160.4812"/>
  </text>
  <text transform="scale(4.0128362,0.2492003)" font-size="75.69771" y="3810.6255" x="28.533577" font-family="Arial" text-anchor="middle"/>
  <text y="1535.7899" x="-602.29822" font-family="Gentium Book Basic" word-spacing="0" line-height="125%" letter-spacing="0" font-size="208.33333"><tspan y="1535.7899" x="-602.29822"/>
  </text>
  <text transform="scale(4.0128362,0.2492003)" font-size="75.69771" y="5599.9839" x="167.63293" font-family="Arial" text-anchor="middle"/>
  <text x="1486.3972" y="1298.2709" font-family="Sans" word-spacing="0" line-height="125%" letter-spacing="0" font-size="40"><tspan x="1486.3972" y="1298.2709" font-style="italic" font-weight="bold"/>
  </text>
  <path d="M 256 6 C 241.34512 6 226.99318 7.267028 213.03125 9.6875 L 223.46875 9.6875 L 223.46875 58.4375 L 174.71875 58.4375 L 174.71875 19.53125 C 172.61998 20.252846 170.54183 20.97449 168.46875 21.75 L 168.46875 58.4375 L 119.71875 58.4375 L 119.71875 46.40625 C 117.60668 47.783014 115.53599 49.18675 113.46875 50.625 L 113.46875 58.4375 L 102.84375 58.4375 C 100.22033 60.4754 97.63237 62.54888 95.09375 64.6875 L 113.46875 64.6875 L 113.46875 113.4375 L 64.71875 113.4375 L 64.71875 95.09375 C 62.58715 97.62561 60.50027 100.19635 58.46875 102.8125 L 58.46875 113.4375 L 50.65625 113.4375 C 49.22503 115.49545 47.839109 117.58516 46.46875 119.6875 L 58.46875 119.6875 L 58.46875 168.4375 L 21.78125 168.4375 C 21.00522 170.5095 20.284706 172.58987 19.5625 174.6875 L 58.46875 174.6875 L 58.46875 223.4375 L 9.71875 223.4375 L 9.71875 212.90625 C 7.280685 226.90619 6 241.30032 6 256 C 6 270.70929 7.2818 285.11284 9.71875 299.125 L 9.71875 284.6875 L 58.46875 284.6875 L 58.46875 333.4375 L 18.25 333.4375 C 18.930937 335.52956 19.609535 337.62007 20.34375 339.6875 L 58.46875 339.6875 L 58.46875 388.4375 L 43.9375 388.4375 C 45.25278 390.53898 46.593346 392.62854 47.96875 394.6875 L 58.46875 394.6875 L 58.46875 409.25 C 60.49446 411.85716 62.59354 414.41415 64.71875 416.9375 L 64.71875 394.6875 L 113.46875 394.6875 L 113.46875 443.4375 L 90.59375 443.4375 C 93.00572 445.56769 95.44404 447.65033 97.9375 449.6875 L 113.46875 449.6875 L 113.46875 461.40625 C 115.5312 462.8401 117.6117 464.25232 119.71875 465.625 L 119.71875 449.6875 L 168.46875 449.6875 L 168.46875 490.25 C 170.54062 491.02453 172.62125 491.77929 174.71875 492.5 L 174.71875 449.6875 L 223.46875 449.6875 L 223.46875 498.4375 L 194.8125 498.4375 C 206.30228 501.32856 218.09642 503.44899 230.15625 504.6875 L 278.46875 504.6875 L 278.46875 505 C 291.70331 503.8213 304.62726 501.59791 317.1875 498.4375 L 284.71875 498.4375 L 284.71875 449.6875 L 333.46875 449.6875 L 333.46875 493.75 C 335.56392 493.06777 337.64829 492.36066 339.71875 491.625 L 339.71875 449.6875 L 388.46875 449.6875 L 388.46875 468.03125 C 390.57008 466.71556 392.65995 465.37581 394.71875 464 L 394.71875 449.6875 L 414.0625 449.6875 C 416.55596 447.65033 418.99428 445.56769 421.40625 443.4375 L 394.71875 443.4375 L 394.71875 394.6875 L 443.46875 394.6875 L 443.46875 421.375 C 445.59845 418.96274 447.68207 416.52499 449.71875 414.03125 L 449.71875 394.6875 L 464.03125 394.6875 C 465.40665 392.62854 466.74722 390.53898 468.0625 388.4375 L 449.71875 388.4375 L 449.71875 339.6875 L 491.65625 339.6875 C 492.39047 337.62007 493.06906 335.52956 493.75 333.4375 L 449.71875 333.4375 L 449.71875 284.6875 L 498.46875 284.6875 L 498.46875 317.0625 C 501.61483 304.53167 503.82591 291.6389 505 278.4375 L 504.71875 278.4375 L 504.71875 230.75 C 503.48994 218.52673 501.39636 206.57562 498.46875 194.9375 L 498.46875 223.4375 L 449.71875 223.4375 L 449.71875 174.6875 L 492.4375 174.6875 C 491.71529 172.58987 490.99478 170.5095 490.21875 168.4375 L 449.71875 168.4375 L 449.71875 119.6875 L 465.53125 119.6875 C 464.16089 117.58516 462.77497 115.49545 461.34375 113.4375 L 449.71875 113.4375 L 449.71875 98.03125 C 447.6811 95.53499 445.59952 93.07097 443.46875 90.65625 L 443.46875 113.4375 L 394.71875 113.4375 L 394.71875 64.6875 L 416.90625 64.6875 C 414.36763 62.54888 411.77967 60.4754 409.15625 58.4375 L 394.71875 58.4375 L 394.71875 48 C 392.65398 46.619438 390.57631 45.25757 388.46875 43.9375 L 388.46875 58.4375 L 339.71875 58.4375 L 339.71875 20.375 C 337.65253 19.640427 335.55961 18.900073 333.46875 18.21875 L 333.46875 58.4375 L 284.71875 58.4375 L 284.71875 9.6875 L 298.96875 9.6875 C 285.00682 7.267028 270.65488 6 256 6 z M 229.71875 9.6875 L 278.46875 9.6875 L 278.46875 58.4375 L 229.71875 58.4375 L 229.71875 9.6875 z M 119.71875 64.6875 L 168.46875 64.6875 L 168.46875 113.4375 L 119.71875 113.4375 L 119.71875 64.6875 z M 174.71875 64.6875 L 223.46875 64.6875 L 223.46875 113.4375 L 174.71875 113.4375 L 174.71875 64.6875 z M 229.71875 64.6875 L 278.46875 64.6875 L 278.46875 113.4375 L 229.71875 113.4375 L 229.71875 64.6875 z M 284.71875 64.6875 L 333.46875 64.6875 L 333.46875 113.4375 L 284.71875 113.4375 L 284.71875 64.6875 z M 339.71875 64.6875 L 388.46875 64.6875 L 388.46875 113.4375 L 339.71875 113.4375 L 339.71875 64.6875 z M 64.71875 119.6875 L 113.46875 119.6875 L 113.46875 168.4375 L 64.71875 168.4375 L 64.71875 119.6875 z M 119.71875 119.6875 L 168.46875 119.6875 L 168.46875 168.4375 L 119.71875 168.4375 L 119.71875 119.6875 z M 174.71875 119.6875 L 223.46875 119.6875 L 223.46875 168.4375 L 174.71875 168.4375 L 174.71875 119.6875 z M 229.71875 119.6875 L 278.46875 119.6875 L 278.46875 168.4375 L 229.71875 168.4375 L 229.71875 119.6875 z M 284.71875 119.6875 L 333.46875 119.6875 L 333.46875 168.4375 L 284.71875 168.4375 L 284.71875 119.6875 z M 339.71875 119.6875 L 388.46875 119.6875 L 388.46875 168.4375 L 339.71875 168.4375 L 339.71875 119.6875 z M 394.71875 119.6875 L 443.46875 119.6875 L 443.46875 168.4375 L 394.71875 168.4375 L 394.71875 119.6875 z M 64.71875 174.6875 L 113.46875 174.6875 L 113.46875 223.4375 L 64.71875 223.4375 L 64.71875 174.6875 z M 119.71875 174.6875 L 168.46875 174.6875 L 168.46875 223.4375 L 119.71875 223.4375 L 119.71875 174.6875 z M 174.71875 174.6875 L 223.46875 174.6875 L 223.46875 223.4375 L 174.71875 223.4375 L 174.71875 174.6875 z M 229.71875 174.6875 L 278.46875 174.6875 L 278.46875 223.4375 L 229.71875 223.4375 L 229.71875 174.6875 z M 284.71875 174.6875 L 333.46875 174.6875 L 333.46875 223.4375 L 284.71875 223.4375 L 284.71875 174.6875 z M 339.71875 174.6875 L 388.46875 174.6875 L 388.46875 223.4375 L 339.71875 223.4375 L 339.71875 174.6875 z M 394.71875 174.6875 L 443.46875 174.6875 L 443.46875 223.4375 L 394.71875 223.4375 L 394.71875 174.6875 z M 9.71875 229.6875 L 58.46875 229.6875 L 58.46875 278.4375 L 9.71875 278.4375 L 9.71875 229.6875 z M 64.71875 229.6875 L 113.46875 229.6875 L 113.46875 278.4375 L 64.71875 278.4375 L 64.71875 229.6875 z M 119.71875 229.6875 L 168.46875 229.6875 L 168.46875 278.4375 L 119.71875 278.4375 L 119.71875 229.6875 z M 174.71875 229.6875 L 223.46875 229.6875 L 223.46875 278.4375 L 174.71875 278.4375 L 174.71875 229.6875 z M 229.71875 229.6875 L 278.46875 229.6875 L 278.46875 278.4375 L 229.71875 278.4375 L 229.71875 229.6875 z M 284.71875 229.6875 L 333.46875 229.6875 L 333.46875 278.4375 L 284.71875 278.4375 L 284.71875 229.6875 z M 339.71875 229.6875 L 388.46875 229.6875 L 388.46875 278.4375 L 339.71875 278.4375 L 339.71875 229.6875 z M 394.71875 229.6875 L 443.46875 229.6875 L 443.46875 278.4375 L 394.71875 278.4375 L 394.71875 229.6875 z M 449.71875 229.6875 L 498.46875 229.6875 L 498.46875 278.4375 L 449.71875 278.4375 L 449.71875 229.6875 z M 64.71875 284.6875 L 113.46875 284.6875 L 113.46875 333.4375 L 64.71875 333.4375 L 64.71875 284.6875 z M 119.71875 284.6875 L 168.46875 284.6875 L 168.46875 333.4375 L 119.71875 333.4375 L 119.71875 284.6875 z M 174.71875 284.6875 L 223.46875 284.6875 L 223.46875 333.4375 L 174.71875 333.4375 L 174.71875 284.6875 z M 229.71875 284.6875 L 278.46875 284.6875 L 278.46875 333.4375 L 229.71875 333.4375 L 229.71875 284.6875 z M 284.71875 284.6875 L 333.46875 284.6875 L 333.46875 333.4375 L 284.71875 333.4375 L 284.71875 284.6875 z M 339.71875 284.6875 L 388.46875 284.6875 L 388.46875 333.4375 L 339.71875 333.4375 L 339.71875 284.6875 z M 394.71875 284.6875 L 443.46875 284.6875 L 443.46875 333.4375 L 394.71875 333.4375 L 394.71875 284.6875 z M 64.71875 339.6875 L 113.46875 339.6875 L 113.46875 388.4375 L 64.71875 388.4375 L 64.71875 339.6875 z M 119.71875 339.6875 L 168.46875 339.6875 L 168.46875 388.4375 L 119.71875 388.4375 L 119.71875 339.6875 z M 174.71875 339.6875 L 223.46875 339.6875 L 223.46875 388.4375 L 174.71875 388.4375 L 174.71875 339.6875 z M 229.71875 339.6875 L 278.46875 339.6875 L 278.46875 388.4375 L 229.71875 388.4375 L 229.71875 339.6875 z M 284.71875 339.6875 L 333.46875 339.6875 L 333.46875 388.4375 L 284.71875 388.4375 L 284.71875 339.6875 z M 339.71875 339.6875 L 388.46875 339.6875 L 388.46875 388.4375 L 339.71875 388.4375 L 339.71875 339.6875 z M 394.71875 339.6875 L 443.46875 339.6875 L 443.46875 388.4375 L 394.71875 388.4375 L 394.71875 339.6875 z M 119.71875 394.6875 L 168.46875 394.6875 L 168.46875 443.4375 L 119.71875 443.4375 L 119.71875 394.6875 z M 174.71875 394.6875 L 223.46875 394.6875 L 223.46875 443.4375 L 174.71875 443.4375 L 174.71875 394.6875 z M 229.71875 394.6875 L 278.46875 394.6875 L 278.46875 443.4375 L 229.71875 443.4375 L 229.71875 394.6875 z M 284.71875 394.6875 L 333.46875 394.6875 L 333.46875 443.4375 L 284.71875 443.4375 L 284.71875 394.6875 z M 339.71875 394.6875 L 388.46875 394.6875 L 388.46875 443.4375 L 339.71875 443.4375 L 339.71875 394.6875 z M 229.71875 449.6875 L 278.46875 449.6875 L 278.46875 498.4375 L 229.71875 498.4375 L 229.71875 449.6875 z" transform="translate(0,540.36217)" color="#000" fill="#99c1c3"/>
  <g transform="matrix(0.88014039,0,0,0.88014039,-458.36434,-298.72794)" fill="#fff8eb">
   <g>
    <use transform="matrix(4.8063102,0,0,4.8063102,-3624.0335,-300.64479)" xlink:href="#2"/>
    <use transform="matrix(4.8063102,0,0,4.8063102,-3679.7505,-200.59383)" xlink:href="#2"/>
    <use transform="matrix(4.8063102,0,0,4.8063102,-3640.2094,-92.75445)" xlink:href="#2"/>
    <use transform="matrix(4.8063102,0,0,4.8063102,-3532.9691,-42.42941)" xlink:href="#2"/>
    <use transform="matrix(4.8063102,0,0,4.8063102,-3422.7333,-84.36693)" xlink:href="#2"/>
   </g>
   <path d="m 897.3089 1073.95 -81.99442 105.7176 0 -105.5693 -68.64956 0 0 274.599 68.64956 0 0 -119.6552 81.25283 119.0621 83.03209 0 -97.4142 -142.7856 102.15889 -131.3686 -87.03519 0 z" fill-rule="evenodd"/>
  </g>
 </g>
</svg>
