<?xml version="1.0" encoding="UTF-8" standalone="no"?>
<!-- Created with Inkscape (http://www.inkscape.org/) -->

<svg
   xmlns:dc="http://purl.org/dc/elements/1.1/"
   xmlns:cc="http://creativecommons.org/ns#"
   xmlns:rdf="http://www.w3.org/1999/02/22-rdf-syntax-ns#"
   xmlns:svg="http://www.w3.org/2000/svg"
   xmlns="http://www.w3.org/2000/svg"
   xmlns:xlink="http://www.w3.org/1999/xlink"
   xmlns:sodipodi="http://sodipodi.sourceforge.net/DTD/sodipodi-0.dtd"
   xmlns:inkscape="http://www.inkscape.org/namespaces/inkscape"
   width="512"
   height="512"
   id="svg2"
   version="1.1"
   inkscape:version="0.48.4 r9939"
   sodipodi:docname="quodlibet.svg">
  <defs
     id="defs4">
    <linearGradient
       y2="138.66119"
       x2="48"
       y1="20.220806"
       x1="48"
       gradientUnits="userSpaceOnUse"
       id="linearGradient3105"
       xlink:href="#linearGradient3737"
       inkscape:collect="always" />
    <filter
       id="filter3794"
       color-interpolation-filters="sRGB"
       height="1.3839999"
       width="1.3839999"
       y="-0.192"
       x="-0.192">
      <feGaussianBlur
         stdDeviation="5.28"
         id="feGaussianBlur3796" />
    </filter>
    <filter
       id="filter3174"
       color-interpolation-filters="sRGB">
      <feGaussianBlur
         stdDeviation="1.71"
         id="feGaussianBlur3176" />
    </filter>
    <linearGradient
       id="linearGradient3737">
      <stop
         offset="0"
         style="stop-color:#ffffff;stop-opacity:1"
         id="stop3739" />
      <stop
         offset="1"
         style="stop-color:#ffffff;stop-opacity:0"
         id="stop3741" />
    </linearGradient>
    <linearGradient
       gradientTransform="scale(1.0058652,0.994169)"
       gradientUnits="userSpaceOnUse"
       id="ButtonShadow"
       y2="7.0165396"
       x2="45.447727"
       y1="92.539597"
       x1="45.447727">
      <stop
         offset="0"
         style="stop-color:#000000;stop-opacity:1"
         id="stop3750" />
      <stop
         offset="1"
         style="stop-color:#000000;stop-opacity:0.58823532"
         id="stop3752" />
    </linearGradient>
    <linearGradient
       inkscape:collect="always"
       xlink:href="#linearGradient3737"
       id="linearGradient3367"
       gradientUnits="userSpaceOnUse"
       x1="48"
       y1="20.220806"
       x2="48"
       y2="138.66119" />
    <linearGradient
       inkscape:collect="always"
       xlink:href="#ButtonShadow"
       id="linearGradient3381"
       gradientUnits="userSpaceOnUse"
       gradientTransform="scale(1.0058652,0.994169)"
       x1="45.447727"
       y1="92.539597"
       x2="45.447727"
       y2="7.0165396" />
    <linearGradient
       inkscape:collect="always"
       xlink:href="#linearGradient3737"
       id="linearGradient3384"
       gradientUnits="userSpaceOnUse"
       x1="48"
       y1="20.220806"
       x2="48"
       y2="138.66119" />
  </defs>
  <sodipodi:namedview
     id="base"
     pagecolor="#ffffff"
     bordercolor="#666666"
     borderopacity="1.0"
     inkscape:pageopacity="0.0"
     inkscape:pageshadow="2"
     inkscape:zoom="1.4"
     inkscape:cx="298.63828"
     inkscape:cy="236.45926"
     inkscape:document-units="px"
     inkscape:current-layer="layer1"
     showgrid="false"
     inkscape:window-width="1309"
     inkscape:window-height="750"
     inkscape:window-x="55"
     inkscape:window-y="-3"
     inkscape:window-maximized="1" />
  <metadata
     id="metadata7">
    <rdf:RDF>
      <cc:Work
         rdf:about="">
        <dc:format>image/svg+xml</dc:format>
        <dc:type
           rdf:resource="http://purl.org/dc/dcmitype/StillImage" />
        <dc:title />
      </cc:Work>
    </rdf:RDF>
  </metadata>
  <g
     inkscape:label="Layer 1"
     inkscape:groupmode="layer"
     id="layer1"
     transform="translate(0,-540.36218)">
    <path
       sodipodi:type="arc"
       style="fill:#366378;fill-rule:evenodd;stroke:none"
       id="path2985"
       sodipodi:cx="202.85715"
       sodipodi:cy="-316.57144"
       sodipodi:rx="360"
       sodipodi:ry="360"
       d="m 562.85715,-316.57144 c 0,198.82251 -161.17749,359.999998 -360,359.999998 -198.8225127,0 -360,-161.177488 -360,-359.999998 0,-198.82251 161.1774873,-360 360,-360 198.82251,0 360,161.17749 360,360 z"
       transform="matrix(0.69444444,0,0,0.69444444,115.12698,1016.2035)" />
    <path
       transform="matrix(0.62075975,0,0,0.62075975,130.07445,992.87703)"
       d="m 562.85715,-316.57144 a 360,360 0 1 1 -720,0 360,360 0 1 1 720,0 z"
       sodipodi:ry="360"
       sodipodi:rx="360"
       sodipodi:cy="-316.57144"
       sodipodi:cx="202.85715"
       id="path3441"
       style="fill:#fff8eb;fill-opacity:0.23529412;fill-rule:evenodd;stroke:none"
       sodipodi:type="arc" />
    <rect
       style="opacity:0.9;fill:url(#linearGradient3381);fill-opacity:1;fill-rule:nonzero;stroke:none;display:none;filter:url(#filter3174)"
       id="rect3745"
       y="7"
       x="5"
       ry="6"
       rx="6"
       height="85"
       width="86"
       transform="matrix(4.5768213,0,0,4.5768213,797.45544,558.38905)" />
    <path
       style="fill:#ffffff;fill-opacity:1;fill-rule:nonzero;stroke:#ffffff;stroke-width:11.12644768;stroke-linecap:butt;stroke-linejoin:round;stroke-miterlimit:4;stroke-opacity:1;stroke-dasharray:none"
       d="m 193.41264,624.25341 c -27.48483,-1.34852 -44.92569,30.01704 -27.54126,50.47657 17.24392,25.61836 58.51126,41.29508 86.47953,22.12022 0,86.7881 0.37698,184.43218 0.37698,271.2203 16.65162,4.31827 8.9669,-24.14528 12.88501,-34.12331 7.8046,-37.67786 45.99568,-57.26993 70.58467,-84.22685 20.1258,-21.98918 22.78875,-55.59225 5.15019,-79.94105 -4.996,-6.89671 -21.15942,-35.20724 -18.72148,-29.82987 10.87766,22.07672 24.84948,46.86398 18.25869,71.89477 -8.35508,30.0172 -38.77399,49.17509 -69.96231,53.83894 -7.97085,1.1389 -7.45935,-1.15827 -8.25217,-13.65497 0,-62.03477 0,-124.06959 0,-186.10442 -10.44439,-25.32977 -40.8703,-42.49481 -69.25785,-41.67033 z m 3.29799,8.03283 c 26.40782,-1.21387 58.24681,18.88643 54.92893,46.13805 -6.84658,24.10936 -41.73812,22.31416 -59.4614,10.49403 -19.69879,-9.01274 -34.24128,-40.24149 -10.3947,-52.77204 4.56504,-2.37785 9.74721,-3.56143 14.92717,-3.86004 z"
       id="path7097"
       sodipodi:nodetypes="ccccccsccccccccccc"
       inkscape:connector-curvature="0" />
  </g>
</svg>
