<?xml version="1.0" encoding="UTF-8" standalone="no"?>
<!-- Created with Inkscape (http://www.inkscape.org/) -->

<svg
   xmlns:dc="http://purl.org/dc/elements/1.1/"
   xmlns:cc="http://creativecommons.org/ns#"
   xmlns:rdf="http://www.w3.org/1999/02/22-rdf-syntax-ns#"
   xmlns:svg="http://www.w3.org/2000/svg"
   xmlns="http://www.w3.org/2000/svg"
   xmlns:sodipodi="http://sodipodi.sourceforge.net/DTD/sodipodi-0.dtd"
   xmlns:inkscape="http://www.inkscape.org/namespaces/inkscape"
   width="512"
   height="512"
   id="svg2"
   version="1.1"
   inkscape:version="0.48.4 r9939"
   sodipodi:docname="spotify.svg">
  <defs
     id="defs4" />
  <sodipodi:namedview
     id="base"
     pagecolor="#ffffff"
     bordercolor="#666666"
     borderopacity="1.0"
     inkscape:pageopacity="0.0"
     inkscape:pageshadow="2"
     inkscape:zoom="0.49497475"
     inkscape:cx="364.13383"
     inkscape:cy="176.25811"
     inkscape:document-units="px"
     inkscape:current-layer="layer1"
     showgrid="false"
     inkscape:window-width="1309"
     inkscape:window-height="750"
     inkscape:window-x="55"
     inkscape:window-y="-3"
     inkscape:window-maximized="1" />
  <metadata
     id="metadata7">
    <rdf:RDF>
      <cc:Work
         rdf:about="">
        <dc:format>image/svg+xml</dc:format>
        <dc:type
           rdf:resource="http://purl.org/dc/dcmitype/StillImage" />
        <dc:title />
      </cc:Work>
    </rdf:RDF>
  </metadata>
  <g
     inkscape:label="Layer 1"
     inkscape:groupmode="layer"
     id="layer1"
     transform="translate(0,-540.36218)">
    <path
       style="fill:#999647;fill-rule:evenodd;stroke:none"
       d="M 256 6 C 117.92881 6 6 117.92881 6 256 C 6 327.01784 35.605635 391.11355 83.15625 436.625 C 122.86548 385.56485 188.40741 352.21875 262.53125 352.21875 C 333.12959 352.21875 395.90832 382.47508 436.03125 429.46875 C 479.35506 384.51369 506 323.36387 506 256 C 506 117.92881 394.07119 6 256 6 z M 430.5625 434.9375 C 429.47646 435.9972 428.38637 437.05381 427.28125 438.09375 C 428.38676 437.05353 429.47608 435.99748 430.5625 434.9375 z M 407.375 454.96875 C 406.18693 455.87405 404.98589 456.77189 403.78125 457.65625 C 404.98811 456.77034 406.18476 455.87567 407.375 454.96875 z M 105.5 455.625 C 106.99692 456.7553 108.50837 457.87161 110.03125 458.96875 C 108.50088 457.86638 107.00415 456.76085 105.5 455.625 z M 397.125 462.375 C 396.09476 463.08086 395.07252 463.778 394.03125 464.46875 C 395.06903 463.78022 396.09818 463.07854 397.125 462.375 z M 115.15625 462.5625 C 116.65586 463.587 118.16467 464.6013 119.6875 465.59375 C 118.16733 464.60301 116.65328 463.58517 115.15625 462.5625 z M 119.6875 465.59375 C 121.3171 466.65579 122.96939 467.69399 124.625 468.71875 C 122.9651 467.69144 121.32126 466.65852 119.6875 465.59375 z M 124.625 468.71875 C 125.88887 469.50104 127.15878 470.27099 128.4375 471.03125 C 127.15676 470.26991 125.89085 469.50218 124.625 468.71875 z M 393 465.15625 C 391.80252 465.94211 390.58667 466.70303 389.375 467.46875 C 390.58631 466.70312 391.80288 465.942 393 465.15625 z M 141.0625 478.0625 C 142.02507 478.56175 142.99891 479.0442 143.96875 479.53125 C 142.99382 479.0417 142.03009 478.56437 141.0625 478.0625 z M 370.90625 478.0625 C 369.9392 478.56389 368.97438 479.07342 368 479.5625 C 368.97416 479.07348 369.93941 478.56383 370.90625 478.0625 z M 166.78125 489.59375 C 168.62879 490.29987 170.47547 490.99301 172.34375 491.65625 C 170.4756 490.9931 168.62867 490.29976 166.78125 489.59375 z M 172.34375 491.65625 C 173.95919 492.22973 175.58822 492.77149 177.21875 493.3125 C 175.59505 492.77364 173.95249 492.22731 172.34375 491.65625 z M 342.84375 490.5 C 341.70315 490.92251 340.55463 491.34373 339.40625 491.75 C 340.55659 491.34302 341.70122 490.92327 342.84375 490.5 z M 337.4375 492.4375 C 336.01916 492.92592 334.58601 493.38027 333.15625 493.84375 C 334.58666 493.38006 336.01852 492.92614 337.4375 492.4375 z M 184.59375 495.625 C 186.20149 496.10341 187.81638 496.5845 189.4375 497.03125 C 187.81343 496.58371 186.2044 496.10431 184.59375 495.625 z M 325.5625 496.1875 C 324.26573 496.56227 322.9616 496.92701 321.65625 497.28125 C 322.96136 496.92689 324.26597 496.56237 325.5625 496.1875 z M 197 498.96875 C 198.23848 499.26843 199.47315 499.56259 200.71875 499.84375 C 199.47039 499.56197 198.24121 499.26913 197 498.96875 z M 294.96875 502.96875 C 293.4648 503.20412 291.95022 503.41657 290.4375 503.625 C 291.95341 503.41608 293.46164 503.20472 294.96875 502.96875 z M 220 503.40625 C 221.68581 503.64946 223.36598 503.88436 225.0625 504.09375 C 223.36882 503.88465 221.68302 503.64906 220 503.40625 z M 225.0625 504.09375 C 227.08699 504.34362 229.11707 504.58008 231.15625 504.78125 C 229.11375 504.57977 227.09026 504.3441 225.0625 504.09375 z M 231.15625 504.78125 C 233.20513 504.98338 235.24939 505.16015 237.3125 505.3125 C 235.25587 505.16049 233.19875 504.98273 231.15625 504.78125 z M 237.3125 505.3125 C 239.36639 505.46417 241.43261 505.58576 243.5 505.6875 C 241.42984 505.58556 239.36913 505.46451 237.3125 505.3125 z M 269.1875 505.65625 C 267.45079 505.74639 265.68342 505.78922 263.9375 505.84375 C 265.68479 505.78916 267.44943 505.74652 269.1875 505.65625 z "
       transform="translate(0,540.36218)"
       id="path2985" />
    <path
       style="fill:#fff8eb;fill-rule:evenodd;stroke:none"
       d="M 262.53125 352.21875 C 188.40741 352.21875 122.86548 385.56485 83.15625 436.625 C 104.43986 456.99589 129.32393 473.62344 156.75 485.5 C 172.86827 455.36264 213.89285 433.9375 262 433.9375 C 307.7676 433.9375 347.14586 453.32003 364.75 481.15625 C 391.51224 468.2071 415.62747 450.64079 436.03125 429.46875 C 395.90832 382.47508 333.12959 352.21875 262.53125 352.21875 z M 156.75 485.5 C 158.65013 486.32283 160.57577 487.12957 162.5 487.90625 C 160.57421 487.1288 158.6517 486.32353 156.75 485.5 z M 162.5 487.90625 C 164.4296 488.6851 166.35936 489.42452 168.3125 490.15625 C 166.36332 489.42561 164.42579 488.6837 162.5 487.90625 z M 168.3125 490.15625 C 170.25952 490.88569 172.21779 491.59932 174.1875 492.28125 C 172.21561 491.59813 170.26168 490.88689 168.3125 490.15625 z M 174.1875 492.28125 C 176.15142 492.96117 178.13921 493.618 180.125 494.25 C 178.1311 493.61512 176.15939 492.96437 174.1875 492.28125 z M 180.125 494.25 C 181.98368 494.84154 183.84149 495.41978 185.71875 495.96875 C 183.85029 495.42179 181.97508 494.83908 180.125 494.25 z M 364.15625 481.4375 C 362.38731 482.28781 360.60418 483.12786 358.8125 483.9375 C 360.60597 483.12733 362.38562 482.28847 364.15625 481.4375 z M 358.25 484.1875 C 356.25649 485.08241 354.27074 485.93741 352.25 486.78125 C 354.26186 485.94121 356.2652 485.07821 358.25 484.1875 z M 352.25 486.78125 C 350.13412 487.66482 347.98856 488.51711 345.84375 489.34375 C 347.99508 488.51497 350.12785 487.66734 352.25 486.78125 z M 345.84375 489.34375 C 343.69894 490.17039 341.54782 490.98124 339.375 491.75 C 341.54578 490.98231 343.70098 490.16923 345.84375 489.34375 z M 339.375 491.75 C 337.51213 492.40909 335.63282 493.04035 333.75 493.65625 C 335.6331 493.04058 337.51189 492.40888 339.375 491.75 z M 332.03125 494.21875 C 328.04755 495.48985 324.00511 496.67601 319.9375 497.75 C 324.01854 496.67393 328.03472 495.49319 332.03125 494.21875 z M 186.9375 496.3125 C 188.3087 496.70589 189.68175 497.0983 191.0625 497.46875 C 189.67921 497.09722 188.31122 496.70704 186.9375 496.3125 z M 319.28125 497.90625 C 317.08078 498.48085 314.8799 499.01556 312.65625 499.53125 C 314.874 499.0175 317.08655 498.47858 319.28125 497.90625 z M 312.65625 499.53125 C 310.43245 500.04697 308.21487 500.54409 305.96875 501 C 308.20586 500.54619 310.44127 500.04436 312.65625 499.53125 z M 193.40625 498.0625 C 194.69601 498.39512 195.98352 498.71879 197.28125 499.03125 C 195.98906 498.71966 194.69054 498.39407 193.40625 498.0625 z M 199.5 499.5625 C 200.62143 499.82159 201.74785 500.06855 202.875 500.3125 C 201.74597 500.06773 200.62329 499.82247 199.5 499.5625 z M 210.96875 501.9375 C 212.49486 502.21513 214.02687 502.46897 215.5625 502.71875 C 214.02991 502.46895 212.49184 502.21506 210.96875 501.9375 z M 277.6875 505.0625 C 276.49599 505.16502 275.32125 505.25802 274.125 505.34375 C 275.31757 505.25829 276.49962 505.16462 277.6875 505.0625 z M 243.5 505.6875 C 247.64031 505.89138 251.80917 506 256 506 C 251.81195 506 247.63734 505.89158 243.5 505.6875 z "
       transform="translate(0,540.36218)"
       id="path3773" />
    <path
       style="fill:#999647;fill-rule:evenodd;stroke:none;fill-opacity:1"
       d="M 262 433.9375 C 213.89285 433.9375 172.86827 455.36264 156.75 485.5 C 187.17723 498.67649 220.73151 506 256 506 C 294.98164 506 331.86658 497.06941 364.75 481.15625 C 347.14586 453.32003 307.7676 433.9375 262 433.9375 z "
       id="path3770"
       transform="translate(0,540.36218)" />
    <path
       style="fill:none;stroke:#fff8eb;stroke-width:40.34778975999999773;stroke-linecap:round;stroke-linejoin:round;stroke-miterlimit:4;stroke-opacity:1;stroke-dasharray:none"
       d="m 95.74146,715.22508 c 110.71656,-39.83009 211.92173,-40.50214 319.26655,0.33965"
       id="path2994"
       inkscape:connector-curvature="0"
       sodipodi:nodetypes="cc" />
    <path
       sodipodi:nodetypes="cc"
       inkscape:connector-curvature="0"
       id="path3764"
       d="m 114.76161,791.9849 c 95.34593,-37.42844 182.33429,-41.1473 282.95448,0.65514"
       style="fill:none;stroke:#fff8eb;stroke-width:26.89852714999999961;stroke-linecap:round;stroke-linejoin:round;stroke-miterlimit:4;stroke-opacity:1;stroke-dasharray:none" />
    <path
       style="fill:none;stroke:#fff8eb;stroke-width:26.89852714999999961;stroke-linecap:round;stroke-linejoin:round;stroke-miterlimit:4;stroke-opacity:1;stroke-dasharray:none"
       d="m 136.37653,861.63287 c 67.00638,-31.66447 158.31773,-42.10796 238.76403,-0.30551"
       id="path3766"
       inkscape:connector-curvature="0"
       sodipodi:nodetypes="cc" />
  </g>
</svg>
