<svg xmlns="http://www.w3.org/2000/svg" width="512" height="512">
 <path d="M 256 6 C 191.70089 6 133.07714 30.27188 88.78125 70.15625 L 423.21875 70.15625 C 378.92286 30.27188 320.29911 6 256 6 z M 61.875 98.46875 C 60.661353 99.96254 59.46082 101.47795 58.28125 103 C 59.4606 101.47811 60.661587 99.96238 61.875 98.46875 z M 58.28125 103 C 57.00896 104.64171 55.763192 106.29486 54.53125 107.96875 C 55.76096 106.29793 57.01134 104.63875 58.28125 103 z M 450.125 98.46875 C 451.33841 99.96238 452.5394 101.47811 453.71875 103 C 452.53918 101.47795 451.33865 99.96254 450.125 98.46875 z M 453.71875 103 C 454.98866 104.63875 456.23904 106.29793 457.46875 107.96875 C 456.23681 106.29486 454.99105 104.64171 453.71875 103 z M 49.71875 114.71875 C 48.818523 116.03061 47.938186 117.35777 47.0625 118.6875 C 47.937423 117.35899 48.819334 116.02941 49.71875 114.71875 z M 47.0625 118.6875 C 46.02272 120.26641 45.00468 121.86514 44 123.46875 C 45.00758 121.86035 46.01961 120.27106 47.0625 118.6875 z M 462.28125 114.71875 C 463.18067 116.02941 464.06258 117.35899 464.9375 118.6875 C 464.06181 117.35777 463.18148 116.03061 462.28125 114.71875 z M 464.9375 118.6875 C 465.98039 120.27106 466.99242 121.86035 468 123.46875 C 466.99532 121.86514 465.97728 120.26641 464.9375 118.6875 z M 43.15625 124.8125 C 42.44643 125.9616 41.754131 127.11989 41.0625 128.28125 C 41.751923 127.12362 42.44875 125.95795 43.15625 124.8125 z M 468.84375 124.8125 C 469.55124 125.95795 470.24808 127.12362 470.9375 128.28125 C 470.24587 127.11989 469.55357 125.9616 468.84375 124.8125 z M 16.71875 183.46875 C 16.11967 185.4477 15.519741 187.43814 14.96875 189.4375 C 15.518828 187.44173 16.12076 185.44419 16.71875 183.46875 z M 495.28125 183.46875 C 495.87924 185.44419 496.48117 187.44173 497.03125 189.4375 C 496.48026 187.43814 495.88033 185.4477 495.28125 183.46875 z M 9.09375 216.65625 C 8.90953 217.8212 8.730569 218.98601 8.5625 220.15625 C 8.730032 218.9901 8.910178 217.81715 9.09375 216.65625 z M 502.90625 216.65625 C 503.08982 217.81715 503.26997 218.9901 503.4375 220.15625 C 503.26943 218.98601 503.09047 217.8212 502.90625 216.65625 z M 8.15625 222.96875 C 7.961592 224.44339 7.793836 225.92362 7.625 227.40625 C 7.794098 225.92207 7.961273 224.44492 8.15625 222.96875 z M 503.84375 222.96875 C 504.03873 224.44492 504.2059 225.92207 504.375 227.40625 C 504.20616 225.92362 504.03841 224.44339 503.84375 222.96875 z M 7.4375 229.125 C 7.211928 231.2353 7.01647 233.34308 6.84375 235.46875 C 7.01638 233.34639 7.21218 231.23204 7.4375 229.125 z M 6.84375 235.46875 C 6.66075 237.72091 6.497903 239.98135 6.375 242.25 C 6.498243 239.97536 6.660085 237.72682 6.84375 235.46875 z M 6.375 242.25 C 6.292551 243.77191 6.242606 245.31472 6.1875 246.84375 C 6.2427 245.30979 6.292276 243.77679 6.375 242.25 z M 504.5625 229.125 C 504.78782 231.23204 504.98362 233.34639 505.15625 235.46875 C 504.98353 233.34308 504.78807 231.2353 504.5625 229.125 z M 505.15625 235.46875 C 505.33991 237.72682 505.50176 239.97536 505.625 242.25 C 505.5021 239.98135 505.33925 237.72091 505.15625 235.46875 z M 505.625 242.25 C 505.70772 243.77679 505.7573 245.30979 505.8125 246.84375 C 505.75739 245.31472 505.70745 243.77191 505.625 242.25 z M 6.1875 265.15625 C 6.242606 266.68528 6.292551 268.22809 6.375 269.75 C 6.292276 268.22321 6.2427 266.69021 6.1875 265.15625 z M 6.375 269.75 C 6.497903 272.01865 6.66075 274.27909 6.84375 276.53125 C 6.660085 274.27318 6.498243 272.02464 6.375 269.75 z M 6.84375 276.53125 C 7.01647 278.65692 7.211928 280.7647 7.4375 282.875 C 7.21218 280.76796 7.01638 278.65361 6.84375 276.53125 z M 505.8125 265.15625 C 505.7573 266.69021 505.70772 268.22321 505.625 269.75 C 505.70745 268.22809 505.75739 266.68528 505.8125 265.15625 z M 505.625 269.75 C 505.50176 272.02464 505.33991 274.27318 505.15625 276.53125 C 505.33925 274.27909 505.5021 272.01865 505.625 269.75 z M 505.15625 276.53125 C 504.98362 278.65361 504.78782 280.76796 504.5625 282.875 C 504.78807 280.7647 504.98353 278.65692 505.15625 276.53125 z M 7.625 284.59375 C 7.793836 286.07638 7.961592 287.55661 8.15625 289.03125 C 7.961273 287.55508 7.794098 286.07793 7.625 284.59375 z M 504.375 284.59375 C 504.2059 286.07793 504.03873 287.55508 503.84375 289.03125 C 504.03841 287.55661 504.20616 286.07638 504.375 284.59375 z M 8.5625 291.84375 C 8.730569 293.01399 8.90953 294.1788 9.09375 295.34375 C 8.910178 294.18285 8.730032 293.0099 8.5625 291.84375 z M 503.4375 291.84375 C 503.26997 293.0099 503.08982 294.18285 502.90625 295.34375 C 503.09047 294.1788 503.26943 293.01399 503.4375 291.84375 z M 14.96875 322.5625 C 15.519741 324.56186 16.11967 326.5523 16.71875 328.53125 C 16.12076 326.55581 15.518828 324.55827 14.96875 322.5625 z M 497.03125 322.5625 C 496.48117 324.55827 495.87924 326.55581 495.28125 328.53125 C 495.88033 326.5523 496.48026 324.56186 497.03125 322.5625 z M 41.0625 383.71875 C 41.754131 384.88011 42.44643 386.0384 43.15625 387.1875 C 42.44875 386.04205 41.751923 384.87638 41.0625 383.71875 z M 470.9375 383.71875 C 470.24808 384.87638 469.55124 386.04205 468.84375 387.1875 C 469.55357 386.0384 470.24587 384.88011 470.9375 383.71875 z M 44 388.53125 C 45.00468 390.13486 46.02272 391.73359 47.0625 393.3125 C 46.01961 391.72894 45.00758 390.13965 44 388.53125 z M 47.0625 393.3125 C 47.938186 394.64223 48.818523 395.96939 49.71875 397.28125 C 48.819334 395.97059 47.937423 394.64101 47.0625 393.3125 z M 468 388.53125 C 466.99242 390.13965 465.98039 391.72894 464.9375 393.3125 C 465.97728 391.73359 466.99532 390.13486 468 388.53125 z M 464.9375 393.3125 C 464.06258 394.64101 463.18067 395.97059 462.28125 397.28125 C 463.18148 395.96939 464.06181 394.64223 464.9375 393.3125 z M 54.53125 404.03125 C 55.763192 405.70514 57.00896 407.35829 58.28125 409 C 57.01134 407.36125 55.76096 405.70207 54.53125 404.03125 z M 58.28125 409 C 59.46082 410.52205 60.661353 412.03746 61.875 413.53125 C 60.661587 412.03762 59.4606 410.52189 58.28125 409 z M 457.46875 404.03125 C 456.23904 405.70207 454.98866 407.36125 453.71875 409 C 454.99105 407.35829 456.23681 405.70514 457.46875 404.03125 z M 453.71875 409 C 452.5394 410.52189 451.33841 412.03762 450.125 413.53125 C 451.33865 412.03746 452.53918 410.52205 453.71875 409 z M 88.78125 441.84375 C 133.07714 481.72812 191.70089 506 256 506 C 320.29911 506 378.92286 481.72812 423.21875 441.84375 L 88.78125 441.84375 z" fill="#366378" fill-rule="evenodd"/>
 <path d="M 88.78125 70.15625 C 37.959405 115.91665 6 182.22793 6 256 C 6 329.77208 37.959405 396.08335 88.78125 441.84375 L 423.21875 441.84375 C 474.0406 396.08335 506 329.77208 506 256 C 506 182.22793 474.0406 115.91665 423.21875 70.15625 L 88.78125 70.15625 z" fill="#d1c4b1" fill-rule="evenodd"/>
 <path d="m 203.09953 98.78125 c -2.30939 0.07677 -4.85523 0.609585 -7.65625 1.71875 -22.07456 8.21609 -4.08397 57.19976 -2.65625 63.53125 1.31732 5.82893 -9.80845 5.18348 -11.90625 2.625 -4.68295 -5.71852 -20.13817 -56.73961 -38.375 -47.625 -25.57724 14.10213 -1.52325 58.13477 -6.625 59.5625 -9.47629 5.29591 -8.93574 18.21147 -16.53125 28.75 -9.453 13.54739 -65.11697 1.87119 -104.90625 -5.46875 -3.848382 17.43108 -5.875 35.53724 -5.875 54.125 0 50.2641 14.84462 97.05331 40.375 136.25 55.53908 1.60473 102.78925 -6.73044 104.15625 -7.25 -0.19417 -0.43022 76.66199 36.12075 83.34375 31.75 16.85479 -18.25206 -31.94864 -43.97417 -23.8125 -54.25 3.56741 -5.37967 59.43484 20.20129 62.1875 13.21875 4.00525 -12.08808 -25.9335 -37.44939 -30.4375 -44.96875 -3.91768 -6.93304 -4.73489 -18.15087 5.3125 -25.15625 10.05119 -7.00538 112.80983 -46.32991 108.5 -76.75 -7.45083 -55.27396 -130.36016 -58.84751 -132.34375 -63.5 -0.85991 -2.01464 4.50086 -67.46836 -22.75 -66.5625 z" fill="#282629" fill-rule="evenodd" stroke="#282629" stroke-width="4.759089"/>
 <path d="m 232.4451 269.56256 c -0.64343 -2.24629 39.98776 -26.82223 45.87 -21.17224 10.58802 3.83773 -45.49689 24.02388 -45.87 21.17224 z" fill="#fff" fill-rule="evenodd" stroke="#282629" stroke-width="2.855453"/>
 <path d="m 251.85076 291.91124 c -3.57884 -2.16253 24.32465 -34.69947 31.17013 -31.17013 9.99408 9.92936 -31.63843 31.943 -31.17013 31.17013 z" fill="#fff" fill-rule="evenodd" stroke="#282629" stroke-width="2.855453"/>
 <path d="m 361.82378 141.36032 c -3.39228 -2.80596 -29.99368 39.1654 -24.11145 43.52092 3.53696 2.64605 25.62674 -42.02466 24.11145 -43.52092 z" fill="#282629" fill-rule="evenodd" stroke="#282629" stroke-width="2.855453"/>
 <ellipse transform="matrix(3.5228679,0,0,3.555184,-776.12269,-1130.291)" ry="3.398196" rx="3.01204" cy="374.58655" cx="288.86475" fill="#fff" fill-rule="evenodd" stroke="#282629" stroke-width="0.75"/>
 <path d="m 331.2434 135.47952 c -1.67901 -1.94932 -10.58802 43.28106 -6.46855 45.28368 3.53695 2.64606 9.69712 -42.93079 6.46855 -45.28368 z" fill="#282629" fill-rule="evenodd" stroke="#282629" stroke-width="2.855453"/>
 <path d="m 217.69233 196.69135 c -10.54995 7.45844 5.79086 49.66585 32.66639 25.02138 -21.11513 0.62059 -28.15858 -5.56242 -32.66639 -25.02138 z" fill="#fff" fill-rule="evenodd" stroke="#282629" stroke-width="2.855453"/>
</svg>
