<?xml version="1.0" encoding="UTF-8" standalone="no"?>
<!-- Created with Inkscape (http://www.inkscape.org/) -->

<svg
   xmlns:dc="http://purl.org/dc/elements/1.1/"
   xmlns:cc="http://creativecommons.org/ns#"
   xmlns:rdf="http://www.w3.org/1999/02/22-rdf-syntax-ns#"
   xmlns:svg="http://www.w3.org/2000/svg"
   xmlns="http://www.w3.org/2000/svg"
   xmlns:xlink="http://www.w3.org/1999/xlink"
   xmlns:sodipodi="http://sodipodi.sourceforge.net/DTD/sodipodi-0.dtd"
   xmlns:inkscape="http://www.inkscape.org/namespaces/inkscape"
   id="svg2"
   sodipodi:version="0.32"
   inkscape:version="0.48.2 r9819"
   width="193.3557"
   height="518.25665"
   sodipodi:docname="reageerbuis.svg"
   version="1.0"
   inkscape:export-filename="/home/adrie/Documenten/bier/BrouwHulp/BrouwHulp Gold/Artwork/reageerbuis.png"
   inkscape:export-xdpi="4.1326427"
   inkscape:export-ydpi="4.1326427">
  <metadata
     id="metadata7">
    <rdf:RDF>
      <cc:Work
         rdf:about="">
        <dc:format>image/svg+xml</dc:format>
        <dc:type
           rdf:resource="http://purl.org/dc/dcmitype/StillImage" />
        <dc:title></dc:title>
      </cc:Work>
    </rdf:RDF>
  </metadata>
  <defs
     id="defs5">
    <linearGradient
       id="linearGradient3471">
      <stop
         style="stop-color:#d7b73f;stop-opacity:1;"
         offset="0"
         id="stop3473" />
      <stop
         id="stop3479"
         offset="0.3018868"
         style="stop-color:#cd951d;stop-opacity:1;" />
      <stop
         style="stop-color:#ffc521;stop-opacity:1;"
         offset="1"
         id="stop3475" />
    </linearGradient>
    <linearGradient
       id="linearGradient2275">
      <stop
         style="stop-color:#5aadd2;stop-opacity:1;"
         offset="0"
         id="stop2277" />
      <stop
         style="stop-color:#fcffff;stop-opacity:0;"
         offset="1"
         id="stop2279" />
    </linearGradient>
    <linearGradient
       id="linearGradient2281">
      <stop
         style="stop-color:#fcffff;stop-opacity:1;"
         offset="0"
         id="stop2283" />
      <stop
         style="stop-color:#fcffff;stop-opacity:0;"
         offset="1"
         id="stop2285" />
    </linearGradient>
    <linearGradient
       id="linearGradient2235">
      <stop
         style="stop-color:#ffffff;stop-opacity:0.57291669;"
         offset="0"
         id="stop2237" />
      <stop
         style="stop-color:#ffffff;stop-opacity:0;"
         offset="1"
         id="stop2239" />
    </linearGradient>
    <linearGradient
       id="linearGradient2205">
      <stop
         style="stop-color:#fdffc2;stop-opacity:0.58333331;"
         offset="0"
         id="stop2207" />
      <stop
         id="stop2213"
         offset="0.41509435"
         style="stop-color:#babf2d;stop-opacity:0.32291666;" />
      <stop
         style="stop-color:#e5ef07;stop-opacity:0;"
         offset="1"
         id="stop2209" />
    </linearGradient>
    <linearGradient
       id="linearGradient2188">
      <stop
         style="stop-color:#e5ffff;stop-opacity:1;"
         offset="0"
         id="stop2190" />
      <stop
         id="stop2196"
         offset="0.3018868"
         style="stop-color:#00609e;stop-opacity:0.49803922;" />
      <stop
         style="stop-color:#00609e;stop-opacity:0;"
         offset="1"
         id="stop2192" />
    </linearGradient>
    <linearGradient
       inkscape:collect="always"
       xlink:href="#linearGradient2188"
       id="linearGradient2244"
       x1="440.59741"
       y1="267.05276"
       x2="591.16132"
       y2="267.05276"
       gradientUnits="userSpaceOnUse"
       gradientTransform="matrix(0.749035,0,0,1,148.4861,0)" />
    <linearGradient
       inkscape:collect="always"
       xlink:href="#linearGradient2188"
       id="linearGradient2262"
       x1="471.64056"
       y1="172.17461"
       x2="598.66748"
       y2="172.17461"
       gradientUnits="userSpaceOnUse" />
    <radialGradient
       inkscape:collect="always"
       xlink:href="#linearGradient2275"
       id="radialGradient2284"
       cx="516.52722"
       cy="374.52805"
       fx="516.52722"
       fy="374.52805"
       r="121.12631"
       gradientTransform="matrix(2.034275,1.114048,-0.890674,1.626392,-198.2958,-814.7931)"
       gradientUnits="userSpaceOnUse" />
    <linearGradient
       inkscape:collect="always"
       xlink:href="#linearGradient2281"
       id="linearGradient1408"
       gradientUnits="userSpaceOnUse"
       x1="604.76343"
       y1="550.6651"
       x2="599.24548"
       y2="499.38745" />
    <linearGradient
       inkscape:collect="always"
       xlink:href="#linearGradient2205"
       id="linearGradient2542"
       gradientUnits="userSpaceOnUse"
       x1="192.12421"
       y1="493.87622"
       x2="250.06329"
       y2="493.87622" />
    <linearGradient
       inkscape:collect="always"
       xlink:href="#linearGradient2188"
       id="linearGradient2544"
       gradientUnits="userSpaceOnUse"
       x1="186.52565"
       y1="394.20596"
       x2="255.66185"
       y2="394.20596" />
    <linearGradient
       inkscape:collect="always"
       xlink:href="#linearGradient2235"
       id="linearGradient2546"
       gradientUnits="userSpaceOnUse"
       gradientTransform="matrix(1.071348,0,0,1,-22.13478,4)"
       x1="197.61035"
       y1="398.0148"
       x2="198.11037"
       y2="452.05017" />
    <linearGradient
       inkscape:collect="always"
       xlink:href="#linearGradient2235"
       id="linearGradient2548"
       gradientUnits="userSpaceOnUse"
       gradientTransform="matrix(1.35627,0,0,0.175579,-347.4938,549.0894)"
       x1="190.60016"
       y1="398.4248"
       x2="217.39427"
       y2="397.24161" />
    <linearGradient
       inkscape:collect="always"
       xlink:href="#linearGradient2235"
       id="linearGradient2562"
       x1="79.734695"
       y1="511.01968"
       x2="199.95894"
       y2="511.01968"
       gradientUnits="userSpaceOnUse" />
    <linearGradient
       inkscape:collect="always"
       xlink:href="#linearGradient2235"
       id="linearGradient2634"
       gradientUnits="userSpaceOnUse"
       gradientTransform="matrix(1.071348,0,0,0.485176,-118.025,409.0556)"
       x1="197.61035"
       y1="398.0148"
       x2="198.11037"
       y2="452.05017" />
    <linearGradient
       inkscape:collect="always"
       xlink:href="#linearGradient2188"
       id="linearGradient2649"
       gradientUnits="userSpaceOnUse"
       x1="434.55032"
       y1="725.4801"
       x2="552.03918"
       y2="725.4801"
       gradientTransform="translate(-353.4289,-133.1302)" />
    <linearGradient
       inkscape:collect="always"
       xlink:href="#linearGradient2188"
       id="linearGradient3301"
       x1="427.41837"
       y1="856.62915"
       x2="650.30194"
       y2="856.62915"
       gradientUnits="userSpaceOnUse" />
    <linearGradient
       inkscape:collect="always"
       xlink:href="#linearGradient2188"
       id="linearGradient3318"
       x1="374.94299"
       y1="756.36218"
       x2="424.5"
       y2="756.36218"
       gradientUnits="userSpaceOnUse"
       gradientTransform="matrix(1.058601,0,0,1,47.08472,-20.5)" />
    <linearGradient
       inkscape:collect="always"
       xlink:href="#linearGradient2188"
       id="linearGradient3349"
       x1="441.5"
       y1="699.12207"
       x2="499.5"
       y2="699.12207"
       gradientUnits="userSpaceOnUse" />
    <linearGradient
       inkscape:collect="always"
       xlink:href="#linearGradient2188"
       id="linearGradient3354"
       gradientUnits="userSpaceOnUse"
       gradientTransform="matrix(0.883482,0,0,0.72598,-5.557345,262.8616)"
       x1="427.41837"
       y1="856.62915"
       x2="650.30194"
       y2="856.62915" />
    <linearGradient
       inkscape:collect="always"
       xlink:href="#linearGradient3471"
       id="linearGradient3477"
       x1="461.2009"
       y1="567.388"
       x2="543.61481"
       y2="567.388"
       gradientUnits="userSpaceOnUse" />
  </defs>
  <sodipodi:namedview
     inkscape:window-height="814"
     inkscape:window-width="1600"
     inkscape:pageshadow="2"
     inkscape:pageopacity="0.0"
     borderopacity="1.0"
     bordercolor="#666666"
     pagecolor="#ffffff"
     id="base"
     inkscape:zoom="1.1828116"
     inkscape:cx="96.677849"
     inkscape:cy="259.12833"
     inkscape:window-x="-8"
     inkscape:window-y="25"
     inkscape:current-layer="svg2"
     showgrid="false"
     showguides="true"
     inkscape:guide-bbox="true"
     inkscape:window-maximized="1" />
  <g
     id="g2474"
     transform="translate(-117.2813,-137.8848)"
     inkscape:export-filename="/home/adrie/Documenten/bier/BrouwHulp/BrouwHulp Gold/Artwork/reageerbuis.png"
     inkscape:export-xdpi="9.5313301"
     inkscape:export-ydpi="9.5313301">
    <path
       id="path2198"
       d="M 192.8125,388.53125 C 192.81064,388.53256 192.81413,388.56101 192.8125,388.5625 C 192.8113,388.5643 192.78227,388.56057 192.78125,388.5625 C 192.77987,388.56677 192.7821,388.58919 192.78125,388.59375 C 192.77991,388.60788 192.7812,388.64314 192.78125,388.65625 C 192.78095,388.65973 192.7819,388.68467 192.78125,388.6875 C 192.77881,388.6876 192.75328,388.68858 192.75,388.6875 C 192.74796,388.68714 192.72071,388.68745 192.71875,388.6875 C 192.71557,388.69139 192.6904,388.71351 192.6875,388.71875 C 192.61873,388.88731 192.63535,389.47045 192.625,389.59375 C 192.62455,389.60089 192.62508,389.61712 192.625,389.625 C 192.62523,389.64127 192.625,389.67309 192.625,389.6875 L 192.625,572.125 C 192.625,572.14422 192.6242,572.1684 192.625,572.1875 C 192.63039,572.27315 192.63527,572.38591 192.65625,572.46875 C 192.65759,572.47274 192.6547,572.49603 192.65625,572.5 C 192.65798,572.50395 192.68561,572.52732 192.6875,572.53125 C 192.70866,572.5703 192.73342,572.61741 192.75,572.65625 C 192.75033,572.66132 192.75017,572.68222 192.75,572.6875 C 192.74986,572.69016 192.75051,572.71595 192.75,572.71875 C 192.75091,572.72138 192.74856,572.7474 192.75,572.75 C 192.75186,572.75257 192.77949,572.74742 192.78125,572.75 C 192.78269,572.7526 192.78033,572.77862 192.78125,572.78125 C 193.84462,588.12839 206.99261,599.91247 222.4375,599.1875 C 236.99623,598.50415 248.4839,586.95405 249.4375,572.75 C 249.43724,572.74664 249.43757,572.72154 249.4375,572.71875 C 249.43783,572.71378 249.43766,572.69283 249.4375,572.6875 C 249.44314,572.6822 249.46316,572.66156 249.46875,572.65625 C 249.49042,572.60272 249.51614,572.52375 249.53125,572.46875 C 249.55223,572.38591 249.55711,572.27315 249.5625,572.1875 C 249.5633,572.1684 249.5625,572.14422 249.5625,572.125 L 249.5625,389.6875 C 249.5625,389.67309 249.56228,389.64127 249.5625,389.625 C 249.56242,389.61712 249.56295,389.60089 249.5625,389.59375 C 249.54498,389.38509 249.48135,389.15806 249.375,388.96875 C 249.3671,388.95525 249.3515,388.94677 249.34375,388.9375 C 249.34183,388.9357 249.34567,388.90779 249.34375,388.90625 C 249.34184,388.90496 249.31441,388.90729 249.3125,388.90625 C 249.31061,388.9062 249.28314,388.90606 249.28125,388.90625 C 249.27561,388.91035 249.25565,388.93136 249.25,388.9375 C 249.24622,388.94248 249.22254,388.96289 249.21875,388.96875 C 248.78414,389.73416 248.2036,396.0185 244.25,395.8125 L 232.09375,395.875 C 231.15411,394.5099 229.55636,393.66669 227.78125,393.75 C 226.15899,393.82614 224.7525,394.65679 223.90625,395.90625 L 198.09375,396 C 194.55234,396.37666 194.12215,390.14093 193.6875,389.09375 C 193.68031,389.07787 193.66347,389.04421 193.65625,389.03125 C 193.64538,389.01407 193.63605,388.97892 193.625,388.96875 C 193.30807,388.73136 193.09076,388.61543 192.96875,388.5625 C 192.94977,388.55491 192.92143,388.53543 192.90625,388.53125 C 192.90158,388.5302 192.87929,388.53197 192.875,388.53125 C 192.87141,388.53114 192.84701,388.53108 192.84375,388.53125 C 192.84109,388.53192 192.81487,388.53035 192.8125,388.53125 z "
       style="fill:url(#linearGradient2542);fill-opacity:1;fill-rule:nonzero;stroke:black;stroke-linecap:butt;stroke-opacity:1" />
    <g
       id="g2347">
      <path
         style="fill:url(#linearGradient2544);fill-opacity:1;fill-rule:nonzero;stroke:black;stroke-linecap:butt;stroke-opacity:1"
         d="M 190.53125,182.25 C 188.88723,182.29968 187.51915,183.01407 187.125,183.9375 C 187.09972,183.99996 187.07882,184.09182 187.0625,184.15625 C 187.04321,184.23943 187.03485,184.35157 187.03125,184.4375 C 187.03105,184.44708 187.03125,184.45914 187.03125,184.46875 L 187.03125,571.5 C 187.03125,571.57686 187.01866,571.6752 187.03125,571.75 C 187.0436,571.81521 187.07226,571.90542 187.09375,571.96875 C 187.097,571.97776 187.12157,571.99104 187.125,572 C 187.12489,572.01027 187.1251,572.02098 187.125,572.03125 C 187.12861,572.04017 187.12121,572.05362 187.125,572.0625 C 187.11908,572.69939 187.12581,573.35591 187.15625,574 C 188.03605,592.61641 203.9747,606.99879 222.71875,606.125 C 241.07621,605.26922 255.33876,590.08307 255.09375,571.96875 C 255.09989,571.95065 255.08834,571.92451 255.09375,571.90625 C 255.10727,571.86061 255.14743,571.79658 255.15625,571.75 C 255.16884,571.6752 255.15625,571.57686 255.15625,571.5 L 255.15625,184.46875 C 255.15625,184.45914 255.15645,184.44708 255.15625,184.4375 C 255.15265,184.35157 255.14429,184.23943 255.125,184.15625 C 255.10868,184.09182 255.08778,183.99996 255.0625,183.9375 C 254.65319,182.97855 253.1981,182.25 251.46875,182.25 L 190.71875,182.25 C 190.6547,182.25 190.59448,182.24809 190.53125,182.25 z "
         id="rect1306" />
      <rect
         style="fill:url(#linearGradient2546);fill-opacity:1;fill-rule:nonzero;stroke:none;stroke-linecap:butt;stroke-opacity:1"
         id="rect2233"
         width="13.583688"
         height="301.12775"
         x="190.11035"
         y="229.05336"
         rx="5.7308784"
         ry="7.270411" />
      <rect
         style="fill:url(#linearGradient2548);fill-opacity:1;fill-rule:nonzero;stroke:none;stroke-linecap:butt;stroke-opacity:1"
         id="rect2243"
         width="33.50737"
         height="47.96286"
         x="-78.802345"
         y="588.60437"
         rx="16.753685"
         ry="23.98143"
         transform="matrix(0.917798,-0.397048,0.442392,0.896822,0,0)" />
    </g>
    <path
       transform="translate(1.27986,-33.27637)"
       sodipodi:open="true"
       sodipodi:end="12.503769"
       sodipodi:start="6.2362823"
       d="m 224.21603,566.36753 c 0.10157,2.16413 -1.57046,4.00085 -3.73459,4.10243 -2.16413,0.10158 -4.00085,-1.57045 -4.10243,-3.73458 -0.10158,-2.16414 1.57045,-4.00086 3.73458,-4.10244 2.14015,-0.10045 3.96503,1.53479 4.09907,3.6731"
       sodipodi:ry="3.9228237"
       sodipodi:rx="3.9228237"
       sodipodi:cy="566.55145"
       sodipodi:cx="220.29752"
       id="path2247"
       style="fill:#fcffff;fill-opacity:0.63478262;fill-rule:nonzero;stroke:none;stroke-linecap:butt;stroke-opacity:1"
       sodipodi:type="arc" />
    <path
       transform="translate(1.27986,-33.27637)"
       sodipodi:open="true"
       sodipodi:end="12.503769"
       sodipodi:start="6.2362823"
       d="m 220.08492,553.4893 c 0.14435,3.07535 -2.2317,5.68543 -5.30704,5.82978 -3.07535,0.14435 -5.68543,-2.23169 -5.82978,-5.30704 -0.14435,-3.07535 2.2317,-5.68543 5.30704,-5.82978 3.04127,-0.14275 5.63452,2.18102 5.82499,5.21966"
       sodipodi:ry="5.5745387"
       sodipodi:rx="5.5745387"
       sodipodi:cy="553.75067"
       sodipodi:cx="214.51651"
       id="path2249"
       style="fill:#fcffff;fill-opacity:0.63478262;fill-rule:nonzero;stroke:none;stroke-linecap:butt;stroke-opacity:1"
       sodipodi:type="arc" />
    <path
       transform="translate(-0.371855,-34.51516)"
       sodipodi:open="true"
       sodipodi:end="12.503769"
       sodipodi:start="6.2362823"
       d="m 231.23513,550.44072 c 0.11762,2.50584 -1.81842,4.63257 -4.32426,4.75019 -2.50584,0.11762 -4.63257,-1.81842 -4.75019,-4.32426 -0.11761,-2.50584 1.81842,-4.63257 4.32426,-4.75018 2.47807,-0.11632 4.59109,1.77712 4.74629,4.25305"
       sodipodi:ry="4.5422168"
       sodipodi:rx="4.5422168"
       sodipodi:cy="550.65369"
       sodipodi:cx="226.69791"
       id="path2251"
       style="fill:#fcffff;fill-opacity:0.63478262;fill-rule:nonzero;stroke:none;stroke-linecap:butt;stroke-opacity:1"
       sodipodi:type="arc" />
    <path
       transform="translate(-0.63993,-31.35658)"
       sodipodi:open="true"
       sodipodi:end="12.503769"
       sodipodi:start="6.2362823"
       d="m 224.62668,519.19681 c 0.15504,3.30315 -2.397,6.10657 -5.70015,6.26161 -3.30316,0.15504 -6.10657,-2.397 -6.26162,-5.70015 -0.15504,-3.30315 2.39701,-6.10657 5.70016,-6.26161 3.26654,-0.15333 6.05188,2.34257 6.25647,5.6063"
       sodipodi:ry="5.9874678"
       sodipodi:rx="5.9874678"
       sodipodi:cy="519.47754"
       sodipodi:cx="218.6458"
       id="path2253"
       style="fill:#fcffff;fill-opacity:0.63478262;fill-rule:nonzero;stroke:none;stroke-linecap:butt;stroke-opacity:1"
       sodipodi:type="arc" />
    <path
       transform="translate(-4.769218,-23.51093)"
       sodipodi:open="true"
       sodipodi:end="12.503769"
       sodipodi:start="6.2362823"
       d="m 237.0159,501.49897 c 0.12297,2.61974 -1.90107,4.84314 -4.52081,4.96611 -2.61974,0.12296 -4.84314,-1.90108 -4.9661,-4.52082 -0.12297,-2.61974 1.90107,-4.84314 4.52081,-4.9661 2.59071,-0.1216 4.79977,1.8579 4.96202,4.44638"
       sodipodi:ry="4.7486811"
       sodipodi:rx="4.7486811"
       sodipodi:cy="501.72162"
       sodipodi:cx="232.27245"
       id="path2255"
       style="fill:#fcffff;fill-opacity:0.63478262;fill-rule:nonzero;stroke:none;stroke-linecap:butt;stroke-opacity:1"
       sodipodi:type="arc" />
    <path
       transform="translate(1.424714,-32.59537)"
       sodipodi:open="true"
       sodipodi:end="12.503769"
       sodipodi:start="6.2362823"
       d="m 221.738,482.11068 c 0.11227,2.39194 -1.73577,4.422 -4.1277,4.53427 -2.39194,0.11227 -4.422,-1.73576 -4.53427,-4.1277 -0.11227,-2.39194 1.73576,-4.422 4.1277,-4.53427 2.36543,-0.11103 4.3824,1.69634 4.53054,4.05974"
       sodipodi:ry="4.3357525"
       sodipodi:rx="4.3357525"
       sodipodi:cy="482.31396"
       sodipodi:cx="217.40701"
       id="path2259"
       style="fill:#fcffff;fill-opacity:0.63478262;fill-rule:nonzero;stroke:none;stroke-linecap:butt;stroke-opacity:1"
       sodipodi:type="arc" />
    <path
       transform="translate(-0.63993,-31.35658)"
       sodipodi:open="true"
       sodipodi:end="12.503769"
       sodipodi:start="6.2362823"
       d="m 224.21421,466.36131 c 0.14434,3.07535 -2.2317,5.68543 -5.30705,5.82978 -3.07534,0.14435 -5.68542,-2.2317 -5.82977,-5.30704 -0.14435,-3.07535 2.23169,-5.68543 5.30704,-5.82978 3.04126,-0.14275 5.63451,2.18102 5.82499,5.21966"
       sodipodi:ry="5.5745387"
       sodipodi:rx="5.5745387"
       sodipodi:cy="466.62268"
       sodipodi:cx="218.6458"
       id="path2261"
       style="fill:#fcffff;fill-opacity:0.63478262;fill-rule:nonzero;stroke:none;stroke-linecap:butt;stroke-opacity:1"
       sodipodi:type="arc" />
    <path
       transform="translate(-0.63993,-31.35658)"
       sodipodi:open="true"
       sodipodi:end="12.503769"
       sodipodi:start="6.2362823"
       d="m 214.71685,452.32173 c 0.14434,3.07535 -2.2317,5.68543 -5.30705,5.82978 -3.07534,0.14435 -5.68542,-2.2317 -5.82977,-5.30704 -0.14435,-3.07535 2.23169,-5.68543 5.30704,-5.82978 3.04126,-0.14275 5.63451,2.18101 5.82499,5.21966"
       sodipodi:ry="5.5745387"
       sodipodi:rx="5.5745387"
       sodipodi:cy="452.5831"
       sodipodi:cx="209.14844"
       id="path2263"
       style="fill:#fcffff;fill-opacity:0.63478262;fill-rule:nonzero;stroke:none;stroke-linecap:butt;stroke-opacity:1"
       sodipodi:type="arc" />
    <path
       transform="translate(-0.63993,-31.35658)"
       sodipodi:open="true"
       sodipodi:end="12.503769"
       sodipodi:start="6.2362823"
       d="m 232.4755,464.82574 c 0.0802,1.70853 -1.23983,3.15857 -2.94835,3.23877 -1.70853,0.0802 -3.15857,-1.23983 -3.23877,-2.94836 -0.0802,-1.70853 1.23983,-3.15857 2.94836,-3.23876 1.68959,-0.0793 3.13028,1.21167 3.2361,2.89981"
       sodipodi:ry="3.096966"
       sodipodi:rx="3.096966"
       sodipodi:cy="464.97095"
       sodipodi:cx="229.38194"
       id="path2265"
       style="fill:#fcffff;fill-opacity:0.63478262;fill-rule:nonzero;stroke:none;stroke-linecap:butt;stroke-opacity:1"
       sodipodi:type="arc" />
    <path
       transform="translate(-0.63993,-31.35658)"
       sodipodi:open="true"
       sodipodi:end="12.503769"
       sodipodi:start="6.2362823"
       d="m 225.04325,476.82005 c 0.0695,1.48072 -1.07452,2.73743 -2.55524,2.80693 -1.48072,0.0695 -2.73743,-1.07452 -2.80693,-2.55524 -0.0695,-1.48073 1.07452,-2.73743 2.55524,-2.80693 1.46432,-0.0687 2.71292,1.05011 2.80463,2.51317"
       sodipodi:ry="2.6840372"
       sodipodi:rx="2.6840372"
       sodipodi:cy="476.94589"
       sodipodi:cx="222.36217"
       id="path2267"
       style="fill:#fcffff;fill-opacity:0.63478262;fill-rule:nonzero;stroke:none;stroke-linecap:butt;stroke-opacity:1"
       sodipodi:type="arc" />
    <path
       transform="translate(-0.63993,-31.35658)"
       sodipodi:open="true"
       sodipodi:end="12.503769"
       sodipodi:start="6.2362823"
       d="m 206.04829,465.86777 c 0.0748,1.59463 -1.15718,2.948 -2.7518,3.02285 -1.59463,0.0748 -2.948,-1.15718 -3.02285,-2.7518 -0.0748,-1.59462 1.15718,-2.948 2.7518,-3.02285 1.57695,-0.074 2.9216,1.1309 3.02036,2.70649"
       sodipodi:ry="2.8905017"
       sodipodi:rx="2.8905017"
       sodipodi:cy="466.0033"
       sodipodi:cx="203.16096"
       id="path2269"
       style="fill:#fcffff;fill-opacity:0.63478262;fill-rule:nonzero;stroke:none;stroke-linecap:butt;stroke-opacity:1"
       sodipodi:type="arc" />
    <path
       transform="translate(-6.833862,-22.68507)"
       sodipodi:open="true"
       sodipodi:end="12.503769"
       sodipodi:start="6.2362823"
       d="m 226.28227,503.46364 c 0.0641,1.36682 -0.99187,2.52686 -2.35869,2.59101 -1.36682,0.0642 -2.52685,-0.99186 -2.59101,-2.35868 -0.0642,-1.36682 0.99186,-2.52686 2.35869,-2.59101 1.35167,-0.0634 2.50422,0.96933 2.58888,2.31984"
       sodipodi:ry="2.4775729"
       sodipodi:rx="2.4775729"
       sodipodi:cy="503.5798"
       sodipodi:cx="223.80742"
       id="path2271"
       style="fill:#fcffff;fill-opacity:0.63478262;fill-rule:nonzero;stroke:none;stroke-linecap:butt;stroke-opacity:1"
       sodipodi:type="arc" />
    <path
       transform="translate(-1.465788,-40.85394)"
       sodipodi:open="true"
       sodipodi:end="12.503769"
       sodipodi:start="6.2362823"
       d="m 227.52036,534.61072 c 0.0802,1.70852 -1.23983,3.15857 -2.94835,3.23876 -1.70853,0.0802 -3.15857,-1.23983 -3.23877,-2.94836 -0.0802,-1.70852 1.23983,-3.15857 2.94836,-3.23876 1.68959,-0.0793 3.13028,1.21167 3.2361,2.89981"
       sodipodi:ry="3.096966"
       sodipodi:rx="3.096966"
       sodipodi:cy="534.75592"
       sodipodi:cx="224.4268"
       id="path2273"
       style="fill:#fcffff;fill-opacity:0.63478262;fill-rule:nonzero;stroke:none;stroke-linecap:butt;stroke-opacity:1"
       sodipodi:type="arc" />
    <path
       transform="translate(2.931575,-42.77373)"
       sodipodi:open="true"
       sodipodi:end="12.503769"
       sodipodi:start="6.2362823"
       d="m 213.06808,538.13028 c 0.0748,1.59463 -1.15718,2.948 -2.7518,3.02285 -1.59463,0.0748 -2.948,-1.15717 -3.02285,-2.7518 -0.0748,-1.59462 1.15718,-2.948 2.7518,-3.02284 1.57695,-0.074 2.9216,1.13089 3.02037,2.70649"
       sodipodi:ry="2.8905017"
       sodipodi:rx="2.8905017"
       sodipodi:cy="538.26581"
       sodipodi:cx="210.18076"
       id="path2275"
       style="fill:#fcffff;fill-opacity:0.63478262;fill-rule:nonzero;stroke:none;stroke-linecap:butt;stroke-opacity:1"
       sodipodi:type="arc" />
    <path
       transform="translate(1.27986,-33.27637)"
       sodipodi:open="true"
       sodipodi:end="12.503769"
       sodipodi:start="6.2362823"
       d="m 226.28294,556.96695 c 0.0481,1.02512 -0.7439,1.89515 -1.76901,1.94326 -1.02512,0.0481 -1.89515,-0.74389 -1.94326,-1.76901 -0.0481,-1.02512 0.7439,-1.89514 1.76901,-1.94326 1.01376,-0.0476 1.87817,0.72701 1.94166,1.73989"
       sodipodi:ry="1.8581796"
       sodipodi:rx="1.8581796"
       sodipodi:cy="557.05408"
       sodipodi:cx="224.4268"
       id="path2277"
       style="fill:#fcffff;fill-opacity:0.63478262;fill-rule:nonzero;stroke:none;stroke-linecap:butt;stroke-opacity:1"
       sodipodi:type="arc" />
    <path
       transform="translate(4.542217,-27.92993)"
       sodipodi:open="true"
       sodipodi:end="12.503769"
       sodipodi:start="6.2362823"
       d="m 215.95473,571.2065 c 0.16573,3.53096 -2.56232,6.52772 -6.09327,6.69345 -3.53096,0.16573 -6.52771,-2.56232 -6.69345,-6.09327 -0.16573,-3.53095 2.56232,-6.52771 6.09327,-6.69345 3.49182,-0.16389 6.46926,2.50413 6.68795,5.99295"
       sodipodi:ry="6.4003963"
       sodipodi:rx="6.4003963"
       sodipodi:cy="571.50659"
       sodipodi:cx="209.56137"
       id="path2279"
       style="fill:#fcffff;fill-opacity:0.63478262;fill-rule:nonzero;stroke:none;stroke-linecap:butt;stroke-opacity:1"
       sodipodi:type="arc" />
    <path
       transform="translate(-0.63993,-31.35658)"
       sodipodi:open="true"
       sodipodi:end="12.503769"
       sodipodi:start="6.2362823"
       d="m 212.6538,502.1474 c 0.10692,2.27803 -1.65311,4.21143 -3.93114,4.31835 -2.27804,0.10693 -4.21143,-1.65311 -4.31835,-3.93114 -0.10693,-2.27804 1.6531,-4.21143 3.93114,-4.31835 2.25279,-0.10574 4.17371,1.61556 4.3148,3.86641"
       sodipodi:ry="4.1292882"
       sodipodi:rx="4.1292882"
       sodipodi:cy="502.341"
       sodipodi:cx="208.52905"
       id="path2319"
       style="fill:#fcffff;fill-opacity:0.63478262;fill-rule:nonzero;stroke:none;stroke-linecap:butt;stroke-opacity:1"
       sodipodi:type="arc" />
    <path
       transform="translate(-0.63993,-31.35658)"
       sodipodi:open="true"
       sodipodi:end="12.503769"
       sodipodi:start="6.2362823"
       d="m 215.95835,495.79541 c 0.0802,1.70853 -1.23983,3.15857 -2.94835,3.23876 -1.70853,0.0802 -3.15857,-1.23983 -3.23877,-2.94835 -0.0802,-1.70853 1.23983,-3.15857 2.94836,-3.23877 1.68959,-0.0793 3.13028,1.21168 3.2361,2.89981"
       sodipodi:ry="3.096966"
       sodipodi:rx="3.096966"
       sodipodi:cy="495.94061"
       sodipodi:cx="212.86479"
       id="path2321"
       style="fill:#fcffff;fill-opacity:0.63478262;fill-rule:nonzero;stroke:none;stroke-linecap:butt;stroke-opacity:1"
       sodipodi:type="arc" />
    <path
       transform="translate(-0.63993,-31.35658)"
       sodipodi:open="true"
       sodipodi:end="12.503769"
       sodipodi:start="6.2362823"
       d="m 231.23627,489.16921 c 0.0909,1.93633 -1.40514,3.57971 -3.34147,3.6706 -1.93633,0.0909 -3.57971,-1.40515 -3.67059,-3.34147 -0.0909,-1.93633 1.40514,-3.57972 3.34147,-3.6706 1.91487,-0.0899 3.54765,1.37323 3.66758,3.28645"
       sodipodi:ry="3.5098948"
       sodipodi:rx="3.5098948"
       sodipodi:cy="489.33377"
       sodipodi:cx="227.73024"
       id="path2323"
       style="fill:#fcffff;fill-opacity:0.63478262;fill-rule:nonzero;stroke:none;stroke-linecap:butt;stroke-opacity:1"
       sodipodi:type="arc" />
    <path
       sodipodi:open="true"
       sodipodi:end="12.503769"
       sodipodi:start="6.2362823"
       d="m 232.47255,428.15571 c 0.1497,3.18925 -2.31435,5.896 -5.5036,6.04569 -3.18925,0.1497 -5.89599,-2.31435 -6.04569,-5.5036 -0.14969,-3.18924 2.31435,-5.89599 5.5036,-6.04569 3.1539,-0.14803 5.8432,2.26179 6.04073,5.41298"
       sodipodi:ry="5.7810035"
       sodipodi:rx="5.7810035"
       sodipodi:cy="428.42676"
       sodipodi:cx="226.69791"
       id="path2325"
       style="fill:#fcffff;fill-opacity:0.63478262;fill-rule:nonzero;stroke:none;stroke-linecap:butt;stroke-opacity:1"
       sodipodi:type="arc" />
    <path
       transform="translate(-5.119442,-19.83784)"
       sodipodi:open="true"
       sodipodi:end="12.503769"
       sodipodi:start="6.2362823"
       d="m 225.04347,580.26842 c 0.0641,1.36682 -0.99187,2.52686 -2.35869,2.59101 -1.36682,0.0642 -2.52685,-0.99186 -2.59101,-2.35868 -0.0642,-1.36683 0.99186,-2.52686 2.35869,-2.59102 1.35167,-0.0634 2.50422,0.96934 2.58888,2.31985"
       sodipodi:ry="2.4775729"
       sodipodi:rx="2.4775729"
       sodipodi:cy="580.38458"
       sodipodi:cx="222.56862"
       id="path2327"
       style="fill:#fcffff;fill-opacity:0.63478262;fill-rule:nonzero;stroke:none;stroke-linecap:butt;stroke-opacity:1"
       sodipodi:type="arc" />
    <path
       transform="translate(-10.87881,-18.55798)"
       sodipodi:open="true"
       sodipodi:end="12.503769"
       sodipodi:start="6.2362823"
       d="m 239.49485,568.03862 c 0.0909,1.93633 -1.40514,3.57971 -3.34147,3.6706 -1.93633,0.0909 -3.57971,-1.40514 -3.6706,-3.34147 -0.0909,-1.93633 1.40514,-3.57971 3.34147,-3.6706 1.91487,-0.0899 3.54766,1.37323 3.66758,3.28645"
       sodipodi:ry="3.5098948"
       sodipodi:rx="3.5098948"
       sodipodi:cy="568.20319"
       sodipodi:cx="235.98882"
       id="path2329"
       style="fill:#fcffff;fill-opacity:0.63478262;fill-rule:nonzero;stroke:none;stroke-linecap:butt;stroke-opacity:1"
       sodipodi:type="arc" />
    <path
       transform="translate(1.27986,-33.27637)"
       sodipodi:open="true"
       sodipodi:end="12.503769"
       sodipodi:start="6.2362823"
       d="m 209.34968,535.77204 c 0.12296,2.61974 -1.90108,4.84314 -4.52082,4.96611 -2.61974,0.12296 -4.84314,-1.90107 -4.9661,-4.52081 -0.12297,-2.61974 1.90107,-4.84314 4.52081,-4.96611 2.59071,-0.1216 4.79977,1.8579 4.96203,4.44638"
       sodipodi:ry="4.7486811"
       sodipodi:rx="4.7486811"
       sodipodi:cy="535.99469"
       sodipodi:cx="204.60622"
       id="path2331"
       style="fill:#fcffff;fill-opacity:0.63478262;fill-rule:nonzero;stroke:none;stroke-linecap:butt;stroke-opacity:1"
       sodipodi:type="arc" />
    <path
       transform="translate(-0.63993,-31.35658)"
       sodipodi:open="true"
       sodipodi:end="12.503769"
       sodipodi:start="6.2362823"
       d="m 203.98319,483.60433 c 0.0855,1.82243 -1.32248,3.36914 -3.14491,3.45468 -1.82243,0.0855 -3.36914,-1.32248 -3.45468,-3.14491 -0.0855,-1.82243 1.32248,-3.36914 3.14491,-3.45468 1.80223,-0.0846 3.33897,1.29245 3.45184,3.09313"
       sodipodi:ry="3.3034303"
       sodipodi:rx="3.3034303"
       sodipodi:cy="483.75922"
       sodipodi:cx="200.6834"
       id="path2333"
       style="fill:#fcffff;fill-opacity:0.63478262;fill-rule:nonzero;stroke:none;stroke-linecap:butt;stroke-opacity:1"
       sodipodi:type="arc" />
    <path
       transform="translate(-0.63993,-31.35658)"
       sodipodi:open="true"
       sodipodi:end="12.503769"
       sodipodi:start="6.2362823"
       d="m 238.25651,437.98538 c 0.0802,1.70853 -1.23983,3.15857 -2.94836,3.23876 -1.70852,0.0802 -3.15857,-1.23983 -3.23876,-2.94835 -0.0802,-1.70853 1.23983,-3.15857 2.94835,-3.23877 1.6896,-0.0793 3.13029,1.21168 3.23611,2.89982"
       sodipodi:ry="3.096966"
       sodipodi:rx="3.096966"
       sodipodi:cy="438.13058"
       sodipodi:cx="235.16295"
       id="path2335"
       style="fill:#fcffff;fill-opacity:0.63478262;fill-rule:nonzero;stroke:none;stroke-linecap:butt;stroke-opacity:1"
       sodipodi:type="arc" />
    <path
       sodipodi:open="true"
       sodipodi:end="12.503769"
       sodipodi:start="6.2362823"
       d="m 218.0221,406.15116 c 0.10158,2.16413 -1.57045,4.00085 -3.73458,4.10243 -2.16414,0.10158 -4.00086,-1.57045 -4.10244,-3.73458 -0.10158,-2.16414 1.57045,-4.00086 3.73459,-4.10244 2.14015,-0.10045 3.96502,1.53479 4.09906,3.6731"
       sodipodi:ry="3.9228237"
       sodipodi:rx="3.9228237"
       sodipodi:cy="406.33508"
       sodipodi:cx="214.10359"
       id="path2337"
       style="fill:#fcffff;fill-opacity:0.63478262;fill-rule:nonzero;stroke:none;stroke-linecap:butt;stroke-opacity:1"
       sodipodi:type="arc" />
    <path
       transform="translate(-0.825858,0.825858)"
       sodipodi:open="true"
       sodipodi:end="12.503769"
       sodipodi:start="6.2362823"
       d="m 233.71225,397.6377 c 0.12831,2.73364 -1.98372,5.05371 -4.71737,5.18202 -2.73364,0.12831 -5.05371,-1.98373 -5.18202,-4.71737 -0.12831,-2.73364 1.98373,-5.05371 4.71737,-5.18202 2.70335,-0.12689 5.00846,1.93868 5.17777,4.6397"
       sodipodi:ry="4.9551458"
       sodipodi:rx="4.9551458"
       sodipodi:cy="397.87003"
       sodipodi:cx="228.76256"
       id="path2339"
       style="fill:#fcffff;fill-opacity:0.63478262;fill-rule:nonzero;stroke:none;stroke-linecap:butt;stroke-opacity:1"
       sodipodi:type="arc" />
    <path
       sodipodi:open="true"
       sodipodi:end="12.503769"
       sodipodi:start="6.2362823"
       d="m 216.93211,567.75504 c 0.0994,2.11821 -1.53712,3.91595 -3.65533,4.01538 -2.11821,0.0994 -3.91596,-1.53713 -4.01538,-3.65534 -0.0994,-2.11821 1.53712,-3.91596 3.65533,-4.01538 2.09474,-0.0983 3.88089,1.50222 4.01209,3.59515"
       sodipodi:ry="3.8395813"
       sodipodi:rx="3.8395813"
       sodipodi:cy="567.93506"
       sodipodi:cx="213.09676"
       id="path2347"
       style="fill:#fcffff;fill-opacity:0.63478262;fill-rule:nonzero;stroke:none;stroke-linecap:butt;stroke-opacity:1"
       sodipodi:type="arc" />
    <path
       sodipodi:end="7.3303829"
       sodipodi:start="1.055867"
       d="m 231.60656,586.94302 c -3.07594,1.74052 -6.98045,0.65794 -8.72097,-2.418 -1.74052,-3.07594 -0.65794,-6.98046 2.418,-8.72097 3.07595,-1.74052 6.98046,-0.65794 8.72098,2.418 1.72985,3.0571 0.67215,6.93715 -2.36984,8.69344 l -3.19965,-5.54195 z"
       sodipodi:ry="6.399302"
       sodipodi:rx="6.399302"
       sodipodi:cy="581.37354"
       sodipodi:cx="228.45508"
       id="path2353"
       style="fill:#fcffff;fill-opacity:0.63478262;fill-rule:nonzero;stroke:none;stroke-linecap:butt;stroke-opacity:1"
       sodipodi:type="arc" />
    <path
       sodipodi:end="7.3303829"
       sodipodi:start="1.055867"
       d="m 231.92171,578.54099 c -3.38354,1.91457 -7.6785,0.72373 -9.59307,-2.6598 -1.91457,-3.38354 -0.72373,-7.67851 2.6598,-9.59308 3.38354,-1.91457 7.67851,-0.72373 9.59308,2.65981 1.90284,3.36281 0.73937,7.63086 -2.60683,9.56278 l -3.51961,-6.09615 z"
       sodipodi:ry="7.0392323"
       sodipodi:rx="7.0392323"
       sodipodi:cy="572.41455"
       sodipodi:cx="228.45508"
       id="path2355"
       style="fill:#fcffff;fill-opacity:0.63478262;fill-rule:nonzero;stroke:none;stroke-linecap:butt;stroke-opacity:1"
       sodipodi:type="arc" />
    <path
       sodipodi:end="7.3303829"
       sodipodi:start="1.055867"
       d="m 213.39264,581.59859 c -1.53797,0.87026 -3.49023,0.32897 -4.36049,-1.209 -0.87026,-1.53798 -0.32897,-3.49023 1.209,-4.36049 1.53797,-0.87026 3.49023,-0.32897 4.36049,1.209 0.86493,1.52855 0.33608,3.46857 -1.18492,4.34672 l -1.59983,-2.77098 z"
       sodipodi:ry="3.199651"
       sodipodi:rx="3.199651"
       sodipodi:cy="578.81384"
       sodipodi:cx="211.81689"
       id="path2357"
       style="fill:#fcffff;fill-opacity:0.63478262;fill-rule:nonzero;stroke:none;stroke-linecap:butt;stroke-opacity:1"
       sodipodi:type="arc" />
  </g>
  <path
     sodipodi:type="arc"
     style="fill:url(#linearGradient1408);fill-opacity:1;fill-rule:nonzero;stroke:none;stroke-linecap:butt;stroke-opacity:1"
     id="path1396"
     sodipodi:cx="580.86157"
     sodipodi:cy="513.27716"
     sodipodi:rx="70.783569"
     sodipodi:ry="55.145088"
     d="M 615.72059,561.27145 A 70.783569,55.145088 0 1 1 616.05056,561.12508"
     sodipodi:start="1.055867"
     sodipodi:end="7.333688"
     sodipodi:open="true"
     transform="matrix(0.951515,-0.307602,0.307602,0.951515,-287.4641,657.3378)" />
</svg>
