<?xml version="1.0" encoding="UTF-8" standalone="no"?>
<!-- Created with Inkscape (http://www.inkscape.org/) -->

<svg
   xmlns:dc="http://purl.org/dc/elements/1.1/"
   xmlns:cc="http://creativecommons.org/ns#"
   xmlns:rdf="http://www.w3.org/1999/02/22-rdf-syntax-ns#"
   xmlns:svg="http://www.w3.org/2000/svg"
   xmlns="http://www.w3.org/2000/svg"
   xmlns:sodipodi="http://sodipodi.sourceforge.net/DTD/sodipodi-0.dtd"
   xmlns:inkscape="http://www.inkscape.org/namespaces/inkscape"
   width="56.548698"
   height="89.338753"
   id="svg4791"
   version="1.1"
   inkscape:version="0.47 r22583"
   sodipodi:docname="refridgerator.svg">
  <defs
     id="defs4793">
    <inkscape:perspective
       sodipodi:type="inkscape:persp3d"
       inkscape:vp_x="0 : 526.18109 : 1"
       inkscape:vp_y="0 : 1000 : 0"
       inkscape:vp_z="744.09448 : 526.18109 : 1"
       inkscape:persp3d-origin="372.04724 : 350.78739 : 1"
       id="perspective4799" />
    <inkscape:perspective
       id="perspective4734"
       inkscape:persp3d-origin="0.5 : 0.33333333 : 1"
       inkscape:vp_z="1 : 0.5 : 1"
       inkscape:vp_y="0 : 1000 : 0"
       inkscape:vp_x="0 : 0.5 : 1"
       sodipodi:type="inkscape:persp3d" />
  </defs>
  <sodipodi:namedview
     id="base"
     pagecolor="#ffffff"
     bordercolor="#666666"
     borderopacity="1.0"
     inkscape:pageopacity="0.0"
     inkscape:pageshadow="2"
     inkscape:zoom="0.35"
     inkscape:cx="28.27432"
     inkscape:cy="-183.90205"
     inkscape:document-units="px"
     inkscape:current-layer="layer1"
     showgrid="false"
     inkscape:window-width="613"
     inkscape:window-height="484"
     inkscape:window-x="2105"
     inkscape:window-y="512"
     inkscape:window-maximized="0" />
  <metadata
     id="metadata4796">
    <rdf:RDF>
      <cc:Work
         rdf:about="">
        <dc:format>image/svg+xml</dc:format>
        <dc:type
           rdf:resource="http://purl.org/dc/dcmitype/StillImage" />
        <dc:title />
      </cc:Work>
    </rdf:RDF>
  </metadata>
  <g
     inkscape:label="Layer 1"
     inkscape:groupmode="layer"
     id="layer1"
     transform="translate(-346.72568,-487.69281)">
    <path
       d="m 352.35688,494.01031 0.33624,-0.6275 3.25126,-1.21 5.48125,-1.60375 4.535,-1.53 4.30125,-1.28375 4.7525,0.525 4.83999,1.05 3.16376,0.5975 5.745,1.6325 7.82875,1.94 6.62,1.895 -0.19,6.8675 -0.875,20.615 -1.48625,19.46375 -1.24,19.465 -0.53875,0.525 -0.2625,3.77625 -13.88001,8.41125 -4.59249,2.45 -4.03875,-0.4375 -8.0625,-1.16625 -4.05375,-0.9475 -4.09625,-1.16625 -7.93125,-2.75625 -4.7825,-1.83625 -0.175,-1.26875 0.0288,-4.0675 -0.2475,-5.4675 0.20375,-5.33625 0.54,-8.2675 0.71375,-8.2225 0.75875,-8.20875 0.5825,-8.77625"
       style="fill:#000000;fill-opacity:1;fill-rule:nonzero;stroke:#000000;stroke-width:0.04375;stroke-linecap:butt;stroke-linejoin:bevel;stroke-miterlimit:4;stroke-opacity:1;stroke-dasharray:none"
       id="path3371" />
    <path
       d="m 371.71938,488.45531 -0.58375,-0.015 -0.5825,0.1025 -4.22875,1.1375 -4.16875,1.1375 -4.1125,1.32625 -4.02375,1.67625 5.19,1.28375 5.19125,1.195 5.24875,1.1525 5.40875,1.16625 5.1175,1.07875 5.045,0.97625 4.14,-1.37 4.19875,-1.21 4.185,-1.16625 4.21375,-1.1525 -5.2925,-1.2975 -5.26375,-1.53125 -4.84,-1.4425 -4.855,-1.16625 -4.92875,-0.9925 -5.05875,-0.88875 z"
       style="fill:#d2d2d2;fill-opacity:1;fill-rule:nonzero;stroke:#000000;stroke-width:0.04375;stroke-linecap:butt;stroke-linejoin:bevel;stroke-miterlimit:4;stroke-opacity:1;stroke-dasharray:none"
       id="path3373" />
    <path
       d="m 387.46563,500.38156 -0.91875,0.335 -0.62625,0.54 -0.24875,1.4875 -0.0438,4.475 -0.39374,3.485 -0.30625,3.47 -0.7725,20.93625 -0.97625,15.105 -1.18125,16.3875 -0.29125,4.49125 4.0675,-2.23125 4.0825,-2.21625 4.02374,-2.28875 3.96626,-2.46375 0.46625,-2.93125 1.195,-15.89125 0.9625,-12.90375 0.9475,-12.9175 0.83125,-12.96125 0.15999,-4.01 -0.0725,-4.00875 -1.85125,0.495 -13.02,3.61625 z"
       style="fill:#a3a3a3;fill-opacity:1;fill-rule:nonzero;stroke:#000000;stroke-width:0.04375;stroke-linecap:butt;stroke-linejoin:bevel;stroke-miterlimit:4;stroke-opacity:1;stroke-dasharray:none"
       id="path3375" />
    <path
       d="m 368.51188,499.90031 -0.0875,0.58375 0.015,0.5825 0.15999,0.49625 0.39376,0.39375 1.09375,0.53875 1.15125,0.33625 6.82375,1.4575 6.6775,1.385 0.2625,-0.75875 0.10125,-0.7725 -0.0138,-0.7725 -0.0588,-0.74375 -0.0875,-0.4075 -0.21875,-0.35 -0.31999,-0.2775 -0.35,-0.14625 -3.80625,-1.04875 -3.82,-0.86 -3.81875,-0.73 -3.80625,-0.67 -0.20376,0.4375 -0.0587,0.4375 -0.0138,0.45125 -0.015,0.4375 z"
       style="fill:#a8a8a8;fill-opacity:1;fill-rule:nonzero;stroke:#000000;stroke-width:0.04375;stroke-linecap:butt;stroke-linejoin:bevel;stroke-miterlimit:4;stroke-opacity:1;stroke-dasharray:none"
       id="path3377" />
    <path
       d="m 364.19563,496.95531 -2.58,-0.685 -2.55125,-0.67125 -2.5375,-0.495 -2.595,-0.205 -0.39375,0.205 -0.20375,0.46625 -0.0725,0.6125 -0.015,0.5825 0,0.21875 0.10249,0.205 0.13126,0.18875 0.0575,0.16125 0.0587,1.1225 -0.10249,1.1225 -0.21875,1.15125 -0.32,1.09375 -0.6275,2.46375 -0.26251,2.435 0.11751,0.16 0.26125,0.175 0.24874,0.23375 0.0725,0.30625 -0.13125,1.02 -0.2775,0.9775 -0.34875,0.9325 -0.33625,0.90375 -0.18875,0.59875 -0.1175,0.67 -0.0138,0.685 0.13125,0.68625 0.2325,0.4375 0.33625,0.2175 0.4075,0.03 0.4375,-0.13125 0.93375,-0.49625 0.78625,-0.56875 -0.0288,-0.71375 0,-0.715 0.11625,-0.685 0.30625,-0.6125 1.4875,-1.23875 1.6625,-0.875 1.8075,-0.58375 1.88124,-0.4225 1.09251,-0.0437 1.05,0.32125 0.9475,0.5825 0.81624,0.7875 0.55501,-0.2475 0.5975,-0.2625 0.21875,-0.16 0.15999,-0.205 0.0438,-0.2475 -0.10125,-0.335 -5.57001,-1.25375 -5.58374,-1.10875 -0.1025,-0.45125 -0.015,-0.4675 0.0875,-0.3925 0.23375,-0.23375 1.8075,-0.67125 1.89625,-0.45125 1.95375,-0.365 1.9675,-0.37875 1.3275,-0.30625 1.31125,-0.2775 1.1225,-0.2325 0.13125,-3.12 -0.27625,-0.365 -0.685,-0.53875 -0.83125,-0.2625 -0.90375,-0.1175 -0.905,-0.16 z"
       style="fill:#f9f9f9;fill-opacity:1;fill-rule:nonzero;stroke:#000000;stroke-width:0.04375;stroke-linecap:butt;stroke-linejoin:bevel;stroke-miterlimit:4;stroke-opacity:1;stroke-dasharray:none"
       id="path3379" />
    <path
       d="m 361.95063,503.44281 -5.05875,1.09375 -0.23375,0.4375 5.40999,1.545 7.34751,1.61875 4.885,1.19625 4.83999,1.16625 4.91376,1.02 0.47999,-0.81625 0.19,-0.90375 0.0288,-0.9625 -0.0138,-0.91875 -0.0587,-0.13125 -0.13125,0.015 -0.845,0.7575 -0.83125,0.8175 -0.29125,0.10125 -0.9625,-0.20375 0.9475,-0.9625 1.1075,-0.88875 0.365,-0.1175 0.7,0.6125 0.0875,-0.9475 -0.175,-0.46625 -0.30625,-0.2475 -3.58625,-1.00625 -3.5725,-0.81625 -3.61625,-0.7875 -3.7025,-0.81625 -0.77375,-0.23375 -0.78625,-0.16 -0.7875,-0.03 -0.7725,0.13125 -4.7975,0.90375 z"
       style="fill:#dbdbdb;fill-opacity:1;fill-rule:nonzero;stroke:#000000;stroke-width:0.04375;stroke-linecap:butt;stroke-linejoin:bevel;stroke-miterlimit:4;stroke-opacity:1;stroke-dasharray:none"
       id="path3381" />
    <path
       d="m 375.05813,504.87156 -1.195,1.02125 -1.34125,0.845 -0.32125,0.13125 -0.7,-0.13125 -0.365,-0.18875 1.29875,-0.9775 1.6475,-0.9175 0.97625,0.2175 z"
       style="fill:#000000;fill-opacity:1;fill-rule:nonzero;stroke:#000000;stroke-width:0.04375;stroke-linecap:butt;stroke-linejoin:bevel;stroke-miterlimit:4;stroke-opacity:1;stroke-dasharray:none"
       id="path3383" />
    <path
       d="m 371.15063,503.92406 0.2775,0.0738 0,0.29125 -1.1375,0.5975 -1.1225,0.685 -0.58375,0.2625 -0.5825,0.14625 -0.6125,-0.015 -0.64125,-0.21875 0.525,-0.525 0.62625,-0.36375 0.69999,-0.2625 1.06376,-0.40875 0.75875,-0.4075 0.72875,0.145 z"
       style="fill:#000000;fill-opacity:1;fill-rule:nonzero;stroke:#000000;stroke-width:0.04375;stroke-linecap:butt;stroke-linejoin:bevel;stroke-miterlimit:4;stroke-opacity:1;stroke-dasharray:none"
       id="path3385" />
    <path
       d="m 367.82688,503.22406 0.30625,0.1175 0.27624,0.16 -1.13624,0.58375 -1.18125,0.4375 -1.225,0.34875 -1.25375,0.30625 -1.1225,-0.0288 -1.1225,-0.46625 1.39875,-0.51 1.44375,-0.39375 1.50125,-0.32125 1.5175,-0.335 0.29125,-0.03 0.30625,0.13125 z"
       style="fill:#000000;fill-opacity:1;fill-rule:nonzero;stroke:#000000;stroke-width:0.04375;stroke-linecap:butt;stroke-linejoin:bevel;stroke-miterlimit:4;stroke-opacity:1;stroke-dasharray:none"
       id="path3387" />
    <path
       d="m 377.66813,505.64531 0.81625,0.0288 -2.26001,2.04125 -0.24749,0.0588 -0.91875,-0.24875 0.365,-0.51 1.48625,-1.05 0.75875,-0.32 z"
       style="fill:#000000;fill-opacity:1;fill-rule:nonzero;stroke:#000000;stroke-width:0.04375;stroke-linecap:butt;stroke-linejoin:bevel;stroke-miterlimit:4;stroke-opacity:1;stroke-dasharray:none"
       id="path3389" />
    <path
       d="m 382.10063,506.63656 -0.48125,0.685 -1.88125,1.37 -0.9625,-0.29125 0.91875,-1.09375 1.225,-0.86 0.0588,0.0438 1.1225,0.14625 z"
       style="fill:#000000;fill-opacity:1;fill-rule:nonzero;stroke:#000000;stroke-width:0.04375;stroke-linecap:butt;stroke-linejoin:bevel;stroke-miterlimit:4;stroke-opacity:1;stroke-dasharray:none"
       id="path3391" />
    <path
       d="m 366.06188,503.70531 -2.1275,0.65625 -0.715,0.4225 0.20375,0.1175 0.2775,-0.03 1.99749,-0.55375 1.92376,-0.71375 -0.37875,-0.175 -0.80125,0.13125 -0.38,0.145 z"
       style="fill:#f9f9f9;fill-opacity:1;fill-rule:nonzero;stroke:#000000;stroke-width:0.04375;stroke-linecap:butt;stroke-linejoin:bevel;stroke-miterlimit:4;stroke-opacity:1;stroke-dasharray:none"
       id="path3393" />
    <path
       d="m 372.71063,505.86406 -0.36376,0.21875 -0.32124,0.36375 0.0588,0.0588 0.145,0.13125 0.9625,-0.72875 0.97625,-0.73 -0.43625,0.03 -0.365,0.20375 -0.32125,0.2475 -0.335,0.205 z"
       style="fill:#a8a8a8;fill-opacity:1;fill-rule:nonzero;stroke:#000000;stroke-width:0.04375;stroke-linecap:butt;stroke-linejoin:bevel;stroke-miterlimit:4;stroke-opacity:1;stroke-dasharray:none"
       id="path3395" />
    <path
       d="m 376.42813,506.84031 -0.27625,0.20375 -0.205,0.2775 0.1025,0.1025 0.17499,0 0.4375,-0.365 0.35001,-0.4225 -0.0588,-0.0437 -0.13125,-0.0437 -0.16001,0.145 -0.23374,0.14625 z"
       style="fill:#a8a8a8;fill-opacity:1;fill-rule:nonzero;stroke:#000000;stroke-width:0.04375;stroke-linecap:butt;stroke-linejoin:bevel;stroke-miterlimit:4;stroke-opacity:1;stroke-dasharray:none"
       id="path3397" />
    <path
       d="m 380.33563,507.91906 0.51124,-0.39375 0.46626,-0.495 -0.0587,-0.0437 -0.13125,-0.0587 -1.00625,0.715 -0.86,0.7575 0.2925,0.0725 0.29125,-0.13125 0.2625,-0.2325 0.2325,-0.19 z"
       style="fill:#a8a8a8;fill-opacity:1;fill-rule:nonzero;stroke:#000000;stroke-width:0.04375;stroke-linecap:butt;stroke-linejoin:bevel;stroke-miterlimit:4;stroke-opacity:1;stroke-dasharray:none"
       id="path3399" />
    <path
       d="m 382.97437,508.59031 -0.31999,0.2475 -0.2625,0.2475 0.015,0.14625 0.0875,0.0437 0.85999,-0.525 0.70001,-0.74375 -0.0737,-0.0725 -0.11625,-0.015 -0.45251,0.335 -0.4375,0.33625 z"
       style="fill:#a8a8a8;fill-opacity:1;fill-rule:nonzero;stroke:#000000;stroke-width:0.04375;stroke-linecap:butt;stroke-linejoin:bevel;stroke-miterlimit:4;stroke-opacity:1;stroke-dasharray:none"
       id="path3401" />
    <path
       d="m 368.64313,508.82281 2.12875,0.715 4.46125,1.02 3.295,0.84625 1.76375,0.55375 1.54625,0.335 1.60375,0.30625 0.81625,0 -0.1025,-0.37875 -3.8925,-0.91875 -7.58125,-1.895 -3.87875,-1.065 -0.16,0.48125 z"
       style="fill:#a8a8a8;fill-opacity:1;fill-rule:nonzero;stroke:#000000;stroke-width:0.04375;stroke-linecap:butt;stroke-linejoin:bevel;stroke-miterlimit:4;stroke-opacity:1;stroke-dasharray:none"
       id="path3403" />
    <path
       d="m 382.87313,512.89156 -2.12875,-0.49625 -2.07,-0.56875 -1.26875,-0.30625 -1.26875,-0.27625 -1.385,-0.33625 -1.35625,-0.37875 -1.39875,-0.335 -1.44375,-0.21875 0.7875,0.48125 0.74375,0.53875 0.7725,0.4525 0.83125,0.27625 0.9475,0.0738 0.9475,0.0287 0.9325,0.1025 0.89,0.29125 0.6125,0.23375 0.64125,0.20375 0.6275,0.2625 0.5675,0.48125 -0.48,1.51625 -0.8025,1.34125 -1.09375,1.09375 -1.34125,0.83125 -0.495,-0.03 -0.58375,-0.16 -1.00625,-0.015 -0.99125,0.23375 -0.9625,0.18875 -0.9625,-0.11625 -0.97626,-0.5825 -0.94749,-0.68625 -0.99125,-0.5975 -1.09375,-0.29125 -0.93376,0.0588 -0.88874,0.30625 -0.81625,0.48 -0.7875,0.6125 -0.0587,-0.0725 -0.13125,-0.015 0.24875,-0.37875 0.36375,-0.23375 0.37875,-0.18875 0.2925,-0.2775 -0.015,-0.21875 -0.13125,-0.175 -0.175,-0.145 -0.175,-0.0438 -1.10751,0.18875 -1.10874,0.2925 -1.1225,0.2325 -1.16625,-0.0287 -1.3125,-0.4225 -1.21,-0.6425 -1.195,-0.62625 -1.26875,-0.365 -0.58375,0.0587 -0.5675,0.2625 -0.52501,0.4075 -0.46749,0.4525 1.6475,0.4525 1.575,0.61125 0.67125,0.0875 0.69874,-0.0875 0.68626,-0.0875 0.685,0.0875 1.21,0.525 1.13749,0.65625 0.97626,0.33625 0.99125,0.0575 1.00625,-0.0437 1.035,0.13125 1.10875,0.39375 1.02,0.54 0.9775,0.6125 1.005,0.61125 0.58375,0.205 0.58375,0.175 1.07875,0.2625 1.07875,-0.0588 1.12249,0.0588 1.1225,0.0437 0.70001,-0.015 0.66999,0.21875 0.51126,0.30625 0.52499,0.335 0.55376,0.2775 0.56874,0.145 1.3125,0.0438 1.32626,-0.2325 0.72875,0.0725 0.72875,0.21875 0.46624,0.16 0.42376,0.2775 0.4225,0.23375 0.4525,0.10125 0.0288,-2.4925 0.14624,-2.49375 0.10126,-2.4925 -0.0725,-2.47875 -0.19001,-0.23375 -0.36374,-0.13125 -0.42375,-0.0725 -0.4075,-0.0725 z"
       style="fill:#f9f9f9;fill-opacity:1;fill-rule:nonzero;stroke:#000000;stroke-width:0.04375;stroke-linecap:butt;stroke-linejoin:bevel;stroke-miterlimit:4;stroke-opacity:1;stroke-dasharray:none"
       id="path3405" />
    <path
       d="m 376.72063,512.59906 -0.74375,0.175 -0.6125,0.4375 -0.49625,0.58375 -0.39376,0.67 -0.34874,0.7 -0.2925,0.75875 -0.13125,0.72875 0.2775,0.64125 0.29125,0.175 0.4375,0.0725 0.46625,0.0438 0.4675,0.1175 0.82999,-1.065 0.86126,-1.02 0.80125,-1.05 0.72875,-1.16625 0.015,-0.19 -0.15999,-0.10125 -0.27751,-0.0875 -0.2475,-0.13125 -0.74374,-0.21875 -0.72875,-0.0738 z"
       style="fill:#b7b7b7;fill-opacity:1;fill-rule:nonzero;stroke:#000000;stroke-width:0.04375;stroke-linecap:butt;stroke-linejoin:bevel;stroke-miterlimit:4;stroke-opacity:1;stroke-dasharray:none"
       id="path3407" />
    <path
       d="m 377.90063,515.04906 -0.96125,1.1075 -0.8025,1.25375 0.0587,0.0438 0.13125,0.0437 0.9325,-0.67 0.72875,-0.81625 0.6425,-0.93375 0.525,-1.00625 0,-0.175 -0.0875,-0.13125 -0.6275,0.6125 -0.54,0.67125 z"
       style="fill:#8a8a8a;fill-opacity:1;fill-rule:nonzero;stroke:#000000;stroke-width:0.04375;stroke-linecap:butt;stroke-linejoin:bevel;stroke-miterlimit:4;stroke-opacity:1;stroke-dasharray:none"
       id="path3409" />
    <path
       d="m 366.83563,510.45656 -1.1525,0.7575 -0.74375,1.10875 -0.335,1.32625 0.0725,1.4 0.175,0.27625 0.2925,0.19 0.37875,0.13125 0.4375,0 0.18875,-0.20375 0.1025,-0.205 0.2475,-1.32625 0.4525,-1.23875 0.6125,-1.1525 0.74375,-1.06375 -0.74375,-0.14625 -0.72875,0.14625 z"
       style="fill:#b7b7b7;fill-opacity:1;fill-rule:nonzero;stroke:#000000;stroke-width:0.04375;stroke-linecap:butt;stroke-linejoin:bevel;stroke-miterlimit:4;stroke-opacity:1;stroke-dasharray:none"
       id="path3411" />
    <path
       d="m 367.70938,509.27531 -0.43625,0.0437 -0.4525,0.0725 -0.4225,0.14625 -0.33625,0.335 0.1175,0.21875 0.175,0.0725 0.18875,-0.145 0.205,-0.14625 0.36375,-0.015 0.36499,0.16125 0.37876,0.16 0.35,-0.015 0.37875,-0.10125 0.39375,-0.0738 0.37875,-0.10125 0.32125,-0.205 -0.9475,-0.36375 -1.02125,-0.0437 z"
       style="fill:#f9f9f9;fill-opacity:1;fill-rule:nonzero;stroke:#000000;stroke-width:0.04375;stroke-linecap:butt;stroke-linejoin:bevel;stroke-miterlimit:4;stroke-opacity:1;stroke-dasharray:none"
       id="path3413" />
    <path
       d="m 360.98813,508.66281 -2.18625,0.5975 -1.9825,1.1225 -1.61875,1.63375 -0.015,0.36375 0.0738,0.13125 0.13,0 0.74375,-0.39375 1.09375,-0.53875 0.4525,-0.49625 0.2625,-0.145 0.4375,-0.1175 0.87374,0.1175 0.4375,0.10125 0.14626,0.24875 -0.0437,0.2325 -0.54,0.49625 -0.2325,0.495 0,0.59875 -0.03,1.23875 0.21875,0.6125 0.19,0.36375 0.35,0.6125 0.35,0.0875 0.99125,-0.0137 0.99125,-0.205 0.9625,-0.29125 0.9475,-0.365 0.1025,-0.81625 0.13125,-1.6475 0.27625,-0.7575 0.32125,-0.35 0.67125,-0.6275 0.175,-0.30625 -0.21875,-0.80125 -0.56875,-0.6125 -0.7875,-0.4375 -0.875,-0.20375 -2.23125,0.0725 z"
       style="fill:#dedede;fill-opacity:1;fill-rule:nonzero;stroke:#000000;stroke-width:0.04375;stroke-linecap:butt;stroke-linejoin:bevel;stroke-miterlimit:4;stroke-opacity:1;stroke-dasharray:none"
       id="path3415" />
    <path
       d="m 358.69938,511.27281 0.1025,0.30625 0.10125,0.0575 0.14625,-0.0137 0.0588,-0.1025 -0.10251,-0.10125 -0.30624,-0.14625 z"
       style="fill:#dbdbdb;fill-opacity:1;fill-rule:nonzero;stroke:#000000;stroke-width:0.04375;stroke-linecap:butt;stroke-linejoin:bevel;stroke-miterlimit:4;stroke-opacity:1;stroke-dasharray:none"
       id="path3417" />
    <path
       d="m 358.13062,511.24406 0.10251,0.2475 0.0725,0.2625 0.1025,0.2325 0.21875,0.13125 0.13124,-0.0575 0.0588,-0.13125 -0.03,-0.2625 -0.11624,-0.2625 -0.21875,-0.19 -0.32126,0.03 z"
       style="fill:#dbdbdb;fill-opacity:1;fill-rule:nonzero;stroke:#000000;stroke-width:0.04375;stroke-linecap:butt;stroke-linejoin:bevel;stroke-miterlimit:4;stroke-opacity:1;stroke-dasharray:none"
       id="path3419" />
    <path
       d="m 357.75188,511.63656 0.14625,0.56875 0.2625,0.49625 0.13125,-0.35 -0.03,-0.40875 -0.16,-0.4075 -0.2625,-0.29125 -0.0875,0.0437 -0.0875,0.145 0.0588,0.0875 0.0288,0.11625 z"
       style="fill:#dbdbdb;fill-opacity:1;fill-rule:nonzero;stroke:#000000;stroke-width:0.04375;stroke-linecap:butt;stroke-linejoin:bevel;stroke-miterlimit:4;stroke-opacity:1;stroke-dasharray:none"
       id="path3421" />
    <path
       d="m 357.35813,511.92906 0.2775,0.80125 0.30625,0.75875 0.16,-0.46625 -0.14625,-0.51125 -0.2325,-0.51 -0.175,-0.48125 -0.175,0.175 -0.015,0.23375 z"
       style="fill:#dbdbdb;fill-opacity:1;fill-rule:nonzero;stroke:#000000;stroke-width:0.04375;stroke-linecap:butt;stroke-linejoin:bevel;stroke-miterlimit:4;stroke-opacity:1;stroke-dasharray:none"
       id="path3423" />
    <path
       d="m 356.96438,512.41031 0.0437,0.4075 0.13125,0.39375 0.19,0.2625 0.21875,0.015 0.13125,-0.23375 -0.1025,-0.37875 -0.21875,-0.40875 -0.20375,-0.35 -0.13125,0.14625 -0.0587,0.14625 z"
       style="fill:#dbdbdb;fill-opacity:1;fill-rule:nonzero;stroke:#000000;stroke-width:0.04375;stroke-linecap:butt;stroke-linejoin:bevel;stroke-miterlimit:4;stroke-opacity:1;stroke-dasharray:none"
       id="path3425" />
    <path
       d="m 356.77563,513.09531 0.0875,0.1025 0.10125,-0.1025 -0.18875,0 z"
       style="fill:#ffffff;fill-opacity:1;fill-rule:nonzero;stroke:#000000;stroke-width:0.04375;stroke-linecap:butt;stroke-linejoin:bevel;stroke-miterlimit:4;stroke-opacity:1;stroke-dasharray:none"
       id="path3427" />
    <path
       d="m 369.59063,504.58031 -0.96251,0.51 -0.80124,0.58375 0.10125,0.0725 0.19,0 1.4,-0.7725 1.32625,-0.7725 -0.29125,-0.0875 -0.35,0.1025 -0.30625,0.18875 -0.30625,0.175 z"
       style="fill:#a8a8a8;fill-opacity:1;fill-rule:nonzero;stroke:#000000;stroke-width:0.04375;stroke-linecap:butt;stroke-linejoin:bevel;stroke-miterlimit:4;stroke-opacity:1;stroke-dasharray:none"
       id="path3429" />
    <path
       d="m 365.45063,519.04406 -1.05,-0.4675 -1.8525,0.0588 -0.88876,0.0287 -0.875,-0.18875 -1.03499,-0.685 -1.02,-0.58375 -1.5175,-0.19 -1.53,0.0875 -0.6125,-0.0875 -1.1225,-0.685 -0.59751,-0.30625 -0.99249,0.0588 -0.685,0.62625 1.385,0.68625 2.98875,0.96125 4.01,1.4 4.2425,1.28375 1.85125,0.5675 3.76249,1.1525 3.77626,0.99125 2.44875,0.29125 3.5575,0.8025 3.5725,0.5825 0.64125,-0.495 0.0587,-0.7875 -1.09375,-0.90375 -1.37125,-0.56875 -0.86,-0.0438 -1.6475,0.19 -1.705,-0.1025 -1.63375,-0.83125 -1.85125,-0.40875 -1.9825,0.0438 -0.9775,-0.0138 -1.16625,-0.23375 -2.1575,-1.02 -2.07,-1.21 z"
       style="fill:#dbdbdb;fill-opacity:1;fill-rule:nonzero;stroke:#000000;stroke-width:0.04375;stroke-linecap:butt;stroke-linejoin:bevel;stroke-miterlimit:4;stroke-opacity:1;stroke-dasharray:none"
       id="path3431" />
    <path
       d="m 367.22938,522.48406 -4.025,-1.22375 -3.8925,-1.3275 -3.9075,-1.2825 -4.02376,-1.1525 -0.20374,0.0438 -0.23376,0.1175 -0.20374,0.11625 -0.0437,0.11625 0.32,0.35 0.4675,0.2475 0.53875,0.175 0.54,0.205 4.5925,1.4575 4.5925,1.4725 5.05875,1.44375 5.1175,1.2975 5.08875,1.23875 5.08875,1.00625 0.37874,-0.0287 0.26251,-0.16 0.4375,-0.49625 0.0137,-0.175 -0.11624,-0.11625 -4.0525,-0.75875 -3.95125,-0.7575 -3.9075,-0.83125 -3.93625,-0.9775 z"
       style="fill:#a3a3a3;fill-opacity:1;fill-rule:nonzero;stroke:#000000;stroke-width:0.04375;stroke-linecap:butt;stroke-linejoin:bevel;stroke-miterlimit:4;stroke-opacity:1;stroke-dasharray:none"
       id="path3433" />
    <path
       d="m 383.57312,526.75656 -0.18999,0.2325 -0.21875,6.605 -0.37875,6.59 -1.37125,15.7025 -1.48625,15.7175 0.83125,-0.03 0.16,-0.18875 0.7875,-6.94 0.495,-6.94 0.2925,-6.72125 0.45124,-6.6925 0.51001,-6.6625 0.40874,-6.72125 0.10251,-1.765 0.21875,-2.28875 -0.61251,0.1025 z"
       style="fill:#a3a3a3;fill-opacity:1;fill-rule:nonzero;stroke:#000000;stroke-width:0.04375;stroke-linecap:butt;stroke-linejoin:bevel;stroke-miterlimit:4;stroke-opacity:1;stroke-dasharray:none"
       id="path3435" />
    <path
       d="m 380.10313,526.84406 -3.485,-0.64125 -4.38875,-1.1525 -4.35875,-1.07875 -4.33,-1.1375 -7.5675,-2.435 -4.9575,-1.735 -0.4075,0 -0.37875,5.08875 -1.98375,18.19625 -0.39375,5.2775 -0.2325,5.23375 -0.0875,5.205 0.0437,5.22 3.7025,2.20125 3.9225,1.70625 5.875,1.7925 5.905,1.53125 5.94875,1.1225 6.03625,0.64125 0.30625,-3.615 0.685,-5.8175 0.83125,-6.99875 0.99125,-9.05375 0.5975,-8.20875 0.35,-5.73 0.015,-3.47 -0.35,-1.705 -0.16,-0.0588 -2.12875,-0.37875 z"
       style="fill:#d2d2d2;fill-opacity:1;fill-rule:nonzero;stroke:#000000;stroke-width:0.04375;stroke-linecap:butt;stroke-linejoin:bevel;stroke-miterlimit:4;stroke-opacity:1;stroke-dasharray:none"
       id="path3437" />
    <path
       d="m 355.68188,513.86781 0.2625,0.39375 0.39375,0.335 0.495,0.2625 1.10875,0.4525 1.07875,0.4225 -0.0725,-0.6275 -0.21875,-0.53875 0,-1.37 -0.0738,-0.1175 -0.0725,0.0437 -0.0725,0.1175 -0.0738,0.0437 -0.0725,0.46625 -0.13125,0.2325 -0.4375,0.015 -0.84625,-0.365 -0.37875,-0.2325 -0.13125,-0.2625 0.1175,-0.30625 0.16,-0.30625 0.0587,-0.30625 -0.0737,-0.0875 -0.13125,-0.015 -0.36375,0.2625 -0.525,0.68625 -0.0875,0.335 0.0875,0.46625 z"
       style="fill:#dedede;fill-opacity:1;fill-rule:nonzero;stroke:#000000;stroke-width:0.04375;stroke-linecap:butt;stroke-linejoin:bevel;stroke-miterlimit:4;stroke-opacity:1;stroke-dasharray:none"
       id="path3439" />
    <path
       d="m 366.74813,515.04906 0,0.29125 1.07875,0.4525 1.06375,0.4375 0.72875,0.5825 0.74375,0.5975 0.7725,0.39375 0.8025,0.19 0.7725,-0.0725 0.65625,-0.365 0.0875,-0.365 0.0725,-0.45125 0.0437,-0.525 -0.0875,-0.48125 -0.37875,0.46625 0,0.6125 -0.10126,0.37875 -0.39374,0.30625 -0.33625,0.015 -0.32,-0.015 -0.2925,-0.10125 -0.30625,-0.2925 -0.655,0.015 -0.4375,-0.30625 -0.14625,-0.48125 -0.14625,-0.39375 -0.37875,-0.0725 -0.40875,-0.21875 -0.0725,-0.48125 0.20375,-0.365 0.365,-0.20375 0.49625,-0.0287 0.18875,0.13125 0.0587,0.2325 0.0588,0.2625 0.0725,0.24875 0.19,0.0438 0.2325,-0.0738 0.2625,-0.0575 0.29125,0.0875 0.24875,0.27625 0.21875,0.23375 0.30625,0.015 0.0575,-0.13125 -0.0575,-0.205 0.0138,-0.18875 0.4225,-0.48125 0.65625,-0.1025 0.19,0.19 0.1025,0.18875 0.88875,-1.50125 1.26875,-1.225 -0.49626,-0.13125 -0.49499,-0.0438 -0.48125,0.015 -0.48125,-0.0437 -0.9775,-0.29125 -0.88875,-0.46625 -0.89,-0.555 -0.96125,-0.4375 -0.49625,-0.16 -0.49625,0.0588 -1.005,0.875 -0.72875,1.0925 -0.4675,1.26875 -0.2325,1.35625 z"
       style="fill:#eaeaea;fill-opacity:1;fill-rule:nonzero;stroke:#000000;stroke-width:0.04375;stroke-linecap:butt;stroke-linejoin:bevel;stroke-miterlimit:4;stroke-opacity:1;stroke-dasharray:none"
       id="path3441" />
    <path
       d="m 368.99313,511.72406 0.0875,-0.16 0.0875,-0.18875 0.0875,-0.13125 0.13126,0 0.495,0.0437 0.49624,0.145 0.36501,0.29125 0.10125,0.49625 -0.145,0.23375 -0.23375,0.13125 -0.29125,0.0437 -0.30625,-0.03 0.18875,0.205 0.205,0.2325 0.0875,0.2625 -0.0875,0.19 -0.58375,-0.015 -0.58375,-0.18875 -0.0875,0.11625 -0.0138,0.175 0.55375,0.37875 0.715,-0.0725 0,0.18875 -0.39375,0.13125 -0.40875,0.015 -0.37875,-0.11625 -0.2775,-0.33625 -0.0725,-0.35 0.1025,-0.335 0.2175,-0.27625 0.33625,-0.205 -0.30625,-0.11625 -0.19,-0.0725 -0.0875,0.13125 -0.18875,0.30625 -0.24875,0.39375 -0.2475,0.335 -0.14625,0.0438 -0.0437,-0.13125 0.49625,-0.89 0.56875,-0.875 z"
       style="fill:#000000;fill-opacity:1;fill-rule:nonzero;stroke:#000000;stroke-width:0.04375;stroke-linecap:butt;stroke-linejoin:bevel;stroke-miterlimit:4;stroke-opacity:1;stroke-dasharray:none"
       id="path3443" />
    <path
       d="m 372.02563,512.51156 0.23375,0.40875 -0.03,0.4075 -0.0875,0.365 0.0875,0.37875 0.0875,-0.0875 0.1025,0 0.11625,0.30625 0.2775,0.175 0.29125,0 0.20375,-0.20375 -0.0138,-0.2775 -0.33625,-0.29125 -0.34875,-0.29125 0.10125,-0.4375 0.39375,-0.2625 0.35,-0.0287 0.2775,0.145 0.21875,0.2775 0.13125,0.30625 -0.1175,0.0725 -0.18875,0.015 -0.0737,-0.30625 -0.21875,-0.19 -0.175,0.03 -0.20375,0.0575 -0.14625,0.13125 0.045,0.19 0.32,0.18875 0.2775,0.2925 -0.0588,0.51 -0.35,0.36375 -0.64125,-0.11625 -0.42251,-0.56875 -0.17499,0.21875 -0.23375,0.0738 0.0288,-0.13125 -0.10125,-0.0587 -0.24875,-0.0288 -0.2325,0.0288 -0.21875,-0.0588 -0.19,-0.2325 -0.0138,-0.23375 0.17374,-0.2475 0.39376,-0.2625 0.6125,-0.19 -0.18875,-0.18875 -0.26251,-0.015 -0.26249,0.14625 -0.19,0.145 -0.0588,-0.0137 0.0875,-0.32125 0.16125,-0.14625 0.29125,-0.10125 0.30625,-0.015 0.21875,0.0725 z"
       style="fill:#000000;fill-opacity:1;fill-rule:nonzero;stroke:#000000;stroke-width:0.04375;stroke-linecap:butt;stroke-linejoin:bevel;stroke-miterlimit:4;stroke-opacity:1;stroke-dasharray:none"
       id="path3445" />
    <path
       d="m 379.85437,519.53906 1.53125,-1.09375 1.48751,-1.15125 0.145,0.0438 0.0588,0.0725 -1.60375,1.25375 -1.53125,1.28375 0.13125,0.0588 -0.0288,0.13 -0.99125,0.905 -1.065,0.7575 -0.11625,-0.29125 0.0288,-0.29125 0.89,-0.905 1.06374,-0.7725 z"
       style="fill:#000000;fill-opacity:1;fill-rule:nonzero;stroke:#000000;stroke-width:0.04375;stroke-linecap:butt;stroke-linejoin:bevel;stroke-miterlimit:4;stroke-opacity:1;stroke-dasharray:none"
       id="path3447" />
    <path
       d="m 370.84438,519.26281 0.48125,-0.2775 0.51,-0.21875 -0.2325,0.4225 -0.715,0.49625 -0.335,0.2625 -0.14625,-0.0288 -0.145,-0.175 0.29125,-0.2775 0.29125,-0.20375 z"
       style="fill:#000000;fill-opacity:1;fill-rule:nonzero;stroke:#000000;stroke-width:0.04375;stroke-linecap:butt;stroke-linejoin:bevel;stroke-miterlimit:4;stroke-opacity:1;stroke-dasharray:none"
       id="path3449" />
    <path
       d="m 377.90063,533.05531 0.365,-0.56875 0.91875,-0.365 1.25375,0.64125 0.11625,0.365 -0.0137,0.6125 0.29125,0.37875 0.21875,1.37 -0.21875,0.6125 -0.49625,0.48125 -0.0725,1.45875 -0.16,2.93 0.145,1.4575 0.16125,0.365 0.27625,0.35 0.21875,0.39375 0.015,0.46625 -0.37875,0.525 -0.39375,0.4525 -0.14625,0.35 -0.0587,0.4075 -0.27625,0.6125 -0.525,0.19 -1.225,-0.2625 -0.51,-0.42375 -0.16,-3.1925 0,-3.16375 0.20375,-3.1925 0.45125,-3.25125 z"
       style="fill:#000000;fill-opacity:1;fill-rule:nonzero;stroke:#000000;stroke-width:0.04375;stroke-linecap:butt;stroke-linejoin:bevel;stroke-miterlimit:4;stroke-opacity:1;stroke-dasharray:none"
       id="path3451" />
    <path
       d="m 380.04438,534.11906 0.0287,-0.45125 -0.15999,-0.365 -0.7575,-0.2475 -0.21875,-0.015 -0.23375,0.015 -0.20375,0.0725 -0.1175,0.21875 -0.32,1.4575 0.0288,1.4725 0.29125,0.365 0.49625,0.19 0.86,-0.24875 0.14625,-0.51 0.0725,-1.2825 0.0875,-0.67125 z"
       style="fill:#f9f9f9;fill-opacity:1;fill-rule:nonzero;stroke:#000000;stroke-width:0.04375;stroke-linecap:butt;stroke-linejoin:bevel;stroke-miterlimit:4;stroke-opacity:1;stroke-dasharray:none"
       id="path3453" />
    <path
       d="m 380.72937,534.90656 -0.0287,-0.29125 -0.16,-0.2925 -0.14625,0.68625 0.14625,0.685 0.16,-0.35 0.0287,-0.4375 z"
       style="fill:#f9f9f9;fill-opacity:1;fill-rule:nonzero;stroke:#000000;stroke-width:0.04375;stroke-linecap:butt;stroke-linejoin:bevel;stroke-miterlimit:4;stroke-opacity:1;stroke-dasharray:none"
       id="path3455" />
    <path
       d="m 380.04438,543.71281 -0.015,0.32 0.1175,0.16125 0.2625,-0.205 0.10125,-0.36375 -0.10125,-0.35 -0.2625,-0.14625 -0.1175,0.21875 0.015,0.365 z"
       style="fill:#f9f9f9;fill-opacity:1;fill-rule:nonzero;stroke:#000000;stroke-width:0.04375;stroke-linecap:butt;stroke-linejoin:bevel;stroke-miterlimit:4;stroke-opacity:1;stroke-dasharray:none"
       id="path3457" />
    <path
       d="m 371.92313,513.63406 -0.0575,-0.18875 -0.1175,-0.0587 -0.37875,0.1025 -0.20375,0.2325 0.0437,0.13125 0.145,0.0438 0.39375,0 0.1175,-0.10125 0.0575,-0.16125 z"
       style="fill:#eaeaea;fill-opacity:1;fill-rule:nonzero;stroke:#000000;stroke-width:0.04375;stroke-linecap:butt;stroke-linejoin:bevel;stroke-miterlimit:4;stroke-opacity:1;stroke-dasharray:none"
       id="path3459" />
    <path
       d="m 370.07188,511.63656 -0.32125,-0.0575 -0.29125,0.0725 -0.21875,0.14625 -0.0588,0.21875 0.0875,0.18875 0.20499,0.1025 0.27626,0.0437 0.32125,-0.0437 0.29125,-0.335 -0.29125,-0.33625 z"
       style="fill:#eaeaea;fill-opacity:1;fill-rule:nonzero;stroke:#000000;stroke-width:0.04375;stroke-linecap:butt;stroke-linejoin:bevel;stroke-miterlimit:4;stroke-opacity:1;stroke-dasharray:none"
       id="path3461" />
    <path
       d="m 371.13563,515.64656 -0.32001,0.0875 -0.23374,0.20375 -0.13125,0.2775 0,0.30625 0.2775,0.29125 0.40749,0 0.32126,-0.30625 0.19,-0.37875 -0.14625,-0.32125 -0.365,-0.16 z"
       style="fill:#b7b7b7;fill-opacity:1;fill-rule:nonzero;stroke:#000000;stroke-width:0.04375;stroke-linecap:butt;stroke-linejoin:bevel;stroke-miterlimit:4;stroke-opacity:1;stroke-dasharray:none"
       id="path3463" />
    <path
       d="m 369.96938,514.85906 -0.2325,0.0287 -0.20375,0.1025 -0.14625,0.16 0,0.19 0.14625,0.16 0.145,0.14625 0.365,-0.0588 0.21875,-0.2475 0.0437,-0.32125 -0.33625,-0.16 z"
       style="fill:#b7b7b7;fill-opacity:1;fill-rule:nonzero;stroke:#000000;stroke-width:0.04375;stroke-linecap:butt;stroke-linejoin:bevel;stroke-miterlimit:4;stroke-opacity:1;stroke-dasharray:none"
       id="path3465" />
    <path
       d="m 372.41938,516.23031 -0.4225,0.0875 -0.2775,0.3925 0,0.2775 0.20375,0.21875 0.4375,0 0.35,-0.30625 0,-0.4075 -0.29125,-0.2625 z"
       style="fill:#b7b7b7;fill-opacity:1;fill-rule:nonzero;stroke:#000000;stroke-width:0.04375;stroke-linecap:butt;stroke-linejoin:bevel;stroke-miterlimit:4;stroke-opacity:1;stroke-dasharray:none"
       id="path3467" />
    <path
       d="m 373.10438,515.15031 -0.32125,0.0738 -0.17375,0.32 0.13,0.13125 0.175,0.1025 0.205,0 0.175,-0.13125 0.0138,-0.2475 -0.20375,-0.24875 z"
       style="fill:#b7b7b7;fill-opacity:1;fill-rule:nonzero;stroke:#000000;stroke-width:0.04375;stroke-linecap:butt;stroke-linejoin:bevel;stroke-miterlimit:4;stroke-opacity:1;stroke-dasharray:none"
       id="path3469" />
    <path
       d="m 353.44062,494.48656 -0.67374,1.22125 -0.79875,5.27875 -0.2325,5.23375 -0.0875,5.205 0.0438,5.22 3.7025,2.20125 3.9225,1.70625 5.875,1.7925 5.90499,1.53125 5.94876,1.1225 6.5625,0.64125 0.30625,-3.615 0.28,-5.8175 0.5075,-6.99875 0.12625,-7.3925"
       style="fill:#d2d2d2;fill-opacity:1;fill-rule:nonzero;stroke:#000000;stroke-width:0.04375;stroke-linecap:butt;stroke-linejoin:bevel;stroke-miterlimit:4;stroke-opacity:1;stroke-dasharray:none"
       id="path3471" />
    <path
       d="m 378.38938,507.85406 0.36375,-0.56875 0.91875,-0.365 1.25375,0.64125 0.11625,0.365 -0.0138,0.6125 0.145,0.19 0.14625,0.18875 0.21875,1.37125 -0.21875,0.61125 -0.49625,0.48125 -0.0725,1.45875 -0.16,2.93 0.145,1.45875 0.16125,0.36375 0.27625,0.35 0.21875,0.39375 0.015,0.46625 -0.37875,0.525 -0.39375,0.4525 -0.14625,0.35 -0.0575,0.4075 -0.2775,0.6125 -0.525,0.19 -1.225,-0.2625 -0.51,-0.42375 -0.16,-3.1925 0,-3.16375 0.20375,-3.1925 0.4525,-3.25125 z"
       style="fill:#000000;fill-opacity:1;fill-rule:nonzero;stroke:#000000;stroke-width:0.04375;stroke-linecap:butt;stroke-linejoin:bevel;stroke-miterlimit:4;stroke-opacity:1;stroke-dasharray:none"
       id="path3473" />
    <path
       d="m 380.53188,508.91781 0.03,-0.45125 -0.16125,-0.365 -0.7575,-0.2475 -0.21875,-0.015 -0.23376,0.015 -0.20374,0.0725 -0.1175,0.21875 -0.32,1.4575 0.0288,1.4725 0.29125,0.365 0.49625,0.19 0.86,-0.24875 0.14625,-0.51 0.0725,-1.2825 0.0875,-0.67125 z"
       style="fill:#f9f9f9;fill-opacity:1;fill-rule:nonzero;stroke:#000000;stroke-width:0.04375;stroke-linecap:butt;stroke-linejoin:bevel;stroke-miterlimit:4;stroke-opacity:1;stroke-dasharray:none"
       id="path3475" />
  </g>
</svg>
