<?xml version="1.0" encoding="UTF-8" standalone="no"?>
<!-- Created with Inkscape (http://www.inkscape.org/) -->

<svg
   xmlns:dc="http://purl.org/dc/elements/1.1/"
   xmlns:cc="http://creativecommons.org/ns#"
   xmlns:rdf="http://www.w3.org/1999/02/22-rdf-syntax-ns#"
   xmlns:svg="http://www.w3.org/2000/svg"
   xmlns="http://www.w3.org/2000/svg"
   xmlns:xlink="http://www.w3.org/1999/xlink"
   xmlns:sodipodi="http://sodipodi.sourceforge.net/DTD/sodipodi-0.dtd"
   xmlns:inkscape="http://www.inkscape.org/namespaces/inkscape"
   sodipodi:docname="restore.svg"
   inkscape:version="0.48.4 r9939"
   version="1.1"
   id="svg8041"
   height="297mm"
   width="210mm"
   inkscape:export-filename="/home/adrie/Dropbox/BrouwHulp/Artwork/Flamini/restore.png"
   inkscape:export-xdpi="21"
   inkscape:export-ydpi="21">
  <sodipodi:namedview
     id="base"
     pagecolor="#ffffff"
     bordercolor="#666666"
     borderopacity="1.0"
     inkscape:pageopacity="0.0"
     inkscape:pageshadow="2"
     inkscape:zoom="4.2811217"
     inkscape:cx="298.26732"
     inkscape:cy="608.4172"
     inkscape:document-units="px"
     inkscape:current-layer="layer1"
     showgrid="false"
     inkscape:window-width="1920"
     inkscape:window-height="1012"
     inkscape:window-x="-4"
     inkscape:window-y="-6"
     inkscape:window-maximized="1"
     showguides="true"
     inkscape:guide-bbox="true" />
  <defs
     id="defs8043" />
  <metadata
     id="metadata8046">
    <rdf:RDF>
      <cc:Work
         rdf:about="">
        <dc:format>image/svg+xml</dc:format>
        <dc:type
           rdf:resource="http://purl.org/dc/dcmitype/StillImage" />
        <dc:title></dc:title>
      </cc:Work>
    </rdf:RDF>
  </metadata>
  <g
     id="layer1"
     inkscape:groupmode="layer"
     inkscape:label="Laag 1">
    <g
       id="g11015">
      <rect
         x="229.70665"
         y="376.23038"
         width="137.12134"
         height="135.42921"
         ry="2.3899138"
         rx="2.3899138"
         style="fill:#555753;fill-opacity:1;stroke:#555753;stroke-width:1.00002968;stroke-opacity:1"
         id="rect5388" />
      <rect
         id="rect5390-0"
         style="fill:#0a0000;fill-opacity:1;stroke:none"
         rx="1.4706914"
         ry="1.4706914"
         height="110.88316"
         width="111.72807"
         y="387.96805"
         x="244.05734" />
      <g
         transform="translate(-88.761783,-4.9052565)"
         id="g10991">
        <g
           id="g10965"
           transform="translate(88.5282,4.4380891)">
          <path
             inkscape:connector-curvature="0"
             id="rect5390"
             d="m 342.94662,383.3067 c 0,0 12.63593,5.34311 12.63593,5.34311 0.0854,0.0361 0.153,0.72315 0.15179,1.54039 0,0 -0.15789,106.94646 -0.15789,106.94646 -0.001,0.79738 -0.07,1.47428 -0.15439,1.51791 0,0 -12.4785,6.45011 -12.4785,6.45011 -0.1035,0.0535 -0.18694,-0.615 -0.18693,-1.49909 0,0 4.3e-4,-118.73886 4.3e-4,-118.73886 10e-6,-0.90858 0.0846,-1.60441 0.18956,-1.56003 0,0 0,0 0,0"
             inkscape:transform-center-x="56.114044"
             style="fill:#555753;fill-opacity:1;stroke:#c3c3c3;stroke-width:0.50001484;stroke-opacity:1" />
          <path
             inkscape:connector-curvature="0"
             id="rect5392"
             d="m 343.58774,417.30682 c 0,0 0.25396,0.041 0.25396,0.041 0.091,0.0147 0.16406,0.66197 0.16395,1.45122 0,0 -0.006,39.35817 -0.006,39.35817 -1.2e-4,0.78206 -0.073,1.4237 -0.16358,1.43882 0,0 -0.25275,0.0422 -0.25275,0.0422 -0.091,0.0152 -0.16438,-0.60488 -0.16431,-1.39046 0,0 0.003,-39.53634 0.003,-39.53634 6e-5,-0.79284 0.0738,-1.41933 0.16533,-1.40457 0,0 0,0 0,0"
             style="fill:#c3c3c3;fill-opacity:1" />
          <path
             inkscape:connector-curvature="0"
             style="fill:#c3c3c3;fill-opacity:1"
             sodipodi:nodetypes="ccccccccc"
             d="m 353.40725,426.15911 c 0,0 1.9683,0.19744 1.9683,0.19744 0,0 -0.008,5.62448 -0.008,5.62448 0,0 0.50569,0.0265 0.50569,0.0265 0,0 0.0326,-21.73511 0.0326,-21.73511 0,0 -0.5068,-0.12095 -0.5068,-0.12095 0,0 -0.01,6.67097 -0.01,6.67097 0,0 -1.97025,-0.35798 -1.97025,-0.35798 0,0 -0.0118,9.6947 -0.0118,9.6947"
             id="path5394" />
          <path
             d="m 353.35071,472.60552 c 0,0 1.95899,-0.5669 1.95899,-0.5669 0,0 -0.008,5.56609 -0.008,5.56609 0,0 0.50335,-0.16954 0.50335,-0.16954 0,0 0.0322,-21.51024 0.0322,-21.51024 0,0 -0.50446,0.077 -0.50446,0.077 0,0 -0.01,6.6016 -0.01,6.6016 0,0 -1.96091,0.4097 -1.96091,0.4097 0,0 -0.0117,9.5923 -0.0117,9.5923"
             inkscape:connector-curvature="0"
             style="fill:#c3c3c3;fill-opacity:1"
             sodipodi:nodetypes="ccccccccc"
             id="path5414" />
          <g
             id="g10850">
            <use
               x="0"
               y="0"
               inkscape:tiled-clone-of="#rect5422"
               width="86.768433"
               height="92.834732"
               transform="translate(0,8.7372297)"
               xlink:href="#rect5422"
               id="use5428" />
            <use
               x="0"
               y="0"
               inkscape:tiled-clone-of="#rect5422"
               width="86.768433"
               height="92.834732"
               transform="translate(0,17.47421)"
               xlink:href="#rect5422"
               id="use5430" />
            <use
               x="0"
               y="0"
               inkscape:tiled-clone-of="#rect5422"
               width="86.768433"
               height="92.834732"
               transform="translate(0,26.211939)"
               xlink:href="#rect5422"
               id="use5432" />
            <path
               style="fill:#c3c3c3;fill-opacity:1"
               d="m 345.78007,422.36131 c 0,0 0.73027,0.0907 0.73027,0.0907 0,0 -0.003,6.42787 -0.003,6.42787 0,0 -0.72975,-0.0534 -0.72975,-0.0534 0,0 0.002,-6.46515 0.002,-6.46515"
               id="rect5422"
               inkscape:connector-curvature="0" />
          </g>
          <path
             inkscape:connector-curvature="0"
             id="rect5450"
             d="m 345.78799,414.2757 c 0,0 2.80309,0.52705 2.80309,0.52705 0,0 -0.003,4.8028 -0.003,4.8028 0,0 -2.80159,-0.41821 -2.80159,-0.41821 0,0 0.002,-4.91164 0.002,-4.91164"
             style="fill:#ffffff;fill-opacity:1" />
          <g
             transform="matrix(1,0,0,0.9852887,1.0971725,6.4542388)"
             id="g10856">
            <use
               id="use10858"
               xlink:href="#rect5422"
               transform="translate(0,8.7372297)"
               height="92.834732"
               width="86.768433"
               inkscape:tiled-clone-of="#rect5422"
               y="0"
               x="0" />
            <use
               id="use10860"
               xlink:href="#rect5422"
               transform="translate(0,17.47421)"
               height="92.834732"
               width="86.768433"
               inkscape:tiled-clone-of="#rect5422"
               y="0"
               x="0" />
            <use
               id="use10862"
               xlink:href="#rect5422"
               transform="translate(0,26.211939)"
               height="92.834732"
               width="86.768433"
               inkscape:tiled-clone-of="#rect5422"
               y="0"
               x="0" />
            <path
               inkscape:connector-curvature="0"
               id="path10864"
               d="m 345.78007,422.36131 c 0,0 0.73027,0.0907 0.73027,0.0907 0,0 -0.003,6.42787 -0.003,6.42787 0,0 -0.72975,-0.0534 -0.72975,-0.0534 0,0 0.002,-6.46515 0.002,-6.46515"
               style="fill:#c3c3c3;fill-opacity:1" />
          </g>
          <g
             id="g10866"
             transform="matrix(1,0,0,0.9705774,2.1805664,12.908478)">
            <use
               x="0"
               y="0"
               inkscape:tiled-clone-of="#rect5422"
               width="86.768433"
               height="92.834732"
               transform="translate(0,8.7372297)"
               xlink:href="#rect5422"
               id="use10868" />
            <use
               x="0"
               y="0"
               inkscape:tiled-clone-of="#rect5422"
               width="86.768433"
               height="92.834732"
               transform="translate(0,17.47421)"
               xlink:href="#rect5422"
               id="use10870" />
            <use
               x="0"
               y="0"
               inkscape:tiled-clone-of="#rect5422"
               width="86.768433"
               height="92.834732"
               transform="translate(0,26.211939)"
               xlink:href="#rect5422"
               id="use10872" />
            <path
               style="fill:#c3c3c3;fill-opacity:1"
               d="m 345.78007,422.36131 c 0,0 0.73027,0.0907 0.73027,0.0907 0,0 -0.003,6.42787 -0.003,6.42787 0,0 -0.72975,-0.0534 -0.72975,-0.0534 0,0 0.002,-6.46515 0.002,-6.46515"
               id="path10874"
               inkscape:connector-curvature="0" />
          </g>
        </g>
        <rect
           ry="1.6186804"
           rx="1.4670215"
           y="387.36151"
           x="421.39685"
           height="122.37392"
           width="9.553031"
           id="rect10989"
           style="opacity:0.95744683;fill:#555753;fill-opacity:1;stroke:#c3c3c3;stroke-width:0.5238986;stroke-linecap:round;stroke-miterlimit:4;stroke-opacity:1;stroke-dasharray:none" />
      </g>
    </g>
  </g>
</svg>
