<svg xmlns="http://www.w3.org/2000/svg" xmlns:xlink="http://www.w3.org/1999/xlink" width="512" height="512">
 <defs>
  <linearGradient y1="92.5396" x2="0" y2="7.01654" id="0" gradientUnits="userSpaceOnUse" gradientTransform="scale(1.0058652,0.994169)">
   <stop/>
   <stop offset="1" stop-opacity="0.588235"/>
  </linearGradient>
  <filter color-interpolation-filters="sRGB">
   <feGaussianBlur stdDeviation="1.71"/>
  </filter>
  <linearGradient y2="7.01654" x2="0" y1="92.5396" gradientTransform="scale(1.0058652,0.994169)" gradientUnits="userSpaceOnUse" xlink:href="#0"/>
  <linearGradient id="1">
   <stop stop-color="#fff"/>
   <stop offset="1" stop-color="#d9d9d9"/>
  </linearGradient>
  <linearGradient xlink:href="#1" id="2" x1="98.08286" y1="70.933022" x2="443.67325" y2="416.52341" gradientUnits="userSpaceOnUse"/>
 </defs>
 <rect rx="147.5047" width="450" height="450" x="31" y="31" opacity="0.25" fill="#282629"/>
 <rect rx="147.5047" width="444" height="444" x="34" y="34" opacity="0.25" fill="#282629"/>
 <rect y="37" x="37" height="438" width="438" rx="147.5047" opacity="0.25" fill="#282629"/>
 <rect rx="147.5047" width="432" height="432" x="40" y="40" fill="url(#2)"/>
 <path d="M 268.53125 121.03125 C 179.55017 121.03125 107.4375 194.97455 107.4375 286.1875 C 107.4375 377.40043 179.55017 451.34375 268.53125 451.34375 L 400.03125 451.34375 C 413.91844 443.0822 426.31673 432.58977 436.75 420.375 L 268.53125 420.375 C 196.23413 420.375 137.625 360.29801 137.625 286.1875 C 137.625 212.07699 196.23413 151.96875 268.53125 151.96875 L 268.53125 121.03125 z" opacity="0.5" fill="#8db173" color="#000"/>
 <path d="M 268.53125 162.3125 C 201.79545 162.3125 147.71875 217.77778 147.71875 286.1875 C 147.71875 354.5972 201.79545 410.03125 268.53125 410.03125 L 444.8125 410.03125 C 451.58888 400.49461 457.2803 390.10947 461.65625 379.0625 L 268.53125 379.0625 C 218.47939 379.0625 177.90625 337.49477 177.90625 286.1875 C 177.90625 234.88022 218.47939 193.28125 268.53125 193.28125 C 280.6929 193.28125 292.24723 195.7648 302.84375 200.21875 L 314.3125 171.5 C 299.77349 165.39373 284.24327 162.3125 268.53125 162.3125 z" opacity="0.75" fill="#8db173" color="#000"/>
 <path d="M 268.53125 203.59375 C 224.04072 203.59375 188 240.58102 188 286.1875 C 188 331.79396 224.04072 368.75 268.53125 368.75 L 465.28125 368.75 C 468.37532 358.83847 470.45926 348.48406 471.40625 337.78125 L 268.53125 337.78125 C 240.72466 337.78125 218.1875 314.69154 218.1875 286.1875 C 218.1875 257.68345 240.72466 234.5625 268.53125 234.5625 C 282.43455 234.5625 294.9825 240.37897 304.09375 249.71875 L 325.5 227.78125 C 310.39259 212.29491 289.89636 203.59375 268.53125 203.59375 z" fill="#8db173" color="#000"/>
</svg>
