<svg xmlns="http://www.w3.org/2000/svg" xmlns:xlink="http://www.w3.org/1999/xlink" width="512" height="512">
 <defs>
  <linearGradient id="0">
   <stop stop-color="#424242"/>
   <stop offset="1" stop-color="#282629"/>
  </linearGradient>
  <radialGradient xlink:href="#0" id="1" gradientUnits="userSpaceOnUse" gradientTransform="matrix(0.87096775,0,0,0.87096775,33.032259,-437.60576)" cx="256" cy="796.36218" r="248"/>
 </defs>
 <rect rx="147.5047" width="450" height="450" x="31" y="31" opacity="0.25" fill="#282629"/>
 <rect rx="147.5047" width="444" height="444" x="34" y="34" opacity="0.25" fill="#282629"/>
 <rect y="37" x="37" height="438" width="438" rx="147.5047" opacity="0.25" fill="#282629"/>
 <rect rx="147.5047" y="40.43549" x="40.43549" height="431.12903" width="431.12903" fill="url(#1)" stroke="#282629" stroke-width="0.870968"/>
 <path d="M 406 74.84375 L 406 100.5625 L 442.65625 100.5625 L 442.65625 100 C 435.76924 90.70903 427.81499 82.26709 418.96875 74.84375 L 406 74.84375 z M 406 123.0625 L 406 148.75 L 442.65625 148.75 L 442.65625 123.0625 L 406 123.0625 z M 406 171.25 L 406 197 L 442.65625 197 L 442.65625 171.25 L 406 171.25 z M 406 219.5 L 406 245.1875 L 442.65625 245.1875 L 442.65625 219.5 L 406 219.5 z M 406 267.6875 L 406 293.40625 L 442.65625 293.40625 L 442.65625 267.6875 L 406 267.6875 z M 406 315.90625 L 406 341.625 L 442.65625 341.625 L 442.65625 315.90625 L 406 315.90625 z M 406 364.125 L 406 389.84375 L 442.65625 389.84375 L 442.65625 364.125 L 406 364.125 z M 406 412.34375 L 406 438.0625 L 417.875 438.0625 C 427.05135 430.51193 435.29367 421.88133 442.40625 412.34375 L 406 412.34375 z" fill="#fff8eb"/>
 <path d="M 93.03125 74.84375 C 84.18501 82.26709 76.23076 90.70903 69.34375 100 L 69.34375 100.5625 L 106 100.5625 L 106 74.84375 L 93.03125 74.84375 z M 69.34375 123.0625 L 69.34375 148.75 L 106 148.75 L 106 123.0625 L 69.34375 123.0625 z M 69.34375 171.25 L 69.34375 197 L 106 197 L 106 171.25 L 69.34375 171.25 z M 69.34375 219.5 L 69.34375 245.1875 L 106 245.1875 L 106 219.5 L 69.34375 219.5 z M 69.34375 267.6875 L 69.34375 293.40625 L 106 293.40625 L 106 267.6875 L 69.34375 267.6875 z M 69.34375 315.90625 L 69.34375 341.625 L 106 341.625 L 106 315.90625 L 69.34375 315.90625 z M 69.34375 364.125 L 69.34375 389.84375 L 106 389.84375 L 106 364.125 L 69.34375 364.125 z M 69.59375 412.34375 C 76.70633 421.88133 84.948646 430.51193 94.125 438.0625 L 106 438.0625 L 106 412.34375 L 69.59375 412.34375 z" fill="#fff8eb"/>
 <path d="m 363.92058 110.34358 0 54.27827 c -54.18994 0.9488 -67.50778 53.798 -67.50778 53.798 l 40.87204 0 0 54.27737 -63.37462 0 C 235.79362 390.29129 148.07942 379.8193 148.07942 379.8193 l 0 -54.27737 c 0 0 55.66006 10.3272 84.04029 -93.31531 35.50105 -129.64441 131.80087 -121.88304 131.80087 -121.88304 z" fill="#fff8eb"/>
</svg>
