<svg xmlns="http://www.w3.org/2000/svg" xmlns:xlink="http://www.w3.org/1999/xlink" width="512" height="512">
 <defs>
  <linearGradient id="0">
   <stop stop-color="#e16371"/>
   <stop offset="1" stop-color="#cd1d31"/>
  </linearGradient>
  <radialGradient xlink:href="#0" id="1" cx="256" cy="256" r="216" gradientUnits="userSpaceOnUse"/>
 </defs>
 <rect rx="147.5047" width="450" height="450" x="31" y="31" opacity="0.25" fill="#282629"/>
 <rect rx="147.5047" width="444" height="444" x="34" y="34" opacity="0.25" fill="#282629"/>
 <rect y="37" x="37" height="438" width="438" rx="147.5047" opacity="0.25" fill="#282629"/>
 <rect rx="147.5047" width="432" height="432" x="40" y="40" fill="url(#1)"/>
 <g transform="matrix(1.2931071,0,0,1.2931071,-96.464698,-101.34319)">
  <path d="m 325.73739 181.26451 -41.04269 0.50959 19.99209 13.66133 21.0506 -14.17094 z" fill="#fff8eb"/>
  <path d="m 342.9464 182.12694 -23.6182 13.95533 43.826 2.52842 -20.2078 -16.48375 z" fill="#fff8eb"/>
  <path d="m 269.8573 199.9043 c -5.83601 0.34421 -12.8249 2.42331 -20.6194 6.44846 -24.9425 12.8805 -48.42905 40.57888 -52.46966 61.81898 -4.04051 21.24009 12.88584 27.97263 37.82836 15.09213 24.9424 -12.8805 48.4291 -40.50047 52.4697 -61.74057 2.7778 -14.60255 -4.3696 -22.37656 -17.209 -21.619 z" fill="#fff8eb"/>
  <path d="m 306.6469 203.60874 -13.5242 36.22113 58.6046 -0.882 -45.0804 -35.33912 z" fill="#fff8eb"/>
  <path d="m 321.05299 204.54955 42.9244 34.98632 0.62721 -31.08588 -43.55161 -3.90044 z" fill="#fff8eb"/>
  <path d="m 361.2725 247.12113 -58.52611 0.94081 42.4932 29.79228 16.03291 -30.73309 z" fill="#fff8eb"/>
  <path d="m 290.0651 250.37477 c -39.7249 40.20369 -47.64481 54.99871 -95.45288 58.70253 -8.72688 -1.98949 -9.47971 -19.34714 -13.52413 -30.36067 l -0.54883 70.12944 c 0.78677 4.64263 6.51077 18.44876 25.63703 22.18741 48.46941 1.74704 98.40191 -2.67226 148.3342 -6.99727 5.6259 -32.3297 5.29281 -65.71678 6.76201 -98.76531 -21.52341 34.66742 -45.67091 58.94676 -70.933 78.87113 l 6.19359 -6.42886 44.45321 -54.66491 -50.9212 -32.67349 z" fill="#fff8eb"/>
 </g>
</svg>
