<svg xmlns="http://www.w3.org/2000/svg" xmlns:xlink="http://www.w3.org/1999/xlink" width="512" height="512">
 <defs>
  <linearGradient id="0">
   <stop stop-color="#f7a860"/>
   <stop offset="1" stop-color="#f38725"/>
  </linearGradient>
  <radialGradient xlink:href="#0" id="1" cx="256" cy="256" r="216" gradientUnits="userSpaceOnUse"/>
 </defs>
 <rect rx="147.5047" width="450" height="450" x="31" y="31" opacity="0.25" fill="#282629"/>
 <rect rx="147.5047" width="444" height="444" x="34" y="34" opacity="0.25" fill="#282629"/>
 <rect y="37" x="37" height="438" width="438" rx="147.5047" opacity="0.25" fill="#282629"/>
 <rect rx="147.5047" width="432" height="432" x="40" y="40" fill="url(#1)"/>
 <path d="m 237.96979 400.25112 c 0 -69.70902 -56.51067 -126.22005 -126.22005 -126.22005 l 0 -54.0937 c 99.58525 0 180.31499 80.72908 180.31499 180.31375 z m -90.15718 0 c -6.63897 0 -18.64488 -0.003 -36.01784 -0.0114 -0.0354 -17.39572 -0.0471 -29.40987 -0.0471 -36.05073 0 -19.91787 16.14583 -36.06254 36.06288 -36.06254 19.91728 0 36.063 16.14467 36.063 36.06254 0 19.91787 -16.14572 36.06252 -36.06301 36.06252 z m 198.34591 0 C 346.15852 270.79317 241.2112 165.843 111.74972 165.843 l 0 -54.09452 c 159.33598 0 288.50261 129.1667 288.50261 288.50264 z" fill="#fff8eb" fill-rule="evenodd"/>
</svg>
