<svg xmlns="http://www.w3.org/2000/svg" xmlns:xlink="http://www.w3.org/1999/xlink" width="512" height="512">
 <defs>
  <linearGradient id="0">
   <stop stop-color="#90aeec"/>
   <stop offset="1" stop-color="#6788cc"/>
  </linearGradient>
  <radialGradient xlink:href="#0" id="1" cx="201.63707" cy="187.79922" r="207.10425" gradientUnits="userSpaceOnUse"/>
  <path id="2" d="m 167.04101 414.85062 c 0 8.29901 -6.72768 15.0267 -15.0267 15.0267 -8.29902 0 -15.0267 -6.72769 -15.0267 -15.0267 0 -8.29902 6.72768 -15.02671 15.0267 -15.02671 8.29902 0 15.0267 6.72769 15.0267 15.02671 z" stroke="#fff8eb" fill-rule="evenodd" stroke-width="3.335653"/>
 </defs>
 <rect rx="147.5047" width="450" height="450" x="31" y="31" opacity="0.25" fill="#282629"/>
 <rect rx="147.5047" width="444" height="444" x="34" y="34" opacity="0.25" fill="#282629"/>
 <rect y="37" x="37" height="438" width="438" rx="147.5047" opacity="0.25" fill="#282629"/>
 <rect rx="147.5047" width="414.2085" height="414.2085" x="48.895752" y="48.895752" fill="url(#1)"/>
 <path d="m 63.57696 382.44158 388.08022 0 C 411.5897 313.24572 393.10547 221.26473 306.41757 251.2564 278.41068 263.91405 220.45205 336.01804 197.19736 318.32849 125.0226 236.24722 76.75992 317.16017 63.57696 382.44158 z" fill="#5c805a" stroke="#5c805a" stroke-width="4.332354"/>
 <path d="m 202.95807 136.86286 c 0 19.97618 -16.19387 36.17008 -36.17009 36.17008 -19.97618 0 -36.17008 -16.1939 -36.17008 -36.17008 0 -19.97622 16.1939 -36.17009 36.17008 -36.17009 19.97622 0 36.17009 16.19387 36.17009 36.17009 z" fill="#ffd459" fill-rule="evenodd" stroke="#ffd459" stroke-width="3.763757"/>
 <path d="m 50.6875 363.81724 c 11.00565 56.39615 71.84811 99.27651 145.71875 99.27651 l 119.1875 0 c 73.87064 0 134.7131 -42.88036 145.71875 -99.27651 l -410.625 0 z" fill="#5c805a" fill-rule="evenodd"/>
 <path d="m 284.27293 98.13025 c -1.60986 0.0204 -3.194 0.16236 -4.37145 0.42564 -5.76154 1.288296 -10.48544 4.257682 -13.87934 8.714132 l -1.30568 1.71407 -2.07068 0.0173 c -5.24572 0.0465 -10.04201 2.04645 -13.67228 5.70588 -2.13651 2.15367 -4.00568 5.13616 -4.79134 7.63852 -0.32878 1.04718 -0.33436 1.0498 -1.17339 1.16189 -1.47743 0.19739 -3.68742 0.81679 -4.91787 1.37471 -3.73018 1.69134 -6.96205 5.06921 -8.42655 8.80616 -1.56692 3.99832 -1.47011 8.84226 0.25309 12.64269 2.22219 4.90093 6.54992 8.30545 11.90644 9.36985 1.03501 0.20566 6.78368 0.25706 31.7275 0.27033 33.33707 0.0178 32.31009 0.0452 35.56978 -1.06409 11.39388 -3.87774 16.74363 -16.76244 11.44628 -27.58039 -2.2677 -4.63096 -6.20634 -8.12093 -11.17019 -9.89327 l -1.69682 -0.60395 -0.50041 -1.75432 c -2.44658 -8.50941 -9.69991 -15.06638 -18.38884 -16.628762 -1.29029 -0.232013 -2.92839 -0.336755 -4.53825 -0.316355 z" fill="#fff8eb"/>
 <path d="m 389.53934 122.84067 c -1.60986 0.0204 -3.194 0.16236 -4.37145 0.42564 -5.76154 1.2883 -10.48544 4.25768 -13.87934 8.71413 l -1.30568 1.71407 -2.07068 0.0173 c -5.24572 0.0465 -10.04201 2.04645 -13.67228 5.70588 -2.13651 2.15367 -4.00568 5.13616 -4.79134 7.63852 -0.32878 1.04718 -0.33436 1.0498 -1.17339 1.16189 -1.47743 0.19739 -3.68742 0.81679 -4.91787 1.37471 -3.73018 1.69134 -6.96205 5.06921 -8.42655 8.80616 -1.56692 3.99832 -1.47011 8.84226 0.25309 12.64269 2.22219 4.90093 6.54992 8.30545 11.90644 9.36985 1.03501 0.20566 6.78368 0.25706 31.7275 0.27033 33.33707 0.0178 32.31009 0.0452 35.56978 -1.06409 11.39388 -3.87774 16.74363 -16.76244 11.44628 -27.58039 -2.2677 -4.63096 -6.20634 -8.12093 -11.17019 -9.89327 l -1.69682 -0.60395 -0.50041 -1.75432 c -2.44658 -8.50941 -9.69991 -15.06638 -18.38884 -16.62876 -1.29029 -0.23201 -2.92839 -0.33675 -4.53825 -0.31635 z" fill="#fff8eb"/>
 <path d="m 124.05324 134.72225 c 1.60986 0.0204 3.194 0.16236 4.37145 0.42564 5.76154 1.2883 10.48544 4.25768 13.87934 8.71413 l 1.30568 1.71407 2.07068 0.0173 c 5.24572 0.0465 10.04201 2.04645 13.67228 5.70588 2.13651 2.15367 4.00568 5.13616 4.79134 7.63852 0.32878 1.04718 0.33436 1.0498 1.17339 1.16189 1.47743 0.19739 3.68742 0.81679 4.91787 1.37471 3.73018 1.69134 6.96205 5.06921 8.42655 8.80616 1.56692 3.99832 1.47011 8.84226 -0.25309 12.64269 -2.22219 4.90093 -6.54992 8.30545 -11.90644 9.36985 -1.03501 0.20566 -6.78368 0.25706 -31.7275 0.27033 -33.33707 0.0178 -32.31009 0.0452 -35.569776 -1.06409 -11.39388 -3.87774 -16.74363 -16.76244 -11.44628 -27.58039 2.2677 -4.63096 6.20634 -8.12093 11.17019 -9.89327 l 1.696816 -0.60395 0.50041 -1.75432 c 2.44658 -8.50941 9.69991 -15.06638 18.38884 -16.62876 1.29029 -0.23201 2.92839 -0.33675 4.53825 -0.31635 z" fill="#fff8eb"/>
 <path d="m 73.1875 384.70646 c 10.540163 25.61915 24.11288 47.69072 39.90625 64.99333 l 285.8125 0 c 15.79337 -17.30261 29.36609 -39.37418 39.90625 -64.99333 l -365.625 0 z" opacity="0.701422" fill="#282629" fill-rule="evenodd"/>
 <use transform="matrix(1.25837143 0 0 1.25837143 -21.925109 -107.30406)" fill="#0078ad" xlink:href="#2"/>
 <use transform="matrix(1.25837143 0 0 1.25837143 35.831317 -107.30406)" fill="#924565" xlink:href="#2"/>
 <use transform="matrix(1.25837143 0 0 1.25837143 93.58774 -107.30406)" fill="#cd1d31" xlink:href="#2"/>
 <use transform="matrix(1.25837143 0 0 1.25837143 151.34417 -107.30406)" fill="#49a026" xlink:href="#2"/>
 <path d="M 187.5 40 C 105.7824 40 40 105.7824 40 187.5 L 40 324.5 C 40 406.2176 105.7824 472 187.5 472 L 324.5 472 C 406.2176 472 472 406.2176 472 324.5 L 472 187.5 C 472 105.7824 406.2176 40 324.5 40 L 187.5 40 z M 191.46875 64.71875 L 320.53125 64.71875 C 390.74961 64.71875 447.28125 118.37218 447.28125 185.03125 L 447.28125 326.96875 C 447.28125 393.62782 390.74961 447.28125 320.53125 447.28125 L 191.46875 447.28125 C 121.25039 447.28125 64.71875 393.62782 64.71875 326.96875 L 64.71875 185.03125 C 64.71875 118.37218 121.25039 64.71875 191.46875 64.71875 z" fill="#bea68e"/>
</svg>
