<svg xmlns="http://www.w3.org/2000/svg" xmlns:xlink="http://www.w3.org/1999/xlink" width="512" height="512">
 <defs>
  <radialGradient xlink:href="#3" id="0" cx="253.17126" cy="326.09888" r="216" gradientUnits="userSpaceOnUse"/>
  <linearGradient y2="7.01654" x2="0" y1="92.5396" gradientTransform="scale(1.0058652,0.994169)" gradientUnits="userSpaceOnUse" xlink:href="#2"/>
  <filter x="-0.192" y="-0.192" width="1.384" height="1.384" color-interpolation-filters="sRGB">
   <feGaussianBlur stdDeviation="5.28"/>
  </filter>
  <clipPath>
   <rect width="84" height="84" rx="6" x="6" y="6" fill="#fff"/>
  </clipPath>
  <linearGradient id="1">
   <stop stop-color="#fff"/>
   <stop offset="1" stop-color="#fff" stop-opacity="0"/>
  </linearGradient>
  <linearGradient y1="20.220806" x2="0" y2="138.66119" xlink:href="#1" gradientUnits="userSpaceOnUse"/>
  <filter color-interpolation-filters="sRGB">
   <feGaussianBlur stdDeviation="1.71"/>
  </filter>
  <linearGradient y1="92.5396" x2="0" y2="7.01654" id="2" gradientUnits="userSpaceOnUse" gradientTransform="scale(1.0058652,0.994169)">
   <stop/>
   <stop offset="1" stop-opacity="0.588235"/>
  </linearGradient>
  <linearGradient gradientUnits="userSpaceOnUse" xlink:href="#1" y2="138.66119" x2="0" y1="20.220806"/>
  <clipPath>
   <rect y="6" x="6" rx="6" height="84" width="84" fill="#fff"/>
  </clipPath>
  <linearGradient xlink:href="#2" gradientUnits="userSpaceOnUse" gradientTransform="scale(1.0058652,0.994169)" y1="92.5396" x2="0" y2="7.01654"/>
  <linearGradient y2="7.01654" x2="0" y1="92.5396" gradientTransform="scale(1.0058652,0.994169)" gradientUnits="userSpaceOnUse" xlink:href="#2"/>
  <linearGradient y2="138.66119" x2="0" y1="20.220806" gradientUnits="userSpaceOnUse" xlink:href="#1"/>
  <clipPath>
   <rect width="84" height="84" rx="6" x="6" y="6" fill="#fff"/>
  </clipPath>
  <linearGradient y2="7.01654" x2="0" y1="92.5396" gradientTransform="scale(1.0058652,0.994169)" gradientUnits="userSpaceOnUse" xlink:href="#2"/>
  <linearGradient id="3">
   <stop stop-color="#fff8eb"/>
   <stop offset="1" stop-color="#e0e0e0"/>
  </linearGradient>
  <linearGradient xlink:href="#2" gradientUnits="userSpaceOnUse" gradientTransform="matrix(1.0058652,0,0,0.994169,384.57232,71.85658)" y1="92.5396" x2="0" y2="7.01654"/>
  <linearGradient xlink:href="#5" id="4" gradientUnits="userSpaceOnUse" gradientTransform="matrix(1.2841291,0,0,1.0128762,-76.737041,26.43932)" y1="13.803571" x2="0" y2="160.97958"/>
  <linearGradient y2="7.01654" x2="0" y1="92.5396" gradientTransform="scale(1.0058652,0.994169)" gradientUnits="userSpaceOnUse" xlink:href="#2"/>
  <linearGradient xlink:href="#2" gradientUnits="userSpaceOnUse" gradientTransform="scale(1.0058652,0.994169)" y1="92.5396" x2="0" y2="7.01654"/>
  <linearGradient y2="7.01654" x2="0" y1="92.5396" gradientTransform="scale(1.0058652,0.994169)" gradientUnits="userSpaceOnUse" xlink:href="#2"/>
  <linearGradient xlink:href="#2" gradientUnits="userSpaceOnUse" gradientTransform="scale(1.0058652,0.994169)" y1="92.5396" x2="0" y2="7.01654"/>
  <linearGradient y2="7.01654" x2="0" y1="92.5396" gradientTransform="scale(1.0058652,0.994169)" gradientUnits="userSpaceOnUse" xlink:href="#2"/>
  <linearGradient id="5">
   <stop stop-color="#ca5761"/>
   <stop offset="1" stop-color="#b93d48"/>
  </linearGradient>
  <linearGradient id="6">
   <stop stop-color="#ca57a4"/>
   <stop offset="1" stop-color="#b93d98"/>
  </linearGradient>
  <marker id="7" refX="0.0" refY="0.0" orient="auto">
   <path transform="scale(0.8) rotate(180) translate(12.5,0)" d="M 0 0 L 5 -5 L -12.5 0 L 5 5 L 0 0 z" fill-rule="evenodd" stroke="#000" stroke-width="1.25"/>
  </marker>
  <marker id="8" refX="0.0" refY="0.0" orient="auto">
   <path transform="scale(0.8) translate(12.5,0)" d="M 0 0 L 5 -5 L -12.5 0 L 5 5 L 0 0 z" fill-rule="evenodd" stroke="#000" stroke-width="1.25"/>
  </marker>
  <linearGradient xlink:href="#2" gradientUnits="userSpaceOnUse" gradientTransform="matrix(1.0058652,0,0,0.994169,-1054.727,-475.65991)" y1="92.5396" x2="0" y2="7.01654"/>
  <linearGradient xlink:href="#2" gradientUnits="userSpaceOnUse" gradientTransform="scale(1.0058652,0.994169)" y1="92.5396" x2="0" y2="7.01654"/>
  <linearGradient xlink:href="#2" gradientUnits="userSpaceOnUse" gradientTransform="scale(1.0058652,0.994169)" y1="92.5396" x2="0" y2="7.01654"/>
  <linearGradient xlink:href="#5" id="9" gradientUnits="userSpaceOnUse" gradientTransform="matrix(7.4866879,0,0,7.4866879,-875.10453,-636.11966)" y1="40.516293" x2="0" y2="63.50437"/>
  <linearGradient xlink:href="#6" id="A" gradientUnits="userSpaceOnUse" gradientTransform="matrix(1.9376974,-7.2315853,7.2315853,1.9376974,-987.3388,-46.2275)" x1="55.54691" y1="55.898285" x2="45.768177" y2="58.51849"/>
 </defs>
 <rect rx="147.5047" width="450" height="450" x="31" y="31" opacity="0.25" fill="#282629"/>
 <rect rx="147.5047" width="444" height="444" x="34" y="34" opacity="0.25" fill="#282629"/>
 <rect y="37" x="37" height="438" width="438" rx="147.5047" opacity="0.25" fill="#282629"/>
 <rect rx="147.5047" width="432" height="432" x="40" y="40" fill="url(#0)"/>
 <text y="412.01849" x="176.67816" font-family="Gentium Book Basic" word-spacing="0" line-height="125%" letter-spacing="0" font-size="208.33333"><tspan y="412.01849" x="176.67816"/>
 </text>
 <text transform="scale(4.0128362,0.2492003)" font-size="75.69771" y="1090.4733" x="361.75409" font-family="Arial" text-anchor="middle"/>
 <text y="-355.93323" x="-471.08832" font-family="Gentium Book Basic" word-spacing="0" line-height="125%" letter-spacing="0" font-size="208.33333"><tspan y="-355.93323" x="-471.08832"/>
 </text>
 <text transform="scale(4.0128362,0.2492003)" font-size="75.69771" y="-1991.1912" x="200.33051" font-family="Arial" text-anchor="middle"/>
 <text y="-511.56506" x="235.25287" font-family="Gentium Book Basic" word-spacing="0" line-height="125%" letter-spacing="0" font-size="208.33333"><tspan y="-511.56506" x="235.25287"/>
 </text>
 <text transform="scale(4.0128362,0.2492003)" font-size="75.69771" y="-2615.7161" x="376.35092" font-family="Arial" text-anchor="middle"/>
 <path d="M 187.5 40 C 117.87807 40 59.818253 87.76416 44.15625 152.4375 L 467.84375 152.4375 C 452.18175 87.76416 394.12193 40 324.5 40 L 187.5 40 z M 41.03125 170 C 40.35903 175.73652 40 181.57712 40 187.5 L 40 190.34375 L 472 190.34375 L 472 187.5 C 472 181.57712 471.64097 175.73652 470.96875 170 L 41.03125 170 z" fill="url(#4)"/>
 <path d="m 64.52275 129.51267 c 37.20233 -14.40383 65.55894 -13.86034 87.43913 1.38263 19.3403 -22.84952 61.0853 -31.63212 74.4879 -30.0974 -40.04244 -14.880389 -71.46337 0.0768 -78.25396 10.07896 -22.22798 -9.76469 -72.02626 -0.91795 -83.67307 18.63581 z" fill="#fff8eb"/>
 <path d="m 126.99876 77.55304 c 26.61675 -7.348382 50.22936 -7.979389 66.96982 1.48807 15.64867 -12.540763 47.96698 -17.08092 58.1855 -16.11157 -36.72475 -7.588215 -52.91187 -0.629754 -60.81108 4.173744 -23.59673 -5.200871 -46.20362 -4.786604 -64.34424 10.449754 z" fill="#fff8eb"/>
 <text x="229.16702" y="121.50284" fill="#fff8eb" font-family="Sans" text-align="start" font-style="italic" word-spacing="0" line-height="125%" font-weight="bold" letter-spacing="0" font-size="82.79974"><tspan x="229.16702" y="121.50284">.odp</tspan>
 </text>
 <g transform="matrix(0.92983496,0,0,0.92983496,672.0223,568.26632)">
  <path d="m -546.79082 -336.63767 a 89.84025 89.84025 0 0 0 -88.63256 87.80273 c -0.0533 0.66627 -0.0957 1.32767 -0.0957 2.01075 0 1.18443 0.0184 2.36945 0.0638 3.54275 a 89.84025 89.84025 0 0 0 0 0.31916 c 0.12189 2.88618 0.37804 5.7442 0.766 8.55367 a 89.84025 89.84025 0 0 0 0.0957 0.51066 c 0.41732 2.89803 0.97262 5.75197 1.65967 8.55367 0.71981 2.93531 1.58488 5.80344 2.58525 8.61749 1.00584 2.82945 2.14171 5.60757 3.41508 8.29834 1.28637 2.71824 2.70209 5.35518 4.24491 7.91533 1.54828 2.56919 3.22116 5.07532 5.01092 7.46849 1.72457 2.30603 3.55622 4.51141 5.48967 6.63867 0.0305 0.0335 0.0652 0.0622 0.0957 0.0957 a 89.84025 89.84025 0 0 0 0.35108 0.383 c 1.80004 1.95173 3.68435 3.83145 5.64925 5.61733 0.0952 0.0865 0.19168 0.16921 0.28725 0.25533 a 89.84025 89.84025 0 0 0 0.44683 0.383 c 2.12617 1.8909 4.33898 3.6773 6.63867 5.362 a 89.84025 89.84025 0 0 0 0.28725 0.22342 c 2.32305 1.68753 4.72961 3.26074 7.21316 4.72366 a 89.84025 89.84025 0 0 0 0.28725 0.15959 c 2.53002 1.47771 5.1399 2.85572 7.81958 4.08533 2.66297 1.22195 5.4072 2.29397 8.20258 3.2555 a 89.84025 89.84025 0 0 0 0.22342 0.0957 c 0.0637 0.0217 0.12769 0.0423 0.1915 0.0638 2.70094 0.91399 5.45716 1.70461 8.26641 2.36183 a 89.84025 89.84025 0 0 0 0.25534 0.0638 c 2.84569 0.6569 5.73934 1.18451 8.68133 1.56391 2.87314 0.37052 5.7936 0.60974 8.74516 0.70217 0.18153 0.006 0.36079 -0.005 0.54259 0 0.77056 0.0195 1.52272 0.0319 2.29799 0.0319 2.13219 0 4.25638 -0.0773 6.35142 -0.22342 2.92169 -0.20376 5.81135 -0.54481 8.64941 -1.02133 0.084 -0.0141 0.17151 -0.0176 0.25534 -0.0319 a 89.84025 89.84025 0 0 0 0.22341 -0.0638 c 2.89323 -0.5019 5.73052 -1.14339 8.52175 -1.915 5.83192 -1.61219 11.43296 -3.78475 16.72433 -6.47908 a 89.84025 89.84025 0 0 0 0.1915 -0.0957 c 2.60915 -1.33641 5.14266 -2.7962 7.59616 -4.37259 2.5301 -1.6256 4.9611 -3.37028 7.30892 -5.23433 2.34977 -1.86558 4.6162 -3.84913 6.76633 -5.9365 2.04032 -1.98077 3.99517 -4.05824 5.84075 -6.22374 0.0931 -0.10927 0.19465 -0.20946 0.28725 -0.31917 a 89.84025 89.84025 0 0 0 0.15958 -0.22342 c 1.86304 -2.22087 3.62182 -4.52986 5.26625 -6.92591 3.3796 -4.92432 6.2607 -10.20203 8.6175 -15.76683 a 89.84025 89.84025 0 0 0 0.0319 -0.0319 c 2.30167 -5.44175 4.06893 -11.14821 5.26625 -17.07541 0.58876 -2.91457 1.04132 -5.89535 1.3405 -8.90475 0.2931 -2.94828 0.44578 -5.94341 0.44684 -8.96858 a 89.84025 89.84025 0 0 0 0 -0.0319 l -0.35109 0 -89.49431 0 1.50009 -5.61733 0.0957 0 21.76716 -81.2279 c -0.46314 -0.12409 -0.93949 -0.23447 -1.40434 -0.35108 l -0.0319 0.12766 a 89.84025 89.84025 0 0 0 -23.01181 -2.74488 z" fill="url(#9)" color="#000"/>
  <path d="m -502.77775 -350.42567 -23.26724 86.7814 89.84539 0 c 0 -0.27603 0.002 -0.55502 0 -0.82984 a 89.84026 89.84026 0 0 0 0 -0.1915 c -0.0174 -1.54211 -0.064 -3.0654 -0.15958 -4.59599 l -0.12767 0 a 89.84026 89.84026 0 0 0 -66.2909 -81.16407 z" fill="url(#A)" color="#000"/>
  <path d="m -412.75957 -243.75351 a 5.497735 5.497735 0 0 1 -10.99547 0 5.497735 5.497735 0 1 1 10.99547 0 z" fill="#282629" color="#000"/>
  <text y="-238.79747" x="-401.66125" fill="#282629" font-family="Sans" text-align="start" font-style="italic" word-spacing="0" line-height="125%" letter-spacing="0" font-size="20"><tspan y="-238.79747" x="-401.66125">Lorem ipsum.</tspan>
  </text>
  <path d="m -420.61671 -210.05281 a 5.497735 5.497735 0 0 1 -10.99547 0 5.497735 5.497735 0 1 1 10.99547 0 z" fill="#282629" color="#000"/>
  <text x="-409.51837" y="-205.09679" fill="#282629" font-family="Sans" text-align="start" font-style="italic" word-spacing="0" line-height="125%" letter-spacing="0" font-size="20"><tspan x="-409.51837" y="-205.09679">Dolir sit amet.</tspan>
  </text>
  <path d="m -434.18814 -182.42362 a 5.497735 5.497735 0 0 1 -10.99547 0 5.497735 5.497735 0 1 1 10.99547 0 z" fill="#282629" color="#000"/>
  <text y="-177.46759" x="-423.08981" xml:space="preserve" fill="#282629" font-family="Sans" text-align="start" font-style="italic" word-spacing="0" line-height="125%" letter-spacing="0" font-size="20"><tspan y="-177.46759" x="-423.08981">Mori qis isim. </tspan>
  </text>
  <path d="m -455.61671 -149.88951 a 5.497735 5.497735 0 0 1 -10.99547 0 5.497735 5.497735 0 1 1 10.99547 0 z" fill="#282629" color="#000"/>
  <text x="-444.51837" y="-144.93347" fill="#282629" font-family="Sans" text-align="start" font-style="italic" word-spacing="0" line-height="125%" letter-spacing="0" font-size="20"><tspan x="-444.51837" y="-144.93347">Maecenas lobortis</tspan>
  </text>
  <path d="m -399.31893 -319.00039 0 -9.40142 7.13275 0 0 1.04087 -5.85835 0 0 3.01594 5.45803 0 0 1.02755 -5.45803 0 0 3.27613 6.13192 0 0 1.04093 -7.40632 0" fill="#282629"/>
  <path d="m -387.61556 -319.05382 c -0.18243 0.0478 -0.36896 0.0868 -0.56027 0.11342 -0.18653 0.0342 -0.40448 0.0478 -0.65387 0.0478 -0.96086 0 -1.44125 -0.54455 -1.44125 -1.63475 l 0 -4.81741 -0.83405 0 0 -0.87409 0.88071 0 0.35393 -1.61473 0.8007 0 0 1.61473 1.33446 0 0 0.87409 -1.33446 0 0 4.55723 c 0 0.34709 0.0547 0.59169 0.16671 0.73395 0.11547 0.13801 0.31362 0.20702 0.59375 0.20702 0.11547 0 0.22684 -0.007 0.33343 -0.0273 0.11137 -0.0205 0.23162 -0.041 0.36007 -0.0683 l 0 0.88741" fill="#282629"/>
  <path d="m -386.60804 -327.75456 0 -1.14766 1.20103 0 0 1.14766 -1.20103 0 m 0 8.75417 0 -7.21959 1.20103 0 0 7.21959 -1.20103 0" fill="#282629"/>
  <path d="m -381.71718,-318.86695 c -0.72506,0 -1.27003,-0.19131 -1.63475,-0.57393 -0.36485,-0.38262 -0.54728,-0.9075 -0.54728,-1.57469 0,-0.47623 0.0888,-0.86521 0.26715,-1.16768 0.18243,-0.30678 0.41815,-0.54729 0.7073,-0.72063 0.2938,-0.17355 0.62723,-0.2938 1.00083,-0.36007 0.37374,-0.0683 0.75397,-0.10454 1.14097,-0.11342 l 1.62142,-0.0273 0,-0.39356 c 0,-0.2979 -0.0342,-0.55138 -0.0936,-0.76066 -0.0615,-0.20908 -0.15783,-0.37784 -0.28697,-0.50698 -0.12913,-0.12913 -0.29106,-0.22274 -0.48716,-0.28013 -0.19131,-0.0615 -0.41815,-0.0936 -0.68052,-0.0936 -0.23162,0 -0.4407,0.0205 -0.62722,0.0547 -0.18722,0.0342 -0.34915,0.0916 -0.48716,0.18038 -0.13802,0.0847 -0.24939,0.20225 -0.33343,0.35393 -0.0847,0.1469 -0.14007,0.33343 -0.16671,0.56027 l -1.25446,-0.11342 c 0.0478,-0.28492 0.12914,-0.54456 0.25349,-0.78069 0.12435,-0.2405 0.29995,-0.44685 0.52679,-0.62039 0.23162,-0.17355 0.51859,-0.30678 0.86076,-0.40039 0.34709,-0.0977 0.76511,-0.1469 1.25438,-0.1469 0.9075,7e-5 1.59028,0.20908 2.04846,0.62723 0.45847,0.41337 0.68722,1.01415 0.68729,1.80153 l 0,3.10935 c -7e-5,0.35597 0.0478,0.62517 0.14007,0.80733 0.0936,0.17765 0.27125,0.26715 0.53362,0.26715 0.0683,0 0.13323,-0.004 0.20019,-0.0137 0.0683,-0.007 0.13118,-0.0205 0.19336,-0.0342 l 0,0.74728 c -0.151,0.0342 -0.30268,0.0615 -0.45368,0.0799 -0.1469,0.0205 -0.30473,0.0273 -0.47349,0.0273 -0.22684,0 -0.42225,-0.0273 -0.58692,-0.0868 -0.15988,-0.0615 -0.29106,-0.15373 -0.39355,-0.2733 -0.10249,-0.12435 -0.18038,-0.27603 -0.23367,-0.45368 -0.0547,-0.18242 -0.0868,-0.39355 -0.10044,-0.63405 l -0.041,0 c -0.12913,0.23162 -0.27125,0.44001 -0.42703,0.62722 -0.151,0.18653 -0.32933,0.34709 -0.53362,0.48033 -0.20429,0.12913 -0.43797,0.22889 -0.70054,0.29995 -0.25827,0.0711 -0.55617,0.10658 -0.89411,0.10658 m 0.27331,-0.90073 c 0.38262,0 0.71611,-0.069 1.00082,-0.20702 0.28902,-0.14212 0.52679,-0.3225 0.71394,-0.54046 0.19131,-0.21795 0.33342,-0.45573 0.42703,-0.71393 0.0936,-0.25827 0.14007,-0.50492 0.14007,-0.74064 l 0,-0.59375 -1.31445,0.0273 c -0.2938,0.004 -0.57393,0.0273 -0.84074,0.0683 -0.26237,0.0342 -0.49399,0.10864 -0.69391,0.22001 -0.20019,0.11137 -0.36008,0.26715 -0.48033,0.46735 -0.11547,0.20019 -0.17354,0.46256 -0.17354,0.78731 0,0.3915 0.10453,0.69391 0.31361,0.90743 0.21317,0.21317 0.51586,0.32044 0.90743,0.32044" fill="#282629"/>
  <path d="m -371.74865,-319.00039 0,-4.57731 c 0,-0.3512 -0.0205,-0.64499 -0.0683,-0.88072 -0.0478,-0.23572 -0.12025,-0.42498 -0.22684,-0.5671 -0.10249,-0.1469 -0.23777,-0.24938 -0.40722,-0.30678 -0.16876,-0.0615 -0.37579,-0.0936 -0.62039,-0.0936 -0.25349,0 -0.48238,0.0478 -0.68722,0.15373 -0.20429,0.0977 -0.38057,0.24255 -0.52678,0.43387 -0.14212,0.18652 -0.25349,0.4202 -0.33343,0.7006 -0.0758,0.27604 -0.11342,0.59375 -0.11342,0.9541 l 0,4.18362 -1.1944,0 0,-5.67824 c 0,-0.151 -0.002,-0.30883 -0.007,-0.47349 0,-0.16877 -0.002,-0.32728 -0.007,-0.4735 -0.004,-0.151 -0.007,-0.28013 -0.0137,-0.38672 -0.004,-0.10659 -0.007,-0.17559 -0.0137,-0.20702 l 1.13434,0 c 0.004,0.0205 0.007,0.082 0.0137,0.18038 0.004,0.0977 0.007,0.21112 0.0137,0.34026 0.007,0.12435 0.0137,0.25348 0.0205,0.38672 0.004,0.12913 0.007,0.23777 0.007,0.32727 l 0.0205,0 c 0.10659,-0.20907 0.22274,-0.39833 0.34709,-0.5671 0.12435,-0.16876 0.2692,-0.31156 0.43387,-0.42703 0.16876,-0.12025 0.36007,-0.21112 0.57393,-0.2733 0.21796,-0.0683 0.46939,-0.0997 0.75397,-0.0997 0.54728,6e-5 0.97862,0.10863 1.29449,0.32659 0.32045,0.21796 0.5425,0.56505 0.66754,1.04094 l 0.0205,0 c 0.10658,-0.20908 0.22684,-0.39834 0.36007,-0.5671 0.13323,-0.16877 0.28902,-0.31157 0.46735,-0.42704 0.17764,-0.12025 0.37783,-0.21112 0.60057,-0.2733 0.22274,-0.0683 0.47623,-0.0997 0.76067,-0.0997 0.36486,0 0.67847,0.0478 0.94077,0.1469 0.26715,0.0977 0.48511,0.24938 0.65387,0.45368 0.16877,0.20497 0.2938,0.46939 0.37374,0.794 0.0799,0.32045 0.12026,0.70287 0.12026,1.14766 l 0,4.81079 -1.1877,0 0,-4.57725 c 0,-0.35119 -0.0205,-0.64499 -0.0683,-0.88078 -0.0478,-0.23572 -0.12025,-0.42498 -0.22684,-0.5671 -0.10249,-0.1469 -0.23777,-0.24939 -0.40722,-0.30678 -0.16876,-0.0615 -0.37579,-0.0936 -0.62039,-0.0936 -0.25349,0 -0.48238,0.0478 -0.68722,0.1469 -0.20429,0.0936 -0.38057,0.23367 -0.52678,0.4202 -0.14212,0.18653 -0.25349,0.4202 -0.33343,0.70061 -0.0758,0.28013 -0.11342,0.60468 -0.11342,0.97418 l 0,4.18356 -1.1877,0" fill="#282629"/>
  <path d="m -359.84509 -322.35666 c 0 0.37784 0.0342 0.72732 0.11342 1.04756 0.0799 0.31566 0.20019 0.58965 0.36007 0.82072 0.16467 0.22684 0.37374 0.40449 0.62723 0.53363 0.25349 0.12435 0.55822 0.18652 0.91412 0.18652 0.52064 0 0.93633 -0.10453 1.24769 -0.31361 0.31566 -0.20908 0.52952 -0.47349 0.64021 -0.79401 l 1.05426 0.29995 c -0.0758 0.20019 -0.18243 0.40244 -0.32045 0.60741 -0.13323 0.20019 -0.31361 0.38262 -0.54045 0.54729 -0.22684 0.15988 -0.51176 0.2938 -0.85407 0.40038 -0.33821 0.10249 -0.74727 0.15374 -1.22773 0.15374 -1.06759 0 -1.88161 -0.31772 -2.44209 -0.95417 -0.55616 -0.63611 -0.83404 -1.58132 -0.83404 -2.83577 0 -0.67642 0.0847 -1.24769 0.25348 -1.71476 0.16877 -0.47144 0.40039 -0.85407 0.69398 -1.14766 0.2938 -0.2938 0.63611 -0.50492 1.02755 -0.63406 0.3915 -0.13323 0.80952 -0.20019 1.25438 -0.20019 0.60468 0 1.10981 0.0977 1.51464 0.2938 0.40927 0.19609 0.7362 0.46734 0.98081 0.81403 0.24938 0.3423 0.42498 0.74727 0.52747 1.21434 0.10659 0.46735 0.15988 0.972 0.15988 1.51464 l 0 0.15988 -5.15104 0 m 3.90998 -0.92076 c -0.0683 -0.76066 -0.26032 -1.31451 -0.58077 -1.66146 -0.32044 -0.35119 -0.78061 -0.52747 -1.38112 -0.52747 -0.2002 0 -0.41132 0.0342 -0.63406 0.10044 -0.21796 0.0615 -0.4202 0.17559 -0.60741 0.34026 -0.18653 0.16466 -0.34505 0.38945 -0.4735 0.67368 -0.12913 0.28014 -0.20224 0.63816 -0.22001 1.07428 l 3.89673 0" fill="#282629"/>
  <path d="m -350.38368 -319.05382 c -0.18243 0.0478 -0.36896 0.0868 -0.56027 0.11342 -0.18721 0.0342 -0.40516 0.0478 -0.65387 0.0478 -0.96086 0 -1.44125 -0.54455 -1.44125 -1.63475 l 0 -4.81741 -0.83405 0 0 -0.87409 0.88071 0 0.35393 -1.61473 0.8007 0 0 1.61473 1.33446 0 0 0.87409 -1.33446 0 0 4.55723 c 0 0.34709 0.0547 0.59169 0.16672 0.73395 0.11547 0.13801 0.31361 0.20702 0.59374 0.20702 0.11547 0 0.22684 -0.007 0.33343 -0.0273 0.11137 -0.0205 0.23094 -0.041 0.36007 -0.0683 l 0 0.88741" fill="#282629"/>
  <path d="m -341.37595,-319.00039 0,-4.57731 c 0,-0.3512 -0.0205,-0.64499 -0.0683,-0.88072 -0.0478,-0.23572 -0.12025,-0.42498 -0.22684,-0.5671 -0.10249,-0.1469 -0.23777,-0.24938 -0.40722,-0.30678 -0.16876,-0.0615 -0.37579,-0.0936 -0.62039,-0.0936 -0.25349,0 -0.48238,0.0478 -0.68722,0.15373 -0.20429,0.0977 -0.38057,0.24255 -0.52679,0.43387 -0.14211,0.18652 -0.25348,0.4202 -0.33343,0.7006 -0.0758,0.27604 -0.11342,0.59375 -0.11342,0.9541 l 0,4.18362 -1.19439,0 0,-5.67824 c 0,-0.151 -0.002,-0.30883 -0.007,-0.47349 0,-0.16877 -0.002,-0.32728 -0.007,-0.4735 -0.004,-0.151 -0.007,-0.28013 -0.0137,-0.38672 -0.004,-0.10659 -0.007,-0.17559 -0.0137,-0.20702 l 1.13433,0 c 0.004,0.0205 0.007,0.082 0.0137,0.18038 0.004,0.0977 0.007,0.21112 0.0137,0.34026 0.007,0.12435 0.0137,0.25348 0.0205,0.38672 0.004,0.12913 0.007,0.23777 0.007,0.32727 l 0.0205,0 c 0.10658,-0.20907 0.22274,-0.39833 0.34709,-0.5671 0.12435,-0.16876 0.2692,-0.31156 0.43386,-0.42703 0.16877,-0.12025 0.36008,-0.21112 0.57394,-0.2733 0.21795,-0.0683 0.46939,-0.0997 0.75397,-0.0997 0.54728,6e-5 0.97862,0.10863 1.29449,0.32659 0.32044,0.21796 0.5425,0.56505 0.66754,1.04094 l 0.0205,0 c 0.10659,-0.20908 0.22684,-0.39834 0.36008,-0.5671 0.13323,-0.16877 0.28901,-0.31157 0.46734,-0.42704 0.17765,-0.12025 0.37784,-0.21112 0.60058,-0.2733 0.22274,-0.0683 0.47623,-0.0997 0.76067,-0.0997 0.36485,0 0.67847,0.0478 0.94077,0.1469 0.26715,0.0977 0.48511,0.24938 0.65387,0.45368 0.16876,0.20497 0.2938,0.46939 0.37374,0.794 0.0799,0.32045 0.12025,0.70287 0.12025,1.14766 l 0,4.81079 -1.1877,0 0,-4.57725 c 0,-0.35119 -0.0205,-0.64499 -0.0683,-0.88078 -0.0478,-0.23572 -0.12025,-0.42498 -0.22684,-0.5671 -0.10249,-0.1469 -0.23777,-0.24939 -0.40722,-0.30678 -0.16876,-0.0615 -0.37579,-0.0936 -0.62039,-0.0936 -0.25349,0 -0.48238,0.0478 -0.68722,0.1469 -0.20429,0.0936 -0.38057,0.23367 -0.52679,0.4202 -0.14211,0.18653 -0.25348,0.4202 -0.33342,0.70061 -0.0759,0.28013 -0.11342,0.60468 -0.11342,0.97418 l 0,4.18356 -1.1877,0" fill="#282629"/>
  <path d="m -332.3415,-318.86695 c -0.72507,0 -1.26996,-0.19131 -1.63475,-0.57393 -0.36486,-0.38262 -0.54729,-0.9075 -0.54729,-1.57469 0,-0.47623 0.0888,-0.86521 0.26716,-1.16768 0.18242,-0.30678 0.41815,-0.54729 0.7073,-0.72063 0.2938,-0.17355 0.62723,-0.2938 1.00083,-0.36007 0.37374,-0.0683 0.75397,-0.10454 1.14096,-0.11342 l 1.62143,-0.0273 0,-0.39356 c 0,-0.2979 -0.0342,-0.55138 -0.0936,-0.76066 -0.0615,-0.20908 -0.15783,-0.37784 -0.28696,-0.50698 -0.12914,-0.12913 -0.29107,-0.22274 -0.48716,-0.28013 -0.19131,-0.0615 -0.41815,-0.0936 -0.68052,-0.0936 -0.23162,0 -0.4407,0.0205 -0.62723,0.0547 -0.18653,0.0342 -0.34914,0.0916 -0.48716,0.18038 -0.13801,0.0847 -0.24938,0.20225 -0.33342,0.35393 -0.0847,0.1469 -0.14007,0.33343 -0.16672,0.56027 l -1.25445,-0.11342 c 0.0478,-0.28492 0.12913,-0.54456 0.25349,-0.78069 0.12435,-0.2405 0.29994,-0.44685 0.52678,-0.62039 0.23163,-0.17355 0.51859,-0.30678 0.86077,-0.40039 0.34709,-0.0977 0.7651,-0.1469 1.25438,-0.1469 0.9075,7e-5 1.59027,0.20908 2.04846,0.62723 0.45846,0.41337 0.68722,1.01415 0.68729,1.80153 l 0,3.10935 c -7e-5,0.35597 0.0478,0.62517 0.14006,0.80733 0.0936,0.17765 0.27125,0.26715 0.53362,0.26715 0.0683,0 0.13324,-0.004 0.2002,-0.0137 0.0683,-0.007 0.13118,-0.0205 0.19336,-0.0342 l 0,0.74728 c -0.151,0.0342 -0.30269,0.0615 -0.45368,0.0799 -0.1469,0.0205 -0.30473,0.0273 -0.4735,0.0273 -0.22684,0 -0.42225,-0.0273 -0.58691,-0.0868 -0.15988,-0.0615 -0.29107,-0.15373 -0.39356,-0.2733 -0.10248,-0.12435 -0.18037,-0.27603 -0.23367,-0.45368 -0.0547,-0.18242 -0.0868,-0.39355 -0.0997,-0.63405 l -0.041,0 c -0.12913,0.23162 -0.27125,0.44001 -0.42703,0.62722 -0.151,0.18653 -0.32933,0.34709 -0.53362,0.48033 -0.20429,0.12913 -0.43797,0.22889 -0.70054,0.29995 -0.25827,0.0711 -0.55617,0.10658 -0.89411,0.10658 m 0.27331,-0.90073 c 0.38262,0 0.71611,-0.069 1.00082,-0.20702 0.28902,-0.14212 0.52679,-0.3225 0.71393,-0.54046 0.19132,-0.21795 0.33343,-0.45573 0.42704,-0.71393 0.0936,-0.25827 0.14006,-0.50492 0.14006,-0.74064 l 0,-0.59375 -1.31444,0.0273 c -0.2938,0.004 -0.57393,0.0273 -0.84067,0.0683 -0.26237,0.0342 -0.49399,0.10864 -0.69398,0.22001 -0.20019,0.11137 -0.36008,0.26715 -0.48033,0.46735 -0.11547,0.20019 -0.17354,0.46256 -0.17354,0.78731 0,0.3915 0.10453,0.69391 0.31361,0.90743 0.21317,0.21317 0.51585,0.32044 0.90743,0.32044" fill="#282629"/>
  <path d="m -325.40225,-326.21998 0,4.57732 c 0,0.35119 0.0273,0.64499 0.0731,0.88071 0.0547,0.23572 0.13802,0.42703 0.25349,0.57393 0.11547,0.14212 0.26715,0.24461 0.45368,0.30678 0.19131,0.0547 0.42703,0.0868 0.7073,0.0868 0.28492,0 0.54045,-0.0478 0.76736,-0.1469 0.23163,-0.10249 0.42704,-0.24666 0.58692,-0.43387 0.16466,-0.19131 0.29106,-0.42498 0.38057,-0.70061 0.0888,-0.28013 0.13323,-0.60058 0.13323,-0.96079 l 0,-4.18362 1.20102,0 0,5.67824 c -6e-5,0.151 -6e-5,0.31156 0,0.48033 0.004,0.16466 0.007,0.32249 0.0137,0.47349 0.004,0.1469 0.007,0.2733 0.0137,0.38057 0.004,0.10659 0.007,0.1756 0.0137,0.20703 l -1.13434,0 c -0.004,-0.0205 -0.007,-0.082 -0.0137,-0.18038 -0.004,-0.0977 -0.0137,-0.20908 -0.0205,-0.33343 -0.004,-0.12913 -0.007,-0.25827 -0.0137,-0.38672 -0.004,-0.13323 -0.007,-0.2446 -0.007,-0.33343 l -0.0205,0 c -0.11547,0.20908 -0.24255,0.39834 -0.38057,0.5671 -0.13802,0.16877 -0.2979,0.31362 -0.48033,0.43387 -0.18242,0.11547 -0.3915,0.20429 -0.62722,0.26715 -0.23572,0.0683 -0.50903,0.0998 -0.82066,0.0998 -0.40038,0 -0.74508,-0.0478 -1.03424,-0.1469 -0.28901,-0.0977 -0.52747,-0.24939 -0.71393,-0.45368 -0.18653,-0.2043 -0.32454,-0.46735 -0.41405,-0.78738 -0.0847,-0.32045 -0.12708,-0.70505 -0.12708,-1.15429 l 0,-4.81079 1.20771,0" fill="#282629"/>
  <path d="m -318.94332 -319.00039 0 -5.5381 c 0 -0.151 -0.002 -0.30473 -0.007 -0.46052 0 -0.15988 -0.002 -0.31361 -0.007 -0.46051 -0.004 -0.1469 -0.007 -0.28491 -0.0137 -0.41405 -0.004 -0.12913 -0.007 -0.2446 -0.0137 -0.34709 l 1.13433 0 c 0.004 0.10249 0.007 0.22001 0.0137 0.35392 0.007 0.12914 0.0137 0.26237 0.0205 0.40039 0.007 0.13802 0.0137 0.27125 0.0137 0.40039 0.004 0.12435 0.007 0.23094 0.007 0.32044 l 0.0273 0 c 0.0847 -0.27603 0.17354 -0.51381 0.26715 -0.71393 0.0977 -0.20429 0.21112 -0.37169 0.34026 -0.50014 0.12913 -0.13324 0.28218 -0.23094 0.46051 -0.2938 0.17765 -0.0683 0.39356 -0.0997 0.64704 -0.0997 0.0977 0 0.19131 0.007 0.28014 0.0273 0.0888 0.0137 0.15783 0.0273 0.20702 0.041 l 0 1.10093 c -0.0799 -0.0205 -0.17355 -0.0342 -0.28013 -0.0478 -0.10659 -0.0137 -0.22684 -0.0205 -0.36008 -0.0205 -0.27603 0 -0.51175 0.0615 -0.7073 0.18653 -0.19131 0.12435 -0.34914 0.2979 -0.47349 0.52064 -0.12026 0.21796 -0.20908 0.48032 -0.26716 0.78731 -0.0615 0.30268 -0.0868 0.63406 -0.0868 0.9942 l 0 3.76322 -1.20102 0" fill="#282629"/>
  <path d="m -314.41281 -327.75456 0 -1.14766 1.20102 0 0 1.14766 -1.20102 0 m 0 8.75417 0 -7.21959 1.20102 0 0 7.21959 -1.20102 0" fill="#282629"/>
  <path d="m -305.94553 -320.99549 c 0 0.33821 -0.0683 0.64021 -0.20019 0.9075 -0.12914 0.26237 -0.3184 0.48511 -0.5671 0.66754 -0.24939 0.17764 -0.55617 0.31566 -0.92082 0.41405 -0.36008 0.0936 -0.77399 0.14007 -1.24106 0.14007 -0.41815 0 -0.7962 -0.0342 -1.13427 -0.10044 -0.33343 -0.0615 -0.62723 -0.16467 -0.88078 -0.30678 -0.25349 -0.14212 -0.46735 -0.32933 -0.64021 -0.56027 -0.16876 -0.23572 -0.2938 -0.52269 -0.37374 -0.86076 l 1.06096 -0.20703 c 0.10248 0.38672 0.31361 0.67164 0.63406 0.85407 0.32044 0.17765 0.7651 0.26715 1.33452 0.26715 0.25827 0 0.494 -0.0205 0.70724 -0.0547 0.21796 -0.0342 0.40449 -0.0956 0.56027 -0.18038 0.15578 -0.0888 0.27603 -0.20497 0.36007 -0.34709 0.0888 -0.1469 0.13324 -0.32728 0.13324 -0.54045 0 -0.21796 -0.0478 -0.39561 -0.15374 -0.53362 -0.10248 -0.14212 -0.2446 -0.26032 -0.42703 -0.35393 -0.18243 -0.0936 -0.40449 -0.17354 -0.66754 -0.2405 -0.25827 -0.0711 -0.5425 -0.14895 -0.85406 -0.23368 -0.28902 -0.0758 -0.57599 -0.15988 -0.8607 -0.25348 -0.28491 -0.0936 -0.5425 -0.21591 -0.77405 -0.36691 -0.22684 -0.15578 -0.41132 -0.34709 -0.55412 -0.57393 -0.14212 -0.22684 -0.21318 -0.51176 -0.21318 -0.85407 0 -0.65865 0.23368 -1.15879 0.70054 -1.50131 0.47145 -0.34709 1.15654 -0.52064 2.05516 -0.52064 0.79619 0 1.42786 0.14007 1.89493 0.4202 0.47145 0.28014 0.76955 0.72951 0.89411 1.34786 l -1.08091 0.13323 c -0.041 -0.18653 -0.11342 -0.34231 -0.22001 -0.46735 -0.10658 -0.12913 -0.23572 -0.23162 -0.38672 -0.30678 -0.151 -0.0799 -0.32249 -0.13596 -0.5138 -0.16671 -0.18722 -0.0342 -0.38263 -0.0547 -0.58692 -0.0547 -0.5425 0 -0.94309 0.0827 -1.20109 0.24665 -0.25827 0.16467 -0.38672 0.41337 -0.38672 0.74728 0 0.19609 0.0478 0.35802 0.14007 0.48716 0.0977 0.12435 0.23162 0.23162 0.40038 0.32044 0.17355 0.0847 0.38057 0.15988 0.6204 0.22684 0.2405 0.0615 0.50492 0.12914 0.794 0.2002 0.19132 0.0478 0.38673 0.10248 0.58692 0.15988 0.20019 0.0547 0.39355 0.12025 0.58076 0.20019 0.19131 0.0758 0.36896 0.16671 0.53362 0.2733 0.16877 0.10249 0.31567 0.22684 0.44002 0.37374 0.12435 0.1469 0.22206 0.31771 0.2938 0.51381 0.0758 0.19541 0.11342 0.42225 0.11342 0.68052" fill="#282629"/>
  <path d="m -392.17286 -297.1363 -1.42116 0 -2.62226 -7.21952 1.2811 0 1.58802 4.69736 c 0.0342 0.0977 0.0683 0.21796 0.10658 0.36008 0.0478 0.13802 0.0888 0.28218 0.13324 0.43386 0.0478 0.151 0.0847 0.2979 0.12025 0.44002 0.041 0.13802 0.0731 0.25349 0.10044 0.34709 0.0273 -0.0936 0.0615 -0.20907 0.10044 -0.34709 0.041 -0.14212 0.0888 -0.28697 0.13323 -0.43387 0.0478 -0.1469 0.0888 -0.28901 0.13324 -0.42703 0.0478 -0.14212 0.0916 -0.26237 0.12708 -0.36007 l 1.64138 -4.71076 1.27447 0 -2.69564 7.21952" fill="#282629"/>
  <path d="m -387.58891 -300.4925 c 0 0.37784 0.0342 0.72725 0.11342 1.04756 0.0799 0.31566 0.20019 0.58965 0.36007 0.82066 0.16466 0.22684 0.37374 0.40448 0.62723 0.53362 0.25348 0.12435 0.55821 0.18652 0.91412 0.18652 0.52064 0 0.93633 -0.10453 1.24776 -0.31361 0.31566 -0.20907 0.52952 -0.47349 0.6402 -0.79401 l 1.05426 0.29995 c -0.0758 0.20019 -0.18242 0.40244 -0.32044 0.60741 -0.13324 0.2002 -0.31361 0.38262 -0.54045 0.54729 -0.22684 0.15988 -0.51176 0.2938 -0.85407 0.40038 -0.33821 0.10249 -0.74727 0.15374 -1.22767 0.15374 -1.06758 0 -1.88161 -0.3184 -2.44215 -0.95417 -0.55617 -0.6361 -0.83405 -1.58132 -0.83405 -2.83577 0 -0.67642 0.0847 -1.24769 0.25349 -1.71476 0.16876 -0.47144 0.40039 -0.85406 0.69391 -1.14766 0.2938 -0.2938 0.63611 -0.50492 1.02755 -0.63406 0.3915 -0.13323 0.80958 -0.20019 1.25438 -0.20019 0.60468 0 1.10988 0.0977 1.51463 0.2938 0.40927 0.19541 0.73621 0.46734 0.98088 0.81403 0.24939 0.34231 0.42499 0.74734 0.52747 1.21434 0.10659 0.46735 0.15988 0.972 0.15988 1.51464 l 0 0.15988 -5.15111 0 m 3.90999 -0.92075 c -0.0683 -0.76067 -0.26032 -1.31445 -0.58009 -1.66147 -0.32044 -0.35119 -0.78068 -0.52679 -1.38119 -0.52679 -0.20019 0 -0.41132 0.0342 -0.63406 0.0998 -0.21796 0.0615 -0.4202 0.17559 -0.60741 0.34026 -0.18653 0.16466 -0.34504 0.38945 -0.4735 0.67368 -0.12913 0.28014 -0.20224 0.63816 -0.22 1.07428 l 3.89666 0" fill="#282629"/>
  <path d="m -375.48516 -299.13139 c 0 0.33821 -0.0683 0.6402 -0.20019 0.90749 -0.12914 0.26237 -0.31771 0.48511 -0.5671 0.66754 -0.24939 0.17765 -0.55617 0.31566 -0.92082 0.41405 -0.36008 0.0936 -0.77399 0.14007 -1.24106 0.14007 -0.41815 0 -0.79626 -0.0342 -1.13434 -0.0998 -0.33343 -0.0615 -0.62722 -0.16466 -0.88071 -0.30678 -0.25349 -0.14211 -0.46735 -0.32933 -0.64021 -0.56027 -0.16876 -0.23572 -0.2938 -0.52268 -0.37374 -0.86076 l 1.06089 -0.20702 c 0.10249 0.38672 0.31361 0.67163 0.63406 0.85406 0.32044 0.17765 0.7651 0.26716 1.33446 0.26716 0.25827 0 0.49399 -0.0205 0.7073 -0.0547 0.21796 -0.0342 0.40449 -0.0957 0.56027 -0.18038 0.15578 -0.0888 0.27603 -0.2043 0.36007 -0.3471 0.0888 -0.1469 0.13324 -0.32659 0.13324 -0.54045 0 -0.21796 -0.0478 -0.3956 -0.15373 -0.53362 -0.10249 -0.14212 -0.24461 -0.26032 -0.42704 -0.35392 -0.18243 -0.0936 -0.40448 -0.17355 -0.66754 -0.24051 -0.25826 -0.0711 -0.5425 -0.14895 -0.85406 -0.23367 -0.28902 -0.0758 -0.57598 -0.15988 -0.86076 -0.25349 -0.28492 -0.0936 -0.54251 -0.21591 -0.77399 -0.36691 -0.22684 -0.15578 -0.41132 -0.34709 -0.55412 -0.57393 -0.14212 -0.22684 -0.21317 -0.51175 -0.21317 -0.85406 0 -0.65798 0.23367 -1.1588 0.7006 -1.50132 0.47145 -0.34709 1.15654 -0.52063 2.05509 -0.52063 0.79626 0 1.42793 0.14006 1.895 0.4202 0.47145 0.28013 0.76955 0.72951 0.89411 1.34785 l -1.08098 0.13323 c -0.041 -0.18652 -0.11342 -0.34231 -0.22 -0.46734 -0.10659 -0.12914 -0.23573 -0.23162 -0.38673 -0.30678 -0.15099 -0.0799 -0.32249 -0.13597 -0.5138 -0.16672 -0.18721 -0.0342 -0.38262 -0.0547 -0.58692 -0.0547 -0.5425 0 -0.94302 0.082 -1.20102 0.24666 -0.25827 0.16466 -0.38672 0.41405 -0.38672 0.74727 0 0.19541 0.0478 0.35803 0.14007 0.48716 0.0977 0.12435 0.23094 0.23162 0.40038 0.32045 0.17355 0.0847 0.38058 0.15988 0.6204 0.22684 0.2405 0.0615 0.50492 0.12913 0.79401 0.20019 0.19131 0.0478 0.38672 0.10249 0.58691 0.15988 0.20019 0.0547 0.39355 0.12025 0.58076 0.20019 0.19132 0.0759 0.36896 0.16672 0.53363 0.27331 0.16876 0.10248 0.31566 0.22684 0.44069 0.37373 0.12436 0.1469 0.22274 0.3184 0.2938 0.51381 0.0758 0.19541 0.11342 0.42293 0.11342 0.68052" fill="#282629"/>
  <path d="m -371.29491 -297.18973 c -0.18242 0.0478 -0.36895 0.0868 -0.56026 0.11342 -0.18653 0.0342 -0.40517 0.0478 -0.65388 0.0478 -0.96085 0 -1.44125 -0.54455 -1.44125 -1.63468 l 0 -4.81748 -0.83405 0 0 -0.87409 0.88079 0 0.35392 -1.61473 0.80064 0 0 1.61473 1.33453 0 0 0.87409 -1.33453 0 0 4.55723 c 0 0.34709 0.0547 0.59169 0.16671 0.73395 0.11547 0.13801 0.31361 0.20702 0.59375 0.20702 0.11547 0 0.22684 -0.007 0.33342 -0.0273 0.11137 -0.0205 0.23163 -0.041 0.36008 -0.0683 l 0 0.88747" fill="#282629"/>
  <path d="m -370.28738 -305.89047 0 -1.14766 1.20102 0 0 1.14766 -1.20102 0 m 0 8.75417 0 -7.21952 1.20102 0 0 7.21952 -1.20102 0" fill="#282629"/>
  <path d="m -361.13289 -300.77947 c 0 2.51772 -0.88515 3.77661 -2.65559 3.77661 -0.54729 0 -1.00309 -0.0977 -1.36781 -0.2938 -0.36007 -0.20019 -0.65387 -0.52063 -0.88078 -0.96085 l -0.0137 0 c 0 0.11547 -0.004 0.23572 -0.0137 0.36007 -0.004 0.12435 -0.0137 0.2405 -0.0205 0.34709 -0.004 0.10659 -0.0137 0.19815 -0.0205 0.2733 -0.004 0.0758 -0.007 0.12231 -0.0137 0.14007 l -1.16098 0 c 0.004 -0.041 0.007 -0.10659 0.0137 -0.20019 0.004 -0.0977 0.007 -0.21318 0.0137 -0.3471 0.004 -0.13323 0.007 -0.28013 0.007 -0.44069 0.004 -0.15988 0.007 -0.3266 0.007 -0.50014 l 0 -8.41385 1.20102 0 0 2.82238 c 0 0.13323 -0.002 0.26237 -0.007 0.38672 0 0.12025 -0.002 0.22684 -0.007 0.32044 -0.004 0.11137 -0.007 0.21591 -0.0137 0.31362 l 0.0273 0 c 0.22206 -0.46256 0.51586 -0.79401 0.88079 -0.99414 0.36895 -0.20019 0.82509 -0.29994 1.3678 -0.29994 0.91187 0 1.58132 0.30678 2.00842 0.92075 0.43182 0.61356 0.64704 1.54353 0.64704 2.78904 m -1.26108 0.041 c 0 -0.49809 -0.0342 -0.92519 -0.0936 -1.2811 -0.0615 -0.35597 -0.16262 -0.64704 -0.29995 -0.87408 -0.13802 -0.23094 -0.31362 -0.40039 -0.52747 -0.50698 -0.21318 -0.10658 -0.4735 -0.15988 -0.78062 -0.15988 -0.31566 0 -0.5958 0.0478 -0.84074 0.15373 -0.24051 0.10249 -0.44275 0.26716 -0.60741 0.494 -0.15989 0.22684 -0.28219 0.52473 -0.36691 0.8941 -0.0847 0.36896 -0.12709 0.82072 -0.12709 1.35455 0 0.51586 0.041 0.94965 0.12709 1.30112 0.0847 0.35119 0.20702 0.63816 0.36691 0.86069 0.16466 0.21796 0.3669 0.37579 0.60741 0.4735 0.2405 0.0936 0.51585 0.14006 0.82735 0.14006 0.2938 0 0.54728 -0.0478 0.76066 -0.15373 0.21318 -0.10249 0.39151 -0.26715 0.53362 -0.49399 0.14212 -0.22684 0.24666 -0.52064 0.31362 -0.88071 0.0711 -0.36486 0.10658 -0.80515 0.10658 -1.32114" fill="#282629"/>
  <path d="m -358.45727,-304.35582 0,4.57725 c 0,0.35119 0.0273,0.64499 0.0731,0.88071 0.0547,0.23572 0.13802,0.42703 0.25349,0.57393 0.11547,0.14212 0.26715,0.24461 0.45368,0.30678 0.19131,0.0615 0.42703,0.0868 0.7073,0.0868 0.28492,0 0.54045,-0.0478 0.76729,-0.1469 0.23163,-0.10249 0.42704,-0.24666 0.58692,-0.43387 0.16466,-0.19131 0.29106,-0.42498 0.38057,-0.70061 0.0888,-0.28013 0.13323,-0.60057 0.13323,-0.96079 l 0,-4.18362 1.20109,0 0,5.67824 c -6e-5,0.151 -6e-5,0.31156 0,0.48033 0.004,0.16466 0.007,0.32249 0.0137,0.47349 0.004,0.1469 0.007,0.2733 0.0137,0.38057 0.004,0.10659 0.007,0.1756 0.0137,0.20703 l -1.13434,0 c -0.004,-0.0205 -0.007,-0.082 -0.0137,-0.18038 -0.004,-0.0977 -0.0137,-0.20908 -0.0205,-0.33343 -0.004,-0.12913 -0.007,-0.25827 -0.0137,-0.38672 -0.004,-0.13323 -0.007,-0.2446 -0.007,-0.33343 l -0.0205,0 c -0.11547,0.20908 -0.24255,0.39834 -0.38057,0.5671 -0.13802,0.16877 -0.2979,0.31362 -0.48033,0.43387 -0.18243,0.11547 -0.3915,0.20429 -0.62722,0.26715 -0.23573,0.0683 -0.50903,0.10044 -0.82066,0.10044 -0.40038,0 -0.74509,-0.0478 -1.03424,-0.1469 -0.28901,-0.0977 -0.52747,-0.24939 -0.71393,-0.45368 -0.18653,-0.20429 -0.32454,-0.46734 -0.41337,-0.78731 -0.0847,-0.32045 -0.12708,-0.70505 -0.12708,-1.15436 l 0,-4.81078 1.20765,0" fill="#282629"/>
  <path d="m -352.02506 -297.1363 0 -9.90183 1.20102 0 0 9.90183 -1.20102 0" fill="#282629"/>
  <path d="m -347.80809 -304.35582 0 4.57725 c 0 0.35119 0.0273 0.64499 0.0731 0.88071 0.0547 0.23572 0.13802 0.42703 0.25349 0.57393 0.11547 0.14212 0.26715 0.24461 0.45368 0.30678 0.19131 0.0615 0.42703 0.0868 0.70723 0.0868 0.28492 0 0.54045 -0.0478 0.76736 -0.1469 0.23094 -0.10249 0.42704 -0.24666 0.58692 -0.43387 0.16466 -0.19131 0.29106 -0.42498 0.38057 -0.70061 0.0888 -0.28013 0.13323 -0.60057 0.13323 -0.96079 l 0 -4.18362 1.20102 0 0 5.67824 c 0 0.151 0 0.31156 0 0.48033 0.004 0.16466 0.007 0.32249 0.0137 0.47349 0.004 0.1469 0.007 0.2733 0.0137 0.38057 0.004 0.10659 0.007 0.1756 0.0137 0.20703 l -1.13434 0 c -0.004 -0.0205 -0.007 -0.082 -0.0137 -0.18038 -0.004 -0.0977 -0.0137 -0.20908 -0.0205 -0.33343 -0.004 -0.12913 -0.007 -0.25827 -0.0137 -0.38672 -0.004 -0.13323 -0.007 -0.2446 -0.007 -0.33343 l -0.0205 0 c -0.11547 0.20908 -0.24255 0.39834 -0.38057 0.5671 -0.13802 0.16877 -0.2979 0.31362 -0.48033 0.43387 -0.18243 0.11547 -0.3915 0.20429 -0.62722 0.26715 -0.23573 0.0683 -0.50903 0.10044 -0.82073 0.10044 -0.40038 0 -0.74508 -0.0478 -1.03424 -0.1469 -0.28901 -0.0977 -0.52679 -0.24939 -0.71393 -0.45368 -0.18653 -0.20429 -0.32454 -0.46734 -0.41337 -0.78731 -0.0847 -0.32045 -0.12708 -0.70505 -0.12708 -1.15436 l 0 -4.81078 1.20772 0" fill="#282629"/>
  <path d="m -337.1723 -297.1363 0 -4.57731 c 0 -0.35119 -0.0205 -0.64499 -0.0683 -0.88072 -0.0478 -0.23572 -0.12025 -0.42498 -0.22684 -0.5671 -0.10248 -0.14689 -0.23777 -0.24938 -0.40722 -0.30678 -0.16876 -0.0615 -0.37578 -0.0936 -0.62039 -0.0936 -0.25349 0 -0.48238 0.0547 -0.68728 0.15373 -0.2043 0.0977 -0.38058 0.24256 -0.52679 0.43387 -0.14212 0.18652 -0.25349 0.4202 -0.33343 0.7006 -0.0758 0.27604 -0.11342 0.59375 -0.11342 0.95417 l 0 4.18355 -1.19432 0 0 -5.67817 c 0 -0.151 -0.002 -0.30951 -0.007 -0.47349 0 -0.16877 -0.002 -0.3266 -0.007 -0.4735 -0.005 -0.151 -0.007 -0.28013 -0.0137 -0.38672 -0.005 -0.10659 -0.007 -0.17559 -0.0137 -0.20702 l 1.13427 0 c 0.004 0.0205 0.007 0.0827 0.0137 0.18037 0.004 0.0977 0.007 0.21113 0.0137 0.34026 0.007 0.12436 0.0137 0.25349 0.0205 0.38673 0.004 0.12913 0.007 0.23777 0.007 0.32659 l 0.0205 0 c 0.10659 -0.20908 0.22206 -0.39834 0.34709 -0.5671 0.12436 -0.16876 0.26921 -0.31156 0.43387 -0.42703 0.16876 -0.12026 0.36007 -0.21113 0.57393 -0.2733 0.21796 -0.0683 0.4694 -0.10044 0.75397 -0.10044 0.54729 0 0.97862 0.10932 1.29442 0.32728 0.32045 0.21795 0.54251 0.56505 0.66754 1.04086 l 0.0205 0 c 0.10659 -0.20907 0.22684 -0.39833 0.36007 -0.5671 0.13324 -0.16876 0.28902 -0.31156 0.46735 -0.42703 0.17764 -0.12025 0.37784 -0.21112 0.60058 -0.2733 0.22274 -0.0683 0.47622 -0.10044 0.76066 -0.10044 0.36486 0 0.67847 0.0478 0.94084 0.1469 0.26715 0.0977 0.48511 0.24939 0.65388 0.45368 0.16876 0.20429 0.29379 0.4694 0.37373 0.79401 0.0799 0.32044 0.12026 0.70286 0.12026 1.14766 l 0 4.81078 -1.1877 0 0 -4.57725 c 0 -0.35119 -0.0205 -0.64499 -0.0683 -0.88078 -0.0478 -0.23572 -0.12025 -0.42498 -0.22684 -0.5671 -0.10248 -0.1469 -0.23777 -0.24938 -0.40722 -0.30678 -0.16876 -0.0615 -0.37578 -0.0936 -0.62039 -0.0936 -0.25349 0 -0.48238 0.0478 -0.68728 0.1469 -0.2043 0.0936 -0.38057 0.23367 -0.52679 0.4202 -0.14212 0.18652 -0.25349 0.4202 -0.33343 0.7006 -0.0758 0.28014 -0.11342 0.60468 -0.11342 0.97419 l 0 4.18355 -1.1877 0" fill="#282629"/>
  <path d="m -325.26874 -300.4925 c 0 0.37784 0.0342 0.72725 0.11342 1.04756 0.0799 0.31566 0.20019 0.58965 0.36008 0.82066 0.16466 0.22684 0.37373 0.40448 0.62722 0.53362 0.25349 0.12435 0.55822 0.18652 0.91413 0.18652 0.52063 0 0.93632 -0.10453 1.24768 -0.31361 0.31567 -0.20907 0.52952 -0.47349 0.64021 -0.79401 l 1.05426 0.29995 c -0.0758 0.20019 -0.18243 0.40244 -0.32045 0.60741 -0.13323 0.2002 -0.31361 0.38262 -0.54045 0.54729 -0.22684 0.15988 -0.51175 0.2938 -0.85406 0.40038 -0.33821 0.10249 -0.74735 0.15374 -1.22774 0.15374 -1.06758 0 -1.88161 -0.3184 -2.44208 -0.95417 -0.55617 -0.6361 -0.83405 -1.58132 -0.83405 -2.83577 0 -0.67642 0.0847 -1.24769 0.25349 -1.71476 0.16876 -0.47144 0.40038 -0.85406 0.69391 -1.14766 0.2938 -0.2938 0.63611 -0.50492 1.02754 -0.63406 0.39151 -0.13323 0.80959 -0.20019 1.25445 -0.20019 0.60468 0 1.10981 0.0977 1.51464 0.2938 0.40927 0.19541 0.73614 0.46734 0.98081 0.81403 0.24939 0.34231 0.42498 0.74734 0.52679 1.21434 0.10658 0.46735 0.15988 0.972 0.15988 1.51464 l 0 0.15988 -5.15105 0 m 3.90999 -0.92075 c -0.0683 -0.76067 -0.26032 -1.31445 -0.58077 -1.66147 -0.32044 -0.35119 -0.78068 -0.52679 -1.38119 -0.52679 -0.2002 0 -0.41132 0.0342 -0.63406 0.0998 -0.21796 0.0615 -0.4202 0.17559 -0.60741 0.34026 -0.18653 0.16466 -0.34505 0.38945 -0.4735 0.67368 -0.12913 0.28014 -0.20224 0.63816 -0.22001 1.07428 l 3.89666 0" fill="#282629"/>
  <path d="m -318.58304 -297.1363 0 -9.90183 1.20102 0 0 9.90183 -1.20102 0" fill="#282629"/>
  <path d="m -315.54708 -305.89047 0 -1.14766 1.20103 0 0 1.14766 -1.20103 0 m 0 8.75417 0 -7.21952 1.20103 0 0 7.21952 -1.20103 0" fill="#282629"/>
  <path d="m -309.72207 -297.18973 c -0.18243 0.0478 -0.36896 0.0868 -0.56027 0.11342 -0.18653 0.0342 -0.40449 0.0478 -0.65387 0.0478 -0.96086 0 -1.44126 -0.54455 -1.44126 -1.63468 l 0 -4.81748 -0.83404 0 0 -0.87409 0.88078 0 0.35392 -1.61473 0.80064 0 0 1.61473 1.33453 0 0 0.87409 -1.33453 0 0 4.55723 c 0 0.34709 0.0547 0.59169 0.16671 0.73395 0.11547 0.13801 0.31362 0.20702 0.59375 0.20702 0.11547 0 0.22684 -0.007 0.33343 -0.0273 0.11137 -0.0205 0.23162 -0.041 0.36007 -0.0683 l 0 0.88747" fill="#282629"/>
  <path d="m -394.83515 -349.39981 0 -2.60224 c 0.42703 -0.93414 0.94746 -1.77481 1.56137 -2.52216 0.61356 -0.75622 1.25438 -1.44569 1.92165 -2.06841 0.67642 -0.63132 1.34334 -1.21441 2.00172 -1.74817 0.66754 -0.5425 1.26327 -1.06314 1.78821 -1.56137 0.53362 -0.50697 0.96523 -1.01422 1.29442 -1.52133 0.32933 -0.50697 0.494 -1.04531 0.494 -1.61466 0 -0.8363 -0.20908 -1.45458 -0.62723 -1.85496 -0.41815 -0.40039 -1.03199 -0.60058 -1.84157 -0.60058 -0.80071 0 -1.41461 0.21795 -1.84157 0.65387 -0.41815 0.42703 -0.68954 1.07209 -0.81403 1.93497 l -3.77661 -0.21317 c 0.0888 -0.73839 0.27125 -1.43231 0.54728 -2.08174 0.27604 -0.64977 0.66754 -1.21885 1.17438 -1.70813 0.51585 -0.48921 1.15654 -0.87183 1.92165 -1.14766 0.77399 -0.28492 1.69474 -0.42703 2.76232 -0.42703 1.01422 0 1.91277 0.12025 2.69564 0.36007 0.78294 0.23162 1.44125 0.57393 1.97508 1.02755 0.53362 0.45368 0.93851 1.00977 1.21434 1.66809 0.27604 0.64977 0.41337 1.39233 0.41337 2.22856 0 0.88079 -0.17355 1.67705 -0.52064 2.38872 -0.34709 0.71175 -0.79182 1.37006 -1.33446 1.97502 -0.5425 0.59579 -1.14766 1.15661 -1.81493 1.68148 -0.65865 0.52474 -1.29886 1.03643 -1.92164 1.53465 -0.62313 0.4981 -1.19214 1.00083 -1.70814 1.50794 -0.50697 0.50698 -0.88515 1.04982 -1.13426 1.62806 l 8.72746 0 0 3.08263 -13.15795 0" fill="#282629"/>
  <path d="m -378.84806 -349.39981 0 -2.78904 4.65732 0 0 -12.82438 -4.51056 2.81575 0 -2.94919 4.71069 -3.05592 3.5497 0 0 16.01374 4.31037 0 0 2.78904 -12.71752 0" fill="#282629"/>
  <path d="m -363.50159 -349.39981 0 -4.07014 3.85662 0 0 4.07014 -3.85662 0" fill="#282629"/>
  <path d="m -343.33763 -355.65854 c 0 0.94309 -0.151 1.81492 -0.45368 2.61563 -0.2938 0.79175 -0.73395 1.48122 -1.32114 2.06841 -0.58692 0.57803 -1.3167 1.03198 -2.18853 1.36117 -0.86295 0.32045 -1.86384 0.48033 -3.00255 0.48033 -1.04982 0 -1.96613 -0.12435 -2.74907 -0.37374 -0.78287 -0.25827 -1.4457 -0.60946 -1.98834 -1.05426 -0.53362 -0.45368 -0.95641 -0.98306 -1.26777 -1.58801 -0.30268 -0.60468 -0.51176 -1.25439 -0.62723 -1.94837 l 3.7499 -0.30678 c 0.0711 0.2938 0.16876 0.57803 0.2938 0.85407 0.13323 0.27603 0.31566 0.52064 0.54728 0.73402 0.23094 0.21317 0.51586 0.38672 0.85407 0.52064 0.33821 0.12435 0.74727 0.18652 1.22774 0.18652 0.93407 0 1.67697 -0.2979 2.22856 -0.8941 0.56027 -0.5958 0.84068 -1.45458 0.84068 -2.57559 0 -0.49809 -0.0711 -0.94747 -0.21318 -1.34779 -0.13323 -0.40038 -0.32933 -0.74283 -0.58691 -1.02754 -0.24939 -0.28492 -0.56027 -0.50287 -0.93408 -0.65387 -0.36485 -0.151 -0.78294 -0.22684 -1.25445 -0.22684 -0.62313 0 -1.13434 0.12025 -1.53465 0.36007 -0.40039 0.23162 -0.73839 0.51586 -1.01422 0.85407 l -3.65643 0 0.65387 -10.58243 11.30305 0 0 2.78904 -7.90011 0 -0.30678 4.75073 c 0.37374 -0.32933 0.84512 -0.60947 1.41454 -0.84068 0.56915 -0.2405 1.23211 -0.36007 1.98833 -0.36007 0.92527 0 1.75262 0.151 2.48213 0.45368 0.7295 0.30268 1.34785 0.72507 1.85496 1.26777 0.50697 0.54251 0.8941 1.19658 1.16098 1.96169 0.26715 0.75616 0.40039 1.5969 0.40039 2.52216" fill="#282629"/>
  <path d="m -311.40356,-355.16476 c 0,1.11207 -0.12435,2.05065 -0.37374,2.81576 -0.24938,0.7651 -0.58691,1.38338 -1.01422,1.85489 -0.42703,0.46257 -0.9297,0.79627 -1.50794,1.0009 -0.56915,0.20429 -1.17881,0.30678 -1.82824,0.30678 -0.66754,0 -1.28999,-0.10249 -1.86829,-0.30678 -0.56915,-0.20429 -1.06758,-0.5384 -1.49462,-1.0009 -0.41815,-0.47144 -0.75178,-1.08979 -1.00083,-1.85489 -0.2405,-0.76511 -0.36007,-1.70369 -0.36007,-2.81576 0,-1.1743 0.12025,-2.14404 0.36007,-2.90915 0.24939,-0.77399 0.58692,-1.38789 1.01423,-1.84157 0.42703,-0.46256 0.92963,-0.78287 1.50793,-0.96086 0.58692,-0.18653 1.21879,-0.28013 1.89494,-0.28013 0.64021,0 1.2455,0.0936 1.81492,0.28013 0.56915,0.17765 1.06308,0.49809 1.48123,0.96086 0.42703,0.45368 0.76066,1.06758 1.00089,1.84157 0.24939,0.76511 0.37374,1.73485 0.37374,2.90915 m -16.21393,5.76495 -2.749,0 12.27717,-18.80278 2.7891,0 -12.31727,18.80278 m -1.92165,-19.01629 c 0.64021,0 1.2455,0.0936 1.81493,0.28013 0.56915,0.17765 1.06758,0.49399 1.49461,0.94747 0.42704,0.45368 0.76511,1.06758 1.01422,1.84157 0.24939,0.76511 0.37374,1.73485 0.37374,2.90915 -7e-5,1.11207 -0.12435,2.05065 -0.37374,2.81576 -0.24938,0.7651 -0.59169,1.38345 -1.02761,1.85496 -0.42703,0.47144 -0.92963,0.80959 -1.50794,1.01415 -0.57803,0.20429 -1.19658,0.30678 -1.85489,0.30678 -0.64978,0 -1.26334,-0.10249 -1.84157,-0.30678 -0.56915,-0.20429 -1.06759,-0.5384 -1.49462,-1.00083 -0.41815,-0.47144 -0.75178,-1.08985 -1.0009,-1.85496 -0.2405,-0.76504 -0.36007,-1.70806 -0.36007,-2.82908 0,-1.1743 0.12025,-2.14404 0.36007,-2.90915 0.24051,-0.77399 0.57394,-1.38782 1.0009,-1.84157 0.42703,-0.45368 0.92963,-0.76955 1.50794,-0.94747 0.58691,-0.18653 1.21879,-0.28013 1.89493,-0.28013 m 15.26647,13.25134 c -7e-5,-0.77398 -0.041,-1.41453 -0.12026,-1.92164 -0.0711,-0.50698 -0.18242,-0.90743 -0.33342,-1.20103 -0.151,-0.30268 -0.33821,-0.51175 -0.56027,-0.62722 -0.22274,-0.12435 -0.48511,-0.18653 -0.78738,-0.18653 -0.32933,0 -0.61424,0.0615 -0.85407,0.18653 -0.23162,0.11547 -0.42225,0.32454 -0.57393,0.62722 -0.151,0.30269 -0.26715,0.70731 -0.34709,1.21435 -0.0711,0.50697 -0.10659,1.14322 -0.10659,1.90832 0,0.74735 0.0342,1.37006 0.10659,1.86829 0.0711,0.48921 0.18243,0.88516 0.33343,1.1877 0.15988,0.30268 0.35597,0.51586 0.58691,0.64021 0.23094,0.12435 0.50697,0.18653 0.82742,0.18653 0.2938,0 0.55138,-0.0615 0.77399,-0.18653 0.23094,-0.12435 0.42225,-0.33343 0.57393,-0.62723 0.15988,-0.30268 0.28013,-0.70286 0.36007,-1.20109 0.0799,-0.49809 0.12026,-1.12094 0.12026,-1.86822 m -13.46487,-7.27295 c -6e-5,-0.76504 -0.041,-1.39671 -0.12025,-1.89493 -0.0711,-0.50698 -0.18243,-0.90743 -0.33343,-1.20103 -0.151,-0.30268 -0.33821,-0.51175 -0.56026,-0.62722 -0.22274,-0.12435 -0.48511,-0.18653 -0.78738,-0.18653 -0.32933,0 -0.61357,0.0615 -0.85407,0.18653 -0.24051,0.12435 -0.43592,0.33821 -0.58691,0.64021 -0.151,0.2938 -0.26716,0.69391 -0.3471,1.20102 -0.0711,0.49809 -0.10658,1.12545 -0.10658,1.88161 0,0.74734 0.0342,1.37006 0.10658,1.86828 0.0799,0.4981 0.19541,0.89855 0.3471,1.20103 0.15988,0.30268 0.35597,0.52064 0.58691,0.65387 0.23162,0.12435 0.50697,0.18721 0.82735,0.18653 0.30268,0 0.56505,-0.0615 0.78738,-0.18653 0.23162,-0.12435 0.42225,-0.33821 0.57393,-0.64021 0.15988,-0.30268 0.27604,-0.70279 0.3471,-1.20102 0.0799,-0.50697 0.12025,-1.13434 0.12025,-1.88161" fill="#282629"/>
  <path d="m -448.0377 -317.23133 10.51867 -32.82996 32.09337 -9.49101" fill="none" marker-end="url(#7)" marker-start="url(#8)" stroke="#000"/>
 </g>
</svg>
