<svg xmlns="http://www.w3.org/2000/svg" xmlns:xlink="http://www.w3.org/1999/xlink" width="512" height="512">
 <defs>
  <linearGradient id="0">
   <stop stop-color="#d76673"/>
   <stop offset="1" stop-color="#cd1d31"/>
  </linearGradient>
  <radialGradient xlink:href="#0" id="1" cx="256" cy="256" r="216" gradientUnits="userSpaceOnUse"/>
 </defs>
 <rect rx="147.5047" width="450" height="450" x="31" y="31" opacity="0.25" fill="#282629"/>
 <rect rx="147.5047" width="444" height="444" x="34" y="34" opacity="0.25" fill="#282629"/>
 <rect y="37" x="37" height="438" width="438" rx="147.5047" opacity="0.25" fill="#282629"/>
 <rect rx="147.5047" width="432" height="432" x="40" y="40" fill="url(#1)"/>
 <path d="m 254.72212 106.64395 c -39.09007 0 -78.66927 26.11313 -78.66927 65.71527 l 0 72.0522 -28.98893 0 0 160.94462 217.87216 0 0 -160.94462 -29.86419 0 0 -74.04782 c 0 -29.76324 -30.77797 -63.71965 -80.34977 -63.71965 z m -0.56017 36.09614 c 21.04883 -0.11025 43.97349 14.5816 43.97349 36.97139 l 0 64.69994 -86.30158 0 0.0346 -0.0349 0 -64.38485 c 0 -24.28571 24.18568 -37.15663 42.29308 -37.25148 z m 0.98022 136.96221 c 12.04356 0 21.81182 9.7682 21.81182 21.81173 0 7.18251 -3.50009 13.53218 -8.85776 17.5054 l 8.64773 48.52496 -42.81825 0 8.57764 -48.27989 c -5.54206 -3.95407 -9.17281 -10.42355 -9.17281 -17.75047 0 -12.04353 9.76816 -21.81173 21.81163 -21.81173 z" fill="#fff8eb" fill-rule="evenodd"/>
</svg>
