<svg xmlns="http://www.w3.org/2000/svg" width="512" height="512">
 <rect rx="147.5047" width="450" height="450" x="31" y="31" opacity="0.25" fill="#282629"/>
 <rect rx="147.5047" width="444" height="444" x="34" y="34" opacity="0.25" fill="#282629"/>
 <rect y="37" x="37" height="438" width="438" rx="147.5047" opacity="0.25" fill="#282629"/>
 <rect rx="147.5047" width="432" height="432" x="40" y="40" fill="#5c805a"/>
 <path d="M 40.625 337.96875 C 44.042 376.03839 61.777687 409.85997 88.46875 434 L 423.53125 434 C 450.22231 409.85997 467.958 376.03839 471.375 337.96875 L 40.625 337.96875 z" opacity="0.66" fill="#282629" fill-rule="evenodd"/>
 <text x="161.54984" y="420.2301" fill="#fff8eb" font-family="Sans" font-style="italic" word-spacing="0" line-height="125%" font-weight="bold" letter-spacing="0" font-size="91.74007"><tspan x="161.54984" y="420.2301">.xml</tspan>
 </text>
 <path d="m 255.75882 58.790518 c -14.25585 0 -28.0173 2.096745 -41.00458 5.992983 1.44959 7.00275 -0.10082 14.403012 6.88354 14.305221 4.51087 6.0502 -8.98772 1.793695 0.76075 6.456813 5.6059 4.188448 -5.922 6.594477 1.02045 10.353197 -8.00137 3.91694 1.29308 20.492778 7.2361 24.639848 9.78161 7.81217 4.33709 -16.54519 15.25148 -17.81194 5.93072 -6.423278 16.33325 -10.552458 23.73072 -17.0141 -7.2295 -0.556802 -11.46667 -4.832852 -4.61999 -7.47731 12.60112 12.249967 3.17182 -5.788065 -3.80357 -8.646216 6.74954 -2.036904 13.31212 -0.560721 12.37557 -5.844545 2.21669 -1.538525 2.38971 -2.743867 1.42869 -3.655157 -6.29913 -0.851172 -12.7267 -1.29879 -19.25916 -1.29879 z m -69.5594 18.10881 c -4.16073 2.331556 -8.18914 4.865027 -12.07868 7.588629 3.67081 0.146712 6.37727 0.961827 8.53489 6.252726 9.64398 5.272965 0.84559 14.221553 -3.35833 17.292433 7.03098 -3.94057 19.35393 15.57462 15.99365 4.74984 -4.13818 -2.86652 11.12136 4.60335 3.20989 -4.71274 -7.28075 -11.128418 0.56701 -4.97223 3.63661 -2.37493 10.44011 -8.881438 -11.80755 -9.970648 -6.25277 -19.11071 -2.7162 -2.087119 -5.89931 -6.543892 -9.68526 -9.685247 z m -6.90212 31.13379 c -0.2268 0.12712 -0.43426 0.26758 -0.64935 0.44529 0.20146 -0.13277 0.41542 -0.2744 0.64935 -0.44529 z m 38.62966 -23.600826 c -5.43989 4.300068 10.34209 5.109889 0 0 z m 123.19928 2.764572 c -7.02289 5.851846 -11.38124 14.582774 -16.42036 22.22779 -10.84575 4.6391 -10.447 24.54609 1.66986 18.18305 3.24303 5.37341 -2.26567 13.83539 7.18043 6.80934 7.61924 -9.56554 1.33927 -25.02789 14.30524 -31.05957 0.94445 4.68996 -11.95877 22.21186 3.1171 19.33338 13.62878 0.48785 -9.89413 1.27783 -3.26554 9.53681 -6.88692 -3.87652 -3.31188 10.58343 -12.30139 7.21756 -7.78787 4.01885 -12.89794 -1.86555 -11.11388 -8.31225 -6.12648 3.39069 1.91471 12.9696 -8.72044 13.5445 -2.38235 8.02569 -21.97662 6.80087 -10.8356 14.97317 4.94632 12.16161 -18.41844 0.76845 -11.78189 15.36279 5.67791 14.4316 17.56716 -4.76711 22.39484 -8.47922 9.02348 -6.64032 22.25751 10.53803 15.45555 12.2457 8.56345 -1.534 6.5501 -9.66263 -0.77928 -12.85799 -4.06706 -10.00692 12.8699 4.92779 11.93032 9.945 5.97752 10.61901 3.52819 -10.88781 9.61104 -1.37301 -0.71024 10.03673 24.47147 2.36703 12.44975 15.15871 -10.3359 1.975 -20.52831 -2.513 -29.42679 0.37108 -8.28215 -0.0696 -7.8388 -8.47354 -10.85412 -10.57583 -10.535 0.81199 -23.58007 0.72052 -30.63287 8.79464 -7.62672 9.92714 -18.61015 23.80164 -10.29751 36.47738 8.31849 18.78398 28.94252 0.96677 40.80045 12.06016 3.52464 4.62546 -3.05676 10.12996 4.82408 15.14017 2.96552 10.67264 -3.36836 20.80152 3.91494 31.00391 3.76616 9.5948 6.11371 23.96337 20.13118 15.19582 14.83558 -8.46971 10.87718 -24.0815 23.1184 -32.72945 -9.68594 -17.78368 11.8636 -25.56556 17.23683 -40.00266 -11.73947 1.63048 -22.21175 -9.49314 -25.04804 -20.66928 -4.9316 -5.42851 -3.65342 -13.42631 1.85541 -3.22841 7.57176 6.96052 7.73881 27.60201 21.74538 16.97701 1.58729 -0.62986 3.85605 -1.68652 6.15998 -3.00576 0.41056 -4.15588 0.64082 -8.36377 0.68648 -12.61681 -7.84933 -0.0183 -14.26004 -17.79986 -2.59758 -5.17659 0.8853 0.35634 1.74564 0.68264 2.57905 1.00192 -0.12054 -6.68124 -0.67849 -13.25952 -1.68845 -19.68591 -1.12532 1.77387 -3.44468 1.9178 -6.92067 -1.70697 1.39594 -8.7482 -9.25799 -15.42244 2.18942 -18.55412 -9.02521 -28.87699 -27.00478 -53.78962 -50.67132 -71.52606 z m -171.86668 0.853485 c -0.94878 0.725809 -1.89044 1.459024 -2.82022 2.207932 -1.50718 3.700289 -4.27539 7.271519 -5.21374 4.415879 -26.6314 23.631048 -44.34401 57.08194 -47.4614 94.68161 3.73546 6.47205 10.44125 17.53146 10.81707 13.17342 -4.99214 -4.95967 -10.13564 -19.83905 -1.68845 -6.58671 7.56621 12.59732 17.78255 20.77007 32.69234 23.76781 8.15169 2.63053 14.8551 11.6748 22.02374 9.68524 4.05359 10.13761 -12.01414 19.87858 0.53805 29.33405 6.55289 9.57225 17.57113 15.85819 11.61487 29.29694 -3.83503 12.08434 -2.65213 25.14039 -5.25078 36.68148 3.678 2.12752 7.46024 4.10151 11.33654 5.90021 1.81906 -7.93986 3.37299 -15.72471 9.51828 -21.24447 11.34175 0.0852 2.17506 -11.57885 13.43317 -10.05633 6.86971 -8.5425 8.85337 -18.74296 20.44663 -22.13504 1.38481 -10.3693 19.28071 -26.2431 0.79779 -30.28031 -5.02338 -2.34892 -17.96542 -3.18262 -16.97697 -4.34167 2.00259 -10.28907 -16.70874 -13.23127 -24.67696 -17.44086 -10.46197 -7.04504 -26.18619 11.70181 -29.87212 -4.45298 -2.19936 -5.08283 -10.2453 -5.14486 -6.54964 -12.98787 -6.66029 6.28426 -19.68254 4.36203 -16.27191 -7.77419 5.17959 -10.22103 25.07256 -10.71693 28.462 1.57711 -4.7061 -13.55886 9.09199 -24.12213 16.75432 -33.76848 1.56021 -4.61071 10.83442 -8.55845 7.6443 -2.43059 5.4349 -0.1861 13.66242 -9.48962 4.00769 -5.19514 -0.13662 -8.48538 -8.45236 -6.06604 -11.15099 -4.86118 5.00165 -7.53122 30.70222 -3.40509 19.94564 -15.71533 -8.33493 -3.20398 -7.65582 -21.90104 -16.08638 -11.48498 0.70944 -6.41778 -17.16282 -18.98138 -16.77293 -8.21948 2.18115 9.62989 0.39283 20.72109 -4.24891 27.03334 -0.96868 -14.11101 -26.34286 -11.01311 -23.08131 -26.04998 4.72508 -7.16662 10.27243 -17.05219 10.79848 -16.16062 7.86605 -2.84918 14.28281 -10.757438 7.2918 -16.568809 z m 11.2809 4.675621 c -4.60748 7.16056 6.80791 2.64365 0 0 z m 100.87866 8.479228 c -5.39422 5.89161 -12.50072 -1.557228 -12.61679 3.50672 0.97764 1.5301 4.89163 12.45637 13.47028 4.39733 4.6042 -1.84155 2.77997 -6.48275 -0.85349 -7.90405 z m -114.84994 3.50672 c -10.2314 8.47691 17.37943 9.26906 2.17087 0.98337 l -2.17087 -0.98337 z m 134.85127 23.56373 c -7.09896 4.59138 3.67157 14.16581 0 18.68398 -4.6158 7.62966 17.15599 -0.53657 5.52912 -6.6238 -0.79685 -5.0306 -6.37437 -11.1172 -5.51054 -12.06018 l -0.0185 0 z m -4.84259 9.11007 c -10.26336 2.7528 -2.33634 16.96698 1.29878 3.58093 0.20437 -0.77606 0.48793 -3.60688 -1.29878 -3.58093 z m -82.17618 10.27897 c -9.54809 6.17665 -1.487 12.35305 5.5106 9.57391 -1.4366 -3.72669 -5.44589 -6.08583 -5.5106 -9.57391 z m 155.87307 10.48307 c -0.64636 6.04589 13.73634 15.42381 -1.7812 12.35704 -8.20638 0.91326 -20.50603 -0.24391 -10.16762 -9.945 3.26673 -1.8605 11.84788 6.44021 7.38452 -1.29879 1.58238 -0.0957 3.07368 -0.65781 4.5643 -1.11325 z m 22.71026 4.65708 c -1.52465 1.65104 -2.40243 3.46743 1.37302 5.32502 -0.42651 -1.78896 -0.87983 -3.56293 -1.37302 -5.32502 z m -70.11602 8.42357 c -5.98558 3.65837 4.13902 6.4636 0 0 z m -150.3068 34.10245 c -1.0091 3.19384 18.93618 6.43423 5.17657 1.31734 l -2.05948 -0.6865 -3.11709 -0.63084 z m 15.47412 4.54575 c -6.04815 5.82502 12.46101 1.74028 0 0 z" opacity="0.317536" fill="#fff8eb"/>
 <g transform="matrix(1.2187873,0,0,1.2187873,-70.981167,-152.41191)" fill="#fff8eb" stroke="#fff8eb">
  <path d="m 141.90792 293.24494 c -0.94291 -0.70719 0 -23.10129 0 -23.10129 l 91.9337 -40.07367 0 26.87293 -63.17495 24.0442 62.7035 25.45856 0 26.16575 z"/>
  <path d="m 275.8628 210.80116 19.50208 0 -33.50358 139.18153 -19.33539 0 z"/>
  <path d="m 394.66012 293.24494 c 0.94291 -0.70719 0 -23.10129 0 -23.10129 l -91.9337 -40.07367 0 26.87293 63.17495 24.0442 -62.7035 25.45856 0 26.16575 z"/>
 </g>
</svg>
