<?xml version="1.0" encoding="UTF-8" standalone="no"?>
<svg
   xmlns:dc="http://purl.org/dc/elements/1.1/"
   xmlns:cc="http://creativecommons.org/ns#"
   xmlns:rdf="http://www.w3.org/1999/02/22-rdf-syntax-ns#"
   xmlns:svg="http://www.w3.org/2000/svg"
   xmlns="http://www.w3.org/2000/svg"
   xmlns:xlink="http://www.w3.org/1999/xlink"
   xmlns:sodipodi="http://sodipodi.sourceforge.net/DTD/sodipodi-0.dtd"
   xmlns:inkscape="http://www.inkscape.org/namespaces/inkscape"
   width="512"
   height="512"
   id="svg2"
   version="1.1"
   inkscape:version="0.48.4 r9939"
   sodipodi:docname="audio-base.svg">
  <metadata
     id="metadata106">
    <rdf:RDF>
      <cc:Work
         rdf:about="">
        <dc:format>image/svg+xml</dc:format>
        <dc:type
           rdf:resource="http://purl.org/dc/dcmitype/StillImage" />
        <dc:title></dc:title>
      </cc:Work>
    </rdf:RDF>
  </metadata>
  <sodipodi:namedview
     pagecolor="#ffffff"
     bordercolor="#666666"
     borderopacity="1"
     objecttolerance="10"
     gridtolerance="10"
     guidetolerance="10"
     inkscape:pageopacity="0"
     inkscape:pageshadow="2"
     inkscape:window-width="640"
     inkscape:window-height="743"
     id="namedview104"
     showgrid="false"
     showguides="true"
     inkscape:guide-bbox="true"
     inkscape:zoom="1.0117188"
     inkscape:cx="142.82625"
     inkscape:cy="256"
     inkscape:window-x="57"
     inkscape:window-y="0"
     inkscape:window-maximized="0"
     inkscape:current-layer="svg2">
    <sodipodi:guide
       orientation="0,1"
       position="325.18919,368.67954"
       id="guide13074" />
  </sodipodi:namedview>
  <defs
     id="defs4">
    <linearGradient
       id="0">
      <stop
         stop-color="#fff8eb"
         id="stop7" />
      <stop
         offset="1"
         stop-color="#eee"
         id="stop9" />
    </linearGradient>
    <linearGradient
       id="1">
      <stop
         stop-color="#f38725"
         stop-opacity="0.156863"
         id="stop12" />
      <stop
         offset="0.5"
         stop-color="#f38725"
         stop-opacity="0.078431"
         id="stop14" />
      <stop
         offset="1"
         stop-color="#f38725"
         stop-opacity="0"
         id="stop16" />
    </linearGradient>
    <radialGradient
       xlink:href="#0"
       id="2"
       cx="256"
       cy="256"
       r="216"
       gradientUnits="userSpaceOnUse" />
    <linearGradient
       xlink:href="#1"
       id="3"
       gradientUnits="userSpaceOnUse"
       gradientTransform="translate(-644.04145,-30.69729)"
       y1="336.85809"
       x2="0"
       y2="477.71429" />
  </defs>
  <rect
     rx="147.5047"
     width="450"
     height="450"
     x="31"
     y="31"
     opacity="0.25"
     fill="#282629"
     id="rect20" />
  <rect
     rx="147.5047"
     width="444"
     height="444"
     x="34"
     y="34"
     opacity="0.25"
     fill="#282629"
     id="rect22" />
  <rect
     y="37"
     x="37"
     height="438"
     width="438"
     rx="147.5047"
     opacity="0.25"
     fill="#282629"
     id="rect24" />
  <rect
     rx="147.5047"
     width="432"
     height="432"
     x="40"
     y="40"
     fill="url(#2)"
     id="rect26" />
  <path
     d="M 104.21875 65.625 C 68.972691 89.7019 44.806546 128.68639 40.65625 173.65625 L 471.34375 173.65625 C 467.19345 128.68639 443.02731 89.7019 407.78125 65.625 L 104.21875 65.625 z"
     fill="#999647"
     fill-opacity="0.235294"
     id="path28" />
  <text
     x="161.25352"
     y="143.03885"
     font-style="italic"
     word-spacing="0"
     line-height="125%"
     font-weight="bold"
     letter-spacing="0"
     font-size="89.15266"
     id="text30"
     sodipodi:linespacing="125%"
     style="font-size:89.15265656px;font-style:italic;font-weight:bold;line-height:125%;letter-spacing:0;word-spacing:0;fill:#282629;font-family:Sans">
    <tspan
       x="161.25352"
       y="143.03885"
       id="tspan32">.ogg</tspan>
  </text>
  <g
     transform="matrix(0.80216693,0,0,0.80216693,567.27405,97.098003)"
     id="g34">
    <g
       transform="matrix(1.2468126,0,0,1.2468126,-1397.626,-707.39866)"
       fill="#f38725"
       id="g36">
      <g
         transform="translate(68.750371,6.2150269)"
         id="g38">
        <path
           fill-opacity="0.235294"
           d="M 875.357,778.249 H908.571 V797.964 H875.357 z"
           id="path40" />
        <path
           fill-opacity="0.235294"
           d="M 875.357,748.535 H908.571 V768.249 H875.357 z"
           id="path42" />
        <path
           fill-opacity="0.235294"
           d="M 875.357,718.82 H908.571 V738.535 H875.357 z"
           id="path44" />
      </g>
      <g
         id="g46">
        <path
           fill-opacity="0.235294"
           d="M 642.143,665.606 H675.357 V685.32 H642.143 z"
           id="path48" />
        <path
           fill-opacity="0.235294"
           d="M 642.143,695.32 H675.357 V715.035 H642.143 z"
           id="path50" />
        <path
           fill-opacity="0.235294"
           d="M 642.143,725.035 H675.357 V744.75 H642.143 z"
           id="path52" />
        <path
           fill-opacity="0.235294"
           d="M 642.143,754.75 H675.357 V774.464 H642.143 z"
           id="path54" />
        <path
           fill-opacity="0.235294"
           d="M 642.143,784.464 H675.357 V804.179 H642.143 z"
           id="path56" />
      </g>
      <g
         transform="translate(-0.35712433,2.5717773)"
         id="g58">
        <path
           fill-opacity="0.235294"
           d="M 685.714,781.892 H718.929 V801.607 H685.714 z"
           id="path60" />
        <path
           fill-opacity="0.235294"
           d="M 685.714,752.178 H718.929 V771.892 H685.714 z"
           id="path62" />
        <path
           fill-opacity="0.235294"
           d="M 685.714,722.463 H718.929 V742.178 H685.714 z"
           id="path64" />
        <path
           fill-opacity="0.235294"
           d="M 685.714,692.748 H718.929 V712.463 H685.714 z"
           id="path66" />
      </g>
      <g
         transform="translate(6.4285736,6.2150269)"
         id="g68">
        <path
           fill-opacity="0.235294"
           d="M 722.143,718.82 H755.357 V738.535 H722.143 z"
           id="path70" />
        <path
           fill-opacity="0.235294"
           d="M 722.143,748.535 H755.357 V768.249 H722.143 z"
           id="path72" />
        <path
           fill-opacity="0.235294"
           d="M 722.143,778.249 H755.357 V797.964 H722.143 z"
           id="path74" />
      </g>
      <path
         fill-opacity="0.235294"
         d="M 771.786,784.464 H805 V804.179 H771.786 z"
         id="path76" />
      <g
         transform="translate(14.285736,6.6439209)"
         id="g78">
        <path
           fill-opacity="0.235294"
           d="M 800.714,777.82 H833.929 V797.535 H800.714 z"
           id="path80" />
        <path
           fill-opacity="0.235294"
           d="M 800.714,748.106 H833.929 V767.82 H800.714 z"
           id="path82" />
      </g>
      <g
         transform="translate(15.35714,6.6439209)"
         id="g84">
        <path
           fill-opacity="0.235294"
           d="M 842.857,777.82 H876.071 V797.535 H842.857 z"
           id="path86" />
        <path
           fill-opacity="0.235294"
           d="M 842.857,748.106 H876.071 V767.82 H842.857 z"
           id="path88" />
      </g>
      <g
         transform="translate(-14.185268,3.6432495)"
         id="g90">
        <path
           fill-opacity="0.235294"
           d="M 916.786,780.821 H950 V800.536 H916.786 z"
           id="path92" />
        <path
           fill-opacity="0.235294"
           d="M 916.786,751.106 H950 V770.821 H916.786 z"
           id="path94" />
        <path
           fill-opacity="0.235294"
           d="M 916.786,721.392 H950 V741.106 H916.786 z"
           id="path96" />
        <path
           fill-opacity="0.235294"
           d="M 916.786,691.677 H950 V711.392 H916.786 z"
           id="path98" />
      </g>
    </g>
    <path
       d="m -596.97895 305.27146 0 24.5625 41.40625 0 0 -24.5625 -41.40625 0 z m 53.875 0 0 24.5625 41.40625 0 0 -24.5625 -41.40625 0 z m 53.875 0 0 24.5625 41.40625 0 0 -24.5625 -41.40625 0 z m 53.875 0 0 24.5625 41.40625 0 0 -24.5625 -41.40625 0 z m 53.875 0 0 24.5625 41.40625 0 0 -24.5625 -41.40625 0 z m 53.875 0 0 24.5625 41.4375 0 0 -24.5625 -41.4375 0 z m 55.34375 0 0 24.5625 41.40625 0 0 -24.5625 -41.40625 0 z m 51.75 0 0 24.5625 41.40625 0 0 -24.5625 -41.40625 0 z m -376.46875 37.03125 0 24.59375 41.40625 0 0 -24.59375 -41.40625 0 z m 53.875 0 0 24.59375 41.40625 0 0 -24.59375 -41.40625 0 z m 53.875 0 0 24.59375 41.40625 0 0 -24.59375 -41.40625 0 z m 107.75 0 0 24.59375 41.40625 0 0 -24.59375 -41.40625 0 z m 53.875 0 0 24.59375 41.4375 0 0 -24.59375 -41.4375 0 z m 55.34375 0 0 24.59375 41.40625 0 0 -24.59375 -41.40625 0 z m 51.75 0 0 24.59375 41.40625 0 0 -24.59375 -41.40625 0 z m -376.46875 37.0625 0 24.5625 41.40625 0 0 -24.5625 -41.40625 0 z m 53.875 0 0 24.5625 41.40625 0 0 -24.5625 -41.40625 0 z m 53.875 0 0 24.5625 41.40625 0 0 -24.5625 -41.40625 0 z m 216.96875 0 0 24.5625 41.40625 0 0 -24.5625 -41.40625 0 z m 51.75 0 0 24.5625 41.40625 0 0 -24.5625 -41.40625 0 z m -376.46875 37.03125 0 8.5625 c 5.29469 5.78766 11.06502 11.15223 17.21875 16.03125 l 24.1875 0 0 -24.59375 -41.40625 0 z m 53.875 0 0 24.59375 41.40625 0 0 -24.59375 -41.40625 0 z m 270.84375 0 0 24.59375 41.40625 0 0 -24.59375 -41.40625 0 z m -289.03125 37.0625 c 1.8764 1.07109 3.79138 2.10386 5.71875 3.09375 l 0 -3.09375 -5.71875 0 z"
       fill="url(#3)"
       id="path100" />
    <path
       d="m -266.18289 145.8328 -153.04669 35.59754 c -11.49681 2.77216 -20.75219 13.79935 -20.75219 24.5099 l 0 169.81806 c -11.65805 -5.49319 -26.63033 -7.71431 -42.15274 -4.08493 -28.01036 6.54915 -45.56281 27.71524 -39.55866 47.26889 6.00428 19.55377 33.5973 30.47547 61.6079 23.92627 22.34648 -5.2249 37.75047 -20.00843 40.20711 -35.59763 l 0.64823 -160.48098 145.26467 -35.01406 0 126.6341 c -11.65792 -5.49305 -26.6302 -7.7143 -42.15262 -4.08493 -28.01047 6.54916 -45.56305 27.71525 -39.55865 47.26887 6.00427 19.55378 33.59742 30.47564 61.60765 23.92633 22.3466 -5.22488 37.7506 -20.00832 40.20736 -35.59767 l 0.64822 -208.91707 c 0 -8.03285 -5.51668 -14.04276 -12.96994 -15.17269 z"
       fill="#f38725"
       color="#bebebe"
       id="path102" />
  </g>
</svg>
