<svg xmlns="http://www.w3.org/2000/svg" xmlns:xlink="http://www.w3.org/1999/xlink" width="512" height="512">
 <defs>
  <linearGradient id="0">
   <stop stop-color="#f1a45e"/>
   <stop offset="1" stop-color="#f38725"/>
  </linearGradient>
  <radialGradient xlink:href="#0" id="1" cx="256" cy="256" r="216" gradientUnits="userSpaceOnUse"/>
 </defs>
 <rect rx="147.5047" width="450" height="450" x="31" y="31" opacity="0.25" fill="#282629"/>
 <rect rx="147.5047" width="444" height="444" x="34" y="34" opacity="0.25" fill="#282629"/>
 <rect y="37" x="37" height="438" width="438" rx="147.5047" opacity="0.25" fill="#282629"/>
 <rect rx="147.5047" width="432" height="432" x="40" y="40" fill="url(#1)"/>
 <path d="m 301.75184,110.5456 c -1.94607,0.0657 -3.92853,0.11964 -6.1329,0.23589 -6.52942,1.36217 -12.60904,4.39674 -18.87049,6.60466 -9.68725,3.79969 -19.00111,10.29574 -22.9984,20.16784 -1.0021,2.18807 -5.39183,9.28322 -7.66614,12.50169 -4.25847,4.9709 -9.66388,9.0481 -15.09639,12.61964 -6.74476,4.0121 -12.24797,9.30776 -18.87049,18.16285 -6.69208,9.20046 -7.27563,17.19565 -10.61464,27.59809 -5.14652,5.44296 -9.21145,-2.06505 -7.90203,-7.31232 3.14968,-12.69742 8.80923,-24.14944 8.01996,-37.62303 -1.94993,-17.74218 -9.2602,-41.42778 -30.31072,-42.81242 -4.70426,0.0151 -6.04074,0.75787 -11.32229,5.54321 -3.53607,3.20382 -5.89057,4.29386 -11.67611,5.77909 -6.90906,1.69766 -14.277,0.52199 -20.75754,3.5382 -3.1,1.81674 -6.84194,7.35222 -7.66613,11.3223 -0.68768,3.31249 0.96206,6.59339 4.24585,8.37378 6.62207,3.11287 17.91229,0.79185 19.34226,10.02495 -2.25144,9.77958 -8.37624,16.53794 -8.01996,26.30074 -0.43579,10.67933 0.92378,19.50521 1.65117,29.95689 0.96099,12.81001 10.21342,19.6047 16.62962,30.31072 9.65908,12.32669 26.80182,25.20169 43.28417,20.16784 5.72101,-1.84947 8.01143,-1.52221 10.14289,1.53322 1.45457,2.08508 1.65667,4.00557 0.82558,8.60966 -1.01406,5.61782 -1.00429,16.2921 0,22.29076 0.74395,4.44385 1.29806,11.20201 1.29735,14.97845 -6e-4,3.08812 0.61193,6.95038 1.41529,10.14289 0.52403,2.08187 0.61461,4.26171 0.82558,11.32229 0.14265,4.7671 0.39269,9.42539 0.5897,10.37877 0.66802,3.23221 0.52044,5.86419 -0.94352,15.92197 -0.61956,4.25639 -2.76917,12.03609 -4.24586,15.33227 -0.7971,1.77922 -2.84782,5.93703 -4.59969,9.3173 -0.14757,0.28495 -0.24116,0.48192 -0.35363,0.70765 0.75305,-0.0457 1.61838,-0.0717 2.35881,-0.11775 5.84113,-0.36421 11.38899,-0.85574 16.8655,-1.29735 -1.73306,0.11624 -3.45526,0.22079 -5.18938,0.35363 0.85856,-4.22913 1.70815,-8.75383 1.88704,-11.91199 0.16833,-2.96927 0.5742,-6.37781 1.06147,-8.7276 0.44093,-2.12633 0.88182,-5.67998 1.06147,-7.90201 0.42171,-5.22128 0.82962,-6.73692 3.30233,-12.02994 1.12472,-2.40753 2.3987,-5.58612 2.83057,-7.07643 0.7552,-2.60587 0.77634,-3.11163 0.70765,-10.73259 -0.0623,-6.93035 0.0959,-8.35321 0.70764,-12.02995 1.2147,-7.30155 1.77549,-9.47637 4.12791,-14.2708 3.19772,-6.5171 3.46803,-7.51317 3.77411,-13.44521 0.35703,-6.91767 1.49057,-10.5023 3.89203,-12.97347 1.35128,-1.39053 2.51974,-2.12293 4.71763,-2.35881 0.73263,-0.0784 1.60667,0.003 2.59468,0 4.1619,-0.0113 6.02596,0.55438 7.31232,2.24088 1.20591,1.58131 1.33875,3.52844 0.35364,7.78407 -0.44135,1.90682 -0.99372,5.36292 -1.17941,7.66614 -0.40689,5.04705 -1.287,7.91714 -3.53821,11.91199 -2.86927,5.09178 -2.94475,5.53992 -2.94852,14.03492 -0.004,6.8224 0.0548,7.52098 0.70765,9.55319 0.38982,1.21344 1.16623,2.84069 1.7691,3.65615 1.33701,1.80855 5.32522,5.22622 9.55319,8.25584 4.09508,2.9344 8.75043,7.44773 11.55817,11.20436 2.9815,3.95294 7.24876,7.8597 7.78407,12.97345 0.008,3.73682 -2.16833,8.45583 -5.30732,11.55818 -1.60973,1.59093 -2.71347,2.33744 -5.89703,3.89203 -4.38195,2.13984 -6.03553,3.53033 -6.36879,5.30733 -0.12794,0.68137 0.10983,1.20858 0.35364,1.76911 7.798,-0.008 15.17515,0.12341 22.17282,0.35363 1.36018,-1.00591 2.43075,-2.30183 3.30233,-4.12792 1.195,-2.50374 2.11538,-3.75768 3.30234,-3.65616 1.18695,0.10153 2.54517,1.60241 4.3638,4.36381 1.21975,1.85209 2.37522,3.15374 3.53822,4.12791 2.65013,0.157 5.37042,0.2823 7.90201,0.47177 1.45473,-1.36729 2.43577,-3.68779 2.94851,-7.19438 0.30571,-2.09006 0.29438,-3.03697 -0.11775,-5.42526 -0.94545,-5.47875 -2.24619,-7.60858 -6.13291,-10.85054 -1.31248,-1.09479 -2.74403,-2.51947 -3.18439,-3.18439 -1.17016,-1.76651 -1.53703,-4.10708 -1.06146,-6.36879 0.57947,-2.75589 3.27199,-7.64201 6.36879,-11.79405 2.77407,-3.71937 4.23166,-6.042 6.48672,-10.37877 0.84506,-1.62516 2.10078,-3.21923 4.00998,-5.18938 1.52915,-1.57791 3.20508,-3.78697 3.7741,-4.83557 l 0.94352,-1.88705 0,-10.73258 c -0.0377,-7.65047 0.40402,-15.06933 1.41529,-22.64458 0.83766,-9.08524 4.05896,-16.255 8.49172,-24.05988 2.53461,-5.23531 3.72507,-6.72261 5.89703,-6.72261 2.91303,0 4.68498,3.22598 5.5432,10.02495 0.98149,6.67369 4.22816,12.38405 6.25085,18.75254 1.23334,4.53594 2.11407,6.57629 4.95351,12.26582 2.69413,5.39851 4.96402,11.42035 5.66114,15.09638 0.3691,1.94564 0.46988,4.64317 0.47176,10.26084 0.003,8.27546 0.27702,11.57289 1.29735,15.80403 0.77539,3.21553 1.15468,12.43403 0.82558,18.63461 -0.19247,3.62604 -0.26419,4.09836 -2.24087,9.907 -2.89911,8.51969 -3.56366,11.00889 -4.12792,15.33227 -0.54343,4.1646 -0.91038,5.17278 -2.83057,9.3173 -0.27475,0.59265 -0.40119,1.10456 -0.58971,1.65117 6.98326,1.35539 13.20976,2.82254 19.10637,4.3638 0.16153,-0.31551 0.37798,-0.60865 0.47176,-0.94352 0.73935,-3.29951 -0.30947,-6.69313 -0.11774,-10.02495 0.46489,-0.75226 -0.6333,-6.10268 -2.47676,-11.79405 -2.93179,-9.05115 -3.15616,-10.49566 -1.65117,-16.62962 0.26155,-1.06554 0.66745,-4.6084 0.82559,-7.90202 0.30343,-6.32614 0.5885,-7.91809 2.24087,-12.02993 1.48163,-3.68695 1.91762,-5.3125 2.12293,-9.08142 0.23852,-4.38029 -0.27815,-6.95223 -1.88705,-10.73259 -1.5915,-3.73923 -1.79885,-5.4469 -1.06147,-9.43525 0.7983,-4.31817 0.79577,-14.456 0,-17.69108 -0.79124,-3.21693 -1.19582,-14.88519 -1.06146,-29.83895 l 1.65117,-18.28079 c 2.54328,-9.89115 4.09361,-13.44522 6.1329,-13.44522 1.86894,0 3.62646,3.05608 4.83557,8.60966 0.74002,5.14987 0.36646,10.43775 1.29735,15.56815 1.20578,7.08334 -0.7244,14.17215 -4.36381,20.28578 -2.15992,3.78824 -2.90507,6.51352 -2.35881,8.49171 0.43583,1.57806 2.0456,3.34064 3.30234,3.65616 0.54589,0.137 1.22839,-0.0815 2.00499,-0.47177 0.96247,-0.48361 1.94011,-1.68856 5.30732,-6.7226 2.2825,-3.41236 4.45721,-7.01816 4.83557,-8.01996 3.14045,-13.77183 3.26844,-23.93714 1.53322,-37.5051 0,-8.8127 -1.21953,-12.11322 -7.31231,-18.75254 -11.40042,-14.19884 -17.98368,-26.66388 -24.53164,-43.40211 -2.25778,-3.75105 -5.54727,-8.30359 -8.01995,-11.08642 -3.85143,-4.33463 -6.15046,-8.62781 -8.25584,-15.09639 -3.03532,-7.70297 -5.6345,-16.80254 -10.14289,-23.47017 -4.24495,-4.75445 -8.2027,-9.97712 -14.38875,-12.38375 -5.87796,-2.75483 -10.90933,-3.0272 -16.74755,-2.83058 z m -6.36879,163.46559 c 0.46489,0.0302 0.90239,0.3042 1.41529,0.70765 1.44872,1.13959 1.79394,2.42217 2.59469,11.08641 0.41794,4.52231 0.95995,10.19278 1.29735,12.61964 1.48944,10.71073 1.72529,14.06478 1.29735,17.69108 -0.22041,1.86693 -0.44516,5.71704 -0.58971,8.49171 -0.40677,7.81725 -1.51412,11.28165 -5.77908,18.63461 -1.30169,2.24419 -2.89783,5.14021 -3.53822,6.48674 -1.27444,2.67956 -2.64297,4.48245 -4.00998,5.18938 -1.34128,0.69378 -3.09657,0.5677 -4.83557,-0.35363 -2.3959,-1.26969 -6.74959,-4.64487 -8.84553,-6.84056 -2.24333,-2.35005 -3.1953,-3.61872 -5.77909,-8.25584 -2.937,-5.2712 -3.30052,-6.3783 -3.30234,-8.7276 -0.002,-3.07347 1.1211,-5.3522 4.12792,-8.25583 1.31301,-1.26799 4.15457,-4.084 6.25085,-6.25086 4.33961,-4.48566 4.45563,-4.71188 5.54321,-11.0864 0.98568,-5.77698 1.00731,-5.87469 5.07144,-11.79406 1.45563,-2.12013 2.14708,-4.04594 3.89204,-10.61464 1.61282,-6.07132 2.3399,-7.57515 3.65616,-8.25585 0.63001,-0.3257 1.06833,-0.50195 1.53322,-0.47176 z" fill="#fff8eb" fill-rule="evenodd"/>
</svg>
