<svg xmlns="http://www.w3.org/2000/svg" width="512" height="512">
 <defs>
  <linearGradient y1="92.5396" x2="0" y2="7.01654" gradientUnits="userSpaceOnUse" gradientTransform="scale(1.0058652,0.994169)">
   <stop/>
   <stop offset="1" stop-opacity="0.588235"/>
  </linearGradient>
  <filter color-interpolation-filters="sRGB">
   <feGaussianBlur stdDeviation="1.71"/>
  </filter>
 </defs>
 <rect rx="147.5047" width="450" height="450" x="31" y="31" opacity="0.25" fill="#282629"/>
 <rect rx="147.5047" width="444" height="444" x="34" y="34" opacity="0.25" fill="#282629"/>
 <rect y="37" x="37" height="438" width="438" rx="147.5047" opacity="0.25" fill="#282629"/>
 <rect rx="147.5047" width="432" height="432" x="40" y="40" fill="#fff8eb"/>
 <g transform="matrix(1.0300211,0,0,1.0300211,-7.6854157,-564.26989)">
  <path d="m 390.84693 769.49677 c -14.89478 0 -26.96939 12.0746 -26.96939 26.96938 0 14.8948 12.07461 26.96939 26.96939 26.96939 14.89479 0 26.96939 -12.07459 26.96939 -26.96939 0 -14.89478 -12.0746 -26.96938 -26.96939 -26.96938 z" fill="#f38725" color="#000"/>
  <path d="m 336.90816 778.48657 c -9.92986 0 -17.9796 8.04973 -17.9796 17.97958 0 9.92986 8.04974 17.97959 17.9796 17.97959 9.92985 0 17.97959 -8.04973 17.97959 -17.97959 0 -9.92985 -8.04974 -17.97958 -17.97959 -17.97958 z" fill="#f38725" color="#000"/>
  <path d="m 300.94897 787.47636 c -4.96492 0 -8.98979 4.02487 -8.98979 8.98979 0 4.96493 4.02487 8.9898 8.98979 8.9898 4.96493 0 8.9898 -4.02487 8.9898 -8.9898 0 -4.96492 -4.02487 -8.98979 -8.9898 -8.98979 z" fill="#f38725" color="#000"/>
  <path d="m 359.29618 705.68652 c -12.89926 7.44738 -17.31887 23.94158 -9.87149 36.84087 7.4474 12.89927 23.94161 17.31888 36.84088 9.87146 12.89925 -7.44736 17.31886 -23.94158 9.87147 -36.84085 -7.44738 -12.89928 -23.94161 -17.31889 -36.84086 -9.87148 z" fill="#ffd459" color="#000"/>
  <path d="m 317.07872 740.4413 c -8.5995 4.96493 -11.54591 15.96107 -6.58098 24.56057 4.96492 8.5995 15.96107 11.54591 24.56057 6.58098 8.59952 -4.96493 11.54592 -15.96107 6.581 -24.56057 -4.96494 -8.5995 -15.96108 -11.54591 -24.56059 -6.58098 z" fill="#ffd459" color="#000"/>
  <path d="m 290.43206 766.20628 c -4.29976 2.48244 -5.77296 7.98051 -3.29049 12.28029 2.48246 4.29977 7.98053 5.77297 12.28029 3.29049 4.29975 -2.48245 5.77295 -7.98051 3.29048 -12.28029 -2.48245 -4.29978 -7.98053 -5.77294 -12.28028 -3.29049 z" fill="#ffd459" color="#000"/>
  <path d="m 300.06729 666.2006 c -7.44739 12.89923 -3.02777 29.39349 9.87148 36.84086 12.89926 7.44737 29.39347 3.02776 36.84087 -9.87147 7.44739 -12.89928 3.02778 -29.39349 -9.87148 -36.84086 -12.89926 -7.44741 -29.39348 -3.0278 -36.84087 9.87147 z" fill="#999647" color="#000"/>
  <path d="m 280.88329 717.40783 c -4.96492 8.5995 -2.01851 19.59564 6.58099 24.56056 8.59951 4.96493 19.59566 2.01853 24.56059 -6.58098 4.96492 -8.5995 2.01851 -19.59564 -6.58099 -24.56056 -8.59951 -4.96493 -19.59565 -2.01853 -24.56059 6.58098 z" fill="#999647" color="#000"/>
  <path d="m 270.6891 753.04432 c -2.48246 4.29973 -1.00926 9.7978 3.29049 12.28029 4.29976 2.48243 9.79782 1.00923 12.28029 -3.2905 2.48246 -4.29977 1.00926 -9.79784 -3.2905 -12.28028 -4.29975 -2.48248 -9.79782 -1.00928 -12.28028 3.29049 z" fill="#999647" color="#000"/>
  <path d="m 229.03062 661.61923 c 0 14.89478 12.0746 26.96938 26.96938 26.96938 14.89478 0 26.96938 -12.0746 26.96938 -26.96938 0 -14.8948 -12.0746 -26.96939 -26.96938 -26.96939 -14.89478 0 -26.96938 12.07459 -26.96938 26.96939 z" fill="#62c0dc" color="#000"/>
  <path d="m 238.02041,715.558 c 0,9.92985 8.04974,17.97959 17.97959,17.97959 9.92986,0 17.97959,-8.04974 17.9796,-17.97959 -1e-5,-9.92986 -8.04975,-17.97959 -17.9796,-17.97959 -9.92985,0 -17.97959,8.04973 -17.97959,17.97959 z" fill="#62c0dc" color="#000"/>
  <path d="m 247.01021 751.51718 c 0 4.96492 4.02486 8.9898 8.98979 8.9898 4.96493 0 8.98979 -4.02488 8.98979 -8.9898 0 -4.96493 -4.02486 -8.98979 -8.98979 -8.98979 -4.96493 0 -8.98979 4.02486 -8.98979 8.98979 z" fill="#62c0dc" color="#000"/>
  <path d="m 165.22037 693.16999 c 7.44738 12.89923 23.9416 17.31888 36.84086 9.87147 12.89925 -7.44737 17.31887 -23.94163 9.87148 -36.84086 -7.44739 -12.89927 -23.94161 -17.31888 -36.84087 -9.87147 -12.89926 7.44737 -17.31887 23.94158 -9.87147 36.84086 z" fill="#0078ad" color="#000"/>
  <path d="m 199.97513 735.38741 c 4.96493 8.59951 15.96108 11.54591 24.56058 6.58098 8.59952 -4.96492 11.54592 -15.96106 6.581 -24.56056 -4.96494 -8.59951 -15.96109 -11.54591 -24.56059 -6.58098 -8.5995 4.96492 -11.54591 15.96106 -6.58099 24.56056 z" fill="#0078ad" color="#000"/>
  <path d="m 225.74012 762.03411 c 2.48247 4.29973 7.98053 5.77293 12.28029 3.2905 4.29975 -2.48249 5.77295 -7.98056 3.29049 -12.28029 -2.48246 -4.29977 -7.98053 -5.77297 -12.28028 -3.29049 -4.29976 2.48244 -5.77296 7.98051 -3.2905 12.28028 z" fill="#0078ad" color="#000"/>
  <path d="m 125.73444 752.39885 c 12.89926 7.44742 29.39347 3.02781 36.84087 -9.87146 7.44738 -12.89929 3.02777 -29.39349 -9.87149 -36.84087 -12.89925 -7.44741 -29.39348 -3.0278 -36.84086 9.87148 -7.44739 12.89927 -3.02778 29.39349 9.87148 36.84085 z" fill="#e75177" color="#000"/>
  <path d="m 176.94167 771.58285 c 8.59952 4.96493 19.59567 2.01852 24.5606 -6.58098 4.96492 -8.5995 2.01851 -19.59564 -6.58099 -24.56057 -8.59952 -4.96493 -19.59566 -2.01852 -24.56059 6.58098 -4.96492 8.5995 -2.01852 19.59564 6.58098 24.56057 z" fill="#e75177" color="#000"/>
  <path d="m 212.57815 781.77706 c 4.29975 2.48248 9.79783 1.00928 12.28028 -3.29049 2.48247 -4.29973 1.00927 -9.79785 -3.29049 -12.28029 -4.29975 -2.48245 -9.79783 -1.00929 -12.28028 3.29049 -2.48247 4.29978 -1.00927 9.79784 3.29049 12.28029 z" fill="#e75177" color="#000"/>
  <path d="m 121.15307 823.22759 c 14.89478 0 26.96939 -12.0746 26.96939 -26.96938 0 -14.8948 -12.07461 -26.96939 -26.96939 -26.96939 -14.89479 0 -26.969388 12.07459 -26.969388 26.96939 0 14.89478 12.0746 26.96938 26.969388 26.96938 z" fill="#f5a0a7" color="#000"/>
  <path d="m 175.09184 814.23779 c 9.92986 0 17.97959 -8.04973 17.97959 -17.97958 0 -9.92986 -8.04973 -17.97959 -17.97959 -17.97959 -9.92985 0 -17.97959 8.04973 -17.97959 17.97959 0 9.92985 8.04974 17.97958 17.97959 17.97958 z" fill="#f5a0a7" color="#000"/>
  <path d="m 211.05103 805.24801 c 4.96492 0 8.98979 -4.02488 8.98979 -8.9898 0 -4.96493 -4.02487 -8.9898 -8.98979 -8.9898 -4.96492 0 -8.9898 4.02487 -8.9898 8.9898 0 4.96492 4.02488 8.9898 8.9898 8.9898 z" fill="#f5a0a7" color="#000"/>
  <path d="m 152.70383 887.03784 c 12.89926 -7.44738 17.31887 -23.94158 9.87148 -36.84087 -7.44739 -12.89927 -23.9416 -17.31888 -36.84087 -9.87146 -12.89926 7.44736 -17.31887 23.94158 -9.87148 36.84085 7.44739 12.89928 23.94161 17.3189 36.84087 9.87148 z" fill="#282629" color="#000"/>
  <path d="m 194.92128 852.28306 c 8.5995 -4.96493 11.54591 -15.96107 6.58099 -24.56057 -4.96493 -8.5995 -15.96107 -11.54591 -24.56058 -6.58098 -8.59951 4.96493 -11.54592 15.96107 -6.58099 24.56057 4.96493 8.5995 15.96108 11.54591 24.56058 6.58098 z" fill="#282629" color="#000"/>
  <path d="m 221.56795 826.51808 c 4.29975 -2.48244 5.77295 -7.98051 3.29049 -12.28029 -2.48246 -4.29977 -7.98054 -5.77297 -12.28029 -3.29048 -4.29975 2.48244 -5.77295 7.9805 -3.29049 12.28028 2.48246 4.29978 7.98054 5.77294 12.28029 3.29049 z" fill="#282629" color="#000"/>
  <path d="m 211.93271 926.52376 c 7.44739 -12.89923 3.02778 -29.39349 -9.87148 -36.84086 -12.89926 -7.44737 -29.39348 -3.02776 -36.84086 9.87147 -7.4474 12.89928 -3.02779 29.39349 9.87147 36.84086 12.89927 7.44742 29.39348 3.0278 36.84087 -9.87147 z" fill="#5a4739" color="#000"/>
  <path d="m 231.11671 875.31653 c 4.96493 -8.5995 2.01852 -19.59564 -6.58098 -24.56056 -8.59952 -4.96493 -19.59566 -2.01853 -24.56059 6.58098 -4.96493 8.5995 -2.01852 19.59564 6.58099 24.56056 8.59951 4.96493 19.59565 2.01853 24.56058 -6.58098 z" fill="#5a4739" color="#000"/>
  <path d="m 241.31091 839.68004 c 2.48245 -4.29973 1.00925 -9.7978 -3.2905 -12.28029 -4.29975 -2.48243 -9.79782 -1.00923 -12.28029 3.2905 -2.48245 4.29977 -1.00925 9.79784 3.2905 12.28028 4.29975 2.48248 9.79782 1.00928 12.28029 -3.29049 z" fill="#5a4739" color="#000"/>
  <path d="m 282.96938,931.10514 c 10e-6,-14.89479 -12.07459,-26.96939 -26.96938,-26.96939 -14.89478,0 -26.96938,12.0746 -26.96938,26.96939 0,14.89479 12.0746,26.96938 26.96938,26.96938 14.89479,0 26.96939,-12.07459 26.96938,-26.96938 z" fill="#8a704d" color="#000"/>
  <path d="m 273.9796 877.16636 c 0 -9.92985 -8.04974 -17.97959 -17.9796 -17.97959 -9.92985 0 -17.97959 8.04974 -17.97959 17.97959 0 9.92986 8.04974 17.97959 17.97959 17.97959 9.92986 0 17.9796 -8.04973 17.9796 -17.97959 z" fill="#8a704d" color="#000"/>
  <path d="m 264.9898 841.20718 c 0 -4.96492 -4.02487 -8.9898 -8.9898 -8.9898 -4.96492 0 -8.98979 4.02488 -8.98979 8.9898 0 4.96493 4.02487 8.98979 8.98979 8.98979 4.96493 0 8.9898 -4.02486 8.9898 -8.98979 z" fill="#8a704d" color="#000"/>
  <path d="m 346.77964 899.55437 c -7.44738 -12.89923 -23.9416 -17.31888 -36.84086 -9.87147 -12.89926 7.44737 -17.31887 23.94163 -9.87148 36.84086 7.44739 12.89927 23.9416 17.31889 36.84087 9.87147 12.89926 -7.44737 17.31887 -23.94158 9.87147 -36.84086 z" fill="#cd1d31" color="#000"/>
  <path d="m 312.02487 857.33695 c -4.96493 -8.59951 -15.96107 -11.54591 -24.56059 -6.58098 -8.5995 4.96492 -11.54591 15.96106 -6.58099 24.56056 4.96494 8.59951 15.96108 11.54591 24.56059 6.58098 8.59951 -4.96492 11.54591 -15.96106 6.58099 -24.56056 z" fill="#cd1d31" color="#000"/>
  <path d="m 286.25989 830.69025 c -2.48247 -4.29973 -7.98054 -5.77293 -12.28029 -3.2905 -4.29975 2.48249 -5.77295 7.98056 -3.2905 12.28029 2.48247 4.29977 7.98054 5.77297 12.28029 3.29049 4.29975 -2.48244 5.77295 -7.98051 3.2905 -12.28028 z" fill="#cd1d31" color="#000"/>
  <path d="m 386.26557 840.32551 c -12.89927 -7.44742 -29.39348 -3.02781 -36.84088 9.87146 -7.44738 12.89929 -3.02777 29.39349 9.87149 36.84087 12.89926 7.44742 29.39348 3.0278 36.84086 -9.87148 7.4474 -12.89927 3.02779 -29.39349 -9.87147 -36.84085 z" fill="#ef6a47" color="#000"/>
  <path d="m 335.05832 821.14151 c -8.59951 -4.96493 -19.59565 -2.01852 -24.56058 6.58098 -4.96492 8.5995 -2.01852 19.59564 6.58098 24.56057 8.59951 4.96493 19.59566 2.01852 24.56059 -6.58098 4.96493 -8.5995 2.01852 -19.59564 -6.58099 -24.56057 z" fill="#ef6a47" color="#000"/>
  <path d="m 299.42186 810.94731 c -4.29976 -2.48249 -9.79783 -1.00929 -12.28029 3.29048 -2.48247 4.29973 -1.00926 9.79785 3.29049 12.28029 4.29975 2.48245 9.79783 1.00929 12.28029 -3.29049 2.48246 -4.29978 1.00926 -9.79784 -3.29049 -12.28028 z" fill="#ef6a47" color="#000"/>
 </g>
</svg>
