<svg xmlns="http://www.w3.org/2000/svg" xmlns:xlink="http://www.w3.org/1999/xlink" width="512" height="512">
 <defs>
  <radialGradient xlink:href="#3" id="0" cx="253.17126" cy="326.09888" r="216" gradientUnits="userSpaceOnUse"/>
  <linearGradient y2="7.01654" x2="0" y1="92.5396" gradientTransform="scale(1.0058652,0.994169)" gradientUnits="userSpaceOnUse" xlink:href="#2"/>
  <filter x="-0.192" y="-0.192" width="1.384" height="1.384" color-interpolation-filters="sRGB">
   <feGaussianBlur stdDeviation="5.28"/>
  </filter>
  <clipPath>
   <rect width="84" height="84" rx="6" x="6" y="6" fill="#fff"/>
  </clipPath>
  <linearGradient id="1">
   <stop stop-color="#fff"/>
   <stop offset="1" stop-color="#fff" stop-opacity="0"/>
  </linearGradient>
  <linearGradient y1="20.220806" x2="0" y2="138.66119" xlink:href="#1" gradientUnits="userSpaceOnUse"/>
  <filter color-interpolation-filters="sRGB">
   <feGaussianBlur stdDeviation="1.71"/>
  </filter>
  <linearGradient y1="92.5396" x2="0" y2="7.01654" id="2" gradientUnits="userSpaceOnUse" gradientTransform="scale(1.0058652,0.994169)">
   <stop/>
   <stop offset="1" stop-opacity="0.588235"/>
  </linearGradient>
  <linearGradient gradientUnits="userSpaceOnUse" xlink:href="#1" y2="138.66119" x2="0" y1="20.220806"/>
  <clipPath>
   <rect y="6" x="6" rx="6" height="84" width="84" fill="#fff"/>
  </clipPath>
  <linearGradient xlink:href="#2" gradientUnits="userSpaceOnUse" gradientTransform="scale(1.0058652,0.994169)" y1="92.5396" x2="0" y2="7.01654"/>
  <linearGradient y2="7.01654" x2="0" y1="92.5396" gradientTransform="scale(1.0058652,0.994169)" gradientUnits="userSpaceOnUse" xlink:href="#2"/>
  <linearGradient y2="138.66119" x2="0" y1="20.220806" gradientUnits="userSpaceOnUse" xlink:href="#1"/>
  <clipPath>
   <rect width="84" height="84" rx="6" x="6" y="6" fill="#fff"/>
  </clipPath>
  <linearGradient y2="7.01654" x2="0" y1="92.5396" gradientTransform="scale(1.0058652,0.994169)" gradientUnits="userSpaceOnUse" xlink:href="#2"/>
  <linearGradient id="3">
   <stop stop-color="#fff8eb"/>
   <stop offset="1" stop-color="#e0e0e0"/>
  </linearGradient>
  <linearGradient id="4">
   <stop stop-color="#a94870"/>
   <stop offset="1" stop-color="#924565"/>
  </linearGradient>
  <linearGradient xlink:href="#4" id="5" gradientUnits="userSpaceOnUse" y1="952.38916" x2="0" y2="733.35577"/>
  <linearGradient xlink:href="#2" gradientUnits="userSpaceOnUse" gradientTransform="matrix(1.0058652,0,0,0.994169,384.57232,71.85658)" y1="92.5396" x2="0" y2="7.01654"/>
  <linearGradient xlink:href="#4" id="6" gradientUnits="userSpaceOnUse" gradientTransform="matrix(1.2841291,0,0,1.0128762,-76.737041,26.43932)" y1="13.803571" x2="0" y2="160.97958"/>
 </defs>
 <rect rx="147.5047" width="450" height="450" x="31" y="31" opacity="0.25" fill="#282629"/>
 <rect rx="147.5047" width="444" height="444" x="34" y="34" opacity="0.25" fill="#282629"/>
 <rect y="37" x="37" height="438" width="438" rx="147.5047" opacity="0.25" fill="#282629"/>
 <rect rx="147.5047" width="432" height="432" x="40" y="40" fill="url(#0)"/>
 <text y="412.01849" x="176.67816" font-family="Gentium Book Basic" word-spacing="0" line-height="125%" letter-spacing="0" font-size="208.33333"><tspan y="412.01849" x="176.67816"/>
 </text>
 <text transform="scale(4.0128362,0.2492003)" font-size="75.69771" y="1090.4733" x="361.75409" font-family="Arial" text-anchor="middle"/>
 <text y="-355.93323" x="-471.08832" font-family="Gentium Book Basic" word-spacing="0" line-height="125%" letter-spacing="0" font-size="208.33333"><tspan y="-355.93323" x="-471.08832"/>
 </text>
 <text transform="scale(4.0128362,0.2492003)" font-size="75.69771" y="-1991.1912" x="200.33051" font-family="Arial" text-anchor="middle"/>
 <text y="-511.56506" x="235.25287" font-family="Gentium Book Basic" word-spacing="0" line-height="125%" letter-spacing="0" font-size="208.33333"><tspan y="-511.56506" x="235.25287"/>
 </text>
 <text transform="scale(4.0128362,0.2492003)" font-size="75.69771" y="-2615.7161" x="376.35092" font-family="Arial" text-anchor="middle"/>
 <g transform="matrix(1.0420255,0,0,1.0420255,542.81754,-549.9514)" fill="url(#5)">
  <path transform="translate(0,540.36218)" d="m -400.3125 193.78125 0 11.65625 54.78125 0 0 -11.65625 -54.78125 0 z m 62.5 0 0 11.65625 10.9375 0 c 12.26208 -4.3729 28.8372 -7.39246 47.5 -8.34375 l 0 -3.3125 -58.4375 0 z m 66.4375 0 0 3.03125 c 1.52008 -0.0277 3.05268 -0.0312 4.59375 -0.0312 20.60881 0 39.42207 2.50423 53.8125 6.65625 l 0 -9.65625 -58.40625 0 z m 66.15625 0 0 11.65625 55.03125 0 0 -11.65625 -55.03125 0 z M -400.3125 213.25 l 0 15.5625 51.21875 0 0.46875 -3.78125 c -0.0529 -0.39869 -0.0625 -0.81577 -0.0625 -1.21875 0 -2.57525 1.12313 -5.04706 3.15625 -7.40625 l 0 -3.15625 -54.78125 0 z m 208.90625 0 c 4.02722 3.13115 6.33675 6.55196 6.5 10.15625 l 0.0625 0 0.625 5.40625 34.03125 0 0 -15.5625 -41.21875 0 z m -208.90625 23.03125 0 15.59375 49.5 0 0 -10.75 c 0 -1.56537 0.26077 -3.10946 0.75 -4.625 l 0.0312 -0.21875 -50.28125 0 z m 216.9375 0 0.125 1.15625 c 0.31393 1.21584 0.5 2.44135 0.5 3.6875 l 0 10.75 32.5625 0 0 -15.59375 -33.1875 0 z m -216.9375 23.75 0 15.59375 49.65625 0 0 -6.8125 c -0.0932 -0.6895 -0.15625 -1.39446 -0.15625 -2.09375 l 0 -6.6875 -49.5 0 z m 217.5625 0 0 6.6875 c 0 0.4112 -0.0301 0.81084 -0.0625 1.21875 l 0 7.6875 32.625 0 0 -15.59375 -32.5625 0 z m -217.5625 23.03125 0 15.59375 49.5 0 0 -6 c 0 -0.6654 0.0629 -1.30911 0.15625 -1.96875 l 0 -7.625 -49.65625 0 z m 217.5 0 0 8.53125 c 0.0296 0.36699 0.0625 0.69395 0.0625 1.0625 l 0 6 32.5625 0 0 -15.59375 -32.625 0 z m -217.5 23.9375 0 15.5625 49.65625 0 0 -2.25 c -0.0932 -0.68998 -0.15625 -1.39376 -0.15625 -2.09375 l 0 -11.21875 -49.5 0 z m 217.5625 0 0 11.21875 c 0 0.41161 -0.0301 0.81051 -0.0625 1.21875 l 0 3.125 32.625 0 0 -15.5625 -32.5625 0 z m -217.5625 23.03125 0 15.59375 49.5 0 0 -0.1875 c 0 -0.66981 0.0629 -1.31135 0.15625 -1.96875 l 0 -13.4375 -49.65625 0 z m 217.5 0 0 14.3125 c 0.0296 0.36718 0.0625 0.72274 0.0625 1.09375 l 0 0.1875 32.5625 0 0 -15.59375 -32.625 0 z m -217.5 23.75 0 15.59375 49.5 0 0 -15.59375 -49.5 0 z m 217.5625 0 0 15.59375 32.5625 0 0 -15.59375 -32.5625 0 z m -217.5625 23.03125 0 15.59375 54.78125 0 0 -8.84375 c -1.8957 -2.15647 -3.29871 -4.41845 -4.1875 -6.75 l -50.59375 0 z m 216.46875 0 c -2.21223 5.78389 -7.68067 11.09691 -15.59375 15.59375 l 49.25 0 0 -15.59375 -33.65625 0 z m -153.96875 13.3125 0 2.28125 3.6875 0 c -1.30349 -0.74033 -2.5197 -1.49801 -3.6875 -2.28125 z m -62.5 10.09375 0 11.65625 54.78125 0 0 -11.65625 -54.78125 0 z m 62.5 0 0 11.65625 58.4375 0 0 -5.53125 c -13.19187 -0.84349 -25.37259 -2.99144 -35.8125 -6.125 l -22.625 0 z m 119.46875 0 c -13.69203 4.11139 -30.39829 6.53125 -48.4375 6.53125 -1.54417 0 -3.06995 0.004 -4.59375 -0.0312 l 0 5.15625 58.40625 0 0 -11.65625 -5.375 0 z m 13.125 0 0 11.65625 55.03125 0 0 -11.65625 -55.03125 0 z"/>
  <path d="m -266.79139 747.48527 c -40.77377 0 -73.8201 10.92186 -73.8201 24.3954 0 13.47354 33.04633 24.39541 73.8201 24.39541 40.77378 0 73.8201 -10.92187 73.8201 -24.39541 0 -13.47354 -33.04632 -24.3954 -73.8201 -24.3954 z m -73.64722 32.61684 c -1.31557 2.36626 -2.09378 4.84223 -2.09378 7.37624 l 0 23.05078 c 0 17.79991 33.94301 32.27108 75.741 32.27108 41.8333 0 75.76021 -14.48001 75.76021 -32.27108 l 0 -23.05078 c 0 -2.53401 -0.77667 -5.00998 -2.07457 -7.37624 -1.448 13.0409 -33.84778 23.47337 -73.68564 23.47337 -39.83788 0 -72.18155 -10.43247 -73.64722 -23.47337 z m 0.2113 46.08234 c -1.448 2.46338 -2.30508 5.0836 -2.30508 7.74122 l 0 23.03156 c 0 17.81755 33.94301 32.23266 75.741 32.23266 41.8333 0 75.76021 -14.42393 75.76021 -32.23266 l 0 -23.03156 c 0 -2.65762 -0.87472 -5.27784 -2.30508 -7.74122 -8.1318 14.09159 -37.87299 24.52986 -73.45513 24.52986 -35.55566 0 -65.31295 -10.4471 -73.43592 -24.52986 z m 0 47.61905 c -1.448 2.46338 -2.30508 5.02752 -2.30508 7.70281 l 0 23.06997 c 0 17.79991 33.94301 32.19425 75.741 32.19425 41.8333 0 75.76021 -14.40317 75.76021 -32.19425 l 0 -23.06997 c 0 -2.67529 -0.87472 -5.23943 -2.30508 -7.70281 -8.1318 14.06511 -37.87299 24.49145 -73.45513 24.49145 -35.55566 0 -65.31295 -10.42634 -73.43592 -24.49145 z"/>
 </g>
 <path d="M 187.5 40 C 117.87807 40 59.818253 87.76416 44.15625 152.4375 L 467.84375 152.4375 C 452.18175 87.76416 394.12193 40 324.5 40 L 187.5 40 z M 41.03125 170 C 40.35903 175.73652 40 181.57712 40 187.5 L 40 190.34375 L 472 190.34375 L 472 187.5 C 472 181.57712 471.64097 175.73652 470.96875 170 L 41.03125 170 z" fill="url(#6)"/>
 <path d="m 64.52275 129.51267 c 37.20233 -14.40383 65.55894 -13.86034 87.43913 1.38263 19.3403 -22.84952 61.0853 -31.63212 74.4879 -30.0974 -40.04244 -14.880389 -71.46337 0.0768 -78.25396 10.07896 -22.22798 -9.76469 -72.02626 -0.91795 -83.67307 18.63581 z" fill="#fff8eb"/>
 <path d="m 126.99876 77.55304 c 26.61675 -7.348382 50.22936 -7.979389 66.96982 1.48807 15.64867 -12.540763 47.96698 -17.08092 58.1855 -16.11157 -36.72475 -7.588215 -52.91187 -0.629754 -60.81108 4.173744 -23.59673 -5.200871 -46.20362 -4.786604 -64.34424 10.449754 z" fill="#fff8eb"/>
 <text x="229.16702" y="121.50284" fill="#fff8eb" font-family="Sans" text-align="start" font-style="italic" word-spacing="0" line-height="125%" font-weight="bold" letter-spacing="0" font-size="82.79974"><tspan x="229.16702" y="121.50284">.odb</tspan>
 </text>
</svg>
