<svg xmlns="http://www.w3.org/2000/svg" xmlns:xlink="http://www.w3.org/1999/xlink" width="512" height="512">
 <defs>
  <linearGradient id="0">
   <stop stop-color="#fbbd84"/>
   <stop offset="1" stop-color="#f38725"/>
  </linearGradient>
  <radialGradient xlink:href="#0" id="1" cx="256" cy="256" r="216" gradientUnits="userSpaceOnUse"/>
 </defs>
 <rect rx="147.5047" width="450" height="450" x="31" y="31" opacity="0.25" fill="#282629"/>
 <rect rx="147.5047" width="444" height="444" x="34" y="34" opacity="0.25" fill="#282629"/>
 <rect y="37" x="37" height="438" width="438" rx="147.5047" opacity="0.25" fill="#282629"/>
 <rect rx="147.5047" width="432" height="432" x="40" y="40" fill="url(#1)"/>
 <path d="m 284.04365,61.746567 c 11.72825,46.204823 -41.40284,60.254263 -60.56652,89.029483 -13.05009,19.60572 6.40558,40.60794 32.93096,64.53812 -10.34415,-23.38286 -45.43775,-43.87375 0,-79.7625 56.6602,-44.722063 27.63556,-73.805103 27.63556,-73.805103 z m 34.91675,57.256883 c 6.3e-4,0 -95.73161,23.89187 -49.97566,76.61833 13.50757,15.54874 -3.47511,29.45583 -3.47511,29.45583 0,0 34.27281,-17.55004 18.53402,-39.71576 -14.70492,-20.66125 -26.11739,-30.96249 34.91675,-66.3584 z m 15.55534,94.15944 c -2.93434,0.15039 -5.95832,0.71565 -9.10151,1.8203 -2.94012,1.04068 -4.46803,3.47514 -4.46803,3.47514 0,0 1.8131,-0.79001 5.95735,-1.65482 16.94732,-3.53135 41.25818,22.69616 -11.25277,49.97564 -0.24331,0.65007 -0.99346,1.48936 -0.99287,1.48936 63.54458,-16.70449 48.22325,-56.56069 19.85778,-55.10562 z m -113.52086,2.64771 c -6.69482,0.1752 -22.4945,1.61388 -40.70864,10.42538 -28.72941,13.89142 71.12756,20.20673 122.78787,6.61929 5.37072,-3.66506 12.74211,-6.78475 12.74211,-6.78475 0,0 -21.14479,3.694 -42.19798,5.46091 -25.76823,2.16189 -53.31049,2.68408 -67.18577,0.82752 -32.85142,-4.39192 18.03752,-16.54824 18.03752,-16.54824 0,-8e-5 -1.2435,-0.0588 -3.47511,-8e-5 z m -8.43959,31.7726 c -47.39165,15.72892 26.43484,33.60567 92.6701,14.23147 -7.03733,-2.48073 -11.58378,-6.95023 -11.58378,-6.95023 -32.38457,6.23249 -51.10435,5.9212 -74.79801,3.47512 -18.31798,-1.8932 -6.28831,-10.75636 -6.28831,-10.75636 z m 6.61929,30.61422 c -43.03193,12.0236 26.29518,36.87857 81.08632,13.40408 -8.97387,-3.48738 -15.38984,-7.44669 -15.38984,-7.44669 -24.4335,4.61849 -35.90559,5.01434 -58.08432,2.48223 -18.30433,-2.09938 -7.61216,-8.43962 -7.61216,-8.43962 z m -27.80101,20.35433 c -18.4921,-0.71146 -60.33282,17.68211 -24.49139,23.49848 111.70394,18.10626 203.55471,-8.10938 174.58382,-21.18171 0,0 7.85729,6.53931 -8.77055,11.58374 -31.61814,9.57691 -131.58288,12.41338 -159.35946,0.33111 -9.97806,-4.34612 8.67228,-10.31151 14.56247,-11.58378 6.14146,-1.32859 9.76342,-0.99278 9.76342,-0.99278 -1.3881,-0.97768 -3.6466,-1.55341 -6.28831,-1.65506 z M 359.17264,315.1 c 0,0 -3.5723,9.04436 -41.70157,16.21726 -43.01584,8.09848 -95.95925,7.18066 -127.4214,1.98579 0,0 6.4308,5.31513 39.55029,7.4467 50.39304,3.2218 127.74071,-1.80258 129.57268,-25.64975 z" fill-rule="evenodd" stroke-width="3" fill="#fff8eb" stroke="#fff8eb"/>
 <path d="M 164.125 355.4375 C 144.42991 355.4375 128.59375 376.09555 128.59375 401.78125 C 128.59375 427.46695 144.42991 448.15625 164.125 448.15625 L 405.125 448.15625 C 437.19387 427.26167 460.53103 394.20835 468.75 355.4375 L 164.125 355.4375 z" fill="#fff8eb" fill-rule="evenodd" fill-opacity="0.344262"/>
 <text x="216.68515" y="420.23486" fill="#282629" font-family="Sans" stroke="#282629" font-style="italic" word-spacing="0" line-height="125%" font-weight="bold" letter-spacing="0" font-size="71"><tspan x="216.68515" y="420.23486">.java</tspan>
 </text>
</svg>
