<svg xmlns="http://www.w3.org/2000/svg" xmlns:xlink="http://www.w3.org/1999/xlink" height="512" width="512">
 <defs>
  <linearGradient id="0">
   <stop stop-color="#f88b6e"/>
   <stop offset="1" stop-color="#ef6a47"/>
  </linearGradient>
  <radialGradient xlink:href="#0" id="1" cx="256.00001" cy="256.00001" r="250.00001" gradientTransform="translate(0,-2.0479999e-6)" gradientUnits="userSpaceOnUse"/>
 </defs>
 <path d="m 506.00002 256.00001 c 0 138.07121 -111.92883 250.00001 -250.00001 250.00001 -138.0712 0 -250.00001 -111.9288 -250.00001 -250.00001 0 -138.07118 111.92881 -250.00001 250.00001 -250.00001 138.07118 0 250.00001 111.92883 250.00001 250.00001 z" fill="url(#1)" fill-rule="evenodd"/>
 <text font-size="208.33334" letter-spacing="0" line-height="125%" word-spacing="0" x="-309.47046" y="89.28172" font-family="Gentium Book Basic"><tspan x="-309.47046" y="89.28172"/>
 </text>
 <text font-size="208.33334" letter-spacing="0" line-height="125%" word-spacing="0" y="367.39777" x="-2668.3015" font-family="Gentium Book Basic"><tspan y="367.39777" x="-2668.3015"/>
 </text>
 <text font-size="208.33334" letter-spacing="0" line-height="125%" word-spacing="0" y="140.11288" x="-2380.0864" font-family="Gentium Book Basic"><tspan y="140.11288" x="-2380.0864"/>
 </text>
 <text font-size="208.33334" letter-spacing="0" line-height="125%" word-spacing="0" y="-116.78696" x="1814.5126" font-family="Gentium Book Basic"><tspan y="-116.78696" x="1814.5126"/>
 </text>
 <text font-size="208.33334" letter-spacing="0" line-height="125%" word-spacing="0" x="-313.41791" y="28.24726" font-family="Gentium Book Basic"><tspan x="-313.41791" y="28.24726"/>
 </text>
 <text font-size="208.33334" letter-spacing="0" line-height="125%" word-spacing="0" y="306.36331" x="-2672.2488" font-family="Gentium Book Basic"><tspan y="306.36331" x="-2672.2488"/>
 </text>
 <text font-size="208.33334" letter-spacing="0" line-height="125%" word-spacing="0" y="79.07842" x="-2384.0334" font-family="Gentium Book Basic"><tspan y="79.07842" x="-2384.0334"/>
 </text>
 <path d="M 277.34424 37.22117 270.577 36.729163 251.64624 62.3423 l -8.29651 26.386282 -17.03995 2.325562 -15.00834 -23.275105 -25.11145 -19.65898 -6.39984 2.297021 -6.84157 31.08243 3.18762 27.487832 -14.61756 9.01183 -23.2009 -15.15958 -30.94733 -7.766071 -4.91189 4.695459 6.40012 31.17581 14.14649 23.78226 -9.68344 14.19817 -27.390121 -4.43455 -31.42571 5.44567 -2.574545 6.27039 18.559139 25.8725 22.62243 16.03216 -3.072361 16.89574 -26.825476 7.08119 -26.485887 17.71853 0.202661 6.77311 27.505363 16.11327 27.20579 5.44832 4.067134 16.68725 -21.618552 17.30815 -16.969099 26.94554 2.94558 6.1178 31.709264 3.57595 27.0598 -6.06148 10.51287 13.56087 -12.66283 24.61864 -4.53852 31.49934 5.18316 4.39372 30.4328 -9.60447 22.24687 -16.53123 15.13508 8.14981 -1.52284 27.61247 8.70589 30.61587 6.50919 1.9113 23.85223 -21.12721 13.62359 -24.13055 17.15216 1.28982 9.84935 25.86655 20.43049 24.43119 6.74207 -0.90875 13.17227 -28.95918 2.59731 -27.55759 16.20123 -5.79324 19.52045 19.62421 28.64978 14.05172 5.79597 -3.59306 0.21898 -31.79259 -8.87053 -26.24782 12.43977 -11.84929 25.85591 9.98578 31.85619 1.22903 3.85557 -5.61965 -12.78463 -29.15528 -18.79109 -20.36474 6.5272 -15.88645 27.70498 -1.33736 29.61616 -11.84652 1.21666 -6.69072 -23.55736 -21.47186 -25.46837 -10.96273 -0.51762 -17.16166 24.7637 -12.48051 22.2354 -22.81603 -1.63115 -6.61286 -30.2586 -10.01483 -27.72385 0.28683 -7.47488 -15.45421 17.5469 -21.46577 10.98912 -29.84302 -4.16142 -5.39547 -31.77144 3.11434 -25.18589 11.53157 -13.12876 -11.10256 7.27112 -26.711507 -2.13622 -31.730345 -5.9925 -3.213823 -27.73039 15.713125 -18.32915 20.76573 -16.51306 -4.804198 -4.25899 -27.367626 -14.8932 -28.14079 z M 264.7407 129.42427 252.80758 195.0473 c -21.00082 2.2528 -39.56459 15.08572 -49.05617 33.91199 L 137.97895 217.0533 c 17.77359 -54.10134 69.74949 -90.03172 126.76175 -87.62903 z m 34.749 6.29019 c 54.22459 17.73319 90.23679 69.59102 87.82854 126.47374 L 321.5458 250.28222 c -2.25791 -20.95313 -15.12008 -39.47474 -33.98919 -48.94473 l 11.93309 -65.62303 z m -34.61054 91.63998 c 16.38939 2.96679 27.25948 18.61974 24.28594 34.97192 -2.97355 16.35213 -18.66217 27.19754 -35.05156 24.23075 -16.38941 -2.96676 -27.25945 -18.61977 -24.28594 -34.97193 2.97354 -16.35217 18.66217 -27.1975 35.05155 -24.23074 z m -133.20475 24.36889 65.77247 11.90604 c 2.25794 20.95309 15.12012 39.47468 33.98922 48.94469 l -11.9331 65.623 C 165.27847 360.46387 129.26627 308.60608 131.67441 251.72333 z m 183.56687 33.22892 65.77245 11.90603 c -17.77355 54.1013 -69.74946 90.0317 -126.76173 87.62902 l 11.93311 -65.62304 c 21.00084 -2.2528 39.56462 -15.08574 49.05617 -33.91201 z" fill="#fff"/>
</svg>
