<svg xmlns="http://www.w3.org/2000/svg" height="512" width="512">
 <g transform="matrix(1.0416667 0 0 1.0416667 -10.666676 -573.54395)">
  <path d="m 305.71429 246.28572 c 0 45.76074 -37.09641 82.85714 -82.85714 82.85714 -45.76074 0 -82.85714 -37.0964 -82.85714 -82.85714 0 -45.76073 37.0964 -82.85714 82.85714 -82.85714 45.76073 0 82.85714 37.09641 82.85714 82.85714 z" transform="matrix(2.8965518,0,0,2.8965518,-389.51727,82.982822)" fill="#9a3034" fill-rule="evenodd"/>
  <text y="636.31262" x="-286.85162" font-family="Gentium Book Basic" word-spacing="0" line-height="125%" letter-spacing="0" font-size="200"><tspan y="636.31262" x="-286.85162"/>
  </text>
  <text x="-2551.3293" y="903.30402" font-family="Gentium Book Basic" word-spacing="0" line-height="125%" letter-spacing="0" font-size="200"><tspan x="-2551.3293" y="903.30402"/>
  </text>
  <text x="-2274.6428" y="685.11053" font-family="Gentium Book Basic" word-spacing="0" line-height="125%" letter-spacing="0" font-size="200"><tspan x="-2274.6428" y="685.11053"/>
  </text>
  <text x="1752.172" y="438.48669" font-family="Gentium Book Basic" word-spacing="0" line-height="125%" letter-spacing="0" font-size="200"><tspan x="1752.172" y="438.48669"/>
  </text>
  <text y="577.71954" x="-290.64117" font-family="Gentium Book Basic" word-spacing="0" line-height="125%" letter-spacing="0" font-size="200"><tspan y="577.71954" x="-290.64117"/>
  </text>
  <text x="-2555.1187" y="844.71094" font-family="Gentium Book Basic" word-spacing="0" line-height="125%" letter-spacing="0" font-size="200"><tspan x="-2555.1187" y="844.71094"/>
  </text>
  <text x="-2278.4321" y="626.51746" font-family="Gentium Book Basic" word-spacing="0" line-height="125%" letter-spacing="0" font-size="200"><tspan x="-2278.4321" y="626.51746"/>
  </text>
  <path d="m 248.33171 781.31973 -21.40868 128.2274 185.38018 30.95084 21.40868 -128.2274 -185.38018 -30.95084 z M 263.23856 795.7884 414.91325 821.11181 397.39636 926.0293 245.72167 900.70589 263.23856 795.7884 z m 118.76713 32.11501 c -6.43833 -1.07493 -12.54881 3.26691 -13.62374 9.70524 -1.07494 6.43834 3.29362 12.52973 9.73195 13.60467 6.43834 1.07494 12.52591 -3.27072 13.60085 -9.70906 1.07494 -6.43833 -3.27072 -12.52591 -9.70906 -13.60085 z m -79.53039 -3.79326 c -51.3107 69.22807 -1.37895 0.92953 -52.60315 69.63949 l 47.65022 7.95562 47.62731 7.95179 6.25109 1.04367 30.13344 5.03104 c -28.8058 -51.98204 -0.0509 0.96019 -28.59715 -52.57622 -7.68764 9.33296 -12.85603 17.04059 -18.4903 25.03845 -25.04357 -50.49653 -2.89747 -8.24813 -31.97146 -64.08384 z" fill="#fff8eb" fill-rule="evenodd"/>
  <path d="m 384.06212 648.81209 a 5.186553 5.186553 0 0 0 -6.48743 6.50011 c 15.1462 51.38973 -6.28044 88.01263 -38.63017 122.88714 a 5.186553 5.186553 0 1 0 7.59683 7.06207 c 33.32189 -35.92258 57.27922 -77.58206 40.9788 -132.88797 a 5.186553 5.186553 0 0 0 -3.45803 -3.56135 z m -55.29594 -14.09357 -61.9503 19.10094 -25.54585 -8.25122 -19.31534 59.80052 25.54586 8.25121 39.07193 51.73073 42.1937 -130.63218 z m 30.76839 21.91972 a 5.186553 5.186553 0 0 0 -6.46344 6.48782 c 11.62933 39.45727 -4.73278 67.34561 -29.73802 94.30244 a 5.186553 5.186553 0 1 0 7.60269 7.04393 c 25.97738 -28.00485 44.86435 -60.91169 32.08079 -104.28514 a 5.186553 5.186553 0 0 0 -3.48202 -3.54905 z m -24.18578 9.55946 a 5.186553 5.186553 0 0 0 -6.46345 6.48782 c 7.74831 26.28931 -3.02078 44.51118 -19.92109 62.73052 a 5.190773 5.190773 0 1 0 7.62082 7.04977 c 17.87247 -19.26735 31.14828 -42.51356 22.24574 -72.71905 a 5.186553 5.186553 0 0 0 -3.48202 -3.54906 z" fill="#fff8eb" fill-rule="evenodd"/>
  <g transform="matrix(0.84258998,-0.24559364,0.24559364,0.84258998,317.69888,-215.91354)" fill="#fff8eb">
   <path d="m -580 460 -26 26 0 117 192 0 0 -143 -166 0 z m 10.59375 54.1875 118.8125 0 0 8.125 -118.8125 0 0 -8.125 z m 0 29 118.8125 0 0 8.125 -118.8125 0 0 -8.125 z" transform="translate(0,540.36217)" fill-rule="evenodd"/>
   <path d="m -618 965.86217 0 27.5 0 26.00003 26 -26.00003 0.75 -0.75 -26.75 -26.75 z" fill-rule="evenodd"/>
   <path d="m -606.99939 952.77102 1.4235 5.31259 32.76193 18.91509 -0.53033 0.9186 160.34368 -42.96398 -8.54102 -31.87555 -185.45776 49.69325 z m 39.42216 -6.93967 20.52592 -5.4999 13.99108 24.20356 -20.52593 5.4999 -13.99107 -24.20356 z m 49.98666 -13.39388 20.52592 -5.49991 13.99108 24.20356 -20.52593 5.49991 -13.99107 -24.20356 z m 48.05481 -12.87625 20.52592 -5.4999 13.99108 24.20355 -20.52593 5.49991 -13.99107 -24.20356 z" fill-rule="evenodd"/>
  </g>
 </g>
</svg>
