<svg xmlns="http://www.w3.org/2000/svg" width="512" height="512" xmlns:xlink="http://www.w3.org/1999/xlink">
 <defs>
  <path id="0" d="m 130.30968 262.99741 c 0 13.11045 -10.62813 23.73858 -23.73859 23.73858 -13.11046 0 -23.738584 -10.62813 -23.738584 -23.73858 0 -13.11046 10.628126 -23.73859 23.738584 -23.73859 13.11046 0 23.73859 10.62813 23.73859 23.73859 z" fill-rule="evenodd" stroke="#fff" fill="#fff8eb"/>
 </defs>
 <g transform="translate(0,-540.36217)">
  <path d="m 489.98438 708.24367 c -4.2011 3.5342 -8.4693 7.24424 -12.5651 10.51433 -7.24449 5.784 -14.31961 11.14325 -21.25651 16.14583 -6.93691 5.00258 -13.72035 9.65382 -20.37761 13.93229 -6.65726 4.27847 -13.1908 8.20474 -19.59635 11.81641 -6.40555 3.61167 -12.69844 6.89367 -18.88021 9.89583 -6.18177 3.00217 -12.24323 5.7206 -18.22917 8.17058 -5.98594 2.44997 -11.8903 4.65297 -17.70833 6.60807 -5.81803 1.95509 -11.57454 3.65826 -17.25261 5.17578 -5.67806 1.51752 -11.29596 2.8341 -16.86198 3.97135 -5.56602 1.13725 -11.05453 2.08285 -16.53646 2.89714 -5.48192 0.81429 -10.94793 1.50215 -16.37369 2.05078 -5.42576 0.54864 -10.81341 0.9618 -16.21094 1.30208 -10.79507 0.68058 -21.57213 1.01341 -32.42188 1.20443 -10.84975 0.19102 -21.79245 0.26482 -32.94271 0.45573 -11.15026 0.19091 -22.52196 0.48285 -34.24479 1.13932 -5.86142 0.32823 -11.78297 0.77015 -17.83854 1.30209 -6.05558 0.53193 -12.2384 1.15928 -18.52214 1.95312 -6.28374 0.79385 -12.69236 1.75063 -19.23828 2.86459 -6.54592 1.11395 -13.20999 2.3814 -20.05208 3.87369 -6.842099 1.4923 -13.856359 3.21441 -21.02865 5.14323 -7.172292 1.92883 -14.501267 4.08686 -22.03776 6.51042 -7.536494 2.42356 -15.274931 5.09641 -23.20964 8.07292 -7.934706 2.97651 -16.07969 6.24306 -24.446616 9.83073 -0.516317 0.22139 -1.077021 0.49231 -1.595052 0.71614 C 32.721943 959.17501 134.14972 1046.3622 256 1046.3622 c 138.07119 0 250.00001 -111.92885 250.00001 -250.00003 0 -31.02065 -5.68879 -60.70992 -16.01563 -88.1185 z" fill="#9a3034" fill-rule="evenodd"/>
  <path d="m 256 546.36216 c -138.07119 0 -250.00001 111.92882 -250.00001 250.00001 0 10.75921 0.764589 21.33714 2.083333 31.73828 7.92665 -3.34424 15.711528 -6.49166 23.27474 -9.3099 8.176001 -3.04657 16.1471 -5.78044 23.925782 -8.26823 7.77868 -2.48779 15.376635 -4.71864 22.786459 -6.70573 7.409824 -1.98708 14.642809 -3.72897 21.71224 -5.27344 7.06942 -1.54446 13.978173 -2.87652 20.735683 -4.03645 6.7575 -1.15994 13.35017 -2.16131 19.82421 -2.9948 6.47405 -0.83348 12.82393 -1.5182 19.04297 -2.08333 6.21905 -0.56512 12.30178 -1.01234 18.29428 -1.36719 11.985 -0.70967 23.54854 -1.05247 34.79817 -1.26953 11.24964 -0.21706 22.20072 -0.29916 32.94271 -0.48828 10.74198 -0.18911 21.28365 -0.47282 31.77084 -1.07422 5.24359 -0.3007 10.49101 -0.67961 15.72265 -1.17187 5.23165 -0.49226 10.43591 -1.0801 15.69011 -1.82292 5.2542 -0.74282 10.54161 -1.64946 15.85286 -2.70182 5.31125 -1.05237 10.67794 -2.25747 16.08073 -3.67839 5.4028 -1.42091 10.84486 -3.03435 16.3737 -4.88281 5.52885 -1.84846 11.14003 -3.94755 16.82943 -6.28255 5.6894 -2.335 11.46581 -4.93197 17.35026 -7.8125 5.88445 -2.88053 11.85475 -6.02016 17.96875 -9.50521 6.114 -3.48505 12.37195 -7.30976 18.75 -11.45834 6.37805 -4.14857 12.8872 -8.63802 19.5638 -13.50911 6.67661 -4.87109 13.49816 -10.1026 20.50782 -15.75521 5.14709 -4.15062 10.51007 -8.77933 15.85286 -13.37891 C 444.45835 606.64926 357.30049 546.36216 256 546.36216 z" fill="#c74a6c" fill-rule="evenodd"/>
  <path d="m 483.86459 693.33482 c -100.06866 86.22799 -164.61878 91.66902 -238.44402 92.96875 -64.07096 1.128 -135.16245 -1.35991 -237.40235 41.79688 0.669771 5.28531 1.512032 10.51305 2.506511 15.6901 101.29288 -43.78285 169.74051 -40.70973 235.18881 -41.86198 73.63475 -1.29637 143.4371 -8.61119 244.33595 -93.55469 -1.91406 -5.0893 -3.95463 -10.11386 -6.1849 -15.03906 z" color="#000" fill="#fff8eb"/>
  <use transform="matrix(1.5626091,0,0,1.5626091,-66.184078,396.5335)" xlink:href="#0"/>
  <use transform="matrix(1.5626091,0,0,1.5626091,238.96618,347.07811)" xlink:href="#0"/>
  <use transform="matrix(1.5626091,0,0,1.5626091,97.965714,381.8021)" xlink:href="#0"/>
 </g>
</svg>
