<svg xmlns="http://www.w3.org/2000/svg" width="512" height="512">
 <g transform="matrix(1.0416667 0 0 1.0416667 -10.666675 -573.54395)">
  <path d="m 305.71429 246.28572 c 0 45.76074 -37.09641 82.85714 -82.85714 82.85714 -45.76074 0 -82.85714 -37.0964 -82.85714 -82.85714 0 -45.76073 37.0964 -82.85714 82.85714 -82.85714 45.76073 0 82.85714 37.09641 82.85714 82.85714 z" transform="matrix(2.8965518,0,0,2.8965517,-389.51727,82.982847)" fill="#e4a146" fill-rule="evenodd"/>
  <path transform="translate(0,540.36217)" d="M 84.09375 88.53125 C 41.962381 131.77441 16 190.85693 16 256 c 0 65.14307 25.962381 124.22559 68.09375 167.46875 l 343.8125 0 C 470.03762 380.22559 496 321.14307 496 256 496 190.85693 470.03762 131.77441 427.90625 88.53125 l -343.8125 0 z" fill="#5c805a" fill-rule="evenodd"/>
  <g fill="#fff8eb">
   <path d="m 167.05214 776.05841 -4.20351 -13.8002 -21.13652 0 -4.20351 13.8002 -13.24503 0 20.46237 -58.21465 15.02954 0 20.54168 58.21465 -13.24502 0 m -7.13804 -24.1107 c -3.8863 -12.50475 -6.08058 -19.57668 -6.58286 -21.21583 -0.47589 -1.63906 -0.81958 -2.93448 -1.03105 -3.88627 -0.87245 3.38401 -3.37076 11.75136 -7.49493 25.1021 l 15.10884 0"/>
   <path d="m 235.85488,776.05841 -2.33969,-6.02767 -0.31724,0 c -2.0357,2.5644 -4.13745,4.34891 -6.30527,5.35352 -2.14143,0.97818 -4.94377,1.46727 -8.40702,1.46727 -4.2564,0 -7.61392,-1.21611 -10.07256,-3.64833 -2.43223,-2.43222 -3.64834,-5.89548 -3.64833,-10.38981 -1e-5,-4.7058 1.6391,-8.16907 4.91731,-10.38981 3.30463,-2.24714 8.27482,-3.48968 14.91057,-3.72764 l 7.69321,-0.23794 0,-1.94313 c -3e-5,-4.49429 -2.30006,-6.74144 -6.9001,-6.74148 -3.5426,4e-5 -7.70645,1.07074 -12.49156,3.21212 l -4.00524,-8.16909 c 5.10237,-2.67011 10.75992,-4.00519 16.97267,-4.00523 5.94833,4e-5 10.50874,1.29546 13.68124,3.88626 3.17242,2.59088 4.75865,6.53002 4.75869,11.81742 l 0,29.54354 -8.44668,0 m -3.56902,-20.54168 -4.67938,0.15862 c -3.51616,0.10577 -6.13344,0.74026 -7.85184,1.90348 -1.71843,1.16325 -2.57764,2.93454 -2.57762,5.31387 -2e-5,3.4104 1.95633,5.1156 5.86905,5.11559 2.80232,10e-6 5.03626,-0.80632 6.70182,-2.419 1.69195,-1.61266 2.53794,-3.75406 2.53797,-6.42423 l 0,-3.64833"/>
   <path d="m 278.76241,718.08169 18.04337,0 c 8.22193,6e-5 14.18351,1.17651 17.88475,3.52936 3.72759,2.32653 5.59141,6.04094 5.59146,11.14327 -5e-5,3.46331 -0.8196,6.3053 -2.45865,8.52599 -1.61272,2.22075 -3.76734,3.55583 -6.46389,4.00523 l 0,0.39656 c 3.67472,0.81958 6.31843,2.35293 7.93115,4.60007 1.63905,2.24718 2.4586,5.23458 2.45866,8.9622 -6e-5,5.28744 -1.91675,9.41164 -5.75009,12.3726 -3.80699,2.96096 -8.98867,4.44144 -15.54506,4.44144 l -21.6917,0 0,-57.97672 m 12.29329,22.96068 7.13803,0 c 3.33106,4e-5 5.73684,-0.51548 7.21735,-1.54657 1.50689,-1.03101 2.26034,-2.73621 2.26038,-5.11559 -4e-5,-2.22068 -0.81959,-3.80691 -2.45866,-4.75869 -1.6127,-0.97813 -4.1771,-1.46722 -7.69321,-1.46727 l -6.46389,0 0,12.88812 m 0,9.75532 0,15.10885 8.01046,0 c 3.38393,1e-5 5.88224,-0.6477 7.49494,-1.94314 1.61263,-1.2954 2.41896,-3.27819 2.419,-5.94836 -4e-5,-4.81154 -3.43687,-7.21732 -10.3105,-7.21735 l -7.6139,0"/>
   <path d="m 378.13975,730.8905 c 5.23452,5e-5 9.33228,2.04892 12.29328,6.14664 2.96092,4.07136 4.4414,9.66282 4.44145,16.77439 -5e-5,7.32311 -1.5334,12.99388 -4.60007,17.01232 -3.04031,4.01845 -7.19095,6.02768 -12.45191,6.02768 -5.20815,0 -9.29269,-1.89026 -12.25363,-5.67078 l -0.83277,0 -2.02244,4.87766 -9.23979,0 0,-61.70436 12.095,0 0,14.35538 c -2e-5,1.82421 -0.15864,4.74552 -0.47587,8.76393 l 0.47587,0 c 2.82876,-4.38853 7.01905,-6.58281 12.57088,-6.58286 m -3.88627,9.67601 c -2.98742,3e-5 -5.16849,0.92533 -6.5432,2.7759 -1.37475,1.82419 -2.08855,4.85125 -2.14141,9.08117 l 0,1.30864 c -2e-5,4.75871 0.70057,8.1691 2.10176,10.23118 1.42758,2.06211 3.67474,3.09316 6.74148,3.09315 2.48506,10e-6 4.45463,-1.13679 5.90871,-3.41039 1.48044,-2.30002 2.22068,-5.6311 2.22072,-9.99325 -4e-5,-4.36211 -0.74028,-7.6271 -2.22072,-9.79498 -1.48052,-2.19425 -3.50296,-3.29139 -6.06734,-3.29142"/>
   <path d="m 156.18646,828.99885 c -4.62653,5e-5 -8.20877,1.7449 -10.74671,5.23456 -2.53799,3.46331 -3.80697,8.30131 -3.80695,14.51401 -2e-5,12.92779 4.85119,19.39167 14.55366,19.39167 4.07129,0 9.00182,-1.01783 14.7916,-3.0535 l 0,10.3105 c -4.75874,1.98279 -10.0726,2.97418 -15.94162,2.97418 -8.43348,0 -14.88414,-2.55118 -19.35201,-7.65356 -4.46789,-5.1288 -6.70183,-12.47833 -6.70182,-22.0486 -1e-5,-6.02764 1.09713,-11.30185 3.29143,-15.82265 2.19427,-4.54715 5.34029,-8.02363 9.43807,-10.42947 4.12417,-2.43216 8.94895,-3.64827 14.47435,-3.64833 5.63108,6e-5 11.28863,1.36158 16.97266,4.08455 l -3.96557,9.99325 c -2.16789,-1.03101 -4.34896,-1.92987 -6.5432,-2.69659 -2.19432,-0.76663 -4.34895,-1.14997 -6.46389,-1.15002"/>
   <path d="m 221.42019,878.37027 c -13.80022,0 -20.70032,-7.57424 -20.70031,-22.72275 -1e-5,-7.53456 1.87703,-13.28464 5.63112,-17.25025 3.75406,-3.99197 9.13402,-5.98798 16.13989,-5.98802 5.12878,4e-5 9.72885,1.00465 13.80021,3.01383 l -3.56902,9.35876 c -1.90351,-0.76664 -3.6748,-1.38791 -5.31388,-1.86382 -1.63913,-0.50227 -3.27823,-0.75342 -4.91731,-0.75346 -6.29207,4e-5 -9.43809,4.46792 -9.43807,13.40365 -2e-5,8.67141 3.146,13.0071 9.43807,13.00709 2.32644,10e-6 4.48107,-0.30402 6.46389,-0.91208 1.98275,-0.63449 3.96554,-1.61266 5.94836,-2.93453 l 0,10.35015 c -1.95638,1.24255 -3.93917,2.10176 -5.94836,2.57763 -1.98282,0.47587 -4.49435,0.7138 -7.53459,0.7138"/>
   <path d="m 315.28537,848.03361 c -6e-5,9.54384 -2.72309,16.85372 -8.16909,21.92964 -5.41966,5.07594 -13.25828,7.61391 -23.51587,7.61391 l -16.41748,0 0,-57.97672 18.20199,0 c 9.46448,5e-5 16.814,2.49836 22.0486,7.49493 5.23451,4.99667 7.85179,11.97608 7.85185,20.93824 m -12.76916,0.31725 c -4e-5,-12.45187 -5.49897,-18.67781 -16.4968,-18.67786 l -6.5432,0 0,37.75228 5.27422,0 c 11.84382,10e-6 17.76574,-6.35812 17.76578,-19.07442"/>
   <path d="m 361.48433,878.37027 c -5.20814,0 -9.3059,-2.02244 -12.29329,-6.06733 -2.96097,-4.04488 -4.44145,-9.64955 -4.44145,-16.81404 0,-7.2702 1.50692,-12.92774 4.52076,-16.97267 3.04027,-4.07128 7.21733,-6.10694 12.53122,-6.10698 5.57822,4e-5 9.8346,2.16789 12.76916,6.50354 l 0.39655,0 c -0.60808,-3.3046 -0.91211,-6.25235 -0.91208,-8.84323 l 0,-14.19677 12.13466,0 0,61.70437 -9.27944,0 -2.33969,-5.75009 -0.51553,0 c -2.74949,4.36214 -6.93978,6.5432 -12.57087,6.5432 m 4.24316,-9.63635 c 3.09312,10e-6 5.3535,-0.89885 6.78114,-2.69659 1.45401,-1.79771 2.24712,-4.8512 2.37934,-9.16048 l 0,-1.30864 c -3e-5,-4.75867 -0.74027,-8.16906 -2.22072,-10.23119 -1.45407,-2.06206 -3.83342,-3.09311 -7.13804,-3.09315 -2.69661,4e-5 -4.79836,1.15006 -6.30526,3.45006 -1.4805,2.27362 -2.22074,5.59148 -2.22073,9.95359 -10e-6,4.36215 0.75345,7.64036 2.26038,9.83463 1.5069,2.16786 3.66153,3.25178 6.46389,3.25177"/>
  </g>
 </g>
</svg>
