<svg xmlns="http://www.w3.org/2000/svg" height="512" width="512">
 <g transform="matrix(1.0416667 0 0 1.0416667 -10.666676 -573.54395)">
  <path d="m 305.71429 246.28572 c 0 45.76074 -37.09641 82.85714 -82.85714 82.85714 -45.76074 0 -82.85714 -37.0964 -82.85714 -82.85714 0 -45.76073 37.0964 -82.85714 82.85714 -82.85714 45.76073 0 82.85714 37.09641 82.85714 82.85714 z" transform="matrix(2.8965518,0,0,2.8965518,-389.51727,82.982822)" fill="#366378" fill-rule="evenodd"/>
  <text y="636.31262" x="-286.85162" font-family="Gentium Book Basic" word-spacing="0" line-height="125%" letter-spacing="0" font-size="200"><tspan y="636.31262" x="-286.85162"/>
  </text>
  <text x="-2551.3293" y="903.30402" font-family="Gentium Book Basic" word-spacing="0" line-height="125%" letter-spacing="0" font-size="200"><tspan x="-2551.3293" y="903.30402"/>
  </text>
  <text x="-2274.6428" y="685.11053" font-family="Gentium Book Basic" word-spacing="0" line-height="125%" letter-spacing="0" font-size="200"><tspan x="-2274.6428" y="685.11053"/>
  </text>
  <text x="1752.172" y="438.48669" font-family="Gentium Book Basic" word-spacing="0" line-height="125%" letter-spacing="0" font-size="200"><tspan x="1752.172" y="438.48669"/>
  </text>
  <text y="577.71954" x="-290.64117" font-family="Gentium Book Basic" word-spacing="0" line-height="125%" letter-spacing="0" font-size="200"><tspan y="577.71954" x="-290.64117"/>
  </text>
  <text x="-2555.1187" y="844.71094" font-family="Gentium Book Basic" word-spacing="0" line-height="125%" letter-spacing="0" font-size="200"><tspan x="-2555.1187" y="844.71094"/>
  </text>
  <text x="-2278.4321" y="626.51746" font-family="Gentium Book Basic" word-spacing="0" line-height="125%" letter-spacing="0" font-size="200"><tspan x="-2278.4321" y="626.51746"/>
  </text>
  <path d="m 59.1103,701.93707 0,15.01542 10.510791,0 0,49.05038 0,80.08224 19.958008,0 c -1.80897,3.98346 -2.83101,8.40031 -2.83101,13.06028 -5e-5,17.47376 14.168101,31.64188 31.641841,31.64188 17.47375,0 31.64185,-14.16812 31.64185,-31.64188 0,-4.65891 -1.00718,-9.07751 -2.81539,-13.06028 l 17.94033,0 c -1.80896,3.98346 -2.83101,8.40031 -2.83101,13.06028 -5e-5,17.47376 14.1681,31.64188 31.64184,31.64188 17.47375,0 31.64185,-14.16812 31.64185,-31.64188 0,-4.65891 -1.00718,-9.07751 -2.81539,-13.06028 l 22.94546,0 c -1.80895,3.98346 -2.83101,8.40031 -2.83101,13.06028 -5e-5,17.47376 14.1681,31.64188 31.64184,31.64188 17.47374,0 31.64184,-14.16812 31.64184,-31.64188 0,-4.65891 -1.00719,-9.07751 -2.81539,-13.06028 l 22.94547,0 c -1.80896,3.98346 -2.83101,8.40031 -2.83101,13.06028 -5e-5,17.47376 14.16809,31.64188 31.64184,31.64188 17.47375,0 31.64184,-14.16812 31.64184,-31.64188 0,-4.65891 -1.00718,-9.07751 -2.81539,-13.06028 l 11.37108,0 0,32.78366 57.55912,0 -57.43398,-56.57371 0,-56.29219 -10.24493,0 3.9885,-39.54061 5.75591,0 0,-18.0185 -59.62374,0 0,18.0185 10.26055,0 3.48798,39.54061 -68.61736,0 c 0.0805,-0.86293 0.12514,-1.73903 0.12514,-2.6277 0,-12.92294 -8.73944,-23.39903 -19.52005,-23.39903 -10.78062,0 -19.52006,10.47609 -19.52006,23.39903 0,0.88867 0.0447,1.76477 0.12513,2.6277 l -23.64928,0 c -1.54438,-8.64487 -5.32642,-14.76517 -9.76003,-14.76517 -4.4336,0 -8.21563,6.1203 -9.76001,14.76517 l -17.76826,0 0,-49.05038 10.5108,0 0,-15.01542 -132.13571,0 z" fill="#fff8eb" fill-rule="evenodd"/>
 </g>
</svg>
