<svg xmlns="http://www.w3.org/2000/svg" width="512" height="512" xmlns:xlink="http://www.w3.org/1999/xlink">
 <g transform="translate(0,-540.36218)">
  <path transform="matrix(0.69444445,0,0,0.69444445,121.12698,1022.2034)" d="m 562.85715 -316.57144 c 0 198.82251 -161.17749 360 -360 360 -198.82251 0 -360 -161.17749 -360 -360 0 -198.82251 161.17749 -360 360 -360 198.82251 0 360 161.17749 360 360 z" fill="#654641" fill-rule="evenodd"/>
  <path d="m 562.85715 -316.57144 a 360 360 0 1 1 -720 0 360 360 0 1 1 720 0 z" transform="matrix(0.29105175,0,0,0.29105175,202.95824,894.50064)" fill="#f38725" fill-rule="evenodd"/>
  <path d="m 194.11521 790.60366 0 -29.66972 135.76973 0 0 29.66972 -135.76973 0 m 0 53.18673 0 -29.94317 135.76973 0 0 29.94317 -135.76973 0" transform="matrix(0.90060099,0,0,0.90060099,26.042556,79.753981)" fill="#fff8eb"/>
  <path d="m 253.73259 626.59224 -31.07529 0 0 -17.58524 31.07529 0 0 -31.31619 17.58524 0 0 31.31619 31.07529 0 0 17.58524 -31.07529 0 0 30.91469 -17.58524 0 0 -30.91469" transform="matrix(1.2531199,0,0,1.2531199,-72.975565,-141.67937)" fill="#fff8eb"/>
  <path d="m 161.76473 1341.1866 0 -29.6815 63.75593 0 0 29.6815 -63.75593 0" transform="matrix(1.4749943,0,0,0.80836971,-29.621871,-97.012606)" fill="#fff8eb"/>
  <g transform="translate(9.6682384,-1.2140276)">
   <path d="m 431.33743 695.62102 0 -28.06117 60.2754 0 0 28.06117 -60.2754 0" transform="matrix(1.3290193,1.3290193,-0.72836817,0.72836817,-32.873571,-312.18184)" fill="#fff8eb"/>
   <path d="m 343.40753 856.06237 0 -28.06118 60.2754 0 0 28.06118 -60.2754 0" transform="matrix(-1.3290193,1.3290193,0.72836817,0.72836817,-32.873571,-312.18184)" fill="#fff8eb"/>
  </g>
  <g transform="matrix(6.393561,0,0,6.393561,-6500.918,-6355.0098)">
   <path d="m 797.88699 1512.9482 0 -4.9072 10.54065 0 0 4.9072 -10.54065 0" transform="scale(1.3507972,0.74030357)" fill="#fff8eb"/>
   <path transform="matrix(1.25,0,0,1.25,-271.30599,396.92579)" d="m 1086.4821 572.48291 c 0 0.83684 -0.6783 1.51523 -1.5152 1.51523 -0.8368 0 -1.5152 -0.67839 -1.5152 -1.51523 0 -0.83684 0.6784 -1.51523 1.5152 -1.51523 0.8369 0 1.5152 0.67839 1.5152 1.51523 z" fill="#fff8eb" fill-rule="evenodd" id="0"/>
   <use transform="matrix(1 0 0 1 0 11.99556)" xlink:href="#0"/>
  </g>
 </g>
</svg>
