<svg xmlns="http://www.w3.org/2000/svg" xmlns:xlink="http://www.w3.org/1999/xlink" width="512" height="512">
 <defs>
  <linearGradient id="0">
   <stop stop-color="#7298aa"/>
   <stop offset="1" stop-color="#366378"/>
  </linearGradient>
  <linearGradient y2="7.01654" x2="0" y1="92.5396" gradientTransform="scale(1.0058652,0.994169)" gradientUnits="userSpaceOnUse" xlink:href="#2"/>
  <filter x="-0.192" y="-0.192" width="1.384" height="1.384" color-interpolation-filters="sRGB">
   <feGaussianBlur stdDeviation="5.28"/>
  </filter>
  <clipPath>
   <rect width="84" height="84" rx="6" x="6" y="6" fill="#fff"/>
  </clipPath>
  <linearGradient id="1">
   <stop stop-color="#fff"/>
   <stop offset="1" stop-color="#fff" stop-opacity="0"/>
  </linearGradient>
  <linearGradient y1="20.220806" x2="0" y2="138.66119" xlink:href="#1" gradientUnits="userSpaceOnUse"/>
  <filter color-interpolation-filters="sRGB">
   <feGaussianBlur stdDeviation="1.71"/>
  </filter>
  <linearGradient y1="92.5396" x2="0" y2="7.01654" id="2" gradientUnits="userSpaceOnUse" gradientTransform="scale(1.0058652,0.994169)">
   <stop/>
   <stop offset="1" stop-opacity="0.588235"/>
  </linearGradient>
  <radialGradient xlink:href="#0" id="3" cx="256" cy="256" r="250" gradientUnits="userSpaceOnUse"/>
 </defs>
 <g transform="translate(0,-540.36217)">
  <path d="M 256 6 C 164.58184 6 84.65921 55.10766 41.0625 128.34375 C 18.813976 165.71801 6 209.34698 6 256 C 6 394.07117 117.92881 506 256 506 C 394.07119 506 506 394.07117 506 256 C 506 209.34698 493.18602 165.71801 470.9375 128.34375 C 427.34078 55.10766 347.41816 6 256 6 z" transform="translate(0,540.36217)" fill="url(#3)" fill-rule="evenodd"/>
  <text y="1089.8812" x="-1160.4812" font-family="Gentium Book Basic" word-spacing="0" line-height="125%" letter-spacing="0" font-size="208.33333"><tspan y="1089.8812" x="-1160.4812"/>
  </text>
  <text transform="scale(4.0128362,0.2492003)" font-size="75.69771" y="3810.6255" x="28.533577" font-family="Arial" text-anchor="middle"/>
  <path d="M 256 6 C 233.43856 6 211.56913 8.987204 190.78125 14.59375 L 252.8125 246.125 L 132.875 38.40625 C 95.01112 59.892743 63.30861 90.97354 41.0625 128.34375 C 40.860193 128.6836 40.669495 129.03412 40.46875 129.375 L 253.875 252.5625 L 252.5 253.34375 L 14.90625 189.6875 C 9.099915 210.80077 6 233.03605 6 256 C 6 278.03687 8.865033 299.39381 14.21875 319.75 L 244.28125 258.09375 L 37.46875 377.46875 C 58.929533 415.99522 90.28349 448.2489 128.09375 470.8125 L 252.09375 256 L 253.25 255.6875 L 188.65625 496.8125 C 210.08503 502.79331 232.66337 506 256 506 C 277.99188 506 299.30623 503.14509 319.625 497.8125 L 255.1875 257.3125 L 256.65625 257.71875 L 380.78125 472.65625 C 419.19134 450.48628 451.17041 418.41534 473.1875 379.90625 L 265.8125 260.15625 L 497.125 322.1875 C 502.9005 301.10204 506 278.91837 506 256 C 506 233.91711 503.13364 212.51017 497.75 192.125 L 258.84375 256.125 L 257.84375 255.5625 L 472.78125 131.46875 C 472.17896 130.42295 471.55437 129.38 470.9375 128.34375 C 449.04615 91.5695 418.0034 60.881855 380.9375 39.4375 L 259.625 249.59375 L 322.5 14.9375 C 301.3302 9.106244 279.02498 6 256 6 z M 256.9375 251.25 L 257.5 253.28125 L 257.21875 253.75 L 256.5625 252.625 L 256.9375 251.25 z M 254.03125 252.65625 L 254.65625 253 L 254.875 253.84375 L 254.21875 253.46875 L 254.46875 253.875 L 254.25 253.8125 L 254 252.90625 L 253.78125 253.6875 L 253.46875 253.625 L 254.03125 252.65625 z M 256.21875 253.90625 L 256.90625 254.3125 L 256.78125 254.5 L 256.125 254.3125 L 256.21875 253.90625 z M 256.625 254.78125 L 256.59375 254.84375 L 256.53125 254.8125 L 256.625 254.78125 z M 255.21875 255.1875 L 255.25 255.25 L 255.5625 256.4375 L 255.6875 256 L 255.8125 256.21875 L 255.34375 257 L 256.03125 256.59375 L 256.15625 256.84375 L 255.125 257.125 L 254.65625 255.3125 L 255.21875 255.1875 z" transform="translate(0,540.36217)" opacity="0.15" fill="#fff8eb"/>
  <path d="M 256 84.25 C 195.44167 84.25 142.50486 116.82982 113.625 165.34375 C 106.83717 176.74632 101.41723 189.01958 97.5 201.96875 L 256.75 249.09375 L 55.09375 249.09375 C 55.09235 249.41001 55.09375 249.74588 55.09375 250.0625 C 55.09375 361.02892 145.03356 450.96875 256 450.96875 C 366.96643 450.96875 456.90625 361.02892 456.90625 250.0625 C 456.90625 249.74588 456.90725 249.41001 456.90625 249.09375 L 421.59375 249.09375 C 421.45171 218.48393 412.98868 189.89259 398.375 165.34375 C 369.49512 116.82982 316.55829 84.25 256 84.25 z" transform="translate(0,540.36217)" fill="#fff8eb" fill-rule="evenodd"/>
 </g>
</svg>
