<?xml version="1.0" encoding="UTF-8" standalone="no"?>
<!-- Created with Inkscape (http://www.inkscape.org/) -->

<svg
   xmlns:dc="http://purl.org/dc/elements/1.1/"
   xmlns:cc="http://creativecommons.org/ns#"
   xmlns:rdf="http://www.w3.org/1999/02/22-rdf-syntax-ns#"
   xmlns:svg="http://www.w3.org/2000/svg"
   xmlns="http://www.w3.org/2000/svg"
   xmlns:sodipodi="http://sodipodi.sourceforge.net/DTD/sodipodi-0.dtd"
   xmlns:inkscape="http://www.inkscape.org/namespaces/inkscape"
   width="512"
   height="512"
   id="svg2"
   version="1.1"
   inkscape:version="0.48.4 r9939"
   sodipodi:docname="aptana.svg">
  <defs
     id="defs4" />
  <sodipodi:namedview
     id="base"
     pagecolor="#ffffff"
     bordercolor="#666666"
     borderopacity="1.0"
     inkscape:pageopacity="0.0"
     inkscape:pageshadow="2"
     inkscape:zoom="0.9899495"
     inkscape:cx="240.61081"
     inkscape:cy="242.57525"
     inkscape:document-units="px"
     inkscape:current-layer="layer1"
     showgrid="false"
     inkscape:window-width="1309"
     inkscape:window-height="750"
     inkscape:window-x="55"
     inkscape:window-y="-3"
     inkscape:window-maximized="1" />
  <metadata
     id="metadata7">
    <rdf:RDF>
      <cc:Work
         rdf:about="">
        <dc:format>image/svg+xml</dc:format>
        <dc:type
           rdf:resource="http://purl.org/dc/dcmitype/StillImage" />
        <dc:title />
      </cc:Work>
    </rdf:RDF>
  </metadata>
  <g
     inkscape:label="Layer 1"
     inkscape:groupmode="layer"
     id="layer1"
     transform="translate(0,-540.36218)">
    <path
       sodipodi:type="arc"
       style="fill:#f38725;fill-rule:evenodd;stroke:none"
       id="path2985"
       sodipodi:cx="202.85715"
       sodipodi:cy="-316.57144"
       sodipodi:rx="360"
       sodipodi:ry="360"
       d="m 562.85715,-316.57144 c 0,198.82251 -161.17749,359.999998 -360,359.999998 -198.8225127,0 -360,-161.177488 -360,-359.999998 0,-198.82251 161.1774873,-360 360,-360 198.82251,0 360,161.17749 360,360 z"
       transform="matrix(0.69444444,0,0,0.69444444,115.12698,1016.2035)" />
    <path
       style="fill:#fff8eb;fill-rule:evenodd;stroke:none"
       d="m 256,567.072 c -126.62592,0 -229.290179,102.66426 -229.290179,229.29018 0,126.62592 102.664259,229.29022 229.290179,229.29022 126.62592,0 229.29018,-102.6643 229.29018,-229.29022 C 485.29018,669.73626 382.62592,567.072 256,567.072 z m 0,19.8677 c 115.6556,0 209.42248,93.76688 209.42248,209.42248 0,115.6556 -93.76688,209.42252 -209.42248,209.42252 -115.6556,0 -209.422475,-93.76692 -209.422475,-209.42252 C 46.577525,680.70658 140.3444,586.9397 256,586.9397 z"
       id="path13814"
       inkscape:connector-curvature="0" />
    <g
       id="g3043"
       inkscape:export-filename="folder.png"
       inkscape:export-xdpi="90"
       inkscape:export-ydpi="90"
       transform="matrix(6.682108,0,0,6.682108,737.60053,435.02353)" />
    <g
       id="scalable"
       transform="matrix(6.9399652,0,0,6.9399652,8858.6818,12988.899)"
       inkscape:label="#g3701"
       style="fill:#ffffff" />
    <path
       clip-path="none"
       id="path8454"
       d="m 241.86197,626.70588 c -7.06901,0 -14.13803,4.52479 -14.13803,14.13803 0,21.64884 -4.89184,33.08331 -13.03348,38.65865 -3.98708,1.41066 -7.69936,3.2855 -11.48716,5.08086 -0.11932,0.0566 -0.3227,-0.0572 -0.44181,0 -9.74257,2.01417 -21.15609,-2.59994 -36.67051,-18.11434 -6.79757,-6.79759 -15.10394,-4.99856 -20.1025,0 l -9.94079,9.94079 -9.94081,9.9408 c -4.99854,4.99855 -6.79757,13.30493 0,20.10251 15.51441,15.5144 20.12852,26.92792 18.11435,36.6705 -0.0297,0.14505 0.0332,0.29754 0,0.44182 -1.79536,3.78779 -3.67019,7.50006 -5.08085,11.48714 -5.57535,8.14164 -17.00981,13.03349 -38.65867,13.03349 -9.613226,0 -14.13802,7.06902 -14.13802,14.13803 l 0,14.13802 0,14.13803 c 0,7.06901 4.524794,14.13802 14.13802,14.13802 21.64886,0 33.08332,4.89185 38.65867,13.03349 1.41066,3.98708 3.28549,7.69936 5.08085,11.48716 0.0566,0.11932 -0.0572,0.32269 0,0.44181 2.01417,9.74257 -2.59994,21.15608 -18.11435,36.67049 -6.79757,6.79759 -4.99854,15.10396 0,20.10252 l 9.94081,9.94079 9.94079,9.94081 c 4.99856,4.99854 13.30493,6.79757 20.1025,0 15.51442,-15.51442 26.92793,-20.12852 36.67051,-18.11436 0.14506,0.0297 0.29754,-0.0332 0.44181,0 3.7878,1.79536 7.50008,3.6702 11.48716,5.08086 8.14164,5.57535 13.03348,17.00981 13.03348,38.65867 0,9.61323 7.06902,14.13801 14.13803,14.13801 l 14.13803,0 14.13802,0 c 7.06901,0 14.13803,-4.52478 14.13803,-14.13801 0,-21.64886 4.89184,-33.08332 13.03348,-38.65867 3.98708,-1.41066 7.69934,-3.2855 11.48715,-5.08086 0.11934,-0.0565 0.32266,0.0572 0.44178,0 9.74264,-2.01416 21.15613,2.59994 36.67058,18.11436 6.79754,6.79757 15.10387,4.99854 20.10245,0 l 9.94079,-9.94081 9.94078,-9.94079 c 4.99859,-4.99856 6.79765,-13.30493 0,-20.10252 -15.51434,-15.5144 -20.12848,-26.92791 -18.11434,-36.67049 0.0296,-0.14506 -0.0328,-0.29754 0,-0.44181 1.79536,-3.7878 3.67028,-7.50008 5.08089,-11.48716 5.57536,-8.14164 17.00979,-13.03349 38.6587,-13.03349 9.61325,0 14.138,-7.06901 14.138,-14.13802 l 0,-14.13803 0,-14.13802 c 0,-7.06901 -4.52475,-14.13803 -14.138,-14.13803 -21.6489,0 -33.08334,-4.89185 -38.65869,-13.03349 -1.41061,-3.98708 -3.28553,-7.69935 -5.08089,-11.48714 -0.0328,-0.14428 0.0296,-0.29677 0,-0.44182 -2.01414,-9.74258 2.6,-21.15609 18.11434,-36.6705 6.79766,-6.79758 4.99859,-15.10396 0,-20.10251 l -9.94078,-9.9408 -9.9408,-9.94079 c -4.99858,-4.99856 -13.3049,-6.79759 -20.10245,0 -15.51445,15.5144 -26.92794,20.12851 -36.67058,18.11434 -0.11912,-0.0572 -0.32244,0.0566 -0.44178,0 -3.7878,-1.79536 -7.50007,-3.6702 -11.48715,-5.08086 -8.14164,-5.57534 -13.03348,-17.00981 -13.03348,-38.65865 0,-9.61324 -7.06902,-14.13803 -14.13803,-14.13803 l -14.13802,0 -14.13803,0 z M 256,725.67205 c 39.04108,0 70.69014,31.64905 70.69014,70.69013 0,39.04108 -31.64906,70.69013 -70.69014,70.69013 -39.04108,0 -70.69013,-31.64905 -70.69013,-70.69013 0,-39.04108 31.64905,-70.69013 70.69013,-70.69013 z"
       style="color:#000000;fill:#fff8eb;fill-opacity:1;fill-rule:nonzero;stroke:none;stroke-width:1;marker:none;visibility:visible;display:inline;overflow:visible;enable-background:accumulate"
       inkscape:connector-curvature="0" />
  </g>
</svg>
