<?xml version="1.0" encoding="UTF-8" standalone="no"?>
<!-- Created with Inkscape (http://www.inkscape.org/) -->

<svg
   xmlns:dc="http://purl.org/dc/elements/1.1/"
   xmlns:cc="http://creativecommons.org/ns#"
   xmlns:rdf="http://www.w3.org/1999/02/22-rdf-syntax-ns#"
   xmlns:svg="http://www.w3.org/2000/svg"
   xmlns="http://www.w3.org/2000/svg"
   xmlns:sodipodi="http://sodipodi.sourceforge.net/DTD/sodipodi-0.dtd"
   xmlns:inkscape="http://www.inkscape.org/namespaces/inkscape"
   width="512"
   height="512"
   id="svg2"
   version="1.1"
   inkscape:version="0.48.4 r9939"
   sodipodi:docname="ardour.svg">
  <defs
     id="defs4" />
  <sodipodi:namedview
     id="base"
     pagecolor="#ffffff"
     bordercolor="#666666"
     borderopacity="1.0"
     inkscape:pageopacity="0.0"
     inkscape:pageshadow="2"
     inkscape:zoom="0.98994949"
     inkscape:cx="360.90851"
     inkscape:cy="234.84112"
     inkscape:document-units="px"
     inkscape:current-layer="layer1"
     showgrid="false"
     inkscape:window-width="1309"
     inkscape:window-height="750"
     inkscape:window-x="55"
     inkscape:window-y="-3"
     inkscape:window-maximized="1" />
  <metadata
     id="metadata7">
    <rdf:RDF>
      <cc:Work
         rdf:about="">
        <dc:format>image/svg+xml</dc:format>
        <dc:type
           rdf:resource="http://purl.org/dc/dcmitype/StillImage" />
        <dc:title />
      </cc:Work>
    </rdf:RDF>
  </metadata>
  <g
     inkscape:label="Layer 1"
     inkscape:groupmode="layer"
     id="layer1"
     transform="translate(0,-540.36218)">
    <path
       sodipodi:type="arc"
       style="fill:#cd1d31;fill-rule:evenodd;stroke:none"
       id="path2985"
       sodipodi:cx="202.85715"
       sodipodi:cy="-316.57144"
       sodipodi:rx="360"
       sodipodi:ry="360"
       d="m 562.85715,-316.57144 c 0,198.82251 -161.17749,359.999998 -360,359.999998 -198.8225127,0 -360,-161.177488 -360,-359.999998 0,-198.82251 161.1774873,-360 360,-360 198.82251,0 360,161.17749 360,360 z"
       transform="matrix(0.69444444,0,0,0.69444444,115.12698,1016.2035)" />
    <path
       style="fill:#ffffff;fill-rule:evenodd;stroke:none"
       d="M 255.27576,589.06288 160.9557,753.74261 70.833531,911.10652 c 2.370288,-0.94742 4.713316,-1.85353 7.045817,-2.74957 0.752833,-1.30636 1.655635,-2.08677 2.651373,-2.08677 0.489974,0 0.956851,0.19601 1.399297,0.54009 3.45739,-1.29449 6.872516,-2.53157 10.261795,-3.70697 l 0,-2.03767 c 0,-6.29055 2.42363,-11.34198 5.450045,-11.34198 2.771572,0 5.061722,4.24848 5.425452,9.79539 2.74628,-0.86855 5.48603,-1.71204 8.1997,-2.50408 l 0,-22.31576 c 0,-6.29055 2.30901,-11.36649 5.17996,-11.36649 2.87094,0 5.17995,5.07594 5.17995,11.36649 l 0,19.4434 c 3.29682,-0.85158 6.57352,-1.64628 9.84449,-2.38128 l 0,-43.45306 c 0,-6.29055 2.56284,-11.34198 5.74464,-11.34198 3.18181,0 5.74465,5.05143 5.74465,11.34198 l 0,41.09628 c 3.64868,-0.6705 7.29987,-1.26708 10.94918,-1.79217 l 0,-62.57727 c 0,-6.29055 2.56284,-11.36658 5.74465,-11.36658 3.1818,0 5.74464,5.07603 5.74464,11.36658 l 0,61.15338 c 3.17387,-0.32232 6.35072,-0.59634 9.54981,-0.8101 l 0,-80.2777 c 0,-6.29054 2.81658,-11.34198 6.30933,-11.34198 3.49274,0 6.30932,5.05144 6.30932,11.34198 l 0,79.73761 c 3.34301,-0.0746 6.71768,-0.1136 10.1145,-0.0738 l 0,-92.55253 c 0,-6.29054 2.8165,-11.36654 6.30924,-11.36654 3.49275,0 6.28474,5.076 6.28474,11.36654 l 0,92.94533 c 2.92727,0.15115 5.87953,0.33285 8.86242,0.56468 l 0,-84.8194 c 0,-6.29054 2.81658,-11.34198 6.30933,-11.34198 3.49274,0 6.30932,5.05144 6.30932,11.34198 l 0,86.0223 c 2.40737,0.26946 4.83917,0.56516 7.29124,0.88379 l 0,-85.35946 c 0,-6.29054 2.81658,-11.36653 6.30924,-11.36653 3.49322,0 6.30933,5.07599 6.30933,11.36653 l 0,87.17614 c 3.33138,0.52808 6.69018,1.08106 10.1145,1.69397 l 0,-72.74094 c 0,-6.29055 2.9312,-11.34196 6.57933,-11.34196 3.64813,0 6.60392,5.05141 6.60392,11.34196 l 0,75.26953 c 3.47821,0.7046 6.99695,1.44855 10.5809,2.23407 0.27378,0.0503 0.51339,0.097 0.7856,0.14729 l 0,-59.55769 c 0,-6.29055 2.30901,-11.34198 5.17995,-11.34198 2.87126,0 5.18004,5.05143 5.18004,11.34198 l 0,61.49709 c 4.54371,0.86014 8.80625,1.67865 12.93776,2.47956 l 0,-46.71821 c 0,-6.29055 2.30901,-11.34199 5.17996,-11.34199 2.87094,0 5.17995,5.05144 5.17995,11.34199 l 0,48.7558 c 4.48872,0.87884 8.5694,1.66357 12.64316,2.45497 l 0,-30.44169 c 0,-6.29054 2.56284,-11.36649 5.74465,-11.36649 3.1818,0 5.74464,5.07595 5.74464,11.36649 l 0,32.65117 c 3.23664,0.60577 6.34405,1.15757 9.40259,1.69397 l 0,-16.25193 c 0,-6.29055 2.07978,-11.36657 4.63986,-11.36657 2.56009,0 4.61536,5.07602 4.61536,11.36657 l 0,17.79853 c 2.55294,0.40238 5.08058,0.78229 7.58583,1.12929 l 0,-5.17996 c 0,-6.29055 2.19455,-11.36657 4.90995,-11.36657 2.7165,0 4.88544,5.07602 4.88544,11.36657 l 0,6.38293 c 2.06289,0.22452 4.12255,0.42885 6.21105,0.6137 0.16584,-5.8895 2.02604,-10.50728 4.32075,-10.50728 2.37673,0 4.30073,4.95763 4.34535,11.14557 2.15362,0.12916 4.35084,0.23168 6.57933,0.31919 0.78661,-2.8608 2.07931,-4.71354 3.53517,-4.71354 1.49388,0 2.80401,1.94567 3.58426,4.93445 3.6094,0.0668 7.38016,0.066 11.29288,0.0244 0.54277,-0.75032 1.16802,-1.17839 1.81669,-1.17839 0.63428,0 1.23385,0.40993 1.76758,1.12929 3.81554,-0.0699 7.75238,-0.17676 11.93118,-0.34369 l 5.62185,-0.71199 -91.57049,-159.89259 -94.32022,-164.67972 z"
       id="path2996"
       inkscape:connector-curvature="0" />
  </g>
</svg>
