<?xml version="1.0" encoding="UTF-8" standalone="no"?>
<!-- Created with Inkscape (http://www.inkscape.org/) -->

<svg
   xmlns:osb="http://www.openswatchbook.org/uri/2009/osb"
   xmlns:dc="http://purl.org/dc/elements/1.1/"
   xmlns:cc="http://creativecommons.org/ns#"
   xmlns:rdf="http://www.w3.org/1999/02/22-rdf-syntax-ns#"
   xmlns:svg="http://www.w3.org/2000/svg"
   xmlns="http://www.w3.org/2000/svg"
   xmlns:xlink="http://www.w3.org/1999/xlink"
   xmlns:sodipodi="http://sodipodi.sourceforge.net/DTD/sodipodi-0.dtd"
   xmlns:inkscape="http://www.inkscape.org/namespaces/inkscape"
   width="512"
   height="512"
   id="svg2"
   version="1.1"
   inkscape:version="0.48.4 r9939"
   sodipodi:docname="audacious.svg">
  <defs
     id="defs4">
    <linearGradient
       id="linearGradient5284"
       osb:paint="solid">
      <stop
         style="stop-color:#a7d6f6;stop-opacity:1;"
         offset="0"
         id="stop5286" />
    </linearGradient>
    <linearGradient
       id="linearGradient5228"
       osb:paint="solid">
      <stop
         style="stop-color:#000000;stop-opacity:1;"
         offset="0"
         id="stop5230" />
    </linearGradient>
    <radialGradient
       inkscape:collect="always"
       xlink:href="#linearGradient3895-9-0-3-2-4-0"
       id="radialGradient4432"
       gradientUnits="userSpaceOnUse"
       gradientTransform="matrix(0.9765625,0,0,0.9765625,-16.534898,-236.25)"
       cx="148.00372"
       cy="160"
       fx="148.00372"
       fy="160"
       r="128" />
    <linearGradient
       id="linearGradient3895-9-0-3-2-4-0">
      <stop
         offset="0"
         style="stop-color:#f6cafc;stop-opacity:1;"
         id="stop3897-0-5-7-0-3-0" />
      <stop
         offset="1"
         style="stop-color:#75507b;stop-opacity:1;"
         id="stop3899-8-7-06-7-9-9" />
    </linearGradient>
    <radialGradient
       inkscape:collect="always"
       xlink:href="#linearGradient3895-9-0-3-2-4-0"
       id="radialGradient7238"
       gradientUnits="userSpaceOnUse"
       gradientTransform="matrix(0.9765625,0,0,0.9765625,535.4651,438.96932)"
       cx="148.00372"
       cy="160"
       fx="148.00372"
       fy="160"
       r="128" />
  </defs>
  <sodipodi:namedview
     id="base"
     pagecolor="#ffffff"
     bordercolor="#666666"
     borderopacity="1.0"
     inkscape:pageopacity="0.0"
     inkscape:pageshadow="2"
     inkscape:zoom="0.7"
     inkscape:cx="324.93176"
     inkscape:cy="197.30087"
     inkscape:document-units="px"
     inkscape:current-layer="layer1"
     showgrid="false"
     inkscape:window-width="1309"
     inkscape:window-height="750"
     inkscape:window-x="55"
     inkscape:window-y="-3"
     inkscape:window-maximized="1" />
  <metadata
     id="metadata7">
    <rdf:RDF>
      <cc:Work
         rdf:about="">
        <dc:format>image/svg+xml</dc:format>
        <dc:type
           rdf:resource="http://purl.org/dc/dcmitype/StillImage" />
        <dc:title></dc:title>
      </cc:Work>
    </rdf:RDF>
  </metadata>
  <g
     inkscape:label="Layer 1"
     inkscape:groupmode="layer"
     id="layer1"
     transform="translate(0,-540.36218)">
    <path
       sodipodi:type="arc"
       style="fill:#55405f;fill-rule:evenodd;stroke:none"
       id="path2985"
       sodipodi:cx="202.85715"
       sodipodi:cy="-316.57144"
       sodipodi:rx="360"
       sodipodi:ry="360"
       d="m 562.85715,-316.57144 c 0,198.82251 -161.17749,359.999998 -360,359.999998 -198.8225127,0 -360,-161.177488 -360,-359.999998 0,-198.82251 161.1774873,-360 360,-360 198.82251,0 360,161.17749 360,360 z"
       transform="matrix(0.69444444,0,0,0.69444444,115.12698,1016.2035)" />
    <g
       id="g3141"
       transform="matrix(25.675077,0,0,25.675077,-868.03823,-25147.053)">
      <path
         id="path3136"
         transform="translate(0,1004.3622)"
         d="M 43.875,1.75 C 43.164913,1.735933 42.407657,1.798162 41.65625,1.875 L 40.5625,2.59375 c 0.007,0.4241632 -0.06442,0.9951884 0.28125,1.25 l 3.375,-0.125 0.25,0.96875 -0.875,0.5 C 41.045055,5.217147 40.069135,6.2599876 39.75,7.28125 c 0.09042,0.9844835 0.250343,1.86225 0.75,2.4375 0.89984,0.777488 1.872972,0.809684 2.84375,0.65625 l 1.71875,-0.6875 1.125,0.71875 1.53125,-1.0625 L 47.375,8.125 C 47.849779,6.9612201 47.657435,5.8200299 47.8125,4.65625 47.31823,3.5787991 46.74658,2.5875429 45.84375,2.09375 45.237059,1.8522112 44.585087,1.7640674 43.875,1.75 z m 0.0625,4.46875 c 0.616297,0 1.125,0.5087038 1.125,1.125 0,0.6162961 -0.508703,1.09375 -1.125,1.09375 -0.616296,0 -1.125,-0.4774539 -1.125,-1.09375 0,-0.6162962 0.508704,-1.125 1.125,-1.125 z"
         style="fill:#ffffff;stroke:none"
         inkscape:connector-curvature="0" />
      <path
         sodipodi:nodetypes="ccccccccccccsccccsccccccccccccccccccccccscscc"
         style="fill:#ffffff;fill-opacity:1;stroke:none"
         id="path3865"
         inkscape:connector-curvature="0"
         d="m 44.244525,1005.9299 c -0.150122,-0.013 -0.303435,0 -0.461645,0.013 -0.939468,0.04 -2.602072,0.013 -3.25037,0.7726 -0.396153,0.4675 -0.211378,1.5545 0.395697,1.6676 0.756286,0.1408 2.035051,-0.2083 2.854673,-0.1223 0.571483,0.06 0.738618,0.5193 0.273217,0.8383 -0.492779,0.338 -1.611531,0.2354 -2.176332,0.4051 -1.952697,0.5869 -2.654461,1.8297 -2.176334,3.5142 0.311769,1.0985 1.415283,1.9134 2.619137,1.9597 2.315804,-0.013 1.884096,-1.1733 3.005412,-0.5653 0.369017,0.4261 1.112621,0.5632 1.497997,0.2638 0.619591,-0.4812 1.554089,-0.7393 0.895028,-1.724 -0.315612,-0.4717 0.41996,-1.0827 0.254377,-3.4293 -0.146889,-2.0819 -1.479038,-3.5097 -3.730857,-3.5897 z m -0.452226,0.3015 c 1.206498,-0.053 2.131071,0.2734 2.779301,0.8478 0.64823,0.5746 1.037706,1.4101 1.11172,2.4591 0.08051,1.1411 -0.05863,1.8357 -0.179006,2.3271 -0.06019,0.2456 -0.114345,0.4439 -0.14132,0.6405 -0.02697,0.1967 -0.01149,0.417 0.113059,0.6029 0.143618,0.2147 0.181416,0.3633 0.179004,0.4524 -0.0025,0.089 -0.03967,0.1457 -0.122482,0.2356 -0.165619,0.1794 -0.539416,0.3718 -0.885608,0.6405 -0.103241,0.081 -0.308065,0.1236 -0.527596,0.084 -0.219531,-0.039 -0.43449,-0.1505 -0.565281,-0.3015 -0.02398,-0.027 -0.05287,-0.049 -0.08478,-0.065 -0.308033,-0.1672 -0.561538,-0.2449 -0.800815,-0.2074 -0.239276,0.038 -0.399157,0.1676 -0.55586,0.2732 -0.312182,0.2103 -0.682264,0.4573 -1.780636,0.4616 -0.0032,0 -0.0063,1e-4 -0.0095,0 -1.074865,-0.045 -2.064809,-0.7952 -2.336496,-1.7523 -0.223575,-0.7875 -0.17017,-1.4165 0.14132,-1.9314 0.311488,-0.5148 0.906275,-0.9356 1.837164,-1.2154 0.215618,-0.064 0.633049,-0.093 1.055193,-0.1318 0.422142,-0.039 0.862623,-0.074 1.205932,-0.311 0.300467,-0.2059 0.46194,-0.551 0.358012,-0.8573 -0.103926,-0.3065 -0.412293,-0.4805 -0.772552,-0.5183 -0.466538,-0.049 -1.002376,0.026 -1.516837,0.084 -0.514463,0.059 -1.003617,0.095 -1.309568,0.038 -0.142217,-0.026 -0.281739,-0.1984 -0.33917,-0.471 -0.05743,-0.2726 0.0021,-0.5852 0.113059,-0.716 0.242732,-0.2866 0.753315,-0.468 1.337832,-0.556 0.584515,-0.088 1.215145,-0.092 1.695843,-0.1134 z" />
    </g>
    <path
       style="font-size:medium;font-style:normal;font-variant:normal;font-weight:normal;font-stretch:normal;text-indent:0;text-align:start;text-decoration:none;line-height:normal;letter-spacing:normal;word-spacing:normal;text-transform:none;direction:ltr;block-progression:tb;writing-mode:lr-tb;text-anchor:start;baseline-shift:baseline;color:#000000;fill:#ffffff;fill-opacity:1;stroke:none;stroke-width:3;marker:none;visibility:visible;display:inline;overflow:visible;enable-background:accumulate;font-family:Sans;-inkscape-font-specification:Sans"
       d="m 256,573.50504 c -122.84066,0 -222.857143,100.0169 -222.857143,222.85714 0,122.84026 100.016483,222.85712 222.857143,222.85712 122.84066,0 222.85714,-100.01686 222.85714,-222.85712 C 478.85714,673.52194 378.84066,573.50504 256,573.50504 z m 0,40.51959 c 100.9423,0 182.33768,81.39579 182.33768,182.33755 0,100.94174 -81.39538,182.33755 -182.33768,182.33755 -100.94232,0 -182.337681,-81.39581 -182.337681,-182.33755 0,-100.94176 81.395361,-182.33755 182.337681,-182.33755 z"
       id="path3114"
       inkscape:connector-curvature="0" />
  </g>
</svg>
