<?xml version="1.0" encoding="UTF-8" standalone="no"?>
<!-- Created with Inkscape (http://www.inkscape.org/) -->

<svg
   xmlns:dc="http://purl.org/dc/elements/1.1/"
   xmlns:cc="http://creativecommons.org/ns#"
   xmlns:rdf="http://www.w3.org/1999/02/22-rdf-syntax-ns#"
   xmlns:svg="http://www.w3.org/2000/svg"
   xmlns="http://www.w3.org/2000/svg"
   xmlns:sodipodi="http://sodipodi.sourceforge.net/DTD/sodipodi-0.dtd"
   xmlns:inkscape="http://www.inkscape.org/namespaces/inkscape"
   width="512"
   height="512"
   id="svg2"
   version="1.1"
   inkscape:version="0.48.4 r9939"
   sodipodi:docname="banshee_B.svg">
  <defs
     id="defs4" />
  <sodipodi:namedview
     id="base"
     pagecolor="#ffffff"
     bordercolor="#666666"
     borderopacity="1.0"
     inkscape:pageopacity="0.0"
     inkscape:pageshadow="2"
     inkscape:zoom="0.98994949"
     inkscape:cx="343.92232"
     inkscape:cy="292.86236"
     inkscape:document-units="px"
     inkscape:current-layer="layer1"
     showgrid="false"
     inkscape:window-width="1309"
     inkscape:window-height="750"
     inkscape:window-x="55"
     inkscape:window-y="-3"
     inkscape:window-maximized="1" />
  <metadata
     id="metadata7">
    <rdf:RDF>
      <cc:Work
         rdf:about="">
        <dc:format>image/svg+xml</dc:format>
        <dc:type
           rdf:resource="http://purl.org/dc/dcmitype/StillImage" />
        <dc:title></dc:title>
      </cc:Work>
    </rdf:RDF>
  </metadata>
  <g
     inkscape:label="Layer 1"
     inkscape:groupmode="layer"
     id="layer1"
     transform="translate(0,-540.36218)">
    <path
       sodipodi:type="arc"
       style="fill:#6ea6c1;fill-rule:evenodd;stroke:none"
       id="path2985"
       sodipodi:cx="202.85715"
       sodipodi:cy="-316.57144"
       sodipodi:rx="360"
       sodipodi:ry="360"
       d="m 562.85715,-316.57144 c 0,198.82251 -161.17749,359.999998 -360,359.999998 -198.8225127,0 -360,-161.177488 -360,-359.999998 0,-198.82251 161.1774873,-360 360,-360 198.82251,0 360,161.17749 360,360 z"
       transform="matrix(0.69444444,0,0,0.69444444,115.12698,1016.2035)" />
    <path
       style="fill:#99c1c3;fill-rule:evenodd;stroke:none"
       d="M 256 6 C 245.58884 6 235.3271 6.6389689 225.25 7.875 L 244.125 7.875 L 244.125 64.125 L 187.875 64.125 L 187.875 15.375 C 186.61962 15.729758 185.37227 16.126205 184.125 16.5 L 184.125 64.125 L 127.875 64.125 L 127.875 41.3125 C 126.6187 42.063932 125.36689 42.821017 124.125 43.59375 L 124.125 64.125 L 95.75 64.125 C 94.273109 65.35974 92.822659 66.607087 91.375 67.875 L 124.125 67.875 L 124.125 124.125 L 67.875 124.125 L 67.875 91.375 C 66.607087 92.822659 65.35974 94.273109 64.125 95.75 L 64.125 124.125 L 43.59375 124.125 C 42.821017 125.36689 42.063932 126.6187 41.3125 127.875 L 64.125 127.875 L 64.125 184.125 L 16.5 184.125 C 16.126205 185.37227 15.729758 186.61962 15.375 187.875 L 64.125 187.875 L 64.125 244.125 L 7.875 244.125 L 7.875 225.25 C 6.6389689 235.3271 6 245.58884 6 256 C 6 266.41116 6.6389689 276.6729 7.875 286.75 L 7.875 247.875 L 64.125 247.875 L 64.125 304.125 L 10.65625 304.125 C 10.900345 305.37642 11.14356 306.63033 11.40625 307.875 L 64.125 307.875 L 64.125 364.125 L 30.53125 364.125 C 31.134562 365.38068 31.751434 366.63106 32.375 367.875 L 64.125 367.875 L 64.125 416.25 C 65.35974 417.72689 66.607087 419.17734 67.875 420.625 L 67.875 367.875 L 124.125 367.875 L 124.125 424.125 L 70.96875 424.125 C 72.111371 425.38172 73.269823 426.64186 74.4375 427.875 L 124.125 427.875 L 124.125 468.40625 C 125.36689 469.17898 126.6187 469.93607 127.875 470.6875 L 127.875 427.875 L 184.125 427.875 L 184.125 484.125 L 153.625 484.125 C 156.5318 485.43155 159.47301 486.67757 162.4375 487.875 L 184.125 487.875 L 184.125 495.5 C 185.37227 495.87379 186.61962 496.27024 187.875 496.625 L 187.875 487.875 L 244.125 487.875 L 244.125 505.71875 C 245.36732 505.77683 246.628 505.80387 247.875 505.84375 L 247.875 487.875 L 304.125 487.875 L 304.125 501.34375 C 305.37642 501.09966 306.63033 500.85644 307.875 500.59375 L 307.875 487.875 L 349.5625 487.875 C 352.52699 486.67757 355.4682 485.43155 358.375 484.125 L 307.875 484.125 L 307.875 427.875 L 364.125 427.875 L 364.125 481.46875 C 365.38068 480.86544 366.63106 480.24857 367.875 479.625 L 367.875 427.875 L 424.125 427.875 L 424.125 441.03125 C 425.38172 439.88863 426.64186 438.73018 427.875 437.5625 L 427.875 427.875 L 437.5625 427.875 C 438.73018 426.64186 439.88863 425.38172 441.03125 424.125 L 427.875 424.125 L 427.875 367.875 L 479.625 367.875 C 480.24857 366.63106 480.86544 365.38068 481.46875 364.125 L 427.875 364.125 L 427.875 307.875 L 484.125 307.875 L 484.125 358.375 C 485.43155 355.4682 486.67757 352.52699 487.875 349.5625 L 487.875 307.875 L 500.59375 307.875 C 500.85644 306.63033 501.09966 305.37642 501.34375 304.125 L 487.875 304.125 L 487.875 247.875 L 505.84375 247.875 C 505.80387 246.628 505.77683 245.36732 505.71875 244.125 L 487.875 244.125 L 487.875 187.875 L 496.625 187.875 C 496.27024 186.61962 495.87379 185.37227 495.5 184.125 L 487.875 184.125 L 487.875 162.4375 C 486.67757 159.47301 485.43155 156.5318 484.125 153.625 L 484.125 184.125 L 427.875 184.125 L 427.875 127.875 L 470.6875 127.875 C 469.93607 126.6187 469.17898 125.36689 468.40625 124.125 L 427.875 124.125 L 427.875 74.4375 C 426.64186 73.269823 425.38172 72.111371 424.125 70.96875 L 424.125 124.125 L 367.875 124.125 L 367.875 67.875 L 420.625 67.875 C 419.17734 66.607087 417.72689 65.35974 416.25 64.125 L 367.875 64.125 L 367.875 32.375 C 366.63106 31.751434 365.38068 31.134562 364.125 30.53125 L 364.125 64.125 L 307.875 64.125 L 307.875 11.40625 C 306.63033 11.14356 305.37642 10.900345 304.125 10.65625 L 304.125 64.125 L 247.875 64.125 L 247.875 7.875 L 286.75 7.875 C 276.6729 6.6389689 266.41116 6 256 6 z M 127.875 67.875 L 184.125 67.875 L 184.125 124.125 L 127.875 124.125 L 127.875 67.875 z M 187.875 67.875 L 244.125 67.875 L 244.125 124.125 L 187.875 124.125 L 187.875 67.875 z M 247.875 67.875 L 304.125 67.875 L 304.125 124.125 L 247.875 124.125 L 247.875 67.875 z M 307.875 67.875 L 364.125 67.875 L 364.125 124.125 L 307.875 124.125 L 307.875 67.875 z M 67.875 127.875 L 124.125 127.875 L 124.125 184.125 L 67.875 184.125 L 67.875 127.875 z M 127.875 127.875 L 184.125 127.875 L 184.125 184.125 L 127.875 184.125 L 127.875 127.875 z M 187.875 127.875 L 244.125 127.875 L 244.125 184.125 L 187.875 184.125 L 187.875 127.875 z M 247.875 127.875 L 304.125 127.875 L 304.125 184.125 L 247.875 184.125 L 247.875 127.875 z M 307.875 127.875 L 364.125 127.875 L 364.125 184.125 L 307.875 184.125 L 307.875 127.875 z M 367.875 127.875 L 424.125 127.875 L 424.125 184.125 L 367.875 184.125 L 367.875 127.875 z M 67.875 187.875 L 124.125 187.875 L 124.125 244.125 L 67.875 244.125 L 67.875 187.875 z M 127.875 187.875 L 184.125 187.875 L 184.125 244.125 L 127.875 244.125 L 127.875 187.875 z M 187.875 187.875 L 244.125 187.875 L 244.125 244.125 L 187.875 244.125 L 187.875 187.875 z M 247.875 187.875 L 304.125 187.875 L 304.125 244.125 L 247.875 244.125 L 247.875 187.875 z M 307.875 187.875 L 364.125 187.875 L 364.125 244.125 L 307.875 244.125 L 307.875 187.875 z M 367.875 187.875 L 424.125 187.875 L 424.125 244.125 L 367.875 244.125 L 367.875 187.875 z M 427.875 187.875 L 484.125 187.875 L 484.125 244.125 L 427.875 244.125 L 427.875 187.875 z M 67.875 247.875 L 124.125 247.875 L 124.125 304.125 L 67.875 304.125 L 67.875 247.875 z M 127.875 247.875 L 184.125 247.875 L 184.125 304.125 L 127.875 304.125 L 127.875 247.875 z M 187.875 247.875 L 244.125 247.875 L 244.125 304.125 L 187.875 304.125 L 187.875 247.875 z M 247.875 247.875 L 304.125 247.875 L 304.125 304.125 L 247.875 304.125 L 247.875 247.875 z M 307.875 247.875 L 364.125 247.875 L 364.125 304.125 L 307.875 304.125 L 307.875 247.875 z M 367.875 247.875 L 424.125 247.875 L 424.125 304.125 L 367.875 304.125 L 367.875 247.875 z M 427.875 247.875 L 484.125 247.875 L 484.125 304.125 L 427.875 304.125 L 427.875 247.875 z M 67.875 307.875 L 124.125 307.875 L 124.125 364.125 L 67.875 364.125 L 67.875 307.875 z M 127.875 307.875 L 184.125 307.875 L 184.125 364.125 L 127.875 364.125 L 127.875 307.875 z M 187.875 307.875 L 244.125 307.875 L 244.125 364.125 L 187.875 364.125 L 187.875 307.875 z M 247.875 307.875 L 304.125 307.875 L 304.125 364.125 L 247.875 364.125 L 247.875 307.875 z M 307.875 307.875 L 364.125 307.875 L 364.125 364.125 L 307.875 364.125 L 307.875 307.875 z M 367.875 307.875 L 424.125 307.875 L 424.125 364.125 L 367.875 364.125 L 367.875 307.875 z M 127.875 367.875 L 184.125 367.875 L 184.125 424.125 L 127.875 424.125 L 127.875 367.875 z M 187.875 367.875 L 244.125 367.875 L 244.125 424.125 L 187.875 424.125 L 187.875 367.875 z M 247.875 367.875 L 304.125 367.875 L 304.125 424.125 L 247.875 424.125 L 247.875 367.875 z M 307.875 367.875 L 364.125 367.875 L 364.125 424.125 L 307.875 424.125 L 307.875 367.875 z M 367.875 367.875 L 424.125 367.875 L 424.125 424.125 L 367.875 424.125 L 367.875 367.875 z M 187.875 427.875 L 244.125 427.875 L 244.125 484.125 L 187.875 484.125 L 187.875 427.875 z M 247.875 427.875 L 304.125 427.875 L 304.125 484.125 L 247.875 484.125 L 247.875 427.875 z "
       transform="translate(0,540.36218)"
       id="path3006" />
    <path
       style="fill:#fff8eb;fill-rule:evenodd;stroke:none"
       d="m 256,564.54493 c -128.02914,0 -231.817254,103.78811 -231.817254,231.81725 0,128.02914 103.788114,231.81722 231.817254,231.81722 128.02914,0 231.81725,-103.78808 231.81725,-231.81722 C 487.81725,668.33304 384.02914,564.54493 256,564.54493 z m 0,28.10784 c 112.50966,0 203.70941,91.19975 203.70941,203.70941 0,112.50966 -91.19975,203.70942 -203.70941,203.70942 -112.50966,0 -203.709412,-91.19976 -203.709412,-203.70942 0,-112.50966 91.199752,-203.70941 203.709412,-203.70941 z"
       id="path2994"
       inkscape:connector-curvature="0" />
    <g
       id="g3796"
       transform="matrix(0.82725514,0,0,0.82725514,-731.98821,182.80799)"
       style="fill:#fff8eb">
      <path
         id="path3786"
         transform="translate(0,540.36218)"
         d="m 1194.2812,72.71875 c -3.844,0 -7.6623,0.16739 -11.4374,0.4375 l 0,35.0625 c 3.7652,-0.34752 7.5815,-0.53125 11.4374,-0.53125 67.8605,0 122.875,55.01466 122.875,122.875 0,67.86034 -55.0145,122.875 -122.875,122.875 -67.8602,0 -122.8748,-55.01466 -122.875,-122.875 0,-15.0676 2.7246,-29.50437 7.6876,-42.84375 l -36.75,0 c -3.8328,13.6239 -5.9063,27.99365 -5.9063,42.84375 0,87.18209 70.6618,157.875 157.8437,157.875 87.1821,0 157.875,-70.69291 157.875,-157.875 0,-87.18209 -70.6929,-157.84375 -157.875,-157.84375 z"
         style="fill:#fff8eb;fill-rule:evenodd;stroke:none"
         inkscape:connector-curvature="0" />
      <path
         id="path2999"
         transform="translate(0,540.36218)"
         d="m 1122.1562,14.1875 c -1.611,0 -3.1566,0.282524 -4.5937,0.78125 -3.2324,0.945522 -6.4648,2.80676 -9.25,5.5625 L 1059.2188,69.125 c -7.1637,7.087944 -8.5523,17.202259 -3.125,22.6875 5.4272,5.485241 15.5551,4.212944 22.7187,-2.875 l 29.4063,-29.09375 0,160 c 0,0.82218 0.083,1.62392 0.2187,2.40625 -0.3458,3.12067 -0.5313,6.28711 -0.5313,9.5 2e-4,47.13481 38.209,85.34375 85.3438,85.34375 47.1348,0 85.3438,-38.20894 85.3438,-85.34375 0,-47.13481 -38.209,-85.34375 -85.3438,-85.34375 -22.0063,0 -42.0526,8.32279 -57.1875,22 l 0,-140.3125 c 0,-5.591274 -3.2679,-10.373129 -8,-12.59375 -0.5689,-0.27833 -1.1679,-0.502399 -1.7813,-0.6875 -0.022,-0.0068 -0.04,-0.02454 -0.062,-0.03125 -0.1225,-0.03619 -0.2511,-0.06123 -0.375,-0.09375 -1.18,-0.322868 -2.4024,-0.5 -3.6876,-0.5 z M 1193.25,178.75 c 29.2823,0 53.0312,23.71772 53.0312,53 0,29.28228 -23.7489,53.03125 -53.0312,53.03125 -29.2823,0 -53.0314,-23.74897 -53.0312,-53.03125 0,-29.28228 23.7489,-53 53.0312,-53 z"
         style="fill:#fff8eb;fill-rule:evenodd;stroke:none"
         inkscape:connector-curvature="0" />
    </g>
  </g>
</svg>
