<svg xmlns="http://www.w3.org/2000/svg" width="512" height="512">
 <path d="m 562.85715 -316.57144 c 0 198.82251 -161.17749 360 -360 360 -198.82251 0 -360 -161.17749 -360 -360 0 -198.82251 161.17749 -360 360 -360 198.82251 0 360 161.17749 360 360 z" transform="matrix(0.69444444 0 0 0.69444444 115.12698 475.84132)" fill="#8db173" fill-rule="evenodd"/>
 <path d="m 472.81979 256.00004 a 216.81979 216.81979 0 0 1 -433.63959 0 216.81979 216.81979 0 1 1 433.63959 0 z" fill="none" stroke="#fff8eb" stroke-width="26.12304"/>
 <path d="m 108.97713 228.35129 -2.92569 1.69042 c -4.08882 2.34187 -6.603326 6.18699 -6.956735 10.66261 -0.213183 2.69978 3.191295 21.61848 13.566655 75.37514 7.61939 39.47768 14.04608 72.90747 14.28187 74.26987 0.46853 2.70707 2.92118 6.4237 5.35295 8.12699 4.20443 2.94489 0.89344 2.86302 124.7439 2.709 l 118.24231 -0.15171 2.94739 -1.66874 c 3.8986 -2.23301 6.24846 -5.80371 7.15175 -10.83599 0.40737 -2.26981 6.83649 -35.65907 14.28187 -74.18318 10.14311 -52.48619 13.45549 -70.94016 13.24154 -73.64138 -0.35452 -4.4757 -2.84717 -8.32117 -6.93503 -10.66261 l -2.94739 -1.69042 -147.0227 0 -147.02269 0 z m 57.45238 37.25413 c 0.74912 -0.0474 1.51759 0.16257 2.77401 0.60682 1.52342 0.53851 3.4069 1.87074 4.20443 2.94739 1.4282 1.92855 1.4608 2.57654 1.64707 44.18916 0.2041 45.65988 0.19529 45.69009 -3.46751 48.09012 -4.25659 2.78901 -9.57909 1.4127 -11.81127 -3.05575 -1.11397 -2.2299 -1.21363 -5.81061 -1.21363 -44.03746 0 -46.90607 -0.18946 -45.1869 5.1363 -47.78671 1.23221 -0.60157 1.98154 -0.90621 2.7306 -0.95357 z m 45.77121 0 c 0.74912 -0.0474 1.5176 0.16257 2.77402 0.60682 1.52335 0.53851 3.4069 1.87074 4.20443 2.94739 1.4282 1.92855 1.46079 2.57654 1.64707 44.18916 0.2041 45.65988 0.19529 45.69009 -3.46752 48.09012 -4.25658 2.78901 -9.57908 1.4127 -11.81126 -3.05575 -1.11397 -2.2299 -1.21363 -5.81061 -1.21363 -44.03746 0 -46.90607 -0.18947 -45.1869 5.13629 -47.78671 1.23222 -0.60157 1.98155 -0.90621 2.7306 -0.95357 z m 42.99721 0 c 0.74912 -0.0474 1.51759 0.16257 2.77401 0.60682 1.52328 0.53851 3.4069 1.87074 4.20443 2.94739 1.4282 1.92855 1.4608 2.57654 1.64707 44.18916 0.20417 45.65988 0.19529 45.69009 -3.46751 48.09012 -4.25659 2.78901 -9.57909 1.4127 -11.81127 -3.05575 -1.11397 -2.2299 -1.21363 -5.81061 -1.21363 -44.03746 0 -46.90607 -0.18946 -45.1869 5.1363 -47.78671 1.23221 -0.60157 1.98154 -0.90621 2.7306 -0.95357 z m 45.07771 0 c 0.74912 -0.0474 1.51759 0.16257 2.77401 0.60682 1.52321 0.53851 3.40691 1.87074 4.20444 2.94739 1.4282 1.92855 1.46079 2.57654 1.64707 44.18916 0.20423 45.65988 0.19529 45.69009 -3.46752 48.09012 -4.25658 2.78901 -9.57908 1.4127 -11.81126 -3.05575 -1.11398 -2.2299 -1.21363 -5.81061 -1.21363 -44.03746 0 -46.90607 -0.18947 -45.1869 5.13629 -47.78671 1.23222 -0.60157 1.98155 -0.90621 2.7306 -0.95357 z m 45.07771 0 c 0.74913 -0.0474 1.5176 0.16257 2.77402 0.60682 1.52314 0.53851 3.40697 1.87074 4.20443 2.94739 1.42827 1.92855 1.4608 2.57654 1.64707 44.18916 0.20431 45.65988 0.19536 45.69009 -3.46752 48.09012 -4.25658 2.78901 -9.57908 1.4127 -11.81126 -3.05575 -1.11397 -2.2299 -1.21363 -5.81061 -1.21363 -44.03746 0 -46.90607 -0.18939 -45.1869 5.13629 -47.78671 1.23222 -0.60157 1.98155 -0.90621 2.7306 -0.95357 z" fill="#cd1d31"/>
 <path d="m 149.85422 219.06597 c 0.21249 -0.34384 2.57713 -14.29355 5.25475 -30.99933 3.73382 -23.2955 5.25952 -31.2285 6.54674 -34.04013 2.18349 -4.76953 7.69559 -10.22694 12.69659 -12.57074 3.92238 -1.83829 4.21129 -1.86729 20.74171 -2.08184 l 16.76398 -0.21758 1.18416 2.49552 c 1.4764 3.11117 5.11389 6.16598 8.57801 7.20386 3.68826 1.10503 65.76984 1.10503 69.4581 0 3.4644 -1.03796 7.10168 -4.09274 8.57829 -7.20456 l 1.18457 -2.49622 16.41682 0.21828 16.41689 0.21828 4.15214 2.03864 c 5.21584 2.56085 10.34326 7.63674 12.52231 12.39636 1.28721 2.81163 2.81285 10.74463 6.54667 34.04013 2.67762 16.70578 5.04226 30.65549 5.25475 30.99933 0.64759 1.04778 14.85116 0.78267 15.26081 -0.28484 0.55765 -1.45323 -9.26451 -62.05484 -10.90464 -67.28049 -3.16009 -10.06817 -10.96339 -18.93889 -21.04249 -23.92097 -7.0453 -3.48246 -8.74604 -3.74691 -27.022 -4.20155 l -17.3129 -0.43069 -0.69281 -2.42013 c -0.93512 -3.26692 -5.62417 -7.81098 -9.14599 -8.86327 -4.05859 -1.21269 -65.82428 -1.21269 -69.88294 0 -3.52182 1.0523 -8.21087 5.59637 -9.14599 8.86327 l -0.69274 2.42013 -15.92596 0.44496 c -8.75929 0.24473 -17.94765 0.81751 -20.41861 1.27285 -13.8177 2.54627 -26.69633 14.75689 -30.44486 28.86574 -1.24754 4.69536 -10.55193 64.29707 -10.18618 65.25015 0.40966 1.06751 14.6133 1.33262 15.26082 0.28484 z" fill="#fff8eb"/>
 <path d="m 256.34375 112.83983 c -33.53636 0 -33.64283 0.0181 -36.34375 1.5625 -3.18644 1.82209 -4.98849 4.04651 -6.28125 7.8125 l -0.9375 2.75 -1.75 0.0312 0 12.09375 1.6875 0 1.1875 2.15625 c 2.07171 3.76825 3.65644 5.47215 6.40625 6.875 2.55812 1.30516 4.21367 1.375 36.03125 1.375 31.81759 0 33.47312 -0.0699 36.03125 -1.375 2.74981 -1.40285 4.33455 -3.10675 6.40625 -6.875 l 1.1875 -2.15625 1 0 0 -12.09375 -1.0625 -0.0312 -0.9375 -2.75 c -1.2931 -3.76613 -3.09487 -5.99046 -6.28125 -7.8125 -2.70091 -1.54398 -2.80739 -1.5625 -36.34375 -1.5625 z" fill="#cd1d31" fill-rule="evenodd" stroke="#cd1d31" stroke-width="4.4"/>
</svg>
