<svg xmlns="http://www.w3.org/2000/svg" xmlns:xlink="http://www.w3.org/1999/xlink" width="512" height="512">
 <defs>
  <linearGradient id="0">
   <stop stop-color="#f89942"/>
   <stop offset="1" stop-color="#f38725"/>
  </linearGradient>
  <radialGradient xlink:href="#0" id="1" cx="202.85715" cy="-316.57144" r="360" gradientUnits="userSpaceOnUse"/>
 </defs>
 <g transform="translate(0,-540.36218)">
  <path d="m 562.85715 -316.57144 c 0 198.82251 -161.17749 360 -360 360 -198.82251 0 -360 -161.17749 -360 -360 0 -198.82251 161.17749 -360 360 -360 198.82251 0 360 161.17749 360 360 z" transform="matrix(0.69444444,0,0,0.69444444,115.12698,1016.2035)" fill="url(#1)" fill-rule="evenodd"/>
  <g transform="matrix(0.82692804,0.47742713,-0.47742713,0.82692804,458.21756,34.874149)">
   <g transform="matrix(0.80661518,0,0,0.80661518,49.506515,154.00436)">
    <path d="m 256 104.5625 c -83.63169 0 -151.4375 67.80581 -151.4375 151.4375 0 83.63169 67.80581 151.4375 151.4375 151.4375 83.63169 0 151.4375 -67.80581 151.4375 -151.4375 0 -83.63169 -67.80581 -151.4375 -151.4375 -151.4375 z m 0 74.75 c 42.3477 0 76.6875 34.3398 76.6875 76.6875 0 42.3477 -34.3398 76.6875 -76.6875 76.6875 -42.3477 0 -76.6875 -34.3398 -76.6875 -76.6875 0 -42.3477 34.3398 -76.6875 76.6875 -76.6875 z" transform="translate(0,540.36218)" fill="#fff8eb" fill-rule="evenodd"/>
    <path d="m 562.85715 -316.57144 c 0 198.82251 -161.17749 360 -360 360 -198.82251 0 -360 -161.17749 -360 -360 0 -198.82251 161.17749 -360 360 -360 198.82251 0 360 161.17749 360 360 z" transform="matrix(0.140037,0,0,0.140037,227.59249,840.69393)" fill="#fff8eb" fill-rule="evenodd"/>
   </g>
   <path transform="translate(0,540.36218)" d="m 86.8125 133.84375 c -13.151176 0 -23.75 8.40172 -23.75 18.84375 0 10.44203 10.598824 18.84375 23.75 18.84375 l 39.40625 0 92.15625 0 39.375 0 c 13.15118 0 23.75 -8.40172 23.75 -18.84375 0 -10.44203 -10.59882 -18.84375 -23.75 -18.84375 l -39.375 0 -92.15625 0 -39.40625 0 z" fill="#fff8eb" fill-rule="evenodd"/>
   <path transform="translate(0,540.36218)" d="m 148.625 232.09375 c -9.60103 0.24755 -17.97949 9.51446 -19.21875 21.78125 l -2.75 27.15625 c -0.0298 0.23844 -0.0694 0.47796 -0.0937 0.71875 L 113.3438 412.625 c -1.32187 13.08457 5.9546 24.45043 16.34375 25.5 10.38915 1.04957 19.83438 -8.63418 21.15625 -21.71875 l 2.75 -27.09375 c 0.0318 -0.25164 0.0681 -0.49574 0.0937 -0.75 l 13.21875 -130.90625 c 1.32187 -13.08457 -5.9546 -24.45043 -16.34375 -25.5 -0.64932 -0.0656 -1.29743 -0.079 -1.9375 -0.0625 z" fill="#fff8eb" fill-rule="evenodd"/>
   <path transform="translate(0,540.36218)" d="m 211.0625 139.25 c -6.0337 0.11406 -12.58165 2.89415 -17.8125 8.125 l -93.03125 93.03125 c -0.234611 0.23461 -0.431533 0.47904 -0.65625 0.71875 L 53.375 287.3125 c -9.299286 9.29929 -10.821134 22.74137 -3.4375 30.125 7.383634 7.38363 20.794464 5.83054 30.09375 -3.46875 L 173.0625 220.9375 c 0.28533 -0.28533 0.54181 -0.58219 0.8125 -0.875 l 46.03125 -46.03125 c 9.29929 -9.29929 10.85238 -22.71012 3.46875 -30.09375 -3.23034 -3.23034 -7.61963 -4.77621 -12.3125 -4.6875 z" fill="#fff8eb" fill-rule="evenodd"/>
  </g>
  <path d="m 231.125 547.58093 c -48.24782 4.7658 -92.45421 23.2545 -128.6875 51.5 l 307.125 0.00001 C 373.32921 570.83543 329.12282 552.34673 280.875 547.58093 l -49.75 0 z m -184.09375 111.5 c -10.528464 15.99351 -19.26662 33.26052 -25.937502 51.53125 l 469.8125 0 c -6.6709 -18.27072 -15.40904 -35.53774 -25.9375 -51.53124 l -417.9375 -0.00001 z M 7.312498 770.61218 c -0.866206 8.46549 -1.3125 17.05577 -1.312502 25.75 -0.000002 8.69423 0.446296 17.28451 1.312498 25.75 l 497.375 0 C 505.5537 813.64669 506 805.05641 506 796.36218 c 0 -8.69423 -0.4463 -17.28451 -1.3125 -25.74999 l -497.375 -0.00001 z m 13.781247 111.5 c 6.670888 18.27073 15.409045 35.53774 25.937499 51.53125 l 417.9375 0 c 10.52844 -15.99355 19.26664 -33.26048 25.9375 -51.53125 l -469.8125 0 z m 81.34374 111.53125 c 36.2333 28.24547 80.43969 46.73417 128.6875 51.49997 l 49.75003 0.0001 c 48.24781 -4.7658 92.4542 -23.2546 128.68747 -51.50007 l -307.125 0 z" opacity="0.15" fill="#fff8eb" fill-rule="evenodd"/>
  <path d="m 256 558.48401 c -131.37649 0 -237.87817 106.50168 -237.87817 237.87817 0 131.37649 106.50168 237.87812 237.87817 237.87812 131.37649 0 237.87817 -106.50163 237.87817 -237.87812 C 493.87817 664.98569 387.37649 558.48401 256 558.48401 z m 0 24.97721 c 117.57462 0 212.90096 95.32634 212.90096 212.90096 0 117.57462 -95.32634 212.90092 -212.90096 212.90092 -117.57462 0 -212.90096 -95.3263 -212.90096 -212.90092 0 -117.57462 95.32634 -212.90096 212.90096 -212.90096 z" fill="#fff8eb" fill-rule="evenodd"/>
 </g>
</svg>
