<?xml version="1.0" encoding="UTF-8" standalone="no"?>
<!-- Created with Inkscape (http://www.inkscape.org/) -->

<svg
   xmlns:dc="http://purl.org/dc/elements/1.1/"
   xmlns:cc="http://creativecommons.org/ns#"
   xmlns:rdf="http://www.w3.org/1999/02/22-rdf-syntax-ns#"
   xmlns:svg="http://www.w3.org/2000/svg"
   xmlns="http://www.w3.org/2000/svg"
   xmlns:sodipodi="http://sodipodi.sourceforge.net/DTD/sodipodi-0.dtd"
   xmlns:inkscape="http://www.inkscape.org/namespaces/inkscape"
   width="512"
   height="512"
   id="svg2"
   version="1.1"
   inkscape:version="0.48.4 r9939"
   sodipodi:docname="calibre.svg">
  <defs
     id="defs4" />
  <sodipodi:namedview
     id="base"
     pagecolor="#ffffff"
     bordercolor="#666666"
     borderopacity="1.0"
     inkscape:pageopacity="0.0"
     inkscape:pageshadow="2"
     inkscape:zoom="0.98994949"
     inkscape:cx="314.69446"
     inkscape:cy="269.53476"
     inkscape:document-units="px"
     inkscape:current-layer="layer1"
     showgrid="false"
     inkscape:window-width="1309"
     inkscape:window-height="750"
     inkscape:window-x="55"
     inkscape:window-y="-3"
     inkscape:window-maximized="1" />
  <metadata
     id="metadata7">
    <rdf:RDF>
      <cc:Work
         rdf:about="">
        <dc:format>image/svg+xml</dc:format>
        <dc:type
           rdf:resource="http://purl.org/dc/dcmitype/StillImage" />
        <dc:title />
      </cc:Work>
    </rdf:RDF>
  </metadata>
  <g
     inkscape:label="Layer 1"
     inkscape:groupmode="layer"
     id="layer1"
     transform="translate(0,-540.36218)">
    <path
       sodipodi:type="arc"
       style="fill:#9a3034;fill-rule:evenodd;stroke:none"
       id="path2985"
       sodipodi:cx="202.85715"
       sodipodi:cy="-316.57144"
       sodipodi:rx="360"
       sodipodi:ry="360"
       d="m 562.85715,-316.57144 c 0,198.82251 -161.17749,359.999998 -360,359.999998 -198.8225127,0 -360,-161.177488 -360,-359.999998 0,-198.82251 161.1774873,-360 360,-360 198.82251,0 360,161.17749 360,360 z"
       transform="matrix(0.69444444,0,0,0.69444444,115.12698,1016.2035)" />
    <rect
       style="fill:#ffffff;fill-opacity:1;fill-rule:evenodd;stroke:none"
       id="rect2994"
       width="58.23563"
       height="211.17767"
       x="122.31338"
       y="695.74872" />
    <rect
       style="fill:#ffffff;fill-opacity:1;fill-rule:evenodd;stroke:none"
       id="rect2996"
       width="54.905075"
       height="177.60962"
       x="183.291"
       y="729.36499" />
    <rect
       style="fill:#ffffff;fill-opacity:1;fill-rule:evenodd;stroke:none"
       id="rect2998"
       width="22.877117"
       height="194.24751"
       x="172.10538"
       y="735.58508"
       transform="matrix(0.99577862,-0.09178749,0.09178749,0.99577862,0,0)" />
    <rect
       transform="matrix(0.99234042,-0.12353334,0.12353334,0.99234042,0,0)"
       y="742.59058"
       x="171.50493"
       height="194.24751"
       width="22.877115"
       id="rect3000"
       style="fill:#ffffff;fill-opacity:1;fill-rule:evenodd;stroke:none" />
    <rect
       style="fill:#ffffff;fill-opacity:1;fill-rule:evenodd;stroke:none"
       id="rect3004"
       width="30.780119"
       height="225.02763"
       x="155.41301"
       y="727.75494"
       transform="matrix(0.98454665,-0.17512252,0.17512252,0.98454665,0,0)" />
    <rect
       style="fill:#ffffff;fill-opacity:1;fill-rule:evenodd;stroke:none"
       id="rect3006"
       width="51.993446"
       height="147.24544"
       x="111.68919"
       y="822.00946"
       transform="matrix(0.96423959,-0.26503211,0.26503211,0.96423959,0,0)" />
    <path
       style="fill:#fff8eb;fill-rule:evenodd;stroke:none"
       d="m 256,572.07647 c -123.86958,0 -224.285714,100.41613 -224.285714,224.28571 0,123.86958 100.416134,224.28572 224.285714,224.28572 123.86958,0 224.28571,-100.41614 224.28571,-224.28572 C 480.28571,672.4926 379.86958,572.07647 256,572.07647 z m 0,28.20392 c 108.29741,0 196.08179,87.78438 196.08179,196.08179 0,108.29741 -87.78438,196.08179 -196.08179,196.08179 -108.29741,0 -196.081786,-87.78438 -196.081786,-196.08179 0,-108.29741 87.784376,-196.08179 196.081786,-196.08179 z"
       id="path2998"
       inkscape:connector-curvature="0" />
  </g>
</svg>
