<svg xmlns="http://www.w3.org/2000/svg" xmlns:xlink="http://www.w3.org/1999/xlink" width="512" height="512">
 <defs>
  <linearGradient id="0">
   <stop stop-color="#53b2dc"/>
   <stop offset="1" stop-color="#0078ad"/>
  </linearGradient>
  <radialGradient xlink:href="#0" id="1" cx="202.85715" cy="-316.57144" r="360" gradientUnits="userSpaceOnUse"/>
 </defs>
 <path d="m 562.85715 -316.57144 c 0 198.82251 -161.17749 360 -360 360 -198.82251 0 -360 -161.17749 -360 -360 0 -198.82251 161.17749 -360 360 -360 198.82251 0 360 161.17749 360 360 z" transform="matrix(0.69444444 0 0 0.69444444 115.12698 475.84132)" fill="url(#1)" fill-rule="evenodd"/>
 <path d="m 469.21414 256.00004 a 213.21415 213.21415 0 0 1 -426.42829 0 213.21415 213.21415 0 1 1 426.42829 0 z" fill="none" stroke="#fff8eb" stroke-width="20"/>
 <path d="m 188.04779 132.46615 c 2.11048 0.22135 4.17735 1.41198 5.7616 3.18583 4.22466 4.73022 7.57624 13.70613 12.20103 28.808 4.3119 14.08065 9.37754 27.60714 13.82784 37.4843 2.22517 4.93859 4.27163 8.96651 5.96496 11.65877 0.84667 1.34612 1.64261 2.3627 2.16907 2.91469 0.0345 -0.0252 0.0327 -0.0384 0.0677 -0.0677 0.59387 -0.49845 1.44511 -1.29561 2.37243 -2.37242 1.85464 -2.15363 4.08645 -5.23567 6.1683 -8.60851 12.47942 -20.21824 34.2108 -42.50414 50.2276 -51.041 19.52819 -10.40835 35.91033 -11.58424 52.80338 -3.59253 16.68466 7.8931 31.15082 21.55733 40.26342 38.09435 3.25688 5.91016 5.18174 8.98508 6.64279 10.30309 1.46104 1.31802 2.47808 1.46211 5.7616 1.55903 5.41311 0.15986 9.99359 0.92072 13.42114 2.16907 1.71378 0.62417 3.16494 1.3735 4.33814 2.44021 1.17321 1.0667 2.03351 2.61865 2.03351 4.33814 0 1.53738 -0.56348 2.20018 -1.15232 3.11804 -0.58884 0.91787 -1.32231 1.87803 -2.23686 2.9147 -1.82911 2.07333 -4.28496 4.433 -6.9817 6.64278 l -8.40516 6.91392 0.88119 19.86058 c 1.23724 27.29109 -3.14603 48.86764 -14.70903 72.32504 -15.3016 31.04076 -38.00986 48.40124 -72.79952 55.65028 -9.21162 1.91941 -22.36625 2.78735 -33.14615 2.23686 -43.15512 -2.20378 -77.83897 -19.22341 -101.53974 -50.02425 l -8.81186 -11.45542 -15.92913 -1.35567 c -10.04437 -0.87618 -20.36723 -2.41509 -28.67244 -4.20258 -4.1526 -0.89375 -7.82257 -1.89204 -10.7098 -2.84691 -2.88723 -0.95487 -4.91074 -1.58926 -6.50722 -3.18583 -1.465945 -1.46588 -1.532123 -3.32477 -1.355669 -5.01598 0.176559 -1.6912 0.680399 -3.50999 1.423459 -5.49046 1.48614 -3.96095 3.91359 -8.59457 6.71057 -13.08223 2.79697 -4.48766 5.97998 -8.81988 9.01521 -12.13325 1.51761 -1.6567 2.99972 -3.0713 4.47371 -4.1348 1.47399 -1.06349 2.92762 -1.89794 4.81263 -1.89794 1.85746 0 2.43535 0.71398 3.45696 1.42346 1.02161 0.70948 2.15782 1.63086 3.45696 2.77912 2.59829 2.29651 5.71822 5.41095 9.083 8.94743 6.72955 7.07296 14.2171 15.77437 18.97939 22.50414 1.60311 2.26531 3.39577 4.31814 4.94819 5.7616 0.77621 0.72173 1.52345 1.30137 2.03351 1.6268 0.092 0.0586 -0.0108 0.0295 0.0677 0.0677 0.213 -0.17982 0.42928 -0.29641 0.74561 -0.61006 0.94696 -0.93886 2.19172 -2.41814 3.66032 -4.20258 2.9372 -3.56886 6.60992 -8.46122 10.16753 -13.48892 3.5576 -5.02769 7.02016 -10.20039 9.55748 -14.37011 1.26866 -2.08485 2.29223 -3.96621 2.98247 -5.3549 0.41943 -0.84385 0.48607 -0.85624 0.61005 -1.2201 -0.21985 -0.0813 -0.25445 -0.12039 -0.61005 -0.20324 -1.56603 -0.36593 -4.26477 -0.66279 -7.86289 -0.67784 -14.94003 -0.0625 -28.19648 -5.92307 -37.75543 -16.81032 -5.25467 -5.98469 -7.99752 -11.81418 -7.32062 -17.42037 0.6769 -5.60618 4.82553 -10.23286 11.31985 -13.69227 1.82809 -0.97376 3.0549 -2.81318 3.38918 -4.47371 0.33427 -1.66054 -0.0944 -2.77729 -1.08454 -3.38918 -1.81391 -1.12107 -2.87853 -2.81181 -4.1348 -4.9482 -1.25626 -2.13639 -2.47578 -4.71509 -3.59252 -7.45619 -2.2335 -5.4822 -4.03522 -11.34813 -4.06702 -15.72578 -0.0564 -7.77077 3.33294 -14.01722 8.40516 -16.94588 5.07223 -2.92867 11.84444 -2.01603 16.67475 3.32139 1.43578 1.58648 2.4704 2.34648 3.11805 2.77912 0.18241 -0.48038 0.47912 -1.16362 0.67783 -2.98247 0.25317 -2.3174 0.4067 -5.55623 0.4067 -9.76083 0 -6.423 0.19066 -10.79125 0.88119 -14.23454 0.69048 -3.4433 1.95943 -6.02988 3.86366 -8.13403 2.38158 -2.63161 4.65346 -4.49911 7.45619 -5.08376 0.70067 -0.1462 1.39779 -0.20932 2.10129 -0.13557 z m 140.17635 59.51395 c -9.76044 0 -17.6915 7.93106 -17.6915 17.6915 0 9.76044 7.93106 17.6915 17.6915 17.6915 9.76044 0 17.62372 -7.93106 17.62372 -17.6915 0 -9.76044 -7.86328 -17.6915 -17.62372 -17.6915 z" fill="#fff8eb"/>
</svg>
