<?xml version="1.0" encoding="UTF-8" standalone="no"?>
<!-- Created with Inkscape (http://www.inkscape.org/) -->

<svg
   xmlns:dc="http://purl.org/dc/elements/1.1/"
   xmlns:cc="http://creativecommons.org/ns#"
   xmlns:rdf="http://www.w3.org/1999/02/22-rdf-syntax-ns#"
   xmlns:svg="http://www.w3.org/2000/svg"
   xmlns="http://www.w3.org/2000/svg"
   xmlns:sodipodi="http://sodipodi.sourceforge.net/DTD/sodipodi-0.dtd"
   xmlns:inkscape="http://www.inkscape.org/namespaces/inkscape"
   width="512"
   height="512"
   id="svg2"
   version="1.1"
   inkscape:version="0.48.4 r9939"
   sodipodi:docname="chrome-eemlkeanncmjljgehlbplemhmdmalhdc-Default.svg">
  <defs
     id="defs4" />
  <sodipodi:namedview
     id="base"
     pagecolor="#ffffff"
     bordercolor="#666666"
     borderopacity="1.0"
     inkscape:pageopacity="0.0"
     inkscape:pageshadow="2"
     inkscape:zoom="1.4"
     inkscape:cx="318.02891"
     inkscape:cy="273.66458"
     inkscape:document-units="px"
     inkscape:current-layer="layer1"
     showgrid="false"
     inkscape:window-width="1309"
     inkscape:window-height="750"
     inkscape:window-x="55"
     inkscape:window-y="-3"
     inkscape:window-maximized="1" />
  <metadata
     id="metadata7">
    <rdf:RDF>
      <cc:Work
         rdf:about="">
        <dc:format>image/svg+xml</dc:format>
        <dc:type
           rdf:resource="http://purl.org/dc/dcmitype/StillImage" />
        <dc:title />
      </cc:Work>
    </rdf:RDF>
  </metadata>
  <g
     inkscape:label="Layer 1"
     inkscape:groupmode="layer"
     id="layer1"
     transform="translate(0,-540.36218)">
    <path
       sodipodi:type="arc"
       style="fill:#282629;fill-rule:evenodd;stroke:none"
       id="path2985"
       sodipodi:cx="202.85715"
       sodipodi:cy="-316.57144"
       sodipodi:rx="360"
       sodipodi:ry="360"
       d="m 562.85715,-316.57144 a 360,360 0 1 1 -720,0 360,360 0 1 1 720,0 z"
       transform="matrix(0.69444444,0,0,0.69444444,115.12698,1016.2035)" />
    <path
       style="font-size:medium;font-style:normal;font-variant:normal;font-weight:normal;font-stretch:normal;text-indent:0;text-align:start;text-decoration:none;line-height:normal;letter-spacing:normal;word-spacing:normal;text-transform:none;direction:ltr;block-progression:tb;writing-mode:lr-tb;text-anchor:start;baseline-shift:baseline;color:#000000;fill:#707175;fill-opacity:1;fill-rule:evenodd;stroke:none;stroke-width:3pt;marker:none;visibility:visible;display:inline;overflow:visible;enable-background:accumulate;font-family:Sans;-inkscape-font-specification:Sans"
       d="M 248.8125 33.28125 C 247.5613 33.320922 246.30841 33.346033 245.0625 33.40625 L 245.0625 65.0625 L 188.8125 65.0625 L 188.8125 43.4375 C 187.55379 43.83496 186.31145 44.237157 185.0625 44.65625 L 185.0625 65.0625 L 141 65.0625 C 138.98739 66.277262 137.00168 67.536551 135.03125 68.8125 L 185.0625 68.8125 L 185.0625 125.0625 L 128.8125 125.0625 L 128.8125 73 C 127.5545 73.876027 126.3014 74.755129 125.0625 75.65625 L 125.0625 125.0625 L 75.65625 125.0625 C 74.755129 126.3014 73.876027 127.5545 73 128.8125 L 125.0625 128.8125 L 125.0625 185.0625 L 68.8125 185.0625 L 68.8125 135.03125 C 67.536551 137.00168 66.277262 138.98739 65.0625 141 L 65.0625 185.0625 L 44.65625 185.0625 C 44.237157 186.31145 43.83496 187.55379 43.4375 188.8125 L 65.0625 188.8125 L 65.0625 245.0625 L 33.40625 245.0625 C 33.346033 246.30841 33.320922 247.5613 33.28125 248.8125 L 65.0625 248.8125 L 65.0625 305.0625 L 38.5625 305.0625 C 38.844545 306.31803 39.134362 307.56509 39.4375 308.8125 L 65.0625 308.8125 L 65.0625 365.0625 L 61.625 365.0625 C 62.331301 366.31854 63.051457 367.57169 63.78125 368.8125 L 65.0625 368.8125 L 65.0625 371 C 66.277262 373.01261 67.536551 374.99832 68.8125 376.96875 L 68.8125 368.8125 L 125.0625 368.8125 L 125.0625 425.0625 L 110.8125 425.0625 C 112.29098 426.33329 113.80069 427.58021 115.3125 428.8125 L 125.0625 428.8125 L 125.0625 436.34375 C 126.3014 437.24487 127.5545 438.12397 128.8125 439 L 128.8125 428.8125 L 185.0625 428.8125 L 185.0625 467.34375 C 186.31145 467.76284 187.55379 468.16504 188.8125 468.5625 L 188.8125 428.8125 L 245.0625 428.8125 L 245.0625 478.59375 C 246.30841 478.65397 247.5613 478.67908 248.8125 478.71875 L 248.8125 428.8125 L 305.0625 428.8125 L 305.0625 473.4375 C 306.31803 473.15546 307.56509 472.86564 308.8125 472.5625 L 308.8125 428.8125 L 365.0625 428.8125 L 365.0625 450.375 C 366.31854 449.6687 367.57169 448.94854 368.8125 448.21875 L 368.8125 428.8125 L 396.6875 428.8125 C 398.19931 427.58021 399.70902 426.33329 401.1875 425.0625 L 368.8125 425.0625 L 368.8125 368.8125 L 425.0625 368.8125 L 425.0625 401.1875 C 426.33329 399.70902 427.58021 398.19931 428.8125 396.6875 L 428.8125 368.8125 L 448.21875 368.8125 C 448.94854 367.57169 449.6687 366.31854 450.375 365.0625 L 428.8125 365.0625 L 428.8125 308.8125 L 472.5625 308.8125 C 472.86564 307.56509 473.15546 306.31803 473.4375 305.0625 L 428.8125 305.0625 L 428.8125 248.8125 L 478.71875 248.8125 C 478.67908 247.5613 478.65397 246.30841 478.59375 245.0625 L 428.8125 245.0625 L 428.8125 188.8125 L 468.5625 188.8125 C 468.16504 187.55379 467.76284 186.31145 467.34375 185.0625 L 428.8125 185.0625 L 428.8125 128.8125 L 439 128.8125 C 438.12397 127.5545 437.24487 126.3014 436.34375 125.0625 L 428.8125 125.0625 L 428.8125 115.3125 C 427.58021 113.80069 426.33329 112.29098 425.0625 110.8125 L 425.0625 125.0625 L 368.8125 125.0625 L 368.8125 68.8125 L 376.96875 68.8125 C 374.99832 67.536551 373.01261 66.277262 371 65.0625 L 368.8125 65.0625 L 368.8125 63.78125 C 367.57169 63.051457 366.31854 62.331301 365.0625 61.625 L 365.0625 65.0625 L 308.8125 65.0625 L 308.8125 39.4375 C 307.56509 39.134362 306.31803 38.844545 305.0625 38.5625 L 305.0625 65.0625 L 248.8125 65.0625 L 248.8125 33.28125 z M 188.8125 68.8125 L 245.0625 68.8125 L 245.0625 125.0625 L 188.8125 125.0625 L 188.8125 68.8125 z M 248.8125 68.8125 L 305.0625 68.8125 L 305.0625 125.0625 L 248.8125 125.0625 L 248.8125 68.8125 z M 308.8125 68.8125 L 365.0625 68.8125 L 365.0625 125.0625 L 308.8125 125.0625 L 308.8125 68.8125 z M 128.8125 128.8125 L 185.0625 128.8125 L 185.0625 185.0625 L 128.8125 185.0625 L 128.8125 128.8125 z M 188.8125 128.8125 L 245.0625 128.8125 L 245.0625 185.0625 L 188.8125 185.0625 L 188.8125 128.8125 z M 248.8125 128.8125 L 305.0625 128.8125 L 305.0625 185.0625 L 248.8125 185.0625 L 248.8125 128.8125 z M 308.8125 128.8125 L 365.0625 128.8125 L 365.0625 185.0625 L 308.8125 185.0625 L 308.8125 128.8125 z M 368.8125 128.8125 L 425.0625 128.8125 L 425.0625 185.0625 L 368.8125 185.0625 L 368.8125 128.8125 z M 68.8125 188.8125 L 125.0625 188.8125 L 125.0625 245.0625 L 68.8125 245.0625 L 68.8125 188.8125 z M 128.8125 188.8125 L 185.0625 188.8125 L 185.0625 245.0625 L 128.8125 245.0625 L 128.8125 188.8125 z M 188.8125 188.8125 L 245.0625 188.8125 L 245.0625 245.0625 L 188.8125 245.0625 L 188.8125 188.8125 z M 248.8125 188.8125 L 305.0625 188.8125 L 305.0625 245.0625 L 248.8125 245.0625 L 248.8125 188.8125 z M 308.8125 188.8125 L 365.0625 188.8125 L 365.0625 245.0625 L 308.8125 245.0625 L 308.8125 188.8125 z M 368.8125 188.8125 L 425.0625 188.8125 L 425.0625 245.0625 L 368.8125 245.0625 L 368.8125 188.8125 z M 68.8125 248.8125 L 125.0625 248.8125 L 125.0625 305.0625 L 68.8125 305.0625 L 68.8125 248.8125 z M 128.8125 248.8125 L 185.0625 248.8125 L 185.0625 305.0625 L 128.8125 305.0625 L 128.8125 248.8125 z M 188.8125 248.8125 L 245.0625 248.8125 L 245.0625 305.0625 L 188.8125 305.0625 L 188.8125 248.8125 z M 248.8125 248.8125 L 305.0625 248.8125 L 305.0625 305.0625 L 248.8125 305.0625 L 248.8125 248.8125 z M 308.8125 248.8125 L 365.0625 248.8125 L 365.0625 305.0625 L 308.8125 305.0625 L 308.8125 248.8125 z M 368.8125 248.8125 L 425.0625 248.8125 L 425.0625 305.0625 L 368.8125 305.0625 L 368.8125 248.8125 z M 68.8125 308.8125 L 125.0625 308.8125 L 125.0625 365.0625 L 68.8125 365.0625 L 68.8125 308.8125 z M 128.8125 308.8125 L 185.0625 308.8125 L 185.0625 365.0625 L 128.8125 365.0625 L 128.8125 308.8125 z M 188.8125 308.8125 L 245.0625 308.8125 L 245.0625 365.0625 L 188.8125 365.0625 L 188.8125 308.8125 z M 248.8125 308.8125 L 305.0625 308.8125 L 305.0625 365.0625 L 248.8125 365.0625 L 248.8125 308.8125 z M 308.8125 308.8125 L 365.0625 308.8125 L 365.0625 365.0625 L 308.8125 365.0625 L 308.8125 308.8125 z M 368.8125 308.8125 L 425.0625 308.8125 L 425.0625 365.0625 L 368.8125 365.0625 L 368.8125 308.8125 z M 128.8125 368.8125 L 185.0625 368.8125 L 185.0625 425.0625 L 128.8125 425.0625 L 128.8125 368.8125 z M 188.8125 368.8125 L 245.0625 368.8125 L 245.0625 425.0625 L 188.8125 425.0625 L 188.8125 368.8125 z M 248.8125 368.8125 L 305.0625 368.8125 L 305.0625 425.0625 L 248.8125 425.0625 L 248.8125 368.8125 z M 308.8125 368.8125 L 365.0625 368.8125 L 365.0625 425.0625 L 308.8125 425.0625 L 308.8125 368.8125 z "
       transform="translate(0,540.36218)"
       id="path2993" />
    <path
       style="font-size:medium;font-style:normal;font-variant:normal;font-weight:normal;font-stretch:normal;text-indent:0;text-align:start;text-decoration:none;line-height:normal;letter-spacing:normal;word-spacing:normal;text-transform:none;direction:ltr;block-progression:tb;writing-mode:lr-tb;text-anchor:start;baseline-shift:baseline;color:#000000;fill:#fff8eb;fill-opacity:1;stroke:none;stroke-width:15;marker:none;visibility:visible;display:inline;overflow:visible;enable-background:accumulate;font-family:Sans;-inkscape-font-specification:Sans"
       d="M 265.125 109.125 A 7.50075 7.50075 0 0 0 257.78125 115.09375 L 209.09375 348.5 L 193.3125 212.1875 A 7.50075 7.50075 0 0 0 179 210.0625 L 140 299.34375 L 37.375 299.34375 C 38.373496 304.40733 39.539777 309.40967 40.875 314.34375 L 144.90625 314.34375 A 7.50075 7.50075 0 0 0 151.78125 309.84375 L 181.59375 241.53125 L 199.53125 396.21875 A 7.50075 7.50075 0 0 0 214.34375 396.90625 L 264.40625 156.78125 L 300 363.59375 A 7.50075 7.50075 0 0 0 314.4375 364.875 L 335.09375 307.75 L 472.8125 307.75 C 473.98538 302.81727 474.97364 297.80373 475.8125 292.75 L 329.84375 292.75 A 7.50075 7.50075 0 0 0 322.8125 297.6875 L 309.96875 333.15625 L 272.53125 115.34375 A 7.50075 7.50075 0 0 0 265.125 109.125 z "
       transform="translate(0,540.36218)"
       id="path3007" />
    <path
       style="fill:#fff8eb;fill-rule:evenodd;stroke:none"
       d="m 256,566.36218 c -127.02549,0 -230,102.97451 -230,230 0,127.02549 102.97451,230.00002 230,230.00002 127.02549,0 230,-102.97453 230,-230.00002 0,-127.02549 -102.97451,-230 -230,-230 z m 0,19.7225 c 116.13759,0 210.2775,94.13991 210.2775,210.2775 0,116.13759 -94.13991,210.27752 -210.2775,210.27752 -116.13759,0 -210.2775,-94.13993 -210.2775,-210.27752 0,-116.13759 94.13991,-210.2775 210.2775,-210.2775 z"
       id="path3002"
       inkscape:connector-curvature="0" />
  </g>
</svg>
