<?xml version="1.0" encoding="UTF-8" standalone="no"?>
<!-- Created with Inkscape (http://www.inkscape.org/) -->

<svg
   xmlns:dc="http://purl.org/dc/elements/1.1/"
   xmlns:cc="http://creativecommons.org/ns#"
   xmlns:rdf="http://www.w3.org/1999/02/22-rdf-syntax-ns#"
   xmlns:svg="http://www.w3.org/2000/svg"
   xmlns="http://www.w3.org/2000/svg"
   xmlns:sodipodi="http://sodipodi.sourceforge.net/DTD/sodipodi-0.dtd"
   xmlns:inkscape="http://www.inkscape.org/namespaces/inkscape"
   width="512"
   height="512"
   id="svg2"
   version="1.1"
   inkscape:version="0.48.4 r9939"
   sodipodi:docname="google-plus.svg">
  <defs
     id="defs4" />
  <sodipodi:namedview
     id="base"
     pagecolor="#ffffff"
     bordercolor="#666666"
     borderopacity="1.0"
     inkscape:pageopacity="0.0"
     inkscape:pageshadow="2"
     inkscape:zoom="0.7"
     inkscape:cx="427.53225"
     inkscape:cy="147.78736"
     inkscape:document-units="px"
     inkscape:current-layer="layer1"
     showgrid="false"
     inkscape:window-width="1309"
     inkscape:window-height="750"
     inkscape:window-x="55"
     inkscape:window-y="-3"
     inkscape:window-maximized="1" />
  <metadata
     id="metadata7">
    <rdf:RDF>
      <cc:Work
         rdf:about="">
        <dc:format>image/svg+xml</dc:format>
        <dc:type
           rdf:resource="http://purl.org/dc/dcmitype/StillImage" />
        <dc:title></dc:title>
      </cc:Work>
    </rdf:RDF>
  </metadata>
  <g
     inkscape:label="Layer 1"
     inkscape:groupmode="layer"
     id="layer1"
     transform="translate(0,-540.36218)">
    <path
       sodipodi:type="arc"
       style="fill:#9a3034;fill-rule:evenodd;stroke:none"
       id="path2985"
       sodipodi:cx="202.85715"
       sodipodi:cy="-316.57144"
       sodipodi:rx="360"
       sodipodi:ry="360"
       d="m 562.85715,-316.57144 c 0,198.82251 -161.17749,359.999998 -360,359.999998 -198.8225127,0 -360,-161.177488 -360,-359.999998 0,-198.82251 161.1774873,-360 360,-360 198.82251,0 360,161.17749 360,360 z"
       transform="matrix(0.69444444,0,0,0.69444444,115.12698,1016.2035)" />
    <path
       sodipodi:nodetypes="ccsscccssccsscccssccccccccscccccsccsscccsccccccccccccscsccccccsccsccsccsccsccsccsccsccsccsccsccsccsccscscccccccccccccssccccssscccc"
       inkscape:connector-curvature="0"
       id="path8574"
       d="m 1139.9509,661.57683 c -0.029,-0.007 -0.034,0.0203 -0.062,0.0312 -0.1522,0.0589 -3.0195,1.11629 -6.375,2.375 -18.3973,6.90112 -39.2246,15.30527 -71.5,28.8125 -19.7136,8.25016 -31.4556,13.1191 -40.5312,16.84375 l -8.2813,3.40625 -3.5,-1.1875 c -2.1084,-0.71809 -8.8316,-3.44935 -17.125,-6.9375 -7.51433,-3.16043 -25.32123,-10.65184 -39.59375,-16.65625 -40.00856,-16.83126 -55.37501,-23.24173 -57.0625,-23.8125 -2.39424,-0.80971 -9.38478,-2.7786 -9.53125,-2.6875 -0.22048,0.13628 -2.51239,4.86953 -3.34375,6.90625 -3.82322,9.36642 -6.66084,21.98795 -7.125,31.6875 -0.14574,3.04545 -0.003,8.00991 0.25,8.25 l 32.7734,32.68175 c -0.86111,3.60686 -1.00233,5.10089 -1,9.5625 0.003,4.73813 0.26593,6.77267 1.375,10.625 1.82891,6.35282 5.79171,13.26275 10.46875,18.59375 0.3083,0.3514 0.62327,0.69435 0.9375,1.03125 0.18528,0.2032 0.37525,0.39585 0.5625,0.59375 0.15978,0.1649 0.30775,0.3392 0.46875,0.5 0.24052,0.24614 0.47557,0.48206 0.71875,0.71875 0.0532,0.0531 0.10296,0.10362 0.15625,0.15625 0.0214,0.0206 0.041,0.0419 0.0625,0.0625 0.0408,0.0411 0.0841,0.0842 0.125,0.125 0,0 28.21234,28.18138 28.21375,28.1821 -1.64865,1.86426 -3.19097,3.71361 -4.53125,5.5 -4.88855,6.51577 -7.54019,11.5336 -8.25,15.5625 -0.25042,1.42129 -0.21333,4.89064 0.0625,6.34375 l 0.21875,1.125 13.2473,13.15505 c -0.74718,-0.11663 -0.89784,-0.20973 -1.09375,-0.4375 -0.15088,-0.1754 -0.28432,-0.23585 -0.375,-0.1875 -0.15113,0.0806 -0.19936,0.41273 -0.0937,0.6875 0.77263,1.25333 1.03975,1.23226 1.28125,2.15625 0.75409,2.89981 1.01584,3.53948 2.65625,6.375 3.63895,6.2901 7.95874,12.17282 12.9375,17.71875 0.9761,1.08729 1.97098,2.15879 3,3.21875 0.12285,0.12898 0.25137,0.24642 0.375,0.375 0.12276,0.12887 0.25147,0.24652 0.375,0.375 0.2594,0.26233 0.51854,0.5206 0.78125,0.78125 0.53335,0.52918 1.04672,1.07142 1.59375,1.59375 0.0316,0.0304 0.0621,0.0633 0.0937,0.0937 0.0958,0.0929 0.18505,0.18854 0.28125,0.28125 0.0316,0.0304 0.0621,0.0634 0.0937,0.0937 0.0957,0.0928 0.18514,0.18863 0.28125,0.28125 0.13254,0.12894 0.27288,0.24647 0.40625,0.375 0.0212,0.0202 0.0413,0.0423 0.0625,0.0625 0.1379,0.1339 0.26746,0.2728 0.40625,0.40625 l 347.67105,347.69927 c 9.703,9.4251 21.5961,17.7801 35.875,25.1562 1.9376,1.0009 3.5547,1.8422 3.5937,1.8438 0.039,0 1.6943,-0.849 3.6875,-1.875 13.9651,-7.1879 25.3498,-15.256 34.8438,-24.75 6.5657,-6.5657 11.5624,-12.9691 16.2187,-20.7188 1.3825,-2.3011 4.0313,-7.2911 4.0313,-7.5937 0,-0.047 -0.1522,-0.1197 -0.4063,-0.1875 0.01,-0.026 0.062,-0.1439 0.062,-0.1563 0,-0.048 -0.1702,-0.1176 -0.4375,-0.1875 0.01,-0.026 0.062,-0.1439 0.062,-0.1562 -0.023,-0.047 -0.16,-0.1232 -0.4062,-0.1875 0.01,-0.02 0.062,-0.1148 0.062,-0.125 0,-0.01 0,-0.029 0,-0.031 0,-0.047 -0.1532,-0.12 -0.4063,-0.1875 0.01,-0.019 0.062,-0.1148 0.062,-0.125 0.01,-0.01 0,-0.029 0,-0.031 0,-0.048 -0.1706,-0.1179 -0.4375,-0.1875 0.01,-0.019 0.062,-0.1148 0.062,-0.125 0.01,-0.012 0.031,-0.029 0.031,-0.031 0,-0.048 -0.1713,-0.1179 -0.4375,-0.1875 0.01,-0.019 0.062,-0.1148 0.062,-0.125 0.01,-0.014 0.031,-0.061 0.031,-0.062 0,-0.048 -0.1717,-0.087 -0.4375,-0.1563 0.01,-0.019 0.062,-0.1148 0.062,-0.125 0.01,-0.017 0.031,-0.06 0.031,-0.062 0,-0.046 -0.1542,-0.1202 -0.4062,-0.1875 0,-0.012 0.031,-0.086 0.031,-0.094 0.011,-0.019 0.031,-0.061 0.031,-0.062 0,-0.049 -0.1896,-0.1159 -0.4688,-0.1875 0.01,-0.019 0.062,-0.1148 0.062,-0.125 0.012,-0.021 0.031,-0.06 0.031,-0.062 0,-0.047 -0.1547,-0.1203 -0.4062,-0.1875 0,-0.012 0.031,-0.087 0.031,-0.094 0.014,-0.024 0.031,-0.058 0.031,-0.062 0,-0.046 -0.155,-0.1204 -0.4063,-0.1875 0,-0.01 0.031,-0.057 0.031,-0.062 0.015,-0.026 0.031,-0.09 0.031,-0.094 0,-0.048 -0.1729,-0.1183 -0.4375,-0.1875 0,-0.01 0.031,-0.057 0.031,-0.062 0.017,-0.028 0.062,-0.09 0.062,-0.094 0,-0.048 -0.1732,-0.1184 -0.4375,-0.1875 0,-0.01 0.031,-0.057 0.031,-0.062 0.018,-0.03 0.062,-0.1206 0.062,-0.125 0,-0.048 -0.1734,-0.087 -0.4375,-0.1562 0,-0.01 0.031,-0.057 0.031,-0.062 0.019,-0.033 0.031,-0.1202 0.031,-0.125 0,-0.046 -0.1559,-0.1208 -0.4062,-0.1875 3e-4,-0 -10e-5,-0.029 0,-0.031 0.021,-0.035 0.062,-0.1199 0.062,-0.125 0,-0.046 -0.1562,-0.1208 -0.4063,-0.1875 7.857,-2.076 15.7305,-4.4554 17.9375,-5.5625 1.515,-0.7599 2.8567,-2.0632 3.375,-3.2188 0.6128,-1.3662 0.5557,-3.8312 -0.1562,-6.5 -1.5906,-5.9617 -4.2276,-11.5818 -8.5,-18.0625 -3.3211,-5.0376 -7.3045,-10.0058 -11.8438,-14.8125 -0.1101,-0.1174 -0.233,-0.2265 -0.3437,-0.3437 -0.245,-0.2613 -0.5017,-0.5209 -0.75,-0.7813 -10.1373,-10.1378 -21.4319,-21.552 -31.1239,-30.9055 -0.2193,-0.2185 -0.4344,-0.4386 -0.6562,-0.6562 -0.1142,-0.1129 -0.229,-0.2311 -0.3438,-0.3438 -0.1037,-0.1024 -0.2083,-0.2102 -0.3125,-0.3125 -0.1035,-0.1023 -0.2084,-0.2103 -0.3125,-0.3125 7.4078,3.5611 15.1872,8.6305 24.75,16 1.3919,1.0727 2.3904,1.8634 3.25,2.5625 l 11.2471,11.2168 c 0.08,0 2.9037,-0.9193 6.2812,-2.0625 7.4448,-2.52 9.3197,-3.2727 12.6563,-4.9062 7.5391,-3.6912 13.2347,-9.0948 17.5937,-16.7188 2.5686,-4.4924 4.3832,-9.7864 5.125,-14.9687 0.3768,-2.6325 0.3559,-7.5753 -0.031,-9.8125 -2.9596,-12.4742 -2.6917,-21.4168 -9.9062,-28.5937 -0.2342,-0.2407 -0.4875,-0.5064 -0.6875,-0.7186 l 37.5937,-9.4688 c 5.0866,-1.6739 10.9063,-4.1072 10.9063,-4.5625 0,-0.5945 -0.5644,-6.1461 -0.875,-8.625 -1.4492,-11.566 -4.5619,-23.8664 -8.9375,-35.375 -0.7301,-1.9201 -1.1563,-2.2812 -1.1563,-2.2812 0,0 -349.6702,-349.71659 -349.6698,-349.71587 -0.1163,-0.2149 -0.1837,-0.26391 -0.2639,-0.28386 z"
       style="fill:#000000;fill-opacity:0.39215686;display:none" />
    <path
       style="fill:#000000;fill-opacity:0.33333333;display:none"
       d="m 1818.3938,660.67476 c -0.029,-0.007 -0.034,0.0203 -0.062,0.0312 -0.1522,0.0589 -3.0195,1.11629 -6.375,2.375 -18.3973,6.90112 -39.2246,15.30527 -71.5001,28.8125 -19.7136,8.25016 -31.4556,13.1191 -40.5312,16.84375 l -8.2813,3.40625 -3.5,-1.1875 c -2.1083,-0.71809 -8.8316,-3.44935 -17.125,-6.9375 -7.5143,-3.16043 -25.3212,-10.65184 -39.5937,-16.65625 -40.0086,-16.83126 -55.375,-23.24173 -57.0625,-23.8125 -2.3943,-0.80971 -9.3848,-2.7786 -9.5313,-2.6875 -0.2204,0.13628 -2.5124,4.86953 -3.3437,6.90625 -3.8232,9.36642 -6.6609,21.98795 -7.125,31.6875 -0.1458,3.04545 0,8.00991 0.25,8.25 0,0 18.2026,18.6573 27.2787,27.27735 -0.8895,3.85524 -1.7216,7.48497 -1.875,8.3125 -1.1178,6.03136 -1.04,13.28321 0.1875,19.4375 1.5942,7.99262 5.2872,15.8834 10.4063,22.28125 0.5306,0.66312 1.2286,1.45352 2,2.28125 0.1127,0.12283 0.2585,0.25011 0.375,0.375 0.4518,0.47735 0.8965,0.95826 1.375,1.4375 0.1896,0.19244 0.3708,0.37199 0.5625,0.5625 0.096,0.0971 0.1843,0.1847 0.2812,0.28125 0.021,0.0213 0.041,0.0412 0.062,0.0625 0.011,0.0106 0.021,0.0207 0.031,0.0312 0.1073,0.10782 0.2048,0.20543 0.3125,0.3125 0.011,0.0106 0.021,0.0207 0.031,0.0312 0.054,0.0541 0.1023,0.10232 0.1563,0.15625 0.1056,0.10697 0.2062,0.20604 0.3125,0.3125 0.043,0.0425 0.082,0.0827 0.125,0.125 0.1535,0.15506 0.2828,0.31511 0.4375,0.46875 0,0 21.4987,21.46755 21.4675,21.43635 0.011,0.0107 0.02,0.0205 0.031,0.0312 -7.9375,13.92061 -11.9409,21.1705 -12.0313,21.78125 -0.1883,1.27269 0.2,3.35599 0.875,4.78125 0.3409,0.71968 0.7825,1.32694 1.3438,1.9375 0.1021,0.12542 0.2299,0.25186 0.3437,0.375 0.071,0.0689 0.1429,0.14995 0.2188,0.21875 0.039,0.044 0.085,0.0812 0.125,0.125 0.051,0.0487 0.1035,0.10763 0.1562,0.15625 l 10.531,10.531 c 1.2909,3.63465 2.8376,7.33726 4.4688,10.59375 3.9036,7.79291 9.0242,15.03928 15.5312,21.96875 0.1098,0.11796 0.2332,0.22598 0.3438,0.34375 1.2329,1.34747 2.5444,2.6391 3.781,3.87485 l 348.7799,348.74839 c 5.6829,5.621 12.3019,11.0582 20.0312,16.4063 5.7024,3.9457 12.5678,8.2086 22.6563,14.125 3.5185,2.0635 6.4656,3.7812 6.5312,3.7812 0.3192,0.029 10.0582,-6.0143 15,-9.3125 11.5878,-7.7338 20.2356,-14.7627 28.875,-23.4062 6.2324,-6.2355 10.1611,-10.8221 14.5938,-17.0313 3.7428,-5.2425 6.132,-9.1894 9.375,-15.5937 l 2.3125,-4.625 6.375,-2.9688 6.3437,-2.9375 0.094,-4.7187 c 0.073,-4.033 0.042,-4.9831 -0.2187,-6.4063 l -0.3067,-1.6491 -7.8125,-13.5312 c -4.2933,-7.4495 -7.7556,-13.6195 -7.6875,-13.6875 0.068,-0.068 2.8503,-1.3431 6.1563,-2.8438 3.306,-1.5008 6.7736,-3.1156 7.7187,-3.5937 6.4076,-3.2409 12.0762,-8.3476 16.25,-14.625 5.9957,-9.0178 9.5,-21.2528 9.5,-33.1875 0,-8.8188 -1.6828,-16.3751 -5.4062,-24.375 -0.7057,-1.5164 -1.2048,-2.9544 -1.625,-4.5938 -0.5604,-2.1865 -0.6554,-2.4518 -1.2188,-2.9375 -0.099,-0.1249 -0.2298,-0.2194 -0.375,-0.3437 -0.014,-0.012 -0.018,-0.02 -0.031,-0.031 -0.1459,-0.1769 -0.1533,-0.2904 -0.031,-0.4375 0.1223,-0.1473 0.4807,-0.313 0.7813,-0.375 0.3007,-0.061 1.3514,-0.3726 2.3437,-0.6875 2.821,-0.8949 6.1884,-1.828 11.5938,-3.25 6.6548,-1.7506 10.422,-2.8432 13.9375,-4 5.0865,-1.674 10.9062,-4.1072 10.9062,-4.5625 0,-0.5945 -0.5643,-6.146 -0.875,-8.625 -1.4492,-11.5659 -4.5618,-23.8663 -8.9375,-35.375 -0.6934,-1.8241 -0.9109,-2.2811 -1.125,-2.25 0,0 -349.6963,-349.6445 -349.6876,-349.65624 -0.1177,-0.21673 -0.2004,-0.35489 -0.2813,-0.375 z"
       id="path8003"
       inkscape:connector-curvature="0"
       sodipodi:nodetypes="ccsscccssccsscccsccccccccccccccccccccccccsccccsscsssccccccccccccscsccccccscsssccc" />
    <path
       sodipodi:nodetypes="cccscccscccccccccscscccccccccccc"
       inkscape:connector-curvature="0"
       id="path17467"
       d="m 898.5134,579.70183 c -35.1687,0.65003 -77.11323,5.9486 -115.34375,37.59375 -1.64011,1.41214 -3.39102,3.00398 -4.96875,4.5 -0.29824,3.132 -0.4375,6.31857 -0.4375,9.53125 l 0,154.96875 97.96875,97.9591 c -27.66601,0.66617 -71.36929,-0.0296 -97.96875,21.25 l 0,1.125 c 1.1e-4,11.00641 1.78731,21.60348 5.09375,31.46875 l 399.59375,399.59377 c 13.6846,-14.583 31.9613,-21.5238 40.5313,-24.6563 26.9196,-9.0177 60.9147,-10.6236 69.1875,-10.75 l 101.75,102.2813 39.2812,0 c 4.046,-9.4529 5.4063,-20.6207 5.4063,-33.0625 -0,-26.3468 -12.4239,-47.0194 -28.5313,-64.5313 l -81.0295,-81.2774 c -0.048,-0.7048 -0.094,-1.4187 -0.094,-2.1563 0,-14.8293 10.0635,-24.2953 18.7812,-33.0312 28.1702,-22.1741 54.4063,-45.7649 54.4063,-95.5625 0,-17.1217 -3.4943,-31.4149 -8.7188,-43.3438 l 134.125,134.2813 36.4688,0 0,-85.8125 85.3437,0 0,-35.7188 -484.9392,-484.65037 -36.4688,0 0,85.0625 -3.4062,0 -84.2813,-85.0625 z"
       style="fill:#000000;fill-opacity:0.31372549;display:none" />
    <path
       style="fill:#ffffff"
       d="M 185.84375 70.6875 C 153.9361 70.6875 107.94554 78.20895 74.28125 106 C 48.908899 127.89112 36.53125 158.07831 36.53125 185.25 C 36.53125 231.37622 71.96078 278.15625 134.5 278.15625 C 140.40526 278.15625 146.87174 277.5721 153.375 276.96875 C 150.45441 284.07536 147.5 289.98803 147.5 300.03125 C 147.5 318.35039 156.89022 329.57752 165.1875 340.21875 C 138.6138 342.04478 89.006362 344.99029 52.4375 367.46875 C 46.938549 370.73878 42.063329 374.23788 37.71875 377.90625 C 44.47344 389.97492 52.188934 401.42863 60.78125 412.15625 C 68.421025 381.67791 98.422774 370.40281 109.71875 366.3125 C 134.49311 357.97785 166.36956 356.8125 171.6875 356.8125 C 177.58743 356.8125 180.55143 356.81359 185.25 357.40625 C 230.1375 389.35129 249.625 405.25822 249.625 435.5 C 249.625 465.85189 228.90586 489.75776 189.5625 497.0625 C 201.43331 500.32728 213.64867 502.73072 226.15625 504.21875 C 267.62729 482.95376 289.125 447.56677 289.125 412.40625 C 289.131 371.55528 265.53819 351.4742 239.5625 329.59375 L 218.28125 313.0625 C 211.80468 307.69117 202.96875 300.60484 202.96875 287.625 C 202.96875 274.59177 211.8114 266.29758 219.5 258.625 C 244.27434 239.12587 269.03125 218.39046 269.03125 174.65625 C 269.03125 129.68334 240.74932 106.00446 227.1875 94.78125 L 263.75 94.78125 L 302.125 70.6875 L 185.84375 70.6875 z M 142.78125 93.03125 C 191.73196 93.03125 217.125 159.24682 217.125 201.84375 C 217.125 212.50099 215.94751 231.37867 202.375 245.03125 C 192.88172 254.50317 176.99714 261.5625 162.25 261.5625 C 111.47326 261.5625 88.46875 195.91942 88.46875 156.3125 C 88.46875 140.8926 91.39427 124.96648 101.4375 112.53125 C 110.90408 100.68868 127.38806 93.03125 142.78125 93.03125 z "
       transform="translate(0,540.36218)"
       id="path3349" />
    <polygon
       id="polygon3351"
       points="98.393,47.863 92.923,47.863 92.923,58.938 81.866,58.938 81.866,64.469 92.923,64.469 92.923,75.612 98.393,75.612 98.393,64.469 109.506,64.469 109.506,58.938 98.393,58.938 "
       style="fill:#ffffff"
       transform="matrix(6.1457711,0,0,6.1457711,-215.63968,337.13106)" />
  </g>
</svg>
