<svg xmlns="http://www.w3.org/2000/svg" xmlns:xlink="http://www.w3.org/1999/xlink" width="512" height="512">
 <defs>
  <linearGradient y2="7.01654" x2="0" y1="92.5396" gradientTransform="scale(1.0058652,0.994169)" gradientUnits="userSpaceOnUse" xlink:href="#1"/>
  <filter x="-0.192" y="-0.192" width="1.384" height="1.384" color-interpolation-filters="sRGB">
   <feGaussianBlur stdDeviation="5.28"/>
  </filter>
  <clipPath>
   <rect width="84" height="84" rx="6" x="6" y="6" fill="#fff"/>
  </clipPath>
  <linearGradient id="0">
   <stop stop-color="#fff"/>
   <stop offset="1" stop-color="#fff" stop-opacity="0"/>
  </linearGradient>
  <linearGradient y1="20.220806" x2="0" y2="138.66119" xlink:href="#0" gradientUnits="userSpaceOnUse"/>
  <filter color-interpolation-filters="sRGB">
   <feGaussianBlur stdDeviation="1.71"/>
  </filter>
  <linearGradient y1="92.5396" x2="0" y2="7.01654" id="1" gradientUnits="userSpaceOnUse" gradientTransform="scale(1.0058652,0.994169)">
   <stop/>
   <stop offset="1" stop-opacity="0.588235"/>
  </linearGradient>
 </defs>
 <g transform="translate(0,-540.36217)">
  <path d="M 256 6 C 164.58184 6 84.65921 55.10766 41.0625 128.34375 C 18.813976 165.71801 6 209.34698 6 256 C 6 394.07117 117.92881 506 256 506 C 394.07119 506 506 394.07117 506 256 C 506 209.34698 493.18602 165.71801 470.9375 128.34375 C 427.34078 55.10766 347.41816 6 256 6 z" transform="translate(0,540.36217)" fill="#fff8eb" fill-rule="evenodd"/>
  <text y="1089.8812" x="-1160.4812" font-family="Gentium Book Basic" word-spacing="0" line-height="125%" letter-spacing="0" font-size="208.33333"><tspan y="1089.8812" x="-1160.4812"/>
  </text>
  <text transform="scale(4.0128362,0.2492003)" font-size="75.69771" y="3810.6255" x="28.533577" font-family="Arial" text-anchor="middle"/>
  <g transform="matrix(0.75843015,0,0,0.75843015,61.841882,192.3771)">
   <path d="m 366.83746 864.28098 c -15.6942 0 -29.41491 8.43051 -36.89937 21.0033 -3.81952 6.4162 -6.01936 13.9062 -6.01936 21.9154 0 23.70326 19.21537 42.91866 42.91873 42.91866 23.70336 0 42.91873 -19.2154 42.91873 -42.91866 0 -8.0092 -2.19984 -15.4992 -6.01936 -21.9154 -7.48446 -12.5728 -21.20517 -21.0033 -36.89937 -21.0033 z" fill="#e4a146" fill-rule="evenodd"/>
   <path d="m 145.16254 864.28098 c -15.6942 0 -29.41491 8.43051 -36.89937 21.0033 -3.81952 6.4162 -6.01936 13.9062 -6.01936 21.9154 0 23.70326 19.21537 42.91866 42.91873 42.91866 23.70336 0 42.91873 -19.2154 42.91873 -42.91866 0 -8.0092 -2.19984 -15.4992 -6.01936 -21.9154 -7.48446 -12.5728 -21.20517 -21.0033 -36.89937 -21.0033 z" fill="#8db173" fill-rule="evenodd"/>
   <path d="m 366.83746 753.44347 c -15.6942 0 -29.41491 8.43056 -36.89937 21.00336 -3.81952 6.41622 -6.01936 13.90622 -6.01936 21.91538 0 23.70338 19.21537 42.91877 42.91873 42.91877 23.70336 0 42.91873 -19.2154 42.91873 -42.91877 0 -8.00915 -2.19984 -15.49915 -6.01936 -21.91538 -7.48446 -12.5728 -21.20517 -21.00336 -36.89937 -21.00336 z" fill="#e4a146" fill-rule="evenodd"/>
   <path d="m 145.16254 753.44347 c -15.6942 0 -29.41491 8.43056 -36.89937 21.00336 -3.81952 6.41622 -6.01936 13.90622 -6.01936 21.91538 0 23.70335 19.21537 42.91873 42.91873 42.91873 23.70336 0 42.91873 -19.21538 42.91873 -42.91873 0 -8.00915 -2.19984 -15.49915 -6.01936 -21.91538 -7.48446 -12.5728 -21.20517 -21.00336 -36.89937 -21.00336 z" fill="#8db173" fill-rule="evenodd"/>
   <path d="m 366.83746 642.606 c -15.6942 0 -29.41491 8.43056 -36.89937 21.00337 -3.81952 6.41621 -6.01936 13.90621 -6.01936 21.91537 0 23.70335 19.21537 42.91873 42.91873 42.91873 23.70336 0 42.91873 -19.21538 42.91873 -42.91873 0 -8.00915 -2.19984 -15.49915 -6.01936 -21.91537 C 396.25237 651.03656 382.53166 642.606 366.83746 642.606 z" fill="#9a3034" fill-rule="evenodd"/>
   <path d="m 145.16254 642.606 c -15.6942 0 -29.41491 8.43056 -36.89937 21.00337 -3.81952 6.41621 -6.01936 13.90621 -6.01936 21.91537 0 23.70335 19.21537 42.91873 42.91873 42.91873 23.70336 0 42.91873 -19.21538 42.91873 -42.91873 0 -8.00915 -2.19984 -15.49915 -6.01936 -21.91537 C 174.57745 651.03656 160.85674 642.606 145.16254 642.606 z" fill="#9a3034" fill-rule="evenodd"/>
   <path d="m 256 864.28098 c -15.6942 0 -29.41491 8.43051 -36.89937 21.0033 -3.81952 6.4162 -6.01936 13.9062 -6.01936 21.9154 0 23.70326 19.21537 42.91866 42.91873 42.91866 23.70336 0 42.91873 -19.2154 42.91873 -42.91866 0 -8.0092 -2.19984 -15.4992 -6.01936 -21.9154 C 285.41491 872.71148 271.6942 864.28098 256 864.28098 z" fill="#e4a146" fill-rule="evenodd"/>
   <path d="m 256 753.44347 c -15.6942 0 -29.41491 8.43056 -36.89937 21.00336 -3.81952 6.41622 -6.01936 13.90622 -6.01936 21.91538 0 23.70338 19.21537 42.91877 42.91873 42.91877 23.70336 0 42.91873 -19.2154 42.91873 -42.91877 0 -8.00915 -2.19984 -15.49915 -6.01936 -21.91538 C 285.41491 761.87403 271.6942 753.44347 256 753.44347 z" fill="#366378" fill-rule="evenodd"/>
   <path d="m 256 642.606 c -15.6942 0 -29.41491 8.43056 -36.89937 21.00337 -3.81952 6.41621 -6.01936 13.90621 -6.01936 21.91537 0 23.70335 19.21537 42.91873 42.91873 42.91873 23.70336 0 42.91873 -19.21538 42.91873 -42.91873 0 -8.00915 -2.19984 -15.49915 -6.01936 -21.91537 C 285.41491 651.03656 271.6942 642.606 256 642.606 z" fill="#9a3034" fill-rule="evenodd"/>
  </g>
  <path d="m 256 569.21931 c -83.05993 0 -155.67534 44.61782 -195.28607 111.15804 -20.21437 33.95718 -31.856786 73.59722 -31.856786 115.98482 0 125.44752 101.69532 227.14283 227.14286 227.14283 125.44754 0 227.14286 -101.69531 227.14286 -227.14283 0 -42.3876 -11.64242 -82.02764 -31.85679 -115.98482 C 411.67534 613.83713 339.05993 569.21931 256 569.21931 z m 0 27.91018 c 72.85543 0 136.54984 39.1358 171.29411 97.50107 17.73089 29.7853 27.93857 64.55163 27.93857 101.73161 0 110.0354 -89.19728 199.23268 -199.23268 199.23268 -110.0354 0 -199.23268 -89.19728 -199.23268 -199.23268 0 -37.17998 10.207678 -71.94631 27.938571 -101.73161 C 119.45016 636.26529 183.14457 597.12949 256 597.12949 z" fill="#366378" fill-rule="evenodd"/>
 </g>
</svg>
