<svg xmlns="http://www.w3.org/2000/svg" xmlns:xlink="http://www.w3.org/1999/xlink" height="512" width="512">
 <defs>
  <linearGradient gradientTransform="scale(1.0058652,0.994169)" gradientUnits="userSpaceOnUse" id="0" y2="7.01654" x2="0" y1="92.5396">
   <stop/>
   <stop offset="1" stop-opacity="0.588235"/>
  </linearGradient>
  <filter color-interpolation-filters="sRGB">
   <feGaussianBlur stdDeviation="1.71"/>
  </filter>
  <linearGradient gradientUnits="userSpaceOnUse" xlink:href="#1" y2="138.66119" x2="0" y1="20.220806"/>
  <linearGradient id="1">
   <stop stop-color="#fff"/>
   <stop offset="1" stop-color="#fff" stop-opacity="0"/>
  </linearGradient>
  <clipPath>
   <rect y="6" x="6" rx="6" height="84" width="84" fill="#fff"/>
  </clipPath>
  <filter color-interpolation-filters="sRGB" height="1.384" width="1.384" y="-0.192" x="-0.192">
   <feGaussianBlur stdDeviation="5.28"/>
  </filter>
  <linearGradient xlink:href="#0" gradientUnits="userSpaceOnUse" gradientTransform="scale(1.0058652,0.994169)" y1="92.5396" x2="0" y2="7.01654"/>
  <linearGradient gradientUnits="userSpaceOnUse" xlink:href="#1" y2="138.66119" x2="0" y1="20.220806"/>
  <clipPath>
   <rect y="6" x="6" rx="6" height="84" width="84" fill="#fff"/>
  </clipPath>
  <linearGradient xlink:href="#0" gradientUnits="userSpaceOnUse" gradientTransform="scale(1.0058652,0.994169)" y1="92.5396" x2="0" y2="7.01654"/>
  <linearGradient y1="20.220806" x2="0" y2="138.66119" xlink:href="#1" gradientUnits="userSpaceOnUse"/>
  <clipPath>
   <rect width="84" height="84" rx="6" x="6" y="6" fill="#fff"/>
  </clipPath>
  <linearGradient y2="7.01654" x2="0" y1="92.5396" gradientTransform="scale(1.0058652,0.994169)" gradientUnits="userSpaceOnUse" xlink:href="#0"/>
  <linearGradient gradientUnits="userSpaceOnUse" xlink:href="#1" y2="138.66119" x2="0" y1="20.220806"/>
  <clipPath>
   <rect y="6" x="6" rx="6" height="84" width="84" fill="#fff"/>
  </clipPath>
  <linearGradient xlink:href="#0" gradientUnits="userSpaceOnUse" gradientTransform="scale(1.0058652,0.994169)" y1="92.5396" x2="0" y2="7.01654"/>
  <linearGradient gradientUnits="userSpaceOnUse" xlink:href="#1" y2="138.66119" x2="0" y1="20.220806"/>
  <clipPath>
   <rect y="6" x="6" rx="6" height="84" width="84" fill="#fff"/>
  </clipPath>
  <linearGradient xlink:href="#0" gradientUnits="userSpaceOnUse" gradientTransform="scale(1.0058652,0.994169)" y1="92.5396" x2="0" y2="7.01654"/>
  <linearGradient gradientUnits="userSpaceOnUse" xlink:href="#1" y2="138.66119" x2="0" y1="20.220806"/>
  <clipPath>
   <rect y="6" x="6" rx="6" height="84" width="84" fill="#fff"/>
  </clipPath>
  <linearGradient xlink:href="#0" gradientUnits="userSpaceOnUse" gradientTransform="scale(1.0058652,0.994169)" y1="92.5396" x2="0" y2="7.01654"/>
  <linearGradient y1="20.220806" x2="0" y2="138.66119" xlink:href="#1" gradientUnits="userSpaceOnUse"/>
  <clipPath>
   <rect width="84" height="84" rx="6" x="6" y="6" fill="#fff"/>
  </clipPath>
  <linearGradient y2="7.01654" x2="0" y1="92.5396" gradientTransform="scale(1.0058652,0.994169)" gradientUnits="userSpaceOnUse" xlink:href="#0"/>
 </defs>
 <g transform="translate(0,-540.36217)">
  <path transform="matrix(3.0172415,0,0,3.0172415,-416.41383,53.258672)" d="m 305.71429 246.28572 c 0 45.76074 -37.09641 82.85714 -82.85714 82.85714 -45.76074 0 -82.85714 -37.0964 -82.85714 -82.85714 0 -45.76073 37.0964 -82.85714 82.85714 -82.85714 45.76073 0 82.85714 37.09641 82.85714 82.85714 z" fill="#f38725" fill-rule="evenodd"/>
  <text x="-299.47046" y="619.64386" font-family="Gentium Book Basic" word-spacing="0" line-height="125%" letter-spacing="0" font-size="208.33333"><tspan x="-299.47046" y="619.64386"/>
  </text>
  <text y="897.75989" x="-2658.3013" font-family="Gentium Book Basic" word-spacing="0" line-height="125%" letter-spacing="0" font-size="208.33333"><tspan y="897.75989" x="-2658.3013"/>
  </text>
  <text y="670.47504" x="-2370.0864" font-family="Gentium Book Basic" word-spacing="0" line-height="125%" letter-spacing="0" font-size="208.33333"><tspan y="670.47504" x="-2370.0864"/>
  </text>
  <text y="413.5752" x="1824.5126" font-family="Gentium Book Basic" word-spacing="0" line-height="125%" letter-spacing="0" font-size="208.33333"><tspan y="413.5752" x="1824.5126"/>
  </text>
  <text x="-303.41788" y="558.60944" font-family="Gentium Book Basic" word-spacing="0" line-height="125%" letter-spacing="0" font-size="208.33333"><tspan x="-303.41788" y="558.60944"/>
  </text>
  <text y="836.72546" x="-2662.2485" font-family="Gentium Book Basic" word-spacing="0" line-height="125%" letter-spacing="0" font-size="208.33333"><tspan y="836.72546" x="-2662.2485"/>
  </text>
  <text y="609.44055" x="-2374.0337" font-family="Gentium Book Basic" word-spacing="0" line-height="125%" letter-spacing="0" font-size="208.33333"><tspan y="609.44055" x="-2374.0337"/>
  </text>
  <path d="M 256 23.1875 C 127.41297 23.1875 23.1875 127.41297 23.1875 256 C 23.1875 384.58703 127.41297 488.8125 256 488.8125 C 384.58703 488.8125 488.8125 384.58703 488.8125 256 C 488.8125 127.41297 384.58703 23.1875 256 23.1875 z M 256 53.28125 C 367.96079 53.28125 458.71875 144.03921 458.71875 256 C 458.71875 367.96079 367.96079 458.71875 256 458.71875 C 144.03921 458.71875 53.28125 367.96079 53.28125 256 C 53.28125 144.03921 144.03921 53.28125 256 53.28125 z" transform="translate(0,540.36217)" fill="#fff8eb" fill-rule="evenodd"/>
  <path d="m 237.40838 844.09329 c 1.88681 1.38487 1.09324 3.5831 0.90773 5.91623 -40.49388 110.27928 -0.0973 0.0877 -40.51382 110.16799 -4.91042 6.6903 -11.47059 8.78741 -19.48065 6.61695 -17.07023 -4.62548 -19.27908 -6.92078 -32.04658 -16.77791 -6.43786 -4.97033 -12.42567 -11.9891 -19.00553 -21.86257 -4.60223 -6.90591 -7.0882 -14.65264 -2.1778 -21.34293 92.36243 -71.59284 -0.0328 0.68281 92.75247 -71.82703 2.16715 -0.88398 4.0294 -2.29258 5.91624 -0.90773 z" fill="#fff8eb" fill-rule="evenodd"/>
  <path d="m 305.71429 246.28572 c 0 45.76074 -37.09641 82.85714 -82.85714 82.85714 -45.76074 0 -82.85714 -37.0964 -82.85714 -82.85714 0 -45.76073 37.0964 -82.85714 82.85714 -82.85714 45.76073 0 82.85714 37.09641 82.85714 82.85714 z" transform="matrix(0.35949523,0,0,0.35949523,175.88392,707.82363)" fill="#fff8eb" fill-rule="evenodd"/>
  <path d="m 274.61143 844.00128 c 2.31342 -0.35492 3.30667 1.7606 4.82526 3.54154 49.34573 106.61273 -0.007 0.13082 49.25294 106.54813 1.25857 8.20295 -1.89729 14.32457 -9.09601 18.45379 -15.34118 8.79977 -18.5261 8.73864 -34.52413 10.79658 -8.06681 1.0377 -17.26385 0.30871 -28.89811 -2.02023 -8.13748 -1.62895 -15.37309 -5.34886 -16.63167 -13.55179 14.68632 -115.93388 0.45963 0.50601 14.79652 -116.37528 0.90734 -2.15748 1.22812 -4.47032 3.54156 -4.82528 z" fill="#fff8eb" fill-rule="evenodd"/>
  <path d="m 303.30598 814.59181 c 1.38486 -1.88681 3.5831 -1.09324 5.91622 -0.90773 110.27928 40.49388 0.0875 0.0975 110.16799 40.51382 6.69031 4.91041 8.78741 11.47058 6.61695 19.48065 -4.62548 17.07023 -6.92078 19.27908 -16.77791 32.04658 -4.97033 6.43786 -11.9891 12.42567 -21.86257 19.00557 -6.90591 4.6022 -14.65263 7.0882 -21.34293 2.1778 -71.59284 -92.36247 0.68281 0.033 -71.82703 -92.75251 -0.88398 -2.16715 -2.29258 -4.0294 -0.90773 -5.91625 z" fill="#fff8eb" fill-rule="evenodd"/>
  <path d="m 303.12733 778.64941 c -0.35493 -2.31342 1.7606 -3.30667 3.54154 -4.82526 106.61272 -49.34573 0.13081 0.007 106.54813 -49.25294 8.20294 -1.25858 14.32456 1.89729 18.45379 9.09601 8.79976 15.34118 8.73863 18.5261 10.79658 34.52413 1.0377 8.06681 0.3087 17.26385 -2.02021 28.89814 -1.62897 8.13746 -5.34886 15.37309 -13.55179 16.63167 -115.93391 -14.68635 0.50615 -0.45949 -116.37531 -14.79655 -2.15748 -0.90734 -4.47032 -1.22812 -4.82528 -3.54156 z" fill="#fff8eb" fill-rule="evenodd"/>
  <path d="m 274.67723 750.00563 c -1.8868 -1.38486 -1.09323 -3.5831 -0.90772 -5.91622 40.49387 -110.27928 0.0974 -0.0875 40.51381 -110.168 4.91041 -6.6903 11.47058 -8.7874 19.48065 -6.61695 17.07023 4.62549 19.27908 6.92079 32.04659 16.77792 6.43786 4.97033 12.42567 11.9891 19.00556 21.86257 4.6022 6.90591 7.0882 14.65263 2.17781 21.34293 -92.36248 71.59284 0.033 -0.68281 -92.75252 71.82703 -2.16715 0.88398 -4.0294 2.29258 -5.91624 0.90773 z" fill="#fff8eb" fill-rule="evenodd"/>
  <path d="m 236.19458 750.06173 c -2.31341 0.35493 -3.30666 -1.7606 -4.82525 -3.54154 -49.34574 -106.61272 0.007 -0.13075 -49.25295 -106.54813 -1.25858 -8.20294 1.89729 -14.32456 9.09601 -18.45379 15.34119 -8.79976 18.5261 -8.73863 34.52414 -10.79658 8.06681 -1.0377 17.26385 -0.3087 28.89813 2.02021 8.13746 1.62897 15.37309 5.34886 16.63167 13.55179 -14.68635 115.93391 -0.45948 -0.50616 -14.79655 116.37531 -0.90734 2.15748 -1.22812 4.47032 -3.54155 4.82528 z" fill="#fff8eb" fill-rule="evenodd"/>
  <path d="m 208.71324 777.00096 c -1.38485 1.8868 -3.58309 1.09323 -5.91621 0.90772 -110.27929 -40.49387 -0.0875 -0.0974 -110.168 -40.51381 -6.69031 -4.91041 -8.78741 -11.47058 -6.61695 -19.48065 4.62549 -17.07023 6.92078 -19.27908 16.777911 -32.04659 4.97034 -6.43786 11.98911 -12.42567 21.86257 -19.00556 6.90591 -4.6022 14.65263 -7.0882 21.34293 -2.17781 71.59284 92.36248 -0.68281 -0.033 71.82703 92.75252 0.88398 2.16715 2.29258 4.0294 0.90774 5.91624 z" fill="#fff8eb" fill-rule="evenodd"/>
  <path d="m 208.11634 813.73995 c 0.35494 2.3134 -1.76059 3.30666 -3.54153 4.82525 -106.61273 49.34574 -0.13075 -0.007 -106.54814 49.25295 -8.202951 1.25858 -14.324561 -1.89729 -18.453791 -9.09601 -8.79976 -15.34119 -8.73864 -18.5261 -10.79658 -34.52414 -1.03769 -8.06681 -0.3087 -17.26386 2.02021 -28.89813 1.62897 -8.13746 5.34886 -15.37309 13.55179 -16.63168 115.93391 14.68636 -0.50616 0.45949 116.37531 14.79656 2.15748 0.90734 4.47032 1.22812 4.82528 3.54154 z" fill="#fff8eb" fill-rule="evenodd"/>
 </g>
</svg>
