<?xml version="1.0" encoding="UTF-8" standalone="no"?>
<!-- Created with Inkscape (http://www.inkscape.org/) -->

<svg
   xmlns:dc="http://purl.org/dc/elements/1.1/"
   xmlns:cc="http://creativecommons.org/ns#"
   xmlns:rdf="http://www.w3.org/1999/02/22-rdf-syntax-ns#"
   xmlns:svg="http://www.w3.org/2000/svg"
   xmlns="http://www.w3.org/2000/svg"
   xmlns:sodipodi="http://sodipodi.sourceforge.net/DTD/sodipodi-0.dtd"
   xmlns:inkscape="http://www.inkscape.org/namespaces/inkscape"
   width="512"
   height="512"
   id="svg2"
   version="1.1"
   inkscape:version="0.48.4 r9939"
   sodipodi:docname="comix.svg">
  <defs
     id="defs4" />
  <sodipodi:namedview
     id="base"
     pagecolor="#ffffff"
     bordercolor="#666666"
     borderopacity="1.0"
     inkscape:pageopacity="0.0"
     inkscape:pageshadow="2"
     inkscape:zoom="1.979899"
     inkscape:cx="247.94905"
     inkscape:cy="366.49036"
     inkscape:document-units="px"
     inkscape:current-layer="layer1"
     showgrid="false"
     inkscape:window-width="1309"
     inkscape:window-height="750"
     inkscape:window-x="55"
     inkscape:window-y="-3"
     inkscape:window-maximized="1" />
  <metadata
     id="metadata7">
    <rdf:RDF>
      <cc:Work
         rdf:about="">
        <dc:format>image/svg+xml</dc:format>
        <dc:type
           rdf:resource="http://purl.org/dc/dcmitype/StillImage" />
        <dc:title />
      </cc:Work>
    </rdf:RDF>
  </metadata>
  <g
     inkscape:label="Layer 1"
     inkscape:groupmode="layer"
     id="layer1"
     transform="translate(0,-540.36218)">
    <path
       sodipodi:type="arc"
       style="fill:#803f43;fill-rule:evenodd;stroke:none"
       id="path2985"
       sodipodi:cx="202.85715"
       sodipodi:cy="-316.57144"
       sodipodi:rx="360"
       sodipodi:ry="360"
       d="m 562.85715,-316.57144 c 0,198.82251 -161.17749,359.999998 -360,359.999998 -198.8225127,0 -360,-161.177488 -360,-359.999998 0,-198.82251 161.1774873,-360 360,-360 198.82251,0 360,161.17749 360,360 z"
       transform="matrix(0.69444444,0,0,0.69444444,115.12698,1016.2035)" />
    <g
       id="g3795"
       transform="matrix(1.7241173,0,0,1.7241173,-1680.8112,-481.38312)">
      <path
         sodipodi:type="arc"
         style="fill:#999647;fill-rule:evenodd;stroke:none"
         id="path2994"
         sodipodi:cx="202.85715"
         sodipodi:cy="-316.57144"
         sodipodi:rx="360"
         sodipodi:ry="360"
         d="m 562.85715,-316.57144 c 0,198.82251 -161.17749,359.999998 -360,359.999998 -198.8225127,0 -360,-161.177488 -360,-359.999998 0,-198.82251 161.1774873,-360 360,-360 198.82251,0 360,161.17749 360,360 z"
         transform="matrix(0.32966713,0,0,0.32966713,1056.4886,864.23737)" />
      <path
         id="path3790"
         transform="translate(0,540.36218)"
         d="m 1123.375,100.84375 c -65.5452,0 -118.6875,53.111 -118.6875,118.65625 0,65.54525 53.1423,118.6875 118.6875,118.6875 65.5452,0 118.6562,-53.14225 118.6562,-118.6875 0,-65.54525 -53.111,-118.65625 -118.6562,-118.65625 z m 0,6.5625 c 61.3611,0 111.0937,49.73269 111.0938,111.09375 0,61.36106 -49.7327,111.09375 -111.0938,111.09375 -61.3611,0 -111.125,-49.73269 -111.125,-111.09375 0,-61.36106 49.7639,-111.09375 111.125,-111.09375 z"
         style="fill:#7a7733;fill-opacity:1;fill-rule:evenodd;stroke:none"
         inkscape:connector-curvature="0" />
      <g
         id="g3770">
        <path
           sodipodi:type="arc"
           style="fill:#282629;fill-rule:evenodd;stroke:none"
           id="path2996"
           sodipodi:cx="1071.7858"
           sodipodi:cy="212.35715"
           sodipodi:rx="19.285715"
           sodipodi:ry="19.285715"
           d="m 1091.0715,212.35715 c 0,10.6512 -8.6345,19.28571 -19.2857,19.28571 -10.6512,0 -19.2857,-8.63451 -19.2857,-19.28571 0,-10.65121 8.6345,-19.28572 19.2857,-19.28572 10.6512,0 19.2857,8.63451 19.2857,19.28572 z"
           transform="matrix(0.75925927,0,0,0.75925927,244.8082,601.12805)" />
        <path
           sodipodi:type="arc"
           style="fill:#fff8eb;fill-rule:evenodd;stroke:none"
           id="path3768"
           sodipodi:cx="1058.0085"
           sodipodi:cy="211.9847"
           sodipodi:rx="3.2829957"
           sodipodi:ry="3.2829957"
           d="m 1061.2915,211.9847 c 0,1.81314 -1.4698,3.28299 -3.283,3.28299 -1.8131,0 -3.283,-1.46985 -3.283,-3.28299 0,-1.81315 1.4699,-3.283 3.283,-3.283 1.8132,0 3.283,1.46985 3.283,3.283 z"
           transform="translate(0,541.4986)" />
      </g>
      <g
         transform="translate(128.21429,0)"
         id="g3774">
        <path
           transform="matrix(0.75925927,0,0,0.75925927,244.8082,601.12805)"
           d="m 1091.0715,212.35715 c 0,10.6512 -8.6345,19.28571 -19.2857,19.28571 -10.6512,0 -19.2857,-8.63451 -19.2857,-19.28571 0,-10.65121 8.6345,-19.28572 19.2857,-19.28572 10.6512,0 19.2857,8.63451 19.2857,19.28572 z"
           sodipodi:ry="19.285715"
           sodipodi:rx="19.285715"
           sodipodi:cy="212.35715"
           sodipodi:cx="1071.7858"
           id="path3776"
           style="fill:#282629;fill-rule:evenodd;stroke:none"
           sodipodi:type="arc" />
        <path
           transform="translate(0,541.4986)"
           d="m 1061.2915,211.9847 c 0,1.81314 -1.4698,3.28299 -3.283,3.28299 -1.8131,0 -3.283,-1.46985 -3.283,-3.28299 0,-1.81315 1.4699,-3.283 3.283,-3.283 1.8132,0 3.283,1.46985 3.283,3.283 z"
           sodipodi:ry="3.2829957"
           sodipodi:rx="3.2829957"
           sodipodi:cy="211.9847"
           sodipodi:cx="1058.0085"
           id="path3778"
           style="fill:#fff8eb;fill-rule:evenodd;stroke:none"
           sodipodi:type="arc" />
      </g>
      <rect
         transform="translate(0,540.36218)"
         y="263.42856"
         x="1022.5"
         height="6.0714288"
         width="198.57143"
         id="rect3780"
         style="fill:#282629;fill-opacity:1;fill-rule:evenodd;stroke:none" />
      <path
         sodipodi:nodetypes="cccc"
         inkscape:connector-curvature="0"
         id="path3782"
         d="m 1074.7781,807.94112 -0.3772,22.14568 c -15.1226,-0.4484 -24.4599,-21.44714 -24.7148,-21.54714 z"
         style="fill:#ffffff;stroke:#282629;stroke-width:3;stroke-linecap:butt;stroke-linejoin:miter;stroke-miterlimit:4;stroke-opacity:1;stroke-dasharray:none" />
      <path
         style="fill:#ffffff;stroke:#282629;stroke-width:3;stroke-linecap:butt;stroke-linejoin:miter;stroke-miterlimit:4;stroke-opacity:1;stroke-dasharray:none"
         d="m 1169.5075,807.94112 0.3772,22.14568 c 15.1226,-0.4484 24.4599,-21.44714 24.7148,-21.54714 z"
         id="path3784"
         inkscape:connector-curvature="0"
         sodipodi:nodetypes="cccc" />
      <path
         sodipodi:nodetypes="cccsc"
         inkscape:connector-curvature="0"
         id="path3786"
         d="m 1187.0868,678.04583 21.25,20.53571 c 20.2741,-10.07934 21.7892,-50.46043 10.7143,-56.42857 -1.9143,-1.14228 -2.8553,-0.13705 -3.6516,2.0228 -5.5882,15.15818 -14.8765,26.36292 -28.3127,33.87006 z"
         style="fill:#282629;stroke:none" />
      <path
         style="fill:#282629;stroke:none"
         d="m 1053.672,679.56106 -21.25,20.53571 c -20.2741,-10.07934 -21.7892,-50.46043 -10.7143,-56.42857 1.9143,-1.14228 2.8553,-0.13705 3.6516,2.0228 5.5882,15.15818 14.8765,26.36292 28.3127,33.87006 z"
         id="path3788"
         inkscape:connector-curvature="0"
         sodipodi:nodetypes="cccsc" />
    </g>
    <path
       style="fill:#e4a146;fill-rule:evenodd;stroke:#e4a146;stroke-width:3.38425922px;stroke-linecap:butt;stroke-linejoin:miter;stroke-opacity:1"
       d="m 253.84375,578.45612 c -56.73977,0 -102.71875,9.21454 -102.71875,20.5625 0,11.34795 45.97898,20.53125 102.71875,20.53125 56.73977,0 102.75,-9.1833 102.75,-20.53125 0,-11.34796 -46.01023,-20.5625 -102.75,-20.5625 z m 0,3.96875 c 45.80556,0 82.9375,7.43264 82.9375,16.59375 0,9.16111 -37.13194,16.5625 -82.9375,16.5625 -45.80556,0 -82.9375,-7.40139 -82.9375,-16.5625 0,-9.16111 37.13194,-16.59375 82.9375,-16.59375 z"
       id="path3810"
       inkscape:connector-curvature="0" />
  </g>
</svg>
