<svg xmlns="http://www.w3.org/2000/svg" width="512" height="512">
 <g transform="translate(0,-540.36218)">
  <path d="M 506 796.36218 C 506 934.43337 394.07119 1046.3622 256 1046.3622 117.92881 1046.3622 6 934.43337 6 796.36218 6 658.291 117.92881 546.36219 256 546.36219 c 138.07119 0 250 111.92881 250 249.99999 z" fill="#0078ad" fill-rule="evenodd"/>
  <path d="m 256 586.29988 c -116.01418 0 -210.06224 94.04808 -210.06224 210.06224 0 116.01418 94.04806 210.06228 210.06224 210.06228 116.01418 0 210.06224 -94.04809 210.06224 -210.06228 0 -116.01416 -94.04806 -210.06224 -210.06224 -210.06224 z" fill="none" stroke="#fff8eb" stroke-width="29.875519"/>
  <path d="m 254.59536 644.45793 c -4.83175 0.0411 -9.75364 0.41375 -14.73897 1.16538 -32.51925 4.90292 -56.75988 23.55949 -71.22898 46.31451 -8.79747 13.83495 -14.89846 30.75897 -15.31554 51.85312 -0.42692 21.58954 6.29356 38.23425 14.57948 52.58914 4.14395 7.17911 7.86257 14.48252 12.17509 21.39999 12.91883 20.72162 26.88323 40.44529 38.93584 61.81402 16.24895 28.8081 29.66488 59.89648 37.27369 97.2476 11.0078 -56.66762 36.1452 -98.02416 62.92413 -138.57553 8.99059 -13.61434 17.94689 -27.2202 25.09242 -42.07009 3.66052 -7.60737 7.77682 -14.73227 10.33508 -23.25232 2.5278 -8.4174 4.31674 -18.56285 4.05427 -29.52082 -0.51266 -21.38837 -6.62396 -37.78941 -15.49948 -51.66912 -8.50342 -13.29814 -19.68748 -24.58199 -34.13324 -33.02922 -14.3634 -8.39878 -33.51609 -14.44495 -54.45379 -14.26666 z m 1.40456 63.1082 c 19.87319 0 35.98561 16.11247 35.98561 35.98559 0 19.87314 -16.11242 35.98561 -35.98561 35.98561 -19.87311 0 -35.97943 -16.11247 -35.97943 -35.98561 0 -19.87312 16.10632 -35.98559 35.97943 -35.98559 z" fill="#fff8eb" fill-rule="evenodd" stroke="#fff8eb" stroke-width="7.262136" stroke-miterlimit="10"/>
 </g>
</svg>
