<svg xmlns="http://www.w3.org/2000/svg" xmlns:xlink="http://www.w3.org/1999/xlink" width="512" height="512">
 <defs>
  <linearGradient id="0">
   <stop stop-color="#515151"/>
   <stop offset="1" stop-color="#282629"/>
  </linearGradient>
  <radialGradient xlink:href="#0" id="1" cx="202.85715" cy="-316.57144" r="360" gradientUnits="userSpaceOnUse"/>
 </defs>
 <g transform="translate(0,-540.36218)">
  <path d="m 562.85715 -316.57144 c 0 198.82251 -161.17749 360 -360 360 -198.82251 0 -360 -161.17749 -360 -360 0 -198.82251 161.17749 -360 360 -360 198.82251 0 360 161.17749 360 360 z" transform="matrix(0.69444444,0,0,0.69444444,115.12698,1016.2035)" fill="url(#1)" fill-rule="evenodd"/>
  <path d="m 183.92655 636.79009 0 33.17771 -0.002 -0.002 0 133.17119 93.50514 -64.02146 84.778 57.80516 -178.28125 121.56033 0 38.57037 234.85011 -160.13059 -234.85 -160.13069 z" fill="#8db173" stroke="#8db173" stroke-linejoin="round" stroke-linecap="round" stroke-width="8.889522"/>
  <path d="m 256 563.53477 c -128.58703 0 -232.82741 104.24038 -232.82741 232.82741 0 128.58703 104.24038 232.82742 232.82741 232.82742 128.58703 0 232.82741 -104.24039 232.82741 -232.82742 C 488.82741 667.77515 384.58703 563.53477 256 563.53477 z m 0 27.26991 c 113.51949 0 205.5575 92.03801 205.5575 205.5575 0 113.51949 -92.03801 205.55752 -205.5575 205.55752 -113.51949 0 -205.5575 -92.03803 -205.5575 -205.55752 0 -113.51949 92.03801 -205.5575 205.5575 -205.5575 z" fill="#8db173" fill-rule="evenodd"/>
 </g>
</svg>
