<svg xmlns="http://www.w3.org/2000/svg" width="512" height="512">
 <g transform="translate(0,-540.36218)">
  <path d="m 562.85715 -316.57144 c 0 198.82251 -161.17749 360 -360 360 -198.82251 0 -360 -161.17749 -360 -360 0 -198.82251 161.17749 -360 360 -360 198.82251 0 360 161.17749 360 360 z" transform="matrix(0.69444444,0,0,0.69444444,115.12698,1016.2035)" fill="#8db173" fill-rule="evenodd"/>
  <path d="m 153.4861 630.12524 c -42.6837 0 -42.60038 27.08154 -42.60038 27.08154 l 0 251.88745 19.54948 19.21917 c 0 0 170.66667 -23.12171 197.82898 -30.86714 C 355.42658 889.70174 355.4 866.28792 355.4 866.28792 l 0 -205.29555 c 0 0 -186.39259 -30.86713 -201.9139 -30.86713 z m 53.68799 48.04789 c 55.17481 0 55.14709 63.48145 55.14709 63.48145 l 0 63.48147 c 0 0 -0.10585 21.36285 -12.83849 34.07032 -12.73246 12.70654 -25.3851 16.88957 -25.3851 16.88957 0 0 -0.0281 8.57663 8.4617 12.81277 8.48836 4.23521 12.83849 4.0768 12.83849 4.0768 l 0 16.88956 c 0 0 -4.48265 4.36799 -17.21528 4.36799 -12.73246 0 -25.22584 -8.55008 -29.47011 -21.25755 -4.2441 -12.70655 -4.37661 -16.88957 -4.37661 -16.88957 0 0 -10.37967 2.1628 -25.3852 -12.81277 -8.48845 -8.47135 -17.21519 -25.43966 -17.21519 -38.14712 l 0 -67.55823 c 0 0 0.26416 -59.40469 55.4387 -59.40469 z m 84.03363 8.736 12.83849 0 0 33.77912 21.00841 0 0 16.88957 -21.00841 0 0 80.66219 c 0 0 4.05817 8.44478 12.54671 8.44478 6.36632 0 8.06371 -2.59418 8.4617 -3.78559 l 0 16.30717 c 0 0 -4.1642 8.44479 -25.38519 8.44479 -21.22109 0 -21.3002 -20.96637 -21.3002 -20.96637 l 0 -89.10697 -8.4617 0 0 -16.88957 8.4617 0 12.83849 -33.77912 z m -81.40747 12.52157 c -21.221 0 -21.30019 25.33435 -21.30019 25.33435 l 0 80.371 c 0 0 0.0745 29.70234 21.30019 29.70234 21.221 0 21.3002 -29.70234 21.3002 -29.70234 l 0 -84.73899 c 0 0 -0.0746 -20.96636 -21.3002 -20.96636 z" fill="#fff"/>
  <g transform="matrix(0.9974911,-0.07079194,0.07079194,0.9974911,-48.719365,8.994614)">
   <path d="m 373.70929 816.1133 -89.44523 89.44522 -10.99349 10.99349 -2.79762 2.79763 -22.31534 69.94065 a 9.103771 10.142807 45 0 0 2.92897 10.07408 9.103771 10.142807 45 0 0 8.1696 1.10333 l 70.92572 -22.38105 2.31166 -2.31166 10.67826 -10.67826 89.76045 -89.76045 -59.22298 -59.22298 z m -59.10478 119.07642 a 2.540616 2.540616 0 0 1 0.86687 2.02269 l -0.98508 21.18578 3.87465 3.87465 a 2.540616 2.540616 0 0 1 -1.14269 4.24241 l -33.45331 8.94452 a 2.540616 2.540616 0 0 1 -2.45613 -0.64359 l -6.48839 -6.48839 a 2.540616 2.540616 0 0 1 -0.65672 -2.49553 l 9.75886 -34.37271 a 2.540616 2.540616 0 0 1 4.24241 -1.11643 l 5.21435 5.21436 19.42577 -0.98508 a 2.540616 2.540616 0 0 1 1.79941 0.61732 z" fill="#414141" fill-rule="evenodd"/>
   <path transform="translate(0,540.36218)" d="m 424.875 228.1875 c -2.37243 0.11205 -4.3193 0.84983 -5.75 2.21875 l -0.0312 -0.0312 -0.0937 0.125 -13.875 13.84375 59.21875 59.25 13.875 -13.875 c 0.0314 -0.0314 0.063 -0.0618 0.0937 -0.0937 6.40905 -6.6599 -1.51535 -25.07785 -17.84375 -41.40625 C 447.65093 235.40093 433.56624 227.777 424.875 228.1875 z" fill="#cd1d31" fill-rule="evenodd"/>
   <path d="m 397.4389 792.40113 59.23002 59.23002 -14.66807 14.66807 -59.23002 -59.23002 z" fill="#414141" fill-rule="evenodd"/>
  </g>
 </g>
</svg>
