<?xml version="1.0" encoding="UTF-8" standalone="no"?>
<!-- Created with Inkscape (http://www.inkscape.org/) -->

<svg
   xmlns:dc="http://purl.org/dc/elements/1.1/"
   xmlns:cc="http://creativecommons.org/ns#"
   xmlns:rdf="http://www.w3.org/1999/02/22-rdf-syntax-ns#"
   xmlns:svg="http://www.w3.org/2000/svg"
   xmlns="http://www.w3.org/2000/svg"
   xmlns:xlink="http://www.w3.org/1999/xlink"
   xmlns:sodipodi="http://sodipodi.sourceforge.net/DTD/sodipodi-0.dtd"
   xmlns:inkscape="http://www.inkscape.org/namespaces/inkscape"
   width="512"
   height="512"
   id="svg2"
   version="1.1"
   inkscape:version="0.48.4 r9939"
   sodipodi:docname="base.svg">
  <defs
     id="defs4">
    <linearGradient
       gradientUnits="userSpaceOnUse"
       y2="1013.0998"
       x2="25.985815"
       y1="1043.7949"
       x1="25.985815"
       id="linearGradient4050"
       xlink:href="#linearGradient4052"
       inkscape:collect="always" />
    <linearGradient
       gradientTransform="translate(-61.913469,-0.92552397)"
       gradientUnits="userSpaceOnUse"
       y2="-1003.7486"
       x2="85.247993"
       y1="-1051.4783"
       x1="85.247993"
       id="linearGradient1407"
       xlink:href="#linearGradient1409"
       inkscape:collect="always" />
    <linearGradient
       id="linearGradient1409">
      <stop
         style="stop-color:#1378c1;stop-opacity:1"
         offset="0"
         id="stop1411" />
      <stop
         style="stop-color:#329feb;stop-opacity:1"
         offset="1"
         id="stop1413" />
    </linearGradient>
    <linearGradient
       id="linearGradient4052">
      <stop
         id="stop4054"
         offset="0"
         style="stop-color:#bee0fa;stop-opacity:1" />
      <stop
         id="stop4056"
         offset="1"
         style="stop-color:#f5fbfe;stop-opacity:1" />
    </linearGradient>
    <linearGradient
       inkscape:collect="always"
       xlink:href="#linearGradient1409"
       id="linearGradient13041"
       gradientUnits="userSpaceOnUse"
       gradientTransform="matrix(6.3571409,0,0,6.3571409,315.26454,5724.9118)"
       x1="85.247993"
       y1="-1051.4783"
       x2="85.247993"
       y2="-1003.7486" />
  </defs>
  <sodipodi:namedview
     id="base"
     pagecolor="#ffffff"
     bordercolor="#666666"
     borderopacity="1.0"
     inkscape:pageopacity="0.0"
     inkscape:pageshadow="2"
     inkscape:zoom="0.49497475"
     inkscape:cx="546.76735"
     inkscape:cy="308.81463"
     inkscape:document-units="px"
     inkscape:current-layer="layer1"
     showgrid="false"
     inkscape:window-width="1309"
     inkscape:window-height="750"
     inkscape:window-x="55"
     inkscape:window-y="-3"
     inkscape:window-maximized="1" />
  <metadata
     id="metadata7">
    <rdf:RDF>
      <cc:Work
         rdf:about="">
        <dc:format>image/svg+xml</dc:format>
        <dc:type
           rdf:resource="http://purl.org/dc/dcmitype/StillImage" />
        <dc:title />
      </cc:Work>
    </rdf:RDF>
  </metadata>
  <g
     inkscape:label="Layer 1"
     inkscape:groupmode="layer"
     id="layer1"
     transform="translate(0,-540.36218)">
    <path
       sodipodi:type="arc"
       style="fill:#0078ad;fill-rule:evenodd;stroke:none"
       id="path2985"
       sodipodi:cx="202.85715"
       sodipodi:cy="-316.57144"
       sodipodi:rx="360"
       sodipodi:ry="360"
       d="m 562.85715,-316.57144 c 0,198.82251 -161.17749,359.999998 -360,359.999998 -198.8225127,0 -360,-161.177488 -360,-359.999998 0,-198.82251 161.1774873,-360 360,-360 198.82251,0 360,161.17749 360,360 z"
       transform="matrix(0.69444444,0,0,0.69444444,115.12698,1016.2035)" />
    <path
       style="fill:#fff8eb;fill-opacity:1;display:inline"
       id="path3033"
       inkscape:connector-curvature="0"
       d="m 256.18637,666.30496 c -0.29798,-0.13514 -14.16162,11.51504 -30.84661,26.0157 -24.16641,20.99974 -30.79189,26.39154 -32.33321,26.38817 -1.06405,-0.001 -18.20095,-1.61147 -38.27954,-3.71785 -20.07856,-2.10639 -36.63203,-3.69084 -36.79296,-3.53037 -0.31642,0.32094 -28.048444,92.02497 -28.430902,94.02748 -0.164197,0.85894 10.937282,10.7051 38.093722,33.81798 l 38.27954,32.51899 13.75087,0 c 7.53534,0 15.07951,-0.31249 16.9099,-0.53209 l 3.3448,-0.36317 -40.32355,-33.4472 c -22.19265,-18.35617 -40.30162,-33.81121 -40.32362,-34.37792 -0.0226,-0.54898 3.74972,-12.45338 8.36206,-26.57314 4.61234,-14.11889 9.20387,-28.75046 10.40606,-32.51814 2.16943,-6.79806 2.22639,-6.90193 4.45977,-6.87577 1.2378,0 15.93733,1.65793 32.51902,3.71702 l 30.10334,3.71702 23.5995,-20.25397 c 12.98005,-11.21437 24.44337,-21.183 25.45777,-22.11542 l 1.8582,-1.67142 18.58234,15.97952 c 10.19193,8.81913 21.59344,18.78944 25.45772,22.11458 l 7.06131,5.94671 32.14738,-3.90367 c 17.70413,-2.18663 32.21938,-3.92816 32.33319,-3.71616 0.36275,0.66721 21.55546,65.89609 21.55546,66.33949 0,0.23649 -18.23829,15.5319 -40.50943,34.00462 l -40.50942,33.63385 3.53068,0.36317 c 1.88704,0.23648 9.47761,0.5152 16.90986,0.53209 l 13.56509,0.17736 38.09372,-32.52406 c 20.97013,-17.82071 38.17285,-32.6364 38.27954,-33.0739 0.15996,-0.65876 -27.74194,-94.63726 -28.24512,-95.13979 -0.086,-0.13513 -16.71189,1.5895 -36.97875,3.71617 -20.26685,2.12158 -37.61285,3.82595 -38.65117,3.71533 -1.32983,-0.15204 -10.87412,-7.89095 -31.96156,-26.20321 -16.46589,-14.29204 -30.17716,-26.09257 -30.475,-26.1956 z m -0.37154,56.67661 -17.0957,17.28188 -16.90988,17.46767 0,15.05301 c -0.0515,23.64327 2.66913,43.71142 8.17619,60.76103 5.06297,15.67884 10.9675,26.19728 19.88306,35.122 2.99192,2.99321 5.60305,5.3876 5.94633,5.3876 1.38077,0 8.5385,-7.05228 12.26435,-12.07501 5.54181,-7.47625 10.19385,-16.65941 13.75088,-27.50387 5.7726,-17.60449 8.03167,-32.95226 8.54787,-58.34805 l 0.37154,-18.39671 -17.46737,-17.46767 -17.46737,-17.28188 z m 104.80421,35.30613 c -0.17474,-0.16892 -10.10729,0.8505 -22.11296,2.23055 -12.00563,1.36907 -22.26553,2.60047 -22.67038,2.60047 -0.47501,0 -0.74307,3.23223 -0.74307,9.1063 0,30.94722 -11.13541,68.2491 -27.68764,92.91093 -3.83455,5.71362 -4.20703,6.79131 -2.60151,5.76091 10.72034,-6.88757 87.09528,-71.49737 86.77935,-73.4002 -0.34712,-2.0912 -10.63704,-38.87957 -10.96404,-39.20896 z m -209.23672,0.36317 c -0.28783,0.31251 -2.81796,9.43062 -5.76051,20.25058 l -5.38885,19.5141 1.85822,1.85894 c 17.93622,15.70418 67.15821,56.92661 78.78896,65.96702 4.03536,3.13426 7.50425,5.50079 7.61874,5.38592 0.11491,-0.13513 -1.7492,-3.2221 -4.27394,-7.06072 -16.21251,-24.63143 -25.93579,-56.96209 -27.50182,-91.42448 -0.25421,-5.58523 -0.701,-10.03279 -0.92904,-10.03279 -0.22788,0 -10.16883,-1.23732 -22.11293,-2.60386 -11.94434,-1.36485 -22.011,-2.16214 -22.29895,-1.85218 z m 64.48059,126.72807 -40.50941,0.16891 40.3236,20.62473 c 22.10077,11.28027 40.30171,20.32828 40.50939,20.25396 0.20769,-0.13513 18.43876,-9.23215 40.50942,-20.4406 l 40.13777,-20.43809 -40.32359,-0.16891 c -22.18193,-0.11825 -58.44995,-0.11825 -80.64738,0.007 z" />
    <path
       style="fill:#fff8eb;fill-rule:evenodd;stroke:none"
       d="M 256 35.28125 C 134.10767 35.28125 35.28125 134.10767 35.28125 256 C 35.28125 377.89233 134.10767 476.71875 256 476.71875 C 377.89233 476.71875 476.71875 377.89233 476.71875 256 C 476.71875 134.10767 377.89233 35.28125 256 35.28125 z M 256 61.5625 C 363.38714 61.5625 450.4375 148.61286 450.4375 256 C 450.4375 363.38714 363.38714 450.4375 256 450.4375 C 148.61286 450.4375 61.5625 363.38714 61.5625 256 C 61.5625 148.61286 148.61286 61.5625 256 61.5625 z "
       transform="translate(0,540.36218)"
       id="path13020" />
  </g>
</svg>
