<svg xmlns="http://www.w3.org/2000/svg" xmlns:xlink="http://www.w3.org/1999/xlink" height="512" width="512">
 <defs>
  <linearGradient id="0">
   <stop stop-color="#444"/>
   <stop offset="1" stop-color="#282629"/>
  </linearGradient>
  <linearGradient y1="92.5396" x2="0" y2="7.01654" id="1" gradientUnits="userSpaceOnUse" gradientTransform="scale(1.0058652,0.994169)">
   <stop/>
   <stop offset="1" stop-opacity="0.588235"/>
  </linearGradient>
  <filter color-interpolation-filters="sRGB">
   <feGaussianBlur stdDeviation="1.71"/>
  </filter>
  <linearGradient y1="20.220806" x2="0" y2="138.66119" xlink:href="#2" gradientUnits="userSpaceOnUse"/>
  <linearGradient id="2">
   <stop stop-color="#fff"/>
   <stop offset="1" stop-color="#fff" stop-opacity="0"/>
  </linearGradient>
  <clipPath>
   <rect width="84" height="84" rx="6" x="6" y="6" fill="#fff"/>
  </clipPath>
  <filter x="-0.192" y="-0.192" width="1.384" height="1.384" color-interpolation-filters="sRGB">
   <feGaussianBlur stdDeviation="5.28"/>
  </filter>
  <linearGradient y2="7.01654" x2="0" y1="92.5396" gradientTransform="scale(1.0058652,0.994169)" gradientUnits="userSpaceOnUse" xlink:href="#1"/>
  <linearGradient y1="20.220806" x2="0" y2="138.66119" xlink:href="#2" gradientUnits="userSpaceOnUse"/>
  <clipPath>
   <rect width="84" height="84" rx="6" x="6" y="6" fill="#fff"/>
  </clipPath>
  <linearGradient y2="7.01654" x2="0" y1="92.5396" gradientTransform="scale(1.0058652,0.994169)" gradientUnits="userSpaceOnUse" xlink:href="#1"/>
  <linearGradient gradientUnits="userSpaceOnUse" xlink:href="#2" y2="138.66119" x2="0" y1="20.220806"/>
  <clipPath>
   <rect y="6" x="6" rx="6" height="84" width="84" fill="#fff"/>
  </clipPath>
  <linearGradient xlink:href="#1" gradientUnits="userSpaceOnUse" gradientTransform="scale(1.0058652,0.994169)" y1="92.5396" x2="0" y2="7.01654"/>
  <linearGradient y1="20.220806" x2="0" y2="138.66119" xlink:href="#2" gradientUnits="userSpaceOnUse"/>
  <clipPath>
   <rect width="84" height="84" rx="6" x="6" y="6" fill="#fff"/>
  </clipPath>
  <linearGradient y2="7.01654" x2="0" y1="92.5396" gradientTransform="scale(1.0058652,0.994169)" gradientUnits="userSpaceOnUse" xlink:href="#1"/>
  <linearGradient y1="20.220806" x2="0" y2="138.66119" xlink:href="#2" gradientUnits="userSpaceOnUse"/>
  <clipPath>
   <rect width="84" height="84" rx="6" x="6" y="6" fill="#fff"/>
  </clipPath>
  <linearGradient y2="7.01654" x2="0" y1="92.5396" gradientTransform="scale(1.0058652,0.994169)" gradientUnits="userSpaceOnUse" xlink:href="#1"/>
  <linearGradient y1="20.220806" x2="0" y2="138.66119" xlink:href="#2" gradientUnits="userSpaceOnUse"/>
  <clipPath>
   <rect width="84" height="84" rx="6" x="6" y="6" fill="#fff"/>
  </clipPath>
  <linearGradient y2="7.01654" x2="0" y1="92.5396" gradientTransform="scale(1.0058652,0.994169)" gradientUnits="userSpaceOnUse" xlink:href="#1"/>
  <linearGradient gradientUnits="userSpaceOnUse" xlink:href="#2" y2="138.66119" x2="0" y1="20.220806"/>
  <clipPath>
   <rect y="6" x="6" rx="6" height="84" width="84" fill="#fff"/>
  </clipPath>
  <linearGradient xlink:href="#1" gradientUnits="userSpaceOnUse" gradientTransform="scale(1.0058652,0.994169)" y1="92.5396" x2="0" y2="7.01654"/>
  <radialGradient xlink:href="#0" id="3" cx="222.85715" cy="246.28572" r="82.85714" gradientUnits="userSpaceOnUse"/>
 </defs>
 <g transform="translate(0,-540.36217)">
  <path d="m 305.71429 246.28572 c 0 45.76074 -37.09641 82.85714 -82.85714 82.85714 -45.76074 0 -82.85714 -37.0964 -82.85714 -82.85714 0 -45.76073 37.0964 -82.85714 82.85714 -82.85714 45.76073 0 82.85714 37.09641 82.85714 82.85714 z" transform="matrix(3.0172415,0,0,3.0172415,-416.41383,53.258672)" fill="url(#3)" fill-rule="evenodd"/>
  <text y="619.64386" x="-299.47046" font-family="Gentium Book Basic" word-spacing="0" line-height="125%" letter-spacing="0" font-size="208.33333"><tspan y="619.64386" x="-299.47046"/>
  </text>
  <text x="-2658.3013" y="897.75989" font-family="Gentium Book Basic" word-spacing="0" line-height="125%" letter-spacing="0" font-size="208.33333"><tspan x="-2658.3013" y="897.75989"/>
  </text>
  <text x="-2370.0864" y="670.47504" font-family="Gentium Book Basic" word-spacing="0" line-height="125%" letter-spacing="0" font-size="208.33333"><tspan x="-2370.0864" y="670.47504"/>
  </text>
  <text x="1824.5126" y="413.5752" font-family="Gentium Book Basic" word-spacing="0" line-height="125%" letter-spacing="0" font-size="208.33333"><tspan x="1824.5126" y="413.5752"/>
  </text>
  <text y="558.60944" x="-303.41788" font-family="Gentium Book Basic" word-spacing="0" line-height="125%" letter-spacing="0" font-size="208.33333"><tspan y="558.60944" x="-303.41788"/>
  </text>
  <text x="-2662.2485" y="836.72546" font-family="Gentium Book Basic" word-spacing="0" line-height="125%" letter-spacing="0" font-size="208.33333"><tspan x="-2662.2485" y="836.72546"/>
  </text>
  <text x="-2374.0337" y="609.44055" font-family="Gentium Book Basic" word-spacing="0" line-height="125%" letter-spacing="0" font-size="208.33333"><tspan x="-2374.0337" y="609.44055"/>
  </text>
  <path d="M 256 37.90625 C 135.55664 37.90625 37.90625 135.55664 37.90625 256 C 37.90625 376.44336 135.55664 474.09375 256 474.09375 C 376.44336 474.09375 474.09375 376.44336 474.09375 256 C 474.09375 135.55664 376.44336 37.90625 256 37.90625 z M 253.625 70.28125 C 305.31948 69.54968 355.17834 90.65351 391.1875 128.84375 L 395.4375 133.34375 L 392.28125 138.3125 C 390.55227 141.03934 383.17499 153.03495 375.875 165 C 368.57493 176.96505 356.83743 196.18879 349.78125 207.71875 C 342.72515 219.24871 335.16004 231.64031 332.96875 235.25 L 328.96875 241.8125 L 314.875 217.46875 C 307.12006 204.06947 284.4964 165.94643 264.59375 132.78125 C 244.69101 99.6161 228.6975 72.31934 229.0625 72.09375 C 229.4275 71.86816 235.80952 71.24389 243.25 70.71875 C 246.70905 70.47462 250.1787 70.33002 253.625 70.28125 z M 211.78125 75.71875 C 212.68268 75.68359 213.09406 75.93183 213.5625 76.4375 C 214.77561 77.74712 278.9375 184.41786 278.9375 185.125 C 278.9375 185.37704 235.17269 185.59375 181.65625 185.59375 C 128.13982 185.59375 84.34375 185.32015 84.34375 185 C 84.34375 184.67993 86.82199 179.4413 89.84375 173.34375 C 104.31787 144.13612 126.45985 119.17126 154.59375 100.40625 C 168.32758 91.24595 191.41728 80.82714 207.15625 76.6875 C 209.49519 76.07232 210.87982 75.75391 211.78125 75.71875 z M 405.03125 146.09375 C 405.82029 146.11569 407.12851 147.89593 410.75 153.3125 C 418.50747 164.9153 427.55153 183.35073 431.96875 196.625 C 444.16132 233.2656 444.97221 271.00095 434.375 307.9375 L 433.1875 312.03125 L 369.125 312.0625 C 333.88563 312.0705 305.0625 311.93496 305.0625 311.78125 C 305.0625 311.48681 311.67573 299.86043 324.25 278.125 C 331.80242 265.07031 339.00371 253.05573 348.15625 238.1875 C 350.8346 233.83657 359.00152 220.4963 366.3125 208.53125 C 386.22362 175.9451 403.26163 148.18677 404.34375 146.59375 C 404.55698 146.27987 404.76824 146.08644 405.03125 146.09375 z M 288.03125 199.84375 L 303.875 227.3125 C 312.57686 242.40959 319.78775 255.11293 319.90625 255.5625 C 320.02475 256.01215 318.5633 259.0493 316.65625 262.3125 C 306.56763 279.57525 294.86993 299.86056 291.71875 305.5625 L 288.15625 312.03125 L 256.28125 312.0625 L 224.40625 312.09375 L 222.9375 309.9375 C 221.07491 307.25147 193.88417 260.03263 192.6875 257.40625 C 191.90267 255.68383 192.39389 254.41683 197.28125 246.03125 C 200.30467 240.84383 206.26742 230.55283 210.53125 223.15625 C 214.79501 215.75967 219.56594 207.48318 221.125 204.78125 L 223.96875 199.875 L 256 199.875 L 288.03125 199.84375 z M 167.65625 199.96875 C 190.69361 199.94678 206.96875 200.0189 206.96875 200.15625 C 206.96875 200.33915 202.6359 207.90331 197.34375 216.96875 C 192.05167 226.03411 186.23293 236.11181 184.40625 239.375 C 178.8691 249.26657 174.17645 256.93078 146.875 301.0625 C 118.80755 346.43249 113.11695 355.68195 110.25 360.59375 C 108.53581 363.53063 106.91367 365.93829 106.625 365.9375 C 106.33626 365.93678 103.79559 362.46019 100.96875 358.21875 C 93.45983 346.95213 84.40726 328.40049 80.0625 315.34375 C 68.55492 280.76177 67.15883 245.4571 75.9375 210.34375 L 78.46875 200.21875 L 142.71875 200 C 151.55224 199.97217 159.97713 199.97607 167.65625 199.96875 z M 182.8125 270.40625 C 183.05488 270.13989 201.2776 301.59179 247.25 381.65625 C 265.58181 413.5825 280.44793 439.86457 280.28125 440.03125 C 280.11457 440.19793 276.46612 440.67472 272.15625 441.09375 C 262.96772 441.98728 248.27145 441.9354 238.21875 441 C 204.28822 437.84415 167.94717 423.13939 140.53125 401.4375 C 131.86974 394.58115 116.63286 379.25527 117.03125 377.8125 C 117.21367 377.15195 130.10643 355.98539 145.6875 330.75 C 161.26858 305.5146 175.94781 281.66584 178.3125 277.75 C 180.67719 273.83417 182.69906 270.53092 182.8125 270.40625 z M 367.625 326.53125 C 402.59212 326.51757 427.37325 326.62329 427.53125 326.78125 C 428.33863 327.5887 417.27928 348.56771 411.28125 357.625 C 402.94186 370.21794 397.18191 377.31802 387.25 387.25 C 367.07213 407.42787 343.14649 422.39257 316.125 431.71875 C 309.73736 433.92333 298.08627 437.15625 296.53125 437.15625 C 296.13278 437.15625 281.55633 412.31649 264.125 381.96875 L 232.4375 326.78125 L 329.78125 326.59375 C 343.16674 326.56612 355.96929 326.53581 367.625 326.53125 z" transform="translate(0,540.36217)" fill="#3e5873" fill-rule="evenodd" stroke="#3e5873" stroke-width="10"/>
  <path d="m 256 567.64085 c -126.3193 0 -228.72132 102.40202 -228.72132 228.72132 0 126.3193 102.40202 228.72133 228.72132 228.72133 126.3193 0 228.72132 -102.40203 228.72132 -228.72133 C 484.72132 670.04287 382.3193 567.64085 256 567.64085 z m 0 26.96052 c 111.43243 0 201.7608 90.32837 201.7608 201.7608 0 111.43243 -90.32837 201.76081 -201.7608 201.76081 -111.43243 0 -201.7608 -90.32838 -201.7608 -201.76081 0 -111.43243 90.32837 -201.7608 201.7608 -201.7608 z" fill="#fff8eb" fill-rule="evenodd"/>
 </g>
</svg>
