<svg xmlns="http://www.w3.org/2000/svg" xmlns:xlink="http://www.w3.org/1999/xlink" width="512" height="512">
 <defs>
  <linearGradient id="0">
   <stop stop-color="#e47e9a"/>
   <stop offset="1" stop-color="#c74a6c"/>
  </linearGradient>
  <filter color-interpolation-filters="sRGB">
   <feGaussianBlur stdDeviation="1.71"/>
  </filter>
  <radialGradient xlink:href="#0" id="1" cx="256" cy="256.00004" r="250" gradientTransform="translate(0,1.8944003e-6)" gradientUnits="userSpaceOnUse"/>
 </defs>
 <path d="m 506 256.00004 c 0 138.07119 -111.92881 250 -250 250 -138.07119 0 -250 -111.92881 -250 -250 C 6 117.92886 117.92881 6.00005 256 6.00005 c 138.07119 0 250 111.92881 250 249.99999 z" fill="url(#1)" fill-rule="evenodd"/>
 <path d="m 256 45.93774 c -116.01418 0 -210.06224 94.04808 -210.06224 210.06224 0 116.01418 94.04806 210.06228 210.06224 210.06228 116.01418 0 210.06224 -94.04809 210.06224 -210.06228 C 466.06224 139.98582 372.01418 45.93774 256 45.93774 z" fill="none" stroke="#fff8eb" stroke-width="29.875519"/>
 <path d="m 248.5618 106.03382 c -64.44153 3.04167 -114.88843 61.49167 -112.31762 93.2808 2.50102 30.9266 80.87728 58.09188 79.9549 59.01433 -16.03535 13.53917 -26.61077 22.68397 -39.97743 34.90106 -32.18974 29.42072 -54.42634 51.24628 -43.15032 81.8586 13.0077 35.31357 41.44154 33.84999 74.87848 27.28621 C 294.13776 385.37601 435.99905 276.3499 428.77788 236.11926 422.93467 203.56661 343.6537 139.21706 296.7886 116.18684 282.14774 108.99198 265.4862 105.23756 248.5618 106.03382 z m 13.32588 55.84158 c 8.06206 -0.75523 17.45233 1.28458 27.92076 6.34559 22.86273 11.05354 46.54467 40.40001 0 57.11076 -12.65663 4.54414 -53.26298 -10.93203 -52.03421 -32.36282 1.11987 -19.78574 10.67667 -29.83487 24.11345 -31.09353 z" fill="#fff8eb" fill-rule="evenodd"/>
</svg>
