<svg xmlns="http://www.w3.org/2000/svg" xmlns:xlink="http://www.w3.org/1999/xlink" width="512" height="512">
 <defs>
  <linearGradient id="0">
   <stop stop-color="#5e5e5e"/>
   <stop offset="1" stop-color="#282629"/>
  </linearGradient>
  <filter color-interpolation-filters="sRGB">
   <feGaussianBlur stdDeviation="1.71"/>
  </filter>
  <radialGradient xlink:href="#0" id="1" cx="256" cy="256.00004" r="250" gradientTransform="translate(0,1.8944003e-6)" gradientUnits="userSpaceOnUse"/>
 </defs>
 <path d="m 506 256.00004 c 0 138.07119 -111.92881 250 -250 250 -138.07119 0 -250 -111.92881 -250 -250 C 6 117.92886 117.92881 6.00005 256 6.00005 c 138.07119 0 250 111.92881 250 249.99999 z" fill="url(#1)" fill-rule="evenodd"/>
 <path d="m 315.18606 110.8812 c -11.89416 2.98266 -28.59388 10.43536 -38.68151 14.96333 -8.47692 -6.75894 -156.8391 87.45973 -217.91305 127.19143 36.452921 -13.92777 117.313 -44.27693 124.04173 -36.41005 7.48659 8.75292 -47.8508 65.53014 -94.10476 143.76636 38.1724 -41.0955 110.63419 -135.14648 124.00282 -128.28803 0.87249 2.59537 -13.45906 23.94966 -32.41579 55.01814 -22.60687 37.05075 -39.51885 70.27948 -56.17168 102.17741 1.74455 -1.32579 -2.78946 8.85966 -5.0938 12.8509 20.6284 -23.163 72.08217 -96.39446 93.19489 -126.52976 19.30115 -27.54956 44.97735 -72.67479 63.94465 -72.92837 31.63231 -0.42293 70.85702 63.57908 111.75293 159.33233 6.97511 16.33145 6.04201 18.99378 9.81764 29.65929 2.93782 2.30468 3.86 -4.06954 4.77543 -5.11876 -0.43644 -9.42656 -5.62039 -29.35042 -14.45002 -60.93319 -19.4227 -69.4732 -39.62046 -145.19971 -87.63421 -179.67446 l 3.08995 -19.59824 c 3.42986 -4.45247 8.76662 -10.69756 11.84478 -15.47833 z" fill="#fff8eb" fill-rule="evenodd" stroke="#fff8eb" stroke-linejoin="round" stroke-linecap="round" stroke-width="9.155"/>
 <path d="m 256 45.93774 c -116.01418 0 -210.06224 94.04808 -210.06224 210.06224 0 116.01418 94.04806 210.06228 210.06224 210.06228 116.01418 0 210.06224 -94.04809 210.06224 -210.06228 C 466.06224 139.98582 372.01418 45.93774 256 45.93774 z" fill="none" stroke="#fff8eb" stroke-width="29.875519"/>
</svg>
