<svg xmlns="http://www.w3.org/2000/svg" xmlns:xlink="http://www.w3.org/1999/xlink" width="512" height="512">
 <defs>
  <linearGradient id="0">
   <stop stop-color="#b6f18c"/>
   <stop offset="1" stop-color="#8db173"/>
  </linearGradient>
  <filter color-interpolation-filters="sRGB">
   <feGaussianBlur stdDeviation="1.71"/>
  </filter>
  <linearGradient id="1">
   <stop stop-color="#e2f4c4"/>
   <stop offset="1" stop-color="#fdfff5"/>
  </linearGradient>
  <radialGradient xlink:href="#0" id="2" cx="256" cy="256.00004" r="250" gradientTransform="translate(0,1.8944003e-6)" gradientUnits="userSpaceOnUse"/>
  <linearGradient xlink:href="#1" gradientUnits="userSpaceOnUse" gradientTransform="matrix(27.629667,0,0,27.629667,1541.4818,-277.60518)" y1="13.990603" x2="0" y2="2.01185"/>
 </defs>
 <path d="m 506 256.00004 c 0 138.07119 -111.92881 250 -250 250 -138.07119 0 -250 -111.92881 -250 -250 C 6 117.92886 117.92881 6.00005 256 6.00005 c 138.07119 0 250 111.92881 250 249.99999 z" fill="url(#2)" fill-rule="evenodd"/>
 <path d="m 256 45.93774 c -116.01418 0 -210.06224 94.04808 -210.06224 210.06224 0 116.01418 94.04806 210.06228 210.06224 210.06228 116.01418 0 210.06224 -94.04809 210.06224 -210.06228 C 466.06224 139.98582 372.01418 45.93774 256 45.93774 z" fill="none" stroke="#fff8eb" stroke-width="29.875519"/>
 <path d="m 140.41419 126.125 -0.80961 30.95949 c -16.46345 -5.12006 -32.08725 -9.07976 -47.669833 -12.95376 -20.619773 29.53757 -32.740624 65.45972 -32.740624 104.21298 -14.842352 53.89099 52.739797 149.13057 40.506162 133.6504 10.504985 -1.47676 45.11282 -1.64711 66.815725 0.80961 31.74256 3.59239 49.14879 4.82081 70.07983 3.23844 47.66745 -3.60382 79.15441 -11.41808 114.09028 -28.49827 18.25817 -8.92657 22.12036 -12.93484 26.06939 -23.60823 3.76529 -10.17671 5.15839 -19.59255 3.23844 -19.59255 -0.67981 0 -6.63119 2.31379 -13.79575 5.69965 -26.88371 12.70401 -50.42971 19.03581 -70.92184 17.94095 -21.30238 -1.13995 -55.55264 -13.51027 -96.95887 -33.42069 l -19.59256 -8.93809 -14.67013 -36.69152 13.86051 8.93809 c 23.6426 15.69945 62.28857 34.24414 85.59197 41.61395 35.60073 11.25876 63.40176 9.68033 92.06883 -4.92243 10.10435 -5.14701 29.34027 -17.72931 29.34027 -19.52778 0 -3.39031 -9.83698 -36.40684 -15.47974 -51.36166 C 355.32616 196.27639 345.41 183.6248 322.15541 172.53184 296.33825 160.21632 267.7299 151.87654 215.41645 139.95314 190.40554 134.64257 165.79771 129.29005 140.41419 126.125 z m 144.2401 71.69905 c 17.09173 -0.36421 33.38225 10.84717 38.31079 30.11749 2.48215 9.70794 1.71912 16.64426 -3.23844 26.94382 -7.24851 15.05629 -23.28277 23.19156 -40.73963 20.3374 -12.31064 -2.01262 -22.95975 -9.93716 -28.53065 -21.98901 -6.78546 -14.67896 -3.62962 -34.1783 8.12849 -44.82 7.70099 -6.97021 17.11649 -10.40254 26.06944 -10.5897 z m 9.00286 20.36979 c -13.63976 0 -22.20975 10.00302 -14.67014 17.09896 6.11555 5.75542 16.32563 6.61352 24.45023 2.46121 5.26159 -2.68927 7.02567 -6.81997 5.66726 -12.2413 -0.99963 -3.98956 -8.81054 -7.31887 -15.44735 -7.31887 z" fill="#fff8eb" color="#000"/>
</svg>
