<?xml version="1.0" encoding="UTF-8" standalone="no"?>
<svg
   xmlns:dc="http://purl.org/dc/elements/1.1/"
   xmlns:cc="http://creativecommons.org/ns#"
   xmlns:rdf="http://www.w3.org/1999/02/22-rdf-syntax-ns#"
   xmlns:svg="http://www.w3.org/2000/svg"
   xmlns="http://www.w3.org/2000/svg"
   xmlns:xlink="http://www.w3.org/1999/xlink"
   xmlns:sodipodi="http://sodipodi.sourceforge.net/DTD/sodipodi-0.dtd"
   xmlns:inkscape="http://www.inkscape.org/namespaces/inkscape"
   width="512"
   height="512"
   id="svg2"
   version="1.1"
   inkscape:version="0.48.4 r9939"
   sodipodi:docname="distributor-logo-base.svg">
  <metadata
     id="metadata26">
    <rdf:RDF>
      <cc:Work
         rdf:about="">
        <dc:format>image/svg+xml</dc:format>
        <dc:type
           rdf:resource="http://purl.org/dc/dcmitype/StillImage" />
        <dc:title></dc:title>
      </cc:Work>
    </rdf:RDF>
  </metadata>
  <sodipodi:namedview
     pagecolor="#ffffff"
     bordercolor="#666666"
     borderopacity="1"
     objecttolerance="10"
     gridtolerance="10"
     guidetolerance="10"
     inkscape:pageopacity="0"
     inkscape:pageshadow="2"
     inkscape:window-width="1309"
     inkscape:window-height="750"
     id="namedview24"
     showgrid="false"
     showguides="true"
     inkscape:guide-bbox="true"
     inkscape:zoom="1.0605469"
     inkscape:cx="273.9263"
     inkscape:cy="262.017"
     inkscape:window-x="55"
     inkscape:window-y="-3"
     inkscape:window-maximized="1"
     inkscape:current-layer="svg2" />
  <defs
     id="defs4">
    <linearGradient
       id="0">
      <stop
         stop-color="#44afde"
         id="stop7" />
      <stop
         offset="1"
         stop-color="#0078ad"
         id="stop9" />
    </linearGradient>
    <radialGradient
       xlink:href="#0"
       id="1"
       cx="202.85715"
       cy="-316.57144"
       r="360"
       gradientUnits="userSpaceOnUse" />
    <radialGradient
       inkscape:collect="always"
       xlink:href="#0"
       id="radialGradient12997"
       gradientUnits="userSpaceOnUse"
       cx="202.85715"
       cy="-316.57144"
       r="360"
       gradientTransform="matrix(0.69444444,0,0,0.69444444,115.12698,475.84132)" />
  </defs>
  <path
     inkscape:connector-curvature="0"
     style="fill:url(#radialGradient12997);fill-rule:evenodd"
     id="path18"
     d="m 506,256.00004 c 0,138.07119 -111.92881,250 -250,250 -138.07119,0 -249.9999985,-111.92881 -249.9999985,-250 C 6.0000015,117.92886 117.92881,6.0000452 256,6.0000452 c 138.07119,0 250,111.9288148 250,249.9999948 z" />
  <path
     style="fill:#fff8eb;fill-rule:evenodd"
     inkscape:connector-curvature="0"
     id="path20"
     d="m 255.96811,56.486675 c -14.56817,35.717235 -23.35498,59.080275 -39.57456,93.735705 9.94466,10.54147 22.15123,22.81736 41.97484,36.68196 -21.31218,-8.76989 -35.8498,-17.57463 -46.71396,-26.71136 -20.75809,43.31499 -53.28021,105.01522 -119.277702,223.59952 51.871932,-29.94648 92.082082,-48.40896 129.555952,-55.45381 -1.60915,-6.92082 -2.52402,-14.40718 -2.46186,-22.21822 l 0.0638,-1.66182 c 0.82363,-33.23291 18.11089,-58.78912 38.58984,-57.05387 20.47901,1.73515 36.39703,30.09876 35.57409,63.33166 -0.1552,6.25334 -0.85973,12.26908 -2.09262,17.84847 37.06701,7.25099 76.84721,25.6662 128.01735,55.20759 -10.08976,-18.57591 -19.09574,-35.32077 -27.6961,-51.26854 -13.54709,-10.49972 -27.67713,-24.16537 -56.50001,-38.95906 19.81115,5.14773 33.99571,11.08686 45.05226,17.72553 C 293.03487,148.48808 285.95391,126.85508 255.96799,56.486675 z" />
  <path
     style="fill:none;stroke:#fff8eb;stroke-width:30;stroke-miterlimit:4;stroke-opacity:1;stroke-dasharray:none"
     d="m 256,52.91843 c -112.15885,0 -203.08155,90.92272 -203.08155,203.08155 0,112.15885 90.9227,203.08159 203.08155,203.08159 112.15885,0 203.08155,-90.92273 203.08155,-203.08159 C 459.08155,143.84115 368.15885,52.91843 256,52.91843 z"
     id="path13769"
     inkscape:connector-curvature="0" />
</svg>
