<svg xmlns="http://www.w3.org/2000/svg" width="512" height="512">
 <path d="m 562.85715 -316.57144 c 0 198.82251 -161.17749 360 -360 360 -198.82251 0 -360 -161.17749 -360 -360 0 -198.82251 161.17749 -360 360 -360 198.82251 0 360 161.17749 360 360 z" transform="matrix(0.69444444 0 0 0.69444444 115.12698 475.84132)" fill="#63337a" fill-rule="evenodd"/>
 <path d="M 256 6 C 117.92881 6 6 117.92881 6 256 C 6 394.07119 117.92881 506 256 506 C 261.27721 506 266.52271 505.82223 271.71875 505.5 C 140.9673 497.3915 37.4375 388.79397 37.4375 256 C 37.4375 123.20603 140.9673 14.608501 271.71875 6.5 C 266.52271 6.177769 261.27721 6 256 6 z" transform="matrix(1 0 0 1 0 0)" fill="#fff" fill-rule="evenodd" fill-opacity="0.392157"/>
 <path d="M 484.8125 155.21875 L 9.875 211.96875 C 8.426985 220.11682 7.356896 228.38067 6.71875 236.78125 L 493.78125 178.59375 C 491.18488 170.61254 488.1676 162.82487 484.8125 155.21875 z M 499.25 198.09375 L 6 257.03125 C 6.03327 265.23225 6.444999 273.34711 7.25 281.34375 L 503.6875 222.03125 C 502.58607 213.92559 501.10906 205.93305 499.25 198.09375 z M 505.625 241.9375 L 10.09375 301.15625 C 11.567665 309.23382 13.394775 317.1822 15.625 324.96875 L 505.78125 266.40625 C 505.92267 262.95371 506 259.48727 506 256 C 506 251.2837 505.88278 246.58938 505.625 241.9375 z M 504.125 286.75 L 22.0625 344.34375 C 25.06816 352.29843 28.479999 360.04986 32.25 367.59375 L 499.75 311.71875 C 501.61101 303.54232 503.08738 295.20953 504.125 286.75 z" transform="matrix(1 0 0 1 0 0)" fill="#fff" fill-rule="evenodd" fill-opacity="0.392157"/>
</svg>
