<svg xmlns="http://www.w3.org/2000/svg" xmlns:xlink="http://www.w3.org/1999/xlink" width="512" height="512">
 <defs>
  <linearGradient id="0">
   <stop stop-color="#309bca"/>
   <stop stop-color="#0078ad" offset="1"/>
  </linearGradient>
  <radialGradient xlink:href="#0" id="1" gradientUnits="userSpaceOnUse" cx="202.85715" cy="-316.57144" r="360" gradientTransform="matrix(0.69444444,0,0,0.69444444,115.12698,1016.2035)"/>
 </defs>
 <g transform="translate(0,-540.36218)">
  <path d="M 506 796.36222 C 506 934.43341 394.07119 1046.3622 256 1046.3622 117.92881 1046.3622 6 934.43341 6 796.36222 6 658.29104 117.92881 546.36223 256 546.36223 c 138.07119 0 250 111.92881 250 249.99999 z" fill="url(#1)" fill-rule="evenodd"/>
  <path d="M 256 32.25 C 132.434 32.25 32.25 132.434 32.25 256 C 32.25 379.566 132.434 479.75 256 479.75 C 379.566 479.75 479.75 379.566 479.75 256 C 479.75 132.434 379.566 32.25 256 32.25 z M 161.21875 97.5 L 164.65625 97.5 L 198.6875 97.5 L 202.15625 97.5 L 202.15625 100.96875 L 202.15625 164.3125 L 202.15625 167.78125 L 198.6875 167.78125 L 164.65625 167.78125 L 161.21875 167.78125 L 161.21875 164.3125 L 161.21875 100.96875 L 161.21875 97.5 z M 297.375 97.5 L 300.84375 97.5 L 334.875 97.5 L 338.3125 97.5 L 338.3125 100.96875 L 338.3125 164.3125 L 338.3125 167.78125 L 334.875 167.78125 L 300.84375 167.78125 L 297.375 167.78125 L 297.375 164.3125 L 297.375 100.96875 L 297.375 97.5 z M 139.9375 196.78125 A 3.448345 3.448345 0 0 1 139.96875 196.78125 A 3.448345 3.448345 0 0 1 140.375 196.78125 A 3.448345 3.448345 0 0 1 142.3125 197.4375 C 187.34408 229.56865 228.26613 240.62945 265.875 238.25 C 303.48387 235.87055 337.95953 219.95962 369.6875 197.4375 A 3.448345 3.448345 0 0 1 374.84375 201.625 C 351.65759 253.76546 296.58603 273.82573 245.53125 270.875 C 220.00386 269.39964 195.32678 262.25803 175.75 250.34375 C 156.17322 238.42947 141.58285 221.63065 136.9375 201 A 3.448345 3.448345 0 0 1 139.9375 196.78125 z M 70.6875 307.9375 L 212.09375 307.9375 C 234.40462 337.76412 265.32166 391.73799 331.34375 389.0625 C 314.8226 373.26567 292.60183 334.02662 319.875 307.9375 L 441.3125 307.9375 C 418.65522 388.98012 344.27841 448.40625 256 448.40625 C 167.72159 448.40625 93.34478 388.98012 70.6875 307.9375 z" transform="translate(0,540.36218)" fill="#fff8eb" fill-rule="evenodd"/>
 </g>
</svg>
