<svg xmlns="http://www.w3.org/2000/svg" width="512" height="512">
 <g transform="translate(0,-540.36218)">
  <path d="m 562.85715 -316.57144 c 0 198.82251 -161.17749 360 -360 360 -198.82251 0 -360 -161.17749 -360 -360 0 -198.82251 161.17749 -360 360 -360 198.82251 0 360 161.17749 360 360 z" transform="matrix(0.69444444,0,0,0.69444444,115.12698,1016.2035)" fill="#fff8eb" fill-rule="evenodd"/>
  <path d="m 256 546.3622 c -138.06295 0 -250 111.93705 -250 250 0 138.06295 111.93705 250 250 250 138.06295 0 250 -111.93705 250 -250 0 -138.06295 -111.93705 -250 -250 -250 z m 0 29.76779 c 121.63346 0 220.2322 98.59875 220.2322 220.23221 0 121.63346 -98.59874 220.2322 -220.2322 220.2322 -121.63346 0 -220.2322 -98.59874 -220.2322 -220.2322 0 -121.63346 98.59874 -220.23221 220.2322 -220.23221 z" fill="#0078ad" fill-rule="evenodd"/>
  <g transform="matrix(4.2089227,0,0,4.2089227,-3904.8208,-2311.6478)">
   <path transform="matrix(0.91318884,0,0,0.91318884,96.581612,568.31957)" d="m 1016.4286 186.28572 c 0 21.89415 -17.74875 39.64286 -39.64289 39.64286 -21.89415 0 -39.64286 -17.74871 -39.64286 -39.64286 0 -21.89414 17.74871 -39.64286 39.64286 -39.64286 21.89414 0 39.64289 17.74872 39.64289 39.64286 z" fill="#0078ad"/>
   <g>
    <path fill="#fff8eb" d="M 972.321,722.362 H978.75 V734.326 H972.321 z"/>
    <path fill="#fff8eb" d="M 998.036,722.362 H1004.46 V734.326 H998.036 z"/>
    <path d="m 967.72613 200.74675 c 17.19629 12.26998 31.57972 8.59583 43.68907 0 -8.4958 19.10515 -40.37057 14.73791 -43.68907 0 z" transform="translate(0,540.36218)" fill="#fff8eb" stroke="#fff8eb" stroke-linejoin="round" stroke-linecap="round"/>
   </g>
  </g>
 </g>
</svg>
