<svg xmlns="http://www.w3.org/2000/svg" xmlns:xlink="http://www.w3.org/1999/xlink" width="512" height="512">
 <defs>
  <linearGradient id="0">
   <stop stop-color="#d02f42"/>
   <stop offset="1" stop-color="#cd1d31"/>
  </linearGradient>
  <radialGradient xlink:href="#0" id="1" cx="256" cy="256.00003" r="250" gradientTransform="translate(0,1.8944003e-6)" gradientUnits="userSpaceOnUse"/>
 </defs>
 <path d="m 506 256.00004 c 0 138.07119 -111.92881 250 -250 250 -138.07119 0 -250 -111.92881 -250 -250 C 6 117.92886 117.92881 6.00005 256 6.00005 c 138.07119 0 250 111.92881 250 249.99999 z" fill="url(#1)" fill-rule="evenodd"/>
 <g transform="matrix(2.2265546,0,0,2.2265546,-1332.9044,-373.62045)" fill="#fff8eb" stroke="#282629" stroke-width="2.245646">
  <path d="m 660.79061 306.84931 0 -51.35029 -18.03523 -5.26027 0 -32.31311 72.39139 21.79256 c 13.23158 5.08429 19.35195 18.82586 19.78865 32.31311 l 0 42.33268 -28.05479 -12.77495 0 -27.30333 c -3.02598 -9.90686 -10.87478 -12.28458 -18.53621 -13.7769 l -0.25049 57.77647 c -0.25049 -0.16395 -27.30332 -11.43597 -27.30332 -11.43597 z" stroke-width="2.245646"/>
  <path d="m 755.07381 333.46038 29.40235 14.16981 c -0.88001 -15.79685 -0.2191 -30.6633 -0.3425 -44.36374 -0.0962 -10.67861 -0.62047 -20.6295 -5.30486 -30.79348 -6.29674 -10.17417 -14.06472 -15.50524 -23.10451 -19.58257 -6.09458 -2.74892 -12.76723 -4.92796 -19.95685 -7.63709 1.91834 2.06779 3.32509 4.12661 4.424 6.28992 1.84761 3.76051 3.10105 6.76625 3.77051 10.56746 0.50795 2.88411 0.72531 3.78809 1.01587 9.71101 0 0 -0.17713 6.19929 0.88561 6.55354 6.59362 0.77745 7.74113 7.30812 8.85613 12.22146 z" stroke-width="2.245646"/>
 </g>
</svg>
