<svg xmlns="http://www.w3.org/2000/svg" width="512" height="512">
 <g transform="translate(0,-540.36218)">
  <path d="m 562.85715 -316.57144 c 0 198.82251 -161.17749 360 -360 360 -198.82251 0 -360 -161.17749 -360 -360 0 -198.82251 161.17749 -360 360 -360 198.82251 0 360 161.17749 360 360 z" transform="matrix(0.63415719,0,0,0.63415719,127.35668,997.11828)" fill="#8a704d" fill-rule="evenodd"/>
  <path d="m 256 546.36218 c -138.06295 0 -250 111.93704 -250 250 0 138.06295 111.93705 250.00002 250 250.00002 138.06296 0 250 -111.93707 250 -250.00002 0 -138.06296 -111.93704 -250 -250 -250 z m 0 29.76781 c 121.63346 0 220.23219 98.59873 220.23219 220.23219 0 121.63345 -98.59873 220.23222 -220.23219 220.23222 -121.63345 0 -220.23219 -98.59877 -220.23219 -220.23222 0 -121.63346 98.59874 -220.23219 220.23219 -220.23219 z" fill="#5a4739" fill-rule="evenodd"/>
  <g transform="matrix(1.1282526,0,0,1.1282526,-62.766725,-86.975834)" fill="#fff8eb" stroke="#fff8eb" stroke-width="8.626183">
   <path d="m 410.89625 684.76443 c 22.65263 0 30.20351 7.55088 30.20351 15.10176 0 3.77543 -3.77545 7.55088 -11.32632 7.55088 -15.10176 0 -7.55088 -15.10176 -26.42807 -15.10176 -11.32631 0 -18.87719 16.98947 -36.10262 59.22718 l 28.55176 1.17983 0 7.55088 -32.75827 1.43506 -16.32243 40.09475 c -16.98947 41.52982 -39.64209 79.28419 -79.2842 79.28419 -22.65262 0 -30.2035 -7.55088 -30.2035 -15.10175 0 -3.77544 3.77545 -7.55088 11.32631 -7.55088 15.10176 0 7.55088 15.10175 26.42807 15.10175 11.32631 0 19.21808 -18.73367 30.20351 -45.30525 l 27.60789 -66.77805 -27.60789 -1.17982 0 -7.55088 31.85525 -1.4158 c 12.5388 -27.74814 34.21491 -66.54209 73.857 -66.54209 z" stroke-width="8.626183"/>
   <path d="m 297.63312 684.76443 c 22.65262 0 30.2035 7.55088 30.2035 15.10176 0 3.77543 -3.77545 7.55088 -11.32631 7.55088 -15.10176 0 -7.55088 -15.10176 -26.42807 -15.10176 -11.32631 0 -18.87719 16.98947 -36.10263 59.22718 l 28.55176 1.17983 0 7.55088 -32.75826 1.43506 -16.32243 40.09475 c -16.98947 41.52982 -39.6421 79.28419 -79.2842 79.28419 -22.65263 0 -30.20351 -7.55088 -30.20351 -15.10175 0 -3.77544 3.77545 -7.55088 11.32632 -7.55088 15.10176 0 7.55088 15.10175 26.42807 15.10175 11.32631 0 19.21807 -18.73367 30.2035 -45.30525 l 27.60789 -66.77805 -27.60789 -1.17982 0 -7.55088 31.85525 -1.4158 c 12.5388 -27.74814 34.21491 -66.54209 73.85701 -66.54209 z" stroke-width="8.626183"/>
  </g>
 </g>
</svg>
