<?xml version="1.0" encoding="UTF-8" standalone="no"?>
<!-- Created with Inkscape (http://www.inkscape.org/) -->

<svg
   xmlns:dc="http://purl.org/dc/elements/1.1/"
   xmlns:cc="http://creativecommons.org/ns#"
   xmlns:rdf="http://www.w3.org/1999/02/22-rdf-syntax-ns#"
   xmlns:svg="http://www.w3.org/2000/svg"
   xmlns="http://www.w3.org/2000/svg"
   xmlns:sodipodi="http://sodipodi.sourceforge.net/DTD/sodipodi-0.dtd"
   xmlns:inkscape="http://www.inkscape.org/namespaces/inkscape"
   width="512"
   height="512"
   id="svg2"
   version="1.1"
   inkscape:version="0.48.4 r9939"
   sodipodi:docname="geogebra.svg">
  <defs
     id="defs4" />
  <sodipodi:namedview
     id="base"
     pagecolor="#ffffff"
     bordercolor="#666666"
     borderopacity="1.0"
     inkscape:pageopacity="0.0"
     inkscape:pageshadow="2"
     inkscape:zoom="0.7"
     inkscape:cx="567.01639"
     inkscape:cy="243.07039"
     inkscape:document-units="px"
     inkscape:current-layer="layer1"
     showgrid="false"
     inkscape:window-width="1309"
     inkscape:window-height="750"
     inkscape:window-x="55"
     inkscape:window-y="-3"
     inkscape:window-maximized="1" />
  <metadata
     id="metadata7">
    <rdf:RDF>
      <cc:Work
         rdf:about="">
        <dc:format>image/svg+xml</dc:format>
        <dc:type
           rdf:resource="http://purl.org/dc/dcmitype/StillImage" />
        <dc:title />
      </cc:Work>
    </rdf:RDF>
  </metadata>
  <g
     inkscape:label="Layer 1"
     inkscape:groupmode="layer"
     id="layer1"
     transform="translate(0,-540.36218)">
    <path
       sodipodi:type="arc"
       style="fill:#62c0dc;fill-rule:evenodd;stroke:none"
       id="path2985"
       sodipodi:cx="202.85715"
       sodipodi:cy="-316.57144"
       sodipodi:rx="360"
       sodipodi:ry="360"
       d="m 562.85715,-316.57144 c 0,198.82251 -161.17749,359.999998 -360,359.999998 -198.8225127,0 -360,-161.177488 -360,-359.999998 0,-198.82251 161.1774873,-360 360,-360 198.82251,0 360,161.17749 360,360 z"
       transform="matrix(0.69444444,0,0,0.69444444,115.12698,1016.2035)" />
    <g
       id="g3128"
       transform="translate(-1.1428513,-10.285722)"
       style="stroke:#282629">
      <g
         transform="matrix(12.181963,0,0,12.181963,55.763766,612.11319)"
         id="g18"
         style="stroke:#282629;stroke-width:1;stroke-linecap:square;stroke-linejoin:miter;stroke-miterlimit:10;stroke-dasharray:none;stroke-dashoffset:0">
        <g
           id="g20"
           style="fill:none;stroke:#282629;stroke-width:2.5;stroke-linecap:round;stroke-linejoin:round;stroke-opacity:1">
          <path
             style="stroke:#282629"
             inkscape:connector-curvature="0"
             d="m 4.653045,21.715398 c 2.5528723,5.337746 9.999931,7.092936 16.633471,3.920328 6.63354,-3.172609 9.941575,-10.071615 7.388703,-15.409361 C 26.122347,4.8886185 18.675288,3.1334281 12.041748,6.3060371 5.4082076,9.4786461 2.1001727,16.377652 4.653045,21.715398 z"
             id="path22" />
        </g>
      </g>
      <g
         transform="matrix(12.181963,0,0,12.181963,55.763766,612.11319)"
         id="g30"
         style="fill:#fff8eb;stroke:#282629;stroke-width:1;stroke-linecap:square;stroke-linejoin:miter;stroke-miterlimit:10;stroke-dasharray:none;stroke-dashoffset:0">
        <g
           id="g32"
           style="fill:#fff8eb;stroke:#282629;stroke-linecap:round;stroke-linejoin:round;stroke-opacity:1">
          <path
             style="fill:#fff8eb;stroke:#282629"
             inkscape:connector-curvature="0"
             d="m 19,5 c 0,1.6568542 -1.343146,3 -3,3 -1.656854,0 -3,-1.3431458 -3,-3 0,-1.6568542 1.343146,-3 3,-3 1.656854,0 3,1.3431458 3,3 z"
             id="path34" />
        </g>
      </g>
      <g
         transform="matrix(12.181963,0,0,12.181963,55.763766,612.11319)"
         id="g42"
         style="fill:#fff8eb;stroke:#282629;stroke-width:1;stroke-linecap:square;stroke-linejoin:miter;stroke-miterlimit:10;stroke-dasharray:none;stroke-dashoffset:0">
        <g
           id="g44"
           style="fill:#fff8eb;stroke:#282629;stroke-linecap:round;stroke-linejoin:round;stroke-opacity:1">
          <path
             style="fill:#fff8eb;stroke:#282629"
             inkscape:connector-curvature="0"
             d="m 8,13 c 0,1.656854 -1.3431458,3 -3,3 -1.6568542,0 -3,-1.343146 -3,-3 0,-1.656854 1.3431458,-3 3,-3 1.6568542,0 3,1.343146 3,3 z"
             id="path46" />
        </g>
      </g>
      <g
         transform="matrix(12.181963,0,0,12.181963,55.763766,612.11319)"
         id="g54"
         style="fill:#fff8eb;stroke:#282629;stroke-width:1;stroke-linecap:square;stroke-linejoin:miter;stroke-miterlimit:10;stroke-dasharray:none;stroke-dashoffset:0">
        <g
           id="g56"
           style="fill:#fff8eb;stroke:#282629;stroke-linecap:round;stroke-linejoin:round;stroke-opacity:1">
          <path
             style="fill:#fff8eb;stroke:#282629"
             inkscape:connector-curvature="0"
             d="m 12,26 c 0,1.656854 -1.343146,3 -3,3 -1.6568542,0 -3,-1.343146 -3,-3 0,-1.656854 1.3431458,-3 3,-3 1.656854,0 3,1.343146 3,3 z"
             id="path58" />
        </g>
      </g>
      <g
         transform="matrix(12.181963,0,0,12.181963,55.763766,612.11319)"
         id="g66"
         style="fill:#fff8eb;stroke:#282629;stroke-width:1;stroke-linecap:square;stroke-linejoin:miter;stroke-miterlimit:10;stroke-dasharray:none;stroke-dashoffset:0">
        <g
           id="g68"
           style="fill:#fff8eb;stroke:#282629;stroke-linecap:round;stroke-linejoin:round;stroke-opacity:1">
          <path
             style="fill:#fff8eb;stroke:#282629"
             inkscape:connector-curvature="0"
             d="m 27,24 c 0,1.656854 -1.343146,3 -3,3 -1.656854,0 -3,-1.343146 -3,-3 0,-1.656854 1.343146,-3 3,-3 1.656854,0 3,1.343146 3,3 z"
             id="path70" />
        </g>
      </g>
      <g
         transform="matrix(12.181963,0,0,12.181963,55.763766,612.11319)"
         id="g78"
         style="fill:#fff8eb;stroke:#282629;stroke-width:1;stroke-linecap:square;stroke-linejoin:miter;stroke-miterlimit:10;stroke-dasharray:none;stroke-dashoffset:0">
        <g
           id="g80"
           style="fill:#fff8eb;stroke:#282629;stroke-linecap:round;stroke-linejoin:round;stroke-opacity:1">
          <path
             style="fill:#fff8eb;stroke:#282629"
             inkscape:connector-curvature="0"
             d="m 32,11 c 0,1.656854 -1.343146,3 -3,3 -1.656854,0 -3,-1.343146 -3,-3 0,-1.6568542 1.343146,-3 3,-3 1.656854,0 3,1.3431458 3,3 z"
             id="path82" />
        </g>
      </g>
    </g>
  </g>
</svg>
