<svg xmlns="http://www.w3.org/2000/svg" xmlns:xlink="http://www.w3.org/1999/xlink" width="512" height="512">
 <defs>
  <linearGradient id="0">
   <stop stop-color="#f1a45e"/>
   <stop stop-color="#f38725" offset="1"/>
  </linearGradient>
  <radialGradient xlink:href="#0" id="1" gradientUnits="userSpaceOnUse" cx="202.85715" cy="-316.57144" r="360" gradientTransform="matrix(0.69444444,0,0,0.69444444,115.12698,475.84132)"/>
 </defs>
 <path d="m 506 256.00004 c 0 138.07119 -111.92881 250 -250 250 -138.07119 0 -250 -111.92881 -250 -250 C 6 117.92886 117.92881 6.00005 256 6.00005 c 138.07119 0 250 111.92881 250 249.99999 z" fill="url(#1)" fill-rule="evenodd"/>
 <path d="M 256 26.70982 C 129.37408 26.70982 26.70982 129.37408 26.70982 256 26.70982 382.62592 129.37408 485.29022 256 485.29022 382.62592 485.29022 485.29018 382.62592 485.29018 256 485.29018 129.37408 382.62592 26.70982 256 26.70982 z m 0 27.30186 c 111.55743 0 201.98832 90.43089 201.98832 201.98832 0 111.55743 -90.43089 201.98832 -201.98832 201.98832 C 144.44257 457.98832 54.01168 367.55743 54.01168 256 54.01168 144.44257 144.44257 54.01168 256 54.01168 z" fill="#fff8eb" fill-rule="evenodd"/>
 <path d="m 213.38219,120.50931 c 1.81276,0.0612 3.65942,0.11144 5.71279,0.21973 6.08215,1.26886 11.74531,4.09556 17.57785,6.15223 9.02367,3.53941 17.69952,9.59048 21.423,18.78634 0.93345,2.03818 5.02248,8.64731 7.141,11.64531 3.96677,4.63039 9.0019,8.4283 14.06228,11.75519 6.28274,3.73727 11.40898,8.67017 17.57785,16.91869 6.23367,8.57022 6.77725,16.01773 9.88753,25.7076 4.79399,5.07012 8.58047,-1.92359 7.36074,-6.81142 -2.93392,-11.82764 -8.20579,-22.49519 -7.47059,-35.04583 1.81636,-16.52683 8.62587,-38.58996 28.23442,-39.87975 4.38202,0.0141 5.62695,0.70596 10.54671,5.1635 3.29385,2.98436 5.48706,3.99973 10.87629,5.38322 6.43578,1.58137 13.29902,0.48623 19.33564,3.29583 2.88764,1.69229 6.37326,6.84859 7.14099,10.54672 0.64058,3.08558 -0.89616,6.14173 -3.955,7.80017 -6.16846,2.89963 -16.68529,0.73761 -18.01731,9.33823 2.09722,9.10968 7.80246,15.40508 7.47059,24.49913 0.40594,9.94779 -0.8605,18.16909 -1.53806,27.90482 -0.89517,11.93252 -9.5138,18.26177 -15.49049,28.23442 -8.99742,11.48231 -24.96588,23.47536 -40.31918,18.78634 -5.32912,-1.72278 -7.46264,-1.41794 -9.44809,1.42819 -1.35494,1.94225 -1.54319,3.73119 -0.76903,8.01989 0.94459,5.233 0.93549,15.17609 0,20.76383 -0.69299,4.13945 -1.20914,10.43467 -1.20848,13.95242 5.6e-4,2.87658 -0.57002,6.47428 -1.31834,9.4481 -0.48814,1.93926 -0.57251,3.96978 -0.76903,10.54671 -0.13288,4.44055 -0.36579,8.77974 -0.54931,9.66781 -0.62226,3.01081 -0.48479,5.46249 0.87889,14.83131 0.57712,3.96483 2.57948,11.21161 3.95502,14.282 0.7425,1.65734 2.65274,5.53034 4.28461,8.67906 0.13746,0.26543 0.22464,0.44891 0.3294,0.65918 -0.70146,-0.0426 -1.50752,-0.0668 -2.19723,-0.10969 -5.44101,-0.33926 -10.60884,-0.79712 -15.7102,-1.20848 1.61434,0.10828 3.21857,0.20567 4.8339,0.32941 -0.79975,-3.93943 -1.59114,-8.15419 -1.75777,-11.09601 -0.1568,-2.76588 -0.53487,-5.94093 -0.98876,-8.12976 -0.41073,-1.98067 -0.82142,-5.2909 -0.98876,-7.36072 -0.39282,-4.86362 -0.77279,-6.27543 -3.07612,-11.20588 -1.04768,-2.24261 -2.23439,-5.20347 -2.63667,-6.59169 -0.70347,-2.42737 -0.72316,-2.89848 -0.65918,-9.9974 0.058,-6.45562 -0.0893,-7.78101 -0.65917,-11.20589 -1.13149,-6.80139 -1.65386,-8.82724 -3.84514,-13.29325 -2.97868,-6.07067 -3.23047,-6.99851 -3.51558,-12.5242 -0.33258,-6.44381 -1.38847,-9.78289 -3.62543,-12.08478 -1.25871,-1.29528 -2.34713,-1.97751 -4.39447,-2.19723 -0.68244,-0.073 -1.49661,0.003 -2.41694,0 -3.87681,-0.0105 -5.61318,0.5164 -6.81142,2.08738 -1.12331,1.47299 -1.24705,3.28674 -0.32942,7.25085 0.41112,1.77621 0.92565,4.99556 1.09862,7.14101 0.37902,4.70132 1.19884,7.37481 3.29584,11.09601 2.67273,4.74299 2.74304,5.16043 2.74655,13.07352 0.004,6.35506 -0.051,7.00579 -0.65918,8.89879 -0.36312,1.13032 -1.08634,2.6461 -1.64791,3.4057 -1.24543,1.68467 -4.96044,4.86823 -8.8988,7.69032 -3.81456,2.73339 -8.15102,6.93755 -10.76642,10.43685 -2.77727,3.68216 -6.75222,7.32131 -7.25086,12.08476 -0.007,3.48085 2.0198,7.8766 4.94376,10.76644 1.49947,1.48195 2.5276,2.17732 5.49308,3.62542 4.08179,1.99326 5.6221,3.2885 5.93253,4.94378 0.11918,0.6347 -0.10231,1.12579 -0.32942,1.64792 -7.26383,-0.007 -14.13564,0.11496 -20.65397,0.32941 -1.267,-0.937 -2.26424,-2.14415 -3.07611,-3.84515 -1.11315,-2.33224 -1.97048,-3.50028 -3.07613,-3.40572 -1.10565,0.0946 -2.37083,1.49265 -4.06488,4.06489 -1.1362,1.72522 -2.21252,2.93771 -3.29585,3.84515 -2.46859,0.14624 -5.00254,0.26296 -7.36072,0.43945 -1.35508,-1.27363 -2.26892,-3.43517 -2.74653,-6.70156 -0.28477,-1.94689 -0.27422,-2.82894 0.10968,-5.05363 0.88069,-5.10345 2.09233,-7.08739 5.7128,-10.10727 1.22258,-1.0198 2.55607,-2.34688 2.96626,-2.96626 1.09,-1.6455 1.43174,-3.82574 0.98875,-5.93252 -0.53978,-2.56711 -3.04786,-7.11853 -5.93252,-10.98615 -2.58405,-3.46459 -3.94179,-5.62812 -6.04238,-9.66782 -0.78717,-1.51384 -1.95688,-2.99871 -3.7353,-4.83391 -1.4244,-1.46982 -2.98553,-3.52756 -3.51557,-4.50433 l -0.87889,-1.75778 0,-9.9974 c 0.0351,-7.1264 -0.37634,-14.03707 -1.31834,-21.09341 -0.78028,-8.4629 -3.78092,-15.14152 -7.91003,-22.41176 -2.36099,-4.87669 -3.4699,-6.26211 -5.49308,-6.26211 -2.71349,0 -4.36406,3.005 -5.16349,9.33823 -0.91426,6.21654 -3.93853,11.53574 -5.82266,17.46798 -1.14886,4.22523 -1.96926,6.12581 -4.61419,11.42561 -2.50958,5.02871 -4.62399,10.63805 -5.27335,14.06227 -0.34382,1.81236 -0.4377,4.32511 -0.43945,9.55797 -0.003,7.70858 -0.25804,10.78014 -1.20848,14.72144 -0.72227,2.99527 -1.07558,11.58229 -0.76902,17.35813 0.17928,3.37765 0.24609,3.81762 2.08736,9.22837 2.70052,7.93608 3.31955,10.25477 3.84516,14.282 0.5062,3.87932 0.84802,4.81844 2.63667,8.67906 0.25593,0.55205 0.37371,1.02889 0.54932,1.53806 -6.5049,1.26255 -12.30489,2.62919 -17.79757,4.06488 -0.15047,-0.2939 -0.35209,-0.56696 -0.43945,-0.87889 -0.6887,-3.07349 0.28827,-6.23465 0.10968,-9.33824 -0.43305,-0.70073 0.58991,-5.68464 2.3071,-10.98615 2.73096,-8.43114 2.93996,-9.7767 1.53806,-15.49048 -0.24363,-0.99255 -0.62173,-4.29272 -0.76904,-7.36073 -0.28264,-5.89279 -0.54818,-7.37569 -2.08737,-11.20587 -1.38013,-3.43439 -1.78626,-4.94859 -1.9775,-8.45934 -0.22218,-4.08024 0.25909,-6.476 1.75778,-9.9974 1.48248,-3.48309 1.67563,-5.07378 0.98876,-8.78893 -0.74361,-4.02237 -0.74126,-13.46576 0,-16.47923 0.73704,-2.99657 1.11391,-13.86555 0.98875,-27.79497 l -1.53806,-17.02854 c -2.36907,-9.2136 -3.8132,-12.52422 -5.7128,-12.52422 -1.74091,0 -3.37804,2.84674 -4.50433,8.0199 -0.68933,4.7971 -0.34135,9.72275 -1.20848,14.50172 -1.12318,6.59813 0.67478,13.20135 4.06489,18.89619 2.01196,3.52875 2.70607,6.06734 2.19723,7.91002 -0.40598,1.46997 -1.90548,3.11181 -3.07613,3.40572 -0.5085,0.12761 -1.14424,-0.0759 -1.86765,-0.43946 -0.89654,-0.45048 -1.80721,-1.57289 -4.94376,-6.2621 -2.12615,-3.17861 -4.15189,-6.53741 -4.50433,-7.47058 -2.92533,-12.82846 -3.04455,-22.29744 -1.4282,-34.93598 0,-8.20903 1.136,-11.28346 6.81142,-17.46799 10.61948,-13.22621 16.75178,-24.83739 22.85121,-40.42904 2.10312,-3.4941 5.16728,-7.73479 7.47058,-10.32699 3.5876,-4.03771 5.72915,-8.0368 7.69031,-14.06228 2.82739,-7.17531 5.24853,-15.65156 9.44809,-21.86245 3.95417,-4.42877 7.64081,-9.29368 13.40312,-11.53546 5.47531,-2.56612 10.16203,-2.81983 15.60033,-2.63668 z m 5.93252,152.2681 c -0.43304,0.0281 -0.84058,0.28337 -1.31834,0.65918 -1.34948,1.06153 -1.67106,2.25625 -2.41695,10.32698 -0.38931,4.21253 -0.8942,9.49457 -1.20848,11.75519 -1.38742,9.97704 -1.60711,13.10134 -1.20849,16.47923 0.20532,1.73905 0.41467,5.32542 0.54932,7.91003 0.37891,7.28176 1.4104,10.50885 5.38321,17.35813 1.21252,2.09046 2.69933,4.7881 3.29585,6.04239 1.18714,2.49601 2.46192,4.1754 3.73529,4.83391 1.2494,0.64625 2.88446,0.52881 4.50433,-0.32941 2.23178,-1.18272 6.28724,-4.32669 8.23961,-6.37198 2.08966,-2.18907 2.97642,-3.37083 5.38322,-7.69031 2.73581,-4.91012 3.07443,-5.94138 3.07613,-8.12975 0.002,-2.86294 -1.04431,-4.98558 -3.84516,-7.6903 -1.22307,-1.18114 -3.86998,-3.80425 -5.82266,-5.82268 -4.04235,-4.17839 -4.15042,-4.38911 -5.1635,-10.32697 -0.91816,-5.38126 -0.93831,-5.47227 -4.72404,-10.98616 -1.35592,-1.9749 -2.00001,-3.76879 -3.62543,-9.88754 -1.50235,-5.65543 -2.17962,-7.05624 -3.40572,-7.69031 -0.58685,-0.30339 -0.99514,-0.46757 -1.42819,-0.43945 z" fill="#fff8eb" fill-rule="evenodd"/>
</svg>
