<svg xmlns="http://www.w3.org/2000/svg" width="512" height="512">
 <path d="M 506 256 A 250.00001 250.00001 0 1 1 5.99999 256 250.00001 250.00001 0 1 1 506 256 z" fill="#9a3034" fill-rule="evenodd"/>
 <path d="m 251.36791 6 c -3.21479 0 -6.40874 0.099119 -9.59375 0.222188 132.04379 5.10166 237.53125 114.97879 237.53125 249.79366 0 134.81467 -105.48772 244.66 -237.53125 249.76186 3.1852 0.12307 6.37877 0.22229 9.59375 0.22229 136.49323 0 247.1562 -111.91743 247.1562 -249.98415 C 498.52411 117.94912 387.86114 6 251.36791 6 z" fill="#fff8eb" fill-rule="evenodd"/>
 <path d="M 96 63.90625 C 81.09922 76.33039 67.66658 90.44077 56 105.96875 l 0 300.0625 c 11.66658 15.52798 25.09922 29.63837 40 42.0625 l 0 -384.1875 z" fill="#471416" fill-rule="evenodd"/>
 <path d="M 56 105.96875 C 24.60405 147.75611 6 199.70834 6 256 6 312.29166 24.60405 364.24389 56 406.03125 l 0 -300.0625 z" fill="#641b1e" fill-rule="evenodd"/>
 <text font-size="220.64523" letter-spacing="0" font-weight="bold" line-height="125%" word-spacing="0" y="334.00153" x="141.27927" fill="#fff8eb" font-family="Sans"><tspan y="334.00153" x="141.27927">Aa</tspan>
 </text>
</svg>
