<?xml version="1.0" encoding="UTF-8" standalone="no"?>
<!-- Created with Inkscape (http://www.inkscape.org/) -->

<svg
   xmlns:osb="http://www.openswatchbook.org/uri/2009/osb"
   xmlns:dc="http://purl.org/dc/elements/1.1/"
   xmlns:cc="http://creativecommons.org/ns#"
   xmlns:rdf="http://www.w3.org/1999/02/22-rdf-syntax-ns#"
   xmlns:svg="http://www.w3.org/2000/svg"
   xmlns="http://www.w3.org/2000/svg"
   xmlns:sodipodi="http://sodipodi.sourceforge.net/DTD/sodipodi-0.dtd"
   xmlns:inkscape="http://www.inkscape.org/namespaces/inkscape"
   width="512"
   height="512"
   id="svg2"
   version="1.1"
   inkscape:version="0.48.4 r9939"
   sodipodi:docname="google-earth.svg">
  <defs
     id="defs4">
    <linearGradient
       id="linearGradient5284"
       osb:paint="solid">
      <stop
         style="stop-color:#a7d6f6;stop-opacity:1;"
         offset="0"
         id="stop5286" />
    </linearGradient>
    <linearGradient
       id="linearGradient5228"
       osb:paint="solid">
      <stop
         style="stop-color:#000000;stop-opacity:1;"
         offset="0"
         id="stop5230" />
    </linearGradient>
    <linearGradient
       id="linearGradient3895-9-0-3-2-4-0">
      <stop
         offset="0"
         style="stop-color:#60a3bf;stop-opacity:1;"
         id="stop3897-0-5-7-0-3-0" />
      <stop
         offset="1"
         style="stop-color:#13324e;stop-opacity:1;"
         id="stop3899-8-7-06-7-9-9" />
    </linearGradient>
  </defs>
  <sodipodi:namedview
     id="base"
     pagecolor="#ffffff"
     bordercolor="#666666"
     borderopacity="1.0"
     inkscape:pageopacity="0.0"
     inkscape:pageshadow="2"
     inkscape:zoom="0.35"
     inkscape:cx="494.99999"
     inkscape:cy="280"
     inkscape:document-units="px"
     inkscape:current-layer="layer1"
     showgrid="false"
     inkscape:window-width="1309"
     inkscape:window-height="750"
     inkscape:window-x="55"
     inkscape:window-y="-3"
     inkscape:window-maximized="1" />
  <metadata
     id="metadata7">
    <rdf:RDF>
      <cc:Work
         rdf:about="">
        <dc:format>image/svg+xml</dc:format>
        <dc:type
           rdf:resource="http://purl.org/dc/dcmitype/StillImage" />
        <dc:title></dc:title>
      </cc:Work>
    </rdf:RDF>
  </metadata>
  <g
     inkscape:label="Layer 1"
     inkscape:groupmode="layer"
     id="layer1"
     transform="translate(0,-540.36218)">
    <path
       sodipodi:type="arc"
       style="fill:#0078ad;fill-rule:evenodd;stroke:none"
       id="path2985"
       sodipodi:cx="202.85715"
       sodipodi:cy="-316.57144"
       sodipodi:rx="360"
       sodipodi:ry="360"
       d="m 562.85715,-316.57144 c 0,198.82251 -161.17749,359.999998 -360,359.999998 -198.8225127,0 -360,-161.177488 -360,-359.999998 0,-198.82251 161.1774873,-360 360,-360 198.82251,0 360,161.17749 360,360 z"
       transform="matrix(0.69444444,0,0,0.69444444,115.12698,1016.2035)" />
    <g
       id="text6110-1-8-2"
       style="font-size:220.81851196px;font-style:normal;font-weight:normal;line-height:125%;letter-spacing:0px;word-spacing:0px;fill:#fff8c1;fill-opacity:1;stroke:none;font-family:Sans"
       transform="matrix(0.23463968,0,0,0.23138396,1131.6765,415.84078)" />
    <g
       id="g5114"
       transform="matrix(2.0571429,0,0,2.0571429,-270.62857,-841.86858)">
      <path
         inkscape:connector-curvature="0"
         id="path4540"
         d="m 255.4515,705.28759 c -11.9845,0 -23.4227,2.22025 -34.0061,6.17106 29.1332,0.50318 45.5746,3.48175 60.4901,11.51931 1.243,0.6698 2.481,1.36696 3.7089,2.10844 3.6836,2.22447 7.3471,4.79051 11.1264,7.71383 16.2893,12.60001 17.7149,27.93333 31.551,39.64907 8.4235,7.13263 7.2834,6.53104 11.1786,6.53105 4.2632,0 6.4334,-3.79357 7.4699,-7.91953 -12.405,-38.13125 -48.6853,-65.77324 -91.5188,-65.77323 z m -38.5507,17.38181 c -2.0369,0 -4.0669,0.21612 -6.0594,0.61711 -0.6642,0.13367 -1.3272,0.28934 -1.985,0.46284 -18.4184,4.85761 -34.1788,24.86085 -39.3343,34.04369 -0.3279,0.58412 -0.6996,1.27069 -1.0447,1.90274 -2.7376,5.7224 -4.9419,11.72005 -6.4774,17.99893 1.4748,-1.85753 2.91,-3.60101 4.3357,-5.24541 9.98,-11.51074 19.113,-17.7418 32.23,-17.7418 23.4049,0 26.3784,10.2655 69.2659,37.79776 21.1075,13.55027 53.1376,32.23645 79.5566,35.02078 1.0837,-3.49828 1.9422,-7.09106 2.6118,-10.74794 -9.8842,-0.7025 -18.7882,-4.41178 -28.4168,-10.69651 -1.3755,-0.89782 -2.7692,-1.82582 -4.1789,-2.8284 -11.2778,-8.02066 -23.8115,-19.36057 -40.1178,-33.42658 -12.4158,-10.71 -43.6427,-47.15721 -60.3857,-47.15721 z m -33.536,108.04502 c -7.4209,0 -12.9585,3.70303 -13.5815,12.03357 10.4034,20.10716 27.8758,36.06035 49.207,44.68878 -0.2828,-0.38946 -0.5512,-0.79977 -0.8358,-1.23422 -1.9923,-3.04113 -3.9178,-7.15425 -3.9178,-11.87929 0,-5.49708 3.6111,-7.6624 7.6788,-7.6624 5.4175,0 23.2998,8.38236 53.2293,8.38236 14.9702,0 33.6468,-2.15883 47.3265,-7.35385 5.4029,-5.1789 10.1569,-10.97717 14.2083,-17.27898 -8.7437,3.48969 -24.9126,8.53664 -45.9683,8.53664 -40.6765,0 -77.7717,-17.09258 -88.489,-22.57581 -2.8428,-1.45445 -10.1297,-5.6568 -18.8575,-5.6568 z"
         style="color:#000000;fill:#ffffff;fill-opacity:1;fill-rule:evenodd;stroke:none;stroke-width:2;marker:none;visibility:visible;display:inline;overflow:visible;enable-background:accumulate" />
      <path
         transform="matrix(2.052402,0,0,2.2510216,140.99246,558.18999)"
         d="m 102.88501,105.80627 c 0,23.5912 -20.975205,42.71565 -46.849427,42.71565 -25.874221,0 -46.849422,-19.12445 -46.849422,-42.71565 0,-23.591205 20.975201,-42.715652 46.849422,-42.715652 25.874222,0 46.849427,19.124447 46.849427,42.715652 z"
         sodipodi:ry="42.715649"
         sodipodi:rx="46.849422"
         sodipodi:cy="105.80627"
         sodipodi:cx="56.035583"
         id="path4872"
         style="fill:none;stroke:#ffffff;stroke-width:3.57878494;stroke-miterlimit:4;stroke-opacity:1;stroke-dasharray:none"
         sodipodi:type="arc" />
    </g>
  </g>
</svg>
