<?xml version="1.0" encoding="UTF-8" standalone="no"?>
<!-- Created with Inkscape (http://www.inkscape.org/) -->

<svg
   xmlns:dc="http://purl.org/dc/elements/1.1/"
   xmlns:cc="http://creativecommons.org/ns#"
   xmlns:rdf="http://www.w3.org/1999/02/22-rdf-syntax-ns#"
   xmlns:svg="http://www.w3.org/2000/svg"
   xmlns="http://www.w3.org/2000/svg"
   xmlns:sodipodi="http://sodipodi.sourceforge.net/DTD/sodipodi-0.dtd"
   xmlns:inkscape="http://www.inkscape.org/namespaces/inkscape"
   width="512"
   height="512"
   id="svg2"
   version="1.1"
   inkscape:version="0.48.4 r9939"
   sodipodi:docname="google-keep.svg">
  <defs
     id="defs4" />
  <sodipodi:namedview
     id="base"
     pagecolor="#ffffff"
     bordercolor="#666666"
     borderopacity="1.0"
     inkscape:pageopacity="0.0"
     inkscape:pageshadow="2"
     inkscape:zoom="0.7"
     inkscape:cx="267.27705"
     inkscape:cy="226.58684"
     inkscape:document-units="px"
     inkscape:current-layer="layer1"
     showgrid="false"
     inkscape:window-width="1309"
     inkscape:window-height="750"
     inkscape:window-x="55"
     inkscape:window-y="-3"
     inkscape:window-maximized="1" />
  <metadata
     id="metadata7">
    <rdf:RDF>
      <cc:Work
         rdf:about="">
        <dc:format>image/svg+xml</dc:format>
        <dc:type
           rdf:resource="http://purl.org/dc/dcmitype/StillImage" />
        <dc:title />
      </cc:Work>
    </rdf:RDF>
  </metadata>
  <g
     inkscape:label="Layer 1"
     inkscape:groupmode="layer"
     id="layer1"
     transform="translate(0,-540.36218)">
    <path
       sodipodi:type="arc"
       style="fill:#ffd459;fill-rule:evenodd;stroke:none"
       id="path2985"
       sodipodi:cx="202.85715"
       sodipodi:cy="-316.57144"
       sodipodi:rx="360"
       sodipodi:ry="360"
       d="m 562.85715,-316.57144 c 0,198.82251 -161.17749,359.999998 -360,359.999998 -198.8225127,0 -360,-161.177488 -360,-359.999998 0,-198.82251 161.1774873,-360 360,-360 198.82251,0 360,161.17749 360,360 z"
       transform="matrix(0.69444444,0,0,0.69444444,115.12698,1016.2035)" />
    <g
       transform="translate(1624.4936,-795.88216)"
       inkscape:label="Livello 1"
       id="layer1-4" />
    <path
       sodipodi:nodetypes="cccccccccccccccccccccccccccccccccc"
       style="fill:#282629"
       d="m 297.91642,821.76401 c 3.72987,-13.93679 22.35721,-19.75137 28.14361,-34.00535 20.51705,-31.77471 14.44153,-77.66125 -13.99633,-102.75114 -24.01477,-24.46813 -64.32661,-28.4371 -94.20767,-13.05372 -31.54829,17.01412 -50.47538,55.44803 -41.86706,90.70746 4.36434,21.28745 18.51042,39.52479 36.009,51.89555 5.56846,3.58652 -1.88887,15.71246 7.58607,12.9025 26.11084,0 52.22155,0 78.33238,0 0,-1.89844 0,-3.79686 0,-5.6953 z m -0.27132,36.03803 c -1.04278,-3.69908 2.19292,-11.84206 -4.07488,-10.11425 -26.16838,0 -52.33678,0 -78.50505,0 -0.25412,6.74284 -0.50814,13.48565 -0.76214,20.22849 27.90763,0 55.81538,0 83.72314,0 -0.12707,-3.37141 -0.25401,-6.74284 -0.38107,-10.11424 z m 0.27132,41.43577 c -1.1241,-3.34104 2.74596,-11.67754 -2.95506,-10.4405 -26.84957,0 -53.69913,0 -80.54858,0 0,6.96033 0,13.92067 0,20.88102 27.83454,0 55.66909,0 83.50364,0 0,-3.48018 0,-6.96035 0,-10.44052 z m -82.08947,29.90677 -20.98542,-1.1e-4 c 0,-33.85175 0,-67.70349 0,-101.55526 -34.484,-25.70302 -50.57628,-73.90758 -36.11947,-114.82322 13.5669,-41.94757 56.54732,-73.14097 100.98037,-69.95238 52.19909,-0.30339 99.32521,47.1284 98.69574,99.37982 2.07696,31.47705 -13.58158,61.9437 -37.02898,82.25818 -4.74279,2.50208 -4.0345,7.31351 -3.88164,11.88966 0,30.93428 0,61.86902 0,92.80331 l -20.98567,0 0,20.99036 -80.67493,0 z"
       id="path3064"
       inkscape:connector-curvature="0" />
    <path
       sodipodi:nodetypes="cccccccccccccccccccccccccccccccsc"
       inkscape:connector-curvature="0"
       id="path3848"
       d="m 1876.9624,-117.33248 c -31.7177,0.73046 -61.2831,23.61673 -71.0313,53.75 -10.4075,29.44802 -0.1539,63.83219 23.0313,84.21875 0.2111,0.18773 0.4429,0.34587 0.6562,0.53125 0.061,0.0539 0.1267,0.1025 0.1875,0.15625 0.5335,0.4555 1.0471,0.93438 1.5938,1.375 0.098,0.0801 0.2138,0.13919 0.3125,0.21875 0.011,0.009 0.02,0.0222 0.031,0.0312 0.092,0.0753 0.1885,0.14387 0.2812,0.21875 0.011,0.009 0.02,0.0222 0.031,0.0312 0.081,0.066 0.1687,0.1218 0.25,0.1875 0.012,0.009 0.02,0.0223 0.031,0.0312 0.011,0.009 0.02,0.0222 0.031,0.0312 0.068,0.0557 0.1191,0.13204 0.1875,0.1875 0.081,0.0661 0.1691,0.12176 0.25,0.1875 0.2626,0.21589 0.5155,0.44392 0.7813,0.65625 0.011,0.009 0.02,0.0221 0.031,0.0312 l 0,77.71875 366.0932,366.06165 61.8125,0 c 0.1947,-5.16667 0.399,-10.33333 0.5937,-15.5 l 15.5,-0.5625 0,-71.125 c -0.1172,-3.50644 -0.6663,-7.17653 2.9688,-9.09375 17.9708,-15.56589 29.9668,-38.91208 28.375,-63.03125 0.2434,-20.20499 -8.8362,-39.46484 -23.0313,-53.5625 -0.1306,-0.13149 -0.2747,-0.2444 -0.4062,-0.375 L 1942.2124,-87.89493 c -1.6885,-1.84916 -3.3939,-3.74195 -5.125,-5.49995 -0.129,-0.13157 -0.2451,-0.27555 -0.375,-0.40625 -14.0049,-14.28674 -33.1853,-23.49232 -53.375,-23.375 -2.1284,-0.1527 -4.2605,-0.20495 -6.375,-0.15625 z"
       style="fill:#000000;fill-opacity:0.39215686;display:none" />
    <path
       id="path11978"
       d="m 1937.0865,-93.39608 c 1.4664,1.51601 2.9049,3.06418 4.25,4.6875 1.5802,1.90699 3.0707,3.89729 4.4688,5.9375 1.398,2.04021 2.7063,4.12388 3.9062,6.28125 1.1999,2.15737 2.2954,4.36652 3.2813,6.625 0.9858,2.25848 1.8379,4.59397 2.5937,6.9375 0.7558,2.34353 1.3965,4.71248 1.9063,7.125 0.5098,2.41252 0.9084,4.84704 1.1562,7.3125 0.2478,2.46546 0.3427,4.96641 0.3125,7.46875 0.199,3.0149 0.2109,6.02298 0,9 -0.2109,2.97702 -0.6277,5.93197 -1.2187,8.84375 -0.5911,2.91178 -1.3712,5.77457 -2.3125,8.59375 -0.9414,2.81918 -2.0506,5.58203 -3.3125,8.28125 -1.262,2.69922 -2.6661,5.32311 -4.2188,7.875 -1.5527,2.55189 -3.2488,5.02905 -5.0625,7.40625 -1.8137,2.3772 -3.7676,4.6686 -5.8125,6.84375 -2.0449,2.17515 -4.1911,4.24176 -6.4375,6.1875 -0.9088,0.47931 -1.5415,1.04872 -2,1.71875 -0.4584,0.67003 -0.723,1.41893 -0.875,2.21875 -0.304,1.59964 -0.1523,3.40303 -0.094,5.15625 l 0,71.125 -16.0937,0 0,16.0625 -61.8125,0 350,350 61.8125,0 c 0.1947,-5.16667 0.399,-10.33333 0.5937,-15.5 l 15.5,-0.5625 0,-71.125 c -0.1172,-3.50644 -0.6663,-7.17653 2.9688,-9.09375 17.9708,-15.56589 29.9668,-38.91208 28.3749,-63.03125 0.2435,-20.20499 -8.8361,-39.46484 -23.0312,-53.5625 -0.1306,-0.13149 -0.2747,-0.2444 -0.4062,-0.375 l -343.3126,-342.9375 c -1.6885,-1.84916 -3.3939,-3.742 -5.125,-5.5 z m -87.375,211.6875 0,-16.0625 -16.0937,0 16.0937,16.0625 z"
       style="fill:#000000;fill-opacity:0.39215686;display:none"
       inkscape:connector-curvature="0" />
    <path
       sodipodi:nodetypes="ccccc"
       inkscape:connector-curvature="0"
       id="path11980"
       d="m 1664.4936,91.35502 425.1562,425.1248 0,-125.125 c 0,0 -300.0002,-299.9998 -299.9999,-299.9998 z"
       style="fill:#000000;fill-opacity:0.39215686;stroke:none;display:none" />
  </g>
</svg>
