<svg xmlns="http://www.w3.org/2000/svg" width="512" height="512">
 <text y="537.02893" x="-1100.2054" word-spacing="0" line-height="125%" letter-spacing="0" font-size="199.46808" font-family="Gentium Book Basic"><tspan y="537.02893" x="-1100.2054"/>
 </text>
 <text transform="scale(4.0128362,0.2492003)" font-size="72.47653" y="1616.0724" x="30.03408" font-family="Arial" text-anchor="middle"/>
 <path d="M 505.99999 256 A 250 250 0 1 1 5.999999 256 250 250 0 1 1 505.99999 256 z" fill="#366378" fill-rule="evenodd"/>
 <path d="m 255.98436 6.00008 c -15.50595 0 -30.68272 1.42191 -45.40625 4.125 l 30.75 427.25 L 69.42186 89.65633 c -10.63644 11.92462 -20.15506 24.87921 -28.375 38.6875 -7.2779 12.2258 -13.54757 25.10932 -18.6875 38.5625 L 215.17186 451.43762 13.51561 317.03133 c 8.38437 33.41228 23.47013 64.16574 43.78125 90.71875 l 142.25 69.00005 -68.96875 -4.4375 c 29.19481 16.9625 62.13526 28.1898 97.28125 32.125 l 9.8125 -0.7188 c 0.22591 0.4966 0.48716 0.994 0.75 1.4688 l 0 0.031 c 0.0339 0.061 0.0593 0.1269 0.0937 0.1875 5.76804 0.3979 11.59975 0.5938 17.4688 0.5938 43.49182 0 84.37721 -11.1259 120 -30.6563 l -65.46875 4.7188 142.87498 -70.6563 c 20.9774 -26.95413 36.5391 -58.32013 45.0938 -92.46875 L 296.32811 453.93762 488.92189 165.09383 c 0 -0.009 0 -0.0222 0 -0.0312 -5.0043 -12.79447 -11.0523 -25.04754 -18 -36.71875 -8.6159 -14.47339 -18.6443 -28.01121 -29.9063 -40.40625 L 271.07811 438.28133 298.67186 9.62508 c -13.87302 -2.38859 -28.13154 -3.625 -42.6875 -3.625 z" opacity="0.15" fill="#fff8eb" fill-rule="evenodd"/>
 <g transform="matrix(1.1396237,0,0,1.1654966,-35.743619,-672.15739)">
  <path transform="matrix(1.3425414,0,0,2.3247864,-99.344906,152.79806)" d="m 394.28572 276.64285 c 0 23.07761 -57.88319 41.78572 -129.28572 41.78572 -71.40253 0 -129.28572 -18.70811 -129.28572 -41.78572 0 -23.07761 57.88319 -41.78571 129.28572 -41.78571 71.40253 0 129.28572 18.7081 129.28572 41.78571 z" fill="#fff8eb" fill-rule="evenodd"/>
  <path d="m 255.59085 699.24903 c -15.42565 0 -29.98816 3.7873 -42.96041 10.26859 l 11.94509 23.89018 c 9.38467 -4.65699 19.80937 -7.33471 31.01532 -7.33471 38.76748 0 69.78449 31.22657 69.78449 69.99404 0 38.76749 -31.01701 69.78449 -69.78449 69.78449 -38.76748 0 -69.99404 -31.017 -69.99404 -69.78449 0 -9.06264 1.70193 -17.62313 4.81996 -25.56668 l -24.51888 -10.47814 c -4.52683 11.17295 -7.12514 23.2924 -7.12514 36.04482 0 53.26429 43.55383 96.60855 96.8181 96.60855 53.26428 0 96.60854 -43.34426 96.60854 -96.60855 0 -53.26427 -43.34426 -96.8181 -96.60854 -96.8181 z" fill="#32465c" color="#000"/>
  <path d="m 255.59085 743.67639 c -8.35355 0 -16.24338 1.9493 -23.26149 5.44863 l 20.74673 41.70304 4.19126 8.17295 -8.38252 -3.56257 -42.12216 -18.02241 c -2.23733 5.81867 -3.56257 12.05856 -3.56257 18.6511 0 28.86665 23.5241 52.39075 52.39075 52.39075 28.86659 0 52.39076 -23.5241 52.39076 -52.39075 0 -28.86658 -23.52417 -52.39074 -52.39076 -52.39074 z" fill="#282629"/>
  <path d="m 249.55307 651.23443 c -75.7364 0.93409 -148.80913 45.12467 -187.87455 124.77591 -0.0056 0.01 -0.01979 0.0156 -0.02538 0.0254 -0.14808 0.30203 -0.309769 0.58531 -0.456869 0.88835 -2.863908 5.07342 -5.569647 10.28574 -8.07135 15.68587 l -3.401134 7.33528 4.162582 6.92918 c 1.877133 3.12704 3.776778 6.15732 5.710858 9.11199 0.01646 0.0252 0.03431 0.0511 0.05077 0.0761 46.48269 82.22218 119.72434 125.38976 194.06766 125.43584 74.34338 0.046 148.41552 -42.95383 196.75812 -125.6135 0.13685 -0.2022 0.15261 -0.2267 0.0507 -0.0761 0.0441 -0.0652 0.0828 -0.13775 0.1269 -0.20305 0.12229 -0.20959 0.25877 -0.39907 0.38072 -0.60916 2.18766 -3.25541 4.3468 -6.57645 6.44693 -10.00035 l 4.79712 -7.81753 -4.64483 -7.89367 c -2.33524 -3.96785 -4.76132 -7.81152 -7.23376 -11.57401 -0.17519 -0.30868 -0.38247 -0.58082 -0.55839 -0.88836 -47.89418 -83.72289 -123.03074 -125.16 -196.68193 -125.58815 -1.20339 -0.007 -2.40202 -0.0149 -3.60419 0 z m 1.44675 59.21525 c 64.63492 -0.18214 131.20136 27.84417 173.94006 86.39895 -89.13153 115.62649 -259.59399 114.12613 -339.30114 1.70057 33.3994 -56.70581 96.5655 -86.97761 162.28991 -88.07413 1.02489 -0.0171 2.04522 -0.0225 3.07117 -0.0254 z" fill="#c74a6c" color="#000"/>
 </g>
 <text y="336.7066" x="-606.23743" word-spacing="0" line-height="125%" letter-spacing="0" font-size="208.33334" font-family="Gentium Book Basic"><tspan y="336.7066" x="-606.23743"/>
 </text>
 <text transform="scale(4.0128361,0.24920031)" font-size="75.69771" y="788.2597" x="166.65132" font-family="Arial" text-anchor="middle"/>
</svg>
