<svg xmlns="http://www.w3.org/2000/svg" width="512" height="512">
 <g transform="translate(0,-540.36218)">
  <path d="m 562.85715 -316.57144 c 0 198.82251 -161.17749 360 -360 360 -198.82251 0 -360 -161.17749 -360 -360 0 -198.82251 161.17749 -360 360 -360 198.82251 0 360 161.17749 360 360 z" transform="matrix(0.69444444,0,0,0.69444444,115.12698,1016.2035)" fill="#fff8eb" fill-rule="evenodd"/>
  <path d="m 267.26033,716.09957 -28.94415,0.56301 c 1.14887,1.72341 11.82334,12.64227 11.82334,12.64227 l 17.12081,-13.20528 z m 13.20527,0.10236 -19.73114,19.70556 29.30241,29.30242 28.30436,-28.35553 c -11.27446,-9.65367 -24.08701,-16.76091 -37.87563,-20.65245 z m -51.59273,0.76775 c -13.53717,4.26253 -26.07766,11.6538 -37.08227,21.49697 l 22.85333,22.85334 29.27683,-29.32802 -15.04789,-15.02229 z m 23.44194,22.77656 -29.27683,29.32801 29.27683,29.27683 29.32802,-29.27683 -29.32802,-29.32801 z m -66.43588,4.40176 c -9.48837,9.76277 -17.60722,21.47043 -24.00495,34.62548 l 16.37865,16.32746 29.27682,-29.27683 -21.65052,-21.67611 z m 141.08667,0.9213 -28.50908,28.56026 29.25124,29.25124 22.9813,-22.95569 C 344.40302,766.7045 336.35722,754.93686 326.9656,745.0693 z m -112.32167,23.28839 -29.32802,29.30242 29.32802,29.27682 29.27683,-29.27682 -29.27683,-29.30242 z m 75.39294,3.88992 -29.30241,29.32801 29.30241,29.25124 29.27684,-29.25124 -29.27684,-29.32801 z m -131.36185,13.58916 c -4.41567,10.44293 -7.78872,21.68042 -9.90396,33.49945 l 21.7273,-21.67611 -11.82334,-11.82334 z m 194.77792,0.33269 -19.29608,19.2961 29.30242,29.27682 1.66345,-1.66345 c -1.56862,-16.76919 -5.64369,-32.56609 -11.66979,-46.90947 z m -175.20031,15.99477 -29.32802,29.27683 29.32802,29.32802 29.27682,-29.32802 -29.27682,-29.27683 z m 74.06218,3.25014 -29.27683,29.27683 29.27683,29.32801 29.32802,-29.32801 -29.32802,-29.27683 z m 75.39295,4.55531 -29.25124,29.27683 29.25124,29.30242 29.27684,-29.30242 -29.27684,-29.27683 z m -113.06383,28.58586 -29.32802,29.27682 29.32802,29.32802 29.27683,-29.32802 -29.27683,-29.27682 z m 75.39294,3.91552 -29.30241,29.27682 29.30241,29.30242 29.27684,-29.30242 -29.27684,-29.27682 z m -143.7482,1.15162 c -0.0554,1.76633 -0.12796,3.56569 -0.12796,5.34865 0,13.43799 1.57858,26.43253 4.50413,38.69455 l 19.83352,-19.83352 -24.20969,-24.20968 z m 217.17061,2.7383 -29.30242,29.27683 23.87699,23.877 c 5.04671,-15.63296 7.80545,-32.67625 7.80545,-50.54348 0,-0.0802 1.4e-4,-0.15026 0,-0.23032 l -2.38002,-2.38003 z m -185.20665,25.97552 -24.92626,24.92625 c 1.42578,4.65529 2.99826,9.19416 4.81123,13.58916 l 20.11503,20.08942 29.27682,-29.27682 -29.27682,-29.32801 z m 74.06218,3.25013 -29.27683,29.32802 29.27683,29.27683 29.32802,-29.27683 -29.32802,-29.32802 z m 75.39295,4.55531 -29.25124,29.30242 29.25124,29.27684 24.87508,-24.84949 c 0.90231,-2.05905 1.79257,-4.14847 2.61034,-6.26994 l -27.48542,-27.45983 z m -113.06383,26.66648 -29.32802,29.27683 29.32802,29.30242 29.27683,-29.30242 -29.27683,-29.27683 z m 75.39294,3.88993 -29.30241,29.27683 29.30241,29.32802 29.27684,-29.32802 -29.27684,-29.27683 z m -111.78424,29.89103 -2.02175,1.99615 c 8.72723,11.42025 19.02747,20.98854 30.47964,28.12521 l 0.81893,-0.81894 -29.27682,-29.30242 z m 74.06218,3.25013 -29.27683,29.30243 8.62438,8.62438 c 7.83586,2.19976 15.99065,3.37808 24.36324,3.37808 5.05521,0 9.99484,-0.43427 14.86874,-1.25394 l 10.74849,-10.74852 -29.32802,-29.30243 z m 75.39295,4.52972 -21.93203,22.00881 c 8.63174,-5.4468 16.59534,-12.25685 23.72345,-20.21738 l -1.79142,-1.79143 z" fill="#f38725" fill-rule="evenodd"/>
  <path d="m 257.15185 707.93834 27.34457 8.04252 41.59128 -39.06366 c 0.83835 -0.7468 -0.6263 -5.26743 -3.21701 -4.59574 l -67.09752 33.31902 c -1.03601 0.76877 -0.0296 1.72549 1.37868 2.29786 z" fill="#5c805a"/>
  <path d="m 245.01344 707.93834 -27.34456 8.04252 -41.59129 -39.06366 c -0.83834 -0.7468 0.62629 -5.26743 3.21702 -4.59574 l 67.09751 33.31902 c 1.036 0.76877 0.0296 1.72549 -1.37868 2.29786 z" fill="#5c805a"/>
  <path d="m 250.28045 692.58599 28.40142 -2.4015 24.62966 -51.47018 c 0.51125 -0.99962 -2.4906 -4.68348 -4.66248 -3.1195 l -50.48564 55.34824 c -0.68741 1.09166 0.59708 1.61917 2.11704 1.64294 z" fill="#5c805a"/>
  <path d="m 252.35259 692.12643 -28.40141 -2.4015 -24.62967 -51.47018 c -0.51125 -0.99963 2.49061 -4.68349 4.66247 -3.11951 l 50.48565 55.34824 c 0.68742 1.09167 -0.59707 1.61917 -2.11704 1.64295 z" fill="#5c805a"/>
  <path d="m 1281.2523 115.32572 a 15.467961 6.502857 0 1 1 -30.936 0 15.467961 6.502857 0 1 1 30.936 0 z" transform="matrix(1.7807527,0,0,1.1335929,-2002.6088,558.12443)" fill="#5c805a" fill-rule="evenodd"/>
  <path d="m 251.86682 599.01965 c -7.87974 17.57332 -16.08233 35.18253 -18.6127 52.16148 0.8166 11.30358 5.54752 18.94532 15.85521 21.37012 13.12951 -1.85867 18.33502 -9.56604 18.61271 -20.91055 -2.14639 -20.00645 -9.70044 -35.76401 -15.85522 -52.62105 z" fill="#5c805a"/>
  <path d="m 256 559.93361 c -130.5759 0 -236.42857 105.85267 -236.42857 236.42857 0 130.5759 105.85267 236.42862 236.42857 236.42862 130.5759 0 236.42857 -105.85272 236.42857 -236.42862 C 492.42857 665.78628 386.5759 559.93361 256 559.93361 z m 0 27.01196 c 115.65293 0 209.41661 93.76368 209.41661 209.41661 0 115.65293 -93.76368 209.41662 -209.41661 209.41662 -115.65293 0 -209.41661 -93.76369 -209.41661 -209.41662 0 -115.65293 93.76368 -209.41661 209.41661 -209.41661 z" fill="#f38725" fill-rule="evenodd"/>
 </g>
</svg>
