<svg xmlns="http://www.w3.org/2000/svg" width="512" height="512">
 <path d="m 506.00002 256.00002 c 0 138.0712 -111.92883 250 -250.00001 250 -138.0712 0 -250.00001 -111.9288 -250.00001 -250 0 -138.07118 111.92881 -250.00001 250.00001 -250.00001 138.07118 0 250.00001 111.92883 250.00001 250.00001 z" fill="#55405f" fill-rule="evenodd"/>
 <path d="M 256 6 C 230.52303 6 205.93908 9.823338 182.78125 16.90625 C 184.20381 28.459588 183.36938 39.22424 194.40625 39.0625 C 202.49365 50.41471 178.27229 42.43795 195.75 51.1875 C 205.80062 59.04639 185.14687 63.5724 197.59375 70.625 C 183.24837 77.974473 199.90747 109.06246 210.5625 116.84375 C 228.09961 131.50194 218.33822 85.81433 237.90625 83.4375 C 248.53925 71.3853 267.17485 63.6242 280.4375 51.5 C 267.47599 50.45525 259.88107 42.43062 272.15625 37.46875 C 294.74839 60.45374 277.84966 26.61283 265.34375 21.25 C 277.44468 17.428101 289.21033 20.19544 287.53125 10.28125 C 288.50904 9.571007 289.254 8.916902 289.8125 8.28125 C 278.75251 6.785559 267.47 6 256 6 z M 133.875 37.84375 C 127.20169 41.587571 120.71437 45.617035 114.4375 49.9375 C 118.46748 51.06605 121.74119 53.857451 124.5 60.9375 C 141.79035 70.831301 126.00582 87.61301 118.46875 93.375 C 131.07434 85.981193 153.18078 122.62336 147.15625 102.3125 C 139.73703 96.93398 167.09046 110.94879 152.90625 93.46875 C 139.85284 72.58816 153.93412 84.12661 159.4375 89 C 178.15523 72.33546 138.25978 70.30602 148.21875 53.15625 C 144.09428 49.839504 139.34845 43.33855 133.875 37.84375 z M 187.75 49.09375 C 177.99702 57.16208 206.29199 58.681589 187.75 49.09375 z M 406.4375 56.3125 C 395.10837 67.21925 387.68524 82.50754 379.1875 96 C 359.74254 104.70444 360.4635 142.06418 382.1875 130.125 C 388.00182 140.20731 378.12693 156.05817 395.0625 142.875 C 408.72277 124.9269 397.44128 95.94242 420.6875 84.625 C 422.3808 93.42491 399.25236 126.27595 426.28125 120.875 C 450.71595 121.79037 408.55327 123.28465 420.4375 138.78125 C 408.09016 131.50761 414.49203 158.62801 398.375 152.3125 C 384.41245 159.85319 375.23895 148.81486 378.4375 136.71875 C 367.45358 143.08076 381.87986 161.07755 362.8125 162.15625 C 358.54126 177.21508 323.40062 174.91605 343.375 190.25 C 352.24308 213.06919 310.35159 191.67869 322.25 219.0625 C 332.42978 246.14094 353.75084 210.12143 362.40625 203.15625 C 378.58417 190.69683 402.31997 222.92083 390.125 226.125 C 405.47804 223.2467 401.85939 207.99558 388.71875 202 C 381.42708 183.22376 411.8096 211.24231 410.125 220.65625 C 420.84188 240.58101 416.43802 200.24083 427.34375 218.09375 C 426.07045 236.92596 471.20958 222.52983 449.65625 246.53125 C 431.12537 250.23702 412.86008 241.80724 396.90625 247.21875 C 382.05748 247.08815 382.84355 231.31958 377.4375 227.375 C 358.54969 228.89854 335.17607 228.72528 322.53125 243.875 C 308.85759 262.50158 289.15895 288.55987 304.0625 312.34375 C 318.97645 347.58871 355.959 314.15386 377.21875 334.96875 C 383.53788 343.64762 371.74576 353.97419 385.875 363.375 C 391.19175 383.40041 379.81693 402.38819 392.875 421.53125 C 397.25339 433.20507 400.58123 448.63436 409.21875 453.5625 C 428.07679 438.91544 444.78438 421.6233 458.78125 402.25 C 460.31506 399.47738 462.08391 396.8212 464.25 394.34375 C 465.99431 391.72332 467.69698 389.06376 469.34375 386.375 C 456.50149 358.23512 484.09605 343.60812 497.125 322.25 C 497.89145 319.45449 498.5791 316.64623 499.25 313.8125 C 479.06042 315.25791 461.32245 295.08575 456.40625 274.8125 C 447.56454 264.62684 449.87343 249.6154 459.75 268.75 C 473.32525 281.81023 473.63798 320.52977 498.75 300.59375 C 499.78393 300.16438 501.01159 299.59477 502.3125 298.96875 C 503.97226 289.38914 505.0888 279.63903 505.625 269.71875 C 494.54783 263.462 488.32931 241.39063 505.9375 261.09375 C 505.97155 259.39492 506 257.70698 506 256 C 506 246.79118 505.5016 237.70079 504.53125 228.75 C 502.29572 228.91313 499.29095 227.41571 495.53125 223.3125 C 497.92361 207.62135 480.6057 195.48451 497 189.3125 C 482.15081 135.53875 449.79252 89.02536 406.4375 56.3125 z M 102.875 58.375 C 98.62794 61.67064 94.49131 65.09918 90.46875 68.65625 C 90.43449 68.69315 90.40917 68.74546 90.375 68.78125 C 90.01442 69.15886 89.65705 69.44694 89.3125 69.6875 C 38.459468 115.21723 6.375004 181.26447 6.03125 254.8125 C 12.454873 265.82552 19.849235 277.06803 20.375 270.6875 C 11.424738 261.38153 2.199056 233.47798 17.34375 258.34375 C 30.908965 281.98049 49.2375 297.31276 75.96875 302.9375 C 90.58366 307.87324 102.61632 324.82682 115.46875 321.09375 C 122.73629 340.11522 93.90187 358.41468 116.40625 376.15625 C 128.15473 394.11696 147.92878 405.90947 137.25 431.125 C 133.14677 444.65635 132.23574 458.81788 131.1875 472.65625 C 139.04858 477.19473 147.19131 481.29137 155.5625 484.96875 C 157.87224 479.86848 160.91962 475.19752 165.21875 471.15625 C 185.553 471.31621 169.12824 449.42448 189.3125 452.28125 C 201.62897 436.25271 205.18359 417.11467 225.96875 410.75 C 228.45154 391.29378 260.54368 361.51266 227.40625 353.9375 C 218.4 349.53017 195.19659 347.95599 196.96875 345.78125 C 200.55913 326.47555 167.00472 320.96107 152.71875 313.0625 C 133.96184 299.84367 105.76466 335.03046 99.15625 304.71875 C 95.2131 295.18169 80.78039 295.05983 87.40625 280.34375 C 75.46523 292.13507 52.1352 288.52153 58.25 265.75 C 67.35165 246.95336 101.78733 245.69932 108.875 267.375 C 101.72552 242.57792 125.81781 223.12349 139.3125 205.34375 C 142.10973 196.69254 158.71946 189.28336 153 200.78125 C 162.74405 200.43205 177.49713 182.97341 160.1875 191.03125 C 159.94255 175.10988 145.05705 179.64554 140.21875 181.90625 C 149.18606 167.77521 195.25384 175.53556 175.96875 152.4375 C 161.02534 146.42579 162.23988 111.33105 147.125 130.875 C 148.39695 118.83313 116.36346 95.27588 117.0625 115.46875 C 120.97297 133.53761 117.7595 154.34365 109.4375 166.1875 C 107.70079 139.71061 62.21498 145.5266 68.0625 117.3125 C 76.53396 103.86557 86.46311 85.29586 87.40625 86.96875 C 100.46408 82.01887 111.29094 68.942721 102.875 58.375 z M 120.71875 64.65625 C 112.45817 78.09182 132.92441 69.6166 120.71875 64.65625 z M 301.5625 80.5625 C 291.89144 91.6171 279.14566 77.65458 278.9375 87.15625 C 280.69026 90.0272 287.71338 110.52767 303.09375 95.40625 C 311.34846 91.9509 308.07682 83.22932 301.5625 80.5625 z M 95.65625 87.15625 C 77.31269 103.06169 126.8294 104.54668 99.5625 89 L 95.65625 87.15625 z M 337.4375 131.375 C 324.71001 139.98996 344.02006 157.95991 337.4375 166.4375 C 329.16203 180.75326 368.18912 165.42166 347.34375 154 C 345.91514 144.56096 335.92006 133.14436 337.46875 131.375 L 337.4375 131.375 z M 328.75 148.46875 C 310.34924 153.63393 324.57646 180.30413 331.09375 155.1875 C 331.46009 153.73135 331.95337 148.4201 328.75 148.46875 z M 181.40625 167.75 C 164.28779 179.33945 178.76675 190.9333 191.3125 185.71875 C 188.73688 178.7262 181.52226 174.29479 181.40625 167.75 z M 460.875 187.40625 C 459.71616 198.75033 485.50837 216.34804 457.6875 210.59375 C 442.97457 212.30733 420.93329 210.13996 439.46875 191.9375 C 445.32547 188.4466 460.6896 204.02091 452.6875 189.5 C 455.5244 189.32049 458.20251 188.26079 460.875 187.40625 z M 499.53125 199.3125 C 499.02589 200.70167 499.16033 202.13837 500.46875 203.59375 C 500.16435 202.16693 499.85988 200.73019 499.53125 199.3125 z M 375.875 211.96875 C 365.1436 218.83305 383.29574 224.09657 375.875 211.96875 z M 106.40625 275.9375 C 104.59707 281.93021 140.35663 288.00722 115.6875 278.40625 L 112 277.125 L 106.40625 275.9375 z M 134.15625 284.46875 C 123.31271 295.39841 156.49717 287.73409 134.15625 284.46875 z" opacity="0.47" fill="#e6e6e6"/>
 <path d="M 256 27.28125 C 129.68966 27.28125 27.28125 129.68966 27.28125 256 27.28125 382.31034 129.68966 484.71875 256 484.71875 382.31034 484.71875 484.71875 382.31034 484.71875 256 484.71875 129.68966 382.31034 27.28125 256 27.28125 z m 0 27.23382 c 111.27941 0 201.48493 90.20552 201.48493 201.48493 0 111.27941 -90.20552 201.48493 -201.48493 201.48493 C 144.72059 457.48493 54.51507 367.27941 54.51507 256 54.51507 144.72059 144.72059 54.51507 256 54.51507 z" fill="#fff8eb" fill-rule="evenodd"/>
 <g transform="matrix(-1.1947262,0,0,1.1947262,2855.8186,-19.276274)" fill="#fff8eb">
  <path d="m 2130.5625 83.25 c -0.4352 -0.07161 -0.4946 0.537504 -0.1875 1.8125 2.0318 8.43522 2.8898 20.57727 2.4375 34.1875 -0.556 16.72992 -1.9339 23.23292 -10.25 48.46875 -5.825 17.6765 -6.2101 20.75433 -3.5313 26.875 1.1706 2.67448 3.9527 7.60453 6.2188 10.96875 l 4.125 6.125 8.5938 -8.71875 c 4.7291 -4.79898 11.2124 -10.37908 14.375 -12.375 l 5.75 -3.625 0 -12.25 c 0 -13.6143 -2.1845 -36.74216 -4.5 -47.75 -2.6043 -12.38067 -8.7264 -25.41053 -17.6876 -37.6875 -2.8552 -3.911756 -4.6184 -5.911901 -5.3437 -6.03125 z" fill-rule="evenodd"/>
  <path d="m 2259.5938,98.78125 -11.5,14.28125 c -12.7169,15.7744 -31.7171,35.48727 -42.5,44.09375 -3.85,3.07288 -13.3002,9.73279 -21,14.8125 -22.5094,14.84954 -37.6241,26.72902 -46.9688,36.90625 -2.2255,2.42373 -4.5102,4.89873 -5.0938,5.5 -0.5832,0.60128 -2.3522,3.69121 -3.9062,6.875 -3.5168,7.20487 -4.2262,16.08835 -2.2188,27.21875 0.7936,4.4 1.2943,8.1531 1.125,8.34375 -0.1693,0.19065 -1.2839,-2.73435 -2.4687,-6.5 -2.9374,-9.336 -3.044,-21.71966 -0.25,-29.75 l 2.0625,-5.90625 -6,-7.59375 c -6.845,-8.66505 -9.8261,-14.14423 -12.1875,-22.34375 -2.9407,-10.21165 -9.0991,-14.75 -20,-14.75 -9.5094,0 -17.8906,6.52882 -20.3125,15.875 -0.729,2.81344 -1.6815,3.66357 -6.25,5.5 -2.9698,1.19383 -5.5411,2.62332 -5.7188,3.15625 -0.1774,0.53293 1.7808,2.09455 4.375,3.46875 11.7621,6.23025 16.2555,13.98275 19.6876,34.125 3.7448,21.97937 15.8731,47.27148 28.2812,59 7.5553,7.14152 18.4721,12.28661 33.5938,15.8125 7.482,1.74461 12.707,2.51023 31.375,4.65625 3.4371,0.39512 5.9951,2.02045 15,9.5625 5.9708,5.00099 14.9247,12.37339 19.875,16.375 4.9499,4.0016 14.1749,11.6419 20.5,16.96875 l 11.5,9.6875 6.2812,-0.625 c 3.4654,-0.34757 8.7758,-1.56296 11.7812,-2.6875 12.0762,-4.51823 16.1974,-11.67116 17.9376,-31.03125 l 0.7187,-7.65625 -14.875,-7.21875 c -8.1722,-3.96451 -20.9188,-10.02357 -28.3437,-13.46875 -22.4044,-10.39559 -28.2154,-13.09168 -35.0626,-16.34375 -5.7714,-2.74124 -7.1754,-4.03247 -11.8437,-10.71875 -4.0678,-5.8261 -5.7028,-7.42185 -6.9687,-6.875 -4.3606,1.88343 -12.15,2.71165 -15.3438,1.625 l -3.2812,-1.125 3.1562,0.53125 c 4.606,0.76332 10.8375,-1.23248 14.8438,-4.75 5.0836,-4.46356 5.2076,-6.45564 0.9062,-14.28125 -3.6283,-6.60089 -3.6607,-6.78556 -1.8125,-8.59375 1.0384,-1.01595 6.828,-4.80498 12.8437,-8.4375 16.7282,-10.10087 26.0691,-17.13176 36.5938,-27.53125 17.8045,-17.59275 26.2597,-34.26529 30.375,-59.8125 1.8705,-11.61247 2.9314,-35.11491 1.875,-41.53125 l -0.7812,-4.84375 z m -175.9063,88.28125 c 0.718,-7.1e-4 1.4314,0.49399 2.4687,1.53125 1.8417,1.84162 1.9462,2.35348 0.7813,4.21875 -1.3947,2.23334 -3.4327,2.67921 -5.6875,1.25 -1.7724,-1.12344 -1.1212,-5.13121 1.0625,-6.5 0.5134,-0.32182 0.9442,-0.49958 1.375,-0.5 z m 102.1563,108 c 0.6716,0.0231 1.2416,0.56356 2.0937,1.8125 1.6197,2.37436 5.3225,11.26029 4.875,11.6875 -0.1242,0.11856 -1.7933,-0.60232 -3.7187,-1.59375 -6.8633,-3.53374 -9.014,-8.80053 -4.6563,-11.40625 0.5687,-0.34006 1.0032,-0.51387 1.4063,-0.5 z" fill-rule="evenodd"/>
  <path d="m 2171.0312 312.1875 c -0.9679 -0.0514 -1.944 0.35091 -2.9374 1.25 -2.6103 2.36219 -2.531 4.81241 0.25 7.96875 2.4526 2.78371 9.2107 6.4365 12 6.5 1.6185 0.0369 1.5822 -0.1053 -0.1563 -1.84375 -1.0338 -1.03382 -2.6458 -4.20869 -3.5937 -7.0625 -1.4437 -4.34647 -3.4331 -6.69947 -5.5626 -6.8125 z" fill-rule="evenodd"/>
 </g>
</svg>
