<svg xmlns="http://www.w3.org/2000/svg" width="512" height="512">
 <g transform="translate(0,-540.36217)">
  <path d="m 171.19523 522.88463 c -2.97837 0.91869 -5.96431 1.89001 -8.90037 2.90204 2.936 -1.01223 5.92206 -1.98317 8.90037 -2.90204 z m 169.60954 0 c 2.97831 0.91887 5.96437 1.88981 8.90037 2.90204 -2.93606 -1.01203 -5.922 -1.98335 -8.90037 -2.90204 z m -182.88832 4.44263 c -2.91425 1.05805 -5.81572 2.1832 -8.68504 3.33197 2.86925 -1.14899 5.77085 -2.27371 8.68504 -3.33197 z m 196.1671 0 c 2.91419 1.05826 5.81579 2.18298 8.68504 3.33197 -2.86932 -1.14877 -5.77079 -2.27392 -8.68504 -3.33197 z M 128.1648 540.0819 c -4.12408 2.05192 -8.19383 4.20762 -12.20212 6.44897 4.00818 -2.24169 8.07815 -4.3967 12.20212 -6.44897 z m -12.20212 6.44897 c -2.67221 1.49422 -5.31281 3.04554 -7.93139 4.62176 2.61849 -1.57644 5.25925 -3.12731 7.93139 -4.62176 z m -7.93139 4.62176 c -2.60995 1.57104 -5.19699 3.18597 -7.75193 4.83673 2.56312 -1.6567 5.13345 -3.26028 7.75193 -4.83673 z M 383.8352 540.0819 c 4.12397 2.05227 8.19394 4.20728 12.20212 6.44897 -4.00829 -2.24135 -8.07804 -4.39705 -12.20212 -6.44897 z m 12.20212 6.44897 c 2.67214 1.49445 5.3129 3.04532 7.93139 4.62176 -2.61858 -1.57622 -5.25918 -3.12754 -7.93139 -4.62176 z m 7.93139 4.62176 c 2.61848 1.57645 5.18881 3.18003 7.75193 4.83673 -2.55494 -1.65076 -5.14198 -3.26569 -7.75193 -4.83673 z M 256 547.2116 c -91.41297 0 -171.34261 49.02887 -214.93684 122.13638 C 18.815906 706.65664 6 750.21576 6 796.78686 c 0 137.82877 111.93666 249.57534 250 249.57534 138.06334 0 250 -111.74657 250 -249.57534 0 -46.5711 -12.81592 -90.13022 -35.06316 -127.43888 C 427.34259 596.24047 347.41297 547.2116 256 547.2116 z M 92.67097 561.07688 c -3.75911 2.60247 -7.46386 5.28704 -11.08957 8.06122 3.62561 -2.77451 7.33056 -5.45841 11.08957 -8.06122 z M 81.5814 569.1381 c -2.41715 1.84945 -4.82205 3.73717 -7.17773 5.66077 2.35562 -1.92382 4.76065 -3.81109 7.17773 -5.66077 z m -7.17773 5.66077 c -3.53351 2.88539 -6.981489 5.87378 -10.371801 8.92108 3.390225 -3.04759 6.838391 -6.03536 10.371801 -8.92108 z m -10.371801 8.92108 c -2.260208 2.03152 -4.480892 4.09688 -6.67528 6.19818 2.194334 -2.10148 4.415131 -4.16646 6.67528 -6.19818 z m -6.67528 6.19818 c -1.103289 1.05648 -2.179542 2.11486 -3.265863 3.18866 1.080386 -1.06786 2.168696 -2.13792 3.265863 -3.18866 z M 419.32903 561.07688 c 3.75901 2.60281 7.46396 5.28671 11.08957 8.06122 -3.62571 -2.77418 -7.33046 -5.45875 -11.08957 -8.06122 z m 11.08957 8.06122 c 2.41708 1.84968 4.82211 3.73695 7.17773 5.66077 -2.35568 -1.9236 -4.76058 -3.81132 -7.17773 -5.66077 z m 7.17773 5.66077 c 3.53341 2.88572 6.98157 5.87349 10.3718 8.92108 -3.39031 -3.0473 -6.8383 -6.03569 -10.3718 -8.92108 z m 10.3718 8.92108 c 2.26016 2.03172 4.48094 4.0967 6.67528 6.19818 -2.19438 -2.1013 -4.41507 -4.16666 -6.67528 -6.19818 z m 6.67528 6.19818 c 1.09717 1.05074 2.18547 2.1208 3.26586 3.18866 -1.08631 -1.0738 -2.16257 -2.13218 -3.26586 -3.18866 z" fill="#514a85" fill-rule="evenodd"/>
  <text y="1089.8812" x="-1160.4812" font-family="Gentium Book Basic" word-spacing="0" line-height="125%" letter-spacing="0" font-size="208.33333"><tspan y="1089.8812" x="-1160.4812"/>
  </text>
  <text transform="scale(4.0128362,0.2492003)" font-size="75.69771" y="3810.6255" x="28.533577" font-family="Arial" text-anchor="middle"/>
  <g transform="matrix(0.98943921 -0.13940241 0 1 6.671042 38.95923)">
   <path d="m 396.28285 607.65385 c -1.15344 -1.31547 -2.31981 -2.61403 -3.49996 -3.89666 1.1612 1.29557 2.32929 2.59413 3.49996 3.89666 z" fill="#282629"/>
   <path d="m 55.47998 738.0457 c 0 0 -0.59352 0.83884 -1.486815 2.2369 -0.127491 0.76321 -0.259288 1.52543 -0.379887 2.29063 0.561647 -1.80703 1.18101 -3.33843 1.866702 -4.52753 z" fill="#282629"/>
   <path d="m 286.6875 615.1869 c -17.96953 1.40673 -22.61666 6.29567 -29.23454 11.11696 -7.80506 5.54996 -7.69589 12.20147 -13.79104 20.17804 -2.23823 2.90465 -4.32978 6.20414 -5.88067 9.53188 0.82347 -3.5975 1.49659 -7.89051 4.52376 -9.9414 1.33848 -1.08957 1.59405 -3.54393 0.22624 -4.7505 -0.75584 -0.96154 -1.65796 -1.85531 -2 -3.14053 -1.80345 -0.14062 -3.29621 -1.39314 -4.76718 -2.44925 -3.2587 -1.39137 -12.13157 1.09616 -15.35225 1.61813 -7.33 1.84189 -9.23301 2.16782 -16.60871 3.71207 -5.90805 1.06001 -11.8274 2.47688 -17.28266 5.39906 -10.05419 5.01477 -18.92918 12.74883 -26.76825 21.49623 -6.63293 8.08573 -10.78307 18.2702 -15.65245 27.75914 -6.08385 12.46382 -11.2849 25.50975 -15.31908 39.04382 -4.38605 13.8959 -8.32287 27.97246 -12.37442 42.00118 -1.05386 1.233 1.33508 2.9979 1.80629 1.25854 0.99669 -2.04677 1.86461 -4.18376 3.00621 -6.13177 -0.49727 15.99005 -1.86214 31.91862 -2.79115 47.87796 -0.83871 12.72736 -1.63015 25.46114 -2.08385 38.21587 1.0008 -1.78788 1.17121 -3.99957 1.89438 -5.93646 1.14442 -4.156 2.28215 -8.31445 3.41812 -12.47354 5.609 22.20036 9.93158 44.84431 16.5541 66.69395 7.13873 23.53405 17.19451 45.89421 29.80419 66.13648 5.26966 8.40217 11.98069 7.22128 18.49764 14.37136 6.07307 5.81176 23.33578 11.33637 31.07655 11.80847 16.40642 6.24281 24.36889 5.22141 40.82855 5.04031 19.33601 -0.6695 42.2983 1.9427 61.18539 -3.3646 13.3052 -4.06134 24.97028 -3.11466 37.85092 -8.60801 15.01854 -6.84442 27.71672 -6.81575 41.90745 -15.78348 5.82292 0.11767 32.51724 -4.00974 2.79521 -22.91053 -0.74248 -4.26539 -4.29352 -6.553 -6.83803 -9.31202 -5.11823 -5.06171 -9.97281 -10.84369 -16.28697 -13.89902 -2.00142 -0.47342 -3.90748 0.82683 -5.88041 1.06906 -4.49923 0.81932 -9.10263 0.1065 -13.52584 -0.96077 -5.51237 -1.46927 -10.93492 -3.358 -16.45579 -4.78221 -11.23068 -3.3907 -21.77487 -9.13651 -32.30485 -14.66439 -7.51042 -4.1323 -14.64091 -9.37993 -20.48739 -16.2726 -9.29265 -10.56551 -16.27471 -23.65659 -21.03322 -37.63202 -3.44319 -10.70014 -5.45044 -22.32483 -3.8677 -33.72188 0.99136 -7.71873 3.21166 -15.12901 4.91823 -22.64837 0.50667 -4.01963 4.41188 -11.55973 2.85593 -15.30094 -1.58595 -1.20825 -17.38947 9.68203 -18.49967 10.78389 -7.58543 7.29292 -6.11132 7.19236 -12.17613 16.41351 -10.18984 15.21763 -14.50905 35.55343 -11.24969 54.45533 1.19159 7.44755 3.84339 14.52435 7.42528 20.84619 -0.49428 1.29651 -1.91848 0.081 -2.125 -0.86635 -6.95208 -10.61803 -10.29207 -24.13434 -9.70045 -37.38934 0.4827 -11.5236 3.03574 -22.90957 7.22219 -33.36975 3.91789 -9.24628 9.62741 -17.56773 16.97101 -23.47972 6.50079 -5.53774 13.73927 -9.90301 21.2885 -13.18897 1.65512 -0.43693 3.25136 0.42011 4.77615 0.98869 2.59684 0.10685 4.50583 -2.48401 7.02278 -2.85859 2.94989 -0.99334 5.85105 -2.77145 7.52888 -5.85464 5.50439 -7.63798 11.36873 -15.2823 14.45873 -24.71056 3.85199 -10.29177 6.12789 -21.79554 4.44543 -32.98943 -2.1843 -12.76078 -6.2782 -23.6519 -8.6593 -36.33698 -0.62734 -3.63767 -2.9972 -7.52323 -1.29857 -10.71179 2.27715 -4.77107 5.55806 -9.10302 6.32532 -14.64915 1.48607 -7.67872 1.29986 -15.97839 -1.57089 -23.21401 -1.36463 -4.34876 -3.40661 -8.786 -7.09103 -11.02179 -4.6113 -2.97777 -15.79812 -3.31825 -20.77871 -1.73929 1.32256 -0.45598 8.26867 -0.36762 9.59121 -0.82367 -0.15625 0.024 -0.3125 0.0482 -0.46875 0.0722 z m -120.96875 1.8049 c -7.18321 2.58008 -12.17503 10.31512 -13.95817 18.51537 -2.21895 9.2588 -3.99164 18.69812 -5.01916 28.22455 0.22609 3.05078 1.38137 5.85634 2.60233 8.52618 1.406 0.9452 2.46236 -1.06953 2.95675 -2.31866 1.70241 -4.20737 4.44799 -7.90786 8.02869 -10.09315 8.0598 -6.35314 16.29582 -12.43273 23.98331 -19.39056 2.29231 -4.61494 0.40906 -10.58569 -2.88946 -13.84631 -3.12584 -3.14962 -6.62017 -5.79535 -10.17304 -8.2457 -1.73738 -0.90671 -3.59957 -1.60728 -5.53125 -1.37172 z m 144 43.53424 c -0.49157 0.88958 -0.22001 2.25055 -0.16836 3.31443 0.26389 2.71786 0.70519 5.612 -0.41854 8.16734 -1.06342 3.77883 -2.81994 7.94341 -1.28399 11.88982 1.55936 4.63587 3.4268 9.14843 4.50368 13.98079 3.28188 11.20663 5.82589 23.15414 4.28672 35.04099 -1.17651 9.00343 -5.11576 17.02894 -7.88826 25.43232 0.76802 0.24642 1.63625 -0.95399 2.46875 -1.19123 9.20961 -5.36093 18.33223 -10.93743 27.76991 -15.75382 3.90288 -2.18314 7.97091 -4.26722 11.23009 -7.63771 2.12506 -2.83594 3.30681 -6.40091 5.14853 -9.46352 2.38944 -4.93509 1.62264 -10.86024 0.32819 -16.04277 -1.40931 -4.84744 -3.14127 -9.69789 -5.88429 -13.7554 -2.42734 -3.67976 -5.93359 -6.29879 -9.8134 -7.42238 -3.92399 -1.36504 -8.11902 -2.57524 -11.16761 -5.94395 -3.2144 -2.89233 -6.80308 -5.30615 -9.60539 -8.7546 -2.70533 -3.7359 -4.06396 -9.01395 -8.04851 -11.33128 -0.46941 -0.19478 -0.94615 -0.60164 -1.45752 -0.52903 z m -1.25 100.89403 c -1.75166 0.16608 -2.85811 1.91131 -3.71875 3.46541 -0.69917 0.53316 -1.65947 1.77799 -0.46875 2.38247 1.39461 1.26356 4.0409 1.35137 4.66335 -0.95332 0.54509 -1.55135 0.69619 -3.27116 0.5554 -4.93066 -0.3455 0.0378 -0.68415 -0.0173 -1.03125 0.036 z m -2.4375 0.21658 c 0.12187 0.0493 0.0467 -0.11262 0 0 z M 303 766.47379 c -0.0622 0.62912 0.17955 -0.21087 0 0 z m -28.9318 71.05753 c -0.66541 10.60661 2.02457 13.59405 3.75092 19.38202 3.32769 10.05825 6.90767 14.59512 12.63659 23.01334 6.68366 9.35291 14.81143 17.93942 24.87707 22.00681 7.9503 3.09033 16.48337 3.45314 24.79222 2.9041 6.3487 -0.58061 12.77948 -1.92304 18.53125 -5.19812 5.30953 -3.28336 9.58141 -8.36674 13.08635 -13.95324 3.98029 -5.82943 8.69088 -11.65852 15.0761 -13.74837 5.20179 -1.92372 10.99423 -2.21186 15.58755 -5.94176 2.62241 -2.92442 1.9353 -8.3848 -1.04125 -10.64692 -3.89781 -4.12887 -8.92718 -6.31853 -13.48441 -9.26456 -8.63104 -4.98014 -18.4672 -7.28145 -28.08293 -5.99712 -14.03434 1.31236 -15.55795 21.78411 -37.06442 20.3845 -13.37108 -0.53612 -15.35696 -1.79514 -26.71743 -10.8447 -1.7126 -0.53835 -11.47745 -11.77754 -21.94761 -12.09598 z m 112.9943 94.30761 c 1.05298 0.83014 2.30814 1.16723 3.46875 1.7327 -1.1789 -0.6898 -2.39615 -1.28173 -3.625 -1.841 z" fill="#fff8eb"/>
   <path d="m 289.53873 780.79941 c -0.81855 -0.23098 -1.63177 -0.48964 -2.46114 -0.66729 -0.59603 -0.12034 -1.17121 -0.211 -1.77612 -0.20005 -0.22608 -0.0129 -0.62115 0.006 -0.83712 -0.0332 -0.10119 -0.0185 -0.19152 -0.0906 -0.2929 -0.10754 -0.18098 -0.0304 -0.3664 0.002 -0.54844 -0.0176 -0.47244 0.10281 -0.96535 0.086 -1.42723 0.23854 -0.47802 0.0804 -1.07609 -0.0297 -1.51772 0.14876 -0.50133 0.081 -0.99753 -0.11656 -1.49591 -0.0464 -0.29975 0.008 -0.60526 -0.11505 -0.90486 -0.0894 -0.59299 0.0507 0.25009 0.0828 -0.39724 0.0395 -0.46112 0.11956 0.0985 -0.002 -0.42483 0.0297 -0.0636 0.003 -0.1233 0.0432 -0.18699 0.0463 -0.0584 0.002 -0.40635 -0.0635 -0.45257 -0.0559 -0.0718 0.012 -0.13256 0.0681 -0.19885 0.10234 -0.46876 0.0811 -0.91805 0.24445 -1.39038 0.31884 -0.50239 -0.0208 -1.0308 0.0117 -1.52402 0.13787 -0.59234 0.0947 -1.18692 0.11032 -1.7833 0.17906 -0.31475 -0.0187 -0.66616 -0.035 -0.97821 0.0448 -0.51897 0.13275 0.14853 0.0683 -0.40891 0.0997 -1.56495 0.44654 -3.41414 1.91608 2.29854 -1.78466 0 0 -3.76955 1.71077 -3.76955 1.71077 c 1.55091 -1.0274 2.93734 -2.44044 4.71899 -2.72711 0.45455 -0.11733 0.92039 -0.10304 1.38343 -0.11779 0.59127 -0.0542 1.18146 -0.0958 1.76758 -0.2084 0.50749 -0.0662 1.01717 -0.0928 1.5247 -0.14804 0.46098 -0.12134 0.92469 -0.22179 1.38858 -0.32774 0.43923 -0.007 0.87595 -0.0159 1.31416 -0.0546 0.43121 -0.0384 0.85769 0.0631 1.28948 0.0481 0.48454 0.0308 0.96962 0.10477 1.45142 -0.0125 0.50701 -0.0415 1.01915 -0.0452 1.52015 -0.1544 0.4933 -0.0736 0.99206 -0.16413 1.49026 -0.12946 0.5536 0.0409 1.10299 0.16852 1.66081 0.13027 0.61071 0.0187 1.20498 0.16344 1.80553 0.28629 0.83716 0.21086 1.66489 0.46909 2.50218 0.67938 0 0 -3.33952 2.6419 -3.33952 2.6419 z" fill="#514a85"/>
   <path d="m 307.26829 772.71431 c -0.4649 -0.51939 -0.92564 -1.05453 -1.32567 -1.64383 -0.39214 -0.62945 -0.80135 -1.26598 -1.09136 -1.96868 -0.25072 -0.52347 -0.39411 -1.0991 -0.49309 -1.6828 -0.0438 -0.66436 0.149 -1.28999 0.40361 -1.87412 0.20349 -0.59 0.51389 -1.09363 0.85294 -1.5864 1.41672 -2.22445 1.2206 -1.46477 4.57853 -3.60323 0.53495 0.13338 0.71183 0.6528 0.86132 1.1957 0.0814 0.59831 0.0104 1.21545 -0.0659 1.81088 -0.0864 0.46361 -0.005 0.92821 -0.002 1.39587 0.0104 2.53193 -1.08889 2.00154 -3.729 3.84925 -0.43175 -0.22779 -0.62897 -0.62263 -0.82342 -1.09723 -0.22159 -0.6079 -0.38427 -1.24136 -0.57131 -1.86383 -0.17625 -0.55079 -0.529 -0.8924 -0.89124 -1.2699 -0.36928 -0.21501 -0.33565 -0.13966 -0.64079 0.0388 -0.42688 0.24976 0.11975 -0.20093 -0.33576 0.20711 5.72077 -4.07682 3.26514 -2.44483 2.22665 -0.8446 -0.2997 0.53031 -0.43818 1.12863 -0.47522 1.75313 -0.0752 0.51744 -0.0389 1.02465 0.0341 1.53629 0.0705 0.2443 0.14298 0.89608 0.25917 0.22967 -7.68159 4.7182 -3.73492 3.06011 -3.03537 1.85757 0.14433 -0.24812 0.23539 -0.53606 0.32406 -0.81412 0.1964 -0.61025 0.28495 -1.256 0.41169 -1.88799 0.11837 -0.63098 0.35632 -1.21031 0.59816 -1.78668 0.79445 -2.0638 2.39466 -2.30831 4.29782 -3.56946 0.37129 -0.1649 0.67643 -0.29192 1.08154 -0.19222 0 0 -3.29488 2.72956 -3.29488 2.72956 c -0.34094 0.0558 -0.65145 0.21737 -0.96477 0.37757 1.10319 -0.74576 2.20638 -1.49152 3.30958 -2.23727 -0.006 0.005 -0.33955 0.23068 -0.34932 0.24201 -0.16393 0.19013 -0.28704 0.47508 -0.40161 0.70418 -0.20442 0.57882 -0.52317 1.09861 -0.63107 1.72278 -0.16493 0.62704 -0.20559 1.29323 -0.40151 1.90785 -0.58241 2.44031 -1.50387 2.15405 -4.1154 3.88955 -0.43775 -0.11656 -0.58541 -0.52206 -0.67728 -0.99359 -0.039 -0.53632 -0.18198 -1.07159 -0.0538 -1.61484 0.0134 -0.69788 0.11142 -1.35401 0.38767 -1.98427 1.00048 -1.96597 3.00797 -2.86359 4.62868 -3.95286 0.50487 -0.19055 0.81687 -0.19189 1.25624 0.21758 0.41447 0.4257 0.77663 0.86753 0.98546 1.47599 0.18943 0.60193 0.33863 1.22135 0.55751 1.81086 0.0593 0.13386 0.30375 0.80856 0.47233 0.46548 -1.1063 0.78105 -2.2126 1.56212 -3.31889 2.34318 0.11533 -0.13272 0.15417 -0.15177 0.21525 -0.34706 0.0788 -0.25182 0.0413 -0.51742 0.0532 -0.77772 0.004 -0.50003 -0.074 -0.98337 -0.0215 -1.48065 0.11014 -0.52141 0.11734 -1.06784 0.14722 -1.60223 -0.0841 -0.32808 -0.13774 -0.75408 -0.51276 -0.58045 1.09586 -0.73518 2.19718 -1.45959 3.28757 -2.20553 0.0728 -0.0498 -0.15953 0.0676 -0.23307 0.11591 -0.33552 0.22031 -0.49636 0.64697 -0.71047 0.99785 -0.33606 0.46899 -0.71063 0.90757 -0.88238 1.49817 -0.23678 0.5104 -0.48125 1.01118 -0.51656 1.60535 0.0569 0.54764 0.2238 1.08302 0.4327 1.57786 0.25591 0.67899 0.66382 1.28524 1.05059 1.87041 0.3872 0.57734 0.82422 1.11653 1.30439 1.59138 0 0 -3.45218 2.44369 -3.45218 2.44369 z" fill="#514a85"/>
   <path d="m 241.57189 639.14967 c -0.75158 -0.13537 -1.4934 -0.33155 -2.21837 -0.59625 -0.51159 -0.24912 -1.04033 -0.51784 -1.59074 -0.61954 -0.50555 -0.32956 -1.05891 -0.3955 -1.61953 -0.49674 -0.45438 -0.15445 -0.88273 -0.40231 -1.35716 -0.44667 -0.4659 -0.11413 -0.9498 -0.14004 -1.41358 -0.29823 -0.45235 -0.0337 -0.89007 -0.10154 -1.33777 -0.1832 -0.40906 0.0504 -0.8208 -0.0956 -1.22175 0.0256 -0.17323 -0.0127 -0.35972 0.13359 -0.49012 0.17922 -0.17042 0.0596 -0.42072 0.0143 -0.59609 0.0117 -0.22774 -0.0519 -0.43912 0.0232 -0.65763 0.0519 -0.22287 0.0292 -0.40247 -0.0337 -0.62414 0.0359 -0.47747 -0.0784 -0.84289 -0.0724 -1.31476 0.0239 -0.47599 0.13551 -1.00701 0.13248 -1.47421 0.2698 -0.1419 -0.0991 -0.26521 0.0605 -0.39851 0.0499 -0.0918 -0.007 -0.17337 -0.0802 -0.26507 -0.0891 -0.09 -0.009 -0.17865 0.0337 -0.26886 0.0374 -0.6831 0.0278 0.086 -0.0735 -0.56085 0.0275 -0.47335 0.0341 -0.9618 0.0963 -1.43374 0.0261 -0.47195 0.023 -0.93886 0.002 -1.41807 0.0491 -0.57991 -0.0241 -1.19346 -0.0178 -1.76096 0.13975 -0.34965 -0.005 -0.69099 0.10558 -1.03692 0.1251 -1.02539 0.058 0.47194 -0.11998 -0.54068 0.0133 -0.58123 -0.0452 -1.15888 0.0162 -1.7407 0.064 -0.51093 0.0326 -1.01872 0.0223 -1.52385 0.12047 0 0 3.22822 -2.77828 3.22822 -2.77828 c 0.51289 -0.0442 1.02705 -0.058 1.53979 -0.10616 0.5824 -0.0489 1.16384 -0.0578 1.74751 -0.0715 0.52018 -0.0231 1.03833 -0.0883 1.55376 -0.17214 0.59244 -0.072 1.18701 -0.10119 1.78261 -0.10026 0.48699 -0.0296 0.97489 -0.0239 1.46201 -0.0132 0.46411 -0.0127 0.92947 -0.00026 1.39141 -0.0676 0.49335 -0.0115 0.98881 0.0329 1.47696 -0.0684 0.49689 -0.0587 0.98369 -0.18404 1.47963 -0.25412 0.44342 -0.0527 0.88286 0.0291 1.32519 -0.0269 0.43495 -0.002 0.86655 -0.0583 1.30213 -0.0531 0.36595 -0.0393 0.70512 -0.20265 1.07585 -0.21778 0.42322 0.0178 0.84755 0.0169 1.26913 0.0766 0.45234 0.0711 0.91055 0.10373 1.3567 0.2204 0.46687 0.10003 0.93872 0.1554 1.40443 0.26176 0.45569 0.12404 0.88628 0.35077 1.34668 0.45655 0.56514 0.11332 1.107 0.27397 1.64147 0.51781 0.54085 0.19127 1.07301 0.405 1.595 0.65724 0.71396 0.25698 1.45088 0.4308 2.19457 0.52316 0 0 -3.30899 2.69507 -3.30899 2.69507 z" fill="#514a85"/>
   <path d="m 293.94977 775.32413 c -0.66097 0.18645 -1.35002 0.33392 -2.03323 0.35154 -0.4389 0.0861 -0.91591 -0.001 -1.32516 0.23859 -0.36934 0.005 -0.70528 0.0723 -1.05914 0.17677 -0.40785 0.12921 -0.82954 0.20763 -1.2571 0.20322 -0.42874 0.0858 -0.8428 0.26768 -1.23396 0.48963 -0.45314 0.24459 -0.82318 0.56166 -1.34564 0.53814 -0.52469 -0.0255 -0.97322 0.3038 -1.46005 0.41733 -0.45633 0.19752 -0.91347 0.34122 -1.37891 0.50238 -0.42705 0.24305 -0.92378 0.25656 -1.36271 0.47201 -0.43093 0.17915 -0.84148 0.34616 -1.28552 0.47962 -0.0726 0.0374 -0.14105 0.0881 -0.2177 0.11251 -0.0832 0.0264 -0.17278 0.0152 -0.25677 0.0381 -0.30505 0.0832 -0.56019 0.26643 -0.8717 0.31574 -0.2952 0.0617 -0.60729 0.1849 -0.91155 0.1953 -0.78682 0.0269 0.16721 -0.0853 -0.52812 0.009 -0.47518 0.0523 -0.93278 0.15138 -1.39515 0.28269 -0.0735 0.0157 -0.14864 0.0231 -0.22041 0.047 -0.15199 0.0507 -0.30336 0.10743 -0.44733 0.18317 -0.0701 0.0368 -0.26318 0.18485 -0.19619 0.14094 1.08854 -0.71342 4.30998 -2.93822 3.26103 -2.14961 -1.17581 0.88397 -2.42812 1.62411 -3.64219 2.43616 6.30433 -3.77232 3.67417 -2.7015 2.55618 -1.60088 -0.32225 0.23753 -0.58358 0.57895 -0.85318 0.89342 -0.15799 0.10027 -0.29274 0.21348 -0.41881 0.36057 0 0 -3.78558 1.69804 -3.78558 1.69804 c 0.19951 -0.0761 0.24636 -0.23572 0.42437 -0.36153 0.22898 -0.0884 0.2673 -0.22851 0.4453 -0.39661 0.047 -0.0444 0.11327 -0.0596 0.15501 -0.11055 0.0954 -0.11653 0.11371 -0.30302 0.24519 -0.38905 0.17583 -0.0853 0.25933 -0.24501 0.42196 -0.34779 0.0534 -0.0337 0.12201 -0.0305 0.17213 -0.0703 0.0587 -0.0467 0.0965 -0.12116 0.14472 -0.18175 1.2151 -0.8119 2.43019 -1.6238 3.64529 -2.43571 -1.09358 0.73379 -4.38389 2.91578 -3.28074 2.20136 1.75084 -1.13387 2.82993 -2.34575 4.59658 -2.7506 0.47003 -0.11205 0.94811 -0.18508 1.42702 -0.22404 0.47566 -0.0184 0.94325 -0.12226 1.40151 -0.2687 0.4392 -0.18852 0.89368 -0.31037 1.33757 -0.48179 0.42743 -0.15568 0.84704 -0.33058 1.27368 -0.49101 0.46404 -0.12892 0.92176 -0.27974 1.37066 -0.46659 0.46078 -0.16491 0.92281 -0.32442 1.38291 -0.4934 0.48333 -0.20763 0.98682 -0.30739 1.50009 -0.35573 0.44894 -0.15513 0.83438 -0.462 1.27483 -0.64486 0.4302 -0.17625 0.85225 -0.36717 1.31785 -0.36529 0.41525 -0.0665 0.82295 -0.13764 1.22711 -0.27039 0.34442 -0.0764 0.70101 -0.0746 1.03691 -0.20103 0.45475 -0.0717 0.90927 -0.10442 1.3671 -0.13937 0.68118 -0.0832 1.35474 -0.21701 2.0233 -0.38951 0 0 -3.24146 2.80243 -3.24146 2.80243 z" fill="#514a85"/>
   <path d="m 283.45408 778.6821 c 0.64427 -0.33768 1.30455 -0.61322 1.97008 -0.88716 1.51023 -0.65908 3.98536 -2.43609 -2.05956 1.54648 12.21162 -8.04555 -8.10457 5.29441 4.09375 -2.6788 0.18024 -0.11782 0.36503 -0.20543 0.54387 -0.32645 -0.10106 0.11528 0.56225 -0.33456 0.42508 -0.2436 -8.05922 5.34526 -0.16345 0.10997 0.47523 -0.33527 1.06235 -0.74054 -2.14606 1.43954 -3.22715 2.14295 -0.0803 0.0522 0.14883 -0.12563 0.22324 -0.18845 0.39044 -0.28612 0.73905 -0.62202 1.08795 -0.97161 0.4355 -0.43498 0.71999 -1.01965 1.06632 -1.54183 0.33708 -0.53452 0.77363 -0.93724 1.23451 -1.3177 1.41757 -1.14533 0.13996 -0.12569 3.96034 -2.66145 1.07587 -0.7141 -4.35508 2.74143 -3.22866 2.14025 2.64871 -1.41368 2.45502 -2.32632 4.18485 -2.44718 0.0824 -0.002 0.16488 -0.003 0.24731 -0.006 0 0 -3.25801 2.77356 -3.25801 2.77356 c -0.0771 0.0104 -0.15418 0.0216 -0.23128 0.0323 -0.14404 0.0378 -0.55127 0.23484 -0.42428 0.1477 1.07782 -0.73964 4.35121 -2.87892 3.25269 -2.18111 -0.60441 0.38395 -8.52583 5.70524 -0.49467 0.30967 0.0854 -0.0573 -0.17009 0.11591 -0.25513 0.17387 -0.44279 0.38101 -0.94357 0.68775 -1.27017 1.21956 -0.40684 0.48089 -0.65561 1.08772 -1.03772 1.59329 -0.33987 0.36199 -0.66028 0.77682 -1.0859 0.99388 -1.3409 1.39873 0.99613 -1.00955 -3.88415 2.72269 -1.03023 0.78787 4.27803 -2.85846 3.20728 -2.14634 -1.41164 0.93884 -2.69936 1.91435 -4.12762 2.71898 -0.0664 0.0352 -0.13283 0.0703 -0.19924 0.10558 -0.0582 0.0338 -0.11549 0.0695 -0.17444 0.10142 -0.0614 0.0332 -0.24469 0.13355 -0.18634 0.0938 1.08591 -0.74044 4.36221 -2.9251 3.27028 -2.19656 -0.13771 0.0918 -8.97864 6.0262 -0.41185 0.27818 -1.68871 1.12446 -3.12202 2.29107 -4.8973 3.01766 -0.6672 0.28549 -1.32759 0.58986 -1.99643 0.8693 0 0 3.20712 -2.85241 3.20712 -2.85241 z" fill="#514a85"/>
   <path d="m 359.76135 696.87655 c -0.01 0.82798 -0.0324 1.65601 -0.11381 2.47918 -0.0816 0.55391 -0.21651 1.09516 -0.27496 1.65309 -0.0466 0.46515 -0.20122 0.90203 -0.36158 1.32842 -0.12125 0.55033 -0.31166 1.07361 -0.51371 1.58958 -0.22803 0.55945 -0.30578 1.16573 -0.35026 1.77525 -0.09 0.59108 -0.0716 1.18984 -0.0583 1.78655 0.0963 0.55853 0.0501 1.1275 0.0812 1.69086 0.0775 0.57758 0.2352 1.13083 0.27431 1.71626 0.13911 0.47564 0.18604 0.96866 0.21083 1.46683 0.077 0.66381 -0.0685 1.27142 -0.24585 1.89356 -0.19522 0.51192 -0.34791 1.04423 -0.53568 1.55946 -0.10013 0.44437 -0.21759 0.8872 -0.30537 1.33605 -0.11694 0.54552 -0.34616 1.04365 -0.53218 1.55923 -0.25587 0.63727 -0.40452 1.31677 -0.57829 1.98653 -0.24997 0.72381 -0.39997 1.48357 -0.63042 2.21427 -0.20892 0.6698 -0.44599 1.32359 -0.5845 2.01887 -0.12973 0.54046 -0.17096 1.10054 -0.21441 1.65708 -0.097 0.53159 -0.20209 1.06213 -0.22581 1.60609 -0.0154 0.54355 -0.0673 1.07233 -0.17908 1.60024 -0.0381 0.27415 -0.11373 0.53851 -0.19282 0.79982 -0.007 0.0226 -0.008 0.084 -0.0228 0.0668 -0.0931 -0.11009 -0.10077 -0.28499 -0.1452 -0.43004 -1.12548 0.74559 -2.24859 1.49599 -3.37644 2.23678 -0.12719 0.0835 0.23056 -0.21176 0.32482 -0.34104 0.32481 -0.44545 0.54192 -0.9535 0.76901 -1.46936 0.50998 -1.07273 0.93649 -2.19315 1.4183 -3.28228 0.25416 -0.61155 0.54675 -1.19887 0.82967 -1.79237 0.22634 -0.49136 0.47909 -0.96574 0.71348 -1.45227 0.20062 -0.50199 0.22784 -1.06142 0.29861 -1.60105 0.0927 -0.52124 0.13077 -1.02112 0.0876 -1.54912 -0.0732 -0.93603 -0.0212 -1.8926 0.007 -2.83217 0.10382 -2.05492 0.20576 -4.10967 0.17265 -6.16866 -0.0489 -1.02512 -0.0669 -2.05299 -0.14046 -3.07635 1.18737 -0.61393 2.32114 -1.39099 3.56212 -1.84178 0.18706 -0.0679 -0.16992 0.41076 -0.22301 0.62882 -0.10533 0.43256 -0.1631 0.87877 -0.2507 1.31657 -0.33534 1.67596 -0.7705 3.31113 -1.19192 4.96015 -0.72919 2.42504 -1.39094 4.87957 -2.22842 7.2589 -0.46009 1.0893 -0.76875 2.24223 -1.10911 3.38418 -0.21729 0.66148 -0.44559 1.31273 -0.62182 1.99078 -0.15231 0.93251 -0.38525 1.82273 -0.71272 2.69252 -0.2826 0.6532 -0.58617 1.29686 -0.8994 1.93171 -0.23892 0.51161 -0.52919 0.98087 -0.85906 1.41725 -0.83904 1.34779 -3.71478 2.65251 -3.88747 2.76801 -0.064 0.0429 -0.25957 0.1643 -0.19548 0.12155 3.42312 -2.28323 4.28272 -2.93724 3.03172 -1.99494 -0.44382 0.37747 -0.85713 0.77597 -1.19066 1.28456 -0.33188 0.49122 -0.59631 1.03596 -0.88381 1.56178 -0.31081 0.58109 -0.60688 1.17392 -0.86528 1.78856 -0.0165 0.0582 -0.0184 0.12505 -0.0496 0.17451 -0.0144 0.0227 -0.03 -0.0729 -0.008 -0.084 0.0605 -0.0299 0.1323 0.002 0.19725 -0.009 0.17048 -0.0321 0.34081 -0.0691 0.50714 -0.12292 0.17445 -0.0565 1.39477 -0.53982 1.52232 -0.58999 0.88796 -0.45772 1.80786 -0.83535 2.68638 -1.31801 0.14179 -0.0779 0.27676 -0.17141 0.41514 -0.25712 -1.03185 0.68075 -2.0637 1.3615 -3.09555 2.04226 0.49711 -0.34184 0.83629 -0.8829 1.17816 -1.40675 0.2483 -0.47508 -0.19625 -0.54997 -0.51095 -0.6227 -0.11265 0.008 -0.36334 0.0218 -0.47276 0.0532 -0.24394 0.07 -0.42673 0.26245 -0.63625 0.41138 1.09008 -0.72317 2.18015 -1.44635 3.27023 -2.16952 -0.054 0.0511 -0.11178 0.0971 -0.16202 0.1531 -0.32845 0.36568 0.0554 -0.0347 -0.16634 0.26019 -0.57598 0.76586 -4.45481 3.16895 -3.59966 1.52598 0.25766 -0.37203 0.37982 -0.83166 0.52437 -1.27086 0.008 -0.0357 -0.004 -0.0917 0.025 -0.10732 2.58265 -1.37468 4.48364 -3.17372 3.28288 -0.77693 -0.21581 0.48224 -0.46825 0.93992 -0.71004 1.40498 -0.23486 0.38737 -0.53739 0.70014 -0.77332 1.08503 -0.37971 0.49386 -0.68464 1.05583 -1.0875 1.52518 -0.22613 0.24871 -0.13482 0.15972 -0.38188 0.3851 -0.18683 0.17043 -0.23779 0.20879 -0.23902 0.20539 -0.61753 -1.69254 2.4025 -2.1543 -3.19963 1.46491 1.043 -0.75079 1.93264 -1.72844 2.66689 -2.85985 0.69861 -1.03751 1.22099 -2.21036 1.87557 -3.28194 0.52044 -0.73077 1.09899 -1.4318 1.46393 -2.2876 0.17446 -0.51929 0.20538 -1.07482 0.23834 -1.62379 0.0157 -0.55222 0.0843 -1.10028 0.15954 -1.64533 0.0523 -0.54669 0.0837 -1.08756 0.21898 -1.61737 0.13703 -0.57528 0.3736 -1.1046 0.50554 -1.68137 0.0861 -0.55043 0.14413 -1.10632 0.23093 -1.65686 0.0736 -0.77365 0.22229 -1.5153 0.44622 -2.24751 0.16642 -0.72756 0.34489 -1.4464 0.56295 -2.1554 0.24526 -0.77346 0.62629 -1.47208 0.9707 -2.1885 0.80845 -1.76191 2.20071 -3.58184 4.20938 -3.46177 0.49754 0.63277 0.66048 1.53805 0.8574 2.34584 0.15361 0.7088 0.19317 1.45518 0.13225 2.18158 -0.13242 0.76534 -0.28304 1.5178 -0.53102 2.24462 -0.17118 0.59732 -0.40697 1.14801 -0.74383 1.64118 -0.3406 0.48551 -0.74866 0.89262 -1.08854 1.38048 -0.35493 0.58029 -0.66829 1.19391 -0.98689 1.80158 -0.29183 0.54446 -0.55975 1.10298 -0.83158 1.66057 -0.26022 0.49294 -0.51066 0.99289 -0.77509 1.48268 -0.27387 0.49093 -0.49976 1.01435 -0.76643 1.50999 -0.26102 0.48488 -0.60821 0.89969 -0.95621 1.30183 -0.40548 0.45279 -0.68636 1.01089 -1.00302 1.5413 -0.43868 0.62683 -0.83187 1.29299 -1.24159 1.94474 -0.39937 0.51757 -0.75101 1.07399 -1.08954 1.64556 -0.28817 0.53638 -0.59216 1.06271 -0.84516 1.62268 -0.28471 0.56246 -0.54784 1.14003 -0.84763 1.69208 -0.23516 0.49875 -0.48595 0.98703 -0.74632 1.46885 -0.33165 0.47945 -0.72373 0.90344 -1.12895 1.29915 -0.37916 0.35084 -0.79396 0.64595 -1.15846 1.01777 -0.34358 0.31967 -0.5857 0.75495 -0.82542 1.1769 -0.22293 0.49539 -0.48382 0.94995 -0.79734 1.37379 -0.20657 0.22925 -0.10591 0.11413 -0.30219 0.34527 0 0 -3.77575 1.70739 -3.77575 1.70739 c 0.25133 -0.11263 0.13809 -0.0258 0.33198 -0.27376 0.37588 -0.32652 0.62861 -0.77864 0.84566 -1.25158 0.21064 -0.47607 0.48694 -0.90936 0.77041 -1.32733 0.38099 -0.34847 0.72544 -0.75348 1.15854 -1.02236 0.40929 -0.37722 0.78875 -0.78221 1.17389 -1.19114 0.31103 -0.4233 0.5225 -0.95181 0.75586 -1.43406 0.28672 -0.55475 0.58043 -1.10289 0.85789 -1.66521 0.26291 -0.56729 0.52713 -1.12414 0.8372 -1.66024 0.30896 -0.59958 0.65518 -1.19245 1.08808 -1.68131 0.4206 -0.63755 0.79469 -1.31574 1.22758 -1.93847 0.35582 -0.50829 0.58294 -1.10985 0.98571 -1.57884 0.30343 -0.43277 0.68169 -0.78521 0.98566 -1.21996 0.25375 -0.50224 0.51385 -0.99843 0.76387 -1.50399 0.2459 -0.50892 0.52796 -0.98899 0.78302 -1.49102 0.30123 -0.54162 0.52684 -1.13302 0.83606 -1.66851 0.32919 -0.60639 0.63865 -1.22624 0.97053 -1.82982 0.2961 -0.52926 0.66131 -0.97971 1.07789 -1.386 0.30614 -0.49199 0.67665 -0.91845 0.80017 -1.53658 0.25098 -0.70112 0.45195 -1.39942 0.55903 -2.1524 0.15636 -0.63491 0.0515 -1.366 -0.0362 -2.00724 -0.0755 -0.33026 -0.3361 -1.55803 -0.52716 -1.76674 -0.0159 -0.0173 -0.0133 0.0482 -0.02 0.0722 -0.96903 1.13105 0.0561 -0.0769 3.24718 -2.23764 0.0562 -0.038 -0.0967 0.10188 -0.13699 0.16107 -0.16007 0.23511 -0.24604 0.52347 -0.4142 0.75237 -0.30626 0.7222 -0.73374 1.36811 -0.99086 2.12112 -0.20398 0.72089 -0.47781 1.41331 -0.57585 2.1718 -0.22589 0.70566 -0.4272 1.40297 -0.46137 2.16122 -0.0721 0.56388 -0.16935 1.1122 -0.21867 1.6796 -0.0986 0.60629 -0.31163 1.14484 -0.49414 1.71721 -0.049 0.1719 -0.12933 0.33336 -0.15807 0.51125 -0.0134 0.0827 0.008 0.16891 -0.00061 0.25242 -0.0285 0.26726 -0.0854 0.53349 -0.0812 0.80887 -0.10635 0.52092 -0.14661 1.07625 -0.1638 1.60781 -0.0862 0.57685 -0.0427 1.17916 -0.20202 1.74787 -0.28438 0.92932 -0.88496 1.69245 -1.45719 2.40651 -0.6972 1.04524 -1.20897 2.22713 -1.88963 3.28579 -0.13133 0.21484 -0.54572 0.90374 -0.69409 1.10217 -0.54547 0.72955 -1.24875 1.30769 -1.88604 1.91952 -1.28291 0.83849 -2.49041 1.85419 -3.84873 2.5155 -0.58177 0.28322 -0.45841 -0.45573 -0.36425 -0.61552 0.0786 -0.13343 0.2443 -0.25571 0.35204 -0.34363 0.0663 -0.0541 0.13365 -0.1065 0.20048 -0.15978 0.13256 -0.14935 0.28914 -0.2697 0.4149 -0.42671 0.25618 -0.31983 0.41258 -0.746 0.68032 -1.05789 0.35048 -0.397 -0.0257 0.0693 0.27492 -0.45431 0.29632 -0.51613 -0.0206 0.11367 0.27158 -0.24572 0.0908 -0.11159 0.0915 -0.30125 0.22546 -0.37842 0.33752 -0.33525 0.50996 -0.90469 0.7415 -1.33763 0.28525 -0.56193 5.51329 -10.65645 4.06441 -3.00357 -0.12948 0.47429 -0.29114 0.95048 -0.47755 1.39577 -1.02909 1.35773 -0.11502 0.19363 -3.92022 2.13966 -0.015 0.008 0.005 -0.0425 0.019 -0.0524 0.20373 -0.14555 -0.00029 0.1564 0.21523 -0.18885 0.0481 -0.0771 0.0884 -0.16011 0.13258 -0.24016 1.21307 -0.8329 2.42293 -1.67207 3.63921 -2.49871 0.39402 -0.2678 0.85591 -0.28999 1.2921 -0.17013 0.54092 0.21815 1.01004 0.62436 0.87491 1.36392 -0.22435 0.562 -0.74079 1.20334 -1.12585 1.63322 -1.26111 0.84034 -2.51605 1.69317 -3.78335 2.52101 -0.96485 0.63028 -2.08235 0.93288 -3.08135 1.47444 -0.5077 0.19183 -2.50867 1.16038 -2.75399 0.0681 -0.0201 -0.0895 0.0133 -0.18439 0.02 -0.27658 0.21436 -0.65113 0.54747 -1.24747 0.84842 -1.84878 0.2701 -0.54892 0.57309 -1.07553 0.85772 -1.61442 0.35705 -0.49999 0.65159 -1.04441 1.15538 -1.38151 1.21005 -1.35578 0.13293 -0.18396 3.87505 -2.67951 0.0655 -0.0437 0.26442 -0.16941 0.19925 -0.12514 -5.67586 3.8559 -4.19132 2.80543 -2.99064 2.02823 0.12837 -0.24111 0.29075 -0.36643 0.43985 -0.57799 0.16894 -0.23969 0.27881 -0.54974 0.44798 -0.79182 0.30196 -0.63956 0.61926 -1.26739 0.93105 -1.90149 0.33292 -0.85222 0.66356 -1.6869 0.72616 -2.63457 0.17721 -0.68946 0.35779 -1.36823 0.61995 -2.02288 0.39404 -1.14657 0.65943 -2.34836 1.17078 -3.44053 0.90469 -2.37129 1.59799 -4.84031 2.36214 -7.27458 0.52036 -2.04267 1.08684 -4.05165 1.31218 -6.17312 0.0286 -0.2689 -0.13604 -0.66074 0.0598 -0.8098 1.16761 -0.88864 2.51752 -1.4065 3.77628 -2.10976 0.0109 1.04203 0.0709 2.08167 0.0956 3.12323 -0.004 2.0717 -0.16437 4.13842 -0.21789 6.20882 -0.003 3.52248 -0.0398 -0.88056 0.0836 1.74781 0.005 0.11101 -0.0355 0.2198 -0.0352 0.33095 0.0002 0.0806 0.0389 0.15749 0.0366 0.23805 -0.002 0.0564 -0.0478 0.10362 -0.0477 0.16007 0.0002 0.0867 0.0324 0.16937 0.0487 0.25407 0.037 0.98378 -0.0331 -0.62401 0.0562 0.54585 0.0224 0.2942 -0.0385 0.53636 -0.083 0.81802 -0.0142 0.09 -0.0152 0.1822 -0.0228 0.27331 -0.0667 0.58763 -0.13643 1.16877 -0.24688 1.74645 -0.20673 0.49961 -0.44891 0.98151 -0.71357 1.44231 -0.23984 0.63086 -0.61392 1.18009 -0.8462 1.81874 -0.52138 1.07558 -0.93927 2.20982 -1.46754 3.2811 -1.04886 2.81361 -1.36316 2.39642 -4.52973 4.40677 -0.5219 -0.49169 -0.23386 -0.6851 -0.0857 -1.31548 0.067 -0.6365 -0.0246 0.0334 0.10523 -0.50254 0.0636 -0.26282 0.0501 -0.51072 0.0656 -0.77739 0.005 -0.0866 0.0249 -0.17119 0.0373 -0.25678 -0.002 -0.55436 0.0539 -1.12111 0.2089 -1.64694 0.0743 -0.56414 0.0468 -1.14769 0.20715 -1.69601 0.11367 -0.72643 0.33426 -1.40228 0.56531 -2.08774 0.23815 -0.72684 0.40221 -1.47113 0.63186 -2.20268 0.22258 -0.65058 0.28362 -1.36593 0.56537 -1.99447 0.15342 -0.52057 0.3933 -0.99589 0.53508 -1.51947 0.20596 -0.65957 -0.0893 0.33378 0.0924 -0.47775 0.0671 -0.29989 0.21488 -0.58374 0.1961 -0.90948 0.18515 -0.51177 0.32428 -1.04176 0.56085 -1.52842 0.15704 -0.57968 0.39021 -1.11147 0.303 -1.73812 -0.0185 -0.49872 -0.0408 -1.00207 -0.21263 -1.46808 -0.005 -0.58447 -0.16223 -1.1247 -0.25968 -1.69364 -0.0702 -0.57387 0.0238 -1.15629 -0.0905 -1.72567 -0.0167 -0.60717 -0.0788 -1.22873 0.0383 -1.82639 0.0317 -0.65085 0.0841 -1.30575 0.29047 -1.91907 0.18396 -0.50449 0.40027 -0.99169 0.53108 -1.51992 0.0568 -0.45135 0.31519 -0.82841 0.37681 -1.28312 0.0931 -0.55113 0.13544 -1.1185 0.29875 -1.6519 0.0977 -0.80117 0.15899 -1.60876 0.12295 -2.41831 0 0 3.60788 -2.12349 3.60788 -2.12349 z" fill="#514a85"/>
   <path d="m 358.39823 698.76606 c -0.0508 0.88918 -0.12159 1.77614 -0.19145 2.66366 -0.0548 0.6858 -0.0727 1.37425 -0.0818 2.06254 0.0642 0.54255 0.0419 1.08902 0.0265 1.63407 -0.004 0.58673 -0.0461 1.17243 -0.13088 1.75088 -0.0299 0.57607 -0.0565 1.15004 -0.18589 1.70933 -0.13654 0.60357 -0.31372 1.1837 -0.37759 1.805 -0.0705 0.54811 -0.11732 1.0991 -0.17795 1.64865 -0.0465 0.57766 -0.1772 1.13953 -0.30562 1.69858 -0.0406 0.45197 -0.12129 0.8845 -0.24336 1.31531 -0.077 0.4217 -0.19571 0.82532 -0.27859 1.24498 -0.21677 0.40305 -0.31741 0.82261 -0.39004 1.28225 -0.0963 0.47706 -0.21022 0.94896 -0.28859 1.43094 -0.0914 0.56815 -0.26619 1.11118 -0.4168 1.66065 -0.16501 0.53622 -0.36932 1.05631 -0.60512 1.55595 -0.23677 0.5514 -0.55272 1.05251 -0.77546 1.61118 -0.17181 0.60181 -0.44308 1.1522 -0.66321 1.72892 -0.16489 0.53409 -0.31655 1.07276 -0.54024 1.57873 -0.14067 0.40846 -0.26144 0.82171 -0.41709 1.22388 -0.20585 0.57662 -0.48605 1.11465 -0.75168 1.65672 -0.28122 0.53593 -0.53798 1.08821 -0.80873 1.63166 -0.27886 0.50734 -0.4977 1.04376 -0.69358 1.59867 -0.20791 0.64078 -0.51147 1.22882 -0.799 1.8243 -0.2706 0.61051 -0.56144 1.19995 -0.91345 1.75247 -0.30227 0.44206 -0.6248 0.86252 -0.98694 1.24009 -0.36846 0.32746 -0.73352 0.66018 -1.10217 0.98744 -0.34965 0.29157 -0.59905 0.71364 -0.92955 1.02878 -0.31971 -2.39305 -5.25017 3.01878 -3.14927 1.36795 0.34422 -0.3616 0.73261 -0.66148 1.11705 -0.96257 0.41322 -0.28372 0.77097 -0.65997 1.14057 -1.01181 0.1417 0.001 0.12181 -0.22728 0.22141 -0.2791 0.005 -0.002 0.25738 0.33053 -0.0407 0.52976 1.1054 -0.73023 2.20977 -1.46252 3.31619 -2.19068 0.0598 -0.0394 -0.12061 0.0776 -0.17636 0.12428 -0.18218 0.15263 -0.33875 0.37712 -0.53382 0.50735 -1.21388 0.81041 -2.43916 1.59783 -3.65874 2.39674 -0.0778 -0.0116 -0.1557 -0.0228 -0.23354 -0.0341 0 0 3.25549 -2.79245 3.25549 -2.79245 c 0.0521 -0.027 0.10426 -0.0541 0.15638 -0.0811 -1.09827 0.73716 -2.19881 1.46982 -3.29482 2.21145 -0.0609 0.0412 0.13061 -0.0645 0.18918 -0.10997 0.12045 -0.0937 0.43751 -0.48477 0.51241 -0.53636 1.20397 -0.82928 2.43112 -1.61281 3.64668 -2.41921 0.46317 -0.2047 0.73288 0.53016 0.38516 0.89333 -0.33121 0.4189 -0.74755 0.72817 -1.11024 1.11043 -0.40782 0.24524 -0.76349 0.58019 -1.14092 0.87656 -0.13584 0.18061 -0.24952 0.2957 -0.4291 0.41124 -1.11696 0.7186 -3.234 3.84094 -3.92249 1.81183 0.25132 -0.41705 0.67606 -0.68134 0.91939 -1.11756 0.36724 -0.33054 0.7164 -0.68296 1.11205 -0.96559 0.3719 -0.35261 0.7317 -0.71924 1.01239 -1.17527 0.41464 -0.47939 0.68626 -1.06787 0.9566 -1.66352 0.26435 -0.59817 0.60453 -1.15315 0.80527 -1.78598 0.22279 -0.55839 0.37116 -1.14719 0.67837 -1.6552 0.28402 -0.53789 0.5435 -1.08943 0.79943 -1.64442 0.30442 -0.4858 0.51339 -1.04669 0.77391 -1.56436 0.12312 -0.43328 0.3455 -0.8119 0.40443 -1.27255 0.22118 -0.49564 0.43419 -0.98507 0.56339 -1.5278 0.16103 -0.60803 0.50427 -1.12195 0.6596 -1.73646 0.17118 -0.6081 0.49386 -1.10752 0.76027 -1.66244 0.21619 -0.49031 0.43658 -0.97012 0.63267 -1.47117 0.13429 -0.54543 0.30575 -1.06112 0.44 -1.60524 0.057 -0.4819 0.1357 -0.98101 0.28178 -1.43035 0.0641 -0.48258 0.0846 -0.97922 0.3425 -1.38966 0.15687 -0.20567 0.0714 -0.35626 0.14464 -0.60223 0.0526 -0.17661 0.15823 -0.34186 0.17086 -0.54244 0.0408 -0.45858 0.3005 -0.86222 0.2439 -1.34792 0.11938 -0.54532 0.26346 -1.07252 0.33854 -1.62846 0.0215 -0.55816 0.11865 -1.11505 0.16539 -1.6736 0.0588 -0.39079 0.0372 -0.18188 0.057 -0.62771 0.0551 -0.42218 0.25255 -0.80116 0.30056 -1.22471 0.12285 -0.54708 0.24604 -1.09405 0.20566 -1.66938 0.0741 -0.56381 0.16519 -1.12205 0.15182 -1.69554 0.013 -0.54239 0.0609 -1.09299 -0.0185 -1.6303 0.008 -0.70158 0.0225 -1.40357 0.0797 -2.10252 0.0721 -0.87112 0.16336 -1.73909 0.18829 -2.61323 0 0 3.60788 -2.1235 3.60788 -2.1235 z" fill="#514a85"/>
   <path d="m 344.6091 742.06425 c -0.7126 -0.32227 -1.42764 -0.64089 -2.12718 -1.00035 -0.50359 -0.29822 -0.91047 -0.68788 -1.22584 -1.22851 -0.17963 -0.31725 -0.2078 -0.64199 -0.18339 -1.0081 0 0 3.65083 -2.03855 3.65083 -2.03855 c -0.0919 0.24129 -0.10084 0.44563 0.0276 0.67654 0.27456 0.46386 0.64316 0.78052 1.08491 1.01973 0.69424 0.34109 1.3824 0.70838 2.11256 0.93735 0 0 -3.33952 2.64189 -3.33952 2.64189 z" fill="#514a85"/>
   <path d="m 361.03652 703.91578 c -0.37061 0.80596 -0.60076 1.69863 -1.06617 2.44269 1.19515 1.17301 -3.13906 3.4188 -4.30126 2.20243 -0.0227 -0.0237 -0.21935 -0.31853 -0.25587 -0.3729 -0.21795 -0.52268 -0.32896 -1.09157 -0.49514 -1.63765 -0.24059 -0.66231 -0.48423 -1.32478 -0.68515 -2.00482 -0.21164 -0.607 -0.35891 -1.23808 -0.52557 -1.86226 -0.16073 -0.60355 -0.27495 -1.22169 -0.42359 -1.82889 -0.11642 -0.55976 -0.22774 -1.11336 -0.26933 -1.68803 -0.056 -1.89233 0.1892 -0.68138 3.70626 -2.48171 0.037 -0.0189 0.36885 0.39538 0.42451 0.4436 0.36562 0.32004 0.56529 0.82119 0.73048 1.30195 0.1514 0.30582 0.26456 1.11563 0.56651 1.2698 0.0412 0.021 0.0898 -0.009 0.13469 -0.0144 0 0 -3.3648 2.61235 -3.3648 2.61235 c -0.51186 -0.38484 -0.64992 -0.96673 -0.87063 -1.59307 -0.13749 -0.41879 -0.31258 -0.82526 -0.63849 -1.08816 -0.0278 -0.0289 -0.21892 -0.22951 -0.25519 -0.25806 -0.0294 -0.0231 -0.12745 -0.0307 -0.0969 -0.0519 1.12926 -0.78223 2.30937 -1.46437 3.43237 -2.2585 0.0389 -0.0275 -0.0678 -0.0861 -0.11342 -0.0885 -0.0263 -0.001 -0.0248 0.0536 -0.0372 0.0803 -0.0589 0.53601 0.13293 1.05063 0.19359 1.57669 0.16497 0.60148 0.26622 1.22035 0.42533 1.8233 0.1673 0.62139 0.30339 1.25307 0.51788 1.85655 0.18921 0.68014 0.43393 1.33943 0.68039 1.99403 0.15948 0.49815 0.28134 1.00184 0.45061 1.49376 0.0856 0.1231 0.14996 0.24291 0.30067 0.26114 0.0939 0.0115 0.34272 -0.18074 0.26173 -0.12476 -1.07415 0.74231 -2.15019 1.48096 -3.22528 2.22145 0.0757 -0.0602 0.16366 -0.10373 0.22718 -0.18047 0.1921 -0.23203 0.27081 -0.51915 0.38716 -0.8024 0.1804 -0.43918 0.37517 -0.87197 0.49183 -1.34197 0 0 3.69284 -1.90151 3.69284 -1.90151 z" fill="#514a85"/>
   <path d="m 320.0728 670.89233 c -0.76622 -0.26082 -1.53945 -0.52757 -2.26052 -0.92898 -0.55829 -0.2381 -1.05228 -0.62499 -1.59785 -0.89206 -0.43484 -0.25836 -0.91242 -0.43034 -1.37437 -0.62608 -0.48301 -0.25965 -0.95844 -0.53327 -1.43172 -0.81613 -0.45909 -0.32779 -0.95363 -0.5702 -1.4155 -0.89399 -0.50177 -0.25047 -0.9296 -0.62548 -1.37619 -0.97894 -0.41119 -0.40647 -0.8495 -0.77791 -1.26481 -1.17855 -0.37213 -0.39739 -0.79217 -0.72709 -1.09607 -1.20061 -0.22539 -0.40468 -0.60286 -0.59282 -0.88741 -0.92391 -0.64127 -1.66781 -0.22408 -0.39796 3.52389 -2.65793 0.0112 -0.007 1.03281 0.58422 1.12908 0.64422 0.53263 0.3874 0.98969 0.89331 1.46223 1.36939 0.46512 0.46942 0.84496 1.03944 1.25629 1.56982 0.38871 0.4781 0.68596 1.03527 1.04401 1.54063 0.26753 0.50792 0.69213 0.82938 1.08906 1.18598 0.35529 0.44562 0.8275 0.71106 1.20771 1.12249 0.4145 0.37802 0.91992 0.5795 1.37026 0.88953 0.5013 0.27258 0.98713 0.57634 1.46325 0.90495 0.52816 0.33855 1.0732 0.63963 1.60377 0.97277 0.55589 0.25349 1.03556 0.64118 1.52779 1.02046 0.42125 0.36227 0.8661 0.66964 1.32319 0.96509 0.45907 0.38763 0.99168 0.6208 1.48467 0.9346 0.47285 0.29207 0.95339 0.56862 1.42211 0.87009 0.53587 0.24872 0.96457 0.70292 1.45026 1.05039 0.43712 0.34423 0.89568 0.63674 1.36012 0.92666 0.43961 0.34318 0.83295 0.759 1.30469 1.04303 0.43832 0.31379 0.89824 0.58729 1.35564 0.86448 0.4776 0.24797 0.93886 0.54614 1.39204 0.85063 0.42394 0.32785 0.88623 0.5319 1.35198 0.75952 0.26606 0.0532 0.13353 0.0357 0.3975 0.0537 0 0 -3.31325 2.69512 -3.31325 2.69512 c -0.29828 -0.0789 -0.14971 -0.0293 -0.44535 -0.15015 -0.48587 -0.21701 -0.92676 -0.51268 -1.37775 -0.81125 -0.45907 -0.28791 -0.91347 -0.5873 -1.38678 -0.84343 -0.45545 -0.28825 -0.9284 -0.53898 -1.36084 -0.87338 -0.45032 -0.31625 -0.85344 -0.70946 -1.30178 -1.02995 -0.47651 -0.28685 -0.92177 -0.63156 -1.37611 -0.96209 -0.46657 -0.36123 -0.90964 -0.76569 -1.431 -1.02118 -0.47526 -0.28639 -0.94913 -0.57573 -1.42356 -0.8639 -0.50651 -0.29399 -1.00973 -0.59219 -1.49052 -0.94113 -0.46868 -0.29589 -0.89934 -0.65671 -1.34053 -1.00339 -0.47497 -0.38029 -0.97201 -0.70368 -1.49878 -0.98115 -0.54076 -0.32272 -1.0825 -0.64334 -1.61382 -0.98661 -0.48225 -0.31383 -0.97445 -0.60212 -1.46356 -0.90035 -0.48482 -0.30359 -1.01113 -0.54123 -1.42864 -0.96831 -0.37972 -0.38526 -0.82315 -0.67637 -1.17758 -1.09787 -0.42701 -0.37211 -0.85511 -0.74383 -1.14538 -1.27544 -0.34898 -0.50217 -0.63534 -1.05763 -1.01979 -1.5289 -0.40469 -0.51587 -0.7827 -1.06586 -1.24002 -1.52173 -0.43942 -0.46262 -0.8871 -0.92317 -1.40042 -1.27547 -0.26944 -0.15274 -0.55626 -0.34573 -0.85157 -0.42535 -0.0648 -0.0174 -0.25413 0.0266 -0.19922 -0.017 3.25868 -2.58177 4.24859 -1.37734 3.24123 -2.54376 0.2729 0.35187 0.68875 0.5464 0.89545 0.98029 0.29118 0.43246 0.69557 0.73809 1.04048 1.10953 0.41609 0.38334 0.82413 0.77862 1.2472 1.1504 0.43285 0.35733 0.88249 0.67125 1.35964 0.94542 0.46286 0.29921 0.93823 0.56913 1.40092 0.86849 0.46899 0.26024 0.9176 0.56803 1.40753 0.77582 0.46677 0.20546 0.95108 0.36696 1.38661 0.65586 0.53089 0.29837 1.04515 0.63442 1.58916 0.90237 0.72037 0.36976 1.47588 0.64477 2.24245 0.8553 0 0 -3.33952 2.6419 -3.33952 2.6419 z" fill="#514a85"/>
   <path d="m 322.50126 675.80746 c -0.7427 -0.48989 -1.51452 -0.91542 -2.27019 -1.37676 -0.59823 -0.30399 -1.19707 -0.60887 -1.80101 -0.89807 -0.49465 -0.31062 -1.03671 -0.4783 -1.55928 -0.71001 -0.49016 -0.20659 -0.97971 -0.4669 -1.43532 -0.76388 -0.42756 -0.32233 -0.92535 -0.43876 -1.39205 -0.66292 -0.48172 -0.24017 -0.97352 -0.47948 -1.42373 -0.79559 -0.48244 -0.24449 -0.92697 -0.57164 -1.3962 -0.84637 -0.50112 -0.31886 -1.00504 -0.63627 -1.52341 -0.91704 -0.44072 -0.34626 -0.94079 -0.56378 -1.41128 -0.84655 -0.46315 -0.28703 -0.94859 -0.5334 -1.39647 -0.85422 -0.33068 -0.20443 -0.16418 -0.0953 -0.4989 -0.32872 0 0 3.38774 -2.5375 3.38774 -2.5375 c 0.33438 0.21978 0.16722 0.111 0.50145 0.32625 0.45467 0.2882 0.91995 0.55597 1.38161 0.82831 0.47712 0.26301 0.95565 0.52246 1.40579 0.84469 0.51624 0.29926 1.02994 0.60481 1.53642 0.92563 0.46436 0.29322 0.92893 0.58467 1.40097 0.86071 0.45038 0.27467 0.91669 0.52328 1.39082 0.73706 0.48856 0.19954 0.9781 0.38964 1.42129 0.7083 0.4604 0.26383 0.9219 0.53077 1.41107 0.71661 0.52153 0.23794 1.06077 0.42263 1.55785 0.72931 0.60406 0.3068 1.21814 0.59045 1.80469 0.94056 0.76364 0.46343 1.52838 0.92482 2.298 1.3748 0 0 -3.38986 2.5454 -3.38986 2.5454 z" fill="#514a85"/>
   <path d="m 388.40516 937.11269 c -1.64194 -0.0814 -3.28651 -0.0635 -4.92963 -0.0621 -1.40149 -0.29508 -2.78561 -0.45336 -4.19796 -0.6879 -0.22812 -0.0928 -0.44852 -0.21645 -0.68436 -0.27839 -0.18467 -0.0485 -0.38065 -0.008 -0.56649 -0.0501 -0.89665 -0.20337 -1.73193 -0.6678 -2.58278 -1.0324 -1.30951 -0.0174 -2.43724 -0.78803 -3.64785 -1.24529 -1.47776 -0.29797 -2.92528 -0.57952 -4.33215 -1.20783 -1.02778 -0.36964 -1.93652 -1.03404 -2.93412 -1.49579 0 0 10.06028 -7.73731 10.06028 -7.73731 c 0.93805 0.50399 1.84606 1.09802 2.84941 1.41885 1.45666 0.47467 2.96143 0.64883 4.40359 1.17933 1.18999 0.52198 2.38708 0.92774 3.62295 1.27694 1.21422 0.49647 2.46484 0.83139 3.72948 1.10599 1.33175 0.23985 2.6719 0.44259 4.01266 0.58572 1.69256 0.001 3.3863 0.0166 5.07781 -0.0621 0 0 -9.88084 8.29257 -9.88084 8.29257 z" fill="#514a85"/>
   <path d="m 389.96797 945.42001 c -1.61992 -0.78608 -3.20833 -1.62736 -4.77898 -2.54029 -1.55409 -0.72038 -3.19887 -1.09275 -4.77884 -1.73844 -1.71465 -0.50015 -3.38344 -1.14888 -5.08584 -1.69537 -1.48212 -0.86244 -2.92248 -1.6722 -4.55537 -2.07739 -1.43352 -0.65198 -2.87699 -1.28222 -4.28293 -2.01023 -1.45107 -0.52452 -2.78757 -1.3519 -4.26962 -1.7644 -1.59469 -0.50456 -3.02029 -1.57677 -4.6181 -2.02777 -1.48379 -0.41022 -2.82033 -1.35098 -4.27191 -1.81061 -1.02246 -0.44226 -0.50811 -0.23929 -1.54282 -0.60969 0 0 9.97222 -7.82914 9.97222 -7.82914 c 1.05373 0.41219 0.5324 0.20571 1.56407 0.61917 1.39859 0.65083 2.81613 1.21571 4.23806 1.79594 1.53979 0.6735 3.04119 1.47265 4.63665 1.96765 1.46905 0.55384 2.86244 1.33897 4.32401 1.92055 1.39186 0.62172 2.75003 1.34683 4.18026 1.84695 1.59872 0.54579 3.04394 1.45654 4.60484 2.11049 1.66842 0.62958 3.34983 1.18522 5.03104 1.76761 1.6621 0.55422 3.38352 0.95605 4.924 1.90007 1.51187 0.91758 3.08404 1.73835 4.75937 2.1673 0 0 -10.05011 8.0076 -10.05011 8.0076 z" fill="#514a85"/>
   <path d="m 388.40516 947.57934 c -0.27858 0.11938 -0.7956 0.369 -1.08248 0.35297 -0.30814 -0.0172 -0.59987 -0.167 -0.90128 -0.24292 -1.04897 -0.26423 -2.10467 -0.4629 -3.16547 -0.65038 -1.84907 -0.41621 -3.51368 -1.24731 -5.19645 -2.17716 -1.48661 -0.71191 -2.90112 -1.64212 -4.28584 -2.59023 -1.22884 -0.9052 -2.60535 -1.28873 -3.95892 -1.84346 -1.41691 -0.27355 -2.72068 -0.94571 -4.05439 -1.53221 -1.54923 -0.9968 -3.29321 -1.33846 -4.87818 -2.23114 -1.06187 -0.46875 -2.07193 -1.03785 -3.09889 -1.59734 0 0 10.08297 -7.6826 10.08297 -7.6826 c 0.99554 0.57506 2.00997 1.08958 3.03538 1.58941 1.61243 0.74311 3.30036 1.25604 4.86434 2.14719 1.35079 0.58712 2.73599 0.99723 4.11728 1.46756 1.37312 0.60399 2.74192 1.1822 3.99825 2.08835 1.39182 0.8727 2.76388 1.80005 4.22179 2.52047 1.57496 0.86686 3.22296 1.49058 4.93499 1.8948 1.77503 0.32423 3.47205 0.63739 5.24774 0.19413 0 0 -9.88084 8.29256 -9.88084 8.29256 z" fill="#514a85"/>
   <path d="m 392.57242 940.16264 c 0.37844 0.62957 0.66294 1.32398 1.05499 1.94211 0.30377 0.42862 0.66657 0.72963 1.09721 0.96315 0.4589 0.19843 0.91801 0.38405 1.37125 0.59828 0.3748 0.22833 0.75829 0.43544 1.12942 0.672 0 0 -3.1622 2.39029 -3.1622 2.39029 c -0.36866 -0.21769 -0.73755 -0.43566 -1.11526 -0.63187 -0.45863 -0.22062 -0.93706 -0.3821 -1.38654 -0.62933 -0.46274 -0.29431 -0.86046 -0.65437 -1.1832 -1.14442 -0.38737 -0.62893 -0.6579 -1.34124 -1.07374 -1.94814 0 0 3.26807 -2.21207 3.26807 -2.21207 z" fill="#514a85"/>
   <path d="m 391.83973 943.78123 c 0.6168 0.35014 1.10627 0.87225 1.58534 1.42485 0.32809 0.36832 0.65307 0.74839 1.08973 0.93065 0 0 -3.15559 2.42112 -3.15559 2.42112 c -0.44464 -0.26749 -0.8068 -0.66539 -1.15814 -1.07445 -0.43959 -0.52806 -0.90941 -1.00662 -1.51155 -1.27714 0 0 3.15021 -2.42503 3.15021 -2.42503 z" fill="#514a85"/>
   <path d="m 390.30911 945.25462 c 0.69594 0.31004 1.38967 0.62884 2.11459 0.83778 0.4006 0.15095 0.20749 0.0979 0.57686 0.17047 0 0 -3.10575 2.48655 -3.10575 2.48655 c -0.37226 -0.12054 -0.1802 -0.0559 -0.57593 -0.19488 -0.73178 -0.25133 -1.44068 -0.58066 -2.15997 -0.87488 0 0 3.1502 -2.42504 3.1502 -2.42504 z" fill="#514a85"/>
   <path d="m 393.17419 944.80419 c -0.053 -0.38049 -0.12728 -0.75629 -0.19903 -1.13243 0 0 3.31672 -2.05892 3.31672 -2.05892 c 0.071 0.36541 0.15443 0.72783 0.20779 1.09743 0 0 -3.32548 2.09392 -3.32548 2.09392 z" fill="#514a85"/>
   <path d="m 392.86794 943.44426 c -0.44044 -0.65641 -0.85146 -1.326 -1.14766 -2.08597 -0.12255 -0.3561 -0.21996 -0.71875 -0.3207 -1.08326 0 0 3.32434 -2.10699 3.32434 -2.10699 c 0.0954 0.3523 0.16711 0.70836 0.28404 1.05378 0.26723 0.73052 0.65343 1.37591 1.10467 1.9721 0 0 -3.24469 2.25034 -3.24469 2.25034 z" fill="#514a85"/>
   <path d="m 395.66506 941.54786 c 0.0877 0.0632 0.17535 0.12646 0.26303 0.18968 0 0 -3.16841 2.35462 -3.16841 2.35462 c -0.10115 -0.0754 -0.20231 -0.15092 -0.30346 -0.22638 0 0 3.20884 -2.31792 3.20884 -2.31792 z" fill="#514a85"/>
   <path d="m 287.27227 786.76774 c 0.346 -1.59257 0.46126 -3.23571 0.69703 -4.85211 0.24972 -1.2152 0.17647 -2.31662 -0.43348 -3.35089 -0.66789 -0.76856 -1.32914 -1.62327 -2.33848 -1.59531 -0.9343 -0.24749 -1.83413 -0.23677 -2.70067 0.25891 -0.14806 0.0725 -0.29611 0.14507 -0.44417 0.21762 0.30443 -0.10986 -1.2251 0.77171 -0.92316 0.56977 2.31466 -1.54804 9.32515 -6.05569 6.96671 -4.5985 -5.17271 3.19602 -5.42791 3.38954 -8.2019 5.40015 -0.82865 0.39295 -1.66712 0.7143 -2.54825 0.90754 -0.92189 0.0116 -1.85112 -0.0705 -2.72609 0.32655 -2.62418 1.11868 -7.56158 4.65848 6.15271 -4.1663 0.1416 -0.0911 -0.25915 0.22566 -0.38034 0.35 -0.2526 0.25915 -0.48321 0.54559 -0.72659 0.81628 -0.114 0.14128 -0.228 0.28255 -0.342 0.42381 0 0 -7.99141 3.80736 -7.99141 3.80736 c 0.12162 -0.1228 0.24324 -0.2456 0.36486 -0.3684 2.40937 -3.45737 6.07968 -5.80789 9.7901 -6.93311 0.90715 -0.14384 1.82752 -0.0813 2.72298 -0.31989 0.83241 -0.30205 1.67314 -0.58906 2.42796 -1.11269 0.12958 -0.0679 0.51137 -0.28701 0.38875 -0.20364 -2.32042 1.57772 -9.33664 6.201 -6.98412 4.68804 2.77235 -1.78297 5.97282 -4.63177 9.28846 -5.91884 0.99878 -0.19427 1.96955 -0.15063 2.95764 0.12501 1.10417 0.43658 1.95341 1.24345 2.69266 2.28075 0.70541 1.22202 1.0251 2.56857 0.74014 4.03472 -0.27811 1.634 -0.46444 3.27766 -0.64316 4.93044 0 0 -7.80618 4.28273 -7.80618 4.28273 z" fill="#514a85"/>
   <path d="m 292.29027 776.694 c -0.99524 -0.2933 -2.02084 -0.0595 -3.02887 -0.11055 -2.01753 -0.10211 0.4531 -0.12235 -1.41561 -0.0815 -1.02336 -0.0942 -2.00339 0.58101 -3.00284 0.49294 -0.78197 0.23363 -1.58298 0.31271 -2.34306 0.60673 -0.31131 -0.0146 -0.54955 -0.0818 -0.83587 0.0978 -0.10254 0.0643 -0.1531 0.21476 -0.25846 0.27265 -0.11955 0.0657 -0.92713 0.32327 -1.0874 0.37873 -2.99249 1.65491 -8.05513 5.11295 4.80033 -3.35811 -2.61652 1.68303 -5.23305 3.36607 -7.84957 5.04909 -0.1136 0.0725 -0.4534 0.29205 -0.3408 0.21751 2.37545 -1.57238 4.745 -3.15677 7.12936 -4.71105 0.10559 -0.0688 -0.19405 0.168 -0.29043 0.25298 -0.42622 0.37582 -0.17871 0.18885 -0.63071 0.49001 -3.63046 -0.47488 -5.96836 5.3322 -9.5618 5.85741 -0.50327 0.21069 -0.2767 0.0587 -0.68128 0.45294 0 0 6.74828 -6.27075 6.74828 -6.27075 c 0.53755 -0.18869 0.26711 -0.10096 0.81132 -0.26309 3.01728 -1.43526 7.51029 -4.19764 -5.36803 3.92018 0.278 -0.30089 0.59259 -0.51353 0.91965 -0.73718 2.56194 -1.75186 5.12677 -3.49835 7.70683 -5.21438 0.11443 -0.0761 0.48533 -0.23604 0.37157 -0.15861 -2.33416 1.5886 -4.69193 3.13043 -7.03789 4.69564 3.14224 -2.07355 6.55737 -4.80119 10.10714 -6.36301 0.7356 -0.32426 1.43799 -0.59326 2.22565 -0.68284 0.80966 -0.16105 1.60771 -0.43523 2.43515 -0.46411 0.98266 -0.27916 1.99178 -0.43471 3.00629 -0.39592 1.48829 0.0809 2.97747 0.0566 4.46526 0.15654 0 0 -6.99421 5.86995 -6.99421 5.86995 z" fill="#514a85"/>
   <path d="m 291.61135 777.62912 c -1.18657 -0.84729 -2.48272 -1.4395 -3.69838 -2.22614 0 0 7.18813 -5.41979 7.18813 -5.41979 c 1.21396 0.74696 2.46574 1.40788 3.69815 2.11267 0 0 -7.1879 5.53326 -7.1879 5.53326 z" fill="#514a85"/>
   <path d="m 291.70819 774.67687 c -1.39613 0.24246 -2.80353 0.42074 -4.17226 0.81823 -0.49563 0.29746 -1.04172 0.0281 -1.54921 0.24532 -0.3546 0.1518 -0.75178 0.48612 -1.06021 0.73441 -3.40092 1.98661 8.78739 -5.82056 6.57489 -4.39726 -2.61868 1.68458 -5.20744 3.43053 -7.8055 5.15722 -5.84933 3.8875 24.70207 -16.48133 -1.01603 0.73518 -2.97046 1.98815 5.7732 -3.86423 6.77175 -4.51861 0.23503 -0.15402 -0.18348 0.16879 -0.66969 0.60145 -0.25571 0.22755 -0.6006 0.5484 -0.85053 0.77926 -21.39822 14.28349 -0.5969 0.49263 -0.9246 0.67875 -2.70056 1.53389 -5.23708 3.42634 -7.85663 5.13742 -0.12617 0.0824 -0.24136 0.19629 -0.38054 0.2431 -1.58708 0.53383 0.50245 -0.41779 -0.76612 0.18825 -0.92674 0.17133 -1.72669 0.72282 -2.52826 1.26727 11.70019 -9.13014 8.02821 -5.40137 5.47093 -3.40577 0 0 -8.03326 3.6806 -8.03326 3.6806 c 0.5509 -0.50737 0.25327 -0.27606 0.89723 -0.68646 0.17291 -0.14999 0.31184 -0.34613 0.46777 -0.51919 2.63958 -1.7724 5.27916 -3.5448 7.91874 -5.31719 0.86095 -0.48715 1.7236 -0.89261 2.65659 -1.15656 0.34768 -0.0976 1.70453 -0.9223 1.07571 -0.49289 -2.31393 1.58016 -9.26898 6.29402 -6.96851 4.68785 0.0819 -0.0572 19.26492 -13.01154 0.94181 -0.63746 0.53306 -0.39649 0.96668 -0.94192 1.50935 -1.31775 2.55696 -1.7708 5.12112 -3.52771 7.68545 -5.28423 0.10862 -0.0744 0.22209 -0.13893 0.33314 -0.20839 -2.36196 1.59011 -9.40083 6.45014 -7.08588 4.77032 2.53739 -1.84122 5.16304 -3.515 7.75351 -5.25478 0.11674 -0.0784 0.48305 -0.27797 0.36672 -0.1988 -14.51781 9.88069 -3.77001 2.41008 1.19645 -0.80549 0.8887 -0.43937 1.80298 -0.50354 2.74494 -0.72401 1.42522 -0.27446 2.84959 -0.59712 4.29647 -0.66972 0 0 -6.99422 5.86993 -6.99422 5.86993 z" fill="#514a85"/>
   <path d="m 330.6391 682.95857 c -1.56532 -0.37264 -3.04979 -1.01428 -4.53385 -1.68081 -0.99684 -0.63723 -2.14549 -0.72179 -3.16033 -1.30648 -0.9835 -0.15979 -1.97217 -0.36524 -2.91424 -0.74596 -1.03952 -0.63585 -2.10939 -1.14249 -3.20837 -1.61713 -1.06748 -0.33825 -2.04487 -0.94866 -3.09694 -1.34096 -1.00007 -0.39162 -2.04456 -0.57186 -3.03299 -1.01901 -1.04933 -0.59245 -2.20454 -0.87635 -3.27494 -1.39253 -1.04452 -0.4591 -1.99248 -1.14839 -3.04336 -1.59157 -0.16943 -0.10397 -0.33886 -0.208 -0.50829 -0.312 0 0 7.21372 -5.48378 7.21372 -5.48378 c 0.15408 0.0825 0.30816 0.16487 0.46223 0.2473 1.02106 0.50714 1.99493 1.13702 3.04231 1.57423 1.09534 0.43124 2.17571 0.89574 3.25912 1.36481 1.01083 0.34046 2.03596 0.61783 3.02876 1.02916 1.04263 0.45224 2.06399 0.96916 3.12552 1.36381 1.06143 0.50353 2.09899 1.06476 3.1649 1.55207 0.99326 0.28332 2.01602 0.45157 2.98085 0.83886 1.036 0.43693 2.12639 0.69561 3.10769 1.30208 1.4681 0.67363 2.96711 1.21744 4.51829 1.57731 0 0 -7.13008 5.6406 -7.13008 5.6406 z" fill="#514a85"/>
   <path d="m 388.63617 396.45908 c 0.33761 1.4424 0.68629 2.86172 1.23489 4.23906 0.60573 0.99692 1.16019 1.98488 2.03774 2.76371 0.86959 0.86974 2.03762 1.22506 3.21517 1.46768 1.32383 0.0453 2.57014 0.37053 3.85507 0.64912 1.35076 0.47447 2.55572 1.36123 3.93855 1.72909 1.20395 0.11276 2.40119 0.36812 3.53044 0.80933 0.43359 0.10334 0.91814 0.0209 1.28869 -0.25103 0.11813 -0.0867 0.41386 -0.40566 0.28632 -0.33353 -8.30605 4.69775 -12.19733 7.55032 -9.04712 5.25068 0.1261 -0.98069 -0.82872 -1.90212 -1.51771 -2.4746 -0.69324 -0.89484 -1.63018 -1.52192 -2.52542 -2.19395 -1.05135 -0.8175 -1.79955 -1.89404 -2.63995 -2.90567 -1.09871 -0.79235 -1.67517 -1.97016 -2.21159 -3.17273 -0.6869 -1.39121 -1.15787 -2.87219 -1.76698 -4.29696 -0.35916 -0.76247 -0.51328 -1.496 -0.63632 -2.32505 0 0 9.75576 -5.13553 9.75576 -5.13553 c 0.0832 0.72446 0.26658 1.35669 0.50998 2.04392 0.62856 1.41256 1.08305 2.89607 1.79272 4.27192 0.50528 1.13064 1.09256 2.12553 2.07094 2.91764 0.76376 0.95825 1.50874 1.91917 2.50659 2.65551 0.9337 0.67058 1.83149 1.3973 2.55539 2.29784 1.02593 0.9635 1.90146 2.10524 2.17273 3.51894 0.0738 4.41853 0.19744 0.73492 -9.7023 6.5386 -0.58942 0.34555 -1.49745 -0.0252 -2.0708 -0.1732 -1.17813 -0.30946 -2.37324 -0.52275 -3.54685 -0.83711 -1.27174 -0.56873 -2.50987 -1.25856 -3.86286 -1.61161 -1.28376 -0.29893 -2.58291 -0.41298 -3.87267 -0.67565 -1.31219 -0.39387 -2.52884 -0.94276 -3.52156 -1.91971 -0.97097 -0.91386 -1.59179 -2.07607 -2.26294 -3.2157 -0.55819 -1.43773 -0.90607 -2.92332 -1.39133 -4.37789 0 0 9.82542 -5.25312 9.82542 -5.25312 z" transform="translate(0,540.36217)" fill="#514a85"/>
   <path d="m 339.56714 209.44012 c -0.35208 -2.7927 -1.38178 -5.44193 -2.95825 -7.76339 -0.20054 -0.21494 -0.40108 -0.42988 -0.60162 -0.64482 0 0 9.42879 -5.68901 9.42879 -5.68901 c 0.21669 0.26414 0.43338 0.52827 0.65007 0.7924 1.5705 2.49236 2.49167 5.30765 3.17675 8.16117 0 0 -9.69574 5.14365 -9.69574 5.14365 z" transform="translate(0,540.36217)" fill="#514a85"/>
   <text y="1066.9233" x="-511.22156" transform="matrix(1.0053226,0.14014439,0,0.99470559,0,0)" font-family="Gentium Book Basic" word-spacing="0" line-height="125%" letter-spacing="0" font-size="209.4422"><tspan y="1066.9233" x="-511.22156"/>
   </text>
   <text transform="matrix(4.0341949,0.56237649,0,0.24788093,0,0)" font-size="76.10062" y="3715.5032" x="192.0204" font-family="Arial" text-anchor="middle"/>
   <path d="M 251.99017 571.49978 C 166.32102 559.5573 91.40534 592.52013 50.550298 651.57483 c -20.84937 30.13715 -32.84688 67.04888 -32.84688 108.29606 0 122.07243 104.89844 235.65432 234.28675 253.69131 129.38826 18.0371 234.28676 -66.29861 234.28676 -188.37103 0 -41.24718 -11.9975 -81.50388 -32.8469 -117.45394 -40.8551 -70.44528 -115.7707 -124.29496 -201.43986 -136.23745 z m 0 21.8125 c 76.90684 10.721 144.17096 59.06423 180.84736 122.30431 18.7169 32.27305 29.4991 68.4276 29.4991 105.45599 0 109.58676 -94.1921 185.30682 -210.34646 169.11463 C 135.83579 973.99501 41.643738 872.01375 41.643738 762.42698 c 0 -37.02839 10.78215 -70.17682 29.49904 -97.23151 36.676362 -53.01454 103.94054 -82.60419 180.84739 -71.88319 z" fill="#fff8eb" fill-rule="evenodd"/>
  </g>
  <path d="m 258.81668,543.84232 c -34.03037,0 -66.29295,6.7996 -95.9038,19.2841 3.7566,3.67847 9.28102,8.69455 7.18174,17.16616 -2.20977,8.91751 -0.8839,17.61207 6.51882,23.18551 6.85026,5.12756 9.94394,9.47484 9.94394,19.9529 0,9.69777 -1.10489,16.16297 -3.31466,24.85752 -1.65731,6.79961 -3.53562,16.72032 -9.83346,18.28088 -8.06563,2.00644 -11.93273,2.45234 -16.46274,11.59275 -3.97759,8.02574 -12.70615,17.835 -18.12007,23.1855 -4.41953,4.5702 -5.96637,8.02574 -13.1481,11.59275 -6.51881,3.34404 -19.55644,-2.11791 -21.32425,5.01608 -1.87829,7.57987 1.65733,14.15652 1.65733,23.29697 0,14.82533 -19.224966,-2.67526 -29.610856,0 -7.734181,1.89495 -16.683732,-0.44588 -24.638886,1.56056 -6.076849,1.56056 -15.468354,4.68169 -18.120064,9.92071 -3.204171,6.46519 -14.584464,16.8318 -8.176142,20.06437 4.971971,2.45231 12.816643,1.11469 21.324232,3.23259 3.093682,0.78028 19.003978,13.59919 19.777393,13.26479 10.27541,-5.12758 13.14811,-3.2326 19.666913,3.34406 5.634904,5.57344 10.71736,10.92395 18.12008,16.49737 10.71738,8.1372 11.4908,14.37946 11.4908,26.52954 0,9.92073 1.98879,17.05471 8.17612,23.29697 9.06003,9.14045 12.48518,13.48772 19.7774,23.29697 4.08806,5.46197 16.13128,19.39555 14.80542,26.52956 -1.87829,8.9175 -4.86146,21.402 -9.83345,28.09012 -2.87269,3.9014 -12.70614,12.4845 -9.94394,18.28085 5.30342,10.58954 3.20416,12.70743 4.97197,19.84133 2.09928,8.5832 -6.85028,28.75877 -9.83347,35.00117 -2.32023,0 -4.64049,0 -6.85027,0.111 38.22895,23.9656 83.30815,38.0107 131.702,38.0107 71.59638,0 136.12154,-30.5425 181.75317,-79.25422 -7.18174,-2.22928 -16.68372,-5.01595 -17.23617,-7.13385 -1.98878,-7.91429 3.31466,-14.26801 3.31466,-23.18551 0,-9.02897 2.32025,-15.49415 0,-24.85753 -2.76221,-10.81246 -5.41393,-9.02896 -13.14811,-14.9368 -14.69492,-11.14687 -2.32024,-4.3473 -9.94394,3.34407 -4.97198,5.0161 -14.91591,13.37626 -21.32422,18.28085 -6.6293,4.90463 -16.24178,9.80926 -23.09206,14.93682 -5.19295,3.9014 -14.91592,8.69455 -16.46275,14.82534 -1.8783,7.91429 0.55244,14.26799 4.97198,23.29684 5.41392,10.92393 5.08247,13.15328 0,23.1855 -3.8671,7.91429 -9.83346,8.35989 -16.35227,13.37619 -7.73418,5.7964 -18.0096,4.7932 -29.61084,4.7932 -4.751,0 -19.77741,2.6753 -19.77741,-6.5766 0,-9.14049 -6.07685,-16.16299 -8.17611,-24.85755 -1.54686,-6.2423 0,-15.27122 0,-23.1854 0,-7.91427 3.20415,-18.28085 6.51878,-24.85752 4.86149,-9.92071 3.42515,-16.60884 -6.51878,-21.62494 -8.94958,-4.57021 -7.40272,-11.81565 -4.97199,-21.62492 2.09929,-8.47163 4.08807,-16.60885 8.17614,-24.85754 4.30905,-8.58307 5.74539,-14.9368 8.17612,-24.85752 2.32026,-9.14042 2.8727,-19.39555 -1.54683,-28.20156 -3.64611,-7.35695 -9.50198,-16.49739 -11.60127,-24.85753 -1.32585,-5.46198 -6.6293,-21.402 -1.54683,-26.52956 6.96078,-7.02254 21.54521,-5.23903 27.84304,-5.01611 7.95515,6.01931 21.10325,4.79317 28.064,8.36015 5.8559,2.8982 16.90471,-1.44908 23.09206,1.67205 7.29223,3.67848 15.24737,8.47162 21.32421,11.59273 10.38592,5.23906 11.82227,4.45876 22.87111,1.67203 8.39708,-2.11789 18.00956,3.00968 21.54519,6.57668 8.94955,9.14042 10.05444,11.36979 13.03761,23.29694 2.09929,8.69457 -2.20977,17.94649 -4.86149,23.1855 -4.64049,9.36336 4.97198,13.26477 11.49078,19.84145 7.73418,7.8028 8.50759,8.1372 11.49079,19.95289 1.98878,8.02574 13.92151,1.00321 16.46274,11.59274 3.09369,12.48451 7.73418,5.57343 13.1481,0 6.40832,-6.35373 7.73419,-14.49094 13.03762,-19.9529 4.53002,-4.45875 6.96076,-29.2048 8.39712,-34.77825 2.20977,-9.02896 -0.44196,-21.40198 -1.65733,-26.64102 -2.32026,-9.02895 -9.17052,-13.37624 -11.49079,-23.07403 -1.8783,-7.24547 0,-17.50058 0,-24.96897 0,-6.24226 -9.39151,-18.72676 -11.60127,-23.18551 -1.54682,-3.00965 -12.59565,-7.69132 -14.69492,-9.9207 -6.51882,-6.57665 -13.14812,-6.46519 -13.14812,-18.2809 0,-10.47804 -5.63488,-14.60237 -13.25858,-16.60883 -11.15931,-2.78669 -14.69495,8.02575 -18.00959,14.93682 -5.19294,10.36658 -7.62369,14.9368 -19.88786,14.9368 -7.40275,0 -17.45716,-1.44908 -24.52841,-3.23256 -10.3859,-2.67528 -14.47397,-5.23907 -23.09205,-11.70424 -6.51879,-5.01609 -17.12568,-8.02576 -24.63888,-9.92073 -6.29783,-1.56055 -5.96635,15.71711 -4.97197,19.84143 2.43074,9.69779 11.60127,6.4652 11.60127,18.28088 0,5.68492 -18.78301,3.34407 -22.98156,3.34407 h -24.74938 c -12.1537,0 -13.70052,0.44587 -18.00957,-8.36017 -3.09366,-6.24223 -4.97198,-15.82855 -4.97198,-23.18548 v -24.85763 c 0,-8.69453 4.53002,-11.14686 13.14811,-13.26477 10.4964,-2.67524 14.91591,-0.11159 21.32421,-6.57666 6.96078,-7.02252 0.55245,-11.81567 13.25861,-15.04827 12.81664,-3.23257 10.82785,-3.78992 16.35226,-14.93681 3.42515,-6.91105 4.64051,-11.59275 6.6293,-19.84144 1.98878,-8.1372 4.30905,-10.81247 6.51881,-19.84143 1.98877,-7.80281 1.65733,-16.27442 1.65733,-24.96899 0,-4.23582 -3.97758,-7.57988 -8.39713,-10.14366 -21.87668,-6.24225 -44.96871,-9.69777 -68.94466,-9.69777 z m 239.09658,325.93456 c -1.54684,2.7867 -3.09368,5.57342 -3.97757,9.02896 -1.9888,8.02576 -6.29784,14.15653 -8.17614,21.51345 -0.33146,1.56058 -0.9944,3.45556 -1.87829,5.3505 5.52442,-11.48126 10.2754,-23.51991 14.032,-35.89291 z m -14.032,35.89291 c -2.76221,5.90784 -7.18173,13.04185 -9.6125,17.94649 3.42515,-5.7964 6.6293,-11.81569 9.6125,-17.94649 z m -12.70615,23.1855 c -3.31466,4.68169 -6.96077,8.47162 -10.05444,14.71388 -0.11061,0.33439 -0.22097,0.55733 -0.33147,0.78028 3.64611,-5.01611 7.07125,-10.25512 10.38591,-15.49416 z" opacity="0.190031" fill="#ebf0f3"/>
  <g transform="matrix(1.0377175,0,0,1.0280868,17.35241,-11.380086)" opacity="0.190031">
   <path d="M 368.75563 570.49742 A 114.17482 86.33503 3.611579 0 1 192.14429 536.06265" stroke="#fff" fill-opacity="0" stroke-width="6.986453" stroke-miterlimit="0"/>
   <path d="M 442.74705 926.1699 A 295.86909 250.74261 6.858082 0 1 -13.341394 820.67991" stroke="#fff" fill-opacity="0" stroke-width="6.986575" stroke-miterlimit="0"/>
   <path d="M 91.63198 990.58003 A 264.45999 312.06132 15.727226 0 1 275.71696 532.4305" stroke="#fff" fill-opacity="0" stroke-width="6.986612" stroke-miterlimit="0"/>
   <path d="M 289.72318 536.25027 173.84716 1026.627" fill="none" stroke="#fff" stroke-width="7.7286" stroke-miterlimit="0"/>
   <path d="M 482.43886 790.04114 A 393.39852 333.37863 9.508259 0 1 7.411197 688.27548" stroke="#fff" fill-opacity="0" stroke-linecap="round" stroke-width="6.986296" stroke-miterlimit="0"/>
   <path d="M 304.65017 539.32278 A 311.9171 264.34479 88.06047 0 1 268.28801 1031.502" stroke="#fff" fill-opacity="0" stroke-width="6.98657" stroke-miterlimit="0"/>
  </g>
 </g>
</svg>
