<svg xmlns="http://www.w3.org/2000/svg" xmlns:xlink="http://www.w3.org/1999/xlink" height="512" width="512">
 <defs>
  <linearGradient id="0">
   <stop stop-color="#fff"/>
   <stop offset="1" stop-color="#fff" stop-opacity="0"/>
  </linearGradient>
  <radialGradient xlink:href="#0" gradientUnits="userSpaceOnUse" gradientTransform="matrix(1,0,0,0.930233,0,-0.240141)" cx="62.22539" cy="-3.44202" r="10.08122"/>
 </defs>
 <g transform="translate(0,464)">
  <path d="M 256 6 C 117.92756 6 6 117.93071 6 256 C 6 394.07436 117.92756 506 256 506 C 394.0598 506 506 394.07563 506 256 C 506 117.93071 394.0598 6 256 6 z M 51.8125 171.4375 C 50.639531 174.26717 49.49482 177.1437 48.4375 180.03125 C 49.49756 177.13609 50.636195 174.27448 51.8125 171.4375 z M 38.46875 216.875 C 37.820802 220.50228 37.2811 224.15745 36.8125 227.84375 C 37.2811 224.15741 37.820813 220.50234 38.46875 216.875 z M 473.53125 216.875 C 474.17925 220.50234 474.71885 224.15741 475.1875 227.84375 C 474.71887 224.15745 474.17923 220.50228 473.53125 216.875 z M 36.8125 284.15625 C 37.28031 287.83236 37.822596 291.47634 38.46875 295.09375 C 37.823106 291.47625 37.27979 287.83244 36.8125 284.15625 z M 475.1875 284.15625 C 474.72016 287.83246 474.17696 291.47623 473.53125 295.09375 C 474.17743 291.47631 474.71967 287.83238 475.1875 284.15625 z M 48.4375 331.96875 C 49.676703 335.35323 51.00853 338.69536 52.40625 342 C 51.00855 338.69544 49.676683 335.35315 48.4375 331.96875 z M 452.78125 356.59375 C 451.15849 359.76178 449.45647 362.89167 447.6875 365.96875 C 449.4613 362.88396 451.15439 359.76995 452.78125 356.59375 z M 99.75 412.25 C 102.24924 414.74931 104.82139 417.18469 107.4375 419.5625 C 104.82142 417.18479 102.24921 414.7492 99.75 412.25 z M 412.25 412.25 C 409.7507 414.74919 407.17865 417.1848 404.5625 419.5625 C 407.17859 417.1847 409.75076 414.7493 412.25 412.25 z M 170 459.59375 C 173.30457 460.99151 176.64684 462.32326 180.03125 463.5625 C 176.64686 462.32333 173.30455 460.99143 170 459.59375 z M 342 459.59375 C 338.69552 460.99142 335.35304 462.32334 331.96875 463.5625 C 335.353 462.32327 338.69556 460.9915 342 459.59375 z M 216.875 473.53125 C 220.5024 474.17922 224.15734 474.71888 227.84375 475.1875 C 224.15735 474.71891 220.50239 474.17918 216.875 473.53125 z M 295.125 473.53125 C 291.49782 474.17917 287.84241 474.71892 284.15625 475.1875 C 287.84239 474.71888 291.49784 474.17921 295.125 473.53125 z" transform="translate(0,-464)" fill="#ffb559"/>
  <path d="m 476.96787 -208.00782 c 0 122.04111 -98.93796 220.97569 -220.96508 220.97569 -122.0383 0 -220.97066 -98.93571 -220.97066 -220.97569 0 -122.03551 98.93236 -220.96005 220.97066 -220.96005 122.02712 0 220.96508 98.92454 220.96508 220.96005 z" fill="#0078ad"/>
  <path d="M 256 35.03125 C 233.31165 35.03125 211.41639 38.461363 190.8125 44.8125 C 192.80396 55.788745 190.80192 67.02794 201.5625 66.875 C 208.7089 76.60469 187.33703 69.75095 202.78125 77.25 C 211.6626 83.98564 193.37629 87.86166 204.375 93.90625 C 191.6986 100.20533 206.42836 126.86211 215.84375 133.53125 C 231.34043 146.09443 222.70859 106.91214 240 104.875 C 249.39588 94.54537 265.87417 87.89136 277.59375 77.5 C 266.14028 76.60458 259.43423 69.75272 270.28125 65.5 C 290.24482 85.19988 275.3009 56.1901 264.25 51.59375 C 274.94313 48.3181 285.35873 50.71595 283.875 42.21875 C 286.74596 40.1961 287.4203 38.502361 286.75 37.15625 C 276.70281 35.757637 266.43208 35.03125 256 35.03125 z M 146.28125 64.15625 C 140.06649 67.71764 134.06672 71.58971 128.25 75.71875 C 133.07342 76.22222 136.7649 78.08558 139.78125 85.59375 C 155.05996 94.07349 141.16013 108.46779 134.5 113.40625 C 145.63894 107.0692 165.13609 138.47041 159.8125 121.0625 C 153.25648 116.4527 177.44018 128.45046 164.90625 113.46875 C 153.37152 95.57251 165.82434 105.47937 170.6875 109.65625 C 187.22742 95.37349 151.94966 93.63615 160.75 78.9375 C 156.65945 75.74701 151.89357 69.14241 146.28125 64.15625 z M 195.6875 75.46875 C 187.0693 82.38394 212.07219 83.68625 195.6875 75.46875 z M 390.21875 80.46875 C 379.4754 89.87143 372.70001 103.637 364.875 115.6875 C 347.6924 123.14786 348.3036 155.10778 367.5 144.875 C 372.63783 153.51627 363.87858 167.14272 378.84375 155.84375 C 390.91469 140.46086 380.98965 115.60613 401.53125 105.90625 C 403.02754 113.44844 382.5845 141.59779 406.46875 136.96875 C 428.06045 137.7533 390.77973 139.03075 401.28125 152.3125 C 390.37049 146.07845 396.05436 169.35038 381.8125 163.9375 C 369.47445 170.40045 361.36109 160.92978 364.1875 150.5625 C 354.48144 156.01524 367.25528 171.41923 350.40625 172.34375 C 346.63196 185.25032 315.56831 183.26392 333.21875 196.40625 C 341.05505 215.96404 304.04833 197.68624 314.5625 221.15625 C 323.5578 244.36449 342.41413 213.46966 350.0625 207.5 C 364.35809 196.82131 385.30747 224.44127 374.53125 227.1875 C 388.09811 224.72057 384.89301 211.66989 373.28125 206.53125 C 366.83794 190.43858 393.67602 214.43153 392.1875 222.5 C 401.65751 239.57703 397.76936 204.97995 407.40625 220.28125 C 406.28101 236.42187 446.20184 224.11648 427.15625 244.6875 C 410.7813 247.86361 394.6289 240.64317 380.53125 245.28125 C 367.41011 245.16931 368.08959 231.66206 363.3125 228.28125 C 346.62222 229.58703 325.95479 229.4218 314.78125 242.40625 C 302.69848 258.37065 285.33056 280.67791 298.5 301.0625 C 311.67875 331.27008 344.3075 302.62884 363.09375 320.46875 C 368.67776 327.9072 358.26458 336.75528 370.75 344.8125 C 375.44816 361.97578 365.43003 378.28047 376.96875 394.6875 C 382.12783 408.0291 385.61045 427.09858 400.8125 422.90625 C 410.657 414.35605 419.73668 404.92864 427.9375 394.78125 C 432.08435 384.44818 435.13801 373.87702 445.46875 366.46875 C 430.81684 339.16202 461.27644 326.51561 471.46875 305.21875 C 471.69768 304.21236 471.90986 303.19907 472.125 302.1875 C 453.79238 304.30731 437.56586 286.66888 433.125 268.90625 C 425.312 260.17637 427.30378 247.31894 436.03125 263.71875 C 448.02706 274.91235 448.30979 308.11793 470.5 291.03125 C 471.6321 290.57525 472.98523 289.96 474.46875 289.25 C 475.68649 281.18054 476.4611 272.95574 476.78125 264.625 C 466.8609 259.38413 461.17689 240.07814 476.96875 257.28125 C 476.9712 256.8523 476.96875 256.42952 476.96875 256 C 476.96875 247.02321 476.4155 238.16527 475.375 229.46875 C 473.42205 229.4839 470.83503 228.14606 467.65625 224.78125 C 469.75497 211.43052 454.70065 201.07525 468.65625 195.75 C 455.51948 149.29165 427.5589 109.06292 390.21875 80.46875 z M 119.5625 82.15625 C 117.23044 83.989221 114.9426 85.88906 112.6875 87.8125 C 110.64591 91.70337 108.06652 94.68711 106.5625 93.25 C 63.56829 132.74798 36.24303 189.04689 35.0625 251.75 C 40.743244 261.2052 47.31554 270.85669 47.78125 265.375 C 39.872327 257.39907 31.742347 233.46941 45.125 254.78125 C 57.11195 275.03971 73.31635 288.17917 96.9375 293 C 109.85201 297.23031 120.42415 311.79325 131.78125 308.59375 C 138.20322 324.89659 112.80141 340.57538 132.6875 355.78125 C 143.06907 371.17492 160.49883 381.26339 151.0625 402.875 C 146.55527 417.29144 146.38765 432.55811 144.9375 447.0625 C 151.184 450.701 157.63367 454.0385 164.25 457.0625 C 166.52762 449.58348 169.7568 442.68031 175.78125 437.1875 C 193.74974 437.32459 179.22667 418.55154 197.0625 421 C 207.94599 407.26231 211.07062 390.86126 229.4375 385.40625 C 231.63144 368.73081 260.00074 343.21121 230.71875 336.71875 C 222.76037 332.94131 202.2466 331.61392 203.8125 329.75 C 206.98522 313.20354 177.37386 308.45718 164.75 301.6875 C 148.1754 290.35796 123.24579 320.51067 117.40625 294.53125 C 113.92187 286.35726 101.17629 286.26904 107.03125 273.65625 C 96.47952 283.76232 75.846633 280.67316 81.25 261.15625 C 89.45589 244.71923 120.97397 243.91676 126.34375 263.6875 C 118.88802 241.88274 140.73577 224.88784 152.875 209.375 C 155.3468 201.96025 170.05396 195.6142 165 205.46875 C 173.61036 205.16946 186.6395 190.18757 171.34375 197.09375 C 171.12729 183.44794 157.93154 187.34365 153.65625 189.28125 C 161.58023 177.16987 202.32262 183.82802 185.28125 164.03125 C 172.07649 158.87875 173.13754 128.7806 159.78125 145.53125 C 160.90522 135.21045 132.60104 115.03694 133.21875 132.34375 C 136.67426 147.83011 133.85377 165.66143 126.5 175.8125 C 124.96536 153.11982 84.77032 158.08785 89.9375 133.90625 C 97.42333 122.38121 106.19785 106.47248 107.03125 107.90625 C 119.10377 103.46752 129.0241 91.40291 119.5625 82.15625 z M 136.4375 88.8125 C 129.13802 100.3278 147.22307 93.0639 136.4375 88.8125 z M 296.25 102.4375 C 287.70403 111.91213 276.46511 99.91887 276.28125 108.0625 C 277.83009 110.52312 284.03402 128.0852 297.625 115.125 C 304.91931 112.16349 302.00639 104.72318 296.25 102.4375 z M 114.3125 108.0625 C 98.10314 121.69468 141.87573 122.98091 117.78125 109.65625 L 114.3125 108.0625 z M 327.96875 146 C 316.72207 153.38367 333.78556 168.76533 327.96875 176.03125 C 320.65612 188.30093 355.13891 175.16423 336.71875 165.375 C 335.45634 157.28503 326.63149 147.51646 328 146 L 327.96875 146 z M 320.3125 160.59375 C 304.0525 165.0207 316.58473 187.90185 322.34375 166.375 C 322.66756 165.12696 323.14315 160.55202 320.3125 160.59375 z M 190.09375 177.15625 C 174.96704 187.08928 187.72638 197.03179 198.8125 192.5625 C 196.53647 186.56939 190.19633 182.76564 190.09375 177.15625 z M 437.03125 194 C 436.00715 203.72275 458.80267 218.83811 434.21875 213.90625 C 421.21763 215.37492 401.74618 213.47589 418.125 197.875 C 423.30041 194.88304 436.88368 208.22677 429.8125 195.78125 C 432.31944 195.62741 434.66962 194.73241 437.03125 194 z M 471.03125 204.9375 C 470.90254 205.71072 471.02315 206.48508 471.5625 207.28125 C 471.38643 206.49891 471.21559 205.71667 471.03125 204.9375 z M 361.9375 215.0625 C 352.45475 220.94574 368.49485 225.45695 361.9375 215.0625 z M 123.8125 269.875 C 122.2138 275.01121 153.79892 280.22873 132 272 L 128.75 270.90625 L 123.8125 269.875 z M 148.34375 277.1875 C 138.7618 286.55504 168.08537 279.98616 148.34375 277.1875 z" transform="translate(0,-464)" opacity="0.8" fill="#fff"/>
  <path d="M 353.5625 -408.24107 34.10251 -190.09594 c 2.495689 31.85071 12.145604 61.78084 26.716561 88.40625 L 425.25 -350.0625 c -19.8748 -23.65418 -43.62097 -44.51921 -71.6875 -58.17857 z" fill="#ffb559"/>
  <path d="M 169.16063 52.27998 C 141.44885 64.00456 116.23075 80.53484 95.66282 101.87938 L 333.40625 361.09375 398.21875 301.78125 169.28571 52.04911 z" transform="translate(0,-464)" fill="#ffb559"/>
  <path d="m 237.10313 -208.08817 66.44137 71.45603 -48.6208 44.635169 162.05129 14.737991 3.02352 -166.20868 -52.40152 47.62918 -65.28408 -71.15382 -65.20978 58.90413 z" fill="#ffb559" display="block"/>
 </g>
</svg>
