<?xml version="1.0" encoding="UTF-8" standalone="no"?>
<!-- Created with Inkscape (http://www.inkscape.org/) -->

<svg
   xmlns:dc="http://purl.org/dc/elements/1.1/"
   xmlns:cc="http://creativecommons.org/ns#"
   xmlns:rdf="http://www.w3.org/1999/02/22-rdf-syntax-ns#"
   xmlns:svg="http://www.w3.org/2000/svg"
   xmlns="http://www.w3.org/2000/svg"
   xmlns:sodipodi="http://sodipodi.sourceforge.net/DTD/sodipodi-0.dtd"
   xmlns:inkscape="http://www.inkscape.org/namespaces/inkscape"
   width="512"
   height="512"
   id="svg2"
   version="1.1"
   inkscape:version="0.48.4 r9939"
   sodipodi:docname="kamoso.svg">
  <defs
     id="defs4" />
  <sodipodi:namedview
     id="base"
     pagecolor="#ffffff"
     bordercolor="#666666"
     borderopacity="1.0"
     inkscape:pageopacity="0.0"
     inkscape:pageshadow="2"
     inkscape:zoom="0.98994949"
     inkscape:cx="397.41434"
     inkscape:cy="260.94358"
     inkscape:document-units="px"
     inkscape:current-layer="layer1"
     showgrid="false"
     inkscape:window-width="1309"
     inkscape:window-height="750"
     inkscape:window-x="55"
     inkscape:window-y="-3"
     inkscape:window-maximized="1" />
  <metadata
     id="metadata7">
    <rdf:RDF>
      <cc:Work
         rdf:about="">
        <dc:format>image/svg+xml</dc:format>
        <dc:type
           rdf:resource="http://purl.org/dc/dcmitype/StillImage" />
        <dc:title />
      </cc:Work>
    </rdf:RDF>
  </metadata>
  <g
     inkscape:label="Layer 1"
     inkscape:groupmode="layer"
     id="layer1"
     transform="translate(0,-540.36218)">
    <path
       sodipodi:type="arc"
       style="fill:#366378;fill-rule:evenodd;stroke:none;fill-opacity:1"
       id="path2985"
       sodipodi:cx="202.85715"
       sodipodi:cy="-316.57144"
       sodipodi:rx="360"
       sodipodi:ry="360"
       d="m 562.85715,-316.57144 c 0,198.82251 -161.17749,359.999998 -360,359.999998 -198.8225127,0 -360,-161.177488 -360,-359.999998 0,-198.82251 161.1774873,-360 360,-360 198.82251,0 360,161.17749 360,360 z"
       transform="matrix(0.69444444,0,0,0.69444444,115.12698,1016.2035)" />
    <path
       inkscape:connector-curvature="0"
       style="fill:#fff8eb;fill-opacity:1;stroke:none"
       d="m 256.18233,627.17447 c -77.92045,0 -141.0296,63.19818 -141.0296,141.11864 0,77.92045 63.10915,141.11863 141.0296,141.11863 77.92045,0 141.11863,-63.19818 141.11863,-141.11863 0,-77.92046 -63.19818,-141.11864 -141.11863,-141.11864 z m 0,40.33233 c 55.66772,0 100.87535,45.11859 100.87535,100.78631 0,55.66772 -45.20763,100.7863 -100.87535,100.7863 -55.66771,0 -100.78631,-45.11858 -100.78631,-100.7863 0,-55.66772 45.1186,-100.78631 100.78631,-100.78631 z"
       id="path13021" />
    <path
       transform="matrix(1.6524372,0,0,1.6524372,-119.71098,390.22608)"
       d="m 275,228.78572 c 0,26.23353 -21.26647,47.5 -47.5,47.5 -26.23353,0 -47.5,-21.26647 -47.5,-47.5 0,-26.23352 21.26647,-47.5 47.5,-47.5 26.23353,0 47.5,21.26648 47.5,47.5 z"
       sodipodi:ry="47.5"
       sodipodi:rx="47.5"
       sodipodi:cy="228.78572"
       sodipodi:cx="227.5"
       id="path13023"
       style="fill:#cd1d31;fill-opacity:1;stroke:none"
       sodipodi:type="arc" />
    <path
       inkscape:connector-curvature="0"
       style="fill:#fff8eb;fill-opacity:1;stroke:none"
       d="m 279.06403,693.41565 c -13.35063,1.35582 -23.77203,12.55665 -23.77203,26.26498 0,14.62223 11.82081,26.53209 26.44305,26.53209 14.62223,0 26.53207,-11.90986 26.53207,-26.53209 0,-4.77911 -1.25701,-9.21756 -3.47231,-13.08797 -7.4087,-5.84211 -15.88999,-10.29537 -25.10755,-13.17701 -0.20826,0.0171 -0.41647,-0.02 -0.62323,0 z"
       id="path13028" />
    <path
       style="fill:#fff8eb;fill-opacity:1;stroke:none"
       d="M 148.03125 347.8125 C 124.03768 347.8125 104.71875 365.75862 104.71875 388.0625 C 104.71875 410.36637 124.03768 428.3125 148.03125 428.3125 L 363.96875 428.3125 C 387.96231 428.3125 407.28125 410.36637 407.28125 388.0625 C 407.28125 365.75862 387.96231 347.8125 363.96875 347.8125 L 363.28125 347.8125 C 335.65716 374.83184 297.86839 391.5 256.1875 391.5 C 214.50296 391.5 176.72592 374.83602 149.125 347.8125 L 148.03125 347.8125 z M 352.21875 370.90625 L 380.71875 370.90625 C 385.86986 370.90625 390 375.01201 390 380.125 C 390 385.23799 385.86986 389.375 380.71875 389.375 L 352.21875 389.375 C 347.06764 389.375 342.9375 385.23799 342.9375 380.125 C 342.9375 375.01201 347.06764 370.90625 352.21875 370.90625 z "
       transform="translate(0,540.36218)"
       id="rect13038" />
    <path
       style="fill:#fff8eb;fill-opacity:1;fill-rule:evenodd;stroke:none"
       d="m 256,563.53477 c -128.58703,0 -232.827407,104.24038 -232.827407,232.82741 0,128.58703 104.240377,232.82742 232.827407,232.82742 128.58703,0 232.82741,-104.24039 232.82741,-232.82742 C 488.82741,667.77515 384.58703,563.53477 256,563.53477 z m 0,25.29088 c 114.62615,0 207.53653,92.91038 207.53653,207.53653 0,114.62615 -92.91038,207.53652 -207.53653,207.53652 -114.62615,0 -207.53653,-92.91037 -207.53653,-207.53652 0,-114.62615 92.91038,-207.53653 207.53653,-207.53653 z"
       id="path13065"
       inkscape:connector-curvature="0" />
  </g>
</svg>
