<svg xmlns="http://www.w3.org/2000/svg" xmlns:xlink="http://www.w3.org/1999/xlink" width="512" height="512">
 <defs>
  <linearGradient y2="7.01654" x2="0" y1="92.5396" gradientTransform="scale(1.0058652,0.994169)" gradientUnits="userSpaceOnUse" xlink:href="#1"/>
  <filter x="-0.192" y="-0.192" width="1.384" height="1.384" color-interpolation-filters="sRGB">
   <feGaussianBlur stdDeviation="5.28"/>
  </filter>
  <clipPath>
   <rect width="84" height="84" rx="6" x="6" y="6" fill="#fff"/>
  </clipPath>
  <linearGradient id="0">
   <stop stop-color="#fff"/>
   <stop offset="1" stop-color="#fff" stop-opacity="0"/>
  </linearGradient>
  <linearGradient y1="20.220806" x2="0" y2="138.66119" xlink:href="#0" gradientUnits="userSpaceOnUse"/>
  <filter color-interpolation-filters="sRGB">
   <feGaussianBlur stdDeviation="1.71"/>
  </filter>
  <linearGradient y1="92.5396" x2="0" y2="7.01654" id="1" gradientUnits="userSpaceOnUse" gradientTransform="scale(1.0058652,0.994169)">
   <stop/>
   <stop offset="1" stop-opacity="0.588235"/>
  </linearGradient>
  <linearGradient gradientUnits="userSpaceOnUse" id="2" x2="202.96484" x1="49.41553" gradientTransform="matrix(1.6155702,0,0,1.567692,-75.459146,15.227405)">
   <stop stop-color="#fde466"/>
   <stop offset="0.157303" stop-color="#ffbf50"/>
   <stop offset="0.314607" stop-color="#ffcf57"/>
   <stop offset="0.65" stop-color="#ffffb9"/>
   <stop offset="0.837079" stop-color="#ffc93c"/>
   <stop offset="1" stop-color="#ffff79"/>
  </linearGradient>
  <linearGradient gradientUnits="userSpaceOnUse" id="3" x2="202.96484" x1="49.41553" gradientTransform="matrix(1.567692,0,0,1.582706,-69.82581,-52.93599)">
   <stop stop-color="#f66"/>
   <stop offset="0.157303" stop-color="#cf0000"/>
   <stop offset="0.314607" stop-color="#f00"/>
   <stop offset="0.65" stop-color="#f99"/>
   <stop offset="0.837079" stop-color="#f66"/>
   <stop offset="1" stop-color="#f99"/>
  </linearGradient>
  <linearGradient x1="87.39697" x2="240.94727" id="4" gradientUnits="userSpaceOnUse" gradientTransform="matrix(1.567692,0,0,1.567692,-129.3706,-94.56783)">
   <stop stop-color="#fff" stop-opacity="0.666667"/>
   <stop offset="0.240745" stop-color="#d7d7d7" stop-opacity="0.21875"/>
   <stop offset="0.458562" stop-color="#4d4d4d" stop-opacity="0"/>
   <stop offset="0.718918" stop-color="#fff" stop-opacity="0.510417"/>
   <stop offset="0.873513" stop-color="#f2f2f2" stop-opacity="0.4"/>
   <stop offset="1" stop-color="#fff" stop-opacity="0.623529"/>
  </linearGradient>
  <linearGradient xlink:href="#4" id="5" gradientUnits="userSpaceOnUse" gradientTransform="matrix(3.4892757,0,0,3.4991523,-328.68036,-356.81339)" x1="87.39697" y1="141.97266" x2="269.33331" y2="141.97276"/>
  <linearGradient xlink:href="#3" id="6" gradientUnits="userSpaceOnUse" gradientTransform="matrix(3.4774371,0,0,2.8762475,-181.30161,73.43547)" x1="49.41553" x2="202.96484"/>
  <linearGradient xlink:href="#2" id="7" gradientUnits="userSpaceOnUse" gradientTransform="matrix(3.4774371,0,0,2.8489626,-181.30161,197.30863)" x1="49.41553" x2="202.96484"/>
 </defs>
 <g transform="translate(0,-540.36217)">
  <path d="m 254.56222 547.18725 c -91.41813 0 -171.34083 49.10766 -214.93753 122.34375 -22.2485 37.37426 -35.0625 81.00323 -35.0625 127.65625 0 138.07117 111.9288 250.00005 250.00003 250.00005 138.07119 0 250 -111.92888 250 -250.00005 0 -46.65302 -12.81398 -90.28199 -35.0625 -127.65625 C 425.903 596.29491 345.98038 547.18725 254.56222 547.18725 z" fill="#b7c8c4" fill-rule="evenodd"/>
  <text y="1089.8812" x="-1160.4812" font-family="Gentium Book Basic" word-spacing="0" line-height="125%" letter-spacing="0" font-size="208.33333"><tspan y="1089.8812" x="-1160.4812"/>
  </text>
  <text transform="scale(4.0128362,0.2492003)" font-size="75.69771" y="3810.6255" x="28.533577" font-family="Arial" text-anchor="middle"/>
  <path d="M 256 6 C 164.58184 6 84.65921 55.10766 41.0625 128.34375 C 18.813978 165.71801 6 209.34698 6 256 C 6 298.80854 16.787602 339.08686 35.75 374.3125 C 189.22122 404.14641 342.68522 259.27241 496.15625 325.65625 C 502.5595 303.54307 506 280.17691 506 256 C 506 209.34698 493.18602 165.71801 470.9375 128.34375 C 427.34077 55.10766 347.41816 6 256 6 z" transform="translate(0,540.36217)" fill="#4d4d4d"/>
  <path d="M 256 6 C 164.58184 6 84.65921 55.10766 41.0625 128.34375 C 18.813978 165.71801 6 209.34698 6 256 C 6 294.02234 14.502724 330.04673 29.6875 362.3125 C 38.736121 364.43516 48.610165 365.95147 59.1875 366.375 C 110.13467 371.72964 177.14276 351.73221 244.15625 331.78125 C 311.1715 311.85078 378.17951 291.9134 429.125 297.3125 C 458.89663 298.52854 483.12542 308.36758 498.71875 316 C 503.45543 296.77539 506 276.68684 506 256 C 506 209.34698 493.18602 165.71801 470.9375 128.34375 C 427.34077 55.10766 347.41816 6 256 6 z" transform="translate(0,540.36217)" fill="#00247d"/>
  <path d="M 333.96875 18.4375 C 224.44625 114.54855 97.84156 246.31639 8.46875 291.09375 C 11.639579 313.65759 17.818409 335.25787 26.59375 355.46875 C 30.935552 356.57053 35.404292 357.59026 40 358.46875 C 134.45843 306.71603 268.37607 144.13147 391.65625 46 C 373.8585 34.469656 354.4984 25.17754 333.96875 18.4375 z" transform="translate(0,540.36217)" fill="#fff"/>
  <path d="M 113.5 49.9375 C 95.86018 62.16063 79.881556 76.59979 65.9375 92.84375 C 180.66515 157.24403 362.56743 195.36765 449.21875 293.9375 C 460.86793 297.07239 483.94623 304.12909 499.59375 310.4375 C 503.36081 293.60781 505.4095 276.14111 505.59375 258.21875 C 434.84913 151.5232 237.15681 121.11979 113.5 49.9375 z" transform="translate(0,540.36217)" fill="#fff"/>
  <path d="M 89.53125 68.84375 C 84.01331 73.75806 78.71959 78.901885 73.65625 84.28125 C 126.85245 117.57801 189.20154 142.1099 239.625 153.3125 C 332.61578 162.39283 420.74931 213.26029 501.0625 303.40625 C 502.81394 294.36534 504.06375 285.17257 504.8125 275.8125 C 447.5873 199.16629 342.67926 142.97122 244.5 138.28125 C 178.11859 112.34961 130.31923 93.66119 89.53125 68.84375 z" transform="translate(0,540.36217)" fill="#e3001c"/>
  <path d="M 346.625 22.96875 C 304.14901 58.796093 264.5245 96.84542 225.875 132.03125 C 153.1949 210.702 121.90468 259.56326 13.53125 317.125 C 16.356383 328.36583 19.960526 339.2967 24.25 349.875 C 123.67871 295.89033 193.5876 205.22324 238.21875 146.3125 C 278.09792 113.03662 319.62733 72.09464 368.75 32.84375 C 361.56645 29.20421 354.18676 25.913838 346.625 22.96875 z" transform="translate(0,540.36217)" fill="#e3001c"/>
  <path d="M 378.9375 38.09375 C 270.76815 49.50372 161.94408 116.5013 55.5 105.875 C 50.197 112.95343 45.22989 120.30695 40.6875 127.9375 C 23.331836 157.0925 11.73783 190.0475 7.46875 225.28125 C 170.15062 278.80924 332.98428 118.71531 495.65625 185.625 C 489.69955 165.19724 481.22444 145.84799 470.5625 127.9375 C 448.35199 90.62709 416.72109 59.57653 378.9375 38.09375 z" transform="translate(0,540.36217)" fill="#fff"/>
  <path d="M 255.625 5.59375 C 229.34855 5.59375 204.03738 9.666431 180.25 17.1875 C 180.2057 90.45473 180.03125 334.91977 180.03125 345.9375 C 223.51628 333.40558 267.26338 318.89764 298.40625 309.375 C 298.40625 299.13862 298.49803 103.93858 298.53125 9.25 C 284.59742 6.839007 270.24879 5.59375 255.625 5.59375 z" transform="translate(0,540.36217)" fill="#fff"/>
  <path d="M 255.625 5.59375 C 238.96662 5.59375 222.71348 7.233671 206.96875 10.34375 C 206.95429 84.43649 206.90625 326.82575 206.90625 337.8125 C 222.45948 333.56546 262.12672 320.78262 272.8125 317.375 C 272.8125 306.75954 272.90727 93.71357 272.9375 6.1875 C 267.21743 5.795922 261.44464 5.59375 255.625 5.59375 z" transform="translate(0,540.36217)" fill="#e3001c"/>
  <path d="M 407.34375 62.09375 C 284.56939 62.839985 160.57311 150.45472 39.875 129.375 C 27.20205 150.98635 17.649502 174.63498 11.90625 199.75 C 168.98457 247.5164 326.20793 98.65285 483.28125 152.25 C 479.47749 143.89487 475.22667 135.77262 470.5625 127.9375 C 455.62527 102.84515 436.4359 80.57903 413.96875 62.15625 C 411.75632 62.11209 409.55699 62.0803 407.34375 62.09375 z" transform="translate(0,540.36217)" fill="#e3001c"/>
  <path d="M 256 6 C 164.58184 6 84.65921 55.10766 41.0625 128.34375 C 18.813978 165.71801 6 209.34698 6 256 C 6 291.26848 13.323509 324.82277 26.5 355.25 C 184.34906 393.31435 342.21218 238.30689 500.0625 310.28125 C 503.9322 292.80353 506 274.642 506 256 C 506 209.34698 493.18602 165.71801 470.9375 128.34375 C 427.34077 55.10766 347.41816 6 256 6 z" transform="translate(0,540.36217)" fill="url(#5)"/>
  <path d="M 505.09375 235.09375 C 505.16232 235.9271 505.25215 236.75804 505.3125 237.59375 C 505.25139 236.76073 505.19401 235.92471 505.125 235.09375 C 505.11558 235.09058 505.10317 235.09692 505.09375 235.09375 z M 505.375 238.34375 C 505.51966 240.43386 505.62535 242.52126 505.71875 244.625 C 505.62283 242.52695 505.52182 240.42856 505.375 238.34375 z M 505.71875 244.625 C 505.81635 246.82324 505.89575 249.0384 505.9375 251.25 C 505.8949 249.02723 505.81968 246.83259 505.71875 244.625 z M 506 256 C 506 257.75068 505.9736 259.50749 505.9375 261.25 C 505.97357 259.50606 506 257.75271 506 256 z M 505.75 267 C 505.72195 267.64775 505.68922 268.29105 505.65625 268.9375 C 505.68916 268.29412 505.72198 267.64467 505.75 267 z M 505.65625 268.9375 C 505.63972 269.26159 505.61152 269.58249 505.59375 269.90625 C 505.53928 270.89889 505.50078 271.88635 505.4375 272.875 C 505.52508 271.56549 505.58898 270.25251 505.65625 268.9375 z M 502.03125 300.5625 C 501.78193 301.9479 501.52198 303.34179 501.25 304.71875 C 501.52261 303.34103 501.78134 301.94821 502.03125 300.5625 z M 314.03125 322.5625 C 238.41204 338.66928 162.77349 365.10512 87.15625 365.53125 C 162.78371 365.86582 238.40465 339.20027 314.03125 322.5625 z M 493.875 333.0625 C 493.59822 333.91729 493.31706 334.7735 493.03125 335.625 C 493.04092 335.62773 493.05283 335.62227 493.0625 335.625 C 493.34753 334.77604 493.59886 333.9155 493.875 333.0625 z M 491.6875 339.5625 C 491.16018 341.04979 490.61703 342.52578 490.0625 344 C 490.61709 342.52566 491.16012 341.04994 491.6875 339.5625 z M 44.28125 388.9375 C 44.852342 389.84537 45.41761 390.75629 46 391.65625 C 45.41748 390.75469 44.852298 389.84826 44.28125 388.9375 z M 418.28125 404.5 C 316.82589 405.52331 215.36043 455.43878 113.90625 461.6875 C 154.25458 489.62472 203.20423 506 256 506 C 337.57037 506 410.0238 466.94317 455.65625 406.5 C 443.19706 404.97927 430.74068 404.37433 418.28125 404.5 z M 62.34375 414.09375 C 63.03104 414.93492 63.739524 415.76176 64.4375 416.59375 C 63.799296 415.82495 63.16399 415.05342 62.53125 414.28125 C 62.47548 414.21311 62.40128 414.1605 62.34375 414.09375 z M 88.28125 441.375 C 89.29389 442.29208 90.31064 443.20025 91.34375 444.09375 C 90.32978 443.20334 89.34666 442.28242 88.34375 441.375 L 88.28125 441.375 z" transform="translate(0,540.36217)" fill="url(#7)"/>
  <path d="M 405.625 208.9375 C 267.67969 210.46697 139.46389 299.56015 6.03125 253.15625 C 6.0207 254.10139 6 255.05233 6 256 C 6 264.11154 6.402023 272.11711 7.15625 280.03125 C 7.468102 283.30353 7.844558 286.57822 8.28125 289.8125 C 8.354414 290.35376 8.423379 290.89736 8.5 291.4375 C 8.617119 292.26402 8.74982 293.08235 8.875 293.90625 C 8.976523 294.57379 9.08071 295.24046 9.1875 295.90625 C 9.225733 296.14483 9.242343 296.38665 9.28125 296.625 C 9.798336 299.79273 10.365017 302.93599 11 306.0625 C 11.00852 306.10444 11.02271 306.14557 11.03125 306.1875 C 11.05038 306.28143 11.07452 306.37486 11.09375 306.46875 C 12.823797 314.91459 15.00315 323.201 17.5625 331.3125 C 17.967249 332.5953 18.356422 333.8825 18.78125 335.15625 C 18.790852 335.15911 18.802898 335.15339 18.8125 335.15625 C 21.649849 343.6623 24.924992 351.95805 28.625 360.03125 C 184.73411 391.87138 340.86114 272.83968 496.96875 322.8125 C 499.10911 315.07719 500.8851 307.20284 502.28125 299.1875 C 502.323 298.94781 502.36518 298.70867 502.40625 298.46875 C 502.40798 298.45864 502.40452 298.44761 502.40625 298.4375 C 502.66329 296.93467 502.92617 295.4181 503.15625 293.90625 C 503.34906 292.63917 503.51378 291.36694 503.6875 290.09375 C 503.87767 288.69998 504.05165 287.30717 504.21875 285.90625 C 504.32408 285.02341 504.43515 284.13565 504.53125 283.25 C 504.58734 282.73277 504.63457 282.20567 504.6875 281.6875 C 504.81861 280.40433 504.95088 279.13261 505.0625 277.84375 C 505.07333 277.71879 505.0831 277.59376 505.09375 277.46875 C 505.21415 276.05372 505.30953 274.64044 505.40625 273.21875 C 505.48143 272.11483 505.53296 271.01408 505.59375 269.90625 C 505.61152 269.58249 505.63972 269.26159 505.65625 268.9375 C 505.68922 268.29105 505.72195 267.64775 505.75 267 C 505.78361 266.22361 505.81724 265.43449 505.84375 264.65625 C 505.87943 263.60638 505.91481 262.55315 505.9375 261.5 C 505.9384 261.45838 505.93662 261.41663 505.9375 261.375 C 505.97505 259.59175 506 257.79236 506 256 C 506 254.69061 505.98904 253.39847 505.96875 252.09375 C 505.96512 251.81299 505.97397 251.53004 505.96875 251.25 C 505.95946 251.24663 505.94679 251.25337 505.9375 251.25 C 505.77049 242.40359 505.15721 233.65792 504.09375 225.0625 C 470.61354 213.0151 437.85498 208.58015 405.625 208.9375 z" transform="translate(0,540.36217)"/>
  <path d="M 415.15625 309.59375 C 286.18244 310.08899 157.22321 387.96238 28.25 359.1875 C 31.23473 365.76442 34.509854 372.17804 38.03125 378.4375 C 38.02122 378.4354 38.01003 378.43961 38 378.4375 C 38.583732 379.47459 39.1832 380.50342 39.78125 381.53125 C 39.865921 381.67677 39.946294 381.82342 40.03125 381.96875 C 40.08795 382.06583 40.16192 382.153 40.21875 382.25 C 40.67797 383.03314 41.12627 383.8161 41.59375 384.59375 C 43.29073 387.41668 45.0398 390.21994 46.84375 392.96875 C 47.643069 394.18673 48.46134 395.39072 49.28125 396.59375 C 49.834308 397.40613 50.37517 398.22576 50.9375 399.03125 C 51.74878 400.192 52.575865 401.32255 53.40625 402.46875 C 54.0798 403.39974 54.751505 404.32873 55.4375 405.25 C 56.15367 406.21066 56.864168 407.14381 57.59375 408.09375 C 57.946752 408.55399 58.30013 409.01105 58.65625 409.46875 C 59.49476 410.54507 60.36311 411.59413 61.21875 412.65625 C 61.46572 412.9632 61.689108 413.28799 61.9375 413.59375 C 61.956061 413.61657 61.981431 413.63344 62 413.65625 C 62.1724 413.86831 62.35817 414.06976 62.53125 414.28125 C 63.47317 415.43074 64.41312 416.5865 65.375 417.71875 C 65.59486 417.97787 65.810348 418.24179 66.03125 418.5 C 66.972997 419.59947 67.94586 420.69845 68.90625 421.78125 C 69.68423 422.65924 70.4599 423.53939 71.25 424.40625 C 72.848477 426.16003 74.47771 427.88634 76.125 429.59375 C 77.76868 431.29742 79.43378 432.96861 81.125 434.625 C 82.8076 436.27294 84.52139 437.89997 86.25 439.5 C 86.91964 440.11984 87.57356 440.76247 88.25 441.375 C 88.28132 441.37503 88.31243 441.37498 88.34375 441.375 C 96.4131 448.67607 104.93254 455.47637 113.90625 461.6875 C 227.81971 454.67139 341.7437 392.59615 455.65625 406.5 C 460.64995 399.88551 465.29652 393.01025 469.625 385.90625 C 469.63979 385.88197 469.67271 385.86804 469.6875 385.84375 C 470.48057 384.54113 471.26146 383.22438 472.03125 381.90625 C 472.10445 381.78091 472.17702 381.65673 472.25 381.53125 C 473.5973 379.21499 474.91325 376.86274 476.1875 374.5 C 476.31183 374.26946 476.43887 374.04348 476.5625 373.8125 C 476.75045 373.46113 476.93869 373.10238 477.125 372.75 C 477.66677 371.72593 478.19085 370.68868 478.71875 369.65625 C 479.36657 368.3893 479.99828 367.12309 480.625 365.84375 C 480.68258 365.72622 480.7551 365.61764 480.8125 365.5 C 480.84311 365.43722 480.87569 365.37531 480.90625 365.3125 C 481.5559 363.97818 482.18602 362.62872 482.8125 361.28125 C 483.13671 360.58339 483.46331 359.88884 483.78125 359.1875 C 484.10648 358.47071 484.43135 357.75163 484.75 357.03125 C 485.11138 356.21345 485.45965 355.38488 485.8125 354.5625 C 486.07585 353.94931 486.33518 353.33446 486.59375 352.71875 C 486.6117 352.67597 486.63833 352.63654 486.65625 352.59375 C 487.24331 351.19362 487.81283 349.78792 488.375 348.375 C 488.79719 347.31297 489.21698 346.25662 489.625 345.1875 C 489.77551 344.79347 489.91393 344.39498 490.0625 344 C 490.61703 342.52578 491.16018 341.04979 491.6875 339.5625 C 492.1516 338.25353 492.6197 336.94387 493.0625 335.625 C 493.05283 335.62227 493.04092 335.62773 493.03125 335.625 C 494.59325 330.97139 496.02044 326.27083 497.3125 321.5 C 469.93168 312.86825 442.53694 309.48861 415.15625 309.59375 z" transform="translate(0,540.36217)" fill="url(#6)"/>
 </g>
</svg>
