<svg xmlns="http://www.w3.org/2000/svg" xmlns:xlink="http://www.w3.org/1999/xlink" width="512" height="512">
 <defs>
  <linearGradient id="0">
   <stop stop-color="#71a5bc"/>
   <stop offset="1" stop-color="#0078ad"/>
  </linearGradient>
  <radialGradient xlink:href="#0" id="1" cx="256" cy="256.00004" r="250" gradientTransform="translate(0,1.8944003e-6)" gradientUnits="userSpaceOnUse"/>
 </defs>
 <path d="m 506 256.00004 c 0 138.07119 -111.92881 250 -250 250 -138.07119 0 -250 -111.92881 -250 -250 C 6 117.92886 117.92881 6.00005 256 6.00005 c 138.07119 0 250 111.92881 250 249.99999 z" fill="url(#1)" fill-rule="evenodd"/>
 <path d="m 201.7181 84.69513 c -6.37048 -0.02413 -19.20403 3.379348 -25.4756 6.772389 -15.37275 8.316993 -25.14672 23.546016 -27.59593 43.00788 -0.55367 4.39972 -0.86646 4.84096 -4.33559 5.94958 -12.22049 3.90527 -27.38374 14.54801 -43.60915 30.60237 -28.407165 28.10768 -48.999489 61.52074 -56.932432 92.37673 -3.215559 12.50721 -3.276968 30.59836 -0.126586 43.35599 7.619038 30.85375 30.562889 55.82938 60.698378 66.10996 5.43754 1.855 12.8359 3.79352 16.45629 4.30395 29.48723 4.15745 58.68879 -5.26875 79.52817 -25.66547 8.39831 -8.21991 14.33444 -16.15359 18.95638 -25.31737 3.71041 -7.3565 7.89376 -21.29989 8.57626 -28.60862 0.32546 -3.48539 0.92002 -6.32933 1.32916 -6.32933 0.40914 0 3.17964 1.13257 6.1711 2.50008 12.05646 5.51148 29.22093 5.50054 41.23566 0 3.00956 -1.37781 5.79361 -2.50008 6.20276 -2.50008 0.40911 0 1.03534 2.84394 1.3608 6.32933 0.6825 7.30873 4.8342 21.25212 8.54461 28.60862 7.4433 14.75758 21.58963 30.03363 35.5076 38.35581 17.58008 10.51188 39.34249 15.29884 59.14764 12.97516 39.4557 -4.62919 71.5885 -32.71456 80.98397 -70.76204 3.1504 -12.75763 3.12083 -30.84878 -0.0952 -43.35599 -7.93276 -30.85599 -28.55698 -64.26905 -56.96408 -92.37673 -16.22529 -16.05436 -31.35698 -26.6971 -43.57746 -30.60237 -3.46919 -1.10862 -3.78201 -1.54986 -4.33555 -5.94958 -3.13754 -24.93039 -17.55952 -41.92471 -40.60278 -47.818172 -9.29969 -2.378468 -14.69815 -2.482015 -24.24137 -0.474706 -20.59874 4.332725 -37.09948 21.03006 -41.29896 41.742008 l -1.2973 6.2977 -1.17093 -6.26606 C 250.10769 103.48642 227.16725 84.79144 201.7181 84.69513 z m 53.95764 133.61239 c 3.83405 -0.0832 7.72701 0.70251 11.4561 2.46844 20.29421 9.6104 20.99462 37.96112 1.17093 47.65993 -18.72011 9.1589 -39.20384 -3.48433 -39.11532 -24.14642 0.0625 -14.60318 12.79525 -25.68453 26.48829 -25.98195 z m -120.70054 0.0316 c 18.98148 0 33.94812 6.34416 47.62829 20.15894 9.49107 9.58442 14.62965 18.4197 17.72216 30.47579 2.15984 8.41986 2.17029 23.80318 0 31.89988 -6.38611 23.82451 -24.97253 42.62383 -48.07135 48.60933 -6.60237 1.71085 -20.61067 2.71154 -25.887 1.86716 -27.706826 -4.43397 -49.909154 -23.98503 -56.742543 -49.97015 -2.268183 -8.62516 -2.330373 -23.79663 -0.126587 -32.40622 3.04819 -11.90851 8.311528 -20.87595 17.84874 -30.47579 6.982178 -7.02801 10.300937 -9.52822 17.24746 -12.91184 11.31675 -5.51236 18.60177 -7.2471 30.38083 -7.2471 z m 242.034 0 c 18.954 0 33.92 6.32883 47.65995 20.15894 13.68565 13.77549 19.53558 27.83795 19.46277 46.6789 -0.0465 11.80611 -2.11208 20.09507 -7.6902 30.88718 -8.10591 15.68303 -24.77192 28.92362 -42.05843 33.38728 -6.68246 1.72545 -20.68874 2.74591 -25.98199 1.8988 -34.29308 -5.48796 -58.24859 -32.63729 -58.38817 -66.17326 -0.0784 -18.82305 5.78538 -32.96284 19.36774 -46.6789 6.99954 -7.06826 10.26932 -9.52094 17.2475 -12.91184 11.32881 -5.50499 18.61262 -7.2471 30.38083 -7.2471 z" fill="#282629"/>
 <path d="m 102.7905 258.56213 c -5.666378 7.04382 -9.08261 15.98509 -9.08261 25.72878 0 22.69581 18.413267 41.10907 41.10908 41.10907 8.91115 0 17.16059 -2.83934 23.89326 -7.65851 -29.93816 -4.24823 -53.3156 -28.74235 -55.91973 -59.17934 z" fill="#fff8eb" fill-rule="evenodd"/>
 <path d="m 345.30032 258.56213 c -5.66643 7.04382 -9.08265 15.98509 -9.08265 25.72878 0 22.69581 18.41321 41.10907 41.10912 41.10907 8.9111 0 17.16051 -2.83934 23.89321 -7.65851 -29.9382 -4.24823 -53.31563 -28.74235 -55.91968 -59.17934 z" fill="#fff8eb" fill-rule="evenodd"/>
</svg>
