<svg xmlns="http://www.w3.org/2000/svg" xmlns:xlink="http://www.w3.org/1999/xlink" height="512" width="512">
 <defs>
  <radialGradient gradientUnits="userSpaceOnUse" r="82.85714" cy="246.28572" cx="222.85715" id="0" xlink:href="#1"/>
  <linearGradient id="1">
   <stop stop-color="#b94a4e"/>
   <stop stop-color="#9a3034" offset="1"/>
  </linearGradient>
  <radialGradient xlink:href="#1" id="2" cx="275.39468" cy="246.63303" r="183.98477" gradientTransform="matrix(1.2676368,5.5579399e-8,-5.9214917e-8,1.3505545,-73.705747,-86.501513)" gradientUnits="userSpaceOnUse"/>
 </defs>
 <g transform="translate(0,-540.36217)">
  <g transform="translate(-1.383744e-5,-1.4509736e-5)">
   <path transform="matrix(3.0172416,0,0,3.0172415,-416.41385,53.258684)" d="m 305.71429 246.28572 a 82.85714 82.85714 0 1 1 -165.71428 0 82.85714 82.85714 0 1 1 165.71428 0 z" fill="url(#0)" fill-rule="evenodd"/>
   <path d="m 399.22917 794.70201 c -24.92924 0.36101 -49.85129 9.79517 -67.48047 27.57162 -29.80388 34.95961 -32.53795 88.71414 -13.86719 129.85026 15.72596 33.61263 53.1396 46.15165 87.79297 44.4987 26.24257 -19.64472 48.46932 -44.33826 65.29948 -72.6237 l -32.9427 -8.75651 c -3.43079 17.56725 -16.27668 44.94045 -40.33204 40.85287 -23.48983 -0.91423 -38.15101 -24.22068 -39.0625 -46.45183 -2.08374 -24.93702 0.93007 -58.73814 27.2461 -69.23828 21.25011 -8.82309 48.05783 5.75 49.08854 30.17578 l 48.11198 -11.84896 c -5.39448 -20.6447 -16.70042 -40.62475 -35.02604 -51.79036 -14.71095 -8.48315 -31.77129 -12.48659 -48.82813 -12.23959 z" fill="#fff8eb"/>
   <path d="m 156.01129 828.92019 c -1.49691 -14.25977 39.88183 -2.60236 26.52064 -27.11976 -5.11877 -15.35628 -10.23752 -30.71256 -15.35629 -46.06886 -26.05018 0 -52.10036 0 -78.15055 0 -5.670313 18.32954 -13.719313 36.27137 -17.599407 54.89148 0.419896 12.67066 43.792417 10.90481 25.13421 18.29714 -23.18636 0 -46.37271 0 -69.55907 0 0.814792 -12.80361 30.772574 -6.92912 31.01214 -27.29067 25.22319 -67.81319 50.4464 -135.62635 75.66959 -203.43954 6.40565 0.70782 16.91962 -5.19981 20.64827 -0.18129 23.88762 67.77724 46.73514 135.97239 71.2929 203.48032 2.47384 17.96839 29.64978 14.76857 30.86684 27.43118 -33.49308 0 -66.98619 0 -100.47927 0 z M 93.98703 740.84576 c 22.74222 0 45.48445 0 68.22668 0 -10.75086 -32.66611 -21.50175 -65.33221 -32.25261 -97.99831 -11.99136 32.6661 -23.98271 65.3322 -35.974065 97.99831 z" fill="#fff8eb"/>
   <path d="m 294.9974 685.22935 c -25.39374 -0.25931 -50.38345 6.88266 -75.06511 12.3698 -23.84516 -9.93493 -20.31965 32.77493 -1.43229 28.74349 4.57869 25.66309 4.81049 51.96891 2.24609 77.86458 3.80034 21.48829 -24.30249 35.82717 -5.40364 53.35287 -1.77137 19.99927 22.23276 28.77676 27.11588 7.1289 23.69332 11.85432 51.99689 16.38442 77.9948 11.42579 29.81401 -7.65863 48.15722 -37.42333 49.47916 -66.99219 -0.50805 -23.36216 -23.86561 -34.39518 -44.10807 -36.65365 7.97451 -7.0516 34.55077 -28.42579 31.05469 -50.55339 0.28534 -23.13689 -24.32179 -34.15274 -44.23828 -35.1888 -5.90055 -0.95782 -11.78314 -1.43755 -17.64323 -1.4974 z m 10.64453 21.48438 c 18.70587 -0.34059 30.52247 15.32258 23.30729 32.91016 -10.91669 25.01776 -41.74655 29.05968 -65.95052 29.7526 -26.79102 7.38769 -12.85502 -22.16006 -15.23438 -38.21615 -1.85973 -26.72373 38.83297 -22.84864 57.87761 -24.44661 z m -10.67709 80.89193 c 15.35525 -0.0166 30.20991 3.13224 41.92709 13.93229 15.23679 20.08386 -3.96756 44.58641 -23.63281 52.27865 -24.01052 8.20569 -50.01595 1.19017 -70.80079 -11.97917 7.2006 -15.18947 -7.20794 -46.28152 12.4349 -49.83724 12.57431 -1.90926 26.52286 -4.37993 40.07161 -4.39453 z" fill="#fff8eb"/>
  </g>
  <path d="M 293.96875 71.03125 C 213.5717 71.03124 147.875 136.7592 147.875 217.15625 C 147.875 224.06847 148.33154 230.90825 149.28125 237.65625 L 150.125 243.53125 L 150.40625 243.9375 C 152.43186 257.52272 154.85781 269.75041 155.4375 278.71875 C 156.07529 288.58596 155.03935 293.08424 152.25 296.90625 C 136.79144 312.46759 127.94688 321.37919 123.96875 325.34375 C 123.47869 325.83214 123.56739 325.74825 123.1875 326.125 C 123.97982 325.54113 125.7386 324.74734 128.46875 323.84375 C 125.49174 324.92003 123.84378 325.73623 123 326.34375 C 122.98449 326.35923 122.95822 326.35448 122.9375 326.375 C 122.6623 326.57627 122.65683 326.65092 122.5 326.8125 C 121.97384 327.3318 121.24405 328.07367 121.0625 328.25 C 120.33782 328.86702 119.80427 329.30388 119.46875 329.625 C 118.59339 330.46279 117.50934 331.5293 115.3125 333.71875 C 110.92791 338.08859 102.33483 346.73708 85.25 363.9375 C 85.21457 363.9732 85.223 363.9643 85.1875 364 C 67.940157 381.31723 67.64238 410.36104 85.0625 427.78125 C 102.50391 445.22264 131.59654 444.90352 148.90625 427.59375 L 148.9375 427.5625 L 148.96875 427.53125 C 165.91662 410.45987 174.40175 401.93296 178.59375 397.75 C 180.24545 396.10186 180.80437 395.56025 181.28125 395.09375 C 181.28725 395.08875 181.3071 395.0678 181.3125 395.0625 C 182.57113 394.02432 182.75145 393.79201 183.1875 393.375 C 184.05959 392.54098 185.1539 391.46132 187.34375 389.28125 C 191.47254 385.1709 200.41184 376.1771 215.5625 360.9375 C 219.96719 357.85381 224.88056 356.82612 235.125 357.34375 C 245.83862 357.88508 260.60808 360.81975 277.875 362.375 C 277.9084 362.378 277.93535 362.372 277.96875 362.375 C 277.96901 362.37509 278 362.40625 278 362.40625 C 278.14549 362.42215 278.29198 362.4221 278.4375 362.4375 C 278.4582 362.4395 278.4793 362.4355 278.5 362.4375 C 283.6404 362.98201 288.79453 363.24999 293.96875 363.25 C 296.71899 363.25 299.43306 363.1773 302.09375 363.03125 C 378.86034 358.81686 440.09376 294.83158 440.09375 217.15625 C 440.09376 176.95709 423.69242 140.25493 397.28125 113.84375 C 384.27882 102.32055 397.0424 112.14219 368.59375 91.71875 C 346.69707 78.67942 321.17612 71.03124 293.96875 71.03125 z M 293.4375 108.9375 C 352.85298 108.9375 401.03125 157.11577 401.03125 216.53125 C 401.03125 275.94673 352.85298 324.125 293.4375 324.125 C 234.02202 324.125 185.875 275.94673 185.875 216.53125 C 185.875 157.11577 234.02202 108.9375 293.4375 108.9375 z M 205.375 288.59375 C 211.09028 295.65642 217.69615 301.96461 224.90625 307.5 C 216.77177 308.03064 208.26487 309.66024 200 312.96875 C 203.26123 304.89446 204.88862 296.56757 205.375 288.59375 z M 138.59375 322.34375 C 138.92751 322.35175 139.84394 322.34377 139.84375 322.34375 C 139.84367 322.34374 140.43762 322.56865 140.5 322.59375 C 139.69734 322.4738 139.39118 322.42309 138.59375 322.34375 z M 134.34375 322.40625 C 134.55688 322.38035 134.80783 322.42125 135.09375 322.40625 C 134.61711 322.45005 134.11821 322.46665 133.6875 322.53125 C 133.93241 322.49405 134.08362 322.43785 134.34375 322.40625 z M 130.96875 323.0625 C 130.52396 323.18608 130.0371 323.31104 129.65625 323.4375 C 129.96006 323.3452 130.07542 323.28302 130.40625 323.1875 C 130.55996 323.1431 130.80612 323.1062 130.96875 323.0625 z M 152.0625 327.25 C 152.1321 327.278 152.75005 327.53129 152.75 327.53125 C 152.74984 327.53112 153.50582 328.29052 154.09375 328.875 C 153.32532 328.25947 152.98788 327.99122 152.0625 327.25 z M 156.34375 331.09375 C 156.48896 331.23809 156.93756 331.68757 156.9375 331.6875 C 156.93736 331.68733 157.40291 332.4045 157.6875 332.8125 C 157.13352 332.0879 156.82299 331.6725 156.34375 331.09375 z M 158.78125 334.46875 C 158.90353 334.66084 159.05019 334.8356 159.125 334.96875 C 160.09755 336.69972 160.34042 337.42647 160.25 337.21875 C 160.1795 337.05678 159.5491 335.80827 158.78125 334.46875 z M 259.84375 351.34375 C 259.8662 351.37765 260.00394 351.65806 260.34375 352.125 C 260.65877 352.55787 261.1588 353.1806 261.84375 353.96875 C 261.09327 353.10837 260.64696 352.54404 260.34375 352.125 C 259.93452 351.55945 259.81586 351.30165 259.84375 351.34375 z M 264.0625 355.9375 C 265.24377 356.93529 266.41924 357.9672 266.65625 358.15625 L 266.46875 358.09375 C 266.46906 358.09397 265.16352 356.8942 264.0625 355.9375 z M 116 360.125 C 116.32028 360.61762 116.47233 360.85282 116.8125 361.34375 C 116.62608 361.09331 116.4274 360.89774 116.3125 360.71875 C 116.08291 360.36108 116.17919 360.4289 116 360.125 z M 118.53125 363.53125 C 119.07959 364.07639 119.49327 364.46704 120.34375 365.3125 C 119.997 365.03476 119.28116 364.46865 119.28125 364.46875 C 119.28136 364.46887 118.75811 363.80381 118.53125 363.53125 z M 122.6875 367.21875 C 123.92632 367.71716 132.4772 371.16321 133.9375 371.75 C 132.7649 371.57074 131.06217 371.40617 131.0625 371.40625 C 131.06322 371.40644 124.40569 368.59341 124.40625 368.59375 C 124.40644 368.59386 123.45261 367.83161 122.6875 367.21875 z" transform="translate(0,540.36217)" color="#000" fill="url(#2)"/>
  <path d="m 450.256,600.76044 c -34.44135,-34.44135 -82.01437,-55.74397 -134.57012,-55.74396 -105.11146,-10e-6 -190.31408,85.20261 -190.31408,190.31408 0,9.08415 0.61675,18.00963 1.84748,26.75437 0.0875,0.12622 0.18676,0.28324 0.27374,0.41052 5.97133,46.19416 21.30721,91.33107 -4.42484,123.66766 -107.047596,107.77742 0.14304,-0.87292 -107.633325,107.63332 -12.4747442,12.47467 -12.5920942,32.43177 -0.273666,44.75027 12.318428,12.3184 32.275489,12.2011 44.750233,-0.2737 106.588778,-107.36553 0.402153,0.2489 107.382428,-107.38243 33.65885,-25.78576 78.17932,-10.70762 127.49949,-6.38638 0.008,7.3e-4 0.0146,0.0218 0.0228,0.0228 6.85575,0.75268 13.81379,1.1176 20.86977,1.11761 3.55709,0 7.09698,-0.10389 10.60596,-0.29651 C 426.47265,919.84829 506.00001,836.8849 506,735.33051 c 10e-6,-52.55574 -21.30261,-100.12877 -55.74396,-134.57012 z m -35.69529,35.69529 c 25.30692,25.30692 40.96406,60.28061 40.96406,98.89764 -10e-6,77.23408 -62.60481,139.83888 -139.83889,139.83889 -77.23409,0 -139.8617,-62.62761 -139.8617,-139.8617 10e-6,-77.23408 62.60481,-139.83888 139.83889,-139.83889 38.61705,10e-6 73.59073,15.65715 98.89764,40.96406 z" transform="matrix(0.63634509,0,0,0.63634509,93.095655,289.60101)" fill="#232323"/>
 </g>
</svg>
