<?xml version="1.0" encoding="UTF-8" standalone="no"?>
<!-- Created with Inkscape (http://www.inkscape.org/) -->

<svg
   xmlns:dc="http://purl.org/dc/elements/1.1/"
   xmlns:cc="http://creativecommons.org/ns#"
   xmlns:rdf="http://www.w3.org/1999/02/22-rdf-syntax-ns#"
   xmlns:svg="http://www.w3.org/2000/svg"
   xmlns="http://www.w3.org/2000/svg"
   xmlns:sodipodi="http://sodipodi.sourceforge.net/DTD/sodipodi-0.dtd"
   xmlns:inkscape="http://www.inkscape.org/namespaces/inkscape"
   width="512"
   height="512"
   id="svg2"
   version="1.1"
   inkscape:version="0.48.4 r9939"
   sodipodi:docname="kgpg.svg">
  <defs
     id="defs4" />
  <sodipodi:namedview
     id="base"
     pagecolor="#ffffff"
     bordercolor="#666666"
     borderopacity="1.0"
     inkscape:pageopacity="0.0"
     inkscape:pageshadow="2"
     inkscape:zoom="0.98994949"
     inkscape:cx="365.8027"
     inkscape:cy="241.08353"
     inkscape:document-units="px"
     inkscape:current-layer="layer1"
     showgrid="false"
     inkscape:window-width="1309"
     inkscape:window-height="750"
     inkscape:window-x="55"
     inkscape:window-y="-3"
     inkscape:window-maximized="1" />
  <metadata
     id="metadata7">
    <rdf:RDF>
      <cc:Work
         rdf:about="">
        <dc:format>image/svg+xml</dc:format>
        <dc:type
           rdf:resource="http://purl.org/dc/dcmitype/StillImage" />
        <dc:title />
      </cc:Work>
    </rdf:RDF>
  </metadata>
  <g
     inkscape:label="Layer 1"
     inkscape:groupmode="layer"
     id="layer1"
     transform="translate(0,-540.36218)">
    <path
       sodipodi:type="arc"
       style="fill:#55405f;fill-rule:evenodd;stroke:none"
       id="path2985"
       sodipodi:cx="202.85715"
       sodipodi:cy="-316.57144"
       sodipodi:rx="360"
       sodipodi:ry="360"
       d="m 562.85715,-316.57144 c 0,198.82251 -161.17749,359.999998 -360,359.999998 -198.8225127,0 -360,-161.177488 -360,-359.999998 0,-198.82251 161.1774873,-360 360,-360 198.82251,0 360,161.17749 360,360 z"
       transform="matrix(0.69444444,0,0,0.69444444,115.12698,1016.2035)" />
    <path
       style="fill:#ffffff;fill-opacity:1;fill-rule:evenodd;stroke:none"
       d="m 254.63465,636.78571 c -41.76501,0 -84.05257,27.90004 -84.05257,70.21215 l 0,76.98274 -30.97264,0 0,171.95805 232.78112,0 0,-171.95805 -31.90775,0 0,-79.11491 c 0,-31.79994 -32.88415,-68.07998 -85.84816,-68.07998 z m -0.5985,38.56619 c 22.48919,-0.11779 46.98266,15.57942 46.98266,39.50134 l 0,69.12736 -92.2072,0 0.0373,-0.0373 0,-68.7907 c 0,-25.94758 25.8407,-39.69926 45.18714,-39.8006 z m 1.04738,146.33453 c 12.86763,0 23.30436,10.43664 23.30436,23.3043 0,7.67401 -3.73958,14.45819 -9.46392,18.70329 l 9.23948,51.84552 -45.7483,0 9.16467,-51.58367 c -5.92137,-4.22465 -9.80053,-11.13684 -9.80053,-18.96514 0,-12.86766 10.43662,-23.3043 23.30424,-23.3043 z"
       id="rect3004"
       inkscape:connector-curvature="0" />
  </g>
</svg>
