<svg xmlns="http://www.w3.org/2000/svg" width="512" height="512">
 <path d="m 506 256 a 250.00001 250.00001 0 1 1 -500 0 250.00001 250.00001 0 1 1 500 0 z" fill="#cea86b" fill-rule="evenodd"/>
 <path d="m 251.36791 6 c -3.21479 0 -6.40874 0.0991 -9.59375 0.22219 132.04379 5.10166 237.53125 114.97879 237.53125 249.79366 0 134.81467 -105.48772 244.65997 -237.53125 249.76187 3.1852 0.1231 6.37877 0.2223 9.59375 0.2223 136.49323 0 247.1562 -111.91745 247.1562 -249.98417 C 498.52411 117.94912 387.86114 6 251.36791 6 z" fill="#fff8eb" fill-rule="evenodd"/>
 <path d="M 67.125 92.375 A 250.00001 250.00001 0 0 0 6 256 250.00001 250.00001 0 0 0 67.125 419.46875 l 0 -327.09375 z" fill="#5a4739" fill-rule="evenodd"/>
 <path d="m 255.24966 167.8662 -57.96779 137.03029 -7.12469 16.84204 -1.81308 4.28597 6.58634 86.10074 a 10.708141 11.930287 22.929776 0 0 7.64505 9.68668 10.708141 11.930287 22.929776 0 0 9.3928 -2.40801 l 67.4205 -55.7426 1.49814 -3.54145 6.92039 -16.35912 58.17208 -137.51321 -90.72974 -38.38133 z m -11.79962 155.92025 a 2.988353 2.988353 0 0 1 1.83887 1.82171 l 8.28949 23.52875 5.93598 2.51108 a 2.988353 2.988353 0 0 1 0.62939 5.12943 l -32.51238 24.53494 a 2.988353 2.988353 0 0 1 -2.96172 0.38397 l -9.94023 -4.205 a 2.988353 2.988353 0 0 1 -1.81878 -2.42999 l -4.55382 -41.78073 a 2.988353 2.988353 0 0 1 4.13099 -3.09191 l 7.98841 3.37932 20.73953 -9.6592 a 2.988353 2.988353 0 0 1 2.23427 -0.12237 z" fill="#3c3c3c" fill-rule="evenodd"/>
 <rect transform="matrix(0.92098305,0.38960264,-0.38960264,0.92098305,0,0)" ry="19.751741" rx="38.54142" y="-39.905998" x="300.49597" height="39.503483" width="98.52632" fill="#cd1d31" fill-rule="evenodd"/>
 <path d="m 284.66876 98.35952 90.74053 38.38588 -9.05339 21.40136 -90.74053 -38.38589 z" fill="#cd1d31" fill-rule="evenodd"/>
 <path d="m 270.63609 131.53139 90.74053 38.38589 -9.5061 22.47152 -90.74053 -38.38589 z" fill="#3c3c3c" fill-rule="evenodd"/>
 <path d="m 96.00001 63.90625 c -14.90078 12.42414 -28.33342 26.53452 -40 42.0625 l 0 300.0625 c 11.66658 15.52798 25.09922 29.63837 40 42.0625 l 0 -384.1875 z" fill="#3b2c1f" fill-rule="evenodd"/>
</svg>
