<?xml version="1.0" encoding="UTF-8" standalone="no"?>
<!-- Created with Inkscape (http://www.inkscape.org/) -->

<svg
   xmlns:dc="http://purl.org/dc/elements/1.1/"
   xmlns:cc="http://creativecommons.org/ns#"
   xmlns:rdf="http://www.w3.org/1999/02/22-rdf-syntax-ns#"
   xmlns:svg="http://www.w3.org/2000/svg"
   xmlns="http://www.w3.org/2000/svg"
   xmlns:sodipodi="http://sodipodi.sourceforge.net/DTD/sodipodi-0.dtd"
   xmlns:inkscape="http://www.inkscape.org/namespaces/inkscape"
   width="512"
   height="512"
   id="svg2"
   version="1.1"
   inkscape:version="0.48.4 r9939"
   sodipodi:docname="krdc.svg">
  <defs
     id="defs4" />
  <sodipodi:namedview
     id="base"
     pagecolor="#ffffff"
     bordercolor="#666666"
     borderopacity="1.0"
     inkscape:pageopacity="0.0"
     inkscape:pageshadow="2"
     inkscape:zoom="0.9899495"
     inkscape:cx="275.41001"
     inkscape:cy="227.62706"
     inkscape:document-units="px"
     inkscape:current-layer="layer1"
     showgrid="false"
     inkscape:window-width="1309"
     inkscape:window-height="750"
     inkscape:window-x="55"
     inkscape:window-y="-3"
     inkscape:window-maximized="1" />
  <metadata
     id="metadata7">
    <rdf:RDF>
      <cc:Work
         rdf:about="">
        <dc:format>image/svg+xml</dc:format>
        <dc:type
           rdf:resource="http://purl.org/dc/dcmitype/StillImage" />
        <dc:title />
      </cc:Work>
    </rdf:RDF>
  </metadata>
  <g
     inkscape:label="Layer 1"
     inkscape:groupmode="layer"
     id="layer1"
     transform="translate(0,-540.36218)">
    <path
       sodipodi:type="arc"
       style="fill:#0078ad;fill-rule:evenodd;stroke:none"
       id="path2985"
       sodipodi:cx="202.85715"
       sodipodi:cy="-316.57144"
       sodipodi:rx="360"
       sodipodi:ry="360"
       d="m 562.85715,-316.57144 c 0,198.82251 -161.17749,359.999998 -360,359.999998 -198.8225127,0 -360,-161.177488 -360,-359.999998 0,-198.82251 161.1774873,-360 360,-360 198.82251,0 360,161.17749 360,360 z"
       transform="matrix(0.69444444,0,0,0.69444444,115.12698,1016.2035)" />
    <path
       style="fill:#fff8eb;fill-opacity:1;stroke:#fff8eb;stroke-width:0.98076004000000006;opacity:0.36492891"
       inkscape:connector-curvature="0"
       d="m 255.62491,580.99109 c -22.1748,0 -43.5805,3.28173 -63.78192,9.37996 2.25477,10.96046 -0.1568,22.54308 10.70725,22.39 7.0165,9.46959 -13.98031,2.80746 1.18328,10.106 8.71988,6.55557 -9.21157,10.32143 1.58728,16.20443 -12.44593,6.13065 2.01137,32.07453 11.25565,38.56538 15.21508,12.22731 6.7463,-25.89592 23.72337,-27.87857 9.22517,-10.05351 25.40615,-16.51634 36.91279,-26.62988 -11.24545,-0.87148 -17.83626,-7.56418 -7.1864,-11.7032 19.60083,19.1732 4.93373,-9.05927 -5.91632,-13.53274 10.49875,-3.18808 20.70671,-0.87761 19.24993,-9.14765 3.44805,-2.40804 3.71715,-4.2946 2.22227,-5.72092 -9.79816,-1.33223 -19.79613,-2.03281 -29.95718,-2.03281 z M 147.4265,609.33431 c -6.47201,3.64928 -12.73812,7.61457 -18.78824,11.87746 5.70992,0.22963 9.91976,1.5054 13.27592,9.78653 15.00099,8.25305 1.31528,22.25904 -5.22383,27.06547 10.93655,-6.16765 30.10468,24.37681 24.87786,7.43429 -6.43692,-4.48657 17.29906,7.20497 4.99293,-7.37621 -11.32515,-17.41779 0.88198,-7.78234 5.65662,-3.71715 16.23947,-13.90091 -18.36645,-15.60572 -9.72607,-29.9114 -4.22494,-3.26667 -9.17627,-10.24226 -15.06519,-15.15899 z m -10.73615,48.72946 c -0.3528,0.19897 -0.67549,0.4188 -1.01009,0.69697 0.3134,-0.20782 0.64619,-0.4295 1.01009,-0.69697 z m 60.08777,-36.93913 c -8.46168,6.73029 16.08688,7.99781 0,0 z m 191.63425,4.32699 c -10.92395,9.15911 -17.70336,22.82442 -25.54155,34.79017 -16.87036,7.2609 -16.25017,38.41859 2.59737,28.45937 5.04453,8.41027 -3.52415,21.65466 11.16904,10.65778 11.85154,-14.97166 2.08327,-39.17274 22.25159,-48.6133 1.46908,7.34054 -18.60164,34.76514 4.84854,30.25988 21.1994,0.76357 -15.39009,1.99998 -5.07943,14.92666 -10.71255,-6.06738 -5.15163,16.56479 -19.13464,11.29664 -12.11383,6.29016 -20.06252,-2.9199 -17.28746,-13.01001 -9.52957,5.30696 2.97836,20.29953 -13.56441,21.19934 -3.70575,12.56152 -34.18433,10.64445 -16.85467,23.43544 7.6939,19.03491 -28.6495,1.20275 -18.32644,24.04529 8.83187,22.58779 27.32532,-7.46131 34.83471,-13.27138 14.03591,-10.39319 34.62122,16.49374 24.04087,19.16653 13.32032,-2.40097 10.18856,-15.1236 -1.21218,-20.12485 -6.32621,-15.66245 20.01892,7.71279 18.55744,15.56554 9.29787,16.62049 5.48803,-17.04119 14.94979,-2.14898 -1.10478,15.70912 38.06488,3.70479 19.36534,23.72585 -16.07728,3.09121 -31.93146,-3.93328 -45.77287,0.58081 -12.88272,-0.10894 -12.19313,-13.26249 -16.88337,-16.55292 -16.38697,1.27088 -36.67839,1.12774 -47.64884,13.76505 -11.86323,15.53759 -28.9478,37.25343 -16.01758,57.09303 12.93922,29.40001 45.01948,1.51315 63.46433,18.87613 5.48252,7.23959 -4.75474,15.855 7.50379,23.69681 4.61274,16.70444 -5.23943,32.55777 6.08962,48.52616 5.85812,15.01744 9.50977,37.50658 31.31366,23.78394 23.07649,-13.25648 16.91927,-37.69146 35.96031,-51.22692 -15.06639,-27.83435 18.45354,-40.01425 26.81153,-62.61067 -18.26045,2.55196 -34.54993,-14.85828 -38.96176,-32.35078 -7.6711,-8.4965 -5.68283,-21.01436 2.88596,-5.05299 11.77783,10.89436 12.03763,43.20165 33.82463,26.57179 2.46896,-0.98583 5.99802,-2.63969 9.58177,-4.70453 0.63859,-6.50461 0.99678,-13.09064 1.06778,-19.74733 -12.20943,-0.0286 -22.18119,-27.85969 -4.04054,-8.10222 1.37708,0.55773 2.71536,1.06846 4.01174,1.56817 -0.1875,-10.45725 -1.05548,-20.75329 -2.62636,-30.81165 -1.75038,2.77638 -5.35823,3.00167 -10.76495,-2.6717 2.17127,-13.69236 -14.4007,-24.13862 3.40555,-29.0402 -14.03861,-45.19717 -42.00542,-84.18953 -78.81831,-111.94996 z m -267.3355,1.33585 c -1.47588,1.13601 -2.94056,2.28363 -4.38684,3.45578 -2.34437,5.79155 -6.65031,11.38111 -8.10989,6.91156 -41.42463,36.98646 -68.976349,89.34253 -73.825382,148.19215 5.81042,10.1298 16.241176,27.43958 16.825767,20.61853 -7.765192,-7.76268 -15.765782,-31.05135 -2.626363,-10.30926 11.769137,19.71685 27.660417,32.50855 50.8524,37.20047 12.679818,4.11723 23.106778,18.27296 34.257528,15.15899 6.30531,15.867 -18.68775,31.11321 0.83688,45.91254 10.19296,14.98213 27.33163,24.82067 18.06675,45.85449 -5.96531,18.91394 -4.12534,39.34881 -8.16748,57.4124 5.72102,3.32997 11.60424,6.41967 17.63375,9.23477 2.82956,-12.42707 5.24663,-24.61166 14.8055,-33.25094 17.64196,0.13342 3.38335,-18.1228 20.89511,-15.7398 10.68565,-13.3704 13.77121,-29.33578 31.80436,-34.64497 2.15407,-16.22962 29.99079,-41.0747 1.24098,-47.39358 -7.81379,-3.67645 -27.94491,-4.98133 -26.40743,-6.79541 3.11506,-16.10409 -25.99014,-20.70911 -38.38457,-27.2978 -16.27338,-11.02663 -40.73214,18.31525 -46.46556,-6.96962 -3.42105,-7.95547 -15.93638,-8.05254 -10.18786,-20.32815 -10.359952,9.8359 -30.615775,6.82728 -25.310649,-12.16784 8.056789,-15.99759 38.999959,-16.77377 44.272189,2.46843 -7.3203,-21.22185 14.1424,-37.75507 26.06104,-52.85318 2.42687,-7.21652 16.85267,-13.39535 11.89054,-3.80427 8.45388,-0.29129 21.2516,-14.85279 6.23391,-8.13125 -0.2125,-13.28102 -13.14752,-9.49432 -17.34516,-7.60854 7.77999,-11.78758 47.75674,-5.32952 31.02507,-24.59704 -12.96482,-5.01474 -11.90854,-34.27871 -25.02205,-17.97588 1.10348,-10.04487 -26.69653,-29.70895 -26.09004,-12.86481 3.39275,15.07235 0.61109,32.43187 -6.60911,42.31157 -1.50678,-22.08603 -40.975836,-17.23733 -35.902506,-40.77243 7.349796,-11.21695 15.978576,-26.68946 16.796766,-25.29402 12.23553,-4.45943 22.2167,-16.83715 11.34235,-25.9329 z m 17.54715,7.31812 c -7.1668,11.20745 10.58956,4.13773 0,0 z m 156.91493,13.27138 c -8.39058,9.22131 -19.44463,-2.43733 -19.62513,5.48859 1.52068,2.39484 7.6088,19.49624 20.95271,6.88253 7.16181,-2.88234 4.32425,-10.14658 -1.32758,-12.37112 z m -178.64693,5.48858 c -15.91478,13.26773 27.03333,14.50758 3.37666,1.53914 l -3.37666,-1.53914 z m 209.7587,36.88105 c -11.04234,7.18627 5.71102,22.17182 0,29.24349 -7.1798,11.94165 26.68583,-0.83983 8.60048,-10.36736 -1.23958,-7.87367 -9.91526,-17.4002 -8.57158,-18.87613 l -0.029,0 z m -7.53259,14.25873 c -15.96448,4.30861 -3.63415,26.5561 2.02027,5.60477 0.31789,-1.21468 0.75899,-5.64535 -2.02027,-5.60477 z m -127.82354,16.08828 c -14.85189,9.66747 -2.31296,19.33454 8.57159,14.98474 -2.23457,-5.83288 -8.47099,-9.52531 -8.57159,-14.98474 z m 242.45775,16.40771 c -1.00538,9.4628 21.36661,24.14079 -2.77056,19.34078 -12.76492,1.42939 -31.89686,-0.38176 -15.81558,-15.56554 5.08123,-2.91199 18.42904,10.07997 11.48644,-2.03282 2.46137,-0.14974 4.78113,-1.0296 7.0997,-1.74242 z m 35.32541,7.28909 c -2.37156,2.58415 -3.73694,5.42709 2.13567,8.33453 -0.66339,-2.80002 -1.36848,-5.57656 -2.13567,-8.33453 z m -109.06419,13.18426 c -9.31047,5.72595 6.43811,10.11657 0,0 z m -233.79957,53.37588 c -1.56967,4.9989 29.4549,10.07061 8.05209,2.06186 l -3.20345,-1.0745 -4.84864,-0.98735 z m 24.06977,7.11484 c -9.40787,9.1171 19.38283,2.72383 0,0 z"
       id="path13771" />
    <path
       style="fill:#282629;fill-rule:evenodd;stroke:none"
       d="M 256 6 C 117.92881 6 6 117.92881 6 256 C 6 394.07119 117.92881 506 256 506 C 394.07119 506 506 394.07119 506 256 C 506 117.92881 394.07119 6 256 6 z M 256 41 C 374.74122 41 471 137.25878 471 256 C 471 374.74122 374.74122 471 256 471 C 137.25878 471 41 374.74122 41 256 C 41 137.25878 137.25878 41 256 41 z "
       transform="translate(0,540.36218)"
       id="path12975" />
    <g
       id="g13015"
       transform="matrix(1.4794248,0,0,1.4794248,-1450.4691,-205.15552)"
       style="opacity:0.85;fill:#fff8eb;stroke:#fff8eb">
      <path
         style="fill:#fff8eb;stroke:#fff8eb;stroke-width:1px;stroke-linecap:butt;stroke-linejoin:miter;stroke-opacity:1"
         d="m 1045.0028,121.07097 36.618,-36.618032 75.2564,75.256362 -77.5292,77.52921 -35.8604,-35.86042 39.901,-39.90102 z"
         id="path13011"
         inkscape:connector-curvature="0"
         transform="translate(0,540.36218)" />
      <path
         inkscape:connector-curvature="0"
         id="path13013"
         d="m 1261.9331,612.94583 -36.618,-36.61803 -75.2564,75.25636 77.5292,77.52921 35.8604,-35.86042 -39.901,-39.90102 z"
         style="fill:#fff8eb;stroke:#fff8eb;stroke-width:1px;stroke-linecap:butt;stroke-linejoin:miter;stroke-opacity:1" />
    </g>
  </g>
</svg>
