<?xml version="1.0" encoding="UTF-8" standalone="no"?>
<svg
   xmlns:dc="http://purl.org/dc/elements/1.1/"
   xmlns:cc="http://creativecommons.org/ns#"
   xmlns:rdf="http://www.w3.org/1999/02/22-rdf-syntax-ns#"
   xmlns:svg="http://www.w3.org/2000/svg"
   xmlns="http://www.w3.org/2000/svg"
   xmlns:xlink="http://www.w3.org/1999/xlink"
   xmlns:sodipodi="http://sodipodi.sourceforge.net/DTD/sodipodi-0.dtd"
   xmlns:inkscape="http://www.inkscape.org/namespaces/inkscape"
   width="512"
   height="512"
   id="svg2"
   version="1.1"
   inkscape:version="0.48.4 r9939"
   sodipodi:docname="krecipes.svg">
  <metadata
     id="metadata16">
    <rdf:RDF>
      <cc:Work
         rdf:about="">
        <dc:format>image/svg+xml</dc:format>
        <dc:type
           rdf:resource="http://purl.org/dc/dcmitype/StillImage" />
      </cc:Work>
    </rdf:RDF>
  </metadata>
  <defs
     id="defs14">
    <linearGradient
       id="linearGradient13817">
      <stop
         style="stop-color:#fea351;stop-opacity:1;"
         offset="0"
         id="stop13819" />
      <stop
         style="stop-color:#f38725;stop-opacity:1;"
         offset="1"
         id="stop13821" />
    </linearGradient>
    <radialGradient
       inkscape:collect="always"
       xlink:href="#linearGradient13817"
       id="radialGradient13823"
       cx="256"
       cy="256.00004"
       fx="256"
       fy="256.00004"
       r="250"
       gradientTransform="translate(0,1.8944003e-6)"
       gradientUnits="userSpaceOnUse" />
  </defs>
  <sodipodi:namedview
     pagecolor="#ffffff"
     bordercolor="#666666"
     borderopacity="1"
     objecttolerance="10"
     gridtolerance="10"
     guidetolerance="10"
     inkscape:pageopacity="0"
     inkscape:pageshadow="2"
     inkscape:window-width="1309"
     inkscape:window-height="743"
     id="namedview12"
     showgrid="false"
     showguides="true"
     inkscape:guide-bbox="true"
     inkscape:zoom="0.99804687"
     inkscape:cx="379.63893"
     inkscape:cy="241.88293"
     inkscape:window-x="57"
     inkscape:window-y="-2"
     inkscape:window-maximized="1"
     inkscape:current-layer="svg2" />
  <path
     style="fill:url(#radialGradient13823);fill-rule:evenodd;fill-opacity:1"
     inkscape:connector-curvature="0"
     id="path6"
     d="m 506,256.00004 c 0,138.07119 -111.92881,250 -250,250 -138.07119,0 -249.9999985,-111.92881 -249.9999985,-250 C 6.0000015,117.92886 117.92881,6.0000452 256,6.0000452 c 138.07119,0 250,111.9288148 250,249.9999948 z" />
  <path
     style="fill:#fff8eb;fill-rule:evenodd"
     inkscape:connector-curvature="0"
     id="path10"
     d="M 256,26.779363 C 129.41249,26.779363 26.779363,129.41249 26.779363,256 26.779363,382.58751 129.41249,485.22064 256,485.22064 382.58751,485.22064 485.22064,382.58751 485.22064,256 485.22064,129.41249 382.58751,26.779363 256,26.779363 z m 0,27.29358 C 367.5236,54.072943 457.92706,144.4764 457.92706,256 457.92706,367.5236 367.5236,457.92706 256,457.92706 144.4764,457.92706 54.072943,367.5236 54.072943,256 54.072943,144.4764 144.4764,54.072943 256,54.072943 z" />
  <path
     style="fill:#fff8eb;fill-rule:evenodd;stroke:none"
     d="M 411.75 116.78125 C 338.95888 127.30979 282.90625 192.35238 282.90625 271.0625 C 282.90625 340.31605 326.30645 399.00443 386.3125 419.28125 C 391.35668 415.24981 396.22836 410.97343 400.875 406.5 C 354.27442 384.925 321.75 336.13721 321.75 279.375 C 321.75 210.87478 369.11846 153.97088 431.4375 142.53125 C 425.54065 133.43326 418.94999 124.83016 411.75 116.78125 z "
     id="path13017" />
  <path
     style="fill:#fff8eb;fill-rule:evenodd;stroke:none"
     d="M 161.125 123.15625 C 139.15082 123.23325 120.74584 147.82371 119.78125 178.75 C 119.03081 202.81044 129.06205 223.70318 143.875 232.5 L 144.03125 385.75 L 177.1875 385.75 L 178.03125 230.8125 C 191.09222 221.62942 200.35436 203.07724 201.03125 181.375 C 202.01116 149.95782 184.62195 123.87352 162.1875 123.15625 C 161.83696 123.14505 161.4738 123.15505 161.125 123.15625 z "
     id="path12995" />
  <path
     style="fill:#fff8eb;stroke:none"
     d="M 271.3125 107.78125 C 268.80805 107.77035 266.79336 110.02978 266.78125 112.8125 L 266.40625 195.28125 L 258.84375 195.28125 L 259.21875 113.3125 C 259.23085 110.52978 257.2232 108.29215 254.71875 108.28125 C 252.2143 108.27035 250.1996 110.49852 250.1875 113.28125 L 249.8125 195.28125 L 242.03125 195.28125 L 242.375 113.28125 C 242.3871 110.49852 240.37945 108.2609 237.875 108.25 C 235.37054 108.2391 233.35586 110.46727 233.34375 113.25 L 233 195.28125 L 225.1875 195.28125 L 225.5625 114.21875 C 225.5746 111.43603 223.56695 109.19839 221.0625 109.1875 C 218.55805 109.1766 216.5121 111.43603 216.5 114.21875 C 216.31415 153.80716 216.28914 153.76159 216.1875 197.8125 L 216.1875 214.46875 L 216.25 214.46875 C 216.76938 222.53447 222.55414 229.1211 230.25 230.84375 L 231.28125 385.75 L 263.25 385.75 L 262.6875 230.625 C 269.91301 228.59542 275.2832 222.20321 275.78125 214.46875 L 275.8125 214.46875 L 275.8125 195.28125 C 275.17828 168.64294 275.69499 140.12601 275.8125 112.84375 C 275.8246 110.06103 273.81696 107.79214 271.3125 107.78125 z "
     id="path12999" />
  <path
     style="fill:#fff8eb;fill-rule:evenodd;stroke:none"
     d="M 436.1875 150.21875 C 375.9902 159.5041 329.78125 213.79664 329.78125 279.375 C 329.78125 333.93498 361.77353 380.67306 407.1875 400.1875 C 442.94941 362.69402 464.90625 311.90469 464.90625 256 C 464.90625 217.39846 454.44113 181.24557 436.1875 150.21875 z "
     id="path13019" />
</svg>
