<svg xmlns="http://www.w3.org/2000/svg" xmlns:xlink="http://www.w3.org/1999/xlink" width="512" height="512">
 <defs>
  <linearGradient y1="92.5396" x2="0" y2="7.01654" id="0" gradientUnits="userSpaceOnUse" gradientTransform="scale(1.0058652,0.994169)">
   <stop/>
   <stop offset="1" stop-opacity="0.588235"/>
  </linearGradient>
  <filter color-interpolation-filters="sRGB">
   <feGaussianBlur stdDeviation="1.71"/>
  </filter>
  <linearGradient y1="92.5396" x2="0" y2="7.01654" xlink:href="#0" gradientUnits="userSpaceOnUse" gradientTransform="scale(1.0058652,0.994169)"/>
  <linearGradient id="1">
   <stop stop-color="#fff"/>
   <stop offset="1" stop-color="#fff" stop-opacity="0"/>
  </linearGradient>
  <filter x="-0.192" y="-0.192" width="1.384" height="1.384" color-interpolation-filters="sRGB">
   <feGaussianBlur stdDeviation="5.28"/>
  </filter>
  <linearGradient y1="20.220806" x2="0" y2="138.66119" xlink:href="#1" gradientUnits="userSpaceOnUse"/>
  <clipPath>
   <rect width="84" height="84" rx="6" x="6" y="6" fill="#fff"/>
  </clipPath>
  <linearGradient gradientTransform="scale(1.0058652,0.994169)" gradientUnits="userSpaceOnUse" xlink:href="#0" y2="7.01654" x2="0" y1="92.5396"/>
  <clipPath>
   <rect y="6" x="6" rx="6" height="84" width="84" fill="#fff"/>
  </clipPath>
  <linearGradient gradientUnits="userSpaceOnUse" xlink:href="#1" y2="138.66119" x2="0" y1="20.220806"/>
  <linearGradient xlink:href="#1" gradientUnits="userSpaceOnUse" gradientTransform="matrix(13.667745,0,0,13.667745,1054.3268,73.100038)" x1="25.5" x2="36.5"/>
 </defs>
 <g transform="translate(0,-540.36218)">
  <path d="m 562.85715 -316.57144 a 360 360 0 1 1 -720 0 360 360 0 1 1 720 0 z" transform="matrix(0.69444444,0,0,0.69444444,115.12698,1016.2035)" fill="#f38725" fill-rule="evenodd"/>
  <path transform="matrix(0.57936508,0,0,0.57936508,138.47165,979.77266)" d="m 562.85715 -316.57144 a 360 360 0 1 1 -720 0 360 360 0 1 1 720 0 z" fill="#fff" fill-rule="evenodd" fill-opacity="0.235294"/>
  <path d="m 133.57865 741.89211 c -1.79201 0.62219 -3.62304 1.97463 -5.45086 3.78398 -5.7126 8.49215 -19.66926 1.01054 -24.94068 10.56243 -0.1018 0.44356 -0.10024 0.77953 -0.16592 1.19063 -0.11521 0.72049 -0.26588 1.3587 -0.27654 1.98439 -0.004 0.26176 0.0491 0.48786 0.0618 0.73376 0.0293 0.58121 0.0623 1.13872 0.18228 1.636 0.14971 0.62069 0.30851 1.1839 0.58585 1.68446 0.28509 0.5145 0.64108 0.93595 1.04469 1.33606 0.26064 0.25838 0.56454 0.61566 0.86894 0.83071 0.1327 0.0935 0.3217 0.13122 0.46208 0.21695 0.34487 0.20879 0.59581 0.43688 0.98286 0.60226 0.19071 0.0852 0.43422 0.0819 0.63459 0.15695 1.12823 0.40632 2.39356 0.62753 3.749 0.77314 1.2168 0.13071 2.43491 0.21887 3.74573 0.20784 0.6254 -0.004 1.26743 -0.069 1.90053 -0.0945 0.89827 -0.0378 1.81702 0.0663 2.7076 0.002 3.05444 -0.21416 5.99607 -0.61101 8.29196 -0.61805 10.68013 -1.20108 17.16756 5.84206 23.7407 11.00287 1.14584 -0.12704 2.17208 -0.36758 3.04927 -0.68287 0.35896 -0.12696 0.65957 -0.3728 0.97628 -0.52836 0.11198 -0.0549 0.23809 -0.0615 0.34499 -0.11999 0.7902 -0.42022 1.24287 -0.98036 1.77677 -1.56206 0.44676 -0.48672 0.91541 -0.97141 1.20078 -1.55056 0.34808 -0.70625 0.60011 -1.52024 0.73538 -2.33278 0.009 -0.0523 -0.0665 -0.11535 -0.0586 -0.16846 0.0944 -0.71398 0.20173 -1.55419 0.1594 -2.32127 -0.009 -0.19292 0.0136 -0.36995 -0.003 -0.56535 -0.081 -0.93403 -0.35108 -1.84723 -0.59241 -2.81508 -0.20208 -0.7786 -0.36338 -1.64164 -0.64768 -2.41825 -0.0804 -0.225 -0.14803 -0.44998 -0.23433 -0.67377 -0.30337 -0.76814 -0.63127 -1.55752 -0.99269 -2.29823 -0.11139 -0.22806 -0.29101 -0.38961 -0.40682 -0.6138 -1.14242 -2.21275 -2.46487 -4.33814 -3.7785 -5.86106 -4.6806 -6.836 -11.8876 -14.17545 -19.65329 -11.48034 z" fill="#0078ad"/>
  <path d="m 201.56507 748.66052 c -2.05404 1.65741 -3.09761 3.5899 -3.6522 5.70695 -0.28078 1.0717 -0.51976 2.23804 -0.54782 3.3885 -0.0374 1.26787 0.21282 2.59507 0.36518 3.92354 0.3077 2.46005 0.71133 4.99148 1.09567 7.49038 -0.0145 0.0566 0.0145 0.12236 0 0.17834 0.98169 6.50178 0.9864 12.73856 -6.7566 16.7642 -12.35832 8.91165 -30.51893 1.2424 -40.53947 14.80242 -5.95765 8.09673 -12.99478 5.2387 -19.7219 2.4968 -0.56625 -0.23083 -1.07903 -0.48945 -1.64349 -0.71338 -1.14333 -0.45094 -2.35141 -0.91836 -3.4696 -1.24839 -1.71285 -0.5056 -3.31282 -0.82459 -4.93048 -0.71338 -1.33685 0.0919 -2.59032 0.48409 -3.83481 1.2484 0.53227 0.64625 1.01875 1.19339 1.6435 1.78342 0.581 0.55638 1.1777 1.08849 1.8261 1.60508 1.1214 0.88898 2.39178 1.68619 3.65219 2.4968 0.18805 0.12105 0.35766 0.23665 0.54783 0.35669 0.18788 0.11847 0.35811 0.2392 0.54783 0.35669 2.8016 1.738 5.78866 3.35934 8.58269 5.17193 0.36535 0.23779 0.73816 0.46916 1.09567 0.71336 0.32576 0.22184 0.59505 0.4854 0.91304 0.71339 1.09673 0.78811 2.13616 1.78964 3.10437 2.67512 0.095 0.0878 0.27173 0.0895 0.36526 0.17836 0.65688 0.61805 1.25454 1.10292 1.82609 1.78342 0.13806 0.16464 0.23283 0.36633 0.36527 0.53504 0.41056 0.5235 0.74428 1.03901 1.09563 1.60507 0.11113 0.1762 0.26021 0.35443 0.36525 0.53505 0.34132 0.59667 0.6449 1.31304 0.91306 1.96176 0.21586 0.51633 0.38306 1.0527 0.54783 1.60509 0.10667 0.35929 0.28165 0.69448 0.36525 1.07004 0.0131 0.0581 -0.0131 0.11979 0 0.17836 0.18872 0.89016 0.31569 1.86548 0.36519 2.85348 0.0524 1.04882 -0.061 2.03961 -0.18262 3.21015 2.1555 14.32842 -9.28663 25.72064 -11.86968 38.70031 -0.012 0.058 0.012 0.12033 0 0.17836 -0.49367 2.56367 -0.55853 5.11418 -0.18263 7.84706 0.42201 1.54704 0.9242 3.05806 1.64349 4.63691 0.29649 0.6556 0.58533 1.30294 0.91306 1.96175 1.2621 2.53353 2.74613 5.13302 4.01743 7.66872 0.17883 0.35718 0.37693 0.71368 0.54783 1.07007 0.0834 0.1739 0.10139 0.36134 0.18261 0.535 0.69277 1.48338 1.37699 2.9993 1.82611 4.45858 0.4954 1.62234 0.72417 3.2439 0.73045 4.81527 0.001 0.23168 0.0131 0.48297 0 0.71339 -0.0748 1.50004 -0.37829 3.0227 -1.09566 4.45852 -0.22529 0.45091 -0.61213 0.80538 -0.91305 1.24839 -0.19368 0.28369 -0.32128 0.61146 -0.54785 0.89174 -0.36777 0.45997 -0.81639 0.79843 -1.27826 1.24839 -0.25333 0.24725 -0.44753 0.46926 -0.73043 0.71336 -0.77841 0.6791 -1.53108 1.30978 -2.55656 1.96176 -6.23698 5.56192 -4.79523 10.71563 -0.91305 8.56041 0.64703 -0.35916 1.25092 -0.80837 2.00871 -1.60505 0.75782 -0.79668 1.55403 -1.91221 2.37395 -3.21014 3.99177 -12.36973 24.24059 -20.5825 27.75675 -5.70698 0.23445 0.99173 0.28766 2.18674 0.3652 3.38852 1.27823 4.5064 -0.4371 11.17209 -1.27829 17.12082 -0.84118 5.94884 -0.73967 11.19638 3.83483 12.84068 1.30721 -15.03726 1.91987 -33.93723 16.43493 -42.62381 0.96767 -0.57913 2.00975 -1.12101 3.10437 -1.60512 13.68681 -7.14458 22.11835 11.34155 34.87856 9.80885 0.8507 -0.10212 1.66423 -0.41994 2.55655 -0.71336 16.40297 -6.8907 21.8523 10.66148 32.86988 17.47755 9.35842 0.3647 12.96262 -5.53311 14.60879 -13.55404 0.23511 -1.14583 0.38053 -2.35225 0.54786 -3.56685 1.33832 -9.71666 0.75974 -21.25615 4.2 -27.99973 11.52057 -10.92222 13.08032 -25.74096 16.25231 -40.48373 10.64278 -16.73875 32.13104 -1.66918 44.92219 -8.3821 -0.20948 -1.8986 -0.77049 -3.50111 -1.64353 -4.6369 -0.0513 -0.0664 -0.12905 -0.11426 -0.18262 -0.17835 -0.41939 -0.51106 -0.92349 -0.87327 -1.46091 -1.24839 -0.0681 -0.0481 -0.11282 -0.13254 -0.1826 -0.17836 -0.16274 -0.1056 -0.37588 -0.0833 -0.54779 -0.17834 -0.48515 -0.27239 -0.9065 -0.51993 -1.46093 -0.71337 -3.30672 -1.15377 -7.71195 -1.09155 -12.41748 -0.71336 -3.10245 0.24931 -6.26176 0.58684 -9.31316 0.71336 -0.18783 0.007 -0.36115 -0.006 -0.54779 0 -1.79866 0.0593 -3.49006 -0.006 -5.1131 -0.17834 -0.18104 -0.0189 -0.36961 0.0222 -0.5478 0 -0.82253 -0.10547 -1.62307 -0.15966 -2.37398 -0.35669 -0.86392 -0.22664 -1.80858 -0.51869 -2.55654 -0.89172 -12.62374 -0.96123 -27.49576 -12.09572 -23.55674 -25.14629 0.0152 -0.0493 -0.0157 -0.12903 0 -0.17833 0.39779 -1.25958 1.05818 -2.45856 1.82612 -3.74519 0.51455 -0.87145 1.25744 -2.06136 2.19132 -3.21016 0.35645 -0.43569 0.88246 -0.96161 1.27827 -1.42674 0.45188 -0.53245 0.7898 -1.04124 1.27825 -1.60508 2.11641 -2.43785 4.37395 -5.02681 6.39137 -7.66873 1.00083 -1.31067 1.82172 -2.50228 2.55659 -3.74519 0.72376 -1.22421 1.33192 -2.48368 1.64345 -3.56686 0.0612 -0.20828 0.1398 -0.33345 0.18262 -0.53503 0.0738 -0.3333 0.16249 -0.57858 0.18265 -0.89171 0.0145 -0.24403 0.0211 -0.4829 0 -0.71336 -0.0198 -0.23564 -0.12323 -0.49309 -0.18265 -0.71339 -0.11775 -0.43675 -0.26163 -0.87892 -0.5478 -1.24839 -0.17862 -0.22593 -0.48243 -0.51565 -0.73047 -0.71338 -0.15357 -0.11293 -0.36864 -0.25424 -0.5478 -0.35668 -0.94077 -0.53764 -2.29557 -0.85982 -4.01745 -1.07007 -10.78149 8.30832 -16.27477 23.56581 -32.32203 24.43293 -14.32589 6.38558 -31.58215 4.83402 -41.45253 -8.56043 -13.52934 -8.8753 -5.8641 -25.42142 -12.41749 -36.91688 -0.51299 -1.57991 -1.79455 -1.28008 -2.92177 -1.42675 z" fill="#0078ad"/>
  <path d="m 238.10331 752.03986 c -2.30033 0.0173 -4.56506 1.20737 -6.93921 3.56685 -1.20035 1.19292 -1.97806 2.55808 -2.55654 3.92353 -0.35333 0.83407 -0.5891 1.65176 -0.73045 2.49679 -0.30535 1.70821 -0.0994 3.49141 0.3652 4.99358 0.16801 0.50055 0.30287 0.97511 0.54783 1.42675 0.20354 0.3882 0.47309 0.72628 0.73045 1.07006 0.1016 0.13282 0.25598 0.23135 0.36524 0.35668 0.48204 0.56483 1.01361 1.03799 1.64351 1.42675 0.18571 0.11521 0.35036 0.25885 0.54781 0.35669 0.3855 0.18684 0.84955 0.24261 1.27825 0.35669 0.49398 0.13457 0.915 0.32934 1.46094 0.3567 0.31045 0.0151 0.58693 0.0222 0.91299 0 0.5576 -0.0308 1.04111 -0.0281 1.64352 -0.17835 1.84858 -0.46114 5.29486 0.14801 7.66963 1.42672 4.13492 2.22676 6.60736 2.8394 8.03483 1.78344 0.47593 -0.35199 0.82198 -0.89617 1.09567 -1.60509 0.19842 -0.5138 0.30677 -1.03696 0.36525 -1.60507 0.0754 -0.59295 0.0656 -1.13261 0 -1.78343 -0.0598 -0.50066 -0.22334 -1.07218 -0.36525 -1.60508 -0.0313 -0.12164 -0.14686 -0.23345 -0.18261 -0.3567 -0.19882 -0.68596 -0.40279 -1.41122 -0.73046 -2.14011 -1.14352 -2.5437 -3.02421 -5.48163 -5.6609 -8.38209 -3.59508 -3.95481 -6.53817 -5.90755 -9.49576 -5.8853 z" fill="#0078ad"/>
  <path d="m 101.37667 820.17858 c -2.871874 -0.11076 -5.653439 0.15192 -6.391383 1.24839 -0.458435 0.68135 -0.756519 1.18373 -1.095656 1.78342 -0.04607 0.0809 -0.138638 0.0989 -0.182627 0.17835 -0.304115 0.55151 -0.5222 1.11627 -0.730432 1.60508 -0.18177 0.43299 -0.253399 0.85862 -0.365254 1.2484 -0.167352 0.56943 -0.335039 1.11599 -0.365252 1.60509 -0.03851 0.62673 0.02441 1.25889 0.182626 1.78342 0.16064 0.53337 0.399679 0.96424 0.730446 1.42673 0.260636 0.36444 0.565479 0.73016 0.913045 1.07007 0.311165 0.30954 0.544101 0.76735 0.913059 1.07005 0.176174 0.14155 0.360849 0.21453 0.547821 0.35668 1.202816 0.93442 2.727202 1.87395 4.200056 3.03184 1.885251 1.48203 3.924431 1.83456 6.02613 1.60507 2.10171 -0.22944 4.1106 -1.13706 6.02615 -2.14011 3.8311 -2.00611 6.99903 -4.62907 7.66962 -4.10187 -0.98702 -1.64012 -1.86028 -3.00912 -2.73915 -4.10188 -2.55664 -3.37366 -4.74503 -4.8266 -8.40007 -6.59867 -1.08164 -0.52448 -4.06731 -0.95929 -6.93918 -1.07005 z" fill="#0078ad"/>
  <path d="m 106.93575 857.99268 c -0.685 0.11089 -1.21952 0.35972 -1.64349 0.71336 -0.0379 0.0341 0.0363 0.14228 0 0.17834 -0.299 0.29893 -0.55724 0.66602 -0.73045 1.07005 -0.21982 0.49731 -0.32004 0.98474 -0.3652 1.60509 -0.0271 0.36531 -0.0244 0.67661 0 1.07007 0.0341 0.7944 0.15122 1.64615 0.3652 2.49678 0.91613 3.64184 1.71439 4.45977 2.73916 4.28021 0.51235 -0.0899 1.01282 -0.46062 1.6435 -0.8917 0.63065 -0.43102 1.38163 -0.88544 2.19132 -1.2484 4.54155 -2.03589 2.6462 -2.44413 0 -8.73878 -1.73861 -0.54616 -3.16494 -0.70253 -4.20004 -0.53503 z" fill="#0078ad"/>
  <path d="m 294.03925 883.70523 c -1.54713 -0.27332 -0.25612 3.28978 3.77248 10.6021 3.38669 6.14733 6.83309 13.34328 7.68275 15.72104 2.17139 6.07654 6.99426 6.67913 9.6347 1.3859 0.53726 -1.07698 0.89911 -1.89822 1.01732 -2.66598 0.0649 -0.42103 -0.03 -0.78292 -0.13031 -1.19504 -0.0786 -0.32269 -0.16951 -0.74372 -0.36455 -1.09352 -0.0336 -0.0606 -0.0696 -0.17014 -0.10702 -0.23175 -0.76487 -1.26249 -2.26643 -2.64058 -4.89048 -5.11122 -1.37558 -1.29515 -2.84507 -2.92507 -4.33518 -4.51759 -0.0577 -0.0619 -0.0494 -0.16986 -0.10707 -0.23173 -0.42499 -0.45482 -0.8679 -0.80355 -1.28114 -1.25242 -0.7218 -0.79937 -1.06878 -1.42407 -1.70927 -2.17934 -1.19669 -1.35335 -2.27304 -2.41169 -2.99047 -3.43175 -2.09113 -2.9736 -4.89114 -5.56889 -6.19176 -5.7987 z" fill="#0078ad"/>
  <path d="m 298.04274 731.72446 c -15.43568 0.0268 -32.27335 7.67932 -44.39791 26.83566 -17.84032 28.18704 -8.29352 71.14903 -42.22183 98.07793 0 0 59.39655 3.41929 94.53158 -21.22843 35.5905 -24.96619 46.78819 -57.546 26.77891 -86.8506 -6.9437 -10.16923 -20.19061 -16.85968 -34.69075 -16.83456 z" fill="#282629" fill-rule="evenodd" stroke="#282629" color="#000" stroke-width="10.150179"/>
  <path d="M 422.0625 69.15625 L 387.375 106.09375 L 425.6875 144.40625 L 458.53125 109.4375 C 447.86116 94.71825 435.61873 81.21399 422.0625 69.15625 z M 303.5 197.125 C 303.118 197.91591 302.77007 198.72046 302.46875 199.53125 C 302.77062 198.71707 303.12055 197.90943 303.5 197.125 z" transform="translate(0,540.36218)" fill="#9a3034"/>
  <path d="m 387.38711 646.45863 -79.28787 84.37211 c -10.28698 10.95116 -9.40216 27.62085 2.01617 37.38671 11.41832 9.76585 28.89674 8.8035 39.18372 -2.14766 l 76.39511 -81.30403 -38.30713 -38.30713 z" fill="#707175" fill-rule="evenodd"/>
  <path d="m 191.17858 693.0704 c 0.0345 -2.8738 -0.30188 -5.64741 -1.41755 -6.356 -0.69327 -0.44019 -1.20338 -0.72484 -1.81186 -1.04794 -0.0821 -0.0439 -0.10255 -0.13597 -0.18314 -0.17783 -0.55938 -0.28938 -1.12973 -0.4924 -1.62389 -0.68758 -0.43766 -0.17022 -0.86504 -0.23053 -1.25766 -0.33201 -0.57367 -0.15218 -1.12448 -0.30531 -1.61421 -0.32253 -0.62753 -0.0218 -1.2578 0.0578 -1.77795 0.22989 -0.52892 0.17474 -0.95329 0.42513 -1.40684 0.76804 -0.3574 0.27022 -0.7149 0.58466 -1.04547 0.94113 -0.30117 0.31926 -0.75264 0.56427 -1.04544 0.94113 -0.13683 0.17987 -0.20488 0.36642 -0.34202 0.55709 -0.90217 1.22719 -1.80092 2.77597 -2.91932 4.27903 -1.43148 1.92391 -1.72978 3.97173 -1.4446 6.0666 0.28513 2.09488 1.24574 4.07898 2.29927 5.96723 2.10706 3.77652 4.81316 6.87373 4.30394 7.55808 1.61335 -1.0302 2.9587 -1.93948 4.02775 -2.84703 3.30463 -2.64527 4.69899 -4.87144 6.37345 -8.57222 0.49559 -1.09517 0.85102 -4.09133 0.88553 -6.96513 z" fill="#0078ad"/>
 </g>
</svg>
