<svg xmlns="http://www.w3.org/2000/svg" width="512" height="512">
 <g transform="translate(0,-540.36218)">
  <path d="m 506 796.36218 a 250.00001 250.00001 0 1 1 -500 0 250.00001 250.00001 0 1 1 500 0 z" fill="#305d9a" fill-rule="evenodd"/>
  <path d="m 251.36791 546.36218 c -3.21479 0 -6.40874 0.0991 -9.59375 0.22219 132.04379 5.10166 237.53125 114.97879 237.53125 249.79366 0 134.81467 -105.48772 244.65997 -237.53125 249.76187 3.1852 0.1231 6.37877 0.2223 9.59375 0.2223 136.49323 0 247.1562 -111.91745 247.1562 -249.98417 0 -138.06673 -110.66297 -250.01585 -247.1562 -250.01585 z" fill="#fff8eb" fill-rule="evenodd"/>
  <path d="m 96.00001 604.26843 c -14.90078 12.42414 -28.33342 26.53452 -40 42.0625 l 0 300.0625 c 11.66658 15.52798 25.09922 29.63837 40 42.0625 l 0 -384.1875 z" fill="#194467" fill-rule="evenodd"/>
  <path d="m 56.00001 646.33093 c -31.39595 41.78736 -50 93.73959 -50 150.03125 0 56.29166 18.60405 108.24389 50 150.03125 l 0 -300.0625 z" fill="#1c537b" fill-rule="evenodd"/>
  <text x="125.00266" y="864.43915" fill="#fff8eb" font-family="Sans" word-spacing="0" line-height="125%" font-weight="bold" letter-spacing="0" font-size="181.53853"><tspan x="125.00266" y="864.43915">Abc</tspan>
  </text>
 </g>
</svg>
