<?xml version="1.0" encoding="UTF-8" standalone="no"?>
<!-- Created with Inkscape (http://www.inkscape.org/) -->

<svg
   xmlns:dc="http://purl.org/dc/elements/1.1/"
   xmlns:cc="http://creativecommons.org/ns#"
   xmlns:rdf="http://www.w3.org/1999/02/22-rdf-syntax-ns#"
   xmlns:svg="http://www.w3.org/2000/svg"
   xmlns="http://www.w3.org/2000/svg"
   xmlns:sodipodi="http://sodipodi.sourceforge.net/DTD/sodipodi-0.dtd"
   xmlns:inkscape="http://www.inkscape.org/namespaces/inkscape"
   width="512"
   height="512"
   id="svg2"
   version="1.1"
   inkscape:version="0.48.4 r9939"
   sodipodi:docname="ktimetracker.svg">
  <defs
     id="defs4" />
  <sodipodi:namedview
     id="base"
     pagecolor="#ffffff"
     bordercolor="#666666"
     borderopacity="1.0"
     inkscape:pageopacity="0.0"
     inkscape:pageshadow="2"
     inkscape:zoom="0.7"
     inkscape:cx="475.99661"
     inkscape:cy="201.04102"
     inkscape:document-units="px"
     inkscape:current-layer="layer1"
     showgrid="false"
     inkscape:window-width="1309"
     inkscape:window-height="750"
     inkscape:window-x="55"
     inkscape:window-y="-3"
     inkscape:window-maximized="1" />
  <metadata
     id="metadata7">
    <rdf:RDF>
      <cc:Work
         rdf:about="">
        <dc:format>image/svg+xml</dc:format>
        <dc:type
           rdf:resource="http://purl.org/dc/dcmitype/StillImage" />
        <dc:title />
      </cc:Work>
    </rdf:RDF>
  </metadata>
  <g
     inkscape:label="Layer 1"
     inkscape:groupmode="layer"
     id="layer1"
     transform="translate(0,-540.36218)">
    <path
       transform="matrix(0.69444444,0,0,0.69444444,115.12698,1016.2035)"
       d="m 562.85715,-316.57144 a 360,360 0 1 1 -720,0 360,360 0 1 1 720,0 z"
       sodipodi:ry="360"
       sodipodi:rx="360"
       sodipodi:cy="-316.57144"
       sodipodi:cx="202.85715"
       id="path2995"
       style="fill:#cd1d31;fill-rule:evenodd;stroke:none;fill-opacity:1"
       sodipodi:type="arc" />
    <path
       sodipodi:type="arc"
       style="fill:#282629;fill-rule:evenodd;stroke:none;fill-opacity:1;opacity:0.30331754"
       id="path3049"
       sodipodi:cx="202.85715"
       sodipodi:cy="-316.57144"
       sodipodi:rx="360"
       sodipodi:ry="360"
       d="m 562.85715,-316.57144 a 360,360 0 1 1 -720,0 360,360 0 1 1 720,0 z"
       transform="matrix(0.54276198,0,0,0.54276198,145.89686,968.18512)" />
    <path
       sodipodi:type="arc"
       style="fill:#fff8eb;fill-opacity:1;stroke:none"
       id="path3001"
       sodipodi:cx="269.71072"
       sodipodi:cy="-37.01791"
       sodipodi:rx="20.203051"
       sodipodi:ry="20.203051"
       d="m 289.91377,-37.01791 a 20.203051,20.203051 0 1 1 -40.4061,0 20.203051,20.203051 0 1 1 40.4061,0 z"
       transform="matrix(0.82938389,0,0,0.82938389,31.948464,601.20258)" />
    <path
       transform="matrix(0.58646297,0.58646297,-0.58646297,0.58646297,233.77762,499.489)"
       d="m 289.91377,-37.01791 a 20.203051,20.203051 0 1 1 -40.4061,0 20.203051,20.203051 0 1 1 40.4061,0 z"
       sodipodi:ry="20.203051"
       sodipodi:rx="20.203051"
       sodipodi:cy="-37.01791"
       sodipodi:cx="269.71072"
       id="path3011"
       style="fill:#fff8eb;fill-opacity:1;stroke:none"
       sodipodi:type="arc" />
    <path
       sodipodi:type="arc"
       style="fill:#fff8eb;fill-opacity:1;stroke:none"
       id="path3017"
       sodipodi:cx="269.71072"
       sodipodi:cy="-37.01791"
       sodipodi:rx="20.203051"
       sodipodi:ry="20.203051"
       d="m 289.91377,-37.01791 a 20.203051,20.203051 0 1 1 -40.4061,0 20.203051,20.203051 0 1 1 40.4061,0 z"
       transform="matrix(0,0.82938389,-0.82938389,0,448.41473,570.2814)" />
    <path
       transform="matrix(-0.58646297,0.58646297,-0.58646297,-0.58646297,550.12832,772.11056)"
       d="m 289.91377,-37.01791 a 20.203051,20.203051 0 1 1 -40.4061,0 20.203051,20.203051 0 1 1 40.4061,0 z"
       sodipodi:ry="20.203051"
       sodipodi:rx="20.203051"
       sodipodi:cy="-37.01791"
       sodipodi:cx="269.71072"
       id="path3023"
       style="fill:#fff8eb;fill-opacity:1;stroke:none"
       sodipodi:type="arc" />
    <path
       sodipodi:type="arc"
       style="fill:#fff8eb;fill-opacity:1;stroke:none"
       id="path3029"
       sodipodi:cx="269.71072"
       sodipodi:cy="-37.01791"
       sodipodi:rx="20.203051"
       sodipodi:ry="20.203051"
       d="m 289.91377,-37.01791 a 20.203051,20.203051 0 1 1 -40.4061,0 20.203051,20.203051 0 1 1 40.4061,0 z"
       transform="matrix(-0.82938389,0,0,-0.82938389,479.33591,986.74772)" />
    <path
       transform="matrix(-0.58646297,-0.58646297,0.58646297,-0.58646297,277.50673,1088.4613)"
       d="m 289.91377,-37.01791 a 20.203051,20.203051 0 1 1 -40.4061,0 20.203051,20.203051 0 1 1 40.4061,0 z"
       sodipodi:ry="20.203051"
       sodipodi:rx="20.203051"
       sodipodi:cy="-37.01791"
       sodipodi:cx="269.71072"
       id="path3035"
       style="fill:#fff8eb;fill-opacity:1;stroke:none"
       sodipodi:type="arc" />
    <path
       sodipodi:type="arc"
       style="fill:#fff8eb;fill-opacity:1;stroke:none"
       id="path3041"
       sodipodi:cx="269.71072"
       sodipodi:cy="-37.01791"
       sodipodi:rx="20.203051"
       sodipodi:ry="20.203051"
       d="m 289.91377,-37.01791 a 20.203051,20.203051 0 1 1 -40.4061,0 20.203051,20.203051 0 1 1 40.4061,0 z"
       transform="matrix(0,-0.82938389,0.82938389,0,62.869584,1017.6688)" />
    <path
       transform="matrix(0.58646297,-0.58646297,0.58646297,0.58646297,-38.843975,815.83966)"
       d="m 289.91377,-37.01791 a 20.203051,20.203051 0 1 1 -40.4061,0 20.203051,20.203051 0 1 1 40.4061,0 z"
       sodipodi:ry="20.203051"
       sodipodi:rx="20.203051"
       sodipodi:cy="-37.01791"
       sodipodi:cx="269.71072"
       id="path3047"
       style="fill:#fff8eb;fill-opacity:1;stroke:none"
       sodipodi:type="arc" />
    <path
       inkscape:connector-curvature="0"
       style="fill:#fff8eb;fill-opacity:1;stroke:none"
       d="m 259.03151,649.70629 c -77.6844,0 -141.1509,60.92658 -145.20326,137.601 l -33.545005,0 53.215865,52.70905 50.30165,-52.70905 -40.19697,0 c 4.01041,-60.26654 54.14638,-107.92049 115.42772,-107.92049 63.90139,0 115.71281,51.81144 115.71281,115.71281 0,63.90138 -51.81142,115.68114 -115.71281,115.68114 -30.09188,0 -57.49983,-11.49037 -78.0816,-30.31403 l -21.98321,20.146 c 26.06493,24.72939 61.29759,39.88021 100.06481,39.88021 80.30084,0 145.39332,-65.09248 145.39332,-145.39332 0,-80.30084 -65.09248,-145.39332 -145.39332,-145.39332 z"
       id="path3069" />
    <path
       style="fill:#fff8eb;stroke:none"
       d="m 253.98656,702.35172 -4.60767,98.29692 54.2681,47.61259 7.16747,-6.14356 -43.51687,-45.56472 -4.09569,-94.7132 z"
       id="path3846"
       inkscape:connector-curvature="0" />
  </g>
</svg>
