<svg xmlns="http://www.w3.org/2000/svg" xmlns:xlink="http://www.w3.org/1999/xlink" width="512" height="512">
 <defs>
  <linearGradient y2="7.01654" x2="0" y1="92.5396" gradientTransform="scale(1.0058652,0.994169)" gradientUnits="userSpaceOnUse" xlink:href="#1"/>
  <filter x="-0.192" y="-0.192" width="1.384" height="1.384" color-interpolation-filters="sRGB">
   <feGaussianBlur stdDeviation="5.28"/>
  </filter>
  <clipPath>
   <rect width="84" height="84" rx="6" x="6" y="6" fill="#fff"/>
  </clipPath>
  <linearGradient id="0">
   <stop stop-color="#fff"/>
   <stop offset="1" stop-color="#fff" stop-opacity="0"/>
  </linearGradient>
  <linearGradient y1="20.220806" x2="0" y2="138.66119" xlink:href="#0" gradientUnits="userSpaceOnUse"/>
  <filter color-interpolation-filters="sRGB">
   <feGaussianBlur stdDeviation="1.71"/>
  </filter>
  <linearGradient y1="92.5396" x2="0" y2="7.01654" id="1" gradientUnits="userSpaceOnUse" gradientTransform="scale(1.0058652,0.994169)">
   <stop/>
   <stop offset="1" stop-opacity="0.588235"/>
  </linearGradient>
  <linearGradient xlink:href="#1" gradientUnits="userSpaceOnUse" gradientTransform="scale(1.0058652,0.994169)" y1="92.5396" x2="0" y2="7.01654"/>
  <linearGradient y2="7.01654" x2="0" y1="92.5396" gradientTransform="scale(1.0058652,0.994169)" gradientUnits="userSpaceOnUse" xlink:href="#1"/>
  <clipPath>
   <rect width="84" height="84" rx="6" x="6" y="6" fill="#fff"/>
  </clipPath>
  <linearGradient y1="20.220806" x2="0" y2="138.66119" xlink:href="#0" gradientUnits="userSpaceOnUse"/>
  <linearGradient y2="7.01654" x2="0" y1="92.5396" gradientTransform="scale(1.0058652,0.994169)" gradientUnits="userSpaceOnUse" xlink:href="#1"/>
  <linearGradient xlink:href="#1" gradientUnits="userSpaceOnUse" gradientTransform="scale(1.0058652,0.994169)" y1="92.5396" x2="0" y2="7.01654"/>
  <linearGradient gradientUnits="userSpaceOnUse" xlink:href="#0" y2="138.66119" x2="0" y1="20.220806"/>
  <clipPath>
   <rect y="6" x="6" rx="6" height="84" width="84" fill="#fff"/>
  </clipPath>
  <linearGradient xlink:href="#1" gradientUnits="userSpaceOnUse" gradientTransform="scale(1.0058652,0.994169)" y1="92.5396" x2="0" y2="7.01654"/>
  <linearGradient gradientUnits="userSpaceOnUse" xlink:href="#0" y2="138.66119" x2="0" y1="20.220806"/>
  <clipPath>
   <rect y="6" x="6" rx="6" height="84" width="84" fill="#fff"/>
  </clipPath>
  <linearGradient xlink:href="#1" gradientUnits="userSpaceOnUse" gradientTransform="scale(1.0058652,0.994169)" y1="92.5396" x2="0" y2="7.01654"/>
  <linearGradient y2="7.01654" x2="0" y1="92.5396" gradientTransform="scale(1.0058652,0.994169)" gradientUnits="userSpaceOnUse" xlink:href="#1"/>
  <linearGradient xlink:href="#1" gradientUnits="userSpaceOnUse" gradientTransform="matrix(1.0058652,0,0,0.994169,-1119.8664,578.0818)" y1="92.5396" x2="0" y2="7.01654"/>
  <linearGradient y2="7.01654" x2="0" y1="92.5396" gradientTransform="scale(1.0058652,0.994169)" gradientUnits="userSpaceOnUse" xlink:href="#1"/>
  <clipPath>
   <rect width="84" height="84" rx="6" x="6" y="6" fill="#fff"/>
  </clipPath>
  <linearGradient y1="20.220806" x2="0" y2="138.66119" xlink:href="#0" gradientUnits="userSpaceOnUse"/>
  <linearGradient gradientUnits="userSpaceOnUse" xlink:href="#0" y2="138.66119" x2="0" y1="20.220806"/>
  <clipPath>
   <rect y="6" x="6" rx="6" height="84" width="84" fill="#fff"/>
  </clipPath>
  <linearGradient xlink:href="#1" gradientUnits="userSpaceOnUse" gradientTransform="scale(1.0058652,0.994169)" y1="92.5396" x2="0" y2="7.01654"/>
  <linearGradient y2="7.01654" x2="0" y1="92.5396" gradientTransform="scale(1.0058652,0.994169)" gradientUnits="userSpaceOnUse" xlink:href="#1"/>
  <linearGradient y2="138.66119" x2="0" y1="20.220806" gradientUnits="userSpaceOnUse" xlink:href="#0"/>
  <clipPath>
   <rect width="84" height="84" rx="6" x="6" y="6" fill="#fff"/>
  </clipPath>
  <linearGradient y2="7.01654" x2="0" y1="92.5396" gradientTransform="scale(1.0058652,0.994169)" gradientUnits="userSpaceOnUse" xlink:href="#1"/>
  <linearGradient id="2">
   <stop stop-color="#a94870"/>
   <stop offset="1" stop-color="#924565"/>
  </linearGradient>
  <linearGradient xlink:href="#1" gradientUnits="userSpaceOnUse" gradientTransform="matrix(1.0058652,0,0,0.994169,-982.48563,786.17323)" y1="92.5396" x2="0" y2="7.01654"/>
  <linearGradient xlink:href="#2" id="3" gradientUnits="userSpaceOnUse" y1="952.38916" x2="0" y2="733.35577" gradientTransform="matrix(1.1806376,0,0,1.1806376,580.97054,-122.6244)"/>
  <linearGradient xlink:href="#2" id="4" gradientUnits="userSpaceOnUse" y1="952.38916" x2="0" y2="733.35577" gradientTransform="matrix(1.1806376,0,0,1.1806376,580.97054,-25.01466)"/>
 </defs>
 <g transform="translate(0,-540.36217)">
  <text y="1089.8812" x="-1160.4812" font-family="Gentium Book Basic" word-spacing="0" line-height="125%" letter-spacing="0" font-size="208.33333"><tspan y="1089.8812" x="-1160.4812"/>
  </text>
  <text transform="scale(4.0128362,0.2492003)" font-size="75.69771" y="3810.6255" x="28.533577" font-family="Arial" text-anchor="middle"/>
  <text y="1089.8812" x="-1160.4812" font-family="Gentium Book Basic" word-spacing="0" line-height="125%" letter-spacing="0" font-size="208.33333"><tspan y="1089.8812" x="-1160.4812"/>
  </text>
  <text transform="scale(4.0128362,0.2492003)" font-size="75.69771" y="3810.6255" x="28.533577" font-family="Arial" text-anchor="middle"/>
  <path d="m 256 546.36217 c -1.74354 0 -3.48375 0.027 -5.21875 0.0625 1.735 -0.0355 3.47521 -0.0625 5.21875 -0.0625 z m -19.4375 0.75 c -0.99175 0.0763 -1.98028 0.16214 -2.96875 0.25 0.98876 -0.0879 1.97671 -0.17366 2.96875 -0.25 z M 176 559.45592 c -1.08578 0.36681 -2.17096 0.74373 -3.25 1.125 1.0822 -0.38247 2.16101 -0.75707 3.25 -1.125 z m 58.625 42.71875 c -62.44705 6.77928 -116.01416 42.99454 -146.65624 94.46875 -17.389289 29.21145 -27.4375 63.31757 -27.4375 99.78125 0 107.91544 87.49078 195.40625 195.40624 195.40625 100.70352 0 183.64801 -76.18572 194.28125 -174.0625 L 234.625 602.17467 z M 58.03126 643.76842 c -0.766647 0.99326 -1.529283 1.99497 -2.28125 3 0.752493 -1.00574 1.514057 -2.00603 2.28125 -3 z m -2.28125 3 c -0.751748 1.00473 -1.481834 2.01492 -2.21875 3.03125 0.737633 -1.01736 1.466257 -2.02551 2.21875 -3.03125 z M 505.6875 808.83092 c -0.0676 1.37795 -0.1601 2.753 -0.25 4.125 0.0899 -1.372 0.18236 -2.74705 0.25 -4.125 z m -0.25 4.125 c -0.1334 2.03653 -0.28688 4.07082 -0.46875 6.09375 0.18225 -2.02617 0.33514 -4.05394 0.46875 -6.09375 z m -0.46875 6.09375 c -0.18187 2.02293 -0.39523 4.0225 -0.625 6.03125 0.22942 -2.00553 0.44333 -4.01158 0.625 -6.03125 z m -0.625 6.03125 c -0.22376 1.95622 -0.45011 3.93277 -0.71875 5.875 0.27023 -1.95187 0.49385 -3.909 0.71875 -5.875 z m -0.78125 6.25 c -0.26856 1.9201 -0.56309 3.8129 -0.875 5.71875 0.31119 -1.90057 0.60693 -3.80402 0.875 -5.71875 z m -0.875 5.71875 c -0.27582 1.68532 -0.56566 3.35745 -0.875 5.03125 0.30866 -1.66987 0.59971 -3.34992 0.875 -5.03125 z m -2.5 13.0625 c -0.3091 1.41105 -0.63593 2.81673 -0.96875 4.21875 0.33273 -1.40132 0.65973 -2.8084 0.96875 -4.21875 z m -1.1875 5.125 c -0.88226 3.65533 -1.83409 7.28431 -2.875 10.875 1.04214 -3.59359 1.9918 -7.21666 2.875 -10.875 z m -2.875 10.875 c -0.54885 1.89327 -1.12663 3.78179 -1.71875 5.65625 0.59206 -1.8737 1.16993 -3.76376 1.71875 -5.65625 z m -1.71875 5.65625 c -1.77635 5.62339 -3.75088 11.15005 -5.90625 16.59375 2.15675 -5.44528 4.12881 -10.96867 5.90625 -16.59375 z M 488.5 888.36217 c -0.71846 1.81457 -1.45933 3.61281 -2.21875 5.40625 0.75706 -1.78767 1.50238 -3.5976 2.21875 -5.40625 z m -7.15625 16.375 c -1.52596 3.16818 -3.12734 6.28278 -4.78125 9.375 1.65194 -3.08779 3.2569 -6.21146 4.78125 -9.375 z m -7.9375 15.09375 c -0.8537 1.50021 -1.7101 2.98815 -2.59375 4.46875 0.88363 -1.48035 1.74006 -2.9688 2.59375 -4.46875 z m -6.125 10.21875 c -0.97174 1.53273 -1.96482 3.05261 -2.96875 4.5625 1.00387 -1.50955 1.99706 -3.03012 2.96875 -4.5625 z m -2.96875 4.5625 c -0.89202 1.34158 -1.80167 2.67681 -2.71875 4 0.91817 -1.32449 1.82569 -2.65708 2.71875 -4 z m -3.625 5.3125 c -0.98151 1.39709 -1.99082 2.78037 -3 4.15625 1.00948 -1.37599 2.0182 -2.75904 3 -4.15625 z m -3 4.15625 c -1.1372 1.55041 -2.29695 3.10207 -3.46875 4.625 1.17626 -1.52816 2.32733 -3.06917 3.46875 -4.625 z m -3.46875 4.625 c -1.03585 1.34625 -2.09378 2.67566 -3.15625 4 1.06252 -1.32394 2.12033 -2.65417 3.15625 -4 z m -11.375 13.71875 c -0.9123 1.02598 -1.82117 2.05176 -2.75 3.0625 0.92769 -1.00925 1.8388 -2.03806 2.75 -3.0625 z m -4.40625 4.875 c -0.9991 1.0661 -2.0138 2.1078 -3.03125 3.15625 1.01546 -1.0463 2.03406 -2.09237 3.03125 -3.15625 z m -3.03125 3.15625 c -1.33613 1.37684 -2.69524 2.74787 -4.0625 4.09375 1.37249 -1.35069 2.72137 -2.71189 4.0625 -4.09375 z m -21.28125 19.5625 c -1.45264 1.18771 -2.92665 2.34461 -4.40625 3.5 1.47555 -1.15216 2.9575 -2.31571 4.40625 -3.5 z m -4.40625 3.5 c -2.73481 2.13556 -5.51947 4.22748 -8.34375 6.25 2.82886 -2.02542 5.60462 -4.1112 8.34375 -6.25 z m -18.8125 13.34378 c -1.06397 0.6833 -2.14382 1.3637 -3.21875 2.0312 1.07683 -0.6687 2.15291 -1.3467 3.21875 -2.0312 z m -47.625 23.8437 c -1.40723 0.5244 -2.8309 1.0316 -4.25 1.5313 1.42213 -0.5006 2.83978 -1.0058 4.25 -1.5313 z m -4.84375 1.75 c -1.41069 0.4927 -2.8279 0.9384 -4.25 1.4063 1.41883 -0.4668 2.84251 -0.9149 4.25 -1.4063 z m -12.03125 3.8438 c -1.2049 0.3529 -2.41263 0.696 -3.625 1.0312 1.21078 -0.3348 2.42167 -0.6787 3.625 -1.0312 z m -41.5625 8.4062 c -1.40517 0.1615 -2.80658 0.3307 -4.21875 0.4688 1.41142 -0.138 2.81431 -0.3074 4.21875 -0.4688 z m -12.0625 1.0938 c -2.37451 0.1574 -4.76405 0.2843 -7.15625 0.375 2.38911 -0.091 4.78477 -0.2179 7.15625 -0.375 z" fill="#fff8eb" fill-rule="evenodd"/>
  <text y="1089.8812" x="-1160.4812" font-family="Gentium Book Basic" word-spacing="0" line-height="125%" letter-spacing="0" font-size="208.33333"><tspan y="1089.8812" x="-1160.4812"/>
  </text>
  <text transform="scale(4.0128362,0.2492003)" font-size="75.69771" y="3810.6255" x="28.533577" font-family="Arial" text-anchor="middle"/>
  <path d="m 248.57143 282 c 0 56.01745 -44.45172 101.42857 -99.28571 101.42857 -54.833984 0 -99.28571 -45.41112 -99.28571 -101.42857 0 -56.01745 44.45173 -101.42857 99.28571 -101.42857 54.83399 0 99.28571 45.41112 99.28571 101.42857 z" transform="matrix(2.5179856,0,0,2.4647887,-119.8993,101.29176)" fill="#949494"/>
  <path d="m 157.6875 574.61217 c -0.96552 0.42866 -1.91617 0.87165 -2.875 1.3125 0.9546 -0.43886 1.91376 -0.88572 2.875 -1.3125 z" fill="#fff8eb"/>
  <path d="m 354.3125 574.61217 c 0.96124 0.42678 1.9204 0.87364 2.875 1.3125 -0.95883 -0.44085 -1.90948 -0.88384 -2.875 -1.3125 z" fill="#fff8eb"/>
  <path d="m 122.0625 594.17467 c -1.02032 0.67721 -2.02186 1.37034 -3.03125 2.0625 1.00657 -0.69029 2.01382 -1.38708 3.03125 -2.0625 z" fill="#fff8eb"/>
  <path d="m 389.9375 594.17467 c 1.01743 0.67542 2.02468 1.37221 3.03125 2.0625 -1.00939 -0.69216 -2.01093 -1.38529 -3.03125 -2.0625 z" fill="#fff8eb"/>
  <path d="m 74.18752 635.92467 c -0.711858 0.80605 -1.423749 1.62196 -2.125 2.4375 0.702518 -0.81721 1.411835 -1.62981 2.125 -2.4375 z" fill="#fff8eb"/>
  <path d="m 437.8125 635.92467 c 0.71317 0.80769 1.42248 1.62029 2.125 2.4375 -0.70125 -0.81554 -1.41314 -1.63145 -2.125 -2.4375 z" fill="#fff8eb"/>
  <path d="m 52.00001 665.20592 c -3.436943 5.33564 -6.668745 10.82576 -9.6875 16.4375 l 427.37498 0 c -3.01875 -5.61174 -6.25056 -11.10186 -9.6875 -16.4375 l -407.99998 0 z" fill="#fff8eb"/>
  <path d="m 41.968765 682.33092 c -0.82387 1.54326 -1.646258 3.0933 -2.4375 4.65625 0.793035 -1.56381 1.613245 -3.11267 2.4375 -4.65625 z" fill="#fff8eb"/>
  <path d="m 470.03125 682.33092 c 0.82425 1.54358 1.64446 3.09244 2.4375 4.65625 -0.79124 -1.56295 -1.61363 -3.11299 -2.4375 -4.65625 z" fill="#fff8eb"/>
  <path d="m 38.37501 689.26842 c -0.710472 1.44093 -1.411231 2.88684 -2.09375 4.34375 0.683023 -1.45388 1.383251 -2.90589 2.09375 -4.34375 z" fill="#fff8eb"/>
  <path d="m 35.906265 694.45592 c -0.430589 0.9284 -0.862108 1.84654 -1.28125 2.78125 0.421122 -0.93656 0.84856 -1.851 1.28125 -2.78125 z" fill="#fff8eb"/>
  <path d="m 30.531265 706.89342 c -10.996771 27.68512 -17.03125 57.86662 -17.03125 89.46875 0 133.92906 108.57094 242.50003 242.49999 242.50003 133.92905 0 242.5 -108.57097 242.5 -242.50003 0 -31.60213 -6.03448 -61.78363 -17.03125 -89.46875 l -450.93748 0 z" fill="#fff8eb"/>
  <path d="m 256 553.86217 c -85.61144 0 -160.84702 44.35145 -203.99999 111.34375 l 407.99999 0 C 416.84704 598.21362 341.61144 553.86217 256 553.86217 z M 42.31251 681.64342 c -4.381613 8.14524 -8.337366 16.57979 -11.78125 25.25 l 450.93748 0 c -3.44388 -8.67021 -7.39964 -17.10476 -11.78125 -25.25 l -427.37498 0 z" fill="#924565"/>
  <g transform="matrix(1.0935847,0,0,1.0935847,653.21317,-50.636187)">
   <path d="m -497.78661 634.57456 c 41.34013 -12.1716 71.81793 -9.04493 94.0062 9.32558 22.86825 -22.86454 68.59484 -28.57759 82.88548 -25.72415 -41.77283 -19.60807 -76.93877 -6.32255 -85.14548 3.83631 -23.05369 -12.50418 -77.45555 -7.44389 -91.7462 12.56226 z" fill="#fff8eb"/>
   <path d="m -391.49138 584.24638 c 29.60374 -3.65335 54.93719 -0.60209 71.33331 12.15673 18.70182 -10.93278 53.95554 -10.68551 64.72267 -8.03732 -38.04903 -13.90365 -56.4455 -9.02142 -65.64498 -5.13444 -24.39633 -9.28106 -48.62082 -12.40526 -70.411 1.01503 z" fill="#fff8eb"/>
  </g>
  <text y="1126.3352" x="-1190.3798" font-family="Gentium Book Basic" word-spacing="0" line-height="125%" letter-spacing="0" font-size="208.33333"><tspan y="1126.3352" x="-1190.3798"/>
  </text>
  <text transform="scale(4.0128362,0.2492003)" font-size="75.69771" y="3956.9089" x="21.08283" font-family="Arial" text-anchor="middle"/>
  <text y="358.38342" x="-1838.1462" font-family="Gentium Book Basic" word-spacing="0" line-height="125%" letter-spacing="0" font-size="208.33333"><tspan y="358.38342" x="-1838.1462"/>
  </text>
  <text transform="scale(4.0128362,0.2492003)" font-size="75.69771" y="875.24457" x="-140.34076" font-family="Arial" text-anchor="middle"/>
  <text y="202.75159" x="-1131.8051" font-family="Gentium Book Basic" word-spacing="0" line-height="125%" letter-spacing="0" font-size="208.33333"><tspan y="202.75159" x="-1131.8051"/>
  </text>
  <text transform="scale(4.0128362,0.2492003)" font-size="75.69771" y="250.71971" x="35.679684" font-family="Arial" text-anchor="middle"/>
  <path d="M 108.34375 203.78125 L 108.34375 217.53125 L 173.03125 217.53125 L 173.03125 203.78125 L 108.34375 203.78125 z M 182.125 203.78125 L 182.125 217.53125 L 195.0625 217.53125 C 209.53958 212.36844 229.091 208.81063 251.125 207.6875 L 251.125 203.78125 L 182.125 203.78125 z M 260.5625 203.78125 L 260.5625 207.34375 C 262.35716 207.31105 264.18055 207.3125 266 207.3125 C 290.33153 207.3125 312.54136 210.25422 329.53125 215.15625 L 329.53125 203.78125 L 260.5625 203.78125 z M 338.6875 203.78125 L 338.6875 217.53125 L 403.65625 217.53125 L 403.65625 203.78125 L 338.6875 203.78125 z M 108.34375 226.75 L 108.34375 245.125 L 168.8125 245.125 L 169.375 240.65625 C 169.3125 240.18555 169.3125 239.69453 169.3125 239.21875 C 169.3125 236.17832 170.63088 233.25409 173.03125 230.46875 L 173.03125 226.75 L 108.34375 226.75 z M 355 226.75 C 359.75469 230.44675 362.46351 234.49464 362.65625 238.75 L 362.75 238.75 L 363.46875 245.125 L 403.65625 245.125 L 403.65625 226.75 L 355 226.75 z M 108.34375 253.9375 L 108.34375 272.34375 L 166.78125 272.34375 L 166.78125 259.65625 C 166.78125 257.80812 167.1099 256.00806 167.6875 254.21875 L 167.71875 253.9375 L 108.34375 253.9375 z M 364.46875 253.9375 L 364.625 255.3125 C 364.99564 256.74797 365.21875 258.185 365.21875 259.65625 L 365.21875 272.34375 L 403.65625 272.34375 L 403.65625 253.9375 L 364.46875 253.9375 z M 108.34375 282 L 108.34375 300.40625 L 166.96875 300.40625 L 166.96875 292.34375 C 166.85871 291.52971 166.78125 290.70061 166.78125 289.875 L 166.78125 282 L 108.34375 282 z M 365.21875 282 L 365.21875 289.875 C 365.21875 290.36048 365.1633 290.8309 365.125 291.3125 L 365.125 300.40625 L 403.65625 300.40625 L 403.65625 282 L 365.21875 282 z M 108.34375 309.1875 L 108.34375 327.59375 L 166.78125 327.59375 L 166.78125 320.5 C 166.78125 319.71441 166.85857 318.9663 166.96875 318.1875 L 166.96875 309.1875 L 108.34375 309.1875 z M 365.125 309.1875 L 365.125 319.25 C 365.16 319.68328 365.21875 320.06488 365.21875 320.5 L 365.21875 327.59375 L 403.65625 327.59375 L 403.65625 309.1875 L 365.125 309.1875 z M 108.34375 337.4375 L 108.34375 355.8125 L 166.96875 355.8125 L 166.96875 353.15625 C 166.85871 352.34163 166.78125 351.51394 166.78125 350.6875 L 166.78125 337.4375 L 108.34375 337.4375 z M 365.21875 337.4375 L 365.21875 350.6875 C 365.21875 351.17346 365.1633 351.64302 365.125 352.125 L 365.125 355.8125 L 403.65625 355.8125 L 403.65625 337.4375 L 365.21875 337.4375 z M 108.34375 364.625 L 108.34375 383.03125 L 166.78125 383.03125 L 166.78125 382.8125 C 166.78125 382.0217 166.85857 381.27615 166.96875 380.5 L 166.96875 364.625 L 108.34375 364.625 z M 365.125 364.625 L 365.125 381.53125 C 365.16 381.96476 365.21875 382.37447 365.21875 382.8125 L 365.21875 383.03125 L 403.65625 383.03125 L 403.65625 364.625 L 365.125 364.625 z M 108.34375 392.6875 L 108.34375 411.09375 L 166.78125 411.09375 L 166.78125 392.6875 L 108.34375 392.6875 z M 365.21875 392.6875 L 365.21875 411.09375 L 403.65625 411.09375 L 403.65625 392.6875 L 365.21875 392.6875 z M 108.34375 419.875 L 108.34375 438.28125 L 173.03125 438.28125 L 173.03125 427.84375 C 170.79312 425.29774 169.14309 422.62771 168.09375 419.875 L 108.34375 419.875 z M 363.90625 419.875 C 361.2944 426.70367 354.84248 432.97211 345.5 438.28125 L 403.65625 438.28125 L 403.65625 419.875 L 363.90625 419.875 z M 182.125 435.59375 L 182.125 438.28125 L 186.5 438.28125 C 184.96105 437.40719 183.50375 436.51848 182.125 435.59375 z M 108.34375 447.5 L 108.34375 448.34375 C 114.2943 452.9185 120.44368 457.23337 126.8125 461.25 L 173.03125 461.25 L 173.03125 447.5 L 108.34375 447.5 z M 182.125 447.5 L 182.125 461.25 L 251.125 461.25 L 251.125 454.71875 C 235.55018 453.72289 221.1695 451.1996 208.84375 447.5 L 182.125 447.5 z M 323.1875 447.5 C 307.02217 452.35407 287.29776 455.21875 266 455.21875 C 264.17689 455.21875 262.36156 455.2293 260.5625 455.1875 L 260.5625 461.25 L 329.53125 461.25 L 329.53125 447.5 L 323.1875 447.5 z M 338.6875 447.5 L 338.6875 461.25 L 385.1875 461.25 C 391.55632 457.23337 397.7057 452.9185 403.65625 448.34375 L 403.65625 447.5 L 338.6875 447.5 z" transform="translate(0,540.36217)" fill="url(#4)"/>
  <path d="m 265.98659 759.88482 c -48.13904 0 -87.15478 12.89475 -87.15478 28.80212 0 15.90737 39.01574 28.80214 87.15478 28.80214 48.13906 0 87.15479 -12.89477 87.15479 -28.80214 0 -15.90737 -39.01573 -28.80212 -87.15479 -28.80212 z m -86.95067 38.50866 c -1.55321 2.7937 -2.472 5.71692 -2.472 8.70867 l 0 27.21462 c 0 21.01524 40.0744 38.10045 89.42267 38.10045 49.38997 0 89.44536 -17.09565 89.44536 -38.10045 l 0 -27.21462 c 0 -2.99175 -0.91697 -5.91497 -2.44932 -8.70867 -1.70956 15.39658 -39.96196 27.71355 -86.99604 27.71355 -47.0341 0 -85.22025 -12.31697 -86.95067 -27.71355 z m 0.24947 54.40655 c -1.70957 2.90836 -2.72147 6.00189 -2.72147 9.13957 l 0 27.19193 c 0 21.03607 40.0744 38.05509 89.42267 38.05509 49.38997 0 89.44536 -17.02944 89.44536 -38.05509 l 0 -27.19193 c 0 -3.13768 -1.03273 -6.23121 -2.72147 -9.13957 -9.60071 16.63706 -44.71427 28.96087 -86.72389 28.96087 -41.97835 0 -77.11092 -12.33424 -86.7012 -28.96087 z m 0 56.22084 c -1.70957 2.90836 -2.72147 5.93568 -2.72147 9.09422 l 0 27.23728 c 0 21.01524 40.0744 38.00974 89.42267 38.00974 49.38997 0 89.44536 -17.00492 89.44536 -38.00974 l 0 -27.23728 c 0 -3.15854 -1.03273 -6.18586 -2.72147 -9.09422 -9.60071 16.60579 -44.71427 28.91552 -86.72389 28.91552 -41.97835 0 -77.11092 -12.30973 -86.7012 -28.91552 z" fill="url(#3)"/>
 </g>
</svg>
