<svg xmlns="http://www.w3.org/2000/svg" xmlns:xlink="http://www.w3.org/1999/xlink" width="512" height="512">
 <defs>
  <linearGradient y2="7.01654" x2="0" y1="92.5396" gradientTransform="scale(1.0058652,0.994169)" gradientUnits="userSpaceOnUse" xlink:href="#1"/>
  <filter x="-0.192" y="-0.192" width="1.384" height="1.384" color-interpolation-filters="sRGB">
   <feGaussianBlur stdDeviation="5.28"/>
  </filter>
  <clipPath>
   <rect width="84" height="84" rx="6" x="6" y="6" fill="#fff"/>
  </clipPath>
  <linearGradient id="0">
   <stop stop-color="#fff"/>
   <stop offset="1" stop-color="#fff" stop-opacity="0"/>
  </linearGradient>
  <linearGradient y1="20.220806" x2="0" y2="138.66119" xlink:href="#0" gradientUnits="userSpaceOnUse"/>
  <filter color-interpolation-filters="sRGB">
   <feGaussianBlur stdDeviation="1.71"/>
  </filter>
  <linearGradient y1="92.5396" x2="0" y2="7.01654" id="1" gradientUnits="userSpaceOnUse" gradientTransform="scale(1.0058652,0.994169)">
   <stop/>
   <stop offset="1" stop-opacity="0.588235"/>
  </linearGradient>
  <linearGradient y2="7.01654" x2="0" y1="92.5396" gradientTransform="scale(1.0058652,0.994169)" gradientUnits="userSpaceOnUse" xlink:href="#1"/>
  <clipPath>
   <rect width="84" height="84" rx="6" x="6" y="6" fill="#fff"/>
  </clipPath>
  <linearGradient y1="20.220806" x2="0" y2="138.66119" xlink:href="#0" gradientUnits="userSpaceOnUse"/>
  <linearGradient y2="7.01654" x2="0" y1="92.5396" gradientTransform="scale(1.0058652,0.994169)" gradientUnits="userSpaceOnUse" xlink:href="#1"/>
  <linearGradient xlink:href="#1" gradientUnits="userSpaceOnUse" gradientTransform="scale(1.0058652,0.994169)" y1="92.5396" x2="0" y2="7.01654"/>
  <linearGradient gradientUnits="userSpaceOnUse" xlink:href="#0" y2="138.66119" x2="0" y1="20.220806"/>
  <clipPath>
   <rect y="6" x="6" rx="6" height="84" width="84" fill="#fff"/>
  </clipPath>
  <linearGradient xlink:href="#1" gradientUnits="userSpaceOnUse" gradientTransform="scale(1.0058652,0.994169)" y1="92.5396" x2="0" y2="7.01654"/>
  <linearGradient id="2">
   <stop stop-color="#d5d5d5"/>
   <stop offset="1" stop-color="#e3e3e3"/>
  </linearGradient>
  <linearGradient y2="7.01654" x2="0" y1="92.5396" gradientTransform="scale(1.0058652,0.994169)" gradientUnits="userSpaceOnUse" xlink:href="#1"/>
  <linearGradient xlink:href="#2" id="3" gradientUnits="userSpaceOnUse" gradientTransform="matrix(1.0663798,0,0,0.9616455,8.556866,32.106717)" y1="80" x2="0" y2="16"/>
 </defs>
 <g transform="translate(0,-540.36217)">
  <text y="1089.8812" x="-1160.4812" font-family="Gentium Book Basic" word-spacing="0" line-height="125%" letter-spacing="0" font-size="208.33333"><tspan y="1089.8812" x="-1160.4812"/>
  </text>
  <text transform="scale(4.0128362,0.2492003)" font-size="75.69771" y="3810.6255" x="28.533577" font-family="Arial" text-anchor="middle"/>
  <path d="m 256 546.36217 c -1.74354 0 -3.48375 0.027 -5.21875 0.0625 1.735 -0.0355 3.47521 -0.0625 5.21875 -0.0625 z m -19.4375 0.75 c -0.99175 0.0763 -1.98028 0.16214 -2.96875 0.25 0.98876 -0.0879 1.97671 -0.17366 2.96875 -0.25 z M 176 559.45592 c -1.08578 0.36681 -2.17096 0.74373 -3.25 1.125 1.0822 -0.38247 2.16101 -0.75707 3.25 -1.125 z m 58.625 42.71875 c -62.44705 6.77928 -116.01416 42.99454 -146.65624 94.46875 -17.389289 29.21145 -27.4375 63.31757 -27.4375 99.78125 0 107.91544 87.49078 195.40625 195.40624 195.40625 100.70352 0 183.64801 -76.18572 194.28125 -174.0625 L 234.625 602.17467 z M 58.03126 643.76842 c -0.766647 0.99326 -1.529283 1.99497 -2.28125 3 0.752493 -1.00574 1.514057 -2.00603 2.28125 -3 z m -2.28125 3 c -0.751748 1.00473 -1.481834 2.01492 -2.21875 3.03125 0.737633 -1.01736 1.466257 -2.02551 2.21875 -3.03125 z m 449.93749 162.0625 c -0.0676 1.37795 -0.1601 2.753 -0.25 4.125 0.0899 -1.372 0.18236 -2.74705 0.25 -4.125 z m -0.25 4.125 c -0.1334 2.03653 -0.28688 4.07082 -0.46875 6.09375 0.18225 -2.02617 0.33514 -4.05394 0.46875 -6.09375 z m -0.46875 6.09375 c -0.18187 2.02293 -0.39523 4.0225 -0.625 6.03125 0.22942 -2.00553 0.44333 -4.01158 0.625 -6.03125 z m -0.625 6.03125 c -0.22376 1.95622 -0.45011 3.93277 -0.71875 5.875 0.27023 -1.95187 0.49385 -3.909 0.71875 -5.875 z m -0.78125 6.25 c -0.26856 1.9201 -0.56309 3.8129 -0.875 5.71875 0.31119 -1.90057 0.60693 -3.80402 0.875 -5.71875 z m -0.875 5.71875 c -0.27582 1.68532 -0.56566 3.35745 -0.875 5.03125 0.30866 -1.66987 0.59971 -3.34992 0.875 -5.03125 z m -2.5 13.0625 c -0.3091 1.41105 -0.63593 2.81673 -0.96875 4.21875 0.33273 -1.40132 0.65973 -2.8084 0.96875 -4.21875 z m -1.1875 5.125 c -0.88226 3.65533 -1.83409 7.28431 -2.875 10.875 1.04214 -3.59359 1.9918 -7.21666 2.875 -10.875 z m -2.875 10.875 c -0.54885 1.89327 -1.12663 3.78179 -1.71875 5.65625 0.59206 -1.8737 1.16993 -3.76376 1.71875 -5.65625 z m -1.71875 5.65625 c -1.77635 5.62339 -3.75088 11.15005 -5.90625 16.59375 2.15675 -5.44528 4.12881 -10.96867 5.90625 -16.59375 z M 488.5 888.36217 c -0.71846 1.81457 -1.45933 3.61281 -2.21875 5.40625 0.75706 -1.78767 1.50238 -3.5976 2.21875 -5.40625 z m -7.15625 16.375 c -1.52596 3.16818 -3.12734 6.28278 -4.78125 9.375 1.65194 -3.08779 3.2569 -6.21146 4.78125 -9.375 z m -7.9375 15.09375 c -0.8537 1.50021 -1.7101 2.98815 -2.59375 4.46875 0.88363 -1.48035 1.74006 -2.9688 2.59375 -4.46875 z m -6.125 10.21875 c -0.97174 1.53273 -1.96482 3.05261 -2.96875 4.5625 1.00387 -1.50955 1.99706 -3.03012 2.96875 -4.5625 z m -2.96875 4.5625 c -0.89202 1.34158 -1.80167 2.67681 -2.71875 4 0.91817 -1.32449 1.82569 -2.65708 2.71875 -4 z m -3.625 5.3125 c -0.98151 1.39709 -1.99082 2.78037 -3 4.15625 1.00948 -1.37599 2.0182 -2.75904 3 -4.15625 z m -3 4.15625 c -1.1372 1.55041 -2.29695 3.10207 -3.46875 4.625 1.17626 -1.52816 2.32733 -3.06917 3.46875 -4.625 z m -3.46875 4.625 c -1.03585 1.34625 -2.09378 2.67566 -3.15625 4 1.06252 -1.32394 2.12033 -2.65417 3.15625 -4 z m -11.375 13.71875 c -0.9123 1.02598 -1.82117 2.05176 -2.75 3.0625 0.92769 -1.00925 1.8388 -2.03806 2.75 -3.0625 z m -4.40625 4.875 c -0.9991 1.0661 -2.0138 2.1078 -3.03125 3.15625 1.01546 -1.0463 2.03406 -2.09237 3.03125 -3.15625 z m -3.03125 3.15625 c -1.33613 1.37684 -2.69524 2.74787 -4.0625 4.09375 1.37249 -1.35069 2.72137 -2.71189 4.0625 -4.09375 z m -21.28125 19.5625 c -1.45264 1.18771 -2.92665 2.34461 -4.40625 3.5 1.47555 -1.15216 2.9575 -2.31571 4.40625 -3.5 z m -4.40625 3.5 c -2.73481 2.13556 -5.51947 4.22748 -8.34375 6.25 2.82886 -2.02542 5.60462 -4.1112 8.34375 -6.25 z m -18.8125 13.34378 c -1.06397 0.6833 -2.14382 1.3637 -3.21875 2.0312 1.07683 -0.6687 2.15291 -1.3467 3.21875 -2.0312 z m -47.625 23.8437 c -1.40723 0.5244 -2.8309 1.0316 -4.25 1.5313 1.42213 -0.5006 2.83978 -1.0058 4.25 -1.5313 z m -4.84375 1.75 c -1.41069 0.4927 -2.8279 0.9384 -4.25 1.4063 1.41883 -0.4668 2.84251 -0.9149 4.25 -1.4063 z m -12.03125 3.8438 c -1.2049 0.3529 -2.41263 0.696 -3.625 1.0312 1.21078 -0.3348 2.42167 -0.6787 3.625 -1.0312 z m -41.5625 8.4062 c -1.40517 0.1615 -2.80658 0.3307 -4.21875 0.4688 1.41142 -0.138 2.81431 -0.3074 4.21875 -0.4688 z m -12.0625 1.0938 c -2.37451 0.1574 -4.76405 0.2843 -7.15625 0.375 2.38911 -0.091 4.78477 -0.2179 7.15625 -0.375 z" fill="#fff8eb" fill-rule="evenodd"/>
  <text y="1089.8812" x="-1160.4812" font-family="Gentium Book Basic" word-spacing="0" line-height="125%" letter-spacing="0" font-size="208.33333"><tspan y="1089.8812" x="-1160.4812"/>
  </text>
  <text transform="scale(4.0128362,0.2492003)" font-size="75.69771" y="3810.6255" x="28.533577" font-family="Arial" text-anchor="middle"/>
  <path d="m 248.57143 282 a 99.28571 101.42857 0 1 1 -198.57142 0 99.28571 101.42857 0 1 1 198.57142 0 z" transform="matrix(2.5179856,0,0,2.4647887,-119.8993,101.29176)" fill="#949494"/>
  <path d="m 157.6875 574.61217 c -0.96552 0.42866 -1.91617 0.87165 -2.875 1.3125 0.9546 -0.43886 1.91376 -0.88572 2.875 -1.3125 z" fill="#fff8eb"/>
  <path d="m 354.3125 574.61217 c 0.96124 0.42678 1.9204 0.87364 2.875 1.3125 -0.95883 -0.44085 -1.90948 -0.88384 -2.875 -1.3125 z" fill="#fff8eb"/>
  <path d="m 122.0625 594.17467 c -1.02032 0.67721 -2.02186 1.37034 -3.03125 2.0625 1.00657 -0.69029 2.01382 -1.38708 3.03125 -2.0625 z" fill="#fff8eb"/>
  <path d="m 389.9375 594.17467 c 1.01743 0.67542 2.02468 1.37221 3.03125 2.0625 -1.00939 -0.69216 -2.01093 -1.38529 -3.03125 -2.0625 z" fill="#fff8eb"/>
  <path d="m 74.18751 635.92467 c -0.711858 0.80605 -1.423749 1.62196 -2.125 2.4375 0.702518 -0.81721 1.411835 -1.62981 2.125 -2.4375 z" fill="#fff8eb"/>
  <path d="m 437.8125 635.92467 c 0.71317 0.80769 1.42248 1.62029 2.125 2.4375 -0.70125 -0.81554 -1.41314 -1.63145 -2.125 -2.4375 z" fill="#fff8eb"/>
  <path d="m 52.00001 665.20592 c -3.436943 5.33564 -6.668745 10.82576 -9.6875 16.4375 l 427.37499 0 c -3.01875 -5.61174 -6.25056 -11.10186 -9.6875 -16.4375 l -407.99999 0 z" fill="#fff8eb"/>
  <path d="m 41.96876 682.33092 c -0.82387 1.54326 -1.646258 3.0933 -2.4375 4.65625 0.793035 -1.56381 1.613245 -3.11267 2.4375 -4.65625 z" fill="#fff8eb"/>
  <path d="m 470.03125 682.33092 c 0.82425 1.54358 1.64446 3.09244 2.4375 4.65625 -0.79124 -1.56295 -1.61363 -3.11299 -2.4375 -4.65625 z" fill="#fff8eb"/>
  <path d="m 38.37501 689.26842 c -0.710472 1.44093 -1.411231 2.88684 -2.09375 4.34375 0.683023 -1.45388 1.383251 -2.90589 2.09375 -4.34375 z" fill="#fff8eb"/>
  <path d="m 473.625 689.26842 c 0.7105 1.43786 1.41073 2.88987 2.09375 4.34375 -0.68252 -1.45691 -1.38328 -2.90282 -2.09375 -4.34375 z" fill="#fff8eb"/>
  <path d="m 35.90626 694.45592 c -0.430589 0.9284 -0.862108 1.84654 -1.28125 2.78125 0.421122 -0.93656 0.84856 -1.851 1.28125 -2.78125 z" fill="#fff8eb"/>
  <path d="m 476.09375 694.45592 c 0.43269 0.93025 0.86013 1.84469 1.28125 2.78125 -0.41914 -0.93471 -0.85066 -1.85285 -1.28125 -2.78125 z" fill="#fff8eb"/>
  <path d="m 30.53126 706.89342 c -10.996771 27.68512 -17.03125 57.86662 -17.03125 89.46875 0 133.92906 108.57094 242.50003 242.49999 242.50003 133.92905 0 242.5 -108.57097 242.5 -242.50003 0 -31.60213 -6.03448 -61.78363 -17.03125 -89.46875 l -450.93749 0 z" fill="#fff8eb"/>
  <path d="m 256 553.86217 c -85.61144 0 -160.84703 44.35145 -203.99999 111.34375 l 407.99999 0 C 416.84704 598.21362 341.61144 553.86217 256 553.86217 z M 42.31251 681.64342 c -4.381613 8.14524 -8.337366 16.57979 -11.78125 25.25 l 450.93749 0 c -3.44388 -8.67021 -7.39964 -17.10476 -11.78125 -25.25 l -427.37499 0 z" fill="#8db173"/>
  <g transform="matrix(1.0935847,0,0,1.0935847,653.21317,-50.636184)">
   <path d="m -497.78661 634.57456 c 41.34013 -12.1716 71.81793 -9.04493 94.0062 9.32558 22.86825 -22.86454 68.59484 -28.57759 82.88548 -25.72415 -41.77283 -19.60807 -76.93877 -6.32255 -85.14548 3.83631 -23.05369 -12.50418 -77.45555 -7.44389 -91.7462 12.56226 z" fill="#fff8eb"/>
   <path d="m -391.49138 584.24638 c 29.60374 -3.65335 54.93719 -0.60209 71.33331 12.15673 18.70182 -10.93278 53.95554 -10.68551 64.72267 -8.03732 -38.04903 -13.90365 -56.4455 -9.02142 -65.64498 -5.13444 -24.39633 -9.28106 -48.62082 -12.40526 -70.411 1.01503 z" fill="#fff8eb"/>
  </g>
  <g transform="matrix(4.0562732,0,0,4.0562732,-25.264041,555.41075)">
   <path d="m 43.747397 47.49304 0 6.731524 0 54.813784 8.531038 0 0 -53.852139 42.655185 0 0 -7.693169 -43.721565 0 -7.464658 0 z" fill="url(#3)" color="#000"/>
   <path opacity="0.6" fill="#82e60c" color="#000" d="M 72.5397,69.6109 H94.9336 V78.2657 H72.5397 z"/>
   <path opacity="0.3" fill="#8ff01b" color="#000" d="M 72.5397,55.1862 H94.9336 V69.6109 H72.5397 z"/>
   <path opacity="0.3" fill="#8ff01b" color="#000" d="M 52.2784,69.6109 H72.5396 V78.2657 H52.2784 z"/>
   <path d="m 51.21205 46.531397 0 7.693169 -8.531038 0 0 0.961645 8.531038 0 0 6.731512 -8.531038 0 0 0.961644 8.531038 0 0 6.731524 -8.531038 0 0 0.961645 8.531038 0 0 6.731511 -8.531038 0 0 0.961645 8.531038 0 0 6.731525 -8.531038 0 0 0.961644 8.531038 0 0 6.731524 -8.531038 0 0 0.961646 8.531038 0 0 6.731509 -8.531038 0 0 0.96165 8.531038 0 0 8.65481 1.06638 0 0 -8.65481 20.261213 0 0 8.65481 1.066379 0 0 -8.65481 22.393973 0 0 -0.96165 -22.393973 0 0 -6.731509 22.393973 0 0 -0.961646 -22.393973 0 0 -6.731524 22.393973 0 0 -0.961644 -22.393973 0 0 -6.731525 22.393973 0 0 -0.961645 -22.393973 0 0 -6.731511 22.393973 0 0 -0.961645 -22.393973 0 0 -6.731524 22.393973 0 0 -0.961644 -22.393973 0 0 -6.731512 22.393973 0 0 -0.961645 -22.393973 0 0 -7.693169 -1.066379 0 0 7.693169 -20.261213 0 0 -7.693169 -1.06638 0 z m 1.06638 8.654814 20.261213 0 0 6.731512 -20.261213 0 0 -6.731512 z m 0 7.693156 20.261213 0 0 6.731524 -20.261213 0 0 -6.731524 z m 0 7.693169 20.261213 0 0 6.731511 -20.261213 0 0 -6.731511 z m 0 7.693156 20.261213 0 0 6.731525 -20.261213 0 0 -6.731525 z m 0 7.693169 20.261213 0 0 6.731524 -20.261213 0 0 -6.731524 z m 0 7.69317 20.261213 0 0 6.731509 -20.261213 0 0 -6.731509 z" opacity="0.2" color="#000"/>
   <path d="m 42.681017 46.531397 0 0.48083 0 62.50695 0 0.48082 0.53319 0 52.25261 0 0.533184 0 0 -0.48082 0 -62.50695 0 -0.48083 -0.533184 0 -52.25261 0 -0.53319 0 z m 1.06638 0.961645 51.18622 0 0 61.54531 -51.18622 0 0 -61.54531 z" color="#000" fill="#808080"/>
   <path opacity="0.2" fill="#6e6e6e" color="#000" d="M 43.7474,69.6109 H52.2784 V78.2657 H43.7474 z"/>
   <path opacity="0.2" fill="#6e6e6e" color="#000" d="M 72.5397,46.5314 H94.9336 V55.1862 H72.5397 z"/>
   <path d="m 51.21289 21 -0.244141 -0.703125 -1.048828 0 L 49.675781 21 l -0.576172 0 1.00391 -2.751953 0.679687 0 1 2.751953 -0.570312 0 m -0.644532 -1.927734 c -0.01563 -0.04557 -0.03125 -0.09114 -0.04687 -0.136719 -0.01432 -0.04687 -0.02735 -0.08919 -0.03906 -0.126953 -0.01042 -0.03906 -0.01953 -0.07096 -0.02734 -0.0957 -0.0065 -0.02474 -0.01042 -0.03841 -0.01172 -0.04102 -0.0013 0.0039 -0.0052 0.01823 -0.01172 0.04297 -0.0065 0.02474 -0.01563 0.05599 -0.02734 0.09375 -0.01042 0.03776 -0.02344 0.08008 -0.03906 0.126953 -0.01432 0.04557 -0.0293 0.09115 -0.04492 0.136719 l -0.271484 0.791015 0.791016 0 -0.271485 -0.791015" transform="matrix(1.0663798,0,0,0.9616455,8.556866,32.106717)" fill="#4d4d4d"/>
   <path d="m 71.707031,20.214844 c -2e-6,0.139323 -0.028,0.259115 -0.08398,0.359375 -0.05599,0.09896 -0.132815,0.180339 -0.230469,0.24414 -0.09636,0.0625 -0.208986,0.108724 -0.337891,0.138672 C 70.925779,20.985677 70.789061,21 70.644531,21 l -1.376953,0 0,-2.751953 1.259766,0 c 0.162758,3e-6 0.30729,0.01433 0.433593,0.04297 0.127603,0.02735 0.235024,0.06966 0.322266,0.126953 0.08724,0.05729 0.152992,0.129559 0.197266,0.216797 0.04557,0.08594 0.06836,0.187502 0.06836,0.304687 -2e-6,0.156252 -0.04362,0.288413 -0.130859,0.396484 -0.08594,0.106773 -0.21745,0.179038 -0.394532,0.216797 0.222655,0.02604 0.391925,0.09636 0.507813,0.210938 0.117185,0.113282 0.175779,0.263673 0.175781,0.451172 M 70.96875,19.017578 c -2e-6,-0.123696 -0.03972,-0.211586 -0.119141,-0.263672 -0.07813,-0.05208 -0.194663,-0.07812 -0.349609,-0.07813 l -0.65625,0 0,0.681641 0.660156,0 c 0.162759,2e-6 0.280597,-0.02799 0.353516,-0.08398 0.07422,-0.05729 0.111326,-0.142576 0.111328,-0.255859 m 0.160156,1.152344 c -2e-6,-0.07292 -0.01432,-0.134114 -0.04297,-0.183594 -0.02865,-0.04948 -0.06836,-0.08919 -0.11914,-0.119141 -0.04948,-0.02995 -0.108075,-0.05143 -0.175781,-0.06445 -0.06641,-0.01302 -0.138674,-0.01953 -0.216797,-0.01953 l -0.730469,0 0,0.789063 0.751953,0 c 0.07552,0 0.145832,-0.0059 0.210938,-0.01758 0.0651,-0.01302 0.121091,-0.0345 0.167968,-0.06445 0.04818,-0.03125 0.08594,-0.07292 0.113282,-0.125 0.02734,-0.05208 0.04101,-0.117186 0.04102,-0.195312" transform="matrix(1.0663798,0,0,0.9616455,8.556866,32.106717)" fill="#4d4d4d"/>
   <path d="m 35.583984 29 0 -0.408203 0.681641 0 0 -1.876953 -0.660156 0.412109 0 -0.431641 0.689453 -0.447265 0.519531 0 0 2.34375 0.630859 0 0 0.408203 -1.861328 0" transform="matrix(1.0663798,0,0,0.9616455,8.556866,32.106717)" fill="#4d4d4d"/>
   <path d="m 35.470703,37 0,-0.380859 c 0.0625,-0.136719 0.138672,-0.259765 0.228516,-0.369141 0.08984,-0.110676 0.183593,-0.211588 0.28125,-0.302734 0.09896,-0.09245 0.196613,-0.177734 0.292968,-0.25586 0.09766,-0.07943 0.184895,-0.155597 0.261719,-0.228515 0.07812,-0.07422 0.141275,-0.148436 0.189453,-0.222657 0.04818,-0.07422 0.07227,-0.152993 0.07227,-0.236328 -10e-7,-0.122393 -0.0306,-0.212888 -0.0918,-0.271484 -0.0612,-0.05859 -0.151043,-0.08789 -0.269531,-0.08789 -0.117189,3e-6 -0.207032,0.0319 -0.269531,0.0957 -0.0612,0.0625 -0.100913,0.156904 -0.119141,0.283203 l -0.552734,-0.03125 c 0.01302,-0.10807 0.03971,-0.209633 0.08008,-0.304687 0.04036,-0.09505 0.09766,-0.178383 0.171875,-0.25 0.07552,-0.07161 0.16927,-0.127601 0.28125,-0.167969 0.11328,-0.04166 0.248046,-0.0625 0.404297,-0.0625 0.148436,3e-6 0.279946,0.01758 0.394531,0.05273 0.114582,0.03386 0.210936,0.08399 0.289062,0.15039 0.07812,0.06641 0.137368,0.147789 0.177735,0.244141 0.04036,0.09505 0.06054,0.203778 0.06055,0.326172 -2e-6,0.128908 -0.02539,0.245444 -0.07617,0.349609 -0.05078,0.104168 -0.115887,0.200522 -0.195313,0.289063 -0.07943,0.08724 -0.16797,0.169272 -0.265625,0.246093 -0.09636,0.07682 -0.190105,0.151694 -0.28125,0.22461 -0.09115,0.07292 -0.17448,0.146485 -0.25,0.220703 -0.07422,0.07422 -0.129558,0.153646 -0.166015,0.238281 l 1.277343,0 0,0.451172 -1.925781,0" transform="matrix(1.0663798,0,0,0.9616455,8.556866,32.106717)" fill="#4d4d4d"/>
   <path d="m 37.412109,44.236328 c -2e-6,0.125001 -0.02083,0.237631 -0.0625,0.337891 -0.04037,0.09896 -0.101564,0.183594 -0.183593,0.253906 -0.08203,0.07031 -0.184247,0.124349 -0.306641,0.162109 -0.121095,0.03646 -0.262371,0.05469 -0.423828,0.05469 -0.179689,0 -0.331381,-0.02279 -0.455078,-0.06836 -0.122397,-0.04557 -0.223308,-0.105468 -0.302735,-0.179687 -0.07813,-0.07552 -0.13737,-0.160807 -0.177734,-0.255859 -0.03906,-0.09505 -0.06445,-0.191406 -0.07617,-0.289063 l 0.558594,-0.04883 c 0.0078,0.05859 0.02213,0.112631 0.04297,0.162109 0.02213,0.04818 0.05143,0.08984 0.08789,0.125 0.03646,0.03516 0.08073,0.0625 0.132813,0.08203 0.05338,0.01823 0.115884,0.02734 0.1875,0.02734 0.131509,10e-7 0.233722,-0.03255 0.30664,-0.09766 0.07292,-0.0651 0.109374,-0.164713 0.109375,-0.298828 -10e-7,-0.08203 -0.01758,-0.147786 -0.05273,-0.197266 -0.03386,-0.04948 -0.07747,-0.08724 -0.130859,-0.113281 -0.05208,-0.02734 -0.108726,-0.04557 -0.169922,-0.05469 -0.0612,-0.0091 -0.119142,-0.01367 -0.173828,-0.01367 l -0.191407,0 0,-0.44336 0.179688,0 c 0.05469,2e-6 0.110025,-0.0052 0.166015,-0.01563 0.05729,-0.01042 0.108723,-0.02929 0.154297,-0.05664 0.04557,-0.02734 0.08268,-0.0651 0.111328,-0.113282 0.02864,-0.04948 0.04297,-0.111977 0.04297,-0.1875 -1e-6,-0.113279 -0.0319,-0.20182 -0.0957,-0.265625 -0.0625,-0.0651 -0.154298,-0.09765 -0.275391,-0.09766 -0.113282,3e-6 -0.205079,0.03125 -0.27539,0.09375 -0.06901,0.0625 -0.108725,0.151044 -0.119141,0.265625 l -0.548828,-0.03906 c 0.01563,-0.128904 0.05078,-0.240883 0.105469,-0.335938 0.05599,-0.09505 0.125651,-0.173825 0.208984,-0.236328 0.08463,-0.0625 0.18164,-0.108721 0.291016,-0.138672 0.109374,-0.03125 0.225259,-0.04687 0.347656,-0.04687 0.161457,3e-6 0.300129,0.01953 0.416016,0.05859 0.115884,0.03907 0.210936,0.0918 0.285156,0.158203 0.07422,0.06641 0.128904,0.143883 0.164062,0.232422 0.03515,0.08854 0.05273,0.182945 0.05273,0.283203 -2e-6,0.08073 -0.01172,0.156252 -0.03516,0.226563 -0.02344,0.06901 -0.05925,0.131512 -0.107422,0.1875 -0.04688,0.05469 -0.107424,0.102215 -0.181641,0.142578 -0.07422,0.03906 -0.162111,0.06836 -0.263672,0.08789 l 0,0.0078 c 0.11328,0.01302 0.211587,0.03906 0.294922,0.07813 0.08333,0.03776 0.151691,0.08529 0.205078,0.142578 0.05338,0.05729 0.0931,0.122397 0.119141,0.195312 0.02604,0.07162 0.03906,0.147788 0.03906,0.228516" transform="matrix(1.0663798,0,0,0.9616455,8.556866,32.106717)" fill="#4d4d4d"/>
   <path d="m 37.167969,52.439453 0,0.560547 -0.523438,0 0,-0.560547 -1.251953,0 0,-0.412109 1.162109,-1.779297 0.613282,0 0,1.783203 0.367187,0 0,0.408203 -0.367187,0 m -0.523438,-1.308594 c -10e-7,-0.02213 -10e-7,-0.05078 0,-0.08594 0.0013,-0.03646 0.0026,-0.07357 0.0039,-0.111328 0.0026,-0.03776 0.0046,-0.07357 0.0059,-0.107422 0.0026,-0.03515 0.0052,-0.0625 0.0078,-0.08203 -0.0065,0.01432 -0.01693,0.03516 -0.03125,0.0625 -0.01432,0.02604 -0.0306,0.05469 -0.04883,0.08594 -0.01693,0.02995 -0.03516,0.0599 -0.05469,0.08984 -0.01823,0.02995 -0.03451,0.05599 -0.04883,0.07813 l -0.638672,0.970703 0.804687,0 0,-0.900391" transform="matrix(1.0663798,0,0,0.9616455,8.556866,32.106717)" fill="#4d4d4d"/>
   <path d="m 37.445312,60.083984 c -2e-6,0.138022 -0.02214,0.265626 -0.06641,0.382813 -0.04297,0.115886 -0.107424,0.216797 -0.193359,0.302734 -0.08594,0.08464 -0.19271,0.151042 -0.320313,0.199219 -0.126303,0.04687 -0.272787,0.07031 -0.439453,0.07031 -0.153647,0 -0.287761,-0.01823 -0.402344,-0.05469 -0.114583,-0.03776 -0.211589,-0.08919 -0.291015,-0.154297 -0.07813,-0.06641 -0.139974,-0.14388 -0.185547,-0.232422 -0.04427,-0.08854 -0.07487,-0.183593 -0.0918,-0.285156 l 0.548828,-0.04492 c 0.01042,0.04297 0.02474,0.08464 0.04297,0.125 0.01953,0.04037 0.04622,0.07617 0.08008,0.107422 0.03385,0.03125 0.07552,0.05664 0.125,0.07617 0.04948,0.01823 0.109374,0.02734 0.179688,0.02734 0.136717,0 0.245441,-0.04362 0.326171,-0.13086 0.08203,-0.08724 0.123046,-0.21289 0.123047,-0.376953 -10e-7,-0.07292 -0.01042,-0.138671 -0.03125,-0.197266 -0.01953,-0.05859 -0.04818,-0.108722 -0.08594,-0.15039 -0.03646,-0.04167 -0.08203,-0.07357 -0.136719,-0.0957 -0.05339,-0.02213 -0.114584,-0.0332 -0.183594,-0.0332 -0.09115,10e-7 -0.166016,0.01758 -0.224609,0.05273 -0.05859,0.03386 -0.108074,0.07552 -0.148438,0.125 l -0.535156,0 0.0957,-1.548828 1.654297,0 0,0.408203 -1.15625,0 -0.04492,0.695312 c 0.05469,-0.04818 0.123697,-0.08919 0.207032,-0.123046 0.08333,-0.03515 0.180337,-0.05273 0.291015,-0.05273 0.135416,2e-6 0.256509,0.02214 0.363281,0.06641 0.10677,0.04427 0.197264,0.106122 0.271485,0.185547 0.07422,0.07943 0.130857,0.175132 0.169922,0.28711 0.03906,0.110678 0.05859,0.233725 0.05859,0.36914" transform="matrix(1.0663798,0,0,0.9616455,8.556866,32.106717)" fill="#4d4d4d"/>
   <path d="m 37.412109,68.099609 c -2e-6,0.138022 -0.01953,0.264975 -0.05859,0.38086 -0.03907,0.114583 -0.09766,0.213542 -0.175782,0.296875 -0.07682,0.08203 -0.173178,0.146484 -0.289062,0.193359 -0.115887,0.04557 -0.250001,0.06836 -0.402344,0.06836 -0.324219,0 -0.573568,-0.113281 -0.748047,-0.339843 -0.173177,-0.227864 -0.259766,-0.565104 -0.259765,-1.011719 -10e-7,-0.490884 0.08789,-0.860024 0.263671,-1.107422 0.177083,-0.248695 0.429687,-0.373044 0.757813,-0.373047 0.109374,3e-6 0.208983,0.01172 0.298828,0.03516 0.08984,0.02214 0.16992,0.0586 0.240234,0.109375 0.07031,0.05078 0.130207,0.116539 0.179688,0.197266 0.04948,0.07943 0.08919,0.176435 0.119141,0.291016 l -0.517579,0.07227 c -0.02604,-0.09635 -0.06836,-0.165362 -0.126953,-0.207031 -0.0586,-0.04297 -0.126954,-0.06445 -0.205078,-0.06445 -0.147136,2e-6 -0.263021,0.07357 -0.347656,0.220703 -0.08333,0.147138 -0.125001,0.370445 -0.125,0.669922 0.05859,-0.09766 0.139973,-0.172524 0.244141,-0.224609 0.104165,-0.05208 0.222004,-0.07812 0.353515,-0.07813 0.121093,1e-6 0.230467,0.02018 0.328125,0.06055 0.09896,0.03906 0.182941,0.09636 0.251953,0.171875 0.07031,0.07422 0.124347,0.165366 0.16211,0.273438 0.03776,0.108074 0.05664,0.229819 0.05664,0.365234 m -0.550781,0.01563 c -10e-7,-0.07422 -0.0085,-0.140624 -0.02539,-0.199218 -0.01693,-0.05989 -0.04297,-0.110676 -0.07813,-0.152344 -0.03386,-0.04167 -0.07617,-0.07357 -0.126953,-0.0957 -0.05078,-0.02344 -0.109376,-0.03516 -0.175781,-0.03516 -0.04818,2e-6 -0.09636,0.0078 -0.144531,0.02344 -0.04818,0.01563 -0.09115,0.04102 -0.128906,0.07617 -0.03776,0.03386 -0.06836,0.07748 -0.0918,0.130859 -0.02344,0.05339 -0.03516,0.11784 -0.03516,0.19336 0,0.07813 0.0098,0.151042 0.0293,0.21875 0.01953,0.06771 0.04687,0.126953 0.08203,0.177734 0.03646,0.04948 0.08008,0.08854 0.130859,0.117187 0.05078,0.02734 0.108072,0.04102 0.171875,0.04102 0.123697,10e-7 0.220051,-0.04362 0.289062,-0.130859 0.06901,-0.08854 0.103515,-0.210286 0.103516,-0.365235" transform="matrix(1.0663798,0,0,0.9616455,8.556866,32.106717)" fill="#4d4d4d"/>
   <path d="m 37.38086 74.68359 c -0.123699 0.195314 -0.240887 0.384767 -0.351562 0.568359 -0.109377 0.183595 -0.20508 0.368491 -0.28711 0.554688 -0.08203 0.184896 -0.147136 0.375651 -0.195312 0.572265 C 36.499995 76.57422 36.476565 76.78125 36.476565 77 L 35.9043 77 c -0.000001 -0.217448 0.02539 -0.423828 0.07617 -0.619141 0.05208 -0.196613 0.122395 -0.388019 0.210937 -0.574218 0.08854 -0.186197 0.191405 -0.36979 0.308594 -0.550782 0.117186 -0.182289 0.240884 -0.367836 0.371094 -0.55664 l -1.367188 0 0 -0.451172 1.876953 0 0 0.435547" transform="matrix(1.0663798,0,0,0.9616455,8.556866,32.106717)" fill="#4d4d4d"/>
   <path d="m 72.53965 69.61089 0 8.654801 23.460352 0 0 -8.654801 -23.460352 0 z m 1.066379 0.961645 21.327593 0 0 6.731511 -21.327593 0 0 -6.731511 z" opacity="0.7" fill="#54930a" color="#000"/>
  </g>
 </g>
</svg>
