<?xml version="1.0" encoding="UTF-8" standalone="no"?>
<!-- Created with Inkscape (http://www.inkscape.org/) -->

<svg
   xmlns:dc="http://purl.org/dc/elements/1.1/"
   xmlns:cc="http://creativecommons.org/ns#"
   xmlns:rdf="http://www.w3.org/1999/02/22-rdf-syntax-ns#"
   xmlns:svg="http://www.w3.org/2000/svg"
   xmlns="http://www.w3.org/2000/svg"
   xmlns:sodipodi="http://sodipodi.sourceforge.net/DTD/sodipodi-0.dtd"
   xmlns:inkscape="http://www.inkscape.org/namespaces/inkscape"
   width="512"
   height="512"
   id="svg2"
   version="1.1"
   inkscape:version="0.48+devel r13149 custom"
   sodipodi:docname="matlab.svg">
  <defs
     id="defs4" />
  <sodipodi:namedview
     id="base"
     pagecolor="#ffffff"
     bordercolor="#666666"
     borderopacity="1.0"
     inkscape:pageopacity="0.0"
     inkscape:pageshadow="2"
     inkscape:zoom="0.49497475"
     inkscape:cx="386.28218"
     inkscape:cy="188.17976"
     inkscape:document-units="px"
     inkscape:current-layer="layer1"
     showgrid="false"
     inkscape:window-width="1309"
     inkscape:window-height="750"
     inkscape:window-x="55"
     inkscape:window-y="-3"
     inkscape:window-maximized="1" />
  <metadata
     id="metadata7">
    <rdf:RDF>
      <cc:Work
         rdf:about="">
        <dc:format>image/svg+xml</dc:format>
        <dc:type
           rdf:resource="http://purl.org/dc/dcmitype/StillImage" />
        <dc:title></dc:title>
      </cc:Work>
    </rdf:RDF>
  </metadata>
  <g
     inkscape:label="Layer 1"
     inkscape:groupmode="layer"
     id="layer1"
     transform="translate(0,-540.36218)">
    <path
       sodipodi:type="arc"
       style="fill:#282629;fill-rule:evenodd;stroke:none"
       id="path2985"
       sodipodi:cx="202.85715"
       sodipodi:cy="-316.57144"
       sodipodi:rx="360"
       sodipodi:ry="360"
       d="m 562.85715,-316.57144 a 360,360 0 0 1 -360,359.999998 360,360 0 0 1 -360,-359.999998 360,360 0 0 1 360,-360 360,360 0 0 1 360,360 z"
       transform="matrix(0.69444444,0,0,0.69444444,115.12698,1016.2035)" />
    <g
       id="g4184"
       transform="matrix(0.59402319,0,0,0.59402319,-599.74322,422.68532)">
      <path
         inkscape:connector-curvature="0"
         id="path4722"
         d="m 1287.773,752.39063 c 2.8292,-0.0361 5.2822,-1.8e-4 9.2229,0.98315 10.2845,2.56828 13.3822,4.50734 22.7828,14.25767 7.2881,7.55944 9.3882,10.34744 17.0725,22.74831 9.6251,15.53306 13.4764,22.79196 17.0727,32.13153 1.3079,3.39792 4.7143,11.04647 7.5638,16.99246 2.8493,5.94617 6.5804,14.53963 8.296,19.0982 1.7156,4.55857 4.6464,11.69751 6.511,15.85976 1.8645,4.16206 5.6101,13.11126 8.3189,19.88761 2.7088,6.77616 6.0549,14.79308 7.4378,17.82786 1.7859,3.9207 2.8851,5.51827 3.8105,5.51539 1.6741,-0.006 12.2661,-2.53437 17.9652,-4.29105 4.2899,-1.32229 17.4486,-7.74236 28.3896,-13.84583 2.9731,-1.65783 8.6409,-5.57293 12.5985,-8.70801 8.2482,-6.53354 30.7204,-26.54941 33.0469,-29.43085 0.8587,-1.06252 5.9427,-6.7731 11.2941,-12.69004 5.3514,-5.91695 13.7769,-15.4122 18.7318,-21.11213 4.9551,-5.69975 11.4535,-13.14103 14.441,-16.5348 2.9873,-3.39376 8.7093,-10.06169 12.7129,-14.81851 9.938,-11.80774 31.4798,-32.87134 40.2214,-39.32893 15.9375,-11.77291 26.3217,-16.91091 39.1231,-19.36121 9.5412,-1.82632 17.3355,-1.10943 28.2866,2.5975 8.9286,3.02287 11.6325,4.32568 18.3771,8.87956 2.7749,1.87358 5.9428,3.95408 7.0488,4.62298 5.2666,3.18451 21.5831,17.12847 32.9667,28.17223 24.8305,24.08918 49.5072,44.81599 51.2639,43.05931 0.7612,-0.76127 -1.8918,-7.40142 -9.8636,-24.68214 -2.6517,-5.74774 -6.2132,-14.1848 -7.9185,-18.74337 -1.7047,-4.55857 -5.4354,-13.80109 -8.2846,-20.53991 -2.8492,-6.73883 -6.5754,-16.13775 -8.2846,-20.89458 -1.7084,-4.75682 -5.4306,-14.16711 -8.2731,-20.90593 -2.8427,-6.73883 -6.9053,-16.78681 -9.017,-22.33647 -2.1117,-5.54948 -6.0947,-15.93336 -8.8567,-23.06869 -5.7719,-14.9098 -18.763,-52.14163 -38.7226,-110.99521 -19.8815,-58.62394 -29.5606,-85.90015 -40.9195,-115.30935 -9.6664,-25.02741 -27.7111,-62.13838 -37.3837,-76.87284 -6.7982,-10.35591 -19.9545,-24.06627 -26.4215,-27.53147 -5.4955,-2.94458 -13.2628,-3.42191 -19.6587,-1.22488 -4.6154,1.58567 -6.7769,2.70249 -8.6622,4.49706 -0.552,0.52495 -2.7153,2.37056 -4.8174,4.10795 -3.0341,2.50766 -6.8987,7.20857 -11.2826,13.23934 -1.7715,6.64772 -2.7539,13.24205 -4.6802,19.88761 -9.0417,31.19547 -19.8042,62.32058 -32.303,92.9157 -12.4988,30.59511 -26.7378,60.65968 -42.7389,89.74598 -8.0005,14.54324 -16.4383,28.84637 -25.3229,42.84193 -8.8847,13.99556 -18.2147,27.68787 -27.9892,41.02246 -9.7745,13.3346 -19.9969,26.31129 -30.6667,38.87126 -10.67,12.55998 -21.7848,24.69351 -33.3559,36.36522 -9.3442,9.42562 -19.1981,18.3171 -29.1334,27.09672 z"
         style="fill:#f38725;fill-opacity:1" />
      <path
         inkscape:connector-curvature="0"
         id="path4717"
         d="m 1287.773,752.39063 c 9.9353,-8.77963 19.7892,-17.6711 29.1334,-27.09672 11.5711,-11.67172 22.6859,-23.80524 33.3559,-36.36522 10.6698,-12.55998 20.8922,-25.53667 30.6667,-38.87126 9.7745,-13.3346 19.1045,-27.02691 27.9892,-41.02247 8.8846,-13.99556 17.3224,-28.29869 25.3229,-42.84193 16.0011,-29.08629 30.2401,-59.15087 42.7389,-89.74598 12.4988,-30.59512 23.2613,-61.72023 32.303,-92.9157 1.9263,-6.64556 2.9096,-13.23988 4.6802,-19.88761 -5.1779,7.12271 -11.1634,16.29199 -18.4459,28.64126 -4.0906,6.93708 -9.738,16.19096 -12.5527,20.55146 -2.8145,4.36032 -6.0461,9.52809 -7.186,11.48844 -4.6158,7.937 -19.9205,28.81823 -31.9828,43.64288 -10.2117,12.55042 -29.5771,30.52386 -36.8916,34.23692 -1.3872,0.70354 -3.8269,2.1494 -5.4124,3.21554 -3.5568,2.39113 -10.1491,5.00883 -18.9722,7.52931 -7.4601,2.13118 -21.4434,9.04318 -27.4399,13.55972 -10.2608,7.72829 -33.2106,32.44488 -42.7733,46.06883 -1.4883,2.11928 -3.7771,5.01281 -5.0807,6.43089 -1.3024,1.4179 -2.9994,3.43147 -3.776,4.4626 -0.8695,1.15453 -3.7697,2.82625 -7.5409,4.35978 -3.3694,1.371 -9.0422,3.77837 -12.6099,5.3552 -3.5677,1.57665 -13.4591,5.54876 -21.9816,8.82238 -8.5226,3.27362 -18.9065,7.51614 -23.0687,9.42905 -4.1623,1.91272 -10.1597,4.43861 -13.331,5.60684 -8.8127,3.24657 -27.6258,10.82458 -30.5524,12.31248 -1.4341,0.72879 -12.6568,5.26987 -24.9453,10.08118 -12.2883,4.8113 -24.7758,9.88292 -27.7489,11.27123 -2.9729,1.38904 -9.2952,4.0744 -14.0516,5.97305 -11.4239,4.56038 -11.5162,5.0386 -2.1628,11.19114 3.2569,2.14237 14.6744,10.35809 25.8609,18.59455 2.3352,1.71916 6.3971,4.59212 9.0168,6.38506 2.6199,1.79313 7.8373,5.52639 11.6032,8.29617 3.7657,2.7696 8.2148,5.91984 9.8865,7.00293 2.7622,1.78951 14.1161,9.94642 24.9912,17.95377 2.3352,1.71916 6.3971,4.5896 9.0168,6.38507 4.4386,3.042 14.1617,10.04528 24.1558,17.39311 8.111,5.96349 16.3533,11.41989 17.2558,11.41989 0.9254,0 12.5515,-4.54541 14.7498,-5.76722 2.7342,-1.51892 8.7185,-3.03171 13.4682,-3.39845 0.7685,-0.0541 1.6019,0.26157 2.3114,0.25255 z"
         style="fill:#62c0dc;fill-opacity:1" />
    </g>
  </g>
</svg>
