<?xml version="1.0" encoding="UTF-8" standalone="no"?>
<!-- Created with Inkscape (http://www.inkscape.org/) -->

<svg
   xmlns:dc="http://purl.org/dc/elements/1.1/"
   xmlns:cc="http://creativecommons.org/ns#"
   xmlns:rdf="http://www.w3.org/1999/02/22-rdf-syntax-ns#"
   xmlns:svg="http://www.w3.org/2000/svg"
   xmlns="http://www.w3.org/2000/svg"
   xmlns:sodipodi="http://sodipodi.sourceforge.net/DTD/sodipodi-0.dtd"
   xmlns:inkscape="http://www.inkscape.org/namespaces/inkscape"
   width="512"
   height="512"
   id="svg2"
   version="1.1"
   inkscape:version="0.48.4 r9939"
   sodipodi:docname="miro.svg">
  <defs
     id="defs4" />
  <sodipodi:namedview
     id="base"
     pagecolor="#ffffff"
     bordercolor="#666666"
     borderopacity="1.0"
     inkscape:pageopacity="0.0"
     inkscape:pageshadow="2"
     inkscape:zoom="0.49497475"
     inkscape:cx="320.70367"
     inkscape:cy="93.329107"
     inkscape:document-units="px"
     inkscape:current-layer="layer1"
     showgrid="false"
     inkscape:window-width="1309"
     inkscape:window-height="750"
     inkscape:window-x="55"
     inkscape:window-y="-3"
     inkscape:window-maximized="1" />
  <metadata
     id="metadata7">
    <rdf:RDF>
      <cc:Work
         rdf:about="">
        <dc:format>image/svg+xml</dc:format>
        <dc:type
           rdf:resource="http://purl.org/dc/dcmitype/StillImage" />
        <dc:title />
      </cc:Work>
    </rdf:RDF>
  </metadata>
  <g
     inkscape:label="Layer 1"
     inkscape:groupmode="layer"
     id="layer1"
     transform="translate(0,-540.36218)">
    <path
       sodipodi:type="arc"
       style="fill:#9a3034;fill-rule:evenodd;stroke:none"
       id="path2985"
       sodipodi:cx="202.85715"
       sodipodi:cy="-316.57144"
       sodipodi:rx="360"
       sodipodi:ry="360"
       d="m 562.85715,-316.57144 c 0,198.82251 -161.17749,359.999998 -360,359.999998 -198.8225127,0 -360,-161.177488 -360,-359.999998 0,-198.82251 161.1774873,-360 360,-360 198.82251,0 360,161.17749 360,360 z"
       transform="matrix(0.69444444,0,0,0.69444444,115.12698,1016.2035)" />
    <path
       style="fill:#fff8eb;stroke:none"
       d="m 327.36733,641.86422 c -81.1013,0.31617 -167.91052,67.83772 -198.10852,117.59952 -2.22515,3.70859 -41.536254,63.79709 -41.536254,63.79709 l -11.844323,24.46745 c 103.411317,110.66039 210.037577,120.35153 269.369107,84.53274 41.20023,-24.87274 64.56271,-60.01975 77.03678,-104.87901 10.11771,-36.38547 16.75655,-79.14277 12.55827,-127.98359 -29.62687,-41.80251 -67.86754,-57.68862 -107.47506,-57.5342 z m -141.74247,92.28836 137.81595,0 3.92652,0 c 21.64205,0 39.07004,17.42772 39.07004,39.07004 l 0,48.05875 c 0,1.77398 -0.13011,3.51446 -0.357,5.22448 l 0,33.84556 -38.71304,0 -1.55761,0 0,-83.46191 c 0,-8.01279 -6.42763,-14.47279 -14.44039,-14.47279 -8.01276,0 -14.47279,6.46 -14.47279,14.47279 l 0,83.46191 -29.17278,0 -11.61706,0 0,-83.46191 c 0,-8.01279 -6.46003,-14.47279 -14.4729,-14.47279 -8.01265,0 -14.47268,6.46 -14.47268,14.47279 l 0,83.46191 -41.53626,0 0,-126.19883 z"
       id="path2994"
       inkscape:connector-curvature="0" />
  </g>
</svg>
