<svg xmlns="http://www.w3.org/2000/svg" xmlns:xlink="http://www.w3.org/1999/xlink" width="512" height="512">
 <defs>
  <linearGradient id="0">
   <stop stop-color="#2692c1"/>
   <stop offset="1" stop-color="#0078ad"/>
  </linearGradient>
  <radialGradient xlink:href="#0" id="1" gradientUnits="userSpaceOnUse" gradientTransform="matrix(1.4399444,0.01699432,-0.01763122,1.4939094,-133.21791,-126.16291)" cx="312.66382" cy="247.06755" r="191.21967"/>
 </defs>
 <g transform="translate(0,-540.36218)">
  <path d="m 562.85715 -316.57144 c 0 198.82251 -161.17749 360 -360 360 -198.82251 0 -360 -161.17749 -360 -360 0 -198.82251 161.17749 -360 360 -360 198.82251 0 360 161.17749 360 360 z" transform="matrix(0.69444444,0,0,0.69444444,115.12698,1016.2035)" fill="#0078ad" fill-rule="evenodd"/>
  <g transform="matrix(0.94533704,0,0,0.94533704,8.7805062,58.267538)">
   <path transform="matrix(0.6241909,0,0,0.6241909,89.134431,635.34766)" d="M 425.65625 22.53125 C 343.76818 34.55012 261.37079 43.30961 179.59375 55.96875 167.03048 62.4498 167.37274 78.70606 168.75 90.8125 c -0.50324 84.56304 -0.0887 169.1238 -0.21875 253.6875 -40.453 -3.43183 -84.63956 17.5016 -100.5625 56.15625 -10.07934 25.24581 4.720253 57.03928 30.84375 64.96875 32.43482 12.47031 70.51884 1.19696 95.21875 -22 17.4121 -17.10441 25.28238 -42.05005 23.5 -66.15625 0.26297 -62.60886 -0.0711 -125.23334 0.15625 -187.84375 l 0 -35.90625 180.1875 -26.90625 c -0.13853 56.86133 0.25133 113.73328 -0.21875 170.59375 C 357.0158 294.07486 312.55115 315.29759 297 354.375 c -9.4782 25.14699 5.39018 56.48921 31.3125 64.25 33.07566 12.49175 71.6676 0.75727 96.28125 -23.3125 16.63233 -16.9128 23.79542 -41.2121 22.25 -64.59375 0.5056 -56.49838 -0.38456 -112.99946 0.25 -169.5 0.0822 -42.56681 0.65654 -85.25751 -1.53125 -127.75 -3.3536 -7.503993 -11.9592 -11.480037 -19.90625 -10.9375 z" fill="#cd1d31" stroke="#fff8eb" stroke-linejoin="round" stroke-linecap="round" stroke-width="32.04148"/>
   <path d="M 425.65625 22.53125 C 343.76818 34.55012 261.37079 43.30961 179.59375 55.96875 167.03048 62.4498 167.37274 78.70606 168.75 90.8125 c -0.50324 84.56304 -0.0887 169.1238 -0.21875 253.6875 -40.453 -3.43183 -84.63956 17.5016 -100.5625 56.15625 -10.07934 25.24581 4.720253 57.03928 30.84375 64.96875 32.43482 12.47031 70.51884 1.19696 95.21875 -22 17.4121 -17.10441 25.28238 -42.05005 23.5 -66.15625 0.26297 -62.60886 -0.0711 -125.23334 0.15625 -187.84375 l 0 -35.90625 180.1875 -26.90625 c -0.13853 56.86133 0.25133 113.73328 -0.21875 170.59375 C 357.0158 294.07486 312.55115 315.29759 297 354.375 c -9.4782 25.14699 5.39018 56.48921 31.3125 64.25 33.07566 12.49175 71.6676 0.75727 96.28125 -23.3125 16.63233 -16.9128 23.79542 -41.2121 22.25 -64.59375 0.5056 -56.49838 -0.38456 -112.99946 0.25 -169.5 0.0822 -42.56681 0.65654 -85.25751 -1.53125 -127.75 -3.3536 -7.503993 -11.9592 -11.480037 -19.90625 -10.9375 z" transform="matrix(0.6241909,0,0,0.6241909,89.134431,635.34766)" fill="url(#1)"/>
  </g>
  <path d="m 256 565.05 c -127.75019 0 -231.31218 103.56199 -231.31218 231.31218 0 127.75019 103.56199 231.31222 231.31218 231.31222 127.75019 0 231.31218 -103.56203 231.31218 -231.31222 C 487.31218 668.61199 383.75019 565.05 256 565.05 z m 0 19.83502 c 116.80017 0 211.47716 94.67699 211.47716 211.47716 0 116.80017 -94.67699 211.47712 -211.47716 211.47712 -116.80017 0 -211.47716 -94.67695 -211.47716 -211.47712 0 -116.80017 94.67699 -211.47716 211.47716 -211.47716 z" fill="#fff8eb" fill-rule="evenodd"/>
 </g>
</svg>
