<svg xmlns="http://www.w3.org/2000/svg" xmlns:xlink="http://www.w3.org/1999/xlink" width="512" height="512">
 <defs>
  <linearGradient y1="92.5396" x2="0" y2="7.01654" gradientUnits="userSpaceOnUse" gradientTransform="scale(1.0058652,0.994169)">
   <stop/>
   <stop offset="1" stop-opacity="0.588235"/>
  </linearGradient>
  <filter color-interpolation-filters="sRGB">
   <feGaussianBlur stdDeviation="1.71"/>
  </filter>
  <clipPath>
   <rect width="84" height="84" rx="6" x="6" y="6" fill="#fff"/>
  </clipPath>
  <linearGradient id="0">
   <stop stop-color="#fff"/>
   <stop offset="1" stop-color="#fff" stop-opacity="0"/>
  </linearGradient>
  <clipPath>
   <rect y="6" x="6" rx="6" height="84" width="84" fill="#fff"/>
  </clipPath>
  <linearGradient gradientUnits="userSpaceOnUse" xlink:href="#0" y2="138.66119" x2="0" y1="20.220806"/>
  <filter color-interpolation-filters="sRGB" height="1.384" width="1.384" y="-0.192" x="-0.192">
   <feGaussianBlur stdDeviation="5.28"/>
  </filter>
  <linearGradient xlink:href="#0" gradientUnits="userSpaceOnUse" gradientTransform="matrix(6.9623296,0,0,6.9623296,794.88576,957.5416)" x1="25.5" x2="36.5"/>
  <filter id="1">
   <feGaussianBlur stdDeviation="0.36"/>
  </filter>
 </defs>
 <g transform="translate(0,-540.36218)">
  <path d="m 562.85715 -316.57144 a 360 360 0 1 1 -720 0 360 360 0 1 1 720 0 z" transform="matrix(0.65796671,0,0,0.65796671,122.52675,1004.6557)" fill="#fff8eb" fill-rule="evenodd"/>
  <path d="M 108.64785 626.23673 C 84.44144 707.34705 91.9083 793.29247 100.506 876.2389 c 1.15201 22.87344 3.1557 46.27938 12.25774 67.53241 0.18542 22.3739 -37.25056 20.03787 -37.32651 -1.46367 -5.184052 -25.73069 4.848402 -51.25876 3.933098 -77.09995 2.822205 -76.6492 6.304382 -155.10404 33.643439 -227.56705 4.73718 -13.27588 11.38063 -43.47704 30.88331 -29.32014 11.30762 13.83863 9.89073 33.70843 8.2839 50.54324 -5.94196 50.51763 -28.29531 99.94189 -19.05664 151.5651 4.56622 36.03262 4.99219 72.49614 7.49004 108.61978 2.91844 23.14689 -29.28615 16.07705 -25.78525 -2.99324 5.1103 -14.97017 9.35213 -30.03048 12.42942 -45.61708 17.1604 -71.6498 38.50369 -142.21227 54.93081 -214.04822 -4.33907 -15.23945 14.85777 -36.70322 25.19731 -17.15867 11.21436 18.80581 0.84149 40.76026 -5.35052 59.41953 -12.03598 33.40284 -26.01544 68.49177 -20.17597 104.74903 2.56588 41.23719 1.00665 82.62202 3.92725 123.84338 -1.615 22.95318 -40.41983 8.55153 -27.79227 -9.97935 5.42197 -22.71087 14.25007 -44.51132 18.03935 -67.63053 18.17373 -72.27677 42.40518 -143.56256 78.80033 -208.67944 19.73045 12.68014 20.20164 41.52229 9.69168 60.46088 -15.62218 43.01022 -45.56709 82.20042 -46.01389 129.69934 1.29732 18.07685 5.54789 37.8014 -3.85345 54.49012 -24.23297 1.37101 -13.65665 -31.78925 -1.72823 -41.22408 11.37133 -27.11389 17.85017 -56.30005 31.60207 -82.47365 7.07627 -11.9937 16.12086 -36.00177 33.6356 -24.73837 17.40453 10.92291 7.05231 29.93438 1.5346 44.30873 -4.85707 15.05684 -5.85934 31.84514 -13.93411 45.55865 -18.98278 13.77667 -23.48955 -28.33271 -1.03996 -23.48641 14.48201 -3.59817 34.62355 0.38595 40.48595 15.93777 7.29737 17.58331 -26.13279 26.59324 -29.1944 9.63345 6.97259 -14.86642 13.52631 9.03615 3.13418 13.16937 -9.78199 6.47819 -25.26792 6.89616 -34.44887 -1.77989 -9.72365 -8.19745 -10.94544 -23.48858 -3.30877 -33.53674 8.40235 -16.44441 4.91328 -36.42492 13.56687 -52.6385 9.54009 -14.10995 30.99756 2.20224 15.51674 13.72753 -26.73943 36.5784 -21.31882 87.31068 -49.72513 123.0014 -11.33483 21.14035 -41.06492 -0.63953 -32.39261 -19.80393 5.17521 -16.37105 6.21442 -34.16607 10.12007 -51.03047 8.57671 -46.03872 20.87647 -91.66955 41.1719 -133.92916 1.27925 -15.6285 24.87952 -33.68065 28.82392 -9.73617 3.40412 17.39027 -15.45305 25.42326 -20.38914 40.27788 -17.15731 27.62976 -35.34369 56.48837 -38.91282 89.67831 -9.96314 28.63291 -18.48719 58.36538 -17.61964 89.00937 -1.20017 17.42437 -3.22964 35.20029 -10.4296 51.2755 -14.59438 11.57171 -33.80949 -8.0873 -30.25475 -23.91002 4.62767 -27.40353 3.2189 -55.31407 4.9877 -82.98848 2.50297 -65.70884 13.18649 -130.85483 27.62052 -194.88585 -6.9123 -22.67234 31.12825 -22.66091 29.3361 -1.02147 5.86508 20.97674 -6.06375 41.09929 -11.89007 60.64256 -11.57039 29.67338 -26.73338 58.62047 -30.46704 90.72794 -19.71535 44.21222 -15.35431 94.19082 -27.75702 140.21879 -8.2209 18.96505 -36.75477 4.90893 -33.92832 -13.10128 -0.79979 -47.43703 -2.26831 -94.93467 1.18838 -142.31599 3.22561 -52.9701 9.40417 -105.69675 15.98984 -158.33009 -2.78841 -20.13368 24.40754 -10.83688 26.29779 2.94472 0.71107 12.78297 -5.33836 25.34523 -11.75962 36.2624 -19.33259 29.69481 -34.41983 64.67726 -30.57393 100.99134 -2.54868 27.55372 -10.552458 55.20557 -5.06692 82.94607 2.86919 33.06814 8.62495 66.54243 3.00218 99.65063 C 93.60244 960.54596 75.76268 936.67708 74.98596 921.7768 62.54613 870.41754 64.819403 817.14443 67.68834 764.82195 c 1.360591 -41.39409 1.4949 -83.00673 5.335215 -124.18222 2.906736 -18.05637 21.510806 -24.58151 35.624296 -14.403 z" fill="#729fcf"/>
  <path d="M 395.40625 323.125 C 390.13887 323.43913 385.31568 326.71963 383.125 332.125 C 379.93856 339.98735 383.52325 349.29766 391.15625 353 L 455.28125 384.09375 C 460.79679 375.53189 465.7305 366.58366 470.125 357.3125 L 402.65625 324.59375 C 400.27094 323.43677 397.80051 322.98221 395.40625 323.125 z" transform="translate(0,540.36218)" fill="#0078ad" stroke="#0078ad" stroke-linecap="round" stroke-width="9.220984" stroke-dashoffset="1.96"/>
  <path d="m 368.67106 829.96346 c -14.10981 0.03 -29.12132 3.88954 -44.23987 1.38251 -8.89357 7.77117 -0.38517 8.03768 -10.28739 18.29773 6.06606 12.73782 14.9334 27.21864 26.91801 36.4735 25.7981 19.92283 51.18239 20.70863 66.96972 -0.12192 11.31046 -14.92357 5.94624 -45.83211 -25.53551 -54.40528 -4.47849 -1.21959 -9.10451 -1.63654 -13.82496 -1.62647 z m -62.131 1.05721 c 0.41574 1.20791 0.89904 2.52908 1.42316 3.94418 -0.52422 -1.41105 -1.00619 -2.73761 -1.42316 -3.94418 z m 5.57064 14.19092 c 0.56059 1.26983 1.16774 2.54547 1.78912 3.86285 -0.62083 -1.31658 -1.22867 -2.59368 -1.78912 -3.86285 z" fill="#282629" fill-rule="evenodd" color="#000"/>
  <path d="m 309.75 280.9375 c 0 0 2.50471 9.32943 7.75 20.34375 7.61023 -7.88524 1.07121 -8.09006 7.90625 -14.0625 -5.22535 -0.86649 -10.46879 -2.73695 -15.65625 -6.28125 z" transform="matrix(1.3011727,0,0,1.3011727,-98.978529,457.62478)" fill="#729fcf" filter="url(#1)"/>
  <path d="M 256 6 C 117.92881 6 6 117.92881 6 256 C 6 394.07119 117.92881 506 256 506 C 394.07119 506 506 394.07119 506 256 C 506 117.92881 394.07119 6 256 6 z M 256 31.71875 C 379.86958 31.71875 480.28125 132.13042 480.28125 256 C 480.28125 379.86958 379.86958 480.28125 256 480.28125 C 132.13042 480.28125 31.71875 379.86958 31.71875 256 C 31.71875 132.13042 132.13042 31.71875 256 31.71875 z" transform="translate(0,540.36218)" fill="#f38725" fill-rule="evenodd"/>
 </g>
</svg>
