<svg xmlns="http://www.w3.org/2000/svg" width="512" height="512" xmlns:xlink="http://www.w3.org/1999/xlink">
 <defs>
  <path id="0" d="m 690.62498 212.625 a 2.053571 2.053571 0 1 1 -4.10714 0 2.053571 2.053571 0 1 1 4.10714 0 z" stroke="#fff8eb" fill-rule="evenodd" stroke-width="2.790872" fill="#fff8eb"/>
 </defs>
 <g transform="translate(0,-540.36218)">
  <path d="m 562.85715 -316.57144 c 0 198.82251 -161.17749 360 -360 360 -198.82251 0 -360 -161.17749 -360 -360 0 -198.82251 161.17749 -360 360 -360 198.82251 0 360 161.17749 360 360 z" transform="matrix(0.69444444,0,0,0.69444444,115.12698,1016.2035)" fill="#282629" fill-rule="evenodd"/>
  <path d="m 286.64663 754.79753 93.66525 -61.89719" fill="#fff8eb" stroke="#cd1d31" stroke-width="9.324466"/>
  <path d="m 240.12293 651.92965 136.11751 26.22476" fill="#fff8eb" stroke="#cd1d31" stroke-width="9.324466"/>
  <path d="m 391.84969 697.52139 0 141.78822" fill="#cd1d31" stroke="#cd1d31" stroke-width="9.324466"/>
  <path d="M 375.81857 849.01267 254.11921 794.57994" fill="#fff8eb" stroke="#cd1d31" stroke-width="9.324466"/>
  <path d="m 274.14733 778.55999 8.85931 139.63971" fill="#cd1d31" stroke="#cd1d31" stroke-width="9.324466"/>
  <path d="m 300.3034 933.38712 75.93704 -63.28085" fill="#fff8eb" stroke="#cd1d31" stroke-width="9.324466"/>
  <path d="M 268.66298 934.65274 154.7575 874.74687" fill="#fff8eb" stroke="#cd1d31" stroke-width="9.324466"/>
  <path d="m 149.27315 858.29386 77.59166 -59.15097" fill="#fff8eb" stroke="#cd1d31" stroke-width="9.324466"/>
  <path d="M 138.72634 852.80952 122.27333 731.73219" fill="#fff8eb" stroke="#cd1d31" stroke-width="9.324466"/>
  <path d="m 131.97639 703.46674 79.89074 -45.15992" fill="#fff8eb" stroke="#cd1d31" stroke-width="9.324466"/>
  <path d="m 226.05391 666.34197 8.6928 104.75799" fill="#cd1d31" stroke="#cd1d31" stroke-width="9.324466"/>
  <path d="m 133.66386 717.38852 120.41006 36.487" fill="#fff8eb" stroke="#cd1d31" stroke-width="9.324466"/>
  <use transform="matrix(3.341058,0,0,3.341058,-2030.3679,50.525302)" xlink:href="#0"/>
  <use transform="matrix(3.341058,0,0,3.341058,-1907.9572,-29.76148)" xlink:href="#0"/>
  <use transform="matrix(3.341058,0,0,3.341058,-2075.9396,-62.020548)" xlink:href="#0"/>
  <use transform="matrix(3.341058,0,0,3.341058,-2181.9144,3.5529128)" xlink:href="#0"/>
  <use transform="matrix(3.341058,0,0,3.341058,-2162.279,159.17281)" xlink:href="#0"/>
  <use transform="matrix(3.341058,0,0,3.341058,-2061.3963,78.273403)" xlink:href="#0"/>
  <use transform="matrix(3.341058,0,0,3.341058,-2015.785,230.43199)" xlink:href="#0"/>
  <use transform="matrix(3.341058,0,0,3.341058,-1911.2097,147.46047)" xlink:href="#0"/>
  <path d="m 256 566.36218 c -127.02549 0 -230 102.97451 -230 230 0 127.02549 102.97451 230.00002 230 230.00002 127.02549 0 230 -102.97453 230 -230.00002 0 -127.02549 -102.97451 -230 -230 -230 z m 0 19.7225 c 116.13759 0 210.2775 94.13991 210.2775 210.2775 0 116.13759 -94.13991 210.27752 -210.2775 210.27752 -116.13759 0 -210.2775 -94.13993 -210.2775 -210.27752 0 -116.13759 94.13991 -210.2775 210.2775 -210.2775 z" fill="#cd1d31" fill-rule="evenodd"/>
 </g>
</svg>
