<svg xmlns="http://www.w3.org/2000/svg" width="512" height="512">
 <g transform="translate(0,-540.36218)">
  <path d="M 251.15625 6.0625 C 249.45404 6.09479 247.75622 6.152596 246.0625 6.21875 C 247.10344 6.178192 248.14333 6.152806 249.1875 6.125 C 249.84401 6.10751 250.49781 6.078905 251.15625 6.0625 z M 272.5 6.5625 C 274.37053 6.683931 276.23411 6.839375 278.09375 7 C 276.23808 6.83741 274.36707 6.684319 272.5 6.5625 z M 294.0625 8.90625 C 294.14533 8.91885 294.2297 8.95495 294.3125 8.96875 C 294.80449 9.04467 295.28954 9.115236 295.78125 9.1875 C 295.20766 9.09575 294.63739 8.99409 294.0625 8.90625 z M 299.34375 9.75 C 300.39017 9.933041 301.42661 10.147765 302.46875 10.34375 C 301.42717 10.147904 300.38984 9.932883 299.34375 9.75 z M 304.9375 10.8125 C 305.92655 11.01181 306.92364 11.222932 307.90625 11.4375 C 306.91625 11.228373 305.93179 11.00987 304.9375 10.8125 z M 307.90625 11.4375 C 309.18859 11.71752 310.47017 11.989485 311.75 12.28125 C 312.87127 12.53687 314.00329 12.797201 315.125 13.0625 C 312.73067 12.481649 310.32697 11.948851 307.90625 11.4375 z M 202.5 11.78125 C 201.32321 12.03786 200.13929 12.289382 198.96875 12.5625 C 200.13901 12.289787 201.32349 12.03746 202.5 11.78125 z M 194.5625 13.625 C 193.26531 13.952834 191.97653 14.308225 190.6875 14.65625 C 191.97466 14.309259 193.2672 13.951865 194.5625 13.625 z M 189.78125 14.90625 C 188.47732 15.263595 187.17033 15.62216 185.875 16 C 187.17914 15.619957 188.46839 15.265521 189.78125 14.90625 z M 329.375 16.96875 C 330.8883 17.432827 332.37407 17.914379 333.875 18.40625 C 332.38119 17.916983 330.88106 17.430482 329.375 16.96875 z M 344 21.96875 C 345.55178 22.552713 347.11933 23.13624 348.65625 23.75 C 347.1159 23.13487 345.55527 22.553942 344 21.96875 z M 349.28125 24 C 352.29796 25.21421 355.26163 26.485398 358.21875 27.8125 C 355.26913 26.489112 352.29017 25.21104 349.28125 24 z M 362.875 29.96875 C 364.10985 30.553685 365.33887 31.14553 366.5625 31.75 C 365.34106 31.14664 364.10761 30.552644 362.875 29.96875 z M 368.375 32.65625 C 369.58885 33.26822 370.79758 33.900182 372 34.53125 C 370.79587 33.899292 369.5906 33.26905 368.375 32.65625 z M 372 34.53125 C 373.50302 35.32008 374.98395 36.11917 376.46875 36.9375 C 374.98577 36.12022 373.50116 35.3191 372 34.53125 z M 376.46875 36.9375 C 379.43835 38.574161 382.38687 40.24769 385.28125 42 C 382.38344 40.24547 379.44199 38.576073 376.46875 36.9375 z M 385.28125 42 C 386.72844 42.876153 388.16595 43.78302 389.59375 44.6875 C 388.16839 43.784546 386.72594 42.874715 385.28125 42 z M 389.59375 44.6875 C 390.85526 45.48664 392.09766 46.30403 393.34375 47.125 C 392.10089 46.30622 390.85195 45.48456 389.59375 44.6875 z M 394.125 47.625 C 395.43775 48.49688 396.73608 49.38539 398.03125 50.28125 C 396.73456 49.38436 395.43932 48.49785 394.125 47.625 z M 398.03125 50.28125 C 399.4191 51.24121 400.78896 52.20038 402.15625 53.1875 C 400.79026 52.20137 399.41776 51.24027 398.03125 50.28125 z M 114.03125 50.21875 C 48.768353 95.32609 6 170.66228 6 256 C 6 391.79373 114.26249 502.30473 249.1875 505.90625 L 249.1875 254.4375 C 248.19709 258.37981 245.12819 261.28125 241.4375 261.28125 C 236.95361 261.28125 233.34375 257.02364 233.34375 251.78125 L 233.34375 237.65625 C 232.46477 233.47059 229.1146 230.40625 225.03125 230.40625 C 220.46414 230.40625 216.76359 234.27441 216.46875 239.21875 L 216.46875 275 C 216.46875 280.24239 212.79619 284.5 208.3125 284.5 C 203.8288 284.5 200.25 280.24239 200.25 275 L 200.25 249.6875 C 198.5999 252.33341 195.76432 254.125 192.4375 254.125 C 187.27105 254.125 183.125 249.86739 183.125 244.625 L 183.125 219.375 C 182.8489 214.43066 179.39432 210.5625 175.125 210.5625 C 170.8549 210.5625 167.42781 214.43066 167.15625 219.375 L 167.15625 300.40625 C 167.15625 305.64864 162.89863 309.90625 157.65625 309.90625 C 152.41387 309.90625 148.1875 305.64864 148.1875 300.40625 L 148.1875 194.84375 C 148.1875 189.60136 152.41387 185.40625 157.65625 185.40625 C 162.89863 185.40625 167.15625 189.60136 167.15625 194.84375 L 167.15625 199.8125 L 183.125 199.8125 L 183.125 167.46875 L 133.5 167.46875 L 133.5 229.21875 C 133.5 234.46114 129.33613 238.65625 124.09375 238.65625 C 118.85117 238.65625 114.59375 234.46114 114.59375 229.21875 L 114.59375 164.9375 C 114.59375 163.57731 114.85987 162.28838 115.375 161.125 C 114.47648 159.43899 114.03125 157.48932 114.03125 155.4375 L 114.03125 50.21875 z M 418.0625 65.6875 C 419.34365 66.779353 420.61636 67.882939 421.875 69 C 420.61927 67.885353 419.34065 66.777045 418.0625 65.6875 z M 426.40625 73.125 C 427.37255 74.02566 428.32933 74.928056 429.28125 75.84375 C 428.32707 74.925657 427.37489 74.02798 426.40625 73.125 z M 433.15625 79.65625 C 435.36882 81.8784 437.528 84.13386 439.65625 86.4375 C 437.53413 84.14003 435.36224 81.87266 433.15625 79.65625 z M 440 86.8125 C 441.09415 88.00164 442.17877 89.19602 443.25 90.40625 C 442.1804 89.19765 441.09247 88.00007 440 86.8125 z M 443.25 90.40625 C 444.33618 91.63338 445.4065 92.87655 446.46875 94.125 C 445.4088 92.87914 444.33378 91.63088 443.25 90.40625 z M 459.15625 110.3125 C 460.09663 111.62121 461.02196 112.9538 461.9375 114.28125 C 461.0182 112.94783 460.1006 111.62701 459.15625 110.3125 z M 461.9375 114.28125 C 462.68724 115.3683 463.42337 116.46309 464.15625 117.5625 C 463.42264 116.46151 462.68801 115.36985 461.9375 114.28125 z M 475.25 135.84375 C 476.03279 137.2687 476.80686 138.71457 477.5625 140.15625 C 476.80393 138.70832 476.03594 137.27479 475.25 135.84375 z M 484.34375 154.125 C 485.03961 155.6814 485.71023 157.23947 486.375 158.8125 C 485.71073 157.23976 485.03909 155.68112 484.34375 154.125 z M 216.28125 167.46875 C 216.39763 168.10528 216.46875 168.76086 216.46875 169.4375 L 216.46875 200.0625 L 233.34375 200.0625 L 233.34375 167.46875 L 216.28125 167.46875 z M 501.6875 209.625 C 501.89921 210.75226 502.11598 211.86746 502.3125 213 C 502.11678 211.87115 501.89831 210.7486 501.6875 209.625 z" transform="translate(0,540.36218)" fill="#0078ad" fill-rule="evenodd"/>
  <path d="m 255.96803 546.36217 c -2.26522 0 -4.52885 0.0633 -6.77948 0.12326 -50.12583 1.33481 -96.56867 17.40672 -135.15405 44.06509 l 0 105.26318 c 0 2.05182 0.45734 3.98391 1.35586 5.66992 -0.51513 1.16338 -0.80129 2.46084 -0.80129 3.82103 l 0 64.27956 c 0 5.24239 4.24861 9.42931 9.49119 9.42931 5.24238 0 9.42926 -4.18692 9.42926 -9.42931 l 0 -61.75276 49.61189 0 0 32.35549 -15.96202 0 0 -4.99199 c 0 -5.24239 -4.24861 -9.42931 -9.49099 -9.42931 -5.24238 0 -9.49099 4.18692 -9.49099 9.42931 l 0 105.57133 c 0 5.24239 4.24861 9.49094 9.49099 9.49094 5.24238 0 9.49099 -4.24855 9.49099 -9.49094 l 0 -81.04279 c 0.27156 -4.94434 3.68024 -8.81302 7.95034 -8.81302 4.26932 0 7.73558 3.86868 8.01168 8.81302 l 0 25.2681 c 0 5.24239 4.13975 9.49094 9.3062 9.49094 3.32682 0 6.17698 -1.79142 7.82708 -4.43733 l 0 25.32973 c 0 5.24239 3.58971 9.49094 8.07341 9.49094 4.48369 0 8.13513 -4.24855 8.13513 -9.49094 l 0 -35.80674 c 0.29484 -4.94434 3.99933 -8.81302 8.56644 -8.81302 4.08335 0 7.44114 3.08662 8.32012 7.27228 l 0 14.11316 c 0 5.24239 3.58972 9.49094 8.07361 9.49094 3.69069 0 6.77474 -2.89856 7.76515 -6.84087 l 0 251.51002 c 2.26699 0.061 4.4979 0.062 6.77948 0.062 138.06673 0 250.032 -111.90266 250.032 -249.96926 0 -116.1602 -79.24172 -213.82199 -186.61503 -241.89577 -0.30786 -0.0805 -0.61611 -0.16724 -0.92455 -0.24652 -2.21887 -0.57111 -4.47501 -1.09113 -6.71755 -1.60237 -2.55966 -0.58353 -5.11478 -1.1597 -7.70363 -1.66399 -2.02205 -0.39382 -4.06263 -0.76456 -6.10145 -1.10933 -1.20794 -0.20467 -2.42239 -0.36736 -3.63625 -0.55467 -0.0828 -0.0138 -0.16369 -0.0489 -0.24652 -0.0615 -1.9051 -0.29123 -3.81217 -0.55325 -5.73147 -0.80118 -0.16369 -0.0211 -0.32995 -0.0408 -0.49304 -0.0615 -2.49083 -0.31671 -5.00572 -0.61999 -7.51884 -0.86282 -0.49343 -0.0479 -0.98489 -0.0781 -1.47911 -0.12326 -2.16839 -0.19662 -4.3488 -0.35212 -6.53276 -0.49303 -2.60384 -0.16803 -5.20195 -0.34377 -7.82709 -0.43141 -0.10255 -0.004 -0.2053 0.004 -0.30805 0 -0.0611 -0.002 -0.12424 0.002 -0.18538 0 -2.65531 -0.0834 -5.33586 -0.12326 -8.01167 -0.12326 z m -39.68959 161.46928 17.07135 0 0 32.60201 -16.88656 0 0 -30.62986 c 0 -0.67664 -0.069 -1.33562 -0.18538 -1.97215 z" fill="#9a3034" fill-rule="evenodd"/>
  <rect width="22.910025" height="32.3727" x="102.98952" y="684.40179" fill="#282629" fill-rule="evenodd" rx="10.209854"/>
  <path d="m 355.13521 691.49964 a 7.898777 7.898738 0 1 0 0.80109 15.77715 l 23.11127 0 0 48.93382 -126.71087 30.56823 a 7.889403 7.889365 0 0 0 -6.03991 7.70369 l 0 66.19008 a 7.889403 7.889365 0 1 0 15.77722 0 l 0 -60.02713 126.71087 -30.56823 a 7.889403 7.889365 0 0 0 6.03992 -7.64206 l 0 -63.04698 a 7.889403 7.889365 0 0 0 -7.88861 -7.88857 l -30.99989 0 a 7.889403 7.889365 0 0 0 -0.80109 0 z" color="#000" fill="#d1c4b1"/>
  <rect y="684.40179" x="348.5253" height="32.3727" width="22.910025" fill="#282629" fill-rule="evenodd" rx="10.209854"/>
  <rect width="245.81485" height="97.90285" x="114.34747" y="651.14111" fill="#d1c4b1" fill-rule="evenodd" rx="26.358461"/>
  <rect width="50.36035" height="123.96333" x="228.80292" y="829.33832" fill="#d1c4b1" fill-rule="evenodd" rx="10.209854"/>
 </g>
</svg>
