<svg xmlns="http://www.w3.org/2000/svg" width="512" height="512">
 <g transform="matrix(1.0416667 0 0 1.0416667 -10.666676 -573.54395)">
  <path d="m 305.71429 246.28572 c 0 45.76074 -37.09641 82.85714 -82.85714 82.85714 -45.76074 0 -82.85714 -37.0964 -82.85714 -82.85714 0 -45.76073 37.0964 -82.85714 82.85714 -82.85714 45.76073 0 82.85714 37.09641 82.85714 82.85714 z" transform="matrix(2.8965518,0,0,2.8965517,-389.51727,82.982847)" fill="#ef6a47" fill-rule="evenodd"/>
  <path d="m 364.51076 846.84714 c 3.30946 -2.78438 6.39615 -5.83925 9.62604 -8.7032 -12.23541 12.01266 -18.72703 17.10413 -9.62604 8.7032 z m 95.30577 35.68796 c 0.74781 11.67855 -1.6229 24.29582 -7.93948 34.36737 -6.49162 10.53295 -16.41997 17.75647 -27.08021 22.2274 -10.69206 4.48686 -22.00466 6.49161 -33.20587 7.23943 -18.56792 1.20921 -36.89718 -1.06603 -54.81275 -4.72552 -19.39528 50.70776 -48.6871 83.07042 -81.44746 83.07042 -31.85345 0 -60.39745 -30.78749 -79.77682 -79.17227 -16.37222 3.69131 -33.12632 6.04611 -50.13498 5.53696 -11.1853 -0.36595 -22.62517 -1.97293 -33.428618 -6.07793 -10.803441 -4.08907 -20.986359 -10.96255 -27.859834 -21.25685 -6.698445 -9.83287 -9.466934 -22.3706 -9.116894 -34.06505 0.270482 -11.83764 3.102614 -23.24569 7.080317 -34.01731 7.700827 -20.5886 19.331632 -39.15652 32.553531 -56.197 -1.73428 -2.00476 -3.5322 -3.9777 -5.218758 -6.0302 -3.261712 1.81382 -6.96894 2.94351 -10.978459 2.94351 -12.569548 0 -22.768371 -10.19884 -22.768371 -22.76839 0 -7.25532 3.468559 -13.65147 8.750949 -17.8201 -0.763723 -1.51153 -1.654727 -2.9276 -2.370713 -4.47094 -4.725521 -10.21474 -8.416824 -21.09775 -9.62605 -32.63308 -1.241032 -11.42397 0.413683 -23.78668 6.412058 -34.33553 5.887008 -10.61253 15.735802 -18.59976 26.396047 -23.59575 10.676157 -5.07554 22.16375 -7.66901 33.571805 -8.9737 18.21789 -1.98885 36.38804 -0.891 54.19224 1.9093 19.37937 -52.15565 49.05304 -85.67973 82.32255 -85.67973 32.55353 0 61.70213 32.02846 81.08151 82.22708 16.78591 -3.05487 33.95367 -4.47093 51.24872 -3.22989 11.4558 0.92283 23.00705 3.08669 33.89005 7.7963 10.83526 4.66186 20.85907 12.15587 27.27114 22.75246 6.22112 10.1352 8.38498 22.57745 7.54172 34.01732 -0.77964 11.56716 -4.1209 22.56154 -8.46456 32.91947 -7.70083 18.09061 -18.74294 34.20826 -30.88289 49.27581 13.79468 16.59496 26.046 34.71738 34.49465 55.03549 4.34365 10.61251 7.62128 21.9251 8.30543 33.73092 z M 341.1696 663.77733 c 7.28715 22.00465 12.7923 46.90508 16.10175 73.76254 20.90681 16.03809 40.55666 33.71501 57.8358 53.85809 0.0477 0.0637 0.0955 0.12729 0.1432 0.19093 11.28076 -15.22664 21.06592 -31.55113 27.60525 -49.06895 3.69132 -10.13518 6.30069 -20.71588 6.47571 -31.24884 0.22276 -10.51703 -2.11614 -20.76362 -7.90767 -29.25998 -5.50514 -8.14633 -14.19244 -14.20836 -23.73894 -17.74056 -9.62603 -3.62766 -20.15899 -5.13919 -30.67605 -5.44149 -15.27437 -0.4296 -30.67605 1.65473 -45.83905 4.94826 z m -69.05293 244.70832 c -4.45503 2.35479 -8.91005 4.70961 -13.44464 6.9053 21.75009 9.18053 44.18433 16.65861 67.27092 21.4955 1.22514 0.25458 2.46618 0.41368 3.69132 0.65234 11.82173 -31.83754 19.69759 -71.36 22.00464 -114.73288 -10.13518 -2.29116 -17.70874 -11.31259 -17.70874 -22.14784 0 -10.96257 7.76449 -20.11128 18.09061 -22.25923 -0.30231 -8.57593 -0.77963 -17.0564 -1.51153 -25.33002 -15.30621 -11.66263 -31.29657 -22.52972 -47.84382 -32.20349 -15.71988 -9.32374 -31.99664 -17.66101 -48.5757 -25.21864 -16.34042 8.14634 -32.33078 17.04048 -47.71655 26.9211 -16.08583 10.21473 -31.58295 21.57506 -46.38002 33.68319 -1.06602 13.03095 -1.70245 26.39604 -1.70245 40.11116 0 21.79782 1.44788 42.80008 4.07316 62.68861 1.89339 2.10023 1.73429 2.45026 0.17502 1.54335 4.07317 30.08735 10.96256 57.32666 19.92034 80.42915 2.76849 -0.58869 5.53696 -1.09784 8.27362 -1.75018 22.91157 -5.63243 45.05943 -13.90605 66.47539 -23.85031 -18.34518 -8.14634 -36.24483 -17.32687 -53.47625 -27.54163 17.45417 10.19884 35.5925 19.28391 54.20814 27.1916 4.67779 -2.1798 9.27601 -4.56641 13.89013 -6.92121 -2.91167 -3.81859 -4.69368 -8.54411 -4.69368 -13.71513 0 -12.58545 10.19883 -22.78429 22.78429 -22.78429 9.61013 0 17.78829 5.96657 21.14547 14.38339 0.0318 -0.0159 0.0637 -0.0317 0.0796 -0.0478 -0.0318 0.0159 -0.0637 0.0319 -0.0796 0.0478 1.0342 2.60937 1.63881 5.42558 1.63881 8.4009 0 12.58547 -10.19883 22.78428 -22.78428 22.78428 -7.25533 0 -13.63556 -3.45263 -17.8042 -8.73502 z M 149.73068 796.36214 c 0 -11.10575 0.49324 -21.94101 1.20923 -32.63308 -15.38575 13.17415 -30.07143 27.23931 -43.1183 42.64098 -0.49324 0.5887 -0.95465 1.20922 -1.44789 1.79792 22.92748 20.11128 37.67681 33.36497 46.38002 41.46358 -1.9093 -17.12004 -3.02306 -34.89241 -3.02306 -53.2694 z m 47.47788 -88.25728 c 11.90129 -7.54173 24.24809 -14.43111 36.80172 -20.97045 -16.53134 -6.58708 -33.34908 -12.37861 -50.58049 -16.64271 -2.33889 -0.55689 -4.69369 -0.98647 -7.03258 -1.49563 -6.09384 19.29982 -10.86709 40.82715 -13.95378 64.05694 11.26486 -8.75096 22.80019 -17.18368 34.76513 -24.94815 z m 150.75495 22.46607 c -3.27762 -23.64348 -8.36909 -45.42537 -14.74932 -64.8843 -3.15034 0.77963 -6.3325 1.51153 -9.45102 2.37071 -17.05639 4.86871 -33.65136 11.24894 -49.94405 18.3929 12.76049 6.07794 25.33002 12.53771 37.48588 19.63394 12.60138 7.55763 24.75722 15.84716 36.65851 24.48675 z M 181.0909 655.12185 c 1.84566 0.35004 3.72313 0.60461 5.55287 0.98647 23.07069 4.83688 45.44129 12.17176 67.07999 21.1932 21.30458 -9.78514 43.40471 -17.91557 66.30037 -23.56392 2.75257 -0.66825 5.55287 -1.17739 8.32135 -1.782 -17.8042 -46.09363 -43.89792 -75.38544 -73.01472 -75.38544 -29.76914 0 -56.43566 30.5965 -74.23986 78.55169 z M 96.31808 797.22132 c 0.0477 -0.0637 0.0955 -0.12728 0.1432 -0.19092 16.738168 -20.97046 35.990268 -39.50656 56.57886 -56.41975 3.10261 -26.58697 8.27363 -51.37601 15.27438 -73.34885 -16.06993 -3.05488 -32.33077 -4.78916 -48.43252 -3.75496 -10.53297 0.70008 -21.00227 2.57755 -30.469193 6.53935 -9.466951 3.91406 -17.836038 10.13518 -23.18207 18.66338 -5.377853 8.49638 -7.398524 18.96569 -6.809823 29.43501 0.572786 10.50114 3.516284 21.00228 7.605366 30.99426 0.540965 1.32061 1.256949 2.56164 1.829747 3.86634 2.927582 -1.36834 6.157479 -2.17979 9.594217 -2.17979 12.569547 0 22.768365 10.19883 22.768365 22.76838 0 7.47808 -3.659478 14.06516 -9.228268 18.20197 1.40016 1.86156 2.89578 3.61176 4.32774 5.42558 z m 78.05846 145.50439 c -9.8647 -25.45729 -17.10412 -55.68785 -21.11366 -88.75051 -1.40015 -1.06602 -2.8162 -2.16387 -4.24818 -3.30945 -15.73579 -12.33088 -30.6124 -25.77553 -44.37525 -40.34983 -12.585458 15.3062 -23.993513 31.69433 -31.646616 49.65765 -8.178151 19.12479 -12.283148 41.60678 -1.527431 59.37915 5.01191 8.43274 13.556019 15.11529 23.13431 19.22027 9.657868 4.21637 20.365858 6.30068 31.13748 7.15987 16.13356 1.1933 32.48987 -0.11135 48.63935 -3.00715 z m 154.31898 -2.81621 c -1.09785 -0.25457 -2.19569 -0.4455 -3.27762 -0.70008 -23.19797 -5.72789 -45.66403 -13.81058 -67.46185 -23.43663 -21.44778 10.38977 -43.62746 19.25208 -66.61858 25.80734 -2.59347 0.71599 -5.25057 1.3206 -7.87586 1.97295 17.77238 44.45481 43.35696 72.60112 71.85324 72.60112 29.30772 0 55.56055 -29.64192 73.38067 -76.2447 z m 112.12351 -86.44344 c -8.28953 -17.69284 -20.25447 -33.66729 -33.39681 -48.51208 -10.37383 11.80581 -21.57506 22.76838 -33.28542 33.18996 8.87825 -8.71913 20.76362 -21.09774 31.98074 -34.70148 -0.68416 -0.76373 -1.32059 -1.55927 -2.02067 -2.32299 -13.58784 -14.95617 -28.78266 -28.49627 -44.59801 -41.12946 0.4455 6.04612 0.82736 12.12406 1.05012 18.31335 10.72388 1.84568 18.90204 11.12167 18.90204 22.37061 0 11.37624 -8.36909 20.71588 -19.25208 22.40243 -2.35481 43.5479 -10.38976 83.34084 -22.46607 115.89437 17.74055 2.87986 35.7516 4.02544 53.42851 2.08433 10.7398 -1.24105 21.35231 -3.69132 30.83517 -8.25772 9.45101 -4.43911 17.75645 -11.42397 22.49788 -20.04762 10.08745 -18.13834 5.15509 -40.4453 -3.6754 -59.28369 z" fill="#fff8eb"/>
 </g>
</svg>
