<svg xmlns="http://www.w3.org/2000/svg" width="512" height="512">
 <g transform="translate(0,-540.36217)">
  <path transform="matrix(3.0172415,0,0,3.0172415,-416.41383,53.258672)" d="m 305.71429 246.28572 a 82.85714 82.85714 0 0 1 -82.85714 82.85714 82.85714 82.85714 0 0 1 -82.85714 -82.85714 82.85714 82.85714 0 0 1 82.85714 -82.85714 82.85714 82.85714 0 0 1 82.85714 82.85714 z" fill="#cd1d31" fill-rule="evenodd"/>
  <path d="m 254.63467 636.7857 c -41.765 0 -84.0526 27.90004 -84.0526 70.21215 l 0 76.98274 -30.97264 0 0 171.95805 232.78114 0 0 -171.95805 -31.9078 0 0 -79.11491 c 0 -31.79994 -32.8841 -68.07998 -85.8481 -68.07998 z m -0.5985 38.56619 c 22.4892 -0.11779 46.9826 15.57942 46.9826 39.50134 l 0 69.12736 -92.2072 0 0.037 -0.0373 0 -68.7907 c 0 -25.94758 25.8407 -39.69926 45.1872 -39.8006 z m 1.0473 146.33453 c 12.8677 0 23.3044 10.43664 23.3044 23.3043 0 7.67401 -3.7396 14.45819 -9.4639 18.70329 l 9.2395 51.84552 -45.7483 0 9.1646 -51.58367 c -5.9213 -4.22465 -9.8005 -11.13684 -9.8005 -18.96514 0 -12.86766 10.4366 -23.3043 23.3042 -23.3043 z" fill="#fff" fill-rule="evenodd"/>
 </g>
</svg>
