<svg xmlns="http://www.w3.org/2000/svg" width="512" height="512">
 <g transform="matrix(1.0416667 0 0 1.0416667 -10.666676 -573.54395)">
  <path d="m 305.71429 246.28572 c 0 45.76074 -37.09641 82.85714 -82.85714 82.85714 -45.76074 0 -82.85714 -37.0964 -82.85714 -82.85714 0 -45.76073 37.0964 -82.85714 82.85714 -82.85714 45.76073 0 82.85714 37.09641 82.85714 82.85714 z" transform="matrix(2.8965518,0,0,2.8965517,-389.51727,82.982847)" fill="#6ea6c1" fill-rule="evenodd"/>
  <path d="m 392.00369 930.6356 c -10.8751 0.12679 -13.57224 -12.3209 -18.12924 -19.78969 -12.55978 -22.34575 -14.45625 -50.16831 -5.38151 -74.11135 4.34353 -13.04001 12.7205 -25.34727 11.48454 -39.66037 -0.17699 -18.92397 -6.52778 -37.1453 -6.78659 -56.06993 1.2102 -10.6154 11.28997 -20.86134 22.49786 -18.11699 9.43987 1.48987 16.68976 10.47075 15.68726 20.03297 1.19722 22.52229 -8.63358 45.20474 -1.60963 67.42624 5.20294 13.88587 13.25603 26.7391 16.27605 41.42365 4.3826 18.682 1.69573 38.52923 -6.24789 55.89317 -4.27375 8.24393 -5.95678 21.10891 -16.98907 22.74726 -3.55855 0.68592 -7.21158 0.53527 -10.80178 0.22504 z m -29.33922 -71.4277 c 0.0584 -2.08516 0.51283 1.56407 0 0 z" fill="#b3b3b3"/>
  <path d="m 409.48688 767.46452 c -0.95387 0.38444 -4.01585 0.49387 -14.6106 0.68444 -8.08737 0.14547 -15.44649 0.31061 -16.34263 0.36317 -0.91956 0.0252 -1.46398 0.0361 -1.81585 0.0559 0.61096 3.4578 1.21309 6.91027 1.73204 10.37827 0.60669 0.01 2.11527 -0.0594 3.85518 -0.19555 l 4.13455 -0.0419 0.75427 -0.0559 c 3.29803 0.12782 -0.27908 0.13985 10.76938 -0.22349 7.88587 -0.25935 9.53736 -0.27996 10.05701 0.18158 0.41968 -3.70894 0.94646 -7.43069 1.46665 -11.14651 z m -2.57013 22.26509 c -0.59281 -0.002 -1.50777 0.07 -2.90535 0.19556 -2.16111 0.19421 -5.31623 0.33468 -7.01197 0.30729 -5.1921 -0.14187 -9.02972 0.3204 -13.39538 0.19555 l -3.43614 -0.37713 -0.44697 0.014 c 0.13797 1.95298 0.23303 3.91397 0.25142 5.88055 0.1475 1.70819 0.15901 3.38677 0.0558 5.04247 l 8.59035 0.11175 c 4.74221 0.0604 11.06371 -0.0369 14.05188 -0.20953 2.84565 -0.16441 4.39904 -0.18391 5.18215 -0.0418 -0.53583 -3.69195 -0.69747 -7.39451 -0.62857 -11.10461 -0.0986 -0.007 -0.18316 -0.0136 -0.30729 -0.014 z" fill="#a80101"/>
  <path d="m 327.31577 962.71729 c -14.23083 0.16591 -17.76024 -16.12276 -23.72339 -25.8962 -16.43534 -29.24098 -18.91701 -65.64876 -7.04208 -96.97989 5.68381 -17.06377 16.64567 -33.16868 15.02832 -51.89838 -0.2316 -24.76334 -8.54205 -48.60722 -8.88073 -73.37143 1.58363 -13.89099 14.77372 -27.29852 29.44003 -23.70735 12.35274 1.9496 21.83973 13.70171 20.52789 26.21455 1.56664 29.47199 -11.29766 59.15357 -2.10632 88.23196 6.80841 18.17063 17.34644 34.98998 21.29835 54.20574 5.73494 24.44671 2.21898 50.4182 -8.1758 73.14013 -5.5925 10.78776 -7.79487 27.62249 -22.23139 29.76639 -4.65661 0.89757 -9.43686 0.70043 -14.13488 0.29448 z m -38.39244 -93.46816 c 0.0764 -2.72857 0.67109 2.0467 0 0 z" fill="#ccc"/>
  <path d="m 350.19374 749.1965 c -1.24821 0.50307 -5.25501 0.64625 -19.119 0.89563 -10.58288 0.19036 -20.2128 0.40645 -21.38547 0.47523 -1.20331 0.033 -1.91572 0.0473 -2.37616 0.0732 0.79948 4.52477 1.5874 9.04257 2.26649 13.58069 0.7939 0.0132 2.76798 -0.0778 5.04478 -0.25589 l 5.41035 -0.0548 0.98701 -0.0732 c 4.31571 0.16727 -0.3652 0.18301 14.09249 -0.29245 10.3192 -0.33937 12.4803 -0.36635 13.16029 0.23761 0.54919 -4.85341 1.23852 -9.72357 1.91922 -14.58599 z m -3.36319 29.13543 c -0.77573 -0.002 -1.97303 0.0916 -3.80186 0.25589 -2.82795 0.25414 -6.95666 0.43797 -9.17566 0.40212 -6.79421 -0.18565 -11.81601 0.41927 -17.52878 0.2559 l -4.49643 -0.49351 -0.5849 0.0183 c 0.18055 2.55562 0.30494 5.12171 0.329 7.69512 0.19302 2.23529 0.20807 4.43182 0.0731 6.59843 l 11.24108 0.14622 c 6.20551 0.0791 14.47764 -0.0482 18.38786 -0.27418 3.72375 -0.21515 5.75646 -0.24066 6.78122 -0.0548 -0.70118 -4.83118 -0.91269 -9.67624 -0.82253 -14.53116 -0.129 -0.01 -0.23969 -0.0179 -0.40212 -0.0183 z" fill="#c60000"/>
  <path d="m 122.01659 930.6356 c 10.8751 0.12679 13.57224 -12.3209 18.12924 -19.78969 12.55978 -22.34575 14.45625 -50.16831 5.38151 -74.11135 -4.34353 -13.04001 -12.7205 -25.34727 -11.48454 -39.66037 0.17699 -18.92397 6.52778 -37.1453 6.78659 -56.06993 -1.2102 -10.6154 -11.28997 -20.86134 -22.49786 -18.11699 -9.43987 1.48987 -16.68976 10.47075 -15.68726 20.03297 -1.19722 22.52229 8.63358 45.20474 1.60963 67.42624 -5.202941 13.88587 -13.256027 26.7391 -16.276048 41.42365 -4.382606 18.682 -1.695735 38.52923 6.24789 55.89317 4.273748 8.24393 5.956778 21.10891 16.989068 22.74726 3.55855 0.68592 7.21158 0.53527 10.80178 0.22504 z m 29.33922 -71.4277 c -0.0584 -2.08516 -0.51283 1.56407 0 0 z" fill="#b3b3b3"/>
  <path d="m 186.70451 962.71729 c 14.23083 0.16591 17.76024 -16.12276 23.72339 -25.8962 16.43534 -29.24098 18.91701 -65.64876 7.04208 -96.97989 -5.68381 -17.06377 -16.64567 -33.16868 -15.02832 -51.89838 0.2316 -24.76334 8.54205 -48.60722 8.88073 -73.37143 -1.58363 -13.89099 -14.77372 -27.29852 -29.44003 -23.70735 -12.35274 1.9496 -21.83973 13.70171 -20.52789 26.21455 -1.56664 29.47199 11.29766 59.15357 2.10632 88.23196 -6.80841 18.17063 -17.34644 34.98998 -21.29835 54.20574 -5.73494 24.44671 -2.21898 50.4182 8.1758 73.14013 5.5925 10.78776 7.79487 27.62249 22.23139 29.76639 4.65661 0.89757 9.43686 0.70043 14.13488 0.29448 z m 38.39244 -93.46816 c -0.0764 -2.72857 -0.67109 2.0467 0 0 z" fill="#ccc"/>
  <path d="m 163.82654 749.1965 c 1.24821 0.50307 5.25501 0.64625 19.119 0.89563 10.58288 0.19036 20.2128 0.40645 21.38547 0.47523 1.20331 0.033 1.91572 0.0473 2.37616 0.0732 -0.79948 4.52477 -1.5874 9.04257 -2.26649 13.58069 -0.7939 0.0132 -2.76798 -0.0778 -5.04478 -0.25589 l -5.41035 -0.0548 -0.98701 -0.0732 c -4.31571 0.16727 0.3652 0.18301 -14.09249 -0.29245 -10.3192 -0.33937 -12.4803 -0.36635 -13.16029 0.23761 -0.54919 -4.85341 -1.23852 -9.72357 -1.91922 -14.58599 z m 3.36319 29.13543 c 0.77573 -0.002 1.97303 0.0916 3.80186 0.25589 2.82795 0.25414 6.95666 0.43797 9.17566 0.40212 6.79421 -0.18565 11.81601 0.41927 17.52878 0.2559 l 4.49643 -0.49351 0.5849 0.0183 c -0.18055 2.55562 -0.30494 5.12171 -0.329 7.69512 -0.19302 2.23529 -0.20807 4.43182 -0.0731 6.59843 l -11.24108 0.14622 c -6.20551 0.0791 -14.47764 -0.0482 -18.38786 -0.27418 -3.72375 -0.21515 -5.75646 -0.24066 -6.78122 -0.0548 0.70118 -4.83118 0.91269 -9.67624 0.82253 -14.53116 0.129 -0.01 0.23969 -0.0179 0.40212 -0.0183 z" fill="#c60000"/>
  <path d="m 104.5334 767.46452 c 0.95387 0.38444 4.01585 0.49387 14.6106 0.68444 8.08737 0.14547 15.44649 0.31061 16.34263 0.36317 0.91956 0.0252 1.46398 0.0361 1.81585 0.0559 -0.61096 3.4578 -1.21309 6.91027 -1.73204 10.37827 -0.60669 0.01 -2.11527 -0.0594 -3.85518 -0.19555 l -4.13455 -0.0419 -0.75427 -0.0559 c -3.29803 0.12782 0.27908 0.13985 -10.76938 -0.22349 -7.88587 -0.25935 -9.53736 -0.27996 -10.05701 0.18158 -0.41968 -3.70894 -0.94646 -7.43069 -1.46665 -11.14651 z m 2.57013 22.26509 c 0.59281 -0.002 1.50777 0.07 2.90535 0.19556 2.16111 0.19421 5.31623 0.33468 7.01197 0.30729 5.1921 -0.14187 9.02972 0.3204 13.39538 0.19555 l 3.43614 -0.37713 0.44697 0.014 c -0.13797 1.95298 -0.23303 3.91397 -0.25142 5.88055 -0.1475 1.70819 -0.15901 3.38677 -0.0558 5.04247 l -8.59035 0.11175 c -4.74221 0.0604 -11.06371 -0.0369 -14.05188 -0.20953 -2.84565 -0.16441 -4.39904 -0.18391 -5.18215 -0.0418 0.53583 -3.69195 0.69747 -7.39451 0.62857 -11.10461 0.0986 -0.007 0.18316 -0.0136 0.30729 -0.014 z" fill="#a80101"/>
  <g transform="matrix(1.3248065,0,0,1.3248065,63.264698,-176.55734)">
   <path d="m 141.3257 876.06399 c -13.30408 0.15511 -16.60364 -15.0728 -22.17845 -24.20976 -15.36503 -27.33672 -17.68508 -61.37352 -6.58348 -90.66428 5.31366 -15.95253 15.56165 -31.00864 14.04963 -48.51861 -0.21652 -23.15068 -7.98577 -45.44178 -8.30239 -68.59327 1.4805 -12.98637 13.81161 -25.52076 27.52281 -22.16346 11.54829 1.82264 20.41746 12.80942 19.19105 24.50738 1.46462 27.55269 -10.56192 55.30132 -1.96915 82.48604 6.36503 16.98731 16.21679 32.71134 19.91134 50.67571 5.36147 22.85467 2.07448 47.13482 -7.64337 68.37703 -5.2283 10.08523 -7.28724 25.82364 -20.78361 27.82792 -4.35336 0.83912 -8.82231 0.65482 -13.21438 0.2753 z m -35.89221 -87.38124 c 0.0714 -2.55088 0.62738 1.91341 0 0 z" fill="#f9f9f9"/>
   <path d="m 162.71379 676.44829 c -1.16692 0.47031 -4.91279 0.60417 -17.87391 0.83731 -9.8937 0.17796 -18.89649 0.37998 -19.99279 0.44428 -1.12495 0.0308 -1.79096 0.0442 -2.22142 0.0684 0.74742 4.23011 1.48403 8.4537 2.11889 12.69628 0.7422 0.0123 2.58772 -0.0727 4.71625 -0.23923 l 5.05801 -0.0512 0.92274 -0.0684 c 4.03465 0.15637 -0.34142 0.17109 13.17474 -0.27341 9.64719 -0.31727 11.66755 -0.34249 12.30326 0.22214 0.51342 -4.53734 1.15786 -9.09035 1.79423 -13.63611 z m -3.14417 27.23805 c -0.72521 -0.002 -1.84454 0.0856 -3.55427 0.23923 -2.64379 0.23759 -6.50362 0.40944 -8.57811 0.37593 -6.35176 -0.17356 -11.04652 0.39196 -16.38726 0.23923 l -4.20361 -0.46137 -0.54681 0.0171 c 0.16879 2.38919 0.28508 4.78817 0.30758 7.19399 0.18045 2.08972 0.19452 4.14321 0.0683 6.16872 l 10.50903 0.1367 c 5.80139 0.0739 13.53481 -0.0451 17.19039 -0.25632 3.48124 -0.20114 5.38158 -0.22499 6.3396 -0.0512 -0.65551 -4.51656 -0.85325 -9.04609 -0.76896 -13.58485 -0.1206 -0.009 -0.22408 -0.0167 -0.37593 -0.0171 z" fill="#f00"/>
  </g>
 </g>
</svg>
