<svg xmlns="http://www.w3.org/2000/svg" xmlns:xlink="http://www.w3.org/1999/xlink" width="512" height="512">
 <defs>
  <linearGradient id="0">
   <stop stop-color="#aed758"/>
   <stop offset="1" stop-color="#81b416"/>
  </linearGradient>
  <radialGradient xlink:href="#0" id="1" gradientUnits="userSpaceOnUse" cx="202.85715" cy="-316.57144" r="360" gradientTransform="matrix(0.69444444,0,0,0.69444444,115.12698,475.84132)"/>
 </defs>
 <path d="m 506 256.00004 c 0 138.07119 -111.92881 250 -250 250 -138.07119 0 -250 -111.92881 -250 -250 C 6 117.92886 117.92881 6.00005 256 6.00005 c 138.07119 0 250 111.92881 250 249.99999 z" fill="url(#1)" fill-rule="evenodd"/>
 <path d="m 256.0938,117.37292 c -8.02979,0 -15.9799,0.75175 -23.63604,2.06343 l 0,29.45122 c -12.61801,2.80339 -24.3165,7.8961 -34.8912,14.6318 l -21.00984,-21.00975 c -13.12128,9.20534 -24.52534,20.67097 -33.76572,33.76572 l 21.00983,21.00976 c -6.7357,10.57486 -11.82857,22.27327 -14.6318,34.89128 l -29.63888,0 c -1.34939,7.76213 -2.06343,15.67568 -2.06343,23.82362 0,8.14811 0.71404,16.24894 2.06343,24.01115 l 29.63888,0 c 2.80323,12.61816 7.8961,24.31665 14.6318,34.89127 L 142.791,335.91218 c 9.25521,13.11563 20.80572,24.36537 33.95332,33.57821 l 20.82224,-20.82224 c 10.5747,6.73554 22.27319,11.82857 34.8912,14.63182 l 0,29.26361 c 7.65614,1.31153 15.60617,2.0635 23.63604,2.0635 8.25646,-8e-5 16.33894,-0.67832 24.1988,-2.0635 l 0,-29.26361 c 12.61801,-2.80325 24.3165,-7.89604 34.8912,-14.63182 l 20.44706,20.63458 c 13.11564,-9.25506 24.74048,-20.61806 33.95333,-33.76565 l -20.63458,-20.63466 c 6.73562,-10.57477 11.82841,-22.27311 14.63174,-34.89127 l 28.8885,0 c 1.34939,-7.76213 2.06343,-15.86328 2.06343,-24.01115 0,-8.14772 -0.71426,-16.06141 -2.06343,-23.82362 l -28.8885,0 c -2.80333,-12.61817 -7.89612,-24.31658 -14.63174,-34.89128 l 20.63458,-20.63458 C 360.38496,163.52228 348.9097,151.94516 335.81838,142.6972 l -20.63458,20.82217 c -10.5747,-6.73562 -22.27319,-11.82849 -34.8912,-14.6318 l 0,-29.26362 c -7.85986,-1.38503 -15.94234,-2.25103 -24.1988,-2.25103 z m -0.1876,74.84738 c 35.22096,1.4e-4 63.96731,28.55875 63.96731,63.7797 0,35.22104 -28.74635,63.77971 -63.96731,63.77971 -35.22095,1.6e-4 -63.7797,-28.55875 -63.7797,-63.77971 0,-35.2208 28.55875,-63.7797 63.7797,-63.7797 z" fill="#fff8eb"/>
 <path d="M 256 29.21875 C 130.76032 29.21875 29.21875 130.76032 29.21875 256 C 29.21875 381.23968 130.76032 482.78125 256 482.78125 C 381.23968 482.78125 482.78125 381.23968 482.78125 256 C 482.78125 130.76032 381.23968 29.21875 256 29.21875 z M 256 61 C 363.6888 61 451 148.3112 451 256 C 451 363.6888 363.6888 451 256 451 C 148.3112 451 61 363.6888 61 256 C 61 148.3112 148.3112 61 256 61 z" fill="#fff8eb" fill-rule="evenodd"/>
</svg>
