<svg xmlns="http://www.w3.org/2000/svg" xmlns:xlink="http://www.w3.org/1999/xlink" width="512" height="512">
 <defs>
  <linearGradient id="0">
   <stop stop-color="#d07299"/>
   <stop offset="1" stop-color="#924565"/>
  </linearGradient>
  <linearGradient id="1">
   <stop stop-color="#fff"/>
   <stop offset="1" stop-color="#dcdcdc"/>
  </linearGradient>
  <linearGradient xlink:href="#1" gradientUnits="userSpaceOnUse" y1="1014.7472" x2="0" y2="1033.9"/>
  <radialGradient xlink:href="#0" id="2" cx="256" cy="796.36221" r="250" gradientTransform="translate(0,4.5392646e-5)" gradientUnits="userSpaceOnUse"/>
 </defs>
 <g transform="translate(0,-540.36218)">
  <path d="M 506 796.36222 C 506 934.43341 394.07119 1046.3622 256 1046.3622 117.92881 1046.3622 6 934.43341 6 796.36222 6 658.29104 117.92881 546.36223 256 546.36223 c 138.07119 0 250 111.92881 250 249.99999 z" fill="url(#2)" fill-rule="evenodd"/>
  <path d="M 256 32.25 C 132.434 32.25 32.25 132.434 32.25 256 C 32.25 379.566 132.434 479.75 256 479.75 C 379.566 479.75 479.75 379.566 479.75 256 C 479.75 132.434 379.566 32.25 256 32.25 z M 331.6875 97.0625 C 363.87537 117.36595 397.43507 157.79727 397.75 209.78125 C 397.75638 239.38395 370.37418 263.243 338.8125 263.25 C 307.26735 263.25679 284.24865 241.77466 284.21875 212.1875 C 284.21237 182.58484 303.28205 162.28825 334.84375 162.28125 C 334.61355 153.5239 320.79248 126.75261 310.375 115.5625 L 331.6875 97.0625 z M 173.1875 97.09375 C 204.73266 97.08696 227.75125 118.60035 227.78125 148.1875 C 227.78762 177.7902 208.71797 198.08675 177.15625 198.09375 C 177.38645 206.8511 191.20752 233.62239 201.625 244.8125 L 180.3125 263.28125 C 148.12463 242.97779 114.56488 202.54651 114.25 150.5625 C 114.24362 120.95982 141.62582 97.10075 173.1875 97.09375 z M 251.90625 163.75 C 260.97827 163.74805 268.33507 171.08423 268.34375 180.15625 L 268.34375 180.1875 C 268.3457 189.26428 260.98303 196.62305 251.90625 196.625 C 242.82947 196.62695 235.4707 189.26428 235.46875 180.1875 C 235.4668 171.11072 242.82947 163.75195 251.90625 163.75 z M 70.6875 307.9375 L 212.09375 307.9375 C 234.40462 337.76412 265.32166 391.73799 331.34375 389.0625 C 314.8226 373.26567 292.60183 334.02662 319.875 307.9375 L 441.3125 307.9375 C 418.65522 388.98012 344.27841 448.40625 256 448.40625 C 167.72159 448.40625 93.34478 388.98012 70.6875 307.9375 z" transform="translate(0,540.36218)" fill="#fff8eb" fill-rule="evenodd"/>
 </g>
</svg>
