<?xml version="1.0" encoding="UTF-8" standalone="no"?>
<!-- Created with Inkscape (http://www.inkscape.org/) -->

<svg
   xmlns:dc="http://purl.org/dc/elements/1.1/"
   xmlns:cc="http://creativecommons.org/ns#"
   xmlns:rdf="http://www.w3.org/1999/02/22-rdf-syntax-ns#"
   xmlns:svg="http://www.w3.org/2000/svg"
   xmlns="http://www.w3.org/2000/svg"
   xmlns:sodipodi="http://sodipodi.sourceforge.net/DTD/sodipodi-0.dtd"
   xmlns:inkscape="http://www.inkscape.org/namespaces/inkscape"
   width="512"
   height="512"
   id="svg2"
   version="1.1"
   inkscape:version="0.48.4 r9939"
   sodipodi:docname="pithos.svg">
  <defs
     id="defs4" />
  <sodipodi:namedview
     id="base"
     pagecolor="#ffffff"
     bordercolor="#666666"
     borderopacity="1.0"
     inkscape:pageopacity="0.0"
     inkscape:pageshadow="2"
     inkscape:zoom="0.7"
     inkscape:cx="531.69855"
     inkscape:cy="151.60033"
     inkscape:document-units="px"
     inkscape:current-layer="layer1"
     showgrid="false"
     inkscape:window-width="1309"
     inkscape:window-height="750"
     inkscape:window-x="55"
     inkscape:window-y="-3"
     inkscape:window-maximized="1" />
  <metadata
     id="metadata7">
    <rdf:RDF>
      <cc:Work
         rdf:about="">
        <dc:format>image/svg+xml</dc:format>
        <dc:type
           rdf:resource="http://purl.org/dc/dcmitype/StillImage" />
        <dc:title />
      </cc:Work>
    </rdf:RDF>
  </metadata>
  <g
     inkscape:label="Layer 1"
     inkscape:groupmode="layer"
     id="layer1"
     transform="translate(0,-540.36218)">
    <path
       sodipodi:type="arc"
       style="fill:#f38725;fill-rule:evenodd;stroke:none"
       id="path2985"
       sodipodi:cx="202.85715"
       sodipodi:cy="-316.57144"
       sodipodi:rx="360"
       sodipodi:ry="360"
       d="m 562.85715,-316.57144 c 0,198.82251 -161.17749,359.999998 -360,359.999998 -198.8225127,0 -360,-161.177488 -360,-359.999998 0,-198.82251 161.1774873,-360 360,-360 198.82251,0 360,161.17749 360,360 z"
       transform="matrix(0.69444444,0,0,0.69444444,115.12698,1016.2035)" />
    <g
       id="g3011"
       transform="matrix(0.58908853,0,0,0.58908853,83.420196,230.95829)"
       style="fill:#fff8eb;stroke:#fff8eb">
      <path
         sodipodi:nodetypes="ccc"
         transform="translate(0,540.36218)"
         inkscape:connector-curvature="0"
         id="path2995"
         d="m 97.857143,109.85714 397.857147,0 c -84.77721,54.07844 -325.25982,48.21171 -397.857147,0 z"
         style="fill:#fff8eb;stroke:#fff8eb;stroke-width:1px;stroke-linecap:butt;stroke-linejoin:miter;stroke-opacity:1" />
      <path
         sodipodi:nodetypes="ccc"
         transform="translate(0,540.36218)"
         inkscape:connector-curvature="0"
         id="path2997"
         d="m 167.85714,172.71429 273.57143,0 c -67.51454,59.89518 -227.86152,57.0044 -273.57143,0 z"
         style="fill:#fff8eb;stroke:#fff8eb;stroke-width:1px;stroke-linecap:butt;stroke-linejoin:miter;stroke-opacity:1" />
      <path
         sodipodi:nodetypes="ccc"
         transform="translate(0,540.36218)"
         inkscape:connector-curvature="0"
         id="path2999"
         d="m 147.85714,249.85714 315,0 c -77.13615,44.89569 -262.5335,44.99078 -315,0 z"
         style="fill:#fff8eb;stroke:#fff8eb;stroke-width:1px;stroke-linecap:butt;stroke-linejoin:miter;stroke-opacity:1" />
      <path
         sodipodi:nodetypes="ccc"
         transform="translate(0,540.36218)"
         inkscape:connector-curvature="0"
         id="path3001"
         d="m 80.714286,324.85714 435.714284,0 c -75.87531,87.93702 -394.09548,74.22428 -435.714284,0 z"
         style="fill:#fff8eb;stroke:#fff8eb;stroke-width:1px;stroke-linecap:butt;stroke-linejoin:miter;stroke-opacity:1" />
      <path
         sodipodi:nodetypes="ccc"
         transform="translate(0,540.36218)"
         inkscape:connector-curvature="0"
         id="path3003"
         d="m 30.714286,416.28571 537.142854,0 c -73.86984,100.10669 -507.465137,90.35593 -537.142854,0 z"
         style="fill:#fff8eb;stroke:#fff8eb;stroke-width:1px;stroke-linecap:butt;stroke-linejoin:miter;stroke-opacity:1" />
      <path
         sodipodi:nodetypes="ccc"
         transform="translate(0,540.36218)"
         inkscape:connector-curvature="0"
         id="path3005"
         d="m 0,508.42857 600.71429,1.42857 C 528.274,623.31042 18.365761,609.4917 0,508.42857 z"
         style="fill:#fff8eb;stroke:#fff8eb;stroke-width:1px;stroke-linecap:butt;stroke-linejoin:miter;stroke-opacity:1" />
      <path
         sodipodi:nodetypes="cccc"
         transform="translate(0,540.36218)"
         inkscape:connector-curvature="0"
         id="path3007"
         d="m 83.571429,618.42857 440.000001,1.42857 C 445.4346,718.69197 87.310059,686.58199 79.285714,617 z"
         style="fill:#fff8eb;stroke:#fff8eb;stroke-width:1px;stroke-linecap:butt;stroke-linejoin:miter;stroke-opacity:1" />
      <path
         sodipodi:nodetypes="ccc"
         transform="translate(0,540.36218)"
         inkscape:connector-curvature="0"
         id="path3009"
         d="m 168.57143,721.28571 262.14286,0 c -54.99159,70.20463 -240.93784,53.62263 -262.14286,0 z"
         style="fill:#fff8eb;stroke:#fff8eb;stroke-width:1px;stroke-linecap:butt;stroke-linejoin:miter;stroke-opacity:1" />
    </g>
  </g>
</svg>
