<svg xmlns="http://www.w3.org/2000/svg" xmlns:xlink="http://www.w3.org/1999/xlink" width="512" height="512">
 <defs>
  <linearGradient id="0">
   <stop stop-color="#d77e69"/>
   <stop offset="1" stop-color="#ae4a32"/>
  </linearGradient>
  <radialGradient xlink:href="#0" id="1" cx="202.85715" cy="-316.57144" r="360" gradientUnits="userSpaceOnUse"/>
 </defs>
 <path d="m 562.85715 -316.57144 c 0 198.82251 -161.17749 360 -360 360 -198.82251 0 -360 -161.17749 -360 -360 0 -198.82251 161.17749 -360 360 -360 198.82251 0 360 161.17749 360 360 z" transform="matrix(0.69444444 0 0 0.69444444 115.12698 475.84132)" fill="url(#1)" fill-rule="evenodd"/>
 <path d="M 176.0625 89.1875 C 172.49162 89.18967 168.88856 90.0798 165.53125 91.90625 C 154.78786 97.75088 150.81162 111.19411 156.65625 121.9375 C 161.58765 131.00223 171.93464 135.24969 181.5 132.84375 L 227.78125 218.0625 C 223.86951 221.03068 220.44237 224.57718 217.5625 228.5625 L 217.53125 228.5625 L 200.28125 215.65625 C 203.93756 206.52525 201.21703 195.64608 193 189.5 C 189.32738 186.75296 185.07289 185.42364 180.8125 185.21875 C 173.71185 184.87703 166.60965 187.84769 162.03125 193.96875 C 154.70582 203.76252 156.70623 217.61206 166.5 224.9375 C 174.76349 231.11833 185.91066 230.82066 193.59375 224.6875 L 212 238.40625 C 209.82828 243.58025 208.51575 249.17783 208.21875 255.0625 C 208.27617 253.54479 208.38675 252.02432 208.59375 250.5625 L 110.03125 247.28125 C 107.84591 237.71464 99.42513 230.43365 89.15625 230.09375 C 76.932653 229.68915 66.68585 239.2764 66.28125 251.5 C 65.876646 263.7236 75.4639 273.93915 87.6875 274.34375 C 97.95602 274.68364 106.84274 267.99438 109.65625 258.59375 L 208.34375 261.90625 C 209.19105 271.81555 212.96324 280.86155 218.78125 288.21875 L 147.5625 350.59375 C 139.42188 345.04302 128.25579 345.45694 120.5 352.25 C 111.29973 360.30824 110.37926 374.29973 118.4375 383.5 C 126.49574 392.70027 140.48723 393.62074 149.6875 385.5625 C 157.42404 378.7863 159.29371 367.82135 154.90625 359.03125 L 226.625 296.125 C 234.32469 302.30089 243.90629 306.23221 254.40625 306.875 C 252.70609 306.77886 251.04689 306.59147 249.375 306.3125 L 248.71875 327.59375 C 239.05331 329.43747 231.46122 337.59916 230.78125 347.875 C 229.97371 360.0786 239.20265 370.62996 251.40625 371.4375 C 263.60985 372.24504 274.16121 363.0161 274.96875 350.8125 C 275.64943 340.52592 269.19779 331.40441 259.84375 328.3125 C 259.8465 328.23963 259.84126 328.16683 259.84375 328.09375 L 260.46875 306.875 C 266.30027 306.52918 271.8772 305.1878 277 303 L 325.875 385.1875 C 319.01594 392.20217 317.44885 403.18224 322.71875 412 C 328.993 422.49828 342.59547 425.9305 353.09375 419.65625 C 363.59203 413.382 366.993 399.77953 360.71875 389.28125 C 355.4195 380.41438 344.90518 376.59932 335.4375 379.40625 L 286.53125 297.5625 C 290.92914 294.38694 294.79291 290.51022 297.9375 286.09375 L 314.375 297.59375 C 310.91214 306.84149 313.99495 317.6241 322.46875 323.53125 C 332.50181 330.52537 346.28713 328.06431 353.28125 318.03125 C 360.27537 307.99819 357.81431 294.18162 347.78125 287.1875 C 339.36083 281.31756 328.29013 282.13149 320.8125 288.46875 L 303.34375 276.3125 C 305.25304 271.67608 306.47047 266.69114 306.875 261.46875 L 401.9375 264.9375 C 404.04972 274.55973 412.44845 281.92984 422.75 282.3125 C 434.97186 282.76649 445.23351 273.22186 445.6875 261 C 446.14149 248.77814 436.62811 238.51649 424.40625 238.0625 C 414.12785 237.6807 405.21625 244.37569 402.375 253.78125 L 306.46875 250.15625 C 304.9321 240.05869 300.33916 230.95368 293.65625 223.8125 L 361.78125 160.5 C 370.06827 165.73564 381.16568 164.98513 388.6875 158 C 397.64943 149.67751 398.16624 135.64943 389.84375 126.6875 C 381.52126 117.72557 367.52443 117.20876 358.5625 125.53125 C 351.00087 132.55335 349.4258 143.64058 354.125 152.3125 L 285.03125 216.40625 C 285.76819 216.89808 286.43623 217.41087 287.09375 217.9375 C 280.44543 212.96067 272.52255 209.6224 263.90625 208.5 L 264.875 181.65625 C 274.43282 179.49558 281.71436 171.12995 282.09375 160.875 C 282.54591 148.65307 273.00318 138.35841 260.78125 137.90625 C 248.55932 137.45409 238.29591 146.99682 237.84375 159.21875 C 237.46387 169.48704 244.13995 178.40099 253.53125 181.25 L 252.5625 208.3125 C 247.17722 208.84879 242.04324 210.274 237.3125 212.40625 L 191.28125 127.46875 C 198.44474 120.73973 200.479 109.78734 195.5625 100.75 C 191.54432 93.36392 183.91843 89.18272 176.0625 89.1875 z M 289.21875 219.59375 C 289.33032 219.65808 289.43489 219.72673 289.53125 219.8125 C 289.63377 219.89981 289.72432 220.01678 289.8125 220.125 C 289.61255 219.95232 289.42146 219.76327 289.21875 219.59375 z M 257.5 222.375 C 276.93409 222.375 292.71875 238.19091 292.71875 257.625 C 292.71875 277.05909 276.93409 292.875 257.5 292.875 C 238.0659 292.875 222.25 277.05909 222.25 257.625 C 222.25 238.19091 238.0659 222.375 257.5 222.375 z M 257.5 232.75 C 243.77683 232.75 232.59375 243.90184 232.59375 257.625 C 232.59375 271.34816 243.77683 282.5 257.5 282.5 C 271.22316 282.5 282.375 271.34816 282.375 257.625 C 282.375 243.90184 271.22316 232.75 257.5 232.75 z" transform="matrix(1 0 0 1 0 0)" fill="#fff8eb" fill-rule="evenodd"/>
</svg>
