<svg xmlns="http://www.w3.org/2000/svg" xmlns:xlink="http://www.w3.org/1999/xlink" height="512" width="512">
 <defs>
  <linearGradient id="0">
   <stop stop-color="#b94a4e"/>
   <stop offset="1" stop-color="#9a3034"/>
  </linearGradient>
  <radialGradient xlink:href="#0" id="1" cx="222.85715" cy="246.28572" r="82.85714" gradientUnits="userSpaceOnUse"/>
 </defs>
 <g transform="translate(0,-540.36217)">
  <path d="m 305.71429 246.28572 a 82.85714 82.85714 0 1 1 -165.71428 0 82.85714 82.85714 0 1 1 165.71428 0 z" transform="matrix(3.0172416,0,0,3.0172415,-416.41385,53.258684)" fill="url(#1)" fill-rule="evenodd"/>
  <path d="m 399.22917 794.70201 c -24.92924 0.36101 -49.85129 9.79517 -67.48047 27.57162 -29.80388 34.95961 -32.53795 88.71414 -13.86719 129.85026 15.72596 33.61263 53.1396 46.15165 87.79297 44.4987 26.24257 -19.64472 48.46932 -44.33826 65.29948 -72.6237 l -32.9427 -8.75651 c -3.43079 17.56725 -16.27668 44.94045 -40.33204 40.85287 -23.48983 -0.91423 -38.15101 -24.22068 -39.0625 -46.45183 -2.08374 -24.93702 0.93007 -58.73814 27.2461 -69.23828 21.25011 -8.82309 48.05783 5.75 49.08854 30.17578 l 48.11198 -11.84896 c -5.39448 -20.6447 -16.70042 -40.62475 -35.02604 -51.79036 -14.71095 -8.48315 -31.77129 -12.48659 -48.82813 -12.23959 z" fill="#fff8eb"/>
  <path d="m 156.01129 828.92019 c -1.49691 -14.25977 39.88183 -2.60236 26.52064 -27.11976 -5.11877 -15.35628 -10.23752 -30.71256 -15.35629 -46.06886 -26.05018 0 -52.10036 0 -78.15055 0 -5.670313 18.32954 -13.719313 36.27137 -17.599407 54.89148 0.419896 12.67066 43.792419 10.90481 25.13421 18.29714 -23.18636 0 -46.37271 0 -69.55907 0 0.814792 -12.80361 30.772574 -6.92912 31.01214 -27.29067 25.22319 -67.81319 50.4464 -135.62635 75.66959 -203.43954 6.40565 0.70782 16.91962 -5.19981 20.64827 -0.18129 23.88762 67.77724 46.73514 135.97239 71.2929 203.48032 2.47384 17.96839 29.64978 14.76857 30.86684 27.43118 -33.49308 0 -66.98619 0 -100.47927 0 z M 93.98703 740.84576 c 22.742215 0 45.48445 0 68.22668 0 -10.75086 -32.66611 -21.50175 -65.33221 -32.25261 -97.99831 -11.99136 32.6661 -23.98271 65.3322 -35.974065 97.99831 z" fill="#fff8eb"/>
  <path d="m 294.9974 685.22935 c -25.39374 -0.25931 -50.38345 6.88266 -75.06511 12.3698 -23.84516 -9.93493 -20.31965 32.77493 -1.43229 28.74349 4.57869 25.66309 4.81049 51.96891 2.24609 77.86458 3.80034 21.48829 -24.30249 35.82717 -5.40364 53.35287 -1.77137 19.99927 22.23276 28.77676 27.11588 7.1289 23.69332 11.85432 51.99689 16.38442 77.9948 11.42579 29.81401 -7.65863 48.15722 -37.42333 49.47916 -66.99219 -0.50805 -23.36216 -23.86561 -34.39518 -44.10807 -36.65365 7.97451 -7.0516 34.55077 -28.42579 31.05469 -50.55339 0.28534 -23.13689 -24.32179 -34.15274 -44.23828 -35.1888 -5.90055 -0.95782 -11.78314 -1.43755 -17.64323 -1.4974 z m 10.64453 21.48438 c 18.70587 -0.34059 30.52247 15.32258 23.30729 32.91016 -10.91669 25.01776 -41.74655 29.05968 -65.95052 29.7526 -26.79102 7.38769 -12.85502 -22.16006 -15.23438 -38.21615 -1.85973 -26.72373 38.83297 -22.84864 57.87761 -24.44661 z m -10.67709 80.89193 c 15.35525 -0.0166 30.20991 3.13224 41.92709 13.93229 15.23679 20.08386 -3.96756 44.58641 -23.63281 52.27865 -24.01052 8.20569 -50.01595 1.19017 -70.80079 -11.97917 7.2006 -15.18947 -7.20794 -46.28152 12.4349 -49.83724 12.57431 -1.90926 26.52286 -4.37993 40.07161 -4.39453 z" fill="#fff8eb"/>
 </g>
</svg>
