<?xml version="1.0" encoding="UTF-8" standalone="no"?>
<!-- Created with Inkscape (http://www.inkscape.org/) -->

<svg
   xmlns:dc="http://purl.org/dc/elements/1.1/"
   xmlns:cc="http://creativecommons.org/ns#"
   xmlns:rdf="http://www.w3.org/1999/02/22-rdf-syntax-ns#"
   xmlns:svg="http://www.w3.org/2000/svg"
   xmlns="http://www.w3.org/2000/svg"
   xmlns:xlink="http://www.w3.org/1999/xlink"
   xmlns:sodipodi="http://sodipodi.sourceforge.net/DTD/sodipodi-0.dtd"
   xmlns:inkscape="http://www.inkscape.org/namespaces/inkscape"
   width="512"
   height="512"
   id="svg2"
   version="1.1"
   inkscape:version="0.48.4 r9939"
   sodipodi:docname="preferences-system-session-services.svg">
  <defs
     id="defs4">
    <linearGradient
       gradientUnits="userSpaceOnUse"
       y2="508.06845"
       x2="415.96918"
       y1="538.76459"
       x1="415.96918"
       id="linearGradient4280"
       xlink:href="#linearGradient4282"
       inkscape:collect="always" />
    <linearGradient
       y2="-1004.7695"
       x2="-13.025376"
       y1="-1052.8632"
       x1="-13.025376"
       gradientTransform="translate(432.1173,504.8513)"
       gradientUnits="userSpaceOnUse"
       id="linearGradient4264"
       xlink:href="#linearGradient4266"
       inkscape:collect="always" />
    <linearGradient
       id="linearGradient4266"
       inkscape:collect="always">
      <stop
         id="stop4268"
         offset="0"
         style="stop-color:#025ed9;stop-opacity:1" />
      <stop
         id="stop4272"
         offset="1"
         style="stop-color:#49c7f5;stop-opacity:1" />
    </linearGradient>
    <linearGradient
       inkscape:collect="always"
       id="linearGradient4282">
      <stop
         style="stop-color:#bad7fe;stop-opacity:1"
         offset="0"
         id="stop4284" />
      <stop
         style="stop-color:#f6fcfe;stop-opacity:1"
         offset="1"
         id="stop4286" />
    </linearGradient>
    <linearGradient
       inkscape:collect="always"
       xlink:href="#linearGradient4266"
       id="linearGradient3037"
       gradientUnits="userSpaceOnUse"
       gradientTransform="matrix(13.023803,0,0,13.023803,1906.6567,12838.849)"
       x1="-13.025376"
       y1="-1052.8632"
       x2="-13.025376"
       y2="-1004.7695" />
  </defs>
  <sodipodi:namedview
     id="base"
     pagecolor="#ffffff"
     bordercolor="#666666"
     borderopacity="1.0"
     inkscape:pageopacity="0.0"
     inkscape:pageshadow="2"
     inkscape:zoom="0.7"
     inkscape:cx="433.85311"
     inkscape:cy="328.28079"
     inkscape:document-units="px"
     inkscape:current-layer="layer1"
     showgrid="false"
     inkscape:window-width="1309"
     inkscape:window-height="750"
     inkscape:window-x="55"
     inkscape:window-y="-3"
     inkscape:window-maximized="1" />
  <metadata
     id="metadata7">
    <rdf:RDF>
      <cc:Work
         rdf:about="">
        <dc:format>image/svg+xml</dc:format>
        <dc:type
           rdf:resource="http://purl.org/dc/dcmitype/StillImage" />
        <dc:title />
      </cc:Work>
    </rdf:RDF>
  </metadata>
  <g
     inkscape:label="Layer 1"
     inkscape:groupmode="layer"
     id="layer1"
     transform="translate(0,-540.36218)">
    <path
       sodipodi:type="arc"
       style="fill:#e4a146;fill-rule:evenodd;stroke:none"
       id="path2985"
       sodipodi:cx="202.85715"
       sodipodi:cy="-316.57144"
       sodipodi:rx="360"
       sodipodi:ry="360"
       d="m 562.85715,-316.57144 c 0,198.82251 -161.17749,359.999998 -360,359.999998 -198.8225127,0 -360,-161.177488 -360,-359.999998 0,-198.82251 161.1774873,-360 360,-360 198.82251,0 360,161.17749 360,360 z"
       transform="matrix(0.69444444,0,0,0.69444444,115.12698,1016.2035)" />
    <g
       id="g3010"
       transform="translate(2.3492261,16.529738)"
       style="stroke:none">
      <path
         style="fill:#32465c;stroke:none"
         d="m 173.8393,677.78243 c 54.49511,64.26472 157.246,60.71683 241.94957,84.63172 -88.70261,47.57076 -176.95365,64.06541 -272.85186,56.22787 z"
         id="path3008"
         inkscape:connector-curvature="0"
         sodipodi:nodetypes="cccc" />
      <path
         sodipodi:nodetypes="cccc"
         transform="translate(0,540.36218)"
         inkscape:connector-curvature="0"
         id="path3006"
         d="m 163.64471,121.07096 c 68.38548,49.22497 162.5469,37.62542 250.51783,40.40611 -74.61147,67.5593 -160.6109,105.19129 -255.56859,120.71323 z"
         style="fill:#0078ad;stroke:none" />
      <rect
         rx="12.879445"
         ry="10.466367"
         y="617.36218"
         x="140"
         height="359.28571"
         width="27.142859"
         id="rect3004"
         style="fill:#282629;fill-opacity:1;fill-rule:evenodd;stroke:none" />
    </g>
    <path
       style="fill:#282629;fill-rule:evenodd;stroke:none"
       d="m 256,570.60584 c -124.68179,0 -225.756339,101.07455 -225.756339,225.75634 0,124.68179 101.074549,225.75632 225.756339,225.75632 124.68179,0 225.75634,-101.07453 225.75634,-225.75632 C 481.75634,671.68039 380.68179,570.60584 256,570.60584 z m 0,23.70442 c 111.58323,0 202.05192,90.46869 202.05192,202.05192 0,111.58323 -90.46869,202.05192 -202.05192,202.05192 -111.58323,0 -202.051923,-90.46869 -202.051923,-202.05192 0,-111.58323 90.468693,-202.05192 202.051923,-202.05192 z"
       id="path3783"
       inkscape:connector-curvature="0" />
  </g>
</svg>
