<svg xmlns="http://www.w3.org/2000/svg" xmlns:xlink="http://www.w3.org/1999/xlink" width="512" height="512">
 <defs>
  <linearGradient y2="7.01654" x2="0" y1="92.5396" gradientTransform="scale(1.0058652,0.994169)" gradientUnits="userSpaceOnUse" xlink:href="#1"/>
  <filter x="-0.192" y="-0.192" width="1.384" height="1.384" color-interpolation-filters="sRGB">
   <feGaussianBlur stdDeviation="5.28"/>
  </filter>
  <clipPath>
   <rect width="84" height="84" rx="6" x="6" y="6" fill="#fff"/>
  </clipPath>
  <linearGradient id="0">
   <stop stop-color="#fff"/>
   <stop offset="1" stop-color="#fff" stop-opacity="0"/>
  </linearGradient>
  <linearGradient y1="20.220806" x2="0" y2="138.66119" xlink:href="#0" gradientUnits="userSpaceOnUse"/>
  <filter color-interpolation-filters="sRGB">
   <feGaussianBlur stdDeviation="1.71"/>
  </filter>
  <linearGradient y1="92.5396" x2="0" y2="7.01654" id="1" gradientUnits="userSpaceOnUse" gradientTransform="scale(1.0058652,0.994169)">
   <stop/>
   <stop offset="1" stop-opacity="0.588235"/>
  </linearGradient>
 </defs>
 <g transform="translate(0,-540.36217)">
  <path d="M 228.6875 7.46875 C 227.26836 7.623055 225.8494 7.79078 224.4375 7.96875 C 225.85284 7.790485 227.26488 7.623225 228.6875 7.46875 z M 210 10.21875 C 208.17809 10.557763 206.37027 10.934178 204.5625 11.3125 C 206.36995 10.934228 208.17841 10.55761 210 10.21875 z M 306 11 C 309.30607 15.626545 312.63897 20.734916 317.375 28.03125 C 333.0017 52.10567 345.03713 68.79581 356.40625 94.46875 L 156.6875 94.46875 C 164.84838 71.98108 174.26844 54.88906 189.40625 32.78125 C 195.83244 23.396157 200.03901 16.940637 204.03125 11.40625 C 134.80071 26.05238 76.16058 69.38412 41.0625 128.34375 C 18.813976 165.71801 6 209.34698 6 256 C 6 329.67691 37.88609 395.90196 88.59375 441.65625 C 88.11718 431.6243 87.78701 421.51835 87.59375 411.34375 C 89.61379 395.69369 91.91889 380.02506 99.09375 364.375 C 106.03935 347.68856 116.30815 333.43632 139.625 328.65625 L 158.5625 387.28125 C 123.67129 405.71513 118.93244 442.1279 118.34375 464.71875 C 155.22214 489.09085 198.94129 503.92887 246 505.78125 L 246 326.125 L 269.65625 326.125 L 269.65625 505.625 C 315.32802 503.16772 357.73108 488.46089 393.65625 464.71875 C 393.06756 442.1279 388.32872 405.71513 353.4375 387.28125 L 372.375 328.65625 C 395.69181 333.43632 405.96067 347.68856 412.90625 364.375 C 420.08106 380.02506 422.38611 395.69369 424.40625 411.34375 C 424.21298 421.51835 423.88282 431.6243 423.40625 441.65625 C 474.11391 395.90196 506 329.67691 506 256 C 506 209.34698 493.18602 165.71801 470.9375 128.34375 C 435.50506 68.82245 376.09248 25.23307 306 11 z M 269.65625 505.625 C 268.01852 505.71311 266.36596 505.78584 264.71875 505.84375 C 266.36269 505.78734 268.02052 505.71301 269.65625 505.625 z M 99.34375 450.8125 C 100.51434 451.75501 101.68721 452.70329 102.875 453.625 C 101.6882 452.70296 100.51339 451.75531 99.34375 450.8125 z M 412.65625 450.8125 C 411.48661 451.75531 410.3118 452.70296 409.125 453.625 C 410.31279 452.70329 411.48566 451.75501 412.65625 450.8125 z M 103.40625 454.03125 C 104.52663 454.89586 105.6459 455.74784 106.78125 456.59375 C 105.64794 455.74835 104.52459 454.89533 103.40625 454.03125 z M 408.59375 454.03125 C 407.47541 454.89533 406.35206 455.74835 405.21875 456.59375 C 406.3541 455.74784 407.47337 454.89586 408.59375 454.03125 z" transform="translate(0,540.36217)" fill="#99c1c3" fill-rule="evenodd"/>
  <text y="1089.8812" x="-1160.4812" font-family="Gentium Book Basic" word-spacing="0" line-height="125%" letter-spacing="0" font-size="208.33333"><tspan y="1089.8812" x="-1160.4812"/>
  </text>
  <text transform="scale(4.0128362,0.2492003)" font-size="75.69771" y="3810.6255" x="28.533577" font-family="Arial" text-anchor="middle"/>
  <path d="m 139.625 869.01842 c -23.31685 4.78007 -33.58565 19.03231 -40.53125 35.71875 -7.174858 15.65006 -9.47996 31.31869 -11.5 46.96875 0.193257 10.1746 0.523427 20.28055 1 30.3125 9.31205 8.40241 19.24818 16.12208 29.75 23.06248 0.58869 -22.59083 5.32754 -59.0036 40.21875 -77.43748 l -18.9375 -58.625 z" fill="#b93d48" fill-rule="evenodd"/>
  <path d="m 372.375 869.01842 -18.9375 58.625 c 34.89122 18.43388 39.63006 54.84665 40.21875 77.43748 10.50182 -6.9404 20.43795 -14.66007 29.75 -23.06248 0.47657 -10.03195 0.80673 -20.1379 1 -30.3125 -2.02014 -15.65006 -4.32519 -31.31869 -11.5 -46.96875 -6.94558 -16.68644 -17.21444 -30.93868 -40.53125 -35.71875 z" fill="#b93d48" fill-rule="evenodd"/>
  <path d="m 252.82549 501.714 c -0.20796 0.10165 -0.41554 0.26367 -0.62596 0.4024 0.21945 -0.14803 0.40992 -0.29471 0.62596 -0.4024 z m -3.80047 3.17451 c -0.65872 0.63119 -1.21415 1.13686 -2.14615 2.01201 -9.69101 9.10002 -16.83595 15.92582 -22.44512 21.50619 5.60965 -5.57946 12.75411 -12.36146 22.44512 -21.46148 0.90728 -0.85195 1.49882 -1.43534 2.14615 -2.05672 z m 90.00407 97.02376 c 1.36275 2.23138 2.70568 4.47618 4.02403 6.75143 -1.3126 -2.26512 -2.66742 -4.53012 -4.02403 -6.75143 z m -182.28842 32.9076 c -5.05364 13.91841 -9.6524 29.88223 -14.84419 50.38976 -9.63808 38.07025 -12.53276 77.06639 -12.07208 107.30739 2.34856 60.20789 15.80764 114.99083 35.32201 165.47694 l 183.85333 0 c 0.002 -0.005 0.043 0.005 0.0447 0 18.48913 -51.008 30.96963 -105.99488 35.54557 -166.28174 -0.0991 -40.07784 -2.36854 -79.99532 -12.11679 -112.40449 -5.42794 -18.04593 -10.69186 -32.28465 -16.09611 -44.48786 l -199.63645 0 z m 187.47495 336.05097 c -2.70628 6.9944 -5.52308 13.89907 -8.45046 20.7461 2.9269 -6.84023 5.74441 -13.75886 8.45046 -20.7461 z m -8.45046 20.7461 c -1.56993 3.67204 -3.19651 7.32364 -4.82883 10.95426 l 0.0447 0 c 1.62988 -3.62522 3.21546 -7.28827 4.78412 -10.95426 z" fill="#fd9" fill-rule="evenodd"/>
  <path transform="matrix(2.1751204,0,0,2.1751204,-2078.3931,427.40962)" d="m 1103.5917 150.36539 c 0 16.73675 -13.5678 30.30457 -30.3046 30.30457 -16.7367 0 -30.3046 -13.56782 -30.3046 -30.30457 0 -16.73676 13.5679 -30.30458 30.3046 -30.30458 16.7368 0 30.3046 13.56782 30.3046 30.30458 z" fill="#62c0dc" fill-rule="evenodd"/>
  <path d="m 1103.5917 150.36539 c 0 16.73675 -13.5678 30.30457 -30.3046 30.30457 -16.7367 0 -30.3046 -13.56782 -30.3046 -30.30457 0 -16.73676 13.5679 -30.30458 30.3046 -30.30458 16.7368 0 30.3046 13.56782 30.3046 30.30458 z" transform="matrix(1.4033036,0,0,1.4033036,-1250.0119,543.46418)" fill="#0078ad" fill-rule="evenodd"/>
  <path d="m 165.15491 958.00778 c 5.88731 15.23471 12.29916 30.09467 19.15333 44.57512 l 146.64526 0 c 6.52925 -14.52262 12.56293 -29.37359 18.07387 -44.57512 l -183.87246 0 z" fill="#cfce95" fill-rule="evenodd"/>
  <path d="M 256 6 C 238.17917 6 220.79471 7.859842 204.03125 11.40625 C 200.03901 16.940637 195.83244 23.396157 189.40625 32.78125 C 174.26844 54.88906 164.84838 71.98108 156.6875 94.46875 L 356.40625 94.46875 C 345.03713 68.79581 333.0017 52.10567 317.375 28.03125 C 312.63897 20.734916 309.30607 15.626545 306 11 C 289.84942 7.720441 273.11971 6 256 6 z" transform="translate(0,540.36217)" fill="#b93d48" fill-rule="evenodd"/>
  <path d="m 246 866.48717 0 179.65623 c 3.31926 0.1307 6.64871 0.2188 10 0.2188 4.57938 0 9.13751 -0.1319 13.65625 -0.375 l 0 -179.50003 -23.65625 0 z" fill="#b93d48" fill-rule="evenodd"/>
 </g>
</svg>
