<svg xmlns="http://www.w3.org/2000/svg" width="512" height="512">
 <path d="m 506 256.00004 c 0 138.07119 -111.92881 250 -250 250 -138.07119 0 -250 -111.92881 -250 -250 C 6 117.92886 117.92881 6.00005 256 6.00005 c 138.07119 0 250 111.92881 250 249.99999 z" fill="#cea86b" fill-rule="evenodd"/>
 <path d="m 838.137 228.94716 a 74.64579 74.64579 0 1 1 -149.29158 0 74.64579 74.64579 0 1 1 149.29158 0 z" transform="matrix(0.57079653,0,0,0.57079653,-203.13992,104.32445)" fill="#cd1d31" fill-rule="evenodd"/>
 <path d="m 311.37198 320.64178 c -20.72007 19.05644 -48.36031 30.71326 -78.73036 30.71326 -1.93437 0 -3.84198 -0.0395 -5.75321 -0.1327 2.11574 2.20242 4.33171 4.34071 6.63832 6.41704 30.69194 27.62769 76.7201 41.45855 131.79259 35.53708 a 35.407934 35.407934 0 1 0 -7.56767 -70.41034 c -19.05221 2.04852 -34.20336 0.92758 -46.37967 -2.12426 z" color="#000" stroke-width="8.7" fill="#5c805a" stroke="#fff8eb"/>
 <path d="m 232.64162 118.66011 c -62.56684 0 -113.56852 49.38686 -116.2147 111.30235 -0.25558 1.78489 -0.3983 3.62469 -0.3983 5.48767 l 0 122.27768 c 0 19.87176 15.08581 35.89114 33.81113 35.89114 18.72532 0 33.81113 -16.01938 33.81113 -35.89114 l 0 -17.17109 c 14.89988 6.93293 31.47399 10.79832 48.99074 10.79832 64.26022 0 116.39172 -52.08725 116.39172 -116.34746 0 -64.26022 -52.1315 -116.34747 -116.39172 -116.34747 z" fill="#f38725" fill-rule="evenodd" stroke="#fff8eb" stroke-width="14.16173"/>
 <path d="m 339.87246 115.69501 c -40.06652 0.3376 -74.84899 13.62779 -100.14998 35.36007 -21.92 18.82816 -36.64372 43.18654 -43.94562 69.2597 -0.008 0.0313 -0.0355 0.0572 -0.0442 0.0885 -1.71992 4.17742 -2.69957 8.74427 -2.69957 13.54215 0 19.67168 15.95391 35.6256 35.6256 35.6256 17.5291 0 32.12827 -12.66441 35.09454 -29.34133 3.62813 -13.41024 11.09153 -26.00706 22.08344 -35.44858 15.21027 -13.06478 37.22184 -21.72285 71.87078 -17.17111 a 35.407865 35.407865 0 1 0 9.20512 -70.18906 c -6.4263 -0.84421 -12.73168 -1.37901 -18.94131 -1.5932 -2.71667 -0.0938 -5.42763 -0.15534 -8.09874 -0.13269 z" color="#000" stroke-width="8.7" fill="#5c805a" stroke="#fff8eb"/>
 <path transform="matrix(1.7702162,0,0,1.7702162,-1167.3077,-133.03198)" d="m 867.19375 154.30138 a 5.510763 5.510763 0 1 1 -11.02153 0 5.510763 5.510763 0 1 1 11.02153 0 z" fill="#fff8eb" fill-rule="evenodd"/>
 <path d="m 398.59938 157.42786 -1.6817 1.37191 c -14.07784 6.4597 -33.12723 7.17859 -49.87584 4.02724 3.49756 9.44338 15.59354 11.62728 25.4026 13.0996 6.56954 0 12.97224 0.47732 19.2511 -1.6817 a 35.407865 35.407865 0 0 0 6.90384 -16.81705 z" fill="#fff8eb"/>
 <path d="M 256 26.03914 C 128.99612 26.03914 26.03914 128.99613 26.03914 256 26.03914 383.00388 128.99612 485.96086 256 485.96086 383.00388 485.96086 485.96086 383.00388 485.96086 256 485.96086 128.99613 383.00388 26.03914 256 26.03914 z m 0 21.18514 C 371.29665 47.22428 464.77572 140.70335 464.77572 256 464.77572 371.29665 371.29665 464.77572 256 464.77572 140.70335 464.77572 47.22428 371.29665 47.22428 256 47.22428 140.70335 140.70335 47.22428 256 47.22428 z" fill="#fff8eb" fill-rule="evenodd"/>
</svg>
