<svg xmlns="http://www.w3.org/2000/svg" width="512" height="512">
 <path d="m 506 256.00004 a 250 250 0 0 1 -500 0 250 250 0 1 1 500 0 z" fill="#282629" fill-rule="evenodd"/>
 <path d="m 267.46157 154.80018 c -5.93618 10.45048 -8.84856 16.8791 -10.28433 20.73215 -0.65543 1.75919 -0.92565 3.68313 -1.11539 3.68571 -0.18973 0.003 -0.47859 -1.86202 -1.11499 -3.57035 -1.43577 -3.85305 -4.34854 -10.28204 -10.28472 -20.73214 l -3.46948 1.72749 c 5.87353 10.3399 8.69907 16.56618 10.03691 20.15643 0.60349 1.61914 1.37827 2.75342 0.99128 3.225 -0.387 0.47159 -1.24485 0.11426 -2.97384 1.49714 -1.72899 1.38288 -3.71413 4.66354 -4.21294 8.75357 -9.59995 -0.13821 -12.77125 -0.33503 -12.88663 -0.34535 -0.92269 -0.92069 -2.05314 -1.9162 -3.96512 -3.34036 -2.28787 -1.70391 -5.28352 -3.63448 -8.30216 -5.52857 -3.01865 -1.89409 -6.08368 -3.70451 -8.92152 -4.9525 -2.83744 -1.24798 -6.73991 -1.77577 -7.80613 -1.4975 -1.06661 0.27827 0.15623 -0.0136 -0.1241 0 -0.27994 0.0136 -0.45917 -0.014 -1.2391 0 -0.77955 0.014 -2.52063 -0.0184 -4.33665 0 -3.63205 0.0369 -8.64396 0.12937 -14.62137 0.34572 -11.95523 0.43196 -27.67018 1.52773 -43.49259 4.14643 -15.82201 2.6187 -31.76475 6.70505 -44.23592 13.59107 -12.434927 6.86575 -21.579004 16.7066 -22.923336 30.06142 -0.0039 0.0387 0.0038 0.0763 0 0.11536 -0.01 0.0999 -0.03894 0.31476 0 0.69107 0.0454 0.4386 0.228747 1.03938 0.495639 1.7275 0.533784 1.37587 1.610432 3.26443 3.841207 5.41357 4.461551 4.29792 13.343613 9.94443 31.596911 16.47036 0 0 3.25616 1.27894 5.94788 3.225 1.34615 0.97302 2.44687 2.15282 2.97384 3.11 0.52736 0.95681 0.61974 1.46765 0 2.41857 l 0 0.11536 c 0 0 -0.43537 0.64574 -0.61936 1.49714 -0.18398 0.8514 -0.21094 2.00908 0.12372 3.45535 0.6697 2.89255 2.87034 6.69732 8.54998 11.40287 0.002 0.001 0.39215 0.29559 0.49564 0.34535 0.10349 0.0498 0.18477 0.094 0.24782 0.11536 0.1253 0.0424 0.18477 -0.0136 0.24782 0 0.12609 0.0269 0.17288 0.10504 0.24782 0.115 0.14948 0.0199 0.20856 -0.0155 0.37153 0 0.32593 0.031 0.86122 0.0604 1.36321 0.11536 1.00396 0.10946 2.3303 0.24584 3.71729 0.57571 2.7736 0.66011 5.53769 2.02345 6.69114 4.03143 0.62134 1.08139 1.5805 1.32944 2.4782 1.6125 0.8977 0.2827 1.86995 0.44524 2.97384 0.57571 2.20738 0.26132 4.86639 0.41133 7.43459 0.46071 2.56781 0.0498 5.04284 0.0217 6.81485 0.11537 0.60666 0.0317 0.98256 0.0682 1.36321 0.11499 0.1019 0.6767 0.24782 1.96006 0.24782 4.14643 0 1.33754 -0.10032 2.76428 -0.37193 3.80108 -0.27121 1.03642 -0.66297 1.60549 -0.86717 1.72749 l -0.24782 0.11536 -0.12411 0.115 c 0 0 -2.61936 2.48896 -3.59319 6.68035 -0.97423 4.1914 -0.19112 10.24002 5.82357 16.70108 5.92389 6.36265 16.77879 14.69347 26.2689 22.45964 4.74506 3.88327 9.14198 7.62095 12.26729 10.71179 1.56225 1.54505 2.78589 2.90287 3.59319 4.03106 0.80769 1.1282 1.11538 2.01351 1.11538 2.18858 -0.0293 0.22262 -1.56582 12.41717 -2.35448 24.99357 -0.3977 6.34569 -0.60191 12.70687 -0.24782 17.7375 0.17724 2.5155 0.44528 4.70481 0.99128 6.45 0.27319 0.87277 0.61618 1.61102 1.11538 2.30357 0.49921 0.69254 1.19906 1.36408 2.23038 1.6125 4.47345 1.07807 9.25181 -1.1212 13.01035 -3.91607 3.75853 -2.79488 6.75378 -6.17652 6.93895 -9.79 0.29065 -5.66752 -3.75298 -10.10881 -4.21294 -10.59643 -0.10864 -0.38958 -0.7264 -2.80998 -1.11499 -5.87429 -0.20975 -1.65378 -0.39135 -3.31972 -0.24782 -4.72213 0.14354 -1.40242 0.65464 -2.44732 0.99128 -2.76429 0.46987 -0.44302 1.12134 -0.59156 2.35409 -0.57608 1.23276 0.0155 2.85449 0.21414 4.58487 0.57608 1.72998 0.36157 3.61222 0.88457 5.45204 1.03642 1.83941 0.15185 3.74505 -0.042 5.45203 -1.03642 3.66377 -2.1344 7.35926 -6.82041 10.90408 -11.05714 1.7724 -2.11855 2.4638 -3.52087 4.83229 -5.41358 2.36848 -1.89271 4.8908 1.23005 8.30216 5.18322 3.54481 4.23673 7.2403 9.03774 10.90407 11.17214 1.70699 0.9944 3.61222 1.07328 5.45204 0.92143 1.83942 -0.15186 3.72166 -0.55986 5.45204 -0.92143 1.72998 -0.36157 3.35171 -0.67559 4.58447 -0.69107 1.23275 -0.0155 1.88462 0.24804 2.35448 0.69107 0.33624 0.31734 0.72364 1.24687 0.86717 2.64929 0.14354 1.40241 0.0861 3.18335 -0.12371 4.8375 -0.40484 3.18925 -1.1824 5.78878 -1.2391 5.98928 -0.60944 0.65532 -4.37313 4.93665 -4.08922 10.48107 0.18517 3.61384 3.18042 6.99512 6.93895 9.79036 3.75854 2.79488 8.41319 4.99415 12.88664 3.91607 1.03132 -0.24878 1.85527 -0.91995 2.35448 -1.6125 0.49921 -0.69291 0.84219 -1.54615 1.11499 -2.41893 0.5464 -1.74519 0.81444 -3.81951 0.99128 -6.33464 0.35448 -5.031 0.15028 -11.50717 -0.24782 -17.85286 -0.78826 -12.57603 -2.44846 -24.65522 -2.4782 -24.87857 0 -0.1747 0.3077 -1.06038 1.11539 -2.18821 0.8073 -1.1282 2.03094 -2.48601 3.59319 -4.03143 3.12531 -3.09047 7.52223 -6.82853 12.26728 -10.71143 9.49012 -7.76653 20.46913 -16.21235 26.39262 -22.575 6.01508 -6.46105 6.7978 -12.39432 5.82396 -16.58571 -0.97423 -4.19139 -3.59358 -6.68036 -3.59358 -6.68036 l -0.24782 -0.11536 -0.12371 -0.11499 c -0.2046 -0.12237 -0.71967 -0.69144 -0.99128 -1.72787 -0.27161 -1.03642 -0.37193 -2.46353 -0.37193 -3.8007 0 -2.13882 0.26487 -3.42661 0.37193 -4.14643 0.38065 -0.0468 0.75654 -0.0833 1.36281 -0.11537 1.77201 -0.0932 4.24704 -0.0656 6.81524 -0.11499 2.56781 -0.0498 5.22682 -0.1994 7.4346 -0.46071 1.10389 -0.13085 2.07613 -0.29339 2.97384 -0.57608 0.8977 -0.2827 1.85686 -0.64611 2.47819 -1.7275 1.15346 -2.00797 3.91754 -3.25596 6.69114 -3.91607 1.3866 -0.33024 2.71333 -0.46624 3.7173 -0.57607 0.50198 -0.0549 0.91317 -0.0844 1.2391 -0.115 0.16296 -0.0155 0.34615 -0.0955 0.49564 -0.11536 0.0745 -0.01 0.12173 0.0273 0.24782 0 0.063 -0.0136 0.12212 -0.0726 0.24782 -0.115 0.0627 -0.0214 0.14433 -0.0656 0.24782 -0.11536 0.10349 -0.0498 0.49365 -0.22888 0.49564 -0.23036 5.67963 -4.70555 7.87988 -8.51031 8.54958 -11.40249 0.33506 -1.44627 0.18399 -2.71932 0 -3.57072 -0.18398 -0.8514 -0.49564 -1.49714 -0.49564 -1.49714 -0.61935 -0.95128 -0.52696 -1.57711 0 -2.53393 0.52736 -0.95718 1.62808 -2.02161 2.97384 -2.99464 2.6261 -1.89851 5.67012 -3.16124 5.82397 -3.225 0.004 -0.002 0.12371 -0.11536 0.12371 -0.11536 18.12297 -6.49681 27.15154 -12.18755 31.59723 -16.47035 2.23077 -2.14914 3.3073 -3.92234 3.84101 -5.29822 0.26685 -0.68812 0.32633 -1.28889 0.37193 -1.72786 0.0397 -0.38405 0.009 -0.71613 0 -0.80606 -0.004 -0.0394 0.004 -0.0763 0 -0.11537 -1.34497 -13.35408 -10.36482 -23.08068 -22.79943 -29.94643 -12.47109 -6.88565 -28.41364 -11.08736 -44.23604 -13.70606 -15.82201 -2.6187 -31.53736 -3.5991 -43.49219 -4.03144 -5.97741 -0.21598 -10.98932 -0.30886 -14.62137 -0.34535 -1.81603 -0.0184 -3.55711 0.014 -4.33705 0 -0.77954 -0.0144 -0.95876 -0.10172 -1.2391 -0.11536 -0.27993 -0.0136 0.94251 0.27827 -0.12371 0 -1.06661 -0.27827 -4.96869 0.36452 -7.80652 1.6125 -2.83744 1.24798 -6.02658 3.05877 -9.04523 4.95286 -3.01864 1.89409 -5.89058 3.82467 -8.17805 5.52857 -1.87431 1.39578 -2.91873 2.31684 -3.84141 3.225 -0.09 0.008 -3.41317 0.20567 -13.13445 0.34536 -0.5 -4.08599 -2.3874 -7.27726 -4.08883 -8.63821 -1.70143 -1.36095 -2.26993 -0.85002 -2.66406 -1.32456 -0.39414 -0.47453 0.0582 -1.72537 0.6815 -3.39795 1.33783 -3.58988 4.16337 -9.81616 10.03651 -20.15606" fill="#fff" fill-rule="evenodd"/>
 <path d="M 256 25.79889 C 128.86343 25.79889 25.79889 128.86343 25.79889 256 25.79889 383.13657 128.86343 486.20112 256 486.20112 383.13657 486.20112 486.20111 383.13657 486.20111 256 486.20111 128.86343 383.13657 25.79889 256 25.79889 z m 0 25.37967 c 113.11771 0 204.82144 91.70373 204.82144 204.82144 0 113.11771 -91.70373 204.82142 -204.82144 204.82142 C 142.88229 460.82142 51.17856 369.11771 51.17856 256 51.17856 142.88229 142.88229 51.17856 256 51.17856 z" fill="#fff8eb" fill-rule="evenodd"/>
</svg>
