<?xml version="1.0" encoding="UTF-8" standalone="no"?>
<!-- Created with Inkscape (http://www.inkscape.org/) -->

<svg
   xmlns:dc="http://purl.org/dc/elements/1.1/"
   xmlns:cc="http://creativecommons.org/ns#"
   xmlns:rdf="http://www.w3.org/1999/02/22-rdf-syntax-ns#"
   xmlns:svg="http://www.w3.org/2000/svg"
   xmlns="http://www.w3.org/2000/svg"
   xmlns:xlink="http://www.w3.org/1999/xlink"
   xmlns:sodipodi="http://sodipodi.sourceforge.net/DTD/sodipodi-0.dtd"
   xmlns:inkscape="http://www.inkscape.org/namespaces/inkscape"
   width="512"
   height="512"
   id="svg2"
   version="1.1"
   inkscape:version="0.48.4 r9939"
   sodipodi:docname="qupzilla.svg">
  <defs
     id="defs4">
    <linearGradient
       inkscape:collect="always"
       xlink:href="#linearGradient4790"
       id="linearGradient3005"
       gradientUnits="userSpaceOnUse"
       gradientTransform="matrix(0.70701,0,0,0.70701,-1937.5,3155.8)"
       x1="-7573.7998"
       y1="-255.53999"
       x2="-7866"
       y2="-591.5" />
    <linearGradient
       id="linearGradient4790"
       x1="-7573.7998"
       gradientUnits="userSpaceOnUse"
       y1="-255.53999"
       gradientTransform="matrix(0.70701,0,0,0.70701,-1937.5,3155.8)"
       x2="-7866"
       y2="-591.5">
      <stop
         id="stop4008"
         stop-color="#060"
         offset="0" />
      <stop
         id="stop4010"
         stop-color="#00b500"
         offset="1" />
    </linearGradient>
    <clipPath
       clipPathUnits="userSpaceOnUse"
       id="clipPath3908">
      <path
         sodipodi:type="arc"
         style="opacity:0.78193144;fill:#ebf0f3;fill-opacity:1;stroke:#b1bfc9;stroke-width:25.75053596;stroke-miterlimit:4;stroke-opacity:1;stroke-dasharray:none"
         id="path3910"
         sodipodi:cx="248.88889"
         sodipodi:cy="249.22223"
         sodipodi:rx="247.77777"
         sodipodi:ry="248.33333"
         d="m 496.66666,249.22223 a 247.77777,248.33333 0 1 1 -495.5555455,0 247.77777,248.33333 0 1 1 495.5555455,0 z"
         transform="matrix(0.97085202,0,0,0.97085515,15.587942,554.86336)" />
    </clipPath>
  </defs>
  <sodipodi:namedview
     id="base"
     pagecolor="#ffffff"
     bordercolor="#666666"
     borderopacity="1.0"
     inkscape:pageopacity="0.0"
     inkscape:pageshadow="2"
     inkscape:zoom="0.9"
     inkscape:cx="259.46482"
     inkscape:cy="256.82559"
     inkscape:document-units="px"
     inkscape:current-layer="g3893"
     showgrid="false"
     inkscape:window-width="1144"
     inkscape:window-height="784"
     inkscape:window-x="775"
     inkscape:window-y="318"
     inkscape:window-maximized="0" />
  <metadata
     id="metadata7">
    <rdf:RDF>
      <cc:Work
         rdf:about="">
        <dc:format>image/svg+xml</dc:format>
        <dc:type
           rdf:resource="http://purl.org/dc/dcmitype/StillImage" />
        <dc:title></dc:title>
      </cc:Work>
    </rdf:RDF>
  </metadata>
  <g
     inkscape:label="Layer 1"
     inkscape:groupmode="layer"
     id="layer1"
     transform="translate(0,-540.36218)">
    <g
       id="g3893"
       clip-path="url(#clipPath3908)">
      <path
         d="M 509.48107,827.88825 A 253.50221,252.45772 0 1 1 6.1061139,767.58107 253.50221,252.45772 0 0 1 509.48107,827.88825 z"
         id="path2392"
         inkscape:connector-curvature="0"
         style="fill:#95c4d7;stroke:#ffffff;stroke-width:0.99999863000000000;stroke-miterlimit:0;fill-opacity:1" />
      <g
         style="opacity:0.78193144"
         transform="matrix(1.0377175,0,0,1.0280868,16.628188,-8.7322039)"
         id="g3857">
        <path
           style="fill-opacity:0;stroke:#ffffff;stroke-width:6.98645258;stroke-miterlimit:0"
           inkscape:connector-curvature="0"
           id="path2396"
           d="M 368.75563,570.49742 A 114.17482,86.33503 3.6115793 0 1 192.14429,536.06265" />
        <path
           style="fill-opacity:0;stroke:#ffffff;stroke-width:6.98657513;stroke-miterlimit:0"
           inkscape:connector-curvature="0"
           id="path3170"
           d="M 442.74705,926.1699 A 295.86909,250.74261 6.8580819 0 1 -13.341394,820.67991" />
        <path
           style="fill-opacity:0;stroke:#ffffff;stroke-width:6.98661184;stroke-miterlimit:0"
           inkscape:connector-curvature="0"
           id="path3172"
           d="M 91.631978,990.58003 A 264.45999,312.06132 15.727226 0 1 275.71696,532.4305" />
        <path
           style="fill:none;stroke:#ffffff;stroke-width:7.72860003;stroke-miterlimit:0"
           inkscape:connector-curvature="0"
           id="path3178"
           d="M 289.72318,536.25027 173.84716,1026.627" />
        <path
           style="fill-opacity:0;stroke:#ffffff;stroke-width:6.98629618;stroke-linecap:round;stroke-miterlimit:0"
           inkscape:connector-curvature="0"
           id="path2393"
           d="M 482.43886,790.04114 A 393.39852,333.37863 9.508259 0 1 7.4111965,688.27548" />
        <path
           style="fill-opacity:0;stroke:#ffffff;stroke-width:6.98656988;stroke-miterlimit:0"
           inkscape:connector-curvature="0"
           id="path2395"
           d="M 304.65017,539.32278 A 311.9171,264.34479 88.060473 0 1 268.28801,1031.502" />
      </g>
      <path
         style="opacity:0.47253005;fill:#ebf0f3;fill-opacity:1"
         inkscape:connector-curvature="0"
         d="m 258.09245,546.49021 c -34.03037,0 -66.29295,6.7996 -95.9038,19.2841 3.7566,3.67847 9.28102,8.69455 7.18174,17.16616 -2.20977,8.91751 -0.8839,17.61207 6.51882,23.18551 6.85026,5.12756 9.94394,9.47484 9.94394,19.9529 0,9.69776 -1.10489,16.16296 -3.31466,24.85751 -1.65731,6.79961 -3.53562,16.72032 -9.83346,18.28088 -8.06563,2.00644 -11.93273,2.45234 -16.46274,11.59275 -3.97759,8.02574 -12.70615,17.835 -18.12007,23.1855 -4.41953,4.5702 -5.96637,8.02574 -13.1481,11.59275 -6.51881,3.34404 -19.55644,-2.11791 -21.32425,5.01608 -1.87829,7.57987 1.65733,14.15652 1.65733,23.29697 0,14.82533 -19.224958,-2.67526 -29.610848,0 -7.734181,1.89495 -16.683732,-0.44588 -24.638886,1.56056 -6.076849,1.56056 -15.468354,4.68169 -18.120064,9.92071 -3.204171,6.46519 -14.584464,16.8318 -8.176142,20.06437 4.971971,2.45231 12.816643,1.11469 21.324232,3.23259 3.093682,0.78028 19.003978,13.59919 19.777393,13.26479 10.27541,-5.12758 13.14811,-3.2326 19.666913,3.34406 5.634904,5.57344 10.71736,10.92395 18.120072,16.49737 10.71738,8.1372 11.4908,14.37946 11.4908,26.52954 0,9.92073 1.98879,17.05471 8.17612,23.29697 9.06003,9.14045 12.48518,13.48772 19.7774,23.29697 4.08806,5.46197 16.13128,19.39555 14.80542,26.52956 -1.87829,8.9175 -4.86146,21.402 -9.83345,28.09012 -2.87269,3.9014 -12.70614,12.4845 -9.94394,18.28085 5.30342,10.58954 3.20416,12.70743 4.97197,19.84133 2.09928,8.5832 -6.85028,28.75879 -9.83347,35.00119 -2.32023,0 -4.64049,0 -6.85027,0.111 38.22895,23.9656 83.30815,38.0107 131.702,38.0107 71.59638,0 136.12154,-30.5425 181.75317,-79.25424 -7.18174,-2.22928 -16.68372,-5.01595 -17.23617,-7.13385 -1.98878,-7.91429 3.31466,-14.26801 3.31466,-23.18551 0,-9.02897 2.32025,-15.49415 0,-24.85753 -2.76221,-10.81246 -5.41393,-9.02896 -13.14811,-14.9368 -14.69492,-11.14687 -2.32024,-4.3473 -9.94394,3.34407 -4.97198,5.0161 -14.91591,13.37626 -21.32422,18.28085 -6.6293,4.90463 -16.24178,9.80926 -23.09206,14.93682 -5.19295,3.9014 -14.91592,8.69455 -16.46275,14.82534 -1.8783,7.91429 0.55244,14.26799 4.97198,23.29684 5.41392,10.92393 5.08247,13.15328 0,23.1855 -3.8671,7.91431 -9.83346,8.35991 -16.35227,13.37621 -7.73418,5.7964 -18.0096,4.7932 -29.61084,4.7932 -4.751,0 -19.77741,2.6753 -19.77741,-6.5766 0,-9.1405 -6.07685,-16.16298 -8.17611,-24.85757 -1.54686,-6.2423 0,-15.27122 0,-23.1854 0,-7.91427 3.20415,-18.28085 6.51878,-24.85752 4.86149,-9.92071 3.42515,-16.60884 -6.51878,-21.62494 -8.94958,-4.57021 -7.40272,-11.81565 -4.97199,-21.62492 2.09929,-8.47163 4.08807,-16.60885 8.17614,-24.85754 4.30905,-8.58307 5.74539,-14.9368 8.17612,-24.85752 2.32026,-9.14042 2.8727,-19.39555 -1.54683,-28.20156 -3.64611,-7.35695 -9.50198,-16.49739 -11.60127,-24.85753 -1.32585,-5.46198 -6.6293,-21.402 -1.54683,-26.52956 6.96078,-7.02254 21.54521,-5.23903 27.84304,-5.01611 7.95515,6.01931 21.10325,4.79317 28.064,8.36015 5.8559,2.8982 16.90471,-1.44908 23.09206,1.67205 7.29223,3.67848 15.24737,8.47162 21.32421,11.59273 10.38592,5.23906 11.82227,4.45876 22.87111,1.67203 8.39708,-2.11789 18.00956,3.00968 21.54519,6.57668 8.94955,9.14042 10.05444,11.36979 13.03761,23.29694 2.09929,8.69457 -2.20977,17.94649 -4.86149,23.1855 -4.64049,9.36336 4.97198,13.26477 11.49078,19.84145 7.73418,7.8028 8.50759,8.1372 11.49079,19.95289 1.98878,8.02574 13.92151,1.00321 16.46274,11.59274 3.09369,12.48451 7.73418,5.57343 13.1481,0 6.40832,-6.35373 7.73419,-14.49094 13.03762,-19.9529 4.53002,-4.45875 6.96076,-29.2048 8.39712,-34.77825 2.20977,-9.02896 -0.44196,-21.40198 -1.65733,-26.64102 -2.32026,-9.02895 -9.17052,-13.37624 -11.49079,-23.07403 -1.8783,-7.24547 0,-17.50058 0,-24.96897 0,-6.24226 -9.39151,-18.72676 -11.60127,-23.18551 -1.54682,-3.00965 -12.59565,-7.69132 -14.69492,-9.9207 -6.51882,-6.57665 -13.14812,-6.46519 -13.14812,-18.2809 0,-10.47804 -5.63488,-14.60237 -13.25858,-16.60883 -11.15931,-2.78669 -14.69495,8.02575 -18.00959,14.93682 -5.19294,10.36658 -7.62369,14.9368 -19.88786,14.9368 -7.40275,0 -17.45716,-1.44908 -24.52841,-3.23256 -10.3859,-2.67528 -14.47397,-5.23907 -23.09205,-11.70424 -6.51879,-5.01609 -17.12568,-8.02576 -24.63888,-9.92073 -6.29783,-1.56055 -5.96635,15.71711 -4.97197,19.84143 2.43074,9.69779 11.60127,6.4652 11.60127,18.28088 0,5.68492 -18.78301,3.34407 -22.98156,3.34407 h -24.74938 c -12.1537,0 -13.70052,0.44587 -18.00957,-8.36017 -3.09366,-6.24223 -4.97198,-15.82855 -4.97198,-23.18548 v -24.85763 c 0,-8.69453 4.53002,-11.14686 13.14811,-13.26477 10.4964,-2.67524 14.91591,-0.11159 21.32421,-6.57666 6.96078,-7.02252 0.55245,-11.81567 13.25861,-15.04827 12.81664,-3.23257 10.82785,-3.78992 16.35226,-14.9368 3.42515,-6.91105 4.64051,-11.59275 6.6293,-19.84144 1.98878,-8.1372 4.30905,-10.81247 6.51881,-19.84143 1.98877,-7.80281 1.65733,-16.27442 1.65733,-24.96899 0,-4.23582 -3.97758,-7.57988 -8.39713,-10.14366 -21.87668,-6.24225 -44.96871,-9.69777 -68.94466,-9.69777 z m 239.09658,325.93455 c -1.54684,2.7867 -3.09368,5.57342 -3.97757,9.02896 -1.9888,8.02576 -6.29784,14.15653 -8.17614,21.51345 -0.33146,1.56058 -0.9944,3.45556 -1.87829,5.3505 5.52442,-11.48126 10.2754,-23.51991 14.032,-35.89291 z m -14.032,35.89291 c -2.76221,5.90784 -7.18173,13.04185 -9.6125,17.94649 3.42515,-5.7964 6.6293,-11.81569 9.6125,-17.94649 z m -12.70615,23.1855 c -3.31466,4.68169 -6.96077,8.47162 -10.05444,14.71388 -0.11061,0.33439 -0.22097,0.55733 -0.33147,0.78028 3.64611,-5.01611 7.07125,-10.25512 10.38591,-15.49416 z"
         id="path7313" />
    </g>
  </g>
</svg>
