<svg xmlns="http://www.w3.org/2000/svg" width="512" height="512">
 <g transform="translate(0,-540.36217)">
  <path d="M 256 6 C 191.63745 6 132.96752 30.32671 88.65625 70.28125 L 423.34375 70.28125 C 379.03248 30.32671 320.36255 6 256 6 z M 423.34375 70.28125 C 424.92955 71.71114 426.48263 73.15548 428.03125 74.625 C 426.48927 73.16207 424.92262 71.70488 423.34375 70.28125 z M 428.03125 74.625 C 429.57987 76.09452 431.11437 77.58539 432.625 79.09375 C 431.1113 77.58245 429.58311 76.0973 428.03125 74.625 z M 432.625 79.09375 C 435.64626 82.11047 438.60421 85.20769 441.46875 88.375 C 438.60261 85.20588 435.64812 82.11208 432.625 79.09375 z M 88.65625 70.28125 C 87.07738 71.70488 85.51073 73.16207 83.96875 74.625 C 85.51737 73.15548 87.07045 71.71114 88.65625 70.28125 z M 83.96875 74.625 C 82.41689 76.0973 80.888701 77.58245 79.375 79.09375 C 80.885633 77.58539 82.42013 76.09452 83.96875 74.625 z M 79.375 79.09375 C 76.35188 82.11208 73.39739 85.20588 70.53125 88.375 C 73.39579 85.20769 76.35374 82.11047 79.375 79.09375 z M 66.3125 93.1875 C 64.918374 94.81021 63.5403 96.43526 62.1875 98.09375 C 63.53821 96.43799 64.920609 94.8076 66.3125 93.1875 z M 62.1875 98.09375 C 60.835519 99.75123 59.49741 101.43258 58.1875 103.125 C 59.49624 101.43438 60.836786 99.74951 62.1875 98.09375 z M 58.1875 103.125 C 56.879384 104.8151 55.60911 106.52585 54.34375 108.25 C 55.609716 106.52532 56.878761 104.81562 58.1875 103.125 z M 54.34375 108.25 C 53.17005 109.84925 52.01126 111.46586 50.875 113.09375 C 52.01122 111.46622 53.17011 109.84891 54.34375 108.25 z M 445.6875 93.1875 C 447.07939 94.8076 448.46179 96.43799 449.8125 98.09375 C 448.4597 96.43526 447.08163 94.81021 445.6875 93.1875 z M 449.8125 98.09375 C 451.16321 99.74951 452.50376 101.43438 453.8125 103.125 C 452.50259 101.43258 451.16448 99.75123 449.8125 98.09375 z M 453.8125 103.125 C 455.12124 104.81562 456.39028 106.52532 457.65625 108.25 C 456.39089 106.52585 455.12062 104.8151 453.8125 103.125 z M 457.65625 108.25 C 458.82989 109.84891 459.98878 111.46622 461.125 113.09375 C 459.98874 111.46586 458.82995 109.84925 457.65625 108.25 z M 50.3125 113.875 C 49.19484 115.48942 48.08032 117.1083 47 118.75 C 48.08269 117.10484 49.19232 115.49276 50.3125 113.875 z M 461.6875 113.875 C 462.80768 115.49276 463.91731 117.10484 465 118.75 C 463.91968 117.1083 462.80516 115.48942 461.6875 113.875 z M 47 118.8125 C 45.824836 120.59915 44.661436 122.40057 43.53125 124.21875 C 44.659482 122.40409 45.826968 120.59574 47 118.8125 z M 43.53125 124.21875 C 42.702402 125.55216 41.898038 126.9 41.09375 128.25 C 41.898303 126.89985 42.702133 125.55231 43.53125 124.21875 z M 465 118.8125 C 466.17303 120.59574 467.34052 122.40409 468.46875 124.21875 C 467.33856 122.40057 466.17516 120.59915 465 118.8125 z M 468.46875 124.21875 C 469.29787 125.55231 470.1017 126.89985 470.90625 128.25 C 470.10196 126.9 469.2976 125.55216 468.46875 124.21875 z M 33.84375 141.25 C 33.11662 142.65482 32.419854 144.07978 31.71875 145.5 C 32.42007 144.07937 33.11639 142.65523 33.84375 141.25 z M 478.15625 141.25 C 478.88361 142.65523 479.57993 144.07937 480.28125 145.5 C 479.58015 144.07978 478.88338 142.65482 478.15625 141.25 z M 22.59375 166.25 C 21.240828 169.76589 19.977787 173.31584 18.78125 176.90625 C 19.977398 173.31776 21.241361 169.76405 22.59375 166.25 z M 489.40625 166.25 C 490.75864 169.76405 492.0226 173.31776 493.21875 176.90625 C 492.02221 173.31584 490.75917 169.76589 489.40625 166.25 z M 16.28125 184.875 C 15.914974 186.1113 15.535089 187.34953 15.1875 188.59375 C 15.535773 187.34718 15.914216 186.11363 16.28125 184.875 z M 495.71875 184.875 C 496.08578 186.11363 496.46423 187.34718 496.8125 188.59375 C 496.46491 187.34953 496.08503 186.1113 495.71875 184.875 z M 12.875 197.5625 C 12.613672 198.65374 12.371963 199.747 12.125 200.84375 C 12.372379 199.74557 12.613216 198.65515 12.875 197.5625 z M 499.125 197.5625 C 499.38678 198.65515 499.62762 199.74557 499.875 200.84375 C 499.62804 199.747 499.38633 198.65374 499.125 197.5625 z M 10.125 210.65625 C 9.936406 211.68535 9.73845 212.71653 9.5625 213.75 C 9.739015 212.71337 9.93576 211.68849 10.125 210.65625 z M 501.875 210.65625 C 502.06424 211.68849 502.26098 212.71337 502.4375 213.75 C 502.26155 212.71653 502.06359 211.68535 501.875 210.65625 z M 9.125 216.40625 C 8.91812 217.70599 8.718014 219.00617 8.53125 220.3125 C 8.71804 219.0058 8.918078 217.70634 9.125 216.40625 z M 502.875 216.40625 C 503.08192 217.70634 503.28196 219.0058 503.46875 220.3125 C 503.28199 219.00617 503.08188 217.70599 502.875 216.40625 z M 8.15625 222.96875 C 7.961592 224.44339 7.793836 225.92362 7.625 227.40625 C 7.79384 225.92334 7.96157 224.44367 8.15625 222.96875 z M 503.84375 222.96875 C 504.03843 224.44367 504.20616 225.92334 504.375 227.40625 C 504.20616 225.92362 504.03841 224.44339 503.84375 222.96875 z M 7.4375 229.125 C 7.211928 231.2353 7.01647 233.34308 6.84375 235.46875 C 7.01611 233.34821 7.212524 231.23024 7.4375 229.125 z M 6.84375 235.46875 C 6.659912 237.73123 6.498188 240.00214 6.375 242.28125 C 6.498054 240.00857 6.660366 237.72488 6.84375 235.46875 z M 6.375 242.28125 C 6.289952 243.85474 6.243316 245.45015 6.1875 247.03125 C 6.243518 245.44632 6.289598 243.85853 6.375 242.28125 z M 504.5625 229.125 C 504.78748 231.23024 504.98389 233.34821 505.15625 235.46875 C 504.98353 233.34308 504.78807 231.2353 504.5625 229.125 z M 505.15625 235.46875 C 505.33963 237.72488 505.50195 240.00857 505.625 242.28125 C 505.50181 240.00214 505.34009 237.73123 505.15625 235.46875 z M 505.625 242.28125 C 505.7104 243.85853 505.75648 245.44632 505.8125 247.03125 C 505.75668 245.45015 505.71005 243.85474 505.625 242.28125 z M 6.1875 264.96875 C 6.243316 266.54985 6.289952 268.14526 6.375 269.71875 C 6.289598 268.14147 6.243518 266.55368 6.1875 264.96875 z M 6.375 269.71875 C 6.498188 271.99786 6.659912 274.26877 6.84375 276.53125 C 6.660366 274.27512 6.498054 271.99143 6.375 269.71875 z M 6.84375 276.53125 C 7.01647 278.65692 7.211928 280.7647 7.4375 282.875 C 7.212524 280.76976 7.01611 278.65179 6.84375 276.53125 z M 505.8125 264.96875 C 505.75648 266.55368 505.7104 268.14147 505.625 269.71875 C 505.71005 268.14526 505.75668 266.54985 505.8125 264.96875 z M 505.625 269.71875 C 505.50195 271.99143 505.33963 274.27512 505.15625 276.53125 C 505.34009 274.26877 505.50181 271.99786 505.625 269.71875 z M 505.15625 276.53125 C 504.98389 278.65179 504.78748 280.76976 504.5625 282.875 C 504.78807 280.7647 504.98353 278.65692 505.15625 276.53125 z M 7.625 284.59375 C 7.793836 286.07638 7.961592 287.55661 8.15625 289.03125 C 7.96157 287.55633 7.79384 286.07666 7.625 284.59375 z M 504.375 284.59375 C 504.20616 286.07666 504.03843 287.55633 503.84375 289.03125 C 504.03841 287.55661 504.20616 286.07638 504.375 284.59375 z M 8.53125 291.6875 C 8.718014 292.99383 8.91812 294.29401 9.125 295.59375 C 8.918078 294.29366 8.71804 292.9942 8.53125 291.6875 z M 503.46875 291.6875 C 503.28196 292.9942 503.08192 294.29366 502.875 295.59375 C 503.08188 294.29401 503.28199 292.99383 503.46875 291.6875 z M 9.5625 298.25 C 9.73845 299.28347 9.936406 300.31465 10.125 301.34375 C 9.93576 300.31151 9.739015 299.28663 9.5625 298.25 z M 502.4375 298.25 C 502.26098 299.28663 502.06424 300.31151 501.875 301.34375 C 502.06359 300.31465 502.26155 299.28347 502.4375 298.25 z M 12.125 311.15625 C 12.371963 312.253 12.613672 313.34626 12.875 314.4375 C 12.613216 313.34485 12.372379 312.25443 12.125 311.15625 z M 499.875 311.15625 C 499.62762 312.25443 499.38678 313.34485 499.125 314.4375 C 499.38633 313.34626 499.62804 312.253 499.875 311.15625 z M 15.1875 323.40625 C 15.535089 324.65047 15.914974 325.8887 16.28125 327.125 C 15.914216 325.88637 15.535773 324.65282 15.1875 323.40625 z M 496.8125 323.40625 C 496.46423 324.65282 496.08578 325.88637 495.71875 327.125 C 496.08503 325.8887 496.46491 324.65047 496.8125 323.40625 z M 18.78125 335.09375 C 19.977787 338.68416 21.240828 342.23411 22.59375 345.75 C 21.241361 342.23595 19.977398 338.68224 18.78125 335.09375 z M 493.21875 335.09375 C 492.0226 338.68224 490.75864 342.23595 489.40625 345.75 C 490.75917 342.23411 492.02221 338.68416 493.21875 335.09375 z M 31.71875 366.5 C 32.419854 367.92022 33.11662 369.34518 33.84375 370.75 C 33.11639 369.34477 32.42007 367.92063 31.71875 366.5 z M 480.28125 366.5 C 479.57993 367.92063 478.88361 369.34477 478.15625 370.75 C 478.88338 369.34518 479.58015 367.92022 480.28125 366.5 z M 41.09375 383.75 C 41.898038 385.1 42.702402 386.44784 43.53125 387.78125 C 42.702133 386.44769 41.898303 385.10015 41.09375 383.75 z M 43.53125 387.78125 C 44.661436 389.59943 45.824836 391.40085 47 393.1875 C 45.826968 391.40426 44.659482 389.59591 43.53125 387.78125 z M 470.90625 383.75 C 470.1017 385.10015 469.29787 386.44769 468.46875 387.78125 C 469.2976 386.44784 470.10196 385.1 470.90625 383.75 z M 468.46875 387.78125 C 467.34052 389.59591 466.17303 391.40426 465 393.1875 C 466.17516 391.40085 467.33856 389.59943 468.46875 387.78125 z M 47 393.25 C 48.08032 394.8917 49.19484 396.51058 50.3125 398.125 C 49.19232 396.50724 48.08269 394.89516 47 393.25 z M 465 393.25 C 463.91731 394.89516 462.80768 396.50724 461.6875 398.125 C 462.80516 396.51058 463.91968 394.8917 465 393.25 z M 50.875 398.90625 C 52.01126 400.53414 53.17005 402.15075 54.34375 403.75 C 53.17011 402.15109 52.01122 400.53378 50.875 398.90625 z M 54.34375 403.75 C 55.60911 405.47415 56.879384 407.1849 58.1875 408.875 C 56.878761 407.18438 55.609716 405.47468 54.34375 403.75 z M 58.1875 408.875 C 59.49741 410.56742 60.835519 412.24877 62.1875 413.90625 C 60.836786 412.25049 59.49624 410.56562 58.1875 408.875 z M 62.1875 413.90625 C 63.5403 415.56474 64.918374 417.18979 66.3125 418.8125 C 64.920609 417.19239 63.53821 415.56201 62.1875 413.90625 z M 461.125 398.90625 C 459.98878 400.53378 458.82989 402.15109 457.65625 403.75 C 458.82995 402.15075 459.98874 400.53414 461.125 398.90625 z M 457.65625 403.75 C 456.39028 405.47468 455.12124 407.18438 453.8125 408.875 C 455.12062 407.1849 456.39089 405.47415 457.65625 403.75 z M 453.8125 408.875 C 452.50376 410.56562 451.16321 412.25049 449.8125 413.90625 C 451.16448 412.24877 452.50259 410.56742 453.8125 408.875 z M 449.8125 413.90625 C 448.46179 415.56201 447.07939 417.19239 445.6875 418.8125 C 447.08163 417.18979 448.4597 415.56474 449.8125 413.90625 z M 70.53125 423.625 C 73.39739 426.79412 76.35188 429.88792 79.375 432.90625 C 76.35374 429.88953 73.39579 426.79231 70.53125 423.625 z M 79.375 432.90625 C 80.888701 434.41755 82.41689 435.9027 83.96875 437.375 C 82.42013 435.90548 80.885633 434.41461 79.375 432.90625 z M 83.96875 437.375 C 85.51073 438.83793 87.07738 440.29512 88.65625 441.71875 C 87.07045 440.28886 85.51737 438.84452 83.96875 437.375 z M 88.65625 441.71875 C 132.96752 481.67329 191.63745 506 256 506 C 320.36255 506 379.03248 481.67329 423.34375 441.71875 L 88.65625 441.71875 z M 423.34375 441.71875 C 424.92262 440.29512 426.48927 438.83793 428.03125 437.375 C 426.48263 438.84452 424.92955 440.28886 423.34375 441.71875 z M 428.03125 437.375 C 429.58311 435.9027 431.1113 434.41755 432.625 432.90625 C 431.11437 434.41461 429.57987 435.90548 428.03125 437.375 z M 432.625 432.90625 C 435.64812 429.88792 438.60261 426.79412 441.46875 423.625 C 438.60421 426.79231 435.64626 429.88953 432.625 432.90625 z" transform="translate(0,540.36217)" fill="#9a3034" fill-rule="evenodd"/>
  <path d="M 88.65625 70.28125 C 37.910536 116.0376 6 182.29136 6 256 C 6 329.70864 37.910536 395.9624 88.65625 441.71875 L 423.34375 441.71875 C 474.08946 395.9624 506 329.70864 506 256 C 506 182.29136 474.08946 116.0376 423.34375 70.28125 L 88.65625 70.28125 z" transform="translate(0,540.36217)" fill="#d1c4b1" fill-rule="evenodd"/>
  <path d="m 283.3275 624.80461 -29.32943 39.71355 -12.85807 40.88541 -26.39974 3.61328 -23.27474 -36.0677 -38.89974 -30.46876 -9.92839 3.54818 -10.61198 48.17709 4.94792 42.57812 -22.65625 13.96485 -35.937507 -23.47006 -47.94922 -12.04427 -7.61718 7.25912 9.89583 48.33984 21.9401 36.84896 -15.00651 22.00521 -32.421874 -5.27344 c 0.01068 0.0763 0.02181 0.15162 0.03255 0.22787 0.12134 0.86071 0.26054 1.71374 0.390625 2.57161 0.128462 0.84769 0.25368 1.69419 0.390625 2.53907 0.228214 1.40793 0.464536 2.83181 0.716146 4.23177 0.531793 2.95887 1.122943 5.89985 1.757813 8.82161 0.06589 0.30322 0.128328 0.60866 0.195313 0.91146 0.323676 1.46319 0.659938 2.90855 1.00911 4.36198 0.362566 1.50812 0.716996 3.02741 1.106766 4.52474 0.009 0.0332 0.0239 0.0645 0.0326 0.0976 0.13919 0.53379 0.28056 1.06266 0.42318 1.59506 0.33117 1.23675 0.69209 2.48182 1.04167 3.71093 0.26073 0.91601 0.54292 1.82269 0.8138 2.73438 0.46933 1.58077 0.93272 3.15254 1.43229 4.72005 0.0521 0.16335 0.11034 0.32507 0.16276 0.48828 0.58066 1.80896 1.1699 3.61291 1.79037 5.40365 0.40276 1.16241 0.81762 2.32851 1.23698 3.48307 0.17785 0.48966 0.37256 0.97663 0.55338 1.46484 0.39891 1.07629 0.79118 2.15343 1.20443 3.22266 0.0333 0.0863 0.0643 0.17426 0.0977 0.26042 0.70819 1.82625 1.43141 3.63102 2.18099 5.4362 0.72179 1.73826 1.48646 3.45759 2.24609 5.17578 0.33036 0.74722 0.63912 1.50274 0.97657 2.24609 0.6657 1.46772 1.35771 2.90958 2.05078 4.36198 0.56758 1.18944 1.13952 2.36922 1.72526 3.54818 0.41283 0.83092 0.84776 1.64831 1.26953 2.47396 0.15442 0.3021 0.30012 0.61007 0.45573 0.91145 0.96008 1.85951 1.92466 3.73445 2.92969 5.56641 0.0466 0.0851 0.0835 0.17543 0.1302 0.26042 0.033 0.06 0.0971 0.10271 0.13021 0.16276 1.04777 1.9009 2.09471 3.79376 3.19011 5.66406 0.032 0.0546 0.0657 0.10823 0.0977 0.16276 1.13152 1.92864 2.30175 3.83401 3.48307 5.72917 0.0128 0.0205 0.0198 0.0446 0.0326 0.0651 1.18185 1.89479 2.38255 3.77111 3.61328 5.63151 1.24405 1.88053 2.51553 3.75448 3.8086 5.59896 0.09 0.12843 0.17017 0.26238 0.26041 0.39063 1.16615 1.65681 2.34314 3.28849 3.54818 4.91536 0.19365 0.26144 0.39129 0.52059 0.58594 0.78125 1.10979 1.4867 2.24356 2.96618 3.38541 4.42708 0.10007 0.12798 0.19267 0.26285 0.29297 0.39063 0.1713 0.21829 0.34882 0.43333 0.52084 0.65104 1.20725 1.52742 2.43653 3.02647 3.67838 4.52474 1.03598 1.25033 2.09784 2.48129 3.15755 3.71094 0.67269 0.78033 1.33611 1.57193 2.01823 2.34373 1.04253 1.1799 2.09322 2.3558 3.15756 3.5156 0.005 0 0.0276 0 0.0326 0 l 99.44661 18.0014 c 0.20764 1.9268 0.49195 3.8311 0.8138 5.7292 l 51.46485 0 c -2.78068 -7.5387 -3.6583 -15.8993 -2.11589 -24.3815 4.0319 -22.17227 23.15873 -37.83047 44.88933 -38.31385 3.10437 -0.0691 6.26544 0.17403 9.4401 0.7487 25.39737 4.5974 42.23808 28.85952 37.63021 54.19925 -0.48807 2.684 -1.20755 5.2704 -2.11588 7.7474 l 104.00391 0 c 1.73215 -1.433 3.4508 -2.8837 5.14323 -4.362 0.0639 -0.056 0.13149 -0.1069 0.19531 -0.1628 1.59244 -1.3938 3.16368 -2.7986 4.72005 -4.2317 0.0339 -0.031 0.0639 -0.067 0.0976 -0.098 0.0337 -0.031 0.0639 -0.067 0.0976 -0.098 1.85379 -1.7109 3.66749 -3.4754 5.46875 -5.2409 l -67.44792 -12.2071 C 358.80005 923.29154 338.86969 894.58952 309.6297 879.9146 l 18.48959 -101.69271 c 69.86579 22.84837 120.22917 82.23535 133.07292 152.27865 0.17653 -0.2578 0.34524 -0.52276 0.52084 -0.78125 0.84866 -1.24967 1.68001 -2.51028 2.50651 -3.77604 0.96324 -1.47518 1.93186 -2.96302 2.86458 -4.45964 0.0334 -0.0536 0.0643 -0.10908 0.0976 -0.16276 0.96497 -1.55098 1.90033 -3.11403 2.83204 -4.6875 0.72648 -1.22686 1.44244 -2.47067 2.14843 -3.71093 0.19995 -0.3512 0.4202 -0.68942 0.61849 -1.04167 0.11682 -0.20755 0.24184 -0.41057 0.35808 -0.61849 0.60188 -1.07659 1.17145 -2.16886 1.75781 -3.25521 0.17018 -0.31523 0.35197 -0.62797 0.52083 -0.94401 0.58271 -1.09085 1.15834 -2.18731 1.72526 -3.28776 0.27299 -0.52972 0.5445 -1.06314 0.8138 -1.59505 0.21873 -0.43216 0.43476 -0.86849 0.65105 -1.30209 0.60345 -1.20978 1.20603 -2.42499 1.79036 -3.64583 0.79376 -1.65841 1.55317 -3.30207 2.3112 -4.98047 0.75803 -1.67839 1.49172 -3.38025 2.21354 -5.07812 0.65713 -1.54569 1.29385 -3.09351 1.92057 -4.65495 0.0617 -0.15366 0.13391 -0.30193 0.19532 -0.45573 0.0865 -0.21669 0.17453 -0.43405 0.26041 -0.65104 0.49237 -1.24403 0.99195 -2.48978 1.46485 -3.74349 0.0981 -0.26003 0.19569 -0.5208 0.29297 -0.78125 0.55214 -1.47887 1.1028 -2.96769 1.6276 -4.45964 0.0908 -0.25831 0.17036 -0.52255 0.26042 -0.78125 0.66636 -1.91469 1.29978 -3.82622 1.92057 -5.76172 0.51629 -1.60901 1.01302 -3.22722 1.49739 -4.85026 0.0705 -0.23628 0.1255 -0.47957 0.19532 -0.71614 0.45836 -1.55339 0.9058 -3.12174 1.33463 -4.6875 0.49415 -1.80422 0.97783 -3.61601 1.43229 -5.4362 l -4.72005 -9.76563 8.98438 -10.97005 c 0.002 -0.0106 -0.002 -0.022 0 -0.0325 0.23005 -1.43145 0.44516 -2.85746 0.65104 -4.29687 0.2218 -1.55118 0.42531 -3.09471 0.61849 -4.65495 0.0362 -0.29181 0.0625 -0.58678 0.0976 -0.87891 0.17506 -1.45228 0.33814 -2.90215 0.48828 -4.36198 0.02 -0.19504 0.0455 -0.39077 0.0651 -0.58594 0.0229 -0.22751 0.0428 -0.4559 0.0651 -0.68359 0.13455 -1.37689 0.27848 -2.75077 0.39063 -4.13411 0.004 -0.054 -0.004 -0.1088 0 -0.16276 0.15362 -1.91919 0.2806 -3.83055 0.39062 -5.76172 0.11334 -1.98933 0.19389 -3.98807 0.26042 -5.98959 0.0349 -1.03834 0.0756 -2.08347 0.0976 -3.125 0.002 -0.0865 -0.002 -0.17389 0 -0.26041 0.0342 -1.69268 0.0651 -3.37731 0.0651 -5.07813 0 -1.95626 -0.0204 -3.91387 -0.0651 -5.85937 -0.0221 -0.93125 -0.0651 -1.87082 -0.0976 -2.79948 -0.003 -0.076 0.003 -0.15185 0 -0.22787 -0.0649 -1.8596 -0.15507 -3.71735 -0.26042 -5.5664 -0.0857 -1.50541 -0.18067 -2.99405 -0.29297 -4.49219 -0.173 -2.26678 -0.38613 -4.52119 -0.61849 -6.77084 -0.14118 -1.36692 -0.29315 -2.74114 -0.45572 -4.10156 -0.005 -0.0429 0.005 -0.0873 0 -0.13021 -0.16837 -1.40288 -0.36272 -2.80341 -0.55339 -4.19922 l -21.28906 2.08334 -39.02995 17.87109 -20.34506 -17.1875 11.29558 -41.40625 -3.32031 -49.1862 -9.27735 -4.98047 -43.0013 24.34896 -28.38542 32.19401 -25.58594 -7.45442 -6.60807 -42.38282 -23.07943 -43.61979 -10.48177 -0.78125 z M 266.00979 768.2942 c 2.74424 0.001 5.50737 0.0463 8.26823 0.16276 l -18.48959 101.69271 c -32.54334 3.49098 -61.30078 23.36547 -76.00911 52.53907 L 77.858743 904.26426 C 104.54041 823.0475 180.93846 768.25431 266.00979 768.2942 z" fill="#9a3034" fill-opacity="0.730994"/>
 </g>
</svg>
