<svg xmlns="http://www.w3.org/2000/svg" width="512" height="512">
 <g transform="translate(0,-540.36217)">
  <g transform="matrix(1.0416667,0,0,1.0416667,-10.666676,-33.181784)">
   <path d="m 305.71429 246.28572 c 0 45.76074 -37.09641 82.85714 -82.85714 82.85714 -45.76074 0 -82.85714 -37.0964 -82.85714 -82.85714 0 -45.76073 37.0964 -82.85714 82.85714 -82.85714 45.76073 0 82.85714 37.09641 82.85714 82.85714 z" transform="matrix(2.8965518,0,0,2.8965517,-389.51727,82.982847)" fill="#593b6f" fill-rule="evenodd"/>
   <path d="m 255.5938 556.40738 c -24.0106 0 -47.1885 3.53147 -69.0625 10.09375 2.4415 11.79448 -0.1698 24.25847 11.5937 24.09375 7.5975 10.19016 -15.1377 3.02107 1.2813 10.875 9.4418 7.05443 -9.9742 11.10683 1.7187 17.4375 -13.4764 6.59717 2.1779 34.51523 12.1875 41.5 16.4748 13.15774 7.3048 -27.86646 25.6875 -30 9.9889 -10.8185 27.5095 -17.77312 39.9688 -28.65625 -12.1764 -0.9378 -19.3129 -8.13978 -7.7813 -12.59375 21.2236 20.63218 5.3422 -9.74863 -6.4062 -14.5625 11.368 -3.43068 22.4211 -0.9444 20.8437 -9.84375 3.7335 -2.59128 4.0249 -4.6214 2.4063 -6.15625 -10.6094 -1.4336 -21.4351 -2.1875 -32.4375 -2.1875 z m -117.1563 30.5 c -7.0078 3.92695 -13.7927 8.19399 -20.3437 12.78125 6.1826 0.24712 10.741 1.61997 14.375 10.53125 16.243 8.88105 1.4242 23.95283 -5.6563 29.125 11.842 -6.63696 32.5971 26.23176 26.9375 8 -6.9698 -4.82797 18.7313 7.75323 5.4063 -7.9375 -12.2627 -18.74319 0.955 -8.37454 6.125 -4 17.5839 -14.9587 -19.887 -16.79323 -10.5313 -32.1875 -4.5748 -3.51524 -9.936 -11.02163 -16.3125 -16.3125 z m -11.625 52.4375 c -0.382 0.2141 -0.7314 0.45067 -1.0937 0.75 0.3393 -0.22362 0.6997 -0.46218 1.0937 -0.75 z m 65.0625 -39.75 c -9.1622 7.24244 17.4188 8.6064 0 0 z m 207.5 4.65625 c -11.8284 9.85607 -19.169 24.56124 -27.6562 37.4375 -18.2671 7.81343 -17.5955 41.34206 2.8125 30.625 5.4621 9.05025 -3.816 23.30245 12.0937 11.46875 12.8328 -16.11089 2.2557 -42.15356 24.0938 -52.3125 1.5907 7.89913 -20.1417 37.4106 5.25 32.5625 22.9545 0.82168 -16.6643 2.15218 -5.5 16.0625 -11.5994 -6.52908 -5.5781 17.82529 -20.7188 12.15625 -13.1168 6.76881 -21.7235 -3.14207 -18.7187 -14 -10.3186 5.71079 3.2249 21.84423 -14.6875 22.8125 -4.0125 13.51738 -37.0144 11.45444 -18.25 25.21875 8.3309 20.48337 -31.0215 1.29427 -19.8438 25.875 9.5631 24.30661 29.5877 -8.02907 37.7188 -14.28125 15.1979 -11.18406 37.4875 17.74881 26.0312 20.625 14.4231 -2.58368 11.0321 -16.27443 -1.3125 -21.65625 -6.85 -16.85427 21.6763 8.29969 20.0938 16.75 10.0677 17.88521 5.9424 -18.33794 16.1875 -2.3125 -1.1962 16.90449 41.2164 3.98668 20.9687 25.53125 -17.4084 3.32643 -34.5751 -4.23257 -49.5625 0.625 -13.9493 -0.11723 -13.2026 -14.27169 -18.2812 -17.8125 -17.7437 1.36759 -39.715 1.21355 -51.5938 14.8125 -12.8454 16.71991 -31.3444 40.0882 -17.3437 61.4375 14.0105 31.63718 48.7468 1.62829 68.7187 20.3125 5.9364 7.79047 -5.1484 17.06148 8.125 25.5 4.9947 17.97555 -5.6732 35.03524 6.5938 52.21875 6.3432 16.16017 10.2971 40.36062 33.9062 25.59375 24.987 -14.26521 18.32 -40.55957 38.9375 -55.125 -16.3137 -29.95239 19.9814 -43.05912 29.0313 -67.375 -19.7723 2.74615 -37.4104 -15.98893 -42.1875 -34.8125 -8.3061 -9.14303 -6.1533 -22.61344 3.125 -5.4375 12.7529 11.72336 13.0342 46.48906 36.625 28.59375 2.6734 -1.06084 6.4946 -2.84055 10.375 -5.0625 0.6915 -6.99958 1.0793 -14.08678 1.1562 -21.25 -13.2203 -0.0309 -24.0176 -29.97967 -4.375 -8.71875 1.4911 0.60016 2.9401 1.14975 4.3438 1.6875 -0.203 -11.25299 -1.1428 -22.33252 -2.8438 -33.15625 -1.8953 2.98765 -5.8018 3.23008 -11.6562 -2.875 2.3511 -14.73427 -15.5929 -25.97544 3.6875 -31.25 C 469.518 676.08343 439.2357 634.12399 399.375 604.25113 z m -289.4687 1.4375 c -1.598 1.22245 -3.184 2.4574 -4.75 3.71875 -2.5385 6.23227 -7.2009 12.24715 -8.7813 7.4375 -44.8543 39.80092 -74.687 96.141 -79.9375 159.46875 6.2915 10.90064 17.5858 29.52759 18.2188 22.1875 -8.4081 -8.35338 -17.0711 -33.41419 -2.8438 -11.09375 12.7435 21.21721 29.9505 34.98228 55.0625 40.03125 13.7296 4.43052 25.0199 19.66343 37.0938 16.3125 6.8273 17.07438 -20.235 33.48075 0.9062 49.40625 11.0368 16.12218 29.5944 26.70936 19.5625 49.34375 -6.4592 20.3532 -4.4669 42.34305 -8.8437 61.78127 6.1947 3.5833 12.565 6.908 19.0937 9.9375 3.0638 -13.3728 5.681 -26.48456 16.0313 -35.78127 19.1025 0.14358 3.6634 -19.50184 22.625 -16.9375 11.5704 -14.38784 14.9114 -31.56808 34.4375 -37.28125 2.3324 -17.46462 32.4738 -44.20027 1.3437 -51 -8.4607 -3.9562 -30.2585 -5.36038 -28.5937 -7.3125 3.3729 -17.32953 -28.1419 -22.28495 -41.5625 -29.375 -17.6207 -11.86572 -44.1044 19.70892 -50.3125 -7.5 -3.7043 -8.56083 -17.2558 -8.6653 -11.0313 -21.875 -11.2177 10.58435 -33.1506 7.34681 -27.4062 -13.09375 8.7238 -17.21491 42.2288 -18.05016 47.9375 2.65625 -7.9263 -22.8367 15.3133 -40.62801 28.2187 -56.875 2.6278 -7.76566 18.248 -14.41467 12.875 -4.09375 9.1538 -0.31345 23.0111 -15.98302 6.75 -8.75 -0.2301 -14.29161 -14.236 -10.2168 -18.7812 -8.1875 8.4241 -12.68455 51.7106 -5.73507 33.5937 -26.46875 -14.0382 -5.39634 -12.8944 -36.88712 -27.0937 -19.34375 1.1949 -10.80922 -28.9067 -31.96963 -28.25 -13.84375 3.6736 16.21927 0.6616 34.89977 -7.1563 45.53125 -1.6315 -23.76664 -44.3683 -18.54898 -38.875 -43.875 7.9583 -12.07048 17.3015 -28.72038 18.1875 -27.21875 13.2485 -4.79876 24.056 -18.11837 12.2813 -27.90625 z m 19 7.875 c -7.7602 12.06027 11.4663 4.45259 0 0 z m 169.9062 14.28125 c -9.0853 9.92302 -21.0545 -2.62279 -21.25 5.90625 1.6466 2.57707 8.2388 20.9798 22.6875 7.40625 7.7547 -3.10167 4.6822 -10.91867 -1.4375 -13.3125 z m -193.4375 5.90625 c -17.2324 14.27732 29.2715 15.61152 3.6563 1.65625 l -3.6563 -1.65625 z m 227.125 39.6875 c -11.9565 7.7331 6.1839 23.85896 0 31.46875 -7.7742 12.85035 28.8952 -0.90373 9.3125 -11.15625 -1.3421 -8.47283 -10.7361 -18.72426 -9.2812 -20.3125 l -0.031 0 z m -8.1562 15.34375 c -17.2862 4.63646 -3.935 28.57687 2.1875 6.03125 0.3442 -1.30711 0.8218 -6.07494 -2.1875 -6.03125 z m -138.4063 17.3125 c -16.0815 10.40311 -2.5045 20.80579 9.2813 16.125 -2.4196 -6.27675 -9.1723 -10.25015 -9.2813 -16.125 z m 262.5313 17.65625 c -1.0887 10.18287 23.1356 25.97776 -3 20.8125 -13.8217 1.53817 -34.5376 -0.41079 -17.125 -16.75 5.502 -3.13357 19.9549 10.84702 12.4375 -2.1875 2.6651 -0.16112 5.1769 -1.10793 7.6875 -1.875 z m 38.25 7.84375 c -2.5679 2.78079 -4.0463 5.84006 2.3125 8.96875 -0.7183 -3.0131 -1.4818 -6.00092 -2.3125 -8.96875 z m -118.0938 14.1875 c -10.0813 6.16166 6.9712 10.88639 0 0 z m -253.1562 57.4375 c -1.6996 5.37928 31.8935 10.83693 8.7187 2.21875 l -3.4687 -1.15625 -5.25 -1.0625 z m 26.0625 7.65625 c -10.1867 9.81086 20.9876 2.93109 0 0 z" opacity="0.367601" fill="#fff"/>
  </g>
  <g transform="matrix(1.8447314,-1.0644814,0.82078499,2.3924441,-83.978538,-1133.9853)" fill="#fffff0">
   <path d="m -151.60773 716.95426 -19.26 -10.96 -25.72 26.48 33.12 6.33 23.78 -2.26 -22.12 -13.66 10.2 -5.93 z"/>
   <path d="m -144.07773 716.95426 c -27.7 -20.61 -62.21 -26 -97.52 -31.78 44.73 -0.33 82.26 0.56 124.2 16.25 20.460004 15.28 44.530004 22.14 70.6 17 5.12 10.23 9.84 21.67 11.75 33.11 -32.91 -26.76 -60.22 -32.29 -99.94 -15.39 l -20.56 -12.63 11.47 -6.56 z"/>
   <path d="m -208.40586 738.68775 c 27.0853 5.101 66.45489 17.63216 60.72189 42.05914 27.53561 -15.84175 46.98017 -17.9899 75.42962 -11.73662 16.617419 -2.57197 23.536221 -9.75272 30.953453 -21.96898 -21.865486 14.1449 -48.07515 8.85088 -66.38008 -11.39044 -10.75256 27.61872 -69.68406 -4.13159 -100.72488 3.0369 z"/>
   <path d="m -174.38637 754.25695 c -23.97 6.22 -46.75 8.84 -71.92 9.06 16.91 -3.41 34.63 -9.21 44.74 -19.82 8.66 5.58 14.92 8.77 27.18 10.76 z"/>
   <path d="m 287.95813 183.02966 a 15.270507 13.961606 0 1 1 -30.54101 0 15.270507 13.961606 0 1 1 30.54101 0 z" transform="matrix(0.45250361,0.20133456,-0.15524215,0.34890998,-195.38967,592.48747)" fill="#8b0c00" fill-opacity="0.980198"/>
   <path d="m -37.522874 738.40278 c -12.05587 4.15336 -24.09637 6.372 -37.874039 7.41855 8.678278 -2.41639 17.377739 -6.118 21.04758 -12.0643 5.742423 2.61027 9.743948 4.0541 16.826454 4.64575 z"/>
  </g>
 </g>
</svg>
