<svg xmlns="http://www.w3.org/2000/svg" xmlns:xlink="http://www.w3.org/1999/xlink" width="512" height="512">
 <defs>
  <linearGradient id="0">
   <stop stop-color="#43a1ca"/>
   <stop offset="1" stop-color="#0078ad"/>
  </linearGradient>
  <radialGradient xlink:href="#0" id="1" cx="222.85715" cy="246.28572" r="82.85714" gradientUnits="userSpaceOnUse"/>
 </defs>
 <path transform="matrix(3.0172416 0 0 3.0172415 -416.41385 -487.10349)" d="m 305.71429 246.28572 a 82.85714 82.85714 0 1 1 -165.71428 0 82.85714 82.85714 0 1 1 165.71428 0 z" fill="url(#1)" fill-rule="evenodd"/>
 <path d="m 450.256,600.76044 c -34.44135,-34.44135 -82.01437,-55.74397 -134.57012,-55.74396 -105.11146,-10e-6 -190.31408,85.20261 -190.31408,190.31408 0,9.08415 0.61675,18.00963 1.84748,26.75437 0.0875,0.12622 0.18676,0.28324 0.27374,0.41052 5.97133,46.19416 21.30721,91.33107 -4.42484,123.66766 -107.047596,107.77742 0.14304,-0.87292 -107.633325,107.63332 -12.4747442,12.47467 -12.5920942,32.43177 -0.273666,44.75027 12.318428,12.3184 32.275489,12.2011 44.750233,-0.2737 106.588778,-107.36553 0.402153,0.2489 107.382428,-107.38243 33.65885,-25.78576 78.17932,-10.70762 127.49949,-6.38638 0.008,7.3e-4 0.0146,0.0218 0.0228,0.0228 6.85575,0.75268 13.81379,1.1176 20.86977,1.11761 3.55709,0 7.09698,-0.10389 10.60596,-0.29651 C 426.47265,919.84829 506.00001,836.8849 506,735.33051 c 10e-6,-52.55574 -21.30261,-100.12877 -55.74396,-134.57012 z m -35.69529,35.69529 c 25.30692,25.30692 40.96406,60.28061 40.96406,98.89764 -10e-6,77.23408 -62.60481,139.83888 -139.83889,139.83889 -77.23409,0 -139.8617,-62.62761 -139.8617,-139.8617 10e-6,-77.23408 62.60481,-139.83888 139.83889,-139.83889 38.61705,10e-6 73.59073,15.65715 98.89764,40.96406 z" transform="matrix(0.61132405 0 0 0.61132405 99.50104 -230.83535)" fill="#fff8eb"/>
</svg>
