<svg xmlns="http://www.w3.org/2000/svg" xmlns:xlink="http://www.w3.org/1999/xlink" width="512" height="512">
 <defs>
  <linearGradient id="0">
   <stop stop-color="#538fab"/>
   <stop offset="1" stop-color="#366378"/>
  </linearGradient>
  <radialGradient xlink:href="#0" id="1" cx="256" cy="255.98068" r="250" gradientUnits="userSpaceOnUse"/>
 </defs>
 <path d="m 506 256.00004 a 250 250 0 0 1 -500 0 250 250 0 1 1 500 0 z" fill="url(#1)" fill-rule="evenodd"/>
 <g transform="matrix(0.92395889,0,0,0.92395889,19.466526,19.466525)">
  <path d="m 323.36128 169.28254 c -34.16408 2.43715 -94.21706 59.90598 -85.77281 59.61515 69.84587 -2.40817 113.47331 1.56681 167.97084 18.30275 8.06935 2.47901 -8.70765 -72.30849 -82.19803 -77.9179 z" fill="#fff"/>
  <path d="M 219.46302 122.0184 C 200.04003 149.92379 197.60139 259.13292 202.6152 252.40635 243.93866 196.96579 342.98347 128.49814 402.05292 100.92757 475.06868 66.847204 262.7017 71.0057 219.46302 122.0184 z" fill="#fff"/>
  <path d="m 131.5123 240.80548 c 11.19249 32.0199 82.81784 74.58574 80.35567 66.59177 -20.36558 -66.12494 -27.73365 -108.84211 -25.44032 -165.2367 0.3396 -8.35026 -68.38888 26.9696 -54.91535 98.64493 z" fill="#fff"/>
  <path d="M 140.86649 345.92372 C 172.58828 358.70506 252.16467 333.489 244.4636 330.0506 180.76435 301.61077 143.43021 278.93381 102.06468 240.05427 c -6.124905 -5.75644 -24.574519 68.64472 38.80181 105.86945 z" fill="#fff"/>
  <path d="m 232.64278 406.07115 c 30.32913 -15.74541 62.14315 -92.1684 54.52091 -88.56258 -63.0472 29.82743 -104.64293 43.43618 -161.36028 49.64656 -8.39804 0.92292 37.21076 62.8357 106.83938 38.91602 z" fill="#fff"/>
  <path d="m 339.60291 373.61019 c 7.4088 -33.07696 -31.09248 -106.42857 -33.22547 -98.3423 -17.64275 66.88581 -33.97162 107.09715 -65.77159 153.96207 -4.7086 6.93906 72.54435 12.4272 98.99706 -55.61977 z" fill="#fff"/>
  <path d="m 381.71055 269.52004 c -20.60732 -27.06189 -101.9978 -45.7746 -97.16892 -38.91603 39.94225 56.72299 60.23738 95.12712 75.59337 149.48592 2.27372 8.04871 56.68597 -46.46893 21.57544 -110.56989 z" fill="#fff"/>
 </g>
</svg>
