<?xml version="1.0" encoding="UTF-8" standalone="no"?>
<!-- Created with Inkscape (http://www.inkscape.org/) -->

<svg
   xmlns:dc="http://purl.org/dc/elements/1.1/"
   xmlns:cc="http://creativecommons.org/ns#"
   xmlns:rdf="http://www.w3.org/1999/02/22-rdf-syntax-ns#"
   xmlns:svg="http://www.w3.org/2000/svg"
   xmlns="http://www.w3.org/2000/svg"
   xmlns:sodipodi="http://sodipodi.sourceforge.net/DTD/sodipodi-0.dtd"
   xmlns:inkscape="http://www.inkscape.org/namespaces/inkscape"
   width="512"
   height="512"
   id="svg2"
   version="1.1"
   inkscape:version="0.48.4 r9939"
   sodipodi:docname="skype.svg">
  <defs
     id="defs4" />
  <sodipodi:namedview
     id="base"
     pagecolor="#ffffff"
     bordercolor="#666666"
     borderopacity="1.0"
     inkscape:pageopacity="0.0"
     inkscape:pageshadow="2"
     inkscape:zoom="0.49497475"
     inkscape:cx="615.5"
     inkscape:cy="251.51749"
     inkscape:document-units="px"
     inkscape:current-layer="layer1"
     showgrid="false"
     inkscape:window-width="1309"
     inkscape:window-height="750"
     inkscape:window-x="55"
     inkscape:window-y="-3"
     inkscape:window-maximized="1" />
  <metadata
     id="metadata7">
    <rdf:RDF>
      <cc:Work
         rdf:about="">
        <dc:format>image/svg+xml</dc:format>
        <dc:type
           rdf:resource="http://purl.org/dc/dcmitype/StillImage" />
        <dc:title />
      </cc:Work>
    </rdf:RDF>
  </metadata>
  <g
     inkscape:label="Layer 1"
     inkscape:groupmode="layer"
     id="layer1"
     transform="translate(0,-540.36218)">
    <path
       sodipodi:type="arc"
       style="fill:#62c0dc;fill-rule:evenodd;stroke:none"
       id="path2985"
       sodipodi:cx="202.85715"
       sodipodi:cy="-316.57144"
       sodipodi:rx="360"
       sodipodi:ry="360"
       d="m 562.85715,-316.57144 c 0,198.82251 -161.17749,359.999998 -360,359.999998 -198.8225127,0 -360,-161.177488 -360,-359.999998 0,-198.82251 161.1774873,-360 360,-360 198.82251,0 360,161.17749 360,360 z"
       transform="matrix(0.69444444,0,0,0.69444444,115.12698,1016.2035)" />
    <path
       inkscape:connector-curvature="0"
       d="m 416.8638,833.11537 c 2.46193,-11.25724 3.7711,-22.94272 3.7711,-34.93757 0,-89.919 -72.8964,-162.81712 -162.8197,-162.81712 -9.49367,0 -18.7959,0.82151 -27.8447,2.3815 -14.55197,-9.1659 -31.76778,-14.48733 -50.23592,-14.48733 -52.14811,0 -94.42155,42.27693 -94.42155,94.4198 0,17.43077 4.742883,33.74551 12.97891,47.76004 -2.15951,10.57732 -3.29476,21.52693 -3.29476,32.74311 0,89.92162 72.89465,162.81885 162.81802,162.81885 10.18492,0 20.14785,-0.94297 29.81274,-2.73194 13.29265,7.14447 28.48966,11.20481 44.63746,11.20481 52.14894,0 94.42158,-42.27344 94.42158,-94.42155 0,-15.06588 -3.54562,-29.29627 -9.82318,-41.9326"
       id="path22"
       style="fill:#fff8eb;fill-opacity:1;fill-rule:nonzero;stroke:none" />
    <path
       inkscape:connector-curvature="0"
       d="m 208.96185,691.14614 0,0 c -13.69033,5.06275 -24.32354,12.44494 -31.60439,21.94118 -7.33587,9.56355 -11.05621,20.6495 -11.05621,32.94936 0,12.90375 3.5438,23.88221 10.53533,32.63036 6.88409,8.61795 16.29469,15.50286 27.97055,20.47035 11.41801,4.85562 25.7743,9.15191 42.67108,12.77091 12.42571,2.60172 22.47163,5.08984 29.87309,7.39617 7.09724,2.21281 12.94133,5.43766 17.3713,9.58102 4.23163,3.96333 6.28889,9.01646 6.28889,15.4443 0,8.13553 -3.94058,14.78011 -12.04991,20.31566 -8.3007,5.6675 -19.33509,8.5419 -32.79639,8.5419 -9.78814,0 -17.74542,-1.41666 -23.64711,-4.21153 -5.86856,-2.77476 -10.46283,-6.32646 -13.65538,-10.55372 -3.32272,-4.39592 -6.46975,-9.97517 -9.35467,-16.58304 -2.58247,-6.06953 -5.79857,-10.76871 -9.54694,-13.94462 -3.92226,-3.31573 -8.74725,-4.99457 -14.34222,-4.99457 -6.81591,0 -12.53149,2.12542 -16.99209,6.32121 -4.50605,4.23338 -6.79228,9.40624 -6.79228,15.37264 0,9.54607 3.50801,19.44433 10.42438,29.42038 6.84821,9.87729 15.86729,17.87997 26.80729,23.7887 15.30272,8.11804 34.91048,12.23081 58.29458,12.23081 19.48275,0 36.60152,-3.00985 50.88089,-8.9448 14.41739,-5.99523 25.54707,-14.44013 33.0787,-25.09873 7.55869,-10.70054 11.3918,-22.92524 11.3918,-36.33675 0,-11.20918 -2.22681,-20.85575 -6.62008,-28.67054 -4.38194,-7.78595 -10.55721,-14.30817 -18.35627,-19.38752 -7.64,-4.97011 -17.01132,-9.25067 -27.85253,-12.7211 -10.70844,-3.42236 -22.81953,-6.59127 -35.99507,-9.41935 -10.4104,-2.40683 -18.00321,-4.26657 -22.52931,-5.52243 -4.41607,-1.22002 -8.82507,-2.92945 -13.10479,-5.08022 -4.12585,-2.06426 -7.38915,-4.54538 -9.70335,-7.37171 -2.18576,-2.66727 -3.24848,-5.76889 -3.24848,-9.4779 0,-6.04854 3.30175,-11.15411 10.09319,-15.60685 7.04657,-4.62141 16.53848,-6.96357 28.21084,-6.96357 12.56729,0 21.71131,2.11144 27.18218,6.27403 5.63692,4.28407 10.55198,10.36582 14.61231,18.08011 3.508,6.04156 6.66992,10.24085 9.71648,12.93434 3.27554,2.90061 7.99398,4.37233 14.02418,4.37233 6.63756,0 12.26315,-2.35091 16.72201,-6.98804 4.43172,-4.60742 6.6795,-9.89302 6.6795,-15.71085 0,-6.04593 -1.71468,-12.29461 -5.09333,-18.57389 -3.34371,-6.21722 -8.67125,-12.20372 -15.83058,-17.79695 -7.10949,-5.5539 -16.15653,-10.06694 -26.88945,-13.40889 -10.67083,-3.31836 -23.45485,-4.99894 -37.99549,-4.99894 -18.18757,0 -34.26027,2.53355 -47.77225,7.53075"
       id="path78"
       style="fill:#62c0dc;fill-opacity:1;fill-rule:nonzero;stroke:none" />
  </g>
</svg>
