<svg xmlns="http://www.w3.org/2000/svg" xmlns:xlink="http://www.w3.org/1999/xlink" width="512" height="512">
 <defs>
  <linearGradient y2="7.01654" x2="0" y1="92.5396" gradientTransform="scale(1.0058652,0.994169)" gradientUnits="userSpaceOnUse" xlink:href="#1"/>
  <filter x="-0.192" y="-0.192" width="1.384" height="1.384" color-interpolation-filters="sRGB">
   <feGaussianBlur stdDeviation="5.28"/>
  </filter>
  <clipPath>
   <rect width="84" height="84" rx="6" x="6" y="6" fill="#fff"/>
  </clipPath>
  <linearGradient id="0">
   <stop stop-color="#fff"/>
   <stop offset="1" stop-color="#fff" stop-opacity="0"/>
  </linearGradient>
  <linearGradient y1="20.220806" x2="0" y2="138.66119" xlink:href="#0" gradientUnits="userSpaceOnUse"/>
  <filter color-interpolation-filters="sRGB">
   <feGaussianBlur stdDeviation="1.71"/>
  </filter>
  <linearGradient y1="92.5396" x2="0" y2="7.01654" id="1" gradientUnits="userSpaceOnUse" gradientTransform="scale(1.0058652,0.994169)">
   <stop/>
   <stop offset="1" stop-opacity="0.588235"/>
  </linearGradient>
  <linearGradient id="2">
   <stop stop-color="#424242"/>
   <stop stop-color="#282629" offset="1"/>
  </linearGradient>
  <radialGradient xlink:href="#2" id="3" gradientUnits="userSpaceOnUse" gradientTransform="translate(0,540.36217)" cx="256" cy="256.00006" r="243.6236"/>
 </defs>
 <g transform="translate(0,-540.36217)">
  <path d="m 499.62359 796.36221 c 0 134.54959 -109.074 243.62359 -243.62359 243.62359 -134.54959 0 -243.62358 -109.074 -243.62358 -243.62359 C 12.376416 661.81263 121.45041 552.73863 256 552.73863 c 134.54959 0 243.62359 109.074 243.62359 243.62358 z" fill="url(#3)" fill-rule="evenodd"/>
  <path d="m 256 679.71478 c -64.4226 0 -116.64739 52.22479 -116.64739 116.64739 0 64.4226 52.22479 116.64739 116.64739 116.64739 64.4226 0 116.64739 -52.22479 116.64739 -116.64739 0 -64.4226 -52.22479 -116.64739 -116.64739 -116.64739 z m -35.8915 43.74277 47.33192 34.54558 47.33192 34.54557 -47.33192 34.54557 -47.33192 34.76991 0 -69.31548 0 -69.09115 z" fill="#cdcdcd" fill-rule="evenodd"/>
  <path d="m 422.90625 618.89342 0 4 4.15625 0 c -1.36997 -1.35105 -2.75474 -2.68148 -4.15625 -4 z m 0 29.03125 0 28.59375 40.78125 0 0 -7.53125 c -4.47746 -7.28456 -9.33535 -14.31152 -14.53125 -21.0625 l -26.25 0 z m 0 53.625 0 28.65625 40.78125 0 0 -28.65625 -40.78125 0 z m 0 53.6875 0 28.59375 40.78125 0 0 -28.59375 -40.78125 0 z m 0 53.625 0 28.625 40.78125 0 0 -28.625 -40.78125 0 z m 0 53.65625 0 28.625 40.78125 0 0 -28.625 -40.78125 0 z m 0 53.65625 0 28.625 26.25 0 c 5.1959 -6.75098 10.05379 -13.77794 14.53125 -21.0625 l 0 -7.5625 -40.78125 0 z m 0 53.65625 0 4 c 1.40151 -1.31852 2.78628 -2.64895 4.15625 -4 l -4.15625 0 z" fill="#fff8eb"/>
  <path d="m 89.09375 618.89342 c -1.401514 1.31852 -2.786281 2.64895 -4.15625 4 l 4.15625 0 0 -4 z m -26.25 29.03125 c -5.195903 6.75098 -10.05379 13.77794 -14.53125 21.0625 l 0 7.53125 40.78125 0 0 -28.59375 -26.25 0 z m -14.53125 53.625 0 28.65625 40.78125 0 0 -28.65625 -40.78125 0 z m 0 53.6875 0 28.59375 40.78125 0 0 -28.59375 -40.78125 0 z m 0 53.625 0 28.625 40.78125 0 0 -28.625 -40.78125 0 z m 0 53.65625 0 28.625 40.78125 0 0 -28.625 -40.78125 0 z m 0 53.65625 0 7.5625 c 4.477463 7.28456 9.335347 14.31152 14.53125 21.0625 l 26.25 0 0 -28.625 -40.78125 0 z m 36.625 53.65625 c 1.369969 1.35105 2.754736 2.68148 4.15625 4 l 0 -4 -4.15625 0 z" fill="#fff8eb"/>
  <path d="m 256 546.36217 c -138.06296 0 -250 111.93705 -250 250 0 138.06296 111.93704 250.00003 250 250.00003 138.06295 0 250 -111.93707 250 -250.00003 0 -138.06295 -111.93705 -250 -250 -250 z m 0 22.6875 c 125.54642 0 227.3125 101.76608 227.3125 227.3125 0 125.54643 -101.76608 227.31253 -227.3125 227.31253 -125.54643 0 -227.3125 -101.7661 -227.3125 -227.31253 0 -125.54642 101.76607 -227.3125 227.3125 -227.3125 z" fill="#2a282b" fill-rule="evenodd"/>
 </g>
</svg>
