<svg xmlns="http://www.w3.org/2000/svg" xmlns:xlink="http://www.w3.org/1999/xlink" width="512" height="512">
 <defs>
  <linearGradient y2="7.01654" x2="0" y1="92.5396" gradientTransform="scale(1.0058652,0.994169)" gradientUnits="userSpaceOnUse" xlink:href="#1"/>
  <filter x="-0.192" y="-0.192" width="1.384" height="1.384" color-interpolation-filters="sRGB">
   <feGaussianBlur stdDeviation="5.28"/>
  </filter>
  <clipPath>
   <rect width="84" height="84" rx="6" x="6" y="6" fill="#fff"/>
  </clipPath>
  <linearGradient id="0">
   <stop stop-color="#fff"/>
   <stop offset="1" stop-color="#fff" stop-opacity="0"/>
  </linearGradient>
  <linearGradient y1="20.220806" x2="0" y2="138.66119" xlink:href="#0" gradientUnits="userSpaceOnUse"/>
  <filter color-interpolation-filters="sRGB">
   <feGaussianBlur stdDeviation="1.71"/>
  </filter>
  <linearGradient y1="92.5396" x2="0" y2="7.01654" id="1" gradientUnits="userSpaceOnUse" gradientTransform="scale(1.0058652,0.994169)">
   <stop/>
   <stop offset="1" stop-opacity="0.588235"/>
  </linearGradient>
 </defs>
 <g transform="translate(0,-540.36217)">
  <path d="m 256 546.36216 c -91.41816 0 -171.34469 49.09463 -214.94141 122.33072 -22.248524 37.37426 -35.05859 81.01624 -35.05859 127.66926 0 138.07117 111.92881 250.00006 250 250.00006 138.07119 0 250 -111.92889 250 -250.00006 0 -46.65302 -12.81007 -90.295 -35.05859 -127.66926 C 427.34469 595.45679 347.41816 546.36216 256 546.36216 z" fill="#282629" fill-rule="evenodd"/>
  <text y="1089.8812" x="-1160.4812" font-family="Gentium Book Basic" word-spacing="0" line-height="125%" letter-spacing="0" font-size="208.33333"><tspan y="1089.8812" x="-1160.4812"/>
  </text>
  <text transform="scale(4.0128362,0.2492003)" font-size="75.69771" y="3810.6255" x="28.533577" font-family="Arial" text-anchor="middle"/>
  <path d="m 255.98437 546.37778 c -4.88368 0 -9.71695 0.12984 -14.53125 0.40625 l 264.125 264.125 c 0.27648 -4.81623 0.40625 -9.64576 0.40625 -14.53125 0 -2.1186 -0.01 -4.23787 -0.0625 -6.34375 L 262.32812 546.44028 c -2.10381 -0.0523 -4.2273 -0.0625 -6.34375 -0.0625 z m 29.15625 1.6875 219.1875 219.15625 c -1.00838 -8.66353 -2.47154 -17.19326 -4.34375 -25.5625 L 310.70312 552.37778 c -8.36748 -1.86888 -16.90134 -3.30622 -25.5625 -4.3125 z m -63.03125 0.59375 c -6.10659 0.82791 -12.13573 1.86415 -18.09375 3.125 l 296.5625 296.5625 c 1.2604 -5.95938 2.29747 -11.98597 3.125 -18.09375 L 222.10937 548.65903 z m -35.0625 7.34375 c -5.42655 1.55483 -10.76269 3.31291 -16.03125 5.21875 l 320.15625 320.125 c 1.90078 -5.25883 3.63621 -10.58393 5.1875 -16 L 187.04687 556.00278 z m 153.53125 5.0625 150.6875 150.6875 c -4.95358 -13.75115 -11.07731 -26.95288 -18.25 -39.46875 l -0.0312 -0.0625 -92.96875 -92.9375 c -12.5083 -7.16601 -25.692 -13.27379 -39.4375 -18.21875 z m -184.71875 6.1875 c -4.87194 2.13378 -9.67123 4.41407 -14.375 6.84375 l 336.78125 336.78125 c 2.42374 -4.6955 4.7147 -9.4808 6.84375 -14.34375 l -329.25 -329.28125 z m -27.99999 14.4375 c -4.40045 2.63352 -8.7179 5.39017 -12.9375 8.28125 l 347.46874 347.46875 c 2.88894 -4.21894 5.6497 -8.53786 8.28125 -12.9375 L 127.85938 581.69028 z m -25.1875 17.25 c -3.964745 3.08493 -7.824845 6.28038 -11.593755 9.59375 L 443.82812 961.31528 c 3.32252 -3.78032 6.53231 -7.64765 9.625 -11.625 l -350.78124 -350.75 z m -22.593755 19.84375 c -3.546886 3.51505 -6.980063 7.15407 -10.3125 10.875 L 422.73437 982.62778 c 3.72733 -3.33932 7.35443 -6.78907 10.875 -10.34375 l -353.53125 -353.5 z m -20.03125 22.375 c -3.136648 3.95545 -6.165309 8.01186 -9.0625 12.15625 L 399.07812 1001.3778 c 4.14117 -2.89565 8.17266 -5.92759 12.125 -9.06252 L 60.04688 641.15903 z m -17.4375 24.96875 c -0.521291 0.85229 -1.051164 1.70353 -1.5625 2.5625 -2.140586 3.59587 -4.193408 7.25974 -6.15625 10.96875 L 372.73437 1017.4715 c 4.58855 -2.4277 9.11759 -4.9568 13.53125 -7.6562 L 42.609375 666.12778 z m -14.65625 27.78125 c -2.2186 4.92577 -4.284573 9.94246 -6.1875 15.03125 L 343.45312 1030.6278 c 5.0899 -1.901 10.10471 -3.9704 15.03125 -6.1875 L 27.953125 693.90903 z m -11.53125 30.90625 c -1.650034 5.52235 -3.135184 11.10584 -4.40625 16.78125 L 310.73437 1040.3466 c 5.68622 -1.2702 11.27974 -2.756 16.8125 -4.4063 L 16.421875 724.81528 z m -7.71875 34.71875 c -0.930564 6.28765 -1.641472 12.66207 -2.09375 19.09375 L 273.67187 1045.7216 c 6.46589 -0.4517 12.86647 -1.1284 19.1875 -2.0625 L 8.703125 759.53403 z m -2.6875 39.71875 c 0.085652 7.57098 0.505527 15.07369 1.25 22.46875 L 230.64062 1045.0966 c 7.39506 0.7444 14.89777 1.1643 22.46875 1.25 L 6.01563 799.25278 z m 5.0625 47.5 c 2.023827 9.8902 4.658247 19.57288 7.8125 29 L 176.60937 1033.4716 c 9.43481 3.1579 19.10128 5.7869 29 7.8125 L 11.07813 846.75278 z m 23.6875 66.09375 c 23.53534 44.61207 60.13717 81.24716 104.74999 104.78127 L 34.765625 912.84653 z" fill="#fff8eb" fill-rule="evenodd" fill-opacity="0.076023"/>
  <path d="m 295.18113 628.03626 c -46.56258 18.64551 -69.1937 71.50674 -50.54821 118.06927 18.64549 46.56254 71.50674 69.19363 118.06932 50.54812 46.56243 -18.64545 69.19356 -71.50668 50.54807 -118.06922 -18.64549 -46.56254 -71.50674 -69.19362 -118.06918 -50.54817 z m 14.81823 37.00487 c 26.11277 -10.45659 55.74491 2.26643 66.20156 28.37935 10.45665 26.11292 -2.22198 55.72712 -28.33476 66.18371 -26.11292 10.45665 -55.77171 -2.20396 -66.22837 -28.31688 -10.45665 -26.11292 2.24864 -55.78952 28.36157 -66.24618 z" fill="#d1c4b1" fill-rule="evenodd"/>
  <path d="m 213.62803 849.67528 c -33.42958 13.38654 -49.68722 51.36062 -36.30071 84.79014 13.38651 33.42952 51.34278 49.64246 84.77236 36.25592 33.42944 -13.38647 49.70479 -51.31591 36.31828 -84.74543 -13.38651 -33.42952 -51.3605 -49.6871 -84.78993 -36.30063 z m 5.30242 13.24151 c 26.11278 -10.4566 55.78943 2.24859 66.24608 28.36152 10.45665 26.11292 -2.26649 55.74494 -28.37927 66.20153 -26.11292 10.45665 -55.7272 -2.22178 -66.18371 -28.33476 -10.45665 -26.11292 2.20398 -55.77164 28.3169 -66.22829 z" fill="#d1c4b1" fill-rule="evenodd"/>
  <path d="m 215.81079 849.98791 30.05793 -110.46999 112.61102 57.87697 -58.47367 94.52016 -12.30977 -6.12996 c -13.26506 -17.42942 -30.15796 -30.42523 -58.67228 -29.21731 z" fill="#d1c4b1" fill-rule="evenodd"/>
  <path d="M 17.65625 331.65625 C 26.593408 359.83784 40.38976 385.84761 58.0625 408.71875 L 230.625 409.71875 C 251.90974 409.8411 269.1589 392.81599 269.28125 371.53125 C 269.4036 350.24651 252.34724 332.99735 231.0625 332.875 L 17.65625 331.65625 z" transform="translate(0,540.36217)" fill="#d1c4b1" fill-rule="evenodd"/>
 </g>
</svg>
