<svg xmlns="http://www.w3.org/2000/svg" xmlns:xlink="http://www.w3.org/1999/xlink" width="512" height="512">
 <defs>
  <linearGradient id="0">
   <stop stop-color="#309bca"/>
   <stop offset="1" stop-color="#0078ad"/>
  </linearGradient>
  <radialGradient xlink:href="#0" id="1" cx="202.85715" cy="-316.57144" r="360" gradientUnits="userSpaceOnUse"/>
 </defs>
 <path d="m 562.85715 -316.57144 c 0 198.82251 -161.17749 360 -360 360 -198.82251 0 -360 -161.17749 -360 -360 0 -198.82251 161.17749 -360 360 -360 198.82251 0 360 161.17749 360 360 z" transform="matrix(0.69444444 0 0 0.69444444 115.12698 475.84132)" fill="url(#1)" fill-rule="evenodd"/>
 <path d="M 256 32.25 C 132.434 32.25 32.25 132.434 32.25 256 C 32.25 379.566 132.434 479.75 256 479.75 C 379.566 479.75 479.75 379.566 479.75 256 C 479.75 132.434 379.566 32.25 256 32.25 z M 152.09375 158.875 C 175.88553 158.875 195.1875 178.17697 195.1875 201.96875 C 195.1875 225.76053 175.88553 245.03125 152.09375 245.03125 C 128.30197 245.03125 109.03125 225.76053 109.03125 201.96875 C 109.03125 178.17697 128.30197 158.875 152.09375 158.875 z M 256 158.875 C 279.79178 158.875 299.09375 178.17697 299.09375 201.96875 C 299.09375 225.76053 279.79178 245.03125 256 245.03125 C 232.20822 245.03125 212.90625 225.76053 212.90625 201.96875 C 212.90625 178.17697 232.20822 158.875 256 158.875 z M 359.90625 158.875 C 383.69803 158.875 402.96875 178.17697 402.96875 201.96875 C 402.96875 225.76053 383.69803 245.03125 359.90625 245.03125 C 336.11447 245.03125 316.8125 225.76053 316.8125 201.96875 C 316.8125 178.17697 336.11447 158.875 359.90625 158.875 z M 70.6875 307.9375 L 212.09375 307.9375 C 234.40462 337.76412 265.32166 391.73799 331.34375 389.0625 C 314.8226 373.26567 292.60183 334.02662 319.875 307.9375 L 441.3125 307.9375 C 418.65522 388.98012 344.27841 448.40625 256 448.40625 C 167.72159 448.40625 93.34478 388.98012 70.6875 307.9375 z" transform="matrix(1 0 0 1 0 0)" fill="#fff8eb" fill-rule="evenodd"/>
</svg>
