<?xml version="1.0" encoding="UTF-8" standalone="no"?>
<!-- Created with Inkscape (http://www.inkscape.org/) -->

<svg
   xmlns:dc="http://purl.org/dc/elements/1.1/"
   xmlns:cc="http://creativecommons.org/ns#"
   xmlns:rdf="http://www.w3.org/1999/02/22-rdf-syntax-ns#"
   xmlns:svg="http://www.w3.org/2000/svg"
   xmlns="http://www.w3.org/2000/svg"
   xmlns:sodipodi="http://sodipodi.sourceforge.net/DTD/sodipodi-0.dtd"
   xmlns:inkscape="http://www.inkscape.org/namespaces/inkscape"
   width="512"
   height="512"
   id="svg2"
   version="1.1"
   inkscape:version="0.48.4 r9939"
   sodipodi:docname="thunderbird_B.svg">
  <defs
     id="defs4" />
  <sodipodi:namedview
     id="base"
     pagecolor="#ffffff"
     bordercolor="#666666"
     borderopacity="1.0"
     inkscape:pageopacity="0.0"
     inkscape:pageshadow="2"
     inkscape:zoom="0.98994949"
     inkscape:cx="365.79245"
     inkscape:cy="193.27978"
     inkscape:document-units="px"
     inkscape:current-layer="layer1"
     showgrid="false"
     inkscape:window-width="1309"
     inkscape:window-height="750"
     inkscape:window-x="55"
     inkscape:window-y="-3"
     inkscape:window-maximized="1" />
  <metadata
     id="metadata7">
    <rdf:RDF>
      <cc:Work
         rdf:about="">
        <dc:format>image/svg+xml</dc:format>
        <dc:type
           rdf:resource="http://purl.org/dc/dcmitype/StillImage" />
        <dc:title />
      </cc:Work>
    </rdf:RDF>
  </metadata>
  <g
     inkscape:label="Layer 1"
     inkscape:groupmode="layer"
     id="layer1"
     transform="translate(0,-540.36218)">
    <path
       sodipodi:type="arc"
       style="fill:#dedede;fill-rule:evenodd;stroke:none;fill-opacity:1"
       id="path2985"
       sodipodi:cx="202.85715"
       sodipodi:cy="-316.57144"
       sodipodi:rx="360"
       sodipodi:ry="360"
       d="m 562.85715,-316.57144 a 360,360 0 1 1 -720,0 360,360 0 1 1 720,0 z"
       transform="matrix(0.69444444,0,0,0.69444444,114.41269,1016.9178)" />
    <path
       style="fill:#1a5c79;stroke:none;fill-opacity:1"
       d="m 228.29448,328.15224 c -71.59041,24.84433 -91.47806,53.65659 -123.23862,117.17769 l 90.91373,46.46702 90.91373,2.0203 66.67007,-20.20305 c 0,0 46.46702,-16.16244 46.46702,-26.26396 0,-10.10153 -42.42641,-107.07617 -54.54824,-125.25892 -12.12183,-18.18274 -117.17769,6.06092 -117.17769,6.06092 z"
       id="path3915"
       inkscape:connector-curvature="0"
       transform="translate(0,540.36218)"
       sodipodi:nodetypes="cccccssc" />
    <path
       inkscape:connector-curvature="0"
       style="fill:#0078ad;stroke:none"
       d="m 357.34287,590.32517 c -50.25882,5.02781 -77.35759,8.37492 -122.28811,32.11303 -82.65514,48.32148 -135.355549,120.81683 -144.989734,220.55158 -23.216035,25.8195 -38.19339,40.55498 -24.144911,82.08668 17.706526,-11.308 34.437745,-24.03863 54.934935,-29.7677 38.41482,4.01742 85.34163,-21.37843 131.21842,-23.72395 15.4419,1.06911 26.32289,1.39837 45.43332,14.04194 3.59013,41.08851 32.22825,90.61833 76.28349,102.71359 4.50851,2.16835 10.21039,6.20591 15.72576,8.8401 8.56987,-5.71917 16.75947,-11.99015 24.50573,-18.7326 1.74388,-3.00073 3.77299,-5.28301 6.40457,-5.83327 1.47938,-1.37281 2.94554,-2.77031 4.38998,-4.1795 1.16979,-1.14125 2.31143,-2.29318 3.45787,-3.45786 0.26677,-0.27322 0.54636,-0.53738 0.81184,-0.81185 0.40533,-0.41571 0.8004,-0.84424 1.20274,-1.26287 0.01,-0.0103 0.0203,-0.0198 0.03,-0.03 1.31755,-1.38242 2.62423,-2.76607 3.90889,-4.17951 38.82597,-42.71807 62.48209,-99.46417 62.48209,-161.73782 0,-49.15888 -14.74082,-94.87393 -40.05108,-132.96239 -26.9584,-4.43905 -47.1474,-10.35074 -106.38194,-13.68111 l 6.61505,-6.13395 c -13.85227,1.39775 -27.70225,2.82571 -41.55451,9.44147 l 39.17915,-31.18096 c -31.5931,7.74834 -58.21411,15.25667 -83.5901,36.35267 l -22.67156,0 109.08809,-68.4657 z"
       id="path2994" />
    <path
       style="fill:#282629;stroke:none"
       d="m 150.24111,843.87893 c 32.25672,7.24311 55.3249,-16.79743 57.10048,-39.40266 -1.95564,-9.13134 -6.24762,-11.90729 -16.0282,-13.69073 -24.03312,-1.01741 -47.82936,12.37423 -44.41147,38.40088 0.0168,5.20871 -0.61174,7.09851 3.33919,14.69251 z"
       id="path3764"
       inkscape:connector-curvature="0"
       sodipodi:nodetypes="ccccc" />
    <path
       style="fill:#ffd459;stroke:none"
       d="m 193.03711,805.5961 c -19.8155,-6.41091 -47.09538,10.32371 -38.20458,35.25668 24.84784,11.36534 55.00278,-22.10122 38.20458,-35.25668 z"
       id="path3766"
       inkscape:connector-curvature="0"
       sodipodi:nodetypes="ccc" />
    <path
       sodipodi:type="arc"
       style="fill:#282629;fill-rule:evenodd;stroke:none"
       id="path3768"
       sodipodi:cx="942.0304"
       sodipodi:cy="263.06052"
       sodipodi:rx="4.7982244"
       sodipodi:ry="4.7982244"
       d="m 946.82862,263.06052 a 4.7982244,4.7982244 0 1 1 -9.59645,0 4.7982244,4.7982244 0 1 1 9.59645,0 z"
       transform="matrix(2.2144222,0,0,2.2144222,-1913.6971,242.38594)" />
    <path
       sodipodi:type="arc"
       style="fill:#ffffff;fill-rule:evenodd;stroke:none"
       id="path3770"
       sodipodi:cx="936.79022"
       sodipodi:cy="262.23978"
       sodipodi:rx="1.8940361"
       sodipodi:ry="1.8940361"
       d="m 938.68426,262.23978 a 1.8940361,1.8940361 0 1 1 -3.78807,0 1.8940361,1.8940361 0 1 1 3.78807,0 z"
       transform="matrix(2.4932754,0,0,2.4932754,-2170.7577,166.11856)" />
    <path
       style="fill:#5a4739;stroke:none"
       d="m 90.886695,835.49752 c -0.296501,2.47357 -0.575835,4.97187 -0.818106,7.47983 -23.216035,25.8195 -38.182606,40.57108 -24.134127,82.10278 17.706525,-11.308 34.432778,-24.07335 54.929978,-29.80243 0.79338,0.083 1.59531,0.11687 2.39588,0.17521 l 1.51934,-28.16622 c -3.31136,-1.8922 -7.22209,-2.01705 -10.86913,-3.03868 -15.952669,-5.16713 -20.319523,-14.41996 -23.023835,-28.75058 z"
       id="path3805"
       inkscape:connector-curvature="0" />
    <path
       style="fill:#727057;stroke:none"
       d="m 97.648589,867.58731 c -6.948347,-19.94037 -18.027092,4.10898 -17.697793,10.85244 6.840824,-4.75754 6.366529,-13.12141 17.196925,-8.84892 z"
       id="path3855"
       inkscape:connector-curvature="0"
       sodipodi:nodetypes="cccc" />
    <path
       style="fill:#0078ad;fill-rule:evenodd;stroke:none;fill-opacity:1"
       d="M 255.28125 6.71875 C 117.21006 6.71875 5.28125 118.64756 5.28125 256.71875 C 5.28125 394.78994 117.21006 506.71875 255.28125 506.71875 C 393.35244 506.71875 505.28125 394.78994 505.28125 256.71875 C 505.28125 118.64756 393.35244 6.71875 255.28125 6.71875 z M 255.28125 23.875 C 383.86827 23.875 488.125 128.13173 488.125 256.71875 C 488.125 385.30577 383.86827 489.53125 255.28125 489.53125 C 126.69423 489.53125 22.46875 385.30577 22.46875 256.71875 C 22.46875 128.13173 126.69423 23.875 255.28125 23.875 z "
       transform="translate(0,540.36218)"
       id="path3901" />
    <path
       style="fill:#ffffff;fill-opacity:0.07843137;stroke:none"
       d="m 400.64422,718.22668 -38.13685,97.21222 23.17761,3.62052 -45.48238,115.9362 82.16391,-119.59938 -23.65811,-3.69558 58.61928,-85.32738 c -56.78983,-8.33893 0.0531,8.1e-4 -56.68346,-8.1466 z"
       id="path3924"
       inkscape:connector-curvature="0"
       sodipodi:nodetypes="cccccccc" />
  </g>
</svg>
