<svg xmlns="http://www.w3.org/2000/svg" width="512" height="512">
 <g transform="translate(0,-540.36218)">
  <path d="m 562.85715 -316.57144 c 0 198.82251 -161.17749 360 -360 360 -198.82251 0 -360 -161.17749 -360 -360 0 -198.82251 161.17749 -360 360 -360 198.82251 0 360 161.17749 360 360 z" transform="matrix(0.69444444,0,0,0.69444444,115.12698,1016.2035)" fill="#366378" fill-rule="evenodd"/>
  <path d="m 190.82649 631.86039 a 109.18374 89.45566 24.383194 0 0 -7.4199 0.10714 109.18374 89.45566 24.383194 0 0 -38.87624 9.04927 109.18374 89.45566 24.383194 0 0 -28.15388 124.20608 109.18374 89.45566 24.383194 0 0 108.60257 52.68616 109.18374 89.45566 24.383194 0 0 8.84118 90.66084 109.18374 89.45566 24.383194 0 0 147.35339 43.74282 109.18374 89.45566 24.383194 0 0 28.15391 -124.22534 109.18374 89.45566 24.383194 0 0 -101.05724 -52.85418 a 109.18374 89.45566 24.383194 0 0 -7.41994 0.12838 109.18374 89.45566 24.383194 0 0 -0.0632 0 109.18374 89.45566 24.383194 0 0 -8.90389 -90.57735 109.18374 89.45566 24.383194 0 0 -101.05724 -52.85525 z m 18.53935 14.64944 a 33.839614 24.881152 32.587769 0 1 3.03068 0 l 0 0.10713 a 33.839614 24.881152 32.587769 0 1 20.60859 6.7934 33.839614 24.881152 32.587769 0 1 17.30617 22.38241 33.839614 24.881152 32.587769 0 1 0.52257 2.59192 33.839614 24.881152 32.587769 0 1 0.0215 0.17118 33.839614 24.881152 32.587769 0 1 0.0417 0.54576 33.839614 24.881152 32.587769 0 1 0.20912 2.13178 33.839614 24.881152 32.587769 0 1 -0.0215 0.50297 33.839614 24.881152 32.587769 0 1 -0.0632 2.13177 33.839614 24.881152 32.587769 0 1 -0.0632 0.43875 33.839614 24.881152 32.587769 0 1 -0.33444 2.08898 33.839614 24.881152 32.587769 0 1 -0.10495 0.35314 33.839614 24.881152 32.587769 0 1 -0.58528 2.06968 33.839614 24.881152 32.587769 0 1 -0.94057 2.15211 33.839614 24.881152 32.587769 0 1 -0.87783 1.54744 33.839614 24.881152 32.587769 0 1 -41.90692 2.71714 33.839614 24.881152 32.587769 0 1 -5.39248 -4.03452 33.839614 24.881152 32.587769 0 1 -2.42454 -2.29868 33.839614 24.881152 32.587769 0 1 -7.29451 -32.85394 33.839614 24.881152 32.587769 0 1 1.902 -2.42392 33.839614 24.881152 32.587769 0 1 16.36563 -7.08552 z m -69.76815 17.3473 a 75.57789 55.01608 24.350858 0 0 5.3298 42.571 75.57789 55.01608 24.350858 0 0 46.88137 38.30964 75.57789 55.01608 24.350858 0 0 0.0215 0 62.67432 45.623068 24.350854 0 0 0.0417 0 75.57789 55.01608 24.350858 0 0 3.44868 1.33662 62.67432 45.623068 24.350854 0 0 23.86919 5.26733 62.67432 45.623068 24.350854 0 0 4.53554 0.14991 62.67432 45.623068 24.350854 0 0 0.0632 0 62.67432 45.623068 24.350854 0 0 3.6159 0 75.57789 55.01608 24.350858 0 0 15.15339 -1.56779 75.57789 55.01608 24.350858 0 0 37.78933 -55.15289 84.987364 61.865598 24.350853 0 1 0.64799 1.02738 84.987364 61.865598 24.350853 0 1 -35.17669 80.10688 84.987364 61.865598 24.350853 0 1 -109.79395 -48.88387 84.987364 61.865598 24.350853 0 1 3.5741 -63.15662 z m 187.21194 126.00181 a 33.839614 24.881152 32.587769 0 1 3.03068 0 l 0 0.10714 a 33.839614 24.881152 32.587769 0 1 20.60855 6.79228 33.839614 24.881152 32.587769 0 1 17.30618 22.3835 33.839614 24.881152 32.587769 0 1 0.52256 2.59192 33.839614 24.881152 32.587769 0 1 0.0215 0.1927 33.839614 24.881152 32.587769 0 1 0.0417 0.54577 33.839614 24.881152 32.587769 0 1 0.20913 2.13177 33.839614 24.881152 32.587769 0 1 -0.0215 0.50297 33.839614 24.881152 32.587769 0 1 -0.0632 2.13069 33.839614 24.881152 32.587769 0 1 -0.0632 0.43876 33.839614 24.881152 32.587769 0 1 -0.3344 2.09002 33.839614 24.881152 32.587769 0 1 -0.10495 0.35317 33.839614 24.881152 32.587769 0 1 -0.58528 2.06968 33.839614 24.881152 32.587769 0 1 -0.94054 2.15209 33.839614 24.881152 32.587769 0 1 -0.87787 1.54746 33.839614 24.881152 32.587769 0 1 -41.90688 2.71608 33.839614 24.881152 32.587769 0 1 -5.39251 -4.03344 33.839614 24.881152 32.587769 0 1 -2.42452 -2.2987 33.839614 24.881152 32.587769 0 1 -7.29453 -32.85396 33.839614 24.881152 32.587769 0 1 1.90202 -2.42498 33.839614 24.881152 32.587769 0 1 16.36564 -7.08447 z m -71.29394 22.32035 a 75.57789 55.01608 24.350858 0 0 6.85556 37.57658 75.57789 55.01608 24.350858 0 0 46.8814 38.30854 75.57789 55.01608 24.350858 0 0 0.0215 0 62.67432 45.623068 24.350854 0 0 0.0417 0 75.57789 55.01608 24.350858 0 0 3.44868 1.33772 62.67432 45.623068 24.350854 0 0 23.86916 5.26732 62.67432 45.623068 24.350854 0 0 4.53555 0.17118 62.67432 45.623068 24.350854 0 0 0.0632 0 62.67432 45.623068 24.350854 0 0 3.61591 0 75.57789 55.01608 24.350858 0 0 15.15336 -1.5667 75.57789 55.01608 24.350858 0 0 37.78932 -55.15394 84.987364 61.865598 24.350853 0 1 0.648 1.02734 84.987364 61.865598 24.350853 0 1 -35.17672 80.1069 84.987364 61.865598 24.350853 0 1 -109.79393 -48.88389 84.987364 61.865598 24.350853 0 1 -1.19135 -57.15943 109.18374 89.45566 24.383194 0 0 3.23967 -1.02736 z" fill="#fff8eb"/>
 </g>
</svg>
