<svg xmlns="http://www.w3.org/2000/svg" xmlns:xlink="http://www.w3.org/1999/xlink" width="512" height="512">
 <defs>
  <linearGradient id="0">
   <stop stop-color="#638ea2"/>
   <stop offset="1" stop-color="#366378"/>
  </linearGradient>
  <radialGradient xlink:href="#0" id="1" cx="202.85715" cy="-316.57144" r="360" gradientUnits="userSpaceOnUse"/>
 </defs>
 <g transform="translate(0,-540.36218)">
  <path transform="matrix(0.69444444,0,0,0.69444444,115.12698,1016.2035)" d="m 562.85715 -316.57144 c 0 198.82251 -161.17749 360 -360 360 -198.82251 0 -360 -161.17749 -360 -360 0 -198.82251 161.17749 -360 360 -360 198.82251 0 360 161.17749 360 360 z" fill="url(#1)" fill-rule="evenodd"/>
  <path d="m 182.55116 637.96841 c -47.0584 0 -85.20295 38.14455 -85.20295 85.20295 0 46.02328 36.480776 83.51822 82.10675 85.14561 l 60.89201 4.07093 3.87025 56.67774 c -0.0009 0.16209 0 0.32506 0 0.48736 0 4.17357 0.30904 8.28585 0.88873 12.29881 l 0.0287 0.51604 0.0287 -0.0573 c 6.152 41.01108 41.53082 72.44544 84.25688 72.44544 47.0584 0 85.23162 -38.14455 85.23162 -85.20295 0 -46.02327 -36.50859 -83.51822 -82.13542 -85.14561 l -59.37257 -4.61564 -5.38969 -55.87501 c 0.002 -0.24773 0 -0.49714 0 -0.74538 0 -47.0584 -38.14455 -85.20295 -85.20295 -85.20295 z m 0 34.34493 c 25.05095 0 45.85625 18.12385 50.0553 41.97077 4.85504 63.71185 0.31143 0.0829 4.93099 63.90221 l -0.57337 0.0287 c -61.19311 -4.7344 0.30656 -0.0901 -62.2681 -4.81631 -24.34368 -3.78117 -43.00284 -24.82372 -43.00284 -50.22731 0 -28.07905 22.77897 -50.85802 50.85802 -50.85802 z m 91.08 142.28204 18.6919 1.26142 0.0287 -0.0287 c 22.59602 1.77155 -8.07631 -0.5287 44.09224 3.41156 24.34367 3.78116 42.97416 24.82373 42.97416 50.22731 0 28.07904 -22.7503 50.85801 -50.82935 50.85801 -25.05095 0 -45.85625 -18.12384 -50.0553 -41.97076 -4.18931 -54.97562 -1.69372 -19.48033 -3.81291 -48.5072 -0.0697 -0.95514 -0.16934 -2.36789 -0.22935 -3.18221 -0.30656 -4.21086 -0.36463 -5.22526 -0.86006 -12.06946 z" fill="#fff8eb" fill-rule="evenodd"/>
  <path d="m 182.84647,679.74266 c -24.1419,0 -43.72036,19.57846 -43.72036,43.72035 0,21.84158 16.02573,39.93813 36.95601,43.18912 54.08339,4.08488 0.0306,8.9e-4 54.04395,4.17902 -3.98689,-55.0801 -0.0724,-0.18 -4.24986,-55.00017 -3.61028,-20.50318 -21.49136,-36.08832 -43.02974,-36.08832 z" fill="#fff8eb" fill-rule="evenodd"/>
  <path d="m 328.27834,912.90571 c 24.14191,0 43.72036,-19.57846 43.72036,-43.72035 0,-21.84158 -16.02572,-39.93813 -36.95601,-43.18912 -54.08338,-4.08488 -0.0306,-8.9e-4 -54.04394,-4.17902 3.98688,55.0801 0.0724,0.18 4.24986,55.00017 3.61026,20.50318 21.49136,36.08832 43.02973,36.08832 z" fill="#fff8eb" fill-rule="evenodd"/>
  <path d="m 256 562.79075 c -128.99794 0 -233.57143 104.57349 -233.57143 233.57143 0 128.99794 104.57349 233.57142 233.57143 233.57142 128.99794 0 233.57143 -104.57348 233.57143 -233.57142 C 489.57143 667.36424 384.99794 562.79075 256 562.79075 z m 0 28.02857 c 113.51818 0 205.54286 92.02468 205.54286 205.54286 C 461.54286 909.88036 369.51818 1001.905 256 1001.905 142.48182 1001.905 50.45714 909.88036 50.45714 796.36218 50.45714 682.844 142.48182 590.81932 256 590.81932 z" fill="#fff8eb" fill-rule="evenodd"/>
 </g>
</svg>
