<svg xmlns="http://www.w3.org/2000/svg" xmlns:xlink="http://www.w3.org/1999/xlink" width="512" height="512">
 <defs>
  <linearGradient y2="7.01654" x2="0" y1="92.5396" gradientTransform="scale(1.0058652,0.994169)" gradientUnits="userSpaceOnUse" xlink:href="#1"/>
  <filter x="-0.192" y="-0.192" width="1.384" height="1.384" color-interpolation-filters="sRGB">
   <feGaussianBlur stdDeviation="5.28"/>
  </filter>
  <clipPath>
   <rect width="84" height="84" rx="6" x="6" y="6" fill="#fff"/>
  </clipPath>
  <linearGradient id="0">
   <stop stop-color="#fff"/>
   <stop offset="1" stop-color="#fff" stop-opacity="0"/>
  </linearGradient>
  <linearGradient y1="20.220806" x2="0" y2="138.66119" xlink:href="#0" gradientUnits="userSpaceOnUse"/>
  <filter color-interpolation-filters="sRGB">
   <feGaussianBlur stdDeviation="1.71"/>
  </filter>
  <linearGradient y1="92.5396" x2="0" y2="7.01654" id="1" gradientUnits="userSpaceOnUse" gradientTransform="scale(1.0058652,0.994169)">
   <stop/>
   <stop offset="1" stop-opacity="0.588235"/>
  </linearGradient>
 </defs>
 <g transform="translate(0,-540.36217)">
  <path d="M 256 6 C 164.58184 6 84.65921 55.10766 41.0625 128.34375 C 18.813976 165.71801 6 209.34698 6 256 C 6 394.07117 117.92881 506 256 506 C 394.07119 506 506 394.07117 506 256 C 506 209.34698 493.18602 165.71801 470.9375 128.34375 C 427.34078 55.10766 347.41816 6 256 6 z" transform="translate(0,540.36217)" fill="#d1c4b1" fill-rule="evenodd"/>
  <text y="1089.8812" x="-1160.4812" font-family="Gentium Book Basic" word-spacing="0" line-height="125%" letter-spacing="0" font-size="208.33333"><tspan y="1089.8812" x="-1160.4812"/>
  </text>
  <text transform="scale(4.0128362,0.2492003)" font-size="75.69771" y="3810.6255" x="28.533577" font-family="Arial" text-anchor="middle"/>
  <path d="m 256 576.01554 c -80.57473 0 -151.01746 43.28282 -189.44301 107.83213 -19.609549 32.94116 -30.903614 71.39516 -30.903614 112.5145 0 121.69407 98.65254 220.34663 220.34663 220.34663 121.69409 0 220.34663 -98.65256 220.34663 -220.34663 0 -41.11934 -11.29407 -79.57334 -30.90362 -112.5145 C 407.01746 619.29836 336.57473 576.01554 256 576.01554 z" fill="#282629" fill-rule="evenodd"/>
  <g transform="translate(-10,0)">
   <path d="m 154.98475 663.89881 c -19.2568 0 -36.09212 10.34429 -45.27556 25.77113 -4.68655 7.8727 -7.38576 17.06294 -7.38576 26.89018 0 29.08403 23.57728 52.66131 52.66132 52.66131 29.08404 0 52.66131 -23.57728 52.66131 -52.66131 0 -9.82724 -2.6992 -19.01748 -7.38575 -26.89018 -9.18344 -15.42684 -26.01876 -25.77113 -45.27556 -25.77113 z" fill="#366378" fill-rule="evenodd"/>
   <text y="755.95447" x="139.22701" fill="#d1c4b1" font-family="Serif" word-spacing="0" line-height="125%" font-weight="bold" letter-spacing="0" font-size="113.36503"><tspan y="755.95447" x="139.22701">!</tspan>
   </text>
  </g>
  <g transform="translate(-10,0.71428572)">
   <path d="m 154.98475 825.52323 c -19.2568 0 -36.09212 10.34429 -45.27556 25.77113 -4.68655 7.8727 -7.38576 17.06294 -7.38576 26.89018 0 29.08403 23.57728 52.66131 52.66132 52.66131 29.08404 0 52.66131 -23.57728 52.66131 -52.66131 0 -9.82724 -2.6992 -19.01748 -7.38575 -26.89018 -9.18344 -15.42684 -26.01876 -25.77113 -45.27556 -25.77113 z" fill="#9a3034" fill-rule="evenodd"/>
   <text y="909.89111" x="125.36017" fill="#d1c4b1" font-family="Sans" word-spacing="0" line-height="125%" font-weight="bold" letter-spacing="0" font-size="88.83037"><tspan y="909.89111" x="125.36017">X</tspan>
   </text>
  </g>
  <g fill="#d1c4b1">
   <path d="m 213.10937 700.2193 0 -22.84375 2.875 0 0 20.28125 9.98438 0 0 2.5625 -12.85938 0"/>
   <path d="m 244.375,691.60992 c -2e-5,2.80209 -0.70835,4.98959 -2.125,6.5625 -1.41668,1.57292 -3.37501,2.35938 -5.875,2.35938 -1.55209,0 -2.92709,-0.35938 -4.125,-1.07813 -1.19792,-0.72916 -2.1198,-1.77083 -2.76563,-3.125 -0.64583,-1.35416 -0.96875,-2.92707 -0.96875,-4.71875 0,-2.79165 0.69792,-4.96352 2.09375,-6.51562 1.39583,-1.56248 3.35416,-2.34373 5.875,-2.34375 2.41666,2e-5 4.33332,0.79689 5.75,2.39062 1.42707,1.58335 2.14061,3.7396 2.14063,6.46875 m -12.95313,0 c 0,2.15626 0.42187,3.79688 1.26563,4.92188 0.85416,1.11459 2.10937,1.67188 3.76562,1.67187 1.63541,10e-6 2.8802,-0.55728 3.73438,-1.67187 0.85415,-1.125 1.28124,-2.76562 1.28125,-4.92188 -1e-5,-2.15623 -0.43231,-3.77602 -1.29688,-4.85937 -0.85417,-1.09374 -2.10938,-1.64061 -3.76562,-1.64063 -3.32292,2e-5 -4.98438,2.16668 -4.98438,6.5"/>
   <path d="m 256.84375,682.75055 c 0.76041,2e-5 1.43228,0.0625 2.01562,0.1875 l -0.34375,2.59375 c -0.63542,-0.14582 -1.25521,-0.21874 -1.85937,-0.21875 -0.90626,10e-6 -1.75001,0.25001 -2.53125,0.75 -0.77084,0.50001 -1.37501,1.19272 -1.8125,2.07812 -0.43751,0.87502 -0.65626,1.84897 -0.65625,2.92188 l 0,9.15625 -2.8125,0 0,-17.15625 2.3125,0 0.3125,3.14062 0.125,0 c 0.65624,-1.1354 1.43228,-1.99477 2.32812,-2.57812 0.89583,-0.58332 1.86979,-0.87498 2.92188,-0.875"/>
   <path d="m 269.07812,700.5318 c -2.57292,0 -4.59375,-0.77604 -6.0625,-2.32813 -1.45833,-1.56249 -2.1875,-3.70832 -2.1875,-6.4375 0,-2.74998 0.68229,-4.93748 2.04688,-6.5625 1.36458,-1.6354 3.20833,-2.4531 5.53125,-2.45312 2.15624,2e-5 3.87499,0.69793 5.15625,2.09375 1.28123,1.38543 1.92186,3.26564 1.92187,5.64062 l 0,1.70313 -11.75,0 c 0.0521,1.94792 0.54687,3.42709 1.48438,4.4375 0.93749,1.01042 2.26562,1.51563 3.98437,1.51562 0.91666,10e-6 1.78645,-0.0781 2.60938,-0.23437 0.8229,-0.16666 1.78644,-0.48437 2.89062,-0.95313 l 0,2.46875 c -0.94793,0.40625 -1.83855,0.69271 -2.67187,0.85938 -0.83335,0.16667 -1.81772,0.25 -2.95313,0.25 M 268.375,685.04742 c -1.34376,2e-5 -2.40626,0.43231 -3.1875,1.29688 -0.78126,0.8646 -1.2448,2.06772 -1.39063,3.60937 l 8.73438,0 c -0.0208,-1.60415 -0.39064,-2.8229 -1.10938,-3.65625 -0.71876,-0.83331 -1.73438,-1.24998 -3.04687,-1.25"/>
   <path d="m 301.67187,700.2193 0,-11.04688 c -2e-5,-2.70832 -1.16148,-4.06248 -3.48437,-4.0625 -1.59377,2e-5 -2.76564,0.46356 -3.51563,1.39063 -0.75001,0.9271 -1.12501,2.34376 -1.125,4.25 l 0,9.46875 -2.79687,0 0,-11.04688 c -10e-6,-1.35415 -0.28647,-2.36977 -0.85938,-3.04687 -0.56251,-0.67707 -1.44792,-1.01561 -2.65625,-1.01563 -1.58334,2e-5 -2.74479,0.48439 -3.48437,1.45313 -0.72917,0.96876 -1.09376,2.5573 -1.09375,4.76562 l 0,8.89063 -2.8125,0 0,-17.15625 2.26562,0 0.42188,2.34375 0.15625,0 c 0.48958,-0.83332 1.17708,-1.48436 2.0625,-1.95313 0.89582,-0.46873 1.89582,-0.7031 3,-0.70312 2.68749,2e-5 4.43748,0.95835 5.25,2.875 l 0.15625,0 c 0.55207,-0.91665 1.30207,-1.62498 2.25,-2.125 0.95831,-0.49998 2.04165,-0.74998 3.25,-0.75 1.93748,2e-5 3.38539,0.50002 4.34375,1.5 0.96872,1.00001 1.4531,2.59897 1.45312,4.79687 l 0,11.17188 -2.78125,0"/>
   <path d="m 320.90625,700.2193 -2.8125,0 0,-17.15625 2.8125,0 0,17.15625 M 317.875,678.42242 c 0,-0.62497 0.15625,-1.0781 0.46875,-1.35937 0.32291,-0.28123 0.71875,-0.42185 1.1875,-0.42188 0.4375,3e-5 0.8177,0.14065 1.14062,0.42188 0.33333,0.28127 0.5,0.7344 0.5,1.35937 0,0.61461 -0.16667,1.06773 -0.5,1.35938 -0.32292,0.29169 -0.70312,0.43752 -1.14062,0.4375 -0.46875,2e-5 -0.86459,-0.14581 -1.1875,-0.4375 -0.3125,-0.29165 -0.46875,-0.74477 -0.46875,-1.35938"/>
   <path d="m 334.46875,700.5318 c -2.30209,0 -4.07292,-0.82813 -5.3125,-2.48438 l -0.1875,0 0.0625,0.64063 c 0.0833,0.8125 0.12499,1.53646 0.125,2.17187 l 0,7.04688 -2.8125,0 0,-24.84375 2.3125,0 0.375,2.34375 0.125,0 c 0.66666,-0.93748 1.43749,-1.61457 2.3125,-2.03125 0.87499,-0.41665 1.88541,-0.62498 3.03125,-0.625 2.22915,2e-5 3.95832,0.77606 5.1875,2.32812 1.23957,1.54168 1.85936,3.71877 1.85937,6.53125 -1e-5,2.80209 -0.6198,4.98959 -1.85937,6.5625 -1.2396,1.57292 -2.97918,2.35938 -5.21875,2.35938 M 334,685.10992 c -1.69793,2e-5 -2.92709,0.47919 -3.6875,1.4375 -0.75001,0.95835 -1.13542,2.46356 -1.15625,4.51563 l 0,0.54687 c -10e-6,2.32293 0.38541,4.00522 1.15625,5.04688 0.77083,1.03125 2.02082,1.54688 3.75,1.54687 1.43749,10e-6 2.55728,-0.58333 3.35937,-1.75 0.81249,-1.16666 1.21874,-2.79166 1.21875,-4.875 -1e-5,-2.09373 -0.40626,-3.69269 -1.21875,-4.79687 -0.80209,-1.11457 -1.94272,-1.67186 -3.42187,-1.67188"/>
   <path d="m 357.20312,695.48492 c -1e-5,1.60417 -0.59897,2.84896 -1.79687,3.73438 -1.19793,0.875 -2.88022,1.3125 -5.04688,1.3125 -2.26042,0 -4.05729,-0.35938 -5.39062,-1.07813 l 0,-2.5625 c 1.88541,0.91667 3.70312,1.37501 5.45312,1.375 1.41666,10e-6 2.44791,-0.22916 3.09375,-0.6875 0.64583,-0.45833 0.96874,-1.07291 0.96875,-1.84375 -1e-5,-0.67707 -0.31251,-1.24999 -0.9375,-1.71875 -0.61459,-0.46874 -1.71355,-1.0052 -3.29687,-1.60937 -1.61459,-0.62499 -2.75,-1.15624 -3.40625,-1.59375 -0.65625,-0.44791 -1.14063,-0.94791 -1.45313,-1.5 -0.30208,-0.55207 -0.45312,-1.22395 -0.45312,-2.01563 0,-1.40623 0.57291,-2.51561 1.71875,-3.32812 1.14583,-0.81248 2.71874,-1.21873 4.71875,-1.21875 1.94791,2e-5 3.77082,0.38543 5.46875,1.15625 l -0.95313,2.23437 c -1.73959,-0.72915 -3.3073,-1.09373 -4.70312,-1.09375 -1.16667,2e-5 -2.05209,0.18752 -2.65625,0.5625 -0.60417,0.3646 -0.90625,0.86981 -0.90625,1.51563 0,0.62501 0.26041,1.14584 0.78125,1.5625 0.52083,0.40626 1.73437,0.97397 3.64062,1.70312 1.42708,0.53126 2.47916,1.02605 3.15625,1.48438 0.68749,0.45834 1.1927,0.97397 1.51563,1.54687 0.3229,0.57293 0.48436,1.26043 0.48437,2.0625"/>
   <path d="m 364,683.06305 0,11.04687 c -10e-6,1.38543 0.30729,2.41667 0.92187,3.09375 0.625,0.66667 1.58854,1.00001 2.89063,1 1.76041,10e-6 3.04165,-0.48958 3.84375,-1.46875 0.80207,-0.97916 1.20311,-2.55728 1.20312,-4.73437 l 0,-8.9375 2.82813,0 0,17.15625 -2.3125,0 -0.40625,-2.26563 -0.14063,0 c -0.51043,0.82292 -1.23438,1.45834 -2.17187,1.90625 -0.93751,0.44792 -2.02605,0.67188 -3.26563,0.67188 -2.0625,0 -3.61979,-0.49479 -4.67187,-1.48438 -1.04167,-0.98958 -1.5625,-2.57291 -1.5625,-4.75 l 0,-11.23437 2.84375,0"/>
   <path d="m 402.98437,700.2193 0,-11.04688 c -2e-5,-2.70832 -1.16148,-4.06248 -3.48437,-4.0625 -1.59377,2e-5 -2.76564,0.46356 -3.51563,1.39063 -0.75001,0.9271 -1.12501,2.34376 -1.125,4.25 l 0,9.46875 -2.79687,0 0,-11.04688 c -10e-6,-1.35415 -0.28647,-2.36977 -0.85938,-3.04687 -0.56251,-0.67707 -1.44792,-1.01561 -2.65625,-1.01563 -1.58334,2e-5 -2.74479,0.48439 -3.48437,1.45313 -0.72917,0.96876 -1.09376,2.5573 -1.09375,4.76562 l 0,8.89063 -2.8125,0 0,-17.15625 2.26562,0 0.42188,2.34375 0.15625,0 c 0.48958,-0.83332 1.17708,-1.48436 2.0625,-1.95313 0.89582,-0.46873 1.89582,-0.7031 3,-0.70312 2.68749,2e-5 4.43748,0.95835 5.25,2.875 l 0.15625,0 c 0.55207,-0.91665 1.30207,-1.62498 2.25,-2.125 0.95831,-0.49998 2.04165,-0.74998 3.25,-0.75 1.93748,2e-5 3.38539,0.50002 4.34375,1.5 0.96872,1.00001 1.4531,2.59897 1.45312,4.79687 l 0,11.17188 -2.78125,0"/>
   <path d="m 218.79687,740.5318 c -2.22917,0 -3.95833,-0.77083 -5.1875,-2.3125 -1.22916,-1.54166 -1.84375,-3.72395 -1.84375,-6.54688 0,-2.80207 0.61459,-4.98957 1.84375,-6.5625 1.23958,-1.5729 2.97917,-2.35935 5.21875,-2.35937 2.30208,2e-5 4.07291,0.84377 5.3125,2.53125 l 0.20313,0 c -0.0313,-0.20832 -0.0729,-0.62499 -0.125,-1.25 -0.0521,-0.6354 -0.0781,-1.06248 -0.0781,-1.28125 l 0,-6.84375 2.8125,0 0,24.3125 -2.26562,0 -0.42188,-2.29688 -0.125,0 c -1.19792,1.73959 -2.97917,2.60938 -5.34375,2.60938 m 0.45313,-2.32813 c 1.70832,10e-6 2.95311,-0.46353 3.73437,-1.39062 0.79166,-0.9375 1.18749,-2.46874 1.1875,-4.59375 l 0,-0.51563 c -1e-5,-2.3854 -0.40105,-4.08332 -1.20312,-5.09375 -0.79168,-1.02081 -2.04168,-1.53123 -3.75,-1.53125 -1.44792,2e-5 -2.56771,0.57814 -3.35938,1.73438 -0.79167,1.14584 -1.1875,2.78647 -1.1875,4.92187 0,2.12501 0.39062,3.73438 1.17188,4.82813 0.79166,1.09375 1.92708,1.64063 3.40625,1.64062"/>
   <path d="m 247.3125,731.60992 c -2e-5,2.80209 -0.70835,4.98959 -2.125,6.5625 -1.41668,1.57292 -3.37501,2.35938 -5.875,2.35938 -1.55209,0 -2.92709,-0.35938 -4.125,-1.07813 -1.19792,-0.72916 -2.1198,-1.77083 -2.76563,-3.125 -0.64583,-1.35416 -0.96875,-2.92707 -0.96875,-4.71875 0,-2.79165 0.69792,-4.96352 2.09375,-6.51562 1.39583,-1.56248 3.35416,-2.34373 5.875,-2.34375 2.41666,2e-5 4.33332,0.79689 5.75,2.39062 1.42707,1.58335 2.14061,3.7396 2.14063,6.46875 m -12.95313,0 c 0,2.15626 0.42187,3.79688 1.26563,4.92188 0.85416,1.11459 2.10937,1.67188 3.76562,1.67187 1.63541,10e-6 2.8802,-0.55728 3.73438,-1.67187 0.85415,-1.125 1.28124,-2.76562 1.28125,-4.92188 -1e-5,-2.15623 -0.43231,-3.77602 -1.29688,-4.85937 -0.85417,-1.09374 -2.10938,-1.64061 -3.76562,-1.64063 -3.32292,2e-5 -4.98438,2.16668 -4.98438,6.5"/>
   <path d="m 254.59375 740.2193 -2.8125 0 0 -24.3125 2.8125 0 0 24.3125"/>
   <path d="m 274.9375,731.60992 c -2e-5,2.80209 -0.70835,4.98959 -2.125,6.5625 -1.41668,1.57292 -3.37501,2.35938 -5.875,2.35938 -1.55209,0 -2.92709,-0.35938 -4.125,-1.07813 -1.19792,-0.72916 -2.1198,-1.77083 -2.76563,-3.125 -0.64583,-1.35416 -0.96875,-2.92707 -0.96875,-4.71875 0,-2.79165 0.69792,-4.96352 2.09375,-6.51562 1.39583,-1.56248 3.35416,-2.34373 5.875,-2.34375 2.41666,2e-5 4.33332,0.79689 5.75,2.39062 1.42707,1.58335 2.14061,3.7396 2.14063,6.46875 m -12.95313,0 c 0,2.15626 0.42187,3.79688 1.26563,4.92188 0.85416,1.11459 2.10937,1.67188 3.76562,1.67187 1.63541,10e-6 2.8802,-0.55728 3.73438,-1.67187 0.85415,-1.125 1.28124,-2.76562 1.28125,-4.92188 -10e-6,-2.15623 -0.43231,-3.77602 -1.29688,-4.85937 -0.85417,-1.09374 -2.10938,-1.64061 -3.76562,-1.64063 -3.32292,2e-5 -4.98438,2.16668 -4.98438,6.5"/>
   <path d="m 287.40625,722.75055 c 0.76041,2e-5 1.43228,0.0625 2.01562,0.1875 l -0.34375,2.59375 c -0.63542,-0.14582 -1.25521,-0.21874 -1.85937,-0.21875 -0.90626,10e-6 -1.75001,0.25001 -2.53125,0.75 -0.77084,0.50001 -1.37501,1.19272 -1.8125,2.07812 -0.43751,0.87502 -0.65626,1.84897 -0.65625,2.92188 l 0,9.15625 -2.8125,0 0,-17.15625 2.3125,0 0.3125,3.14062 0.125,0 c 0.65624,-1.1354 1.43228,-1.99477 2.32812,-2.57812 0.89583,-0.58332 1.86979,-0.87498 2.92188,-0.875"/>
   <path d="m 312.14062,735.48492 c -1e-5,1.60417 -0.59897,2.84896 -1.79687,3.73438 -1.19793,0.875 -2.88022,1.3125 -5.04688,1.3125 -2.26042,0 -4.05729,-0.35938 -5.39062,-1.07813 l 0,-2.5625 c 1.88541,0.91667 3.70312,1.37501 5.45312,1.375 1.41666,10e-6 2.44791,-0.22916 3.09375,-0.6875 0.64583,-0.45833 0.96874,-1.07291 0.96875,-1.84375 -1e-5,-0.67707 -0.31251,-1.24999 -0.9375,-1.71875 -0.61459,-0.46874 -1.71355,-1.0052 -3.29687,-1.60937 -1.61459,-0.62499 -2.75,-1.15624 -3.40625,-1.59375 -0.65625,-0.44791 -1.14063,-0.94791 -1.45313,-1.5 -0.30208,-0.55207 -0.45312,-1.22395 -0.45312,-2.01563 0,-1.40623 0.57291,-2.51561 1.71875,-3.32812 1.14583,-0.81248 2.71874,-1.21873 4.71875,-1.21875 1.94791,2e-5 3.77082,0.38543 5.46875,1.15625 l -0.95313,2.23437 c -1.73959,-0.72915 -3.3073,-1.09373 -4.70312,-1.09375 -1.16667,2e-5 -2.05209,0.18752 -2.65625,0.5625 -0.60417,0.3646 -0.90625,0.86981 -0.90625,1.51563 0,0.62501 0.26041,1.14584 0.78125,1.5625 0.52083,0.40626 1.73437,0.97397 3.64062,1.70312 1.42708,0.53126 2.47916,1.02605 3.15625,1.48438 0.68749,0.45834 1.1927,0.97397 1.51563,1.54687 0.3229,0.57293 0.48436,1.26043 0.48437,2.0625"/>
   <path d="m 319.09375,740.2193 -2.8125,0 0,-17.15625 2.8125,0 0,17.15625 m -3.03125,-21.79688 c 0,-0.62497 0.15625,-1.0781 0.46875,-1.35937 0.32291,-0.28123 0.71875,-0.42185 1.1875,-0.42188 0.4375,3e-5 0.8177,0.14065 1.14062,0.42188 0.33333,0.28127 0.5,0.7344 0.5,1.35937 0,0.61461 -0.16667,1.06773 -0.5,1.35938 -0.32292,0.29169 -0.70312,0.43752 -1.14062,0.4375 -0.46875,2e-5 -0.86459,-0.14581 -1.1875,-0.4375 -0.3125,-0.29165 -0.46875,-0.74477 -0.46875,-1.35938"/>
   <path d="m 330.26562,738.23492 c 0.36458,10e-6 0.79166,-0.0364 1.28125,-0.10937 0.48958,-0.0729 0.85937,-0.15625 1.10938,-0.25 l 0,2.15625 c -0.26043,0.11458 -0.66668,0.22396 -1.21875,0.32812 -0.54168,0.11459 -1.09376,0.17188 -1.65625,0.17188 -3.35417,0 -5.03125,-1.76562 -5.03125,-5.29688 l 0,-9.98437 -2.42188,0 0,-1.34375 2.45313,-1.125 1.125,-3.65625 1.67187,0 0,3.9375 4.95313,0 0,2.1875 -4.95313,0 0,9.90625 c 0,0.98959 0.23437,1.75 0.70313,2.28125 0.47916,0.53125 1.14062,0.79688 1.98437,0.79687"/>
   <path d="m 355,740.2193 -0.54688,-2.4375 -0.125,0 c -0.85417,1.07292 -1.70834,1.80208 -2.5625,2.1875 -0.84375,0.375 -1.91146,0.5625 -3.20312,0.5625 -1.68751,0 -3.01042,-0.44271 -3.96875,-1.32813 -0.95834,-0.88541 -1.4375,-2.13541 -1.4375,-3.75 0,-3.47915 2.74479,-5.30207 8.23437,-5.46875 l 2.90625,-0.10937 0,-1.01563 c -1e-5,-1.30207 -0.28126,-2.2604 -0.84375,-2.875 -0.56251,-0.62498 -1.46355,-0.93748 -2.70312,-0.9375 -0.90626,2e-5 -1.76563,0.13544 -2.57813,0.40625 -0.80208,0.27085 -1.55729,0.57294 -2.26562,0.90625 l -0.85938,-2.10937 c 0.86458,-0.45832 1.80729,-0.81769 2.82813,-1.07813 1.02083,-0.2604 2.03124,-0.3906 3.03125,-0.39062 2.07291,2e-5 3.61457,0.45835 4.625,1.375 1.0104,0.91668 1.51561,2.37501 1.51562,4.375 l 0,11.6875 -2.04687,0 m -5.79688,-1.95313 c 1.57291,10e-6 2.80729,-0.42187 3.70313,-1.26562 0.90624,-0.85416 1.35936,-2.0625 1.35937,-3.625 l 0,-1.54688 -2.53125,0.10938 c -1.96875,0.0729 -3.40625,0.38542 -4.3125,0.9375 -0.89583,0.55209 -1.34375,1.42188 -1.34375,2.60937 0,0.89584 0.27083,1.58334 0.8125,2.0625 0.55208,0.47917 1.32292,0.71876 2.3125,0.71875"/>
   <path d="m 384.17187,740.2193 0,-11.04688 c -2e-5,-2.70832 -1.16148,-4.06248 -3.48437,-4.0625 -1.59377,2e-5 -2.76564,0.46356 -3.51563,1.39063 -0.75001,0.9271 -1.12501,2.34376 -1.125,4.25 l 0,9.46875 -2.79687,0 0,-11.04688 c -10e-6,-1.35415 -0.28647,-2.36977 -0.85938,-3.04687 -0.56251,-0.67707 -1.44792,-1.01561 -2.65625,-1.01563 -1.58334,2e-5 -2.74479,0.48439 -3.48437,1.45313 -0.72917,0.96876 -1.09376,2.5573 -1.09375,4.76562 l 0,8.89063 -2.8125,0 0,-17.15625 2.26562,0 0.42188,2.34375 0.15625,0 c 0.48958,-0.83332 1.17708,-1.48436 2.0625,-1.95313 0.89582,-0.46873 1.89582,-0.7031 3,-0.70312 2.68749,2e-5 4.43748,0.95835 5.25,2.875 l 0.15625,0 c 0.55207,-0.91665 1.30207,-1.62498 2.25,-2.125 0.95831,-0.49998 2.04165,-0.74998 3.25,-0.75 1.93748,2e-5 3.38539,0.50002 4.34375,1.5 0.96872,1.00001 1.4531,2.59897 1.45312,4.79687 l 0,11.17188 -2.78125,0"/>
   <path d="m 399.57812,740.5318 c -2.57292,0 -4.59375,-0.77604 -6.0625,-2.32813 -1.45833,-1.56249 -2.1875,-3.70832 -2.1875,-6.4375 0,-2.74998 0.68229,-4.93748 2.04688,-6.5625 1.36458,-1.6354 3.20833,-2.4531 5.53125,-2.45312 2.15624,2e-5 3.87499,0.69793 5.15625,2.09375 1.28123,1.38543 1.92186,3.26564 1.92187,5.64062 l 0,1.70313 -11.75,0 c 0.0521,1.94792 0.54687,3.42709 1.48438,4.4375 0.93749,1.01042 2.26562,1.51563 3.98437,1.51562 0.91666,10e-6 1.78645,-0.0781 2.60938,-0.23437 0.8229,-0.16666 1.78644,-0.48437 2.89062,-0.95313 l 0,2.46875 c -0.94793,0.40625 -1.83855,0.69271 -2.67187,0.85938 -0.83335,0.16667 -1.81772,0.25 -2.95313,0.25 M 398.875,725.04742 c -1.34376,2e-5 -2.40626,0.43231 -3.1875,1.29688 -0.78126,0.8646 -1.2448,2.06772 -1.39063,3.60937 l 8.73438,0 c -0.0208,-1.60415 -0.39064,-2.8229 -1.10938,-3.65625 -0.71876,-0.83331 -1.73438,-1.24998 -3.04687,-1.25"/>
   <path d="m 416.07812,738.23492 c 0.36458,10e-6 0.79166,-0.0364 1.28125,-0.10937 0.48958,-0.0729 0.85937,-0.15625 1.10938,-0.25 l 0,2.15625 c -0.26043,0.11458 -0.66668,0.22396 -1.21875,0.32812 -0.54168,0.11459 -1.09376,0.17188 -1.65625,0.17188 -3.35417,0 -5.03125,-1.76562 -5.03125,-5.29688 l 0,-9.98437 -2.42188,0 0,-1.34375 2.45313,-1.125 1.125,-3.65625 1.67187,0 0,3.9375 4.95313,0 0,2.1875 -4.95313,0 0,9.90625 c 0,0.98959 0.23437,1.75 0.70313,2.28125 0.47916,0.53125 1.14062,0.79688 1.98437,0.79687"/>
   <path d="m 425.10937 736.50055 0.21875 0.35937 c -0.57292 2.22917 -1.48958 4.72396 -2.75 7.48438 l -2.07812 0 c 0.67708 -2.60417 1.20833 -5.21875 1.59375 -7.84375 l 3.01562 0"/>
   <path d="m 219.59375,780.5318 c -2.46876,0 -4.39063,-0.75521 -5.76563,-2.26563 -1.375,-1.52083 -2.0625,-3.69791 -2.0625,-6.53125 0,-2.87498 0.69271,-5.08852 2.07813,-6.64062 1.39583,-1.56248 3.3802,-2.34373 5.95312,-2.34375 0.83333,2e-5 1.65624,0.0886 2.46875,0.26562 0.82291,0.16669 1.49999,0.38544 2.03125,0.65625 l -0.85937,2.34375 c -1.44793,-0.54165 -2.6823,-0.81248 -3.70313,-0.8125 -1.72917,2e-5 -3.00521,0.54689 -3.82812,1.64063 -0.82292,1.08334 -1.23438,2.70313 -1.23438,4.85937 0,2.07293 0.41146,3.66147 1.23438,4.76563 0.82291,1.09375 2.04166,1.64063 3.65625,1.64062 1.51041,10e-6 2.99478,-0.33333 4.45312,-1 l 0,2.5 c -1.18751,0.61459 -2.66146,0.92188 -4.42187,0.92188"/>
   <path d="m 243,771.60992 c -2e-5,2.80209 -0.70835,4.98959 -2.125,6.5625 -1.41668,1.57292 -3.37501,2.35938 -5.875,2.35938 -1.55209,0 -2.92709,-0.35938 -4.125,-1.07813 -1.19792,-0.72916 -2.1198,-1.77083 -2.76563,-3.125 -0.64583,-1.35416 -0.96875,-2.92707 -0.96875,-4.71875 0,-2.79165 0.69792,-4.96352 2.09375,-6.51562 1.39583,-1.56248 3.35416,-2.34373 5.875,-2.34375 2.41666,2e-5 4.33332,0.79689 5.75,2.39062 1.42707,1.58335 2.14061,3.7396 2.14063,6.46875 m -12.95313,0 c 0,2.15626 0.42187,3.79688 1.26563,4.92188 0.85416,1.11459 2.10937,1.67188 3.76562,1.67187 1.63541,10e-6 2.8802,-0.55728 3.73438,-1.67187 0.85415,-1.125 1.28124,-2.76562 1.28125,-4.92188 -1e-5,-2.15623 -0.43231,-3.77602 -1.29688,-4.85937 -0.85417,-1.09374 -2.10938,-1.64061 -3.76562,-1.64063 -3.32292,2e-5 -4.98438,2.16668 -4.98438,6.5"/>
   <path d="m 259.15625,780.2193 0,-10.96875 c -10e-6,-1.39582 -0.31251,-2.43228 -0.9375,-3.10938 -0.6146,-0.68748 -1.58335,-1.03123 -2.90625,-1.03125 -1.76043,2e-5 -3.04167,0.4896 -3.84375,1.46875 -0.79167,0.96877 -1.18751,2.5521 -1.1875,4.75 l 0,8.89063 -2.8125,0 0,-17.15625 2.26562,0 0.42188,2.34375 0.15625,0 c 0.53124,-0.84374 1.27603,-1.49478 2.23437,-1.95313 0.95833,-0.46873 2.01562,-0.7031 3.17188,-0.70312 2.10415,2e-5 3.66665,0.51043 4.6875,1.53125 1.02082,1.02085 1.53123,2.60939 1.53125,4.76562 l 0,11.17188 -2.78125,0"/>
   <path d="m 278.45312,775.48492 c -1e-5,1.60417 -0.59897,2.84896 -1.79687,3.73438 -1.19793,0.875 -2.88022,1.3125 -5.04688,1.3125 -2.26042,0 -4.05729,-0.35938 -5.39062,-1.07813 l 0,-2.5625 c 1.88541,0.91667 3.70312,1.37501 5.45312,1.375 1.41666,10e-6 2.44791,-0.22916 3.09375,-0.6875 0.64583,-0.45833 0.96874,-1.07291 0.96875,-1.84375 -1e-5,-0.67707 -0.31251,-1.24999 -0.9375,-1.71875 -0.61459,-0.46874 -1.71355,-1.0052 -3.29687,-1.60937 -1.61459,-0.62499 -2.75,-1.15624 -3.40625,-1.59375 -0.65625,-0.44791 -1.14063,-0.94791 -1.45313,-1.5 -0.30208,-0.55207 -0.45312,-1.22395 -0.45312,-2.01563 0,-1.40623 0.57291,-2.51561 1.71875,-3.32812 1.14583,-0.81248 2.71874,-1.21873 4.71875,-1.21875 1.94791,2e-5 3.77082,0.38543 5.46875,1.15625 l -0.95313,2.23437 c -1.73959,-0.72915 -3.3073,-1.09373 -4.70312,-1.09375 -1.16667,2e-5 -2.05209,0.18752 -2.65625,0.5625 -0.60417,0.3646 -0.90625,0.86981 -0.90625,1.51563 0,0.62501 0.26041,1.14584 0.78125,1.5625 0.52083,0.40626 1.73437,0.97397 3.64062,1.70312 1.42708,0.53126 2.47916,1.02605 3.15625,1.48438 0.68749,0.45834 1.1927,0.97397 1.51563,1.54687 0.3229,0.57293 0.48436,1.26043 0.48437,2.0625"/>
   <path d="m 289.89062,780.5318 c -2.57292,0 -4.59375,-0.77604 -6.0625,-2.32813 -1.45833,-1.56249 -2.1875,-3.70832 -2.1875,-6.4375 0,-2.74998 0.68229,-4.93748 2.04688,-6.5625 1.36458,-1.6354 3.20833,-2.4531 5.53125,-2.45312 2.15624,2e-5 3.87499,0.69793 5.15625,2.09375 1.28123,1.38543 1.92186,3.26564 1.92187,5.64062 l 0,1.70313 -11.75,0 c 0.0521,1.94792 0.54687,3.42709 1.48438,4.4375 0.93749,1.01042 2.26562,1.51563 3.98437,1.51562 0.91666,10e-6 1.78645,-0.0781 2.60938,-0.23437 0.8229,-0.16666 1.78644,-0.48437 2.89062,-0.95313 l 0,2.46875 c -0.94793,0.40625 -1.83855,0.69271 -2.67187,0.85938 -0.83335,0.16667 -1.81772,0.25 -2.95313,0.25 m -0.70312,-15.48438 c -1.34376,2e-5 -2.40626,0.43231 -3.1875,1.29688 -0.78126,0.8646 -1.2448,2.06772 -1.39063,3.60937 l 8.73438,0 c -0.0208,-1.60415 -0.39064,-2.8229 -1.10938,-3.65625 -0.71876,-0.83331 -1.73438,-1.24998 -3.04687,-1.25"/>
   <path d="m 307.53125,780.5318 c -2.46876,0 -4.39063,-0.75521 -5.76563,-2.26563 -1.375,-1.52083 -2.0625,-3.69791 -2.0625,-6.53125 0,-2.87498 0.69271,-5.08852 2.07813,-6.64062 1.39583,-1.56248 3.3802,-2.34373 5.95312,-2.34375 0.83333,2e-5 1.65624,0.0886 2.46875,0.26562 0.82291,0.16669 1.49999,0.38544 2.03125,0.65625 l -0.85937,2.34375 c -1.44793,-0.54165 -2.6823,-0.81248 -3.70313,-0.8125 -1.72917,2e-5 -3.00521,0.54689 -3.82812,1.64063 -0.82292,1.08334 -1.23438,2.70313 -1.23438,4.85937 0,2.07293 0.41146,3.66147 1.23438,4.76563 0.82291,1.09375 2.04166,1.64063 3.65625,1.64062 1.51041,10e-6 2.99478,-0.33333 4.45312,-1 l 0,2.5 c -1.18751,0.61459 -2.66146,0.92188 -4.42187,0.92188"/>
   <path d="m 321.76562,778.23492 c 0.36458,10e-6 0.79166,-0.0364 1.28125,-0.10937 0.48958,-0.0729 0.85937,-0.15625 1.10938,-0.25 l 0,2.15625 c -0.26043,0.11458 -0.66668,0.22396 -1.21875,0.32812 -0.54168,0.11459 -1.09376,0.17188 -1.65625,0.17188 -3.35417,0 -5.03125,-1.76562 -5.03125,-5.29688 l 0,-9.98437 -2.42188,0 0,-1.34375 2.45313,-1.125 1.125,-3.65625 1.67187,0 0,3.9375 4.95313,0 0,2.1875 -4.95313,0 0,9.90625 c 0,0.98959 0.23437,1.75 0.70313,2.28125 0.47916,0.53125 1.14062,0.79688 1.98437,0.79687"/>
   <path d="m 334.89062,780.5318 c -2.57292,0 -4.59375,-0.77604 -6.0625,-2.32813 -1.45833,-1.56249 -2.1875,-3.70832 -2.1875,-6.4375 0,-2.74998 0.68229,-4.93748 2.04688,-6.5625 1.36458,-1.6354 3.20833,-2.4531 5.53125,-2.45312 2.15624,2e-5 3.87499,0.69793 5.15625,2.09375 1.28123,1.38543 1.92186,3.26564 1.92187,5.64062 l 0,1.70313 -11.75,0 c 0.0521,1.94792 0.54687,3.42709 1.48438,4.4375 0.93749,1.01042 2.26562,1.51563 3.98437,1.51562 0.91666,10e-6 1.78645,-0.0781 2.60938,-0.23437 0.8229,-0.16666 1.78644,-0.48437 2.89062,-0.95313 l 0,2.46875 c -0.94793,0.40625 -1.83855,0.69271 -2.67187,0.85938 -0.83335,0.16667 -1.81772,0.25 -2.95313,0.25 m -0.70312,-15.48438 c -1.34376,2e-5 -2.40626,0.43231 -3.1875,1.29688 -0.78126,0.8646 -1.2448,2.06772 -1.39063,3.60937 l 8.73438,0 c -0.0208,-1.60415 -0.39064,-2.8229 -1.10938,-3.65625 -0.71876,-0.83331 -1.73438,-1.24998 -3.04687,-1.25"/>
   <path d="m 351.39062,778.23492 c 0.36458,10e-6 0.79166,-0.0364 1.28125,-0.10937 0.48958,-0.0729 0.85937,-0.15625 1.10938,-0.25 l 0,2.15625 c -0.26043,0.11458 -0.66668,0.22396 -1.21875,0.32812 -0.54168,0.11459 -1.09376,0.17188 -1.65625,0.17188 -3.35417,0 -5.03125,-1.76562 -5.03125,-5.29688 l 0,-9.98437 -2.42188,0 0,-1.34375 2.45313,-1.125 1.125,-3.65625 1.67187,0 0,3.9375 4.95313,0 0,2.1875 -4.95313,0 0,9.90625 c 0,0.98959 0.23437,1.75 0.70313,2.28125 0.47916,0.53125 1.14062,0.79688 1.98437,0.79687"/>
   <path d="m 359.875,763.06305 0,11.04687 c -10e-6,1.38543 0.30729,2.41667 0.92187,3.09375 0.625,0.66667 1.58854,1.00001 2.89063,1 1.76041,10e-6 3.04165,-0.48958 3.84375,-1.46875 0.80207,-0.97916 1.20311,-2.55728 1.20312,-4.73437 l 0,-8.9375 2.82813,0 0,17.15625 -2.3125,0 -0.40625,-2.26563 -0.14063,0 c -0.51043,0.82292 -1.23438,1.45834 -2.17187,1.90625 -0.93751,0.44792 -2.02605,0.67188 -3.26563,0.67188 -2.0625,0 -3.61979,-0.49479 -4.67187,-1.48438 -1.04167,-0.98958 -1.5625,-2.57291 -1.5625,-4.75 l 0,-11.23437 2.84375,0"/>
   <path d="m 385.03125,762.75055 c 0.76041,2e-5 1.43228,0.0625 2.01562,0.1875 l -0.34375,2.59375 c -0.63542,-0.14582 -1.25521,-0.21874 -1.85937,-0.21875 -0.90626,10e-6 -1.75001,0.25001 -2.53125,0.75 -0.77084,0.50001 -1.37501,1.19272 -1.8125,2.07812 -0.43751,0.87502 -0.65626,1.84897 -0.65625,2.92188 l 0,9.15625 -2.8125,0 0,-17.15625 2.3125,0 0.3125,3.14062 0.125,0 c 0.65624,-1.1354 1.43228,-1.99477 2.32812,-2.57812 0.89583,-0.58332 1.86979,-0.87498 2.92188,-0.875"/>
   <path d="m 389.85937 778.48492 c 0 -0.68749 0.16667 -1.21353 0.5 -1.57812 0.34375 -0.375 0.82813 -0.5625 1.45313 -0.5625 0.63541 0 1.1302 0.1875 1.48437 0.5625 0.35417 0.36459 0.53125 0.89063 0.53125 1.57812 0 0.67709 -0.17708 1.21355 -0.53125 1.60938 -0.35417 0.38542 -0.84896 0.57812 -1.48437 0.57812 -0.61459 0 -1.09375 -0.1927 -1.4375 -0.57812 -0.34375 -0.38542 -0.51563 -0.92187 -0.51563 -1.60938"/>
   <path d="m 223.1875,860.2193 -7.53125,-20.03125 -0.125,0 c 0.15624,1.66668 0.23437,3.72397 0.23437,6.17187 l 0,13.85938 -2.65625,0 0,-22.84375 4.25,0 7.04688,18.71875 0.125,0 7.17187,-18.71875 4.21875,0 0,22.84375 -2.84375,0 0,-14.04688 c -2e-5,-1.56248 0.0729,-3.54685 0.21875,-5.95312 l -0.125,0 -7.625,20 -2.35937,0"/>
   <path d="m 252.375,860.2193 -0.54688,-2.4375 -0.125,0 c -0.85417,1.07292 -1.70834,1.80208 -2.5625,2.1875 -0.84375,0.375 -1.91146,0.5625 -3.20312,0.5625 -1.68751,0 -3.01042,-0.44271 -3.96875,-1.32813 -0.95834,-0.88541 -1.4375,-2.13541 -1.4375,-3.75 0,-3.47915 2.74479,-5.30207 8.23437,-5.46875 l 2.90625,-0.10937 0,-1.01563 c -1e-5,-1.30207 -0.28126,-2.2604 -0.84375,-2.875 -0.56251,-0.62498 -1.46355,-0.93748 -2.70312,-0.9375 -0.90626,2e-5 -1.76563,0.13544 -2.57813,0.40625 -0.80208,0.27085 -1.55729,0.57294 -2.26562,0.90625 l -0.85938,-2.10937 c 0.86458,-0.45832 1.80729,-0.81769 2.82813,-1.07813 1.02083,-0.2604 2.03124,-0.3906 3.03125,-0.39062 2.07291,2e-5 3.61457,0.45835 4.625,1.375 1.0104,0.91668 1.51561,2.37501 1.51562,4.375 l 0,11.6875 -2.04687,0 m -5.79688,-1.95313 c 1.57291,10e-6 2.80729,-0.42187 3.70313,-1.26562 0.90624,-0.85416 1.35936,-2.0625 1.35937,-3.625 l 0,-1.54688 -2.53125,0.10938 c -1.96875,0.0729 -3.40625,0.38542 -4.3125,0.9375 -0.89583,0.55209 -1.34375,1.42188 -1.34375,2.60937 0,0.89584 0.27083,1.58334 0.8125,2.0625 0.55208,0.47917 1.32292,0.71876 2.3125,0.71875"/>
   <path d="m 267.71875,842.75055 c 0.76041,2e-5 1.43228,0.0625 2.01562,0.1875 l -0.34375,2.59375 c -0.63542,-0.14582 -1.25521,-0.21874 -1.85937,-0.21875 -0.90626,10e-6 -1.75001,0.25001 -2.53125,0.75 -0.77084,0.50001 -1.37501,1.19272 -1.8125,2.07812 -0.43751,0.87502 -0.65626,1.84897 -0.65625,2.92188 l 0,9.15625 -2.8125,0 0,-17.15625 2.3125,0 0.3125,3.14062 0.125,0 c 0.65624,-1.1354 1.43228,-1.99477 2.32812,-2.57812 0.89583,-0.58332 1.86979,-0.87498 2.92188,-0.875"/>
   <path d="m 275.78125,860.2193 -2.8125,0 0,-17.15625 2.8125,0 0,17.15625 M 272.75,838.42242 c 0,-0.62497 0.15625,-1.0781 0.46875,-1.35937 0.32291,-0.28123 0.71875,-0.42185 1.1875,-0.42188 0.4375,3e-5 0.8177,0.14065 1.14062,0.42188 0.33333,0.28127 0.5,0.7344 0.5,1.35937 0,0.61461 -0.16667,1.06773 -0.5,1.35938 -0.32292,0.29169 -0.70312,0.43752 -1.14062,0.4375 -0.46875,2e-5 -0.86459,-0.14581 -1.1875,-0.4375 -0.3125,-0.29165 -0.46875,-0.74477 -0.46875,-1.35938"/>
   <path d="m 292.39062,855.48492 c -1e-5,1.60417 -0.59897,2.84896 -1.79687,3.73438 -1.19793,0.875 -2.88022,1.3125 -5.04688,1.3125 -2.26042,0 -4.05729,-0.35938 -5.39062,-1.07813 l 0,-2.5625 c 1.88541,0.91667 3.70312,1.37501 5.45312,1.375 1.41666,10e-6 2.44791,-0.22916 3.09375,-0.6875 0.64583,-0.45833 0.96874,-1.07291 0.96875,-1.84375 -1e-5,-0.67707 -0.31251,-1.24999 -0.9375,-1.71875 -0.61459,-0.46874 -1.71355,-1.0052 -3.29687,-1.60937 -1.61459,-0.62499 -2.75,-1.15624 -3.40625,-1.59375 -0.65625,-0.44791 -1.14063,-0.94791 -1.45313,-1.5 -0.30208,-0.55207 -0.45312,-1.22395 -0.45312,-2.01563 0,-1.40623 0.57291,-2.51561 1.71875,-3.32812 1.14583,-0.81248 2.71874,-1.21873 4.71875,-1.21875 1.94791,2e-5 3.77082,0.38543 5.46875,1.15625 l -0.95313,2.23437 c -1.73959,-0.72915 -3.3073,-1.09373 -4.70312,-1.09375 -1.16667,2e-5 -2.05209,0.18752 -2.65625,0.5625 -0.60417,0.3646 -0.90625,0.86981 -0.90625,1.51563 0,0.62501 0.26041,1.14584 0.78125,1.5625 0.52083,0.40626 1.73437,0.97397 3.64062,1.70312 1.42708,0.53126 2.47916,1.02605 3.15625,1.48438 0.68749,0.45834 1.1927,0.97397 1.51563,1.54687 0.3229,0.57293 0.48436,1.26043 0.48437,2.0625"/>
   <path d="m 311.71875,860.5318 c -2.46876,0 -4.39063,-0.75521 -5.76563,-2.26563 -1.375,-1.52083 -2.0625,-3.69791 -2.0625,-6.53125 0,-2.87498 0.69271,-5.08852 2.07813,-6.64062 1.39583,-1.56248 3.3802,-2.34373 5.95312,-2.34375 0.83333,2e-5 1.65624,0.0886 2.46875,0.26562 0.82291,0.16669 1.49999,0.38544 2.03125,0.65625 l -0.85937,2.34375 c -1.44793,-0.54165 -2.6823,-0.81248 -3.70313,-0.8125 -1.72917,2e-5 -3.00521,0.54689 -3.82812,1.64063 -0.82292,1.08334 -1.23438,2.70313 -1.23438,4.85937 0,2.07293 0.41146,3.66147 1.23438,4.76563 0.82291,1.09375 2.04166,1.64063 3.65625,1.64062 1.51041,10e-6 2.99478,-0.33333 4.45312,-1 l 0,2.5 c -1.18751,0.61459 -2.66146,0.92188 -4.42187,0.92188"/>
   <path d="m 335.125,851.60992 c -2e-5,2.80209 -0.70835,4.98959 -2.125,6.5625 -1.41668,1.57292 -3.37501,2.35938 -5.875,2.35938 -1.55209,0 -2.92709,-0.35938 -4.125,-1.07813 -1.19792,-0.72916 -2.1198,-1.77083 -2.76563,-3.125 -0.64583,-1.35416 -0.96875,-2.92707 -0.96875,-4.71875 0,-2.79165 0.69792,-4.96352 2.09375,-6.51562 1.39583,-1.56248 3.35416,-2.34373 5.875,-2.34375 2.41666,2e-5 4.33332,0.79689 5.75,2.39062 1.42707,1.58335 2.14061,3.7396 2.14063,6.46875 m -12.95313,0 c 0,2.15626 0.42187,3.79688 1.26563,4.92188 0.85416,1.11459 2.10937,1.67188 3.76562,1.67187 1.63541,10e-6 2.8802,-0.55728 3.73438,-1.67187 0.85415,-1.125 1.28124,-2.76562 1.28125,-4.92188 -10e-6,-2.15623 -0.43231,-3.77602 -1.29688,-4.85937 -0.85417,-1.09374 -2.10938,-1.64061 -3.76562,-1.64063 -3.32292,2e-5 -4.98438,2.16668 -4.98438,6.5"/>
   <path d="m 351.28125,860.2193 0,-10.96875 c -10e-6,-1.39582 -0.31251,-2.43228 -0.9375,-3.10938 -0.6146,-0.68748 -1.58335,-1.03123 -2.90625,-1.03125 -1.76043,2e-5 -3.04167,0.4896 -3.84375,1.46875 -0.79167,0.96877 -1.18751,2.5521 -1.1875,4.75 l 0,8.89063 -2.8125,0 0,-17.15625 2.26562,0 0.42188,2.34375 0.15625,0 c 0.53124,-0.84374 1.27603,-1.49478 2.23437,-1.95313 0.95833,-0.46873 2.01562,-0.7031 3.17188,-0.70312 2.10415,2e-5 3.66665,0.51043 4.6875,1.53125 1.02082,1.02085 1.53123,2.60939 1.53125,4.76562 l 0,11.17188 -2.78125,0"/>
   <path d="m 363.1875 860.2193 -6.5 -17.15625 3.01562 0 3.64063 10.10937 c 0.71874 2.03126 1.17708 3.54688 1.375 4.54688 l 0.125 0 c 0.0312 -0.13541 0.0677 -0.28646 0.10937 -0.45313 0.0521 -0.17708 0.10937 -0.36458 0.17188 -0.5625 0.0625 -0.20833 0.44791 -1.38541 1.15625 -3.53125 l 3.65625 -10.10937 3 0 -6.51563 17.15625 -3.23437 0"/>
   <path d="m 386.25,860.2193 -0.54688,-2.4375 -0.125,0 c -0.85417,1.07292 -1.70834,1.80208 -2.5625,2.1875 -0.84375,0.375 -1.91146,0.5625 -3.20312,0.5625 -1.68751,0 -3.01042,-0.44271 -3.96875,-1.32813 -0.95834,-0.88541 -1.4375,-2.13541 -1.4375,-3.75 0,-3.47915 2.74479,-5.30207 8.23437,-5.46875 l 2.90625,-0.10937 0,-1.01563 c -1e-5,-1.30207 -0.28126,-2.2604 -0.84375,-2.875 -0.56251,-0.62498 -1.46355,-0.93748 -2.70312,-0.9375 -0.90626,2e-5 -1.76563,0.13544 -2.57813,0.40625 -0.80208,0.27085 -1.55729,0.57294 -2.26562,0.90625 l -0.85938,-2.10937 c 0.86458,-0.45832 1.80729,-0.81769 2.82813,-1.07813 1.02083,-0.2604 2.03124,-0.3906 3.03125,-0.39062 2.07291,2e-5 3.61457,0.45835 4.625,1.375 1.0104,0.91668 1.51561,2.37501 1.51562,4.375 l 0,11.6875 -2.04687,0 m -5.79688,-1.95313 c 1.57291,10e-6 2.80729,-0.42187 3.70313,-1.26562 0.90624,-0.85416 1.35936,-2.0625 1.35937,-3.625 l 0,-1.54688 -2.53125,0.10938 c -1.96875,0.0729 -3.40625,0.38542 -4.3125,0.9375 -0.89583,0.55209 -1.34375,1.42188 -1.34375,2.60937 0,0.89584 0.27083,1.58334 0.8125,2.0625 0.55208,0.47917 1.32292,0.71876 2.3125,0.71875"/>
   <path d="m 396.40625 860.2193 -2.8125 0 0 -24.3125 2.8125 0 0 24.3125"/>
   <path d="m 404.65625 860.2193 -2.8125 0 0 -24.3125 2.8125 0 0 24.3125"/>
   <path d="m 412.90625,860.2193 -2.8125,0 0,-17.15625 2.8125,0 0,17.15625 M 409.875,838.42242 c 0,-0.62497 0.15625,-1.0781 0.46875,-1.35937 0.32291,-0.28123 0.71875,-0.42185 1.1875,-0.42188 0.4375,3e-5 0.8177,0.14065 1.14062,0.42188 0.33333,0.28127 0.5,0.7344 0.5,1.35937 0,0.61461 -0.16667,1.06773 -0.5,1.35938 -0.32292,0.29169 -0.70312,0.43752 -1.14062,0.4375 -0.46875,2e-5 -0.86459,-0.14581 -1.1875,-0.4375 -0.3125,-0.29165 -0.46875,-0.74477 -0.46875,-1.35938"/>
   <path d="m 429.51562,855.48492 c -1e-5,1.60417 -0.59897,2.84896 -1.79687,3.73438 -1.19793,0.875 -2.88022,1.3125 -5.04688,1.3125 -2.26042,0 -4.05729,-0.35938 -5.39062,-1.07813 l 0,-2.5625 c 1.88541,0.91667 3.70312,1.37501 5.45312,1.375 1.41666,10e-6 2.44791,-0.22916 3.09375,-0.6875 0.64583,-0.45833 0.96874,-1.07291 0.96875,-1.84375 -1e-5,-0.67707 -0.31251,-1.24999 -0.9375,-1.71875 -0.61459,-0.46874 -1.71355,-1.0052 -3.29687,-1.60937 -1.61459,-0.62499 -2.75,-1.15624 -3.40625,-1.59375 -0.65625,-0.44791 -1.14063,-0.94791 -1.45313,-1.5 -0.30208,-0.55207 -0.45312,-1.22395 -0.45312,-2.01563 0,-1.40623 0.57291,-2.51561 1.71875,-3.32812 1.14583,-0.81248 2.71874,-1.21873 4.71875,-1.21875 1.94791,2e-5 3.77082,0.38543 5.46875,1.15625 l -0.95313,2.23437 c -1.73959,-0.72915 -3.3073,-1.09373 -4.70312,-1.09375 -1.16667,2e-5 -2.05209,0.18752 -2.65625,0.5625 -0.60417,0.3646 -0.90625,0.86981 -0.90625,1.51563 0,0.62501 0.26041,1.14584 0.78125,1.5625 0.52083,0.40626 1.73437,0.97397 3.64062,1.70312 1.42708,0.53126 2.47916,1.02605 3.15625,1.48438 0.68749,0.45834 1.1927,0.97397 1.51563,1.54687 0.3229,0.57293 0.48436,1.26043 0.48437,2.0625"/>
   <path d="m 223.89062,895.48492 c -1e-5,1.60417 -0.59897,2.84896 -1.79687,3.73438 -1.19793,0.875 -2.88022,1.3125 -5.04688,1.3125 -2.26042,0 -4.05729,-0.35938 -5.39062,-1.07813 l 0,-2.5625 c 1.88541,0.91667 3.70312,1.37501 5.45312,1.375 1.41666,10e-6 2.44791,-0.22916 3.09375,-0.6875 0.64583,-0.45833 0.96874,-1.07291 0.96875,-1.84375 -1e-5,-0.67707 -0.31251,-1.24999 -0.9375,-1.71875 -0.61459,-0.46874 -1.71355,-1.0052 -3.29687,-1.60937 -1.61459,-0.62499 -2.75,-1.15624 -3.40625,-1.59375 -0.65625,-0.44791 -1.14063,-0.94791 -1.45313,-1.5 -0.30208,-0.55207 -0.45312,-1.22395 -0.45312,-2.01563 0,-1.40623 0.57291,-2.51561 1.71875,-3.32812 1.14583,-0.81248 2.71874,-1.21873 4.71875,-1.21875 1.94791,2e-5 3.77082,0.38543 5.46875,1.15625 l -0.95313,2.23437 c -1.73959,-0.72915 -3.3073,-1.09373 -4.70312,-1.09375 -1.16667,2e-5 -2.05209,0.18752 -2.65625,0.5625 -0.60417,0.3646 -0.90625,0.86981 -0.90625,1.51563 0,0.62501 0.26041,1.14584 0.78125,1.5625 0.52083,0.40626 1.73437,0.97397 3.64062,1.70312 1.42708,0.53126 2.47916,1.02605 3.15625,1.48438 0.68749,0.45834 1.1927,0.97397 1.51563,1.54687 0.3229,0.57293 0.48436,1.26043 0.48437,2.0625"/>
   <path d="m 230.6875,883.06305 0,11.04687 c -1e-5,1.38543 0.30729,2.41667 0.92187,3.09375 0.625,0.66667 1.58854,1.00001 2.89063,1 1.76041,10e-6 3.04165,-0.48958 3.84375,-1.46875 0.80207,-0.97916 1.20311,-2.55728 1.20312,-4.73437 l 0,-8.9375 2.82813,0 0,17.15625 -2.3125,0 -0.40625,-2.26563 -0.14063,0 c -0.51043,0.82292 -1.23438,1.45834 -2.17187,1.90625 -0.93751,0.44792 -2.02605,0.67188 -3.26563,0.67188 -2.0625,0 -3.61979,-0.49479 -4.67187,-1.48438 -1.04167,-0.98958 -1.5625,-2.57291 -1.5625,-4.75 l 0,-11.23437 2.84375,0"/>
   <path d="m 259.01562,895.48492 c -1e-5,1.60417 -0.59897,2.84896 -1.79687,3.73438 -1.19793,0.875 -2.88022,1.3125 -5.04688,1.3125 -2.26042,0 -4.05729,-0.35938 -5.39062,-1.07813 l 0,-2.5625 c 1.88541,0.91667 3.70312,1.37501 5.45312,1.375 1.41666,10e-6 2.44791,-0.22916 3.09375,-0.6875 0.64583,-0.45833 0.96874,-1.07291 0.96875,-1.84375 -1e-5,-0.67707 -0.31251,-1.24999 -0.9375,-1.71875 -0.61459,-0.46874 -1.71355,-1.0052 -3.29687,-1.60937 -1.61459,-0.62499 -2.75,-1.15624 -3.40625,-1.59375 -0.65625,-0.44791 -1.14063,-0.94791 -1.45313,-1.5 -0.30208,-0.55207 -0.45312,-1.22395 -0.45312,-2.01563 0,-1.40623 0.57291,-2.51561 1.71875,-3.32812 1.14583,-0.81248 2.71874,-1.21873 4.71875,-1.21875 1.94791,2e-5 3.77082,0.38543 5.46875,1.15625 l -0.95313,2.23437 c -1.73959,-0.72915 -3.3073,-1.09373 -4.70312,-1.09375 -1.16667,2e-5 -2.05209,0.18752 -2.65625,0.5625 -0.60417,0.3646 -0.90625,0.86981 -0.90625,1.51563 0,0.62501 0.26041,1.14584 0.78125,1.5625 0.52083,0.40626 1.73437,0.97397 3.64062,1.70312 1.42708,0.53126 2.47916,1.02605 3.15625,1.48438 0.68749,0.45834 1.1927,0.97397 1.51563,1.54687 0.3229,0.57293 0.48436,1.26043 0.48437,2.0625"/>
   <path d="m 270.03125,900.5318 c -2.46876,0 -4.39063,-0.75521 -5.76563,-2.26563 -1.375,-1.52083 -2.0625,-3.69791 -2.0625,-6.53125 0,-2.87498 0.69271,-5.08852 2.07813,-6.64062 1.39583,-1.56248 3.3802,-2.34373 5.95312,-2.34375 0.83333,2e-5 1.65624,0.0886 2.46875,0.26562 0.82291,0.16669 1.49999,0.38544 2.03125,0.65625 l -0.85937,2.34375 c -1.44793,-0.54165 -2.6823,-0.81248 -3.70313,-0.8125 -1.72917,2e-5 -3.00521,0.54689 -3.82812,1.64063 -0.82292,1.08334 -1.23438,2.70313 -1.23438,4.85937 0,2.07293 0.41146,3.66147 1.23438,4.76563 0.82291,1.09375 2.04166,1.64063 3.65625,1.64062 1.51041,10e-6 2.99478,-0.33333 4.45312,-1 l 0,2.5 c -1.18751,0.61459 -2.66146,0.92188 -4.42187,0.92188"/>
   <path d="m 281.34375,900.2193 -2.8125,0 0,-17.15625 2.8125,0 0,17.15625 m -3.03125,-21.79688 c 0,-0.62497 0.15625,-1.0781 0.46875,-1.35937 0.32291,-0.28123 0.71875,-0.42185 1.1875,-0.42188 0.4375,3e-5 0.8177,0.14065 1.14062,0.42188 0.33333,0.28127 0.5,0.7344 0.5,1.35937 0,0.61461 -0.16667,1.06773 -0.5,1.35938 -0.32292,0.29169 -0.70312,0.43752 -1.14062,0.4375 -0.46875,2e-5 -0.86459,-0.14581 -1.1875,-0.4375 -0.3125,-0.29165 -0.46875,-0.74477 -0.46875,-1.35938"/>
   <path d="m 294.90625,900.5318 c -2.30209,0 -4.07292,-0.82813 -5.3125,-2.48438 l -0.1875,0 0.0625,0.64063 c 0.0833,0.8125 0.12499,1.53646 0.125,2.17187 l 0,7.04688 -2.8125,0 0,-24.84375 2.3125,0 0.375,2.34375 0.125,0 c 0.66666,-0.93748 1.43749,-1.61457 2.3125,-2.03125 0.87499,-0.41665 1.88541,-0.62498 3.03125,-0.625 2.22915,2e-5 3.95832,0.77606 5.1875,2.32812 1.23957,1.54168 1.85936,3.71877 1.85937,6.53125 -1e-5,2.80209 -0.6198,4.98959 -1.85937,6.5625 -1.2396,1.57292 -2.97918,2.35938 -5.21875,2.35938 m -0.46875,-15.42188 c -1.69793,2e-5 -2.92709,0.47919 -3.6875,1.4375 -0.75001,0.95835 -1.13542,2.46356 -1.15625,4.51563 l 0,0.54687 c -10e-6,2.32293 0.38541,4.00522 1.15625,5.04688 0.77083,1.03125 2.02082,1.54688 3.75,1.54687 1.43749,10e-6 2.55728,-0.58333 3.35937,-1.75 0.81249,-1.16666 1.21874,-2.79166 1.21875,-4.875 -1e-5,-2.09373 -0.40626,-3.69269 -1.21875,-4.79687 -0.80209,-1.11457 -1.94272,-1.67186 -3.42187,-1.67188"/>
   <path d="m 309.28125,900.2193 -2.8125,0 0,-17.15625 2.8125,0 0,17.15625 M 306.25,878.42242 c 0,-0.62497 0.15625,-1.0781 0.46875,-1.35937 0.32291,-0.28123 0.71875,-0.42185 1.1875,-0.42188 0.4375,3e-5 0.8177,0.14065 1.14062,0.42188 0.33333,0.28127 0.5,0.7344 0.5,1.35937 0,0.61461 -0.16667,1.06773 -0.5,1.35938 -0.32292,0.29169 -0.70312,0.43752 -1.14062,0.4375 -0.46875,2e-5 -0.86459,-0.14581 -1.1875,-0.4375 -0.3125,-0.29165 -0.46875,-0.74477 -0.46875,-1.35938"/>
   <path d="m 320.45312,898.23492 c 0.36458,10e-6 0.79166,-0.0364 1.28125,-0.10937 0.48958,-0.0729 0.85937,-0.15625 1.10938,-0.25 l 0,2.15625 c -0.26043,0.11458 -0.66668,0.22396 -1.21875,0.32812 -0.54168,0.11459 -1.09376,0.17188 -1.65625,0.17188 -3.35417,0 -5.03125,-1.76562 -5.03125,-5.29688 l 0,-9.98437 -2.42188,0 0,-1.34375 2.45313,-1.125 1.125,-3.65625 1.67187,0 0,3.9375 4.95313,0 0,2.1875 -4.95313,0 0,9.90625 c 0,0.98959 0.23437,1.75 0.70313,2.28125 0.47916,0.53125 1.14062,0.79688 1.98437,0.79687"/>
   <path d="m 341.89062,900.5318 c -2.57292,0 -4.59375,-0.77604 -6.0625,-2.32813 -1.45833,-1.56249 -2.1875,-3.70832 -2.1875,-6.4375 0,-2.74998 0.68229,-4.93748 2.04688,-6.5625 1.36458,-1.6354 3.20833,-2.4531 5.53125,-2.45312 2.15624,2e-5 3.87499,0.69793 5.15625,2.09375 1.28123,1.38543 1.92186,3.26564 1.92187,5.64062 l 0,1.70313 -11.75,0 c 0.0521,1.94792 0.54687,3.42709 1.48438,4.4375 0.93749,1.01042 2.26562,1.51563 3.98437,1.51562 0.91666,10e-6 1.78645,-0.0781 2.60938,-0.23437 0.8229,-0.16666 1.78644,-0.48437 2.89062,-0.95313 l 0,2.46875 c -0.94793,0.40625 -1.83855,0.69271 -2.67187,0.85938 -0.83335,0.16667 -1.81772,0.25 -2.95313,0.25 m -0.70312,-15.48438 c -1.34376,2e-5 -2.40626,0.43231 -3.1875,1.29688 -0.78126,0.8646 -1.2448,2.06772 -1.39063,3.60937 l 8.73438,0 c -0.0208,-1.60415 -0.39064,-2.8229 -1.10938,-3.65625 -0.71876,-0.83331 -1.73438,-1.24998 -3.04687,-1.25"/>
   <path d="m 355.46875,900.2193 -2.8125,0 0,-17.15625 2.8125,0 0,17.15625 m -3.03125,-21.79688 c 0,-0.62497 0.15625,-1.0781 0.46875,-1.35937 0.32291,-0.28123 0.71875,-0.42185 1.1875,-0.42188 0.4375,3e-5 0.8177,0.14065 1.14062,0.42188 0.33333,0.28127 0.5,0.7344 0.5,1.35937 0,0.61461 -0.16667,1.06773 -0.5,1.35938 -0.32292,0.29169 -0.70312,0.43752 -1.14062,0.4375 -0.46875,2e-5 -0.86459,-0.14581 -1.1875,-0.4375 -0.3125,-0.29165 -0.46875,-0.74477 -0.46875,-1.35938"/>
   <path d="m 368.8125,885.25055 -4.32813,0 0,14.96875 -2.8125,0 0,-14.96875 -3,0 0,-1.3125 3,-0.96875 0,-0.98438 c 0,-2.08331 0.45313,-3.64581 1.35938,-4.6875 0.91666,-1.04164 2.32291,-1.56247 4.21875,-1.5625 1.09374,3e-5 2.20311,0.19274 3.32812,0.57813 l -0.75,2.20312 c -0.96876,-0.31247 -1.81771,-0.46872 -2.54687,-0.46875 -0.94792,3e-5 -1.65105,0.31253 -2.10938,0.9375 -0.45833,0.62502 -0.6875,1.61461 -0.6875,2.96875 l 0,1.10938 4.32813,0 0,2.1875"/>
   <path d="m 379.20312,900.5318 c -2.57292,0 -4.59375,-0.77604 -6.0625,-2.32813 -1.45833,-1.56249 -2.1875,-3.70832 -2.1875,-6.4375 0,-2.74998 0.68229,-4.93748 2.04688,-6.5625 1.36458,-1.6354 3.20833,-2.4531 5.53125,-2.45312 2.15624,2e-5 3.87499,0.69793 5.15625,2.09375 1.28123,1.38543 1.92186,3.26564 1.92187,5.64062 l 0,1.70313 -11.75,0 c 0.0521,1.94792 0.54687,3.42709 1.48438,4.4375 0.93749,1.01042 2.26562,1.51563 3.98437,1.51562 0.91666,10e-6 1.78645,-0.0781 2.60938,-0.23437 0.8229,-0.16666 1.78644,-0.48437 2.89062,-0.95313 l 0,2.46875 c -0.94793,0.40625 -1.83855,0.69271 -2.67187,0.85938 -0.83335,0.16667 -1.81772,0.25 -2.95313,0.25 M 378.5,885.04742 c -1.34376,2e-5 -2.40626,0.43231 -3.1875,1.29688 -0.78126,0.8646 -1.2448,2.06772 -1.39063,3.60937 l 8.73438,0 c -0.0208,-1.60415 -0.39064,-2.8229 -1.10938,-3.65625 -0.71876,-0.83331 -1.73438,-1.24998 -3.04687,-1.25"/>
   <path d="m 401.65625,900.2193 0,-10.96875 c -10e-6,-1.39582 -0.31251,-2.43228 -0.9375,-3.10938 -0.6146,-0.68748 -1.58335,-1.03123 -2.90625,-1.03125 -1.76043,2e-5 -3.04167,0.4896 -3.84375,1.46875 -0.79167,0.96877 -1.18751,2.5521 -1.1875,4.75 l 0,8.89063 -2.8125,0 0,-17.15625 2.26562,0 0.42188,2.34375 0.15625,0 c 0.53124,-0.84374 1.27603,-1.49478 2.23437,-1.95313 0.95833,-0.46873 2.01562,-0.7031 3.17188,-0.70312 2.10415,2e-5 3.66665,0.51043 4.6875,1.53125 1.02082,1.02085 1.53123,2.60939 1.53125,4.76562 l 0,11.17188 -2.78125,0"/>
   <path d="m 415.85937,900.5318 c -2.22917,0 -3.95833,-0.77083 -5.1875,-2.3125 -1.22916,-1.54166 -1.84375,-3.72395 -1.84375,-6.54688 0,-2.80207 0.61459,-4.98957 1.84375,-6.5625 1.23958,-1.5729 2.97917,-2.35935 5.21875,-2.35937 2.30208,2e-5 4.07291,0.84377 5.3125,2.53125 l 0.20313,0 c -0.0313,-0.20832 -0.0729,-0.62499 -0.125,-1.25 -0.0521,-0.6354 -0.0781,-1.06248 -0.0781,-1.28125 l 0,-6.84375 2.8125,0 0,24.3125 -2.26562,0 -0.42188,-2.29688 -0.125,0 c -1.19792,1.73959 -2.97917,2.60938 -5.34375,2.60938 m 0.45313,-2.32813 c 1.70832,10e-6 2.95311,-0.46353 3.73437,-1.39062 0.79166,-0.9375 1.18749,-2.46874 1.1875,-4.59375 l 0,-0.51563 c -1e-5,-2.3854 -0.40105,-4.08332 -1.20312,-5.09375 -0.79168,-1.02081 -2.04168,-1.53123 -3.75,-1.53125 -1.44792,2e-5 -2.56771,0.57814 -3.35938,1.73438 -0.79167,1.14584 -1.1875,2.78647 -1.1875,4.92187 0,2.12501 0.39062,3.73438 1.17188,4.82813 0.79166,1.09375 1.92708,1.64063 3.40625,1.64062"/>
   <path d="m 429.04687 898.48492 c 0 -0.68749 0.16667 -1.21353 0.5 -1.57812 0.34375 -0.375 0.82813 -0.5625 1.45313 -0.5625 0.63541 0 1.1302 0.1875 1.48437 0.5625 0.35417 0.36459 0.53125 0.89063 0.53125 1.57812 0 0.67709 -0.17708 1.21355 -0.53125 1.60938 -0.35417 0.38542 -0.84896 0.57812 -1.48437 0.57812 -0.61459 0 -1.09375 -0.1927 -1.4375 -0.57812 -0.34375 -0.38542 -0.51563 -0.92187 -0.51563 -1.60938"/>
  </g>
 </g>
</svg>
