<svg xmlns="http://www.w3.org/2000/svg" width="512" height="512">
 <path d="m 506 256.00004 c 0 138.07119 -111.92881 250 -250 250 -138.07119 0 -250 -111.92881 -250 -250 C 6 117.92886 117.92881 6.00005 256 6.00005 c 138.07119 0 250 111.92881 250 249.99999 z" fill="#7d529e" fill-rule="evenodd"/>
 <path d="M 256 29.26951 C 130.78767 29.26951 29.26951 130.78767 29.26951 256 29.26951 381.21233 130.78767 482.73049 256 482.73049 381.21233 482.73049 482.73049 381.21233 482.73049 256 482.73049 130.78767 381.21233 29.26951 256 29.26951 z m 0 26.997076 C 366.31206 56.26658 455.73342 145.68794 455.73342 256 455.73342 366.31206 366.31206 455.73342 256 455.73342 145.68794 455.73342 56.26658 366.31206 56.26658 256 56.26658 145.68794 145.68794 56.26658 256 56.26658 z" fill="#fff8eb" fill-rule="evenodd"/>
 <g transform="matrix(1.0543151,0,0,1.0543151,563.87699,98.776374)">
  <path d="m -433.72211 90.30137 c 1.19158 11.83843 6.2321 26.70941 14.16805 43.07234 14.00491 28.87636 34.57699 64.80852 63.82597 92.10126 48.42113 45.18264 104.3672 77.77274 133.7849 78.88818 17.31075 -5.46022 33.22077 -19.1486 40.40636 -34.29079 4.49147 -5.7878 6.32808 -12.5783 2.66818 -17.81114 -11.02416 -15.76212 -27.09451 -27.56599 -41.69139 -35.09939 -12.18276 -6.28748 -16.07709 -12.78844 -29.67871 -9.75675 -11.5327 8.1171 -15.02444 12.4494 -26.80235 25.04893 -40.66893 -6.27196 -86.47108 -59.57509 -82.22125 -85.4928 4.60076 -6.21367 8.9182 -9.80346 12.6825 -12.91844 5.75468 -4.76204 10.21666 -8.41443 12.422 -18.63538 -6.45293 -25.989949 -20.70912 -36.16092 -39.25898 -59.861402 -10.89439 -8.373456 -16.33071 -9.601 -28.02754 -1.743447 -11.59189 10.618764 -25.93333 18.405482 -30.82261 32.349 z" fill="#fff8eb" stroke="#fff8eb"/>
  <path d="m -284.05479 115.22505 c 20.8528 1.62439 35.28916 11.21402 36.82191 36.82192" fill="none" stroke="#fff8eb" stroke-linejoin="round" stroke-linecap="round" stroke-width="13"/>
  <path d="m -293.57339 83.16243 c 46.60028 4.818471 74.11736 28.431004 76.64971 76.6497" fill="none" stroke="#fff8eb" stroke-linejoin="round" stroke-linecap="round" stroke-width="13"/>
  <path d="m -303.09198 53.10372 c 76.58033 4.694912 112.41815 47.44178 118.23092 118.23092" fill="none" stroke="#fff8eb" stroke-linejoin="round" stroke-linecap="round" stroke-width="13"/>
 </g>
</svg>
