<svg xmlns="http://www.w3.org/2000/svg" xmlns:xlink="http://www.w3.org/1999/xlink" width="512" height="512">
 <defs>
  <linearGradient y2="7.01654" x2="0" y1="92.5396" gradientTransform="scale(1.0058652,0.994169)" gradientUnits="userSpaceOnUse" xlink:href="#1"/>
  <filter x="-0.192" y="-0.192" width="1.384" height="1.384" color-interpolation-filters="sRGB">
   <feGaussianBlur stdDeviation="5.28"/>
  </filter>
  <clipPath>
   <rect width="84" height="84" rx="6" x="6" y="6" fill="#fff"/>
  </clipPath>
  <linearGradient id="0">
   <stop stop-color="#fff"/>
   <stop offset="1" stop-color="#fff" stop-opacity="0"/>
  </linearGradient>
  <linearGradient y1="20.220806" x2="0" y2="138.66119" xlink:href="#0" gradientUnits="userSpaceOnUse"/>
  <filter color-interpolation-filters="sRGB">
   <feGaussianBlur stdDeviation="1.71"/>
  </filter>
  <linearGradient y1="92.5396" x2="0" y2="7.01654" id="1" gradientUnits="userSpaceOnUse" gradientTransform="scale(1.0058652,0.994169)">
   <stop/>
   <stop offset="1" stop-opacity="0.588235"/>
  </linearGradient>
  <clipPath>
   <path d="m 277.25 902.23719 c -11.59798 0 -21 9.40202 -21 21 0 0.1891 0.007 0.37461 0.0117 0.5625 -0.005 0.1879 -0.0117 0.37341 -0.0117 0.5625 0 11.59802 9.40202 21.00001 21 21.00001 11.59798 0 21.00001 -9.40199 21.00001 -21.00001 0 -0.18909 -0.007 -0.3746 -0.0117 -0.5625 0.005 -0.18789 0.0117 -0.3734 0.0117 -0.5625 0 -11.59798 -9.40203 -21 -21.00001 -21 z"/>
  </clipPath>
  <clipPath>
   <path d="m 281.15075 974.51295 c -8.20101 8.20101 -8.20101 21.49748 0 29.69845 8.20104 8.2011 21.49748 8.201 29.69849 0 8.20101 -8.20097 8.20104 -21.49741 0 -29.69845 -8.20101 -8.20101 -21.49748 -8.20101 -29.69849 0 z m 2.82843 2.82843 c 6.63891 -6.63891 17.40272 -6.63891 24.04163 0 6.63891 6.63891 6.63891 17.40272 0 24.04162 -6.63891 6.6389 -17.40272 6.6389 -24.04163 0 -6.63891 -6.6389 -6.63891 -17.40271 0 -24.04162 z"/>
  </clipPath>
  <clipPath>
   <path d="m 306.50004 1007.5487 c 10.04414 -5.7989 13.48552 -18.64235 7.68653 -28.68649 -5.79901 -10.04418 -18.64239 -13.48553 -28.68653 -7.68654 -10.04415 5.79899 -13.48555 18.64236 -7.68654 28.68654 5.79899 10.04419 18.64239 13.48549 28.68654 7.68649 z m -2 -3.4641 c -8.13098 4.6945 -18.52802 1.9086 -23.22244 -6.22239 -4.69442 -8.13098 -1.90854 -18.52801 6.22244 -23.22243 8.13097 -4.69442 18.52801 -1.90855 23.22243 6.22243 4.69442 8.13097 1.90854 18.52801 -6.22243 23.22239 z"/>
  </clipPath>
  <clipPath>
   <path transform="translate(0,-0.44665647)" d="m 315 448 a 19 19 0 1 1 -38 0 19 19 0 1 1 38 0 z"/>
  </clipPath>
  <clipPath>
   <rect y="6" x="6" rx="6" height="84" width="84" fill="#fff"/>
  </clipPath>
  <clipPath>
   <rect y="6" x="6" rx="6" height="84" width="84" fill="#fff"/>
  </clipPath>
  <clipPath>
   <path d="m184.12 701.5a2.2363 2.2363 0 0 0 -1.4688 0.90625s-3.328 4.7671-4.0312 11.156c-5.0181-4.0229-10.75-5.0625-10.75-5.0625a2.2363 2.2363 0 0 0 -2.5938 2.5625s1.034 5.7649 5.0625 10.781c-6.3978 0.70283-11.188 4.0312-11.188 4.0312a2.2363 2.2363 0 0 0 0 3.625s4.7948 3.3031 11.188 4c-4.0285 5.0164-5.0625 10.781-5.0625 10.781a2.2363 2.2363 0 0 0 2.5938 2.5625s5.7319-1.0396 10.75-5.0625c0.70267 6.3934 4.0312 11.188 4.0312 11.188a2.2363 2.2363 0 0 0 3.625 0s3.3111-4.8145 4-11.219c5.0262 4.0467 10.781 5.0938 10.781 5.0938a2.2363 2.2363 0 0 0 2.5938 -2.5938s-1.0624-5.7373-5.0938-10.75c6.397-0.69632 11.219-4 11.219-4a2.2363 2.2363 0 0 0 0 -3.625s-4.8167-3.329-11.219-4.0312c4.0313-5.0127 5.0938-10.75 5.0938-10.75a2.2363 2.2363 0 0 0 -2.59 -2.6s-5.755 1.047-10.781 5.0938c-0.69265-6.3936-4-11.188-4-11.188a2.2363 2.2363 0 0 0 -2.16 -0.91z"/>
  </clipPath>
  <clipPath>
   <path d="m471.43 685.93c0 22.097-12.842 40.01-12.842 40.01s-12.842-17.913-12.842-40.01 12.842-40.01 12.842-40.01 12.842 17.913 12.842 40.01z"/>
  </clipPath>
  <clipPath>
   <path d="m401.43 865.8c0 22.097-12.842 40.01-12.842 40.01s-12.842-17.913-12.842-40.01 12.842-40.01 12.842-40.01 12.842 17.913 12.842 40.01z"/>
  </clipPath>
  <clipPath>
   <path d="m348.71 698.73c-22.064 0-39.951-12.861-39.951-12.861s17.887-12.861 39.951-12.861 39.951 12.861 39.951 12.861-17.887 12.861-39.951 12.861z"/>
  </clipPath>
  <clipPath>
   <path d="m299.47 763.2c-15.602 15.625-37.33 19.197-37.33 19.197s3.5672-21.76 19.169-37.385 37.33-19.197 37.33-19.197-3.5672 21.76-19.169 37.385z"/>
  </clipPath>
  <clipPath>
   <path d="m538.47 738.73c-22.064 0-39.951-12.861-39.951-12.861s17.887-12.861 39.951-12.861 39.951 12.861 39.951 12.861-17.887 12.861-39.951 12.861z"/>
  </clipPath>
  <clipPath>
   <path d="m515.87 706.72c-15.602 15.625-37.33 19.197-37.33 19.197s3.5672-21.76 19.169-37.385 37.33-19.197 37.33-19.197-3.5672 21.76-19.169 37.385z"/>
  </clipPath>
  <clipPath>
   <path d="m515.87 745.01c15.602 15.625 19.169 37.385 19.169 37.385s-21.729-3.5724-37.33-19.197c-15.602-15.625-19.169-37.385-19.169-37.385s21.729 3.5724 37.33 19.197z"/>
  </clipPath>
  <clipPath>
   <path d="m269.47 688.53c15.602 15.625 19.169 37.385 19.169 37.385s-21.729-3.5724-37.33-19.197c-15.602-15.625-19.169-37.385-19.169-37.385s21.729 3.5724 37.33 19.197z"/>
  </clipPath>
  <clipPath>
   <path d="m 471.43 685.93 c 0 22.097 -12.842 40.01 -12.842 40.01 0 0 -12.842 -17.913 -12.842 -40.01 0 -22.097 12.842 -40.01 12.842 -40.01 0 0 12.842 17.913 12.842 40.01 z"/>
  </clipPath>
  <clipPath>
   <path d="m 401.43 865.8 c 0 22.097 -12.842 40.01 -12.842 40.01 0 0 -12.842 -17.913 -12.842 -40.01 0 -22.097 12.842 -40.01 12.842 -40.01 0 0 12.842 17.913 12.842 40.01 z"/>
  </clipPath>
  <clipPath>
   <path d="m 348.71 698.73 c -22.064 0 -39.951 -12.861 -39.951 -12.861 0 0 17.887 -12.861 39.951 -12.861 22.064 0 39.951 12.861 39.951 12.861 0 0 -17.887 12.861 -39.951 12.861 z"/>
  </clipPath>
  <clipPath>
   <path d="m 299.47 763.2 c -15.602 15.625 -37.33 19.197 -37.33 19.197 0 0 3.5672 -21.76 19.169 -37.385 15.6018 -15.625 37.33 -19.197 37.33 -19.197 0 0 -3.5672 21.76 -19.169 37.385 z"/>
  </clipPath>
  <clipPath>
   <path d="m 538.47 738.73 c -22.064 0 -39.951 -12.861 -39.951 -12.861 0 0 17.887 -12.861 39.951 -12.861 22.064 0 39.951 12.861 39.951 12.861 0 0 -17.887 12.861 -39.951 12.861 z"/>
  </clipPath>
  <clipPath>
   <path d="m 515.87 706.72 c -15.602 15.625 -37.33 19.197 -37.33 19.197 0 0 3.5672 -21.76 19.169 -37.385 15.6018 -15.625 37.33 -19.197 37.33 -19.197 0 0 -3.5672 21.76 -19.169 37.385 z"/>
  </clipPath>
  <clipPath>
   <path d="m 515.87 745.01 c 15.602 15.625 19.169 37.385 19.169 37.385 0 0 -21.729 -3.5724 -37.33 -19.197 -15.602 -15.625 -19.169 -37.385 -19.169 -37.385 0 0 21.729 3.5724 37.33 19.197 z"/>
  </clipPath>
  <clipPath>
   <path d="m 269.47 688.53 c 15.602 15.625 19.169 37.385 19.169 37.385 0 0 -21.729 -3.5724 -37.33 -19.197 -15.602 -15.625 -19.169 -37.385 -19.169 -37.385 0 0 21.729 3.5724 37.33 19.197 z"/>
  </clipPath>
  <clipPath>
   <rect width="84" height="84" rx="6" x="6" y="6" fill="#fff"/>
  </clipPath>
  <clipPath>
   <rect width="84" height="84" rx="6" x="6" y="6" fill="#fff"/>
  </clipPath>
 </defs>
 <g transform="translate(0,-540.36217)">
  <path d="m 256 546.36215 c -91.41816 0 -171.34469 49.09463 -214.94141 122.33072 C 18.81007 706.06713 6 749.70911 6 796.36213 c 0 138.07118 111.92881 250.00007 250 250.00007 138.07119 0 250 -111.9289 250 -250.00007 0 -46.65302 -12.81007 -90.295 -35.05859 -127.66926 C 427.34469 595.45678 347.41816 546.36215 256 546.36215 z" fill="#f38725" fill-rule="evenodd"/>
  <text y="1072.103" x="-1074.6862" font-family="Gentium Book Basic" word-spacing="0" line-height="125%" letter-spacing="0" font-size="195.71475"><tspan y="1072.103" x="-1074.6862"/>
  </text>
  <text transform="scale(4.0128362,0.2492003)" font-size="71.11276" y="3773.3782" x="30.669348" font-family="Arial" text-anchor="middle"/>
  <path d="m 256 567.71895 c -83.60857 0 -156.70364 44.91254 -196.57601 111.89228 -20.347896 34.18148 -32.06721 74.08335 -32.06721 116.75094 0 126.27615 102.36706 228.64323 228.64322 228.64323 126.27616 0 228.64321 -102.36708 228.64321 -228.64323 0 -42.66759 -11.71932 -82.56946 -32.0672 -116.75094 C 412.70363 612.63149 339.60857 567.71895 256 567.71895 z m 0 16.97676 c 77.39766 0 145.06099 41.57128 181.97143 103.57537 18.83632 31.64229 29.69503 68.59311 29.69503 108.09109 0 116.89564 -94.77081 211.66643 -211.66646 211.66643 -116.89565 0 -211.66646 -94.77079 -211.66646 -211.66643 0 -39.49798 10.858699 -76.4488 29.695038 -108.09109 C 110.939 626.26699 178.60234 584.69571 256 584.69571 z" fill="#fff8eb" fill-rule="evenodd"/>
  <g transform="matrix(1.1417197,0,0,1.1417197,-629.59543,-80.877361)">
   <path d="m 659.52361 882.05655 232.28879 0 -23.52942 -46.06266 -182.95132 0 c 0 0 -10.33324 19.48196 -25.80805 46.06266 z" fill="#fff" stroke="#fff" stroke-width="16.899773"/>
   <path d="m 775.03485 619.64934 c -4.29142 0.021 -8.40334 2.8602 -16.97112 8.42196 l -17.98686 69.70337 71.10098 -0.0423 -17.98685 -69.66104 c -9.39917 -5.64592 -13.86473 -8.443 -18.15615 -8.42196 z m -43.08381 109.48549 -6.68688 25.9007 100.7264 0 -6.64455 -25.81606 z m 94.03952 25.9007 8.2528 31.91034 -8.2528 -31.91034 z m 8.2528 31.91034 -117.18967 -0.0846 -10.45354 40.50159 c 49.88599 28.5161 83.26558 30.27158 138.13907 0.16929 z" fill="#fff"/>
  </g>
 </g>
</svg>
