<svg xmlns="http://www.w3.org/2000/svg" xmlns:xlink="http://www.w3.org/1999/xlink" width="512" height="512">
 <defs>
  <linearGradient id="0">
   <stop stop-color="#5b98b3"/>
   <stop offset="1" stop-color="#0078ad"/>
  </linearGradient>
  <radialGradient xlink:href="#0" id="1" cx="257.48997" cy="-207.41916" r="245.62124" gradientTransform="matrix(1,0,0,1.0055706,0,1.1554592)" gradientUnits="userSpaceOnUse"/>
 </defs>
 <g transform="matrix(1 0 0 1 -1.489975 463.41916)">
  <path d="m 503.11121 -207.41918 c 0 136.40856 -109.96838 246.98952 -245.62123 246.98952 -135.65287 0 -245.62124 -110.58096 -245.62124 -246.98952 0 -136.40851 109.96837 -246.98949 245.62124 -246.98949 135.65285 0 245.62123 110.58098 245.62123 246.98949 z" fill="url(#1)"/>
  <path d="M 256 71.78125 C 158.649 71.78125 79.04739 148.12952 73.15625 244.53125 C 75.00641 249.02243 79.22631 252.04323 81.625 256.46875 L 82.78125 267.15625 L 84.71875 257.25 L 106.0625 266.3125 L 120.8125 280.125 L 133.46875 282 C 128.94838 292.35339 119.80273 309.03591 121.46875 320.59375 C 122.43778 327.31587 129.209 336.90386 133.09375 342.375 C 138.52072 350.01659 148.7675 354.53623 151.5 364.15625 L 151.9375 380 L 154.90625 391.875 C 154.41539 396.0346 151.16483 402.69995 151.78125 407.53125 C 160.16497 413.37218 169.05519 418.51667 178.375 422.90625 C 180.00512 421.35484 179.79691 418.00174 178.3125 415.625 L 185.53125 405.53125 L 194.6875 398.6875 L 201.125 376.09375 L 215 367 C 220.67947 358.3865 216.56223 351.22205 218.6875 342.375 L 228.03125 315.65625 C 217.46686 311.65104 202.32769 306.73634 194.875 297.84375 L 192.9375 298.84375 L 190.96875 289.9375 L 179.28125 284 L 177.34375 285.96875 L 174.40625 272.125 L 158.8125 270.84375 L 147.09375 264.375 C 142.04797 263.64641 135.36775 272.01361 133.46875 276.0625 L 126.625 275.09375 L 128.59375 273.09375 L 122.75 269.125 L 123.71875 273.09375 C 119.51423 268.68061 118.78887 263.11406 119.8125 257.25 L 113 254.28125 L 112 257.25 C 110.7808 252.35192 111.29514 246.02665 114.9375 242.40625 C 109.59456 238.70672 106.00343 242.18826 102.28125 246.375 L 94.46875 230.53125 C 92.32102 235.38879 93.10388 240.23445 93.5 245.375 L 91.53125 245.375 C 91.10067 239.83657 89.76571 233.78226 92.53125 228.5625 C 97.6993 218.8079 113.2191 214.69222 122.75 216.6875 L 121.75 218.65625 L 130.53125 226.59375 C 130.57135 211.46003 136.44812 209.86126 144.6875 198.84375 L 150.4375 188.21875 C 156.83152 181.07893 166.76415 176.2106 175.34375 173 L 186.09375 166.21875 C 182.61336 160.10331 173.46718 161.8531 167.59375 162.25 C 178.15521 156.1484 192.51568 159.45453 199.75 148.40625 C 191.85765 142.57586 191.85774 127.36297 179.28125 133.5625 L 181.21875 127.625 L 170.5 122.65625 L 162.6875 139.21875 L 151.96875 152.34375 L 151 145.4375 C 146.87642 143.49269 135.5338 140.0746 135.3125 134.53125 C 135.07194 128.50686 153.40625 119.40569 157.84375 115.75 L 155.875 120.6875 L 163.4375 119.96875 C 165.03918 118.94179 180.23682 97.17924 182.1875 110.78125 C 192.75774 114.84873 193.96503 119.51163 204.625 112.78125 L 197.8125 109.78125 C 196.73723 100.00666 188.22329 99.91163 180.25 99.90625 L 205.59375 88.03125 C 208.41584 95.05832 217.26091 96.49671 220.125 102.96875 C 222.15966 107.56725 216.12802 110.33747 216.28125 114.75 C 216.46976 120.19029 221.67815 126.84058 224.125 131.5625 L 238.78125 115.3125 C 246.87346 110.93213 259.89905 110.45254 266.34375 103.375 C 273.80522 95.17999 269.69924 82.14361 283.59375 82.09375 C 280.77449 80.88973 276.23215 79.97556 273.84375 82.09375 L 270.90625 79.125 L 274.8125 79.125 C 272.77423 76.28676 271.4089 74.73868 268 74.15625 C 267.2034 73.15633 266.17783 72.48638 265.03125 72 C 262.04119 71.854157 259.02601 71.78125 256 71.78125 z M 341.09375 100.875 C 337.66708 103.72344 331.8536 105.16026 327.46875 105.84375 L 319.5 116.96875 L 310.21875 124.8125 C 308.72414 128.41719 311.10686 133.87174 311.84375 137.5 L 321.59375 132.5625 C 322.99578 137.48041 326.79535 138.74305 330.375 141.46875 C 336.15389 130.33544 331.18065 119.69058 345 113.75 L 336.21875 124.65625 L 339.15625 122.65625 L 340.125 128.59375 L 341.09375 120.6875 C 343.66838 129.6157 340.97442 141.88004 331.34375 145.25 L 321.59375 144.4375 L 321.59375 138.5 C 316.04873 139.67469 316.25743 142.47761 317.71875 147.40625 C 313.95572 146.3207 311.71094 146.50093 308.9375 149.375 C 305.95947 146.26811 303.53536 143.90622 303.09375 139.5 C 301.2006 137.58572 300.35109 136.28238 300.15625 133.5625 L 293.34375 132.5625 L 296.25 148.40625 C 293.64924 143.45273 290.95529 142.24391 285.53125 143.4375 L 288.46875 155.3125 L 292.375 154.34375 L 289.4375 153.34375 L 293.34375 146.40625 L 295.28125 157.3125 L 304.0625 155.3125 C 301.60488 157.69689 299.63957 158.27596 296.25 158.28125 L 297.25 161.25 L 292.375 161.25 L 299.1875 173.125 C 283.21466 173.2594 283.02934 181.56194 283.59375 194.90625 C 286.7113 195.13415 288.22846 195.60253 290.40625 197.875 C 303.30544 190.97468 306.2799 178.14918 321.59375 174.125 C 324.07878 181.97045 331.76444 181.50412 329.40625 190.96875 C 336.93014 189.40982 339.03657 182.96472 334.28125 177.09375 C 340.69185 180.97034 342.52239 188.93034 346.9375 194.90625 C 350.04542 190.7633 348.85233 186.02807 353.78125 183.03125 L 353.78125 186 C 362.03919 193.43968 367.73803 195.11901 378.15625 198.875 C 374.57563 204.03537 370.25568 209.07985 363.53125 208.65625 C 355.29963 208.1385 344.79186 199.94885 339.15625 209.75 L 323.46875 197.125 C 314.76822 193.39983 306.21761 196.92261 297.25 195.90625 L 293.34375 197.875 L 295.28125 198.875 C 277.42108 207.03322 267.51431 228.51269 265.65625 246.375 L 262.25 258.25 C 264.14917 269.84745 273.84047 281.85802 281.96875 289.75 C 287.69208 295.30625 291.80643 284.44703 297.25 289.9375 C 304.45509 287.16845 315.32902 282.33364 321.9375 290.0625 C 326.27847 295.14069 321.74348 299.34772 323.25 304.78125 C 325.85564 314.18255 332.07713 325.1995 332.0625 335.46875 L 329.625 360.1875 C 331.76061 375.2618 339.99633 387.9542 340.125 403.75 C 352.07762 402.50002 365.51853 396.39675 372.15625 385.9375 L 375 377.125 L 379.9375 371 L 378.0625 361.28125 C 380.85262 354.48294 392.14459 353.74029 393.84375 346.3125 C 396.15794 336.20061 390.11329 324.22402 393.71875 313.6875 C 399.27926 297.44238 414.76153 285.54514 415.1875 267.15625 L 403.5 268.15625 C 414.02153 255.04752 436.31299 248.44683 424.9375 228.5625 L 420.0625 234.5 L 418.125 234.5 C 414.36078 226.48125 408.38278 225.645 408.375 215.6875 C 417.50054 223.66161 426.94205 223.91363 435.65625 233.5 C 436.45205 233.06266 437.11418 232.50946 437.65625 231.84375 C 430.995 180.69152 403.45965 136.1466 363.9375 107.125 C 356.50345 106.38504 347.72257 105.32276 343.0625 100.90625 L 341.09375 100.90625 L 341.09375 100.875 z" transform="translate(1.489975,-463.41916)" fill="#fff8eb"/>
  <path d="m 257.48998 -436.37285 c -125.74976 0 -227.69356 102.51794 -227.69356 228.96817 0 126.45027 101.9438 228.9392 227.69356 228.9392 125.74973 0 227.69355 -102.48893 227.69355 -228.9392 0 -126.45023 -101.94382 -228.96817 -227.69355 -228.96817 z m 0 33.89331 c 107.13012 0 193.97404 87.34796 193.97404 195.07486 0 107.72694 -86.84392 195.04589 -193.97404 195.04589 -107.13015 0 -193.97405 -87.31895 -193.97405 -195.04589 0 -107.7269 86.84391 -195.07486 193.97405 -195.07486 z" fill="#fff8eb"/>
 </g>
</svg>
