<svg xmlns="http://www.w3.org/2000/svg" xmlns:xlink="http://www.w3.org/1999/xlink" width="512" height="512">
 <defs>
  <linearGradient id="0">
   <stop stop-color="#e03f51"/>
   <stop offset="1" stop-color="#cd1d31"/>
  </linearGradient>
  <radialGradient xlink:href="#0" id="1" cx="256.00001" cy="256.00002" r="250.00001" gradientTransform="translate(0,5.1200001e-6)" gradientUnits="userSpaceOnUse"/>
 </defs>
 <path d="m 506.00002 256.00002 c 0 138.0712 -111.92883 250 -250.00001 250 -138.0712 0 -250.00001 -111.9288 -250.00001 -250 0 -138.07118 111.92881 -250.00001 250.00001 -250.00001 138.07118 0 250.00001 111.92883 250.00001 250.00001 z" fill="url(#1)" fill-rule="evenodd"/>
 <g transform="translate(-10.352352,13.536133)">
  <text x="-1672.5796" y="383.16855" word-spacing="0" line-height="125%" letter-spacing="0" font-size="208.33334" font-family="Gentium Book Basic"><tspan x="-1672.5796" y="383.16855"/>
  </text>
  <path d="m 379.9341 289.70574 c -5.47496 -0.83165 -9.43219 -2.7372 -11.85353 -5.70788 -3.17891 -3.90024 -9.63249 -4.09777 -20.92393 -0.6405 -12.66658 3.8784 -14.17229 5.09241 -17.91974 14.44832 -4.58241 11.44044 -6.88054 12.62306 -21.55024 11.09006 -14.69322 -1.53544 -16.64454 -3.1266 -19.11639 -15.58797 -2.01339 -10.15017 -1.5056 -9.57077 -14.52544 -16.57238 -11.9353 -6.41837 -14.74775 -6.66941 -24.47383 -2.18435 -9.25575 4.2681 -12.1956 3.21144 -20.95117 -7.53073 -8.7608 -10.74857 -9.3036 -14.34879 -3.52133 -23.35514 5.07823 -7.90978 5.45403 -10.75821 2.76885 -20.98505 -3.54567 -13.50423 -5.91875 -16.69345 -15.45627 -20.77204 -10.64797 -4.55353 -12.15063 -7.45763 -10.87606 -21.01951 1.13076 -12.0319 6.6795 -18.8665 15.42223 -18.99616 7.21004 -0.10693 9.79668 -2.21777 15.92714 -12.99884 6.74758 -11.86372 7.21152 -15.45757 3.29318 -25.5088 -4.30368 -11.03987 -3.70872 -12.75683 7.6208 -21.99113 12.22542 -9.964565 13.95132 -9.898455 29.20288 1.119 2.42342 1.75062 6.86884 1.05106 22.006 -3.462985 7.31012 -2.17994 9.33594 -4.19624 13.06524 -13.00333 4.98517 -11.773143 8.53404 -13.429223 24.14808 -11.268783 10.60435 1.46725 15.78409 6.769173 16.276 16.660033 0.32614 6.55748 2.99805 9.469435 14.29883 15.583505 11.9748 6.47879 13.8481 6.66777 24.07389 2.42861 11.34809 -4.70447 14.07979 -3.6037 24.1611 9.73623 8.4448 11.17455 8.98517 14.33141 3.50625 20.48378 -7.37594 8.28255 -8.01986 11.9458 -4.2981 24.45155 3.82482 12.85208 5.78547 14.95463 17.34631 18.60217 7.86999 2.48305 9.99241 8.27716 8.24073 22.49642 -1.4917 12.10871 -5.51606 16.1361 -17.10645 17.11907 -7.50906 0.63688 -8.28115 1.36255 -15.38218 14.45766 -6.50681 11.99939 -6.60694 14.21528 -1.13604 25.14837 4.11519 8.22372 2.94879 10.99419 -8.57298 20.38599 -8.85707 7.21914 -10.14566 7.91289 -13.69462 7.37384 z m -27.42838 -81.348 c 11.44731 -24.12458 -3.63786 -51.12082 -30.28234 -54.19305 -27.43661 -3.16357 -48.46738 23.37517 -39.4863 49.82777 10.85802 31.98088 55.34407 34.7643 69.76864 4.36528 z" fill-opacity="0.968627" fill="#fff8eb"/>
  <path d="m 199.91176 407.71931 c -3.52989 -1.44154 -5.8704 -3.35652 -7.01082 -5.73612 -1.49718 -3.12419 -5.78454 -4.2995 -13.90054 -3.81067 -9.10443 0.5484 -10.3084 1.11755 -14.32873 6.77362 -4.9161 6.91624 -6.64536 7.33631 -16.21578 3.93918 -9.58577 -3.40256 -10.63458 -4.7829 -10.27477 -13.52264 0.29307 -7.11879 0.53929 -6.64893 -7.04302 -13.43944 -6.95069 -6.22484 -8.79245 -6.84746 -16.0269 -5.41772 -6.8846 1.36054 -8.68142 0.17814 -12.80509 -8.42662 -4.126154 -8.60989 -3.907534 -11.10719 1.41819 -16.20041 4.67726 -4.47309 5.38918 -6.31875 5.24503 -13.59743 -0.19034 -9.61128 -1.26312 -12.12934 -6.98721 -16.40066 -6.390519 -4.76868 -6.92683 -6.95523 -3.881734 -15.82598 2.701554 -7.87 7.519944 -11.54744 13.392274 -10.22109 4.84285 1.09383 6.91524 0.0991 12.76084 -6.12559 6.43362 -6.84956 7.32503 -9.17989 6.32715 -16.54036 -1.09599 -8.08444 -0.42027 -9.13741 8.65497 -13.48657 9.79289 -4.69309 10.93734 -4.36987 19.36419 5.46909 1.33899 1.56336 4.42732 1.81369 15.28802 1.23914 5.2449 -0.27744 6.92665 -1.29947 10.84614 -6.59115 5.23941 -7.07381 7.8823 -7.6086 17.98335 -3.6389 6.86018 2.69602 9.46993 7.08174 8.20046 13.78105 -0.8416 4.44154 0.47598 6.82234 7.05119 12.74096 6.96737 6.27169 8.1906 6.70095 15.71975 5.51658 8.35551 -1.3144 10.00587 -0.13615 14.59695 10.42155 3.84582 8.84391 3.69721 11.04409 -0.96416 14.27619 -6.27534 4.3512 -7.29841 6.69888 -6.82884 15.67036 0.48258 9.21991 1.45496 10.94403 8.60291 15.25388 4.86592 2.93393 5.3499 7.15489 1.87922 16.38849 -2.95554 7.86308 -6.29994 9.90808 -14.21609 8.69257 -5.12864 -0.78748 -5.7627 -0.42656 -12.6319 7.19003 -6.29441 6.9793 -6.71958 8.44618 -4.82515 16.6478 1.42501 6.16916 0.19656 7.83488 -9.03281 12.25836 -7.09476 3.40007 -8.06932 3.65611 -10.35746 2.72169 z m -5.20887 -58.87832 c 11.56083 -14.29596 5.82805 -34.80239 -11.50813 -41.16521 -17.85158 -6.552 -36.21669 7.8107 -34.4814 26.96668 2.09793 23.15932 31.42189 32.21265 45.98953 14.19853 z" fill-opacity="0.968627" fill="#fff8eb"/>
 </g>
</svg>
