<svg xmlns="http://www.w3.org/2000/svg" xmlns:xlink="http://www.w3.org/1999/xlink" width="512" height="512">
 <defs>
  <linearGradient id="0">
   <stop stop-color="#77b073"/>
   <stop offset="1" stop-color="#5c805a"/>
  </linearGradient>
  <radialGradient xlink:href="#0" id="1" cx="222.85715" cy="246.28572" r="82.85714" gradientUnits="userSpaceOnUse"/>
 </defs>
 <path d="m 305.71429 246.28572 c 0 45.76074 -37.09641 82.85714 -82.85714 82.85714 -45.76074 0 -82.85714 -37.0964 -82.85714 -82.85714 0 -45.76073 37.0964 -82.85714 82.85714 -82.85714 45.76073 0 82.85714 37.09641 82.85714 82.85714 z" transform="matrix(3.0172416 0 0 3.0172415 -416.41385 -487.10349)" fill="url(#1)" fill-rule="evenodd"/>
 <path d="M 286.625 87.5625 C 280.12296 87.3572 273.70761 90.62515 270.1875 96.65625 L 232.5625 161.125 L 192.8125 137.9375 C 190.03732 136.31001 186.02302 137.37482 184.40625 140.15625 L 148.5625 201.5625 C 118.11196 253.73291 129.18531 318.507 171.75 357.84375 L 112.4375 459.4375 C 112.26339 459.7358 112.09923 460.04189 111.9375 460.34375 C 126.86236 470.88523 143.00455 479.80023 160.09375 486.90625 L 219.21875 385.5625 C 274.40268 403.27843 336.26826 381.04574 366.71875 328.875 L 402.5625 267.46875 C 404.18995 264.69348 403.1251 260.67924 400.34375 259.0625 L 360.59375 235.875 L 398.21875 171.375 C 403.33909 162.60239 400.3977 151.4329 391.625 146.3125 C 382.85252 141.19228 371.68277 144.13379 366.5625 152.90625 L 328.90625 217.375 L 264.25 179.625 L 301.875 115.15625 C 306.99541 106.38381 304.05372 95.18269 295.28125 90.0625 C 292.53985 88.46243 289.58047 87.65582 286.625 87.5625 z" transform="matrix(1 0 0 1 0 0)" fill="#fff8eb" stroke-width="0.518634"/>
</svg>
