<svg xmlns="http://www.w3.org/2000/svg" width="512" height="512">
 <path d="M 256 6 C 117.93547 6 6 117.93552 6 256 C 6 394.06454 117.93547 506 256 506 C 394.0645 506 506 394.06454 506 256 C 506 117.93552 394.0645 6 256 6 z M 256 47.5 C 319.34488 47.5 376.07433 75.76386 414.3125 120.34375 C 416.34625 122.71479 418.32274 125.13206 420.25 127.59375 C 422.13418 130.00041 423.97098 132.44759 425.75 134.9375 C 423.97076 132.44671 422.1348 130.00136 420.25 127.59375 C 418.32419 125.13375 416.3451 122.71345 414.3125 120.34375 C 406.54734 119.93511 395.80664 119.8125 380.21875 119.8125 C 342.37047 119.8125 323.80403 133.81065 286.875 190.21875 C 274.44326 209.2085 265.29214 219.17359 256.125 219.71875 C 246.96809 219.15322 237.82411 209.18732 225.40625 190.21875 C 188.47721 133.81065 169.91078 119.8125 132.0625 119.8125 C 116.28948 119.8125 105.47112 119.92295 97.6875 120.34375 C 95.65569 122.71254 93.67539 125.13483 91.75 127.59375 C 89.86562 130.00031 88.0291 132.4479 86.25 134.9375 C 88.02902 132.44759 89.86582 130.00041 91.75 127.59375 C 93.67726 125.13206 95.65375 122.71479 97.6875 120.34375 C 135.92566 75.76386 192.6551 47.5 256 47.5 z M 85.96875 135.3125 C 84.20866 137.78724 82.52799 140.29059 80.875 142.84375 C 80.02403 144.15814 79.16569 145.50922 78.34375 146.84375 C 77.52181 148.17828 76.72997 149.52076 75.9375 150.875 C 75.14503 152.22924 74.3563 153.59523 73.59375 154.96875 C 72.924292 156.17459 72.27108 157.37337 71.625 158.59375 C 72.27008 157.37517 72.925372 156.17285 73.59375 154.96875 C 74.35579 153.59591 75.14559 152.2286 75.9375 150.875 C 76.72772 149.52429 77.52423 148.17486 78.34375 146.84375 C 79.17306 145.49674 80.01614 144.17024 80.875 142.84375 C 82.52453 140.29611 84.2127 137.78195 85.96875 135.3125 z M 426.03125 135.3125 C 427.79562 137.79365 429.49942 140.31493 431.15625 142.875 C 432.00703 144.1896 432.83448 145.50899 433.65625 146.84375 C 434.47577 148.17486 435.27228 149.52429 436.0625 150.875 C 436.85441 152.2286 437.64421 153.59591 438.40625 154.96875 C 439.1723 156.34881 439.92084 157.72595 440.65625 159.125 C 445.04887 167.48153 448.8817 176.1785 452.125 185.15625 C 460.11625 207.27681 464.5 231.12173 464.5 256 C 464.5 281.73066 459.8343 306.37069 451.3125 329.125 C 441.46234 325.09852 420.9279 322.84375 381.71875 322.84375 C 363.5468 322.71763 361.73313 321.15606 339 285.6875 L 319.625 255.46875 L 332.8125 234.46875 C 357.85404 194.54128 367.02577 186.125 385.53125 186.125 C 421.5098 186.125 441.23592 185.75784 452.125 185.15625 C 448.88025 176.17446 445.04865 167.48345 440.65625 159.125 C 439.92418 157.73193 439.16868 156.34298 438.40625 154.96875 C 437.64382 153.59452 436.85487 152.22994 436.0625 150.875 C 435.27013 149.52006 434.47812 148.17896 433.65625 146.84375 C 432.83438 145.50854 432.00719 144.19005 431.15625 142.875 C 429.50332 140.32056 427.79147 137.78842 426.03125 135.3125 z M 71.15625 159.4375 C 69.75738 162.10982 68.44104 164.82338 67.15625 167.5625 C 66.48609 168.99124 65.825977 170.42872 65.1875 171.875 C 64.54902 173.32128 63.918855 174.78661 63.3125 176.25 C 62.706145 177.71339 62.13629 179.17619 61.5625 180.65625 C 60.988707 182.13631 60.41579 183.62871 59.875 185.125 C 70.69892 185.73588 90.45144 186.125 126.75 186.125 C 145.25548 186.125 154.4272 194.54128 179.46875 234.46875 L 192.65625 255.46875 L 173.28125 285.6875 C 150.54811 321.15606 148.73444 322.71763 130.5625 322.84375 C 91.0579 322.84375 70.5124 325.13507 60.75 329.21875 C 61.26926 330.60303 61.796386 331.9736 62.34375 333.34375 C 65.08057 340.19448 68.17829 346.87357 71.59375 353.34375 C 72.27684 354.63779 72.978214 355.90978 73.6875 357.1875 C 74.39679 358.46522 75.10859 359.73896 75.84375 361 C 75.1094 359.74264 74.39611 358.46145 73.6875 357.1875 C 72.977285 355.91066 72.27774 354.63689 71.59375 353.34375 C 68.16841 346.86785 65.08436 340.20146 62.34375 333.34375 C 61.798216 331.97868 61.26733 330.59787 60.75 329.21875 C 52.20379 306.43595 47.5 281.76931 47.5 256 C 47.5 231.11137 51.877391 207.25332 59.875 185.125 C 60.41525 183.63021 60.989275 182.13493 61.5625 180.65625 C 62.13587 179.17719 62.706579 177.71249 63.3125 176.25 C 63.920797 174.78177 64.54685 173.32608 65.1875 171.875 C 65.825225 170.43055 66.48691 168.98952 67.15625 167.5625 C 68.44045 164.82461 69.75806 162.10882 71.15625 159.4375 z M 256.125 289.6875 C 266.06006 290.11769 276.44884 302.92759 293.25 329.375 C 319.93803 371.39075 335.33577 384.11323 366.625 390.09375 C 388.93247 390.09375 404.70999 389.98917 416.09375 389.5625 C 377.84836 435.35159 320.33223 464.5 256 464.5 C 191.66775 464.5 134.15163 435.35159 95.90625 389.5625 C 107.30735 389.99757 123.17686 390.09375 145.65625 390.09375 C 176.94548 384.11323 192.34322 371.39075 219.03125 329.375 C 235.81492 302.95513 246.19931 290.14299 256.125 289.6875 z M 446.25 341.40625 C 445.64864 342.74389 445.03482 344.08377 444.40625 345.40625 C 445.03704 344.07855 445.64655 342.74925 446.25 341.40625 z M 429.21875 372.09375 C 428.80877 372.70433 428.385 373.30027 427.96875 373.90625 C 428.38289 373.30308 428.81083 372.70147 429.21875 372.09375 z M 82.8125 372.125 C 83.51861 373.17765 84.24397 374.21109 84.96875 375.25 C 84.24242 374.21021 83.52023 373.17853 82.8125 372.125 z" transform="matrix(1 0 0 1 0 0)" fill="#fff8eb"/>
</svg>
