<?xml version="1.0" encoding="UTF-8" standalone="no"?>
<!-- Created with Inkscape (http://www.inkscape.org/) -->

<svg
   xmlns:dc="http://purl.org/dc/elements/1.1/"
   xmlns:cc="http://creativecommons.org/ns#"
   xmlns:rdf="http://www.w3.org/1999/02/22-rdf-syntax-ns#"
   xmlns:svg="http://www.w3.org/2000/svg"
   xmlns="http://www.w3.org/2000/svg"
   xmlns:sodipodi="http://sodipodi.sourceforge.net/DTD/sodipodi-0.dtd"
   xmlns:inkscape="http://www.inkscape.org/namespaces/inkscape"
   width="512"
   height="512"
   id="svg2"
   version="1.1"
   inkscape:version="0.48.4 r9939"
   sodipodi:docname="yast.svg">
  <defs
     id="defs4" />
  <sodipodi:namedview
     id="base"
     pagecolor="#ffffff"
     bordercolor="#666666"
     borderopacity="1.0"
     inkscape:pageopacity="0.0"
     inkscape:pageshadow="2"
     inkscape:zoom="0.7"
     inkscape:cx="415.51668"
     inkscape:cy="202.94016"
     inkscape:document-units="px"
     inkscape:current-layer="layer1"
     showgrid="false"
     inkscape:window-width="1309"
     inkscape:window-height="750"
     inkscape:window-x="55"
     inkscape:window-y="-3"
     inkscape:window-maximized="1" />
  <metadata
     id="metadata7">
    <rdf:RDF>
      <cc:Work
         rdf:about="">
        <dc:format>image/svg+xml</dc:format>
        <dc:type
           rdf:resource="http://purl.org/dc/dcmitype/StillImage" />
        <dc:title />
      </cc:Work>
    </rdf:RDF>
  </metadata>
  <g
     inkscape:label="Layer 1"
     inkscape:groupmode="layer"
     id="layer1"
     transform="translate(0,-540.36218)">
    <path
       sodipodi:type="arc"
       style="fill:#999647;fill-rule:evenodd;stroke:none"
       id="path2985"
       sodipodi:cx="202.85715"
       sodipodi:cy="-316.57144"
       sodipodi:rx="360"
       sodipodi:ry="360"
       d="m 562.85715,-316.57144 c 0,198.82251 -161.17749,359.999998 -360,359.999998 -198.8225127,0 -360,-161.177488 -360,-359.999998 0,-198.82251 161.1774873,-360 360,-360 198.82251,0 360,161.17749 360,360 z"
       transform="matrix(0.69444444,0,0,0.69444444,115.12698,1016.2035)" />
    <path
       sodipodi:nodetypes="ccccccccccccccccccccccccccccccccccccccccccc"
       inkscape:connector-curvature="0"
       id="path4480"
       d="m 205.40694,792.94265 -33.67535,6.26955 -61.69101,30.2078 c -7.47,-0.50281 -15.28298,-5.3373 -18.762358,-9.0967 -5.440092,-8.11828 -14.031166,-15.12823 -8.970297,-28.23559 2.777349,-4.46125 7.974405,-6.89188 12.734365,-9.68929 1.340445,-0.54534 2.578244,-1.71056 4.244802,-0.28498 L 130.41559,757.8902 c 4.28173,-11.38058 9.73096,-22.17331 19.52606,-30.77777 7.78206,-4.57333 16.39306,-8.19261 26.60073,-9.97428 l -27.7327,-33.05759 -17.26212,-57.8508 57.44621,55.57097 17.54514,26.21809 c 3.001,3.28519 5.69599,7.53893 11.03645,3.41975 l 23.77092,-23.65328 c 11.14516,-10.86401 24.34703,-17.88137 39.05207,-23.3683 23.20482,-8.73039 46.4097,-17.73774 69.61458,-23.08332 -12.88464,19.06395 -26.03522,38.05137 -41.31601,56.42589 -5.55077,4.75886 -10.73734,9.74691 -18.96007,12.82407 -9.17208,2.54944 -16.66595,4.64608 -25.38351,9.20992 -6.39142,3.34779 -11.31237,9.8817 -14.23454,16.7232 14.69714,-6.7044 29.82237,-12.11515 45.5608,-15.67387 14.05495,-2.78311 28.10995,-6.45449 42.16501,-1.13991 15.85544,6.20125 30.07441,16.5225 43.8628,27.92797 10.98333,9.56844 20.28563,21.59932 27.44963,36.76233 3.00747,7.76751 3.94146,19.21527 4.81078,30.77777 4.48264,44.76515 9.43551,89.45141 17.26223,133.65529 l -13.58336,0.56995 -8.77257,6.26954 -4.81073,-4.27468 -7.92367,0 -17.82811,10.25925 1.13186,-10.54423 -20.09199,0.85494 5.65979,7.40946 -26.60078,1.4249 -13.01732,5.69958 -41.59902,-19.09361 -106.9688,8.26439 4.2448,-3.41974 17.82816,-29.92283 c 1.16028,-43.69152 0.61038,-88.33983 6.50863,-129.3806 z"
       style="fill:none;stroke:none" />
    <path
       sodipodi:nodetypes="cccccccccccccccccccccccccccccccccccccccccccccccccccccccscccccccccccccccccccccccccccccccscscccccccccccsc"
       inkscape:connector-curvature="0"
       id="path4482"
       d="m 120.95193,796.8389 c 0.46172,8.41083 -1.06662,14.55845 -4.85164,18.06264 -4.34906,2.5682 -8.87803,3.68715 -13.81978,1.48055 -5.290367,-3.72251 -9.936452,-8.66598 -10.987453,-14.25247 -0.573872,-3.59896 -0.874233,-7.43676 1.872266,-9.73235 3.056784,-2.4306 6.351767,-2.46212 9.703267,-1.92471 4.79548,1.24451 8.8269,3.64325 12.93766,5.92218 -3.81714,-3.50973 -8.00265,-6.46515 -12.64362,-8.73521 l 23.37601,-18.21071 c 5.69061,-4.50341 11.50465,-8.96294 14.26087,-14.50933 l 8.52705,-15.10154 c 2.79064,-5.52369 7.85164,-8.27106 13.08471,-10.80798 9.31526,-3.54925 19.19995,-6.52499 30.28592,-8.29104 l -34.25544,-39.08637 -13.96677,-32.86809 c 8.40676,9.00346 16.7571,18.93487 26.02237,27.53813 8.05118,7.20531 13.56356,14.41062 18.81841,21.61594 3.9388,6.45891 8.43303,12.73136 13.96682,18.65486 3.3947,3.0276 8.49932,6.77703 15.87801,2.81304 5.36852,-2.84384 9.44653,-6.84294 13.23175,-11.10409 8.86754,-9.78307 17.58103,-19.22926 26.46345,-25.3173 23.72694,-13.99803 47.58394,-21.00037 71.45117,-29.75895 -8.76092,14.90629 -25.25433,36.2427 -35.57859,42.93579 -9.13034,5.06974 -18.75436,8.8964 -28.37463,12.73268 -10.69258,4.12021 -15.96629,9.83205 -20.72975,15.69377 -5.27136,8.45311 -8.45633,16.3153 -5.7337,22.50427 1.6944,3.70136 3.95985,7.40272 6.90991,11.10408 4.50019,5.14097 9.25059,10.03007 14.99594,13.91712 3.51631,1.82995 6.88119,0.84852 10.14431,-0.29611 -4.72272,0.37105 -9.52708,-0.34384 -12.20254,-2.96109 -8.52031,-7.20385 -13.51607,-13.26113 -17.29545,-19.45988 16.04146,-7.69641 30.78917,-12.78697 45.08201,-16.96151 16.14859,-5.27728 30.99399,-7.65358 45.5759,-5.92217 26.68588,6.35752 45.48956,29.06026 54.69099,39.67859 7.90152,10.08559 15.21178,25.47295 15.43703,34.20057 2.14327,45.79817 10.13244,91.59634 16.17215,137.39452 l -6.32189,0.2961 -3.23444,9.32743 -2.20522,-7.40272 -4.5576,0.88832 0,-8.73521 -1.4702,8.58716 -4.85158,-1.48054 -6.46883,5.77412 0.73502,-7.10661 -3.08734,-0.14805 1.4702,-6.5144 -3.38144,5.32995 -8.67415,1.92471 13.23164,-17.32236 0.89513,-1.1495 -4.12946,2.92614 -5.58671,-32.42392 -16.46614,-29.75894 10.29124,-12.14045 c 0,0 -9.40918,9.47547 -9.40918,8.88326 0,-0.59222 7.20396,-18.06264 7.20396,-18.06264 l -1.17616,-11.84436 -0.73507,11.6963 -8.38007,18.95097 -12.93771,4.73774 0.29404,-2.81303 -16.46609,-12.28852 -8.23312,-18.06263 2.20533,-17.61849 -4.26356,15.10155 -3.96957,-18.35875 0.88212,21.31984 11.32047,16.13794 -10.43835,-10.65992 11.02648,14.80544 14.26081,11.25213 -12.34958,73.58306 10.58534,15.24961 -5.88069,1.18443 -10.73244,-13.02879 6.17479,14.9535 -9.11514,-0.59222 -5.8808,-14.36128 0.73512,11.54825 -24.69921,-8.43911 18.59792,-75.50776 c 0,0 -3.08739,4.14553 -3.16089,3.84942 -0.0732,-0.2961 -17.86284,-21.83803 -17.86284,-21.83803 l -7.64494,-2.51692 6.32178,3.47927 7.64494,9.03132 c 0,0 -49.83941,-17.02626 -50.1335,-16.80417 -0.29399,0.22208 -13.96672,15.54572 -13.96672,15.54572 0,0 12.64362,83.42867 12.64362,83.13256 0,-0.29611 -41.01831,2.44289 -41.01831,2.44289 l 6.24829,-13.47295 -8.52711,11.25214 -8.01253,0.29611 11.76155,-17.54446 0.147,-69.51155 6.76287,-71.88042 c 4.98311,-1.48843 9.20232,-4.40559 12.34963,-9.32744 l 3.74897,-7.99493 c -4.65355,7.17055 -10.18573,12.89321 -17.7158,15.32363 -12.13013,3.77954 -28.89271,4.65664 -39.62761,7.42659 -10.53571,2.46325 -50.35701,22.37011 -50.61595,23.36752 -0.48084,1.8519 0.13258,-14.35765 -2.59893,-13.84188 z"
       style="fill:none;stroke:none" />
    <path
       id="path4484"
       d="m 128.01552,638.98493 15.98022,53.50043 25.63714,30.5869 c -9.44233,1.64809 -17.40674,4.98827 -24.60531,9.2187 -9.06069,7.95932 -14.08318,17.95477 -18.04387,28.48206 l -28.812023,22.40729 c -1.54165,-1.31869 -2.67578,-0.23802 -3.91566,0.26644 -4.40313,2.58768 -9.204419,4.82549 -11.773529,8.95226 -4.681417,12.1246 3.248937,18.62782 8.281139,26.13741 3.21851,3.47753 10.446083,7.92764 17.355993,8.39275 l 57.0684,-27.92253 31.16674,-5.80831 c -5.45606,37.96363 -4.959,79.26757 -6.03229,119.68322 l -16.48289,27.68274 -3.94214,3.14396 98.95034,-7.62009 38.49531,17.6381 12.03812,-5.24881 24.60531,-1.33217 -5.23857,-6.84743 18.57303,-0.7993 -1.03178,9.75156 16.48286,-9.48513 7.32865,0 4.44483,3.94327 8.12241,-5.78168 12.56718,-0.53287 c -7.23989,-40.88959 -11.83358,-82.21772 -15.98022,-123.62649 -0.80414,-10.69557 -1.66283,-21.29693 -4.44483,-28.48205 -6.62685,-14.02613 -15.21265,-25.14626 -25.37248,-33.99728 -12.75457,-10.55032 -25.91885,-20.10803 -40.58553,-25.84433 -13.00115,-4.91611 -25.99689,-1.5087 -38.99807,1.06574 -14.55837,3.29189 -28.55128,8.29241 -42.14652,14.49414 2.70311,-6.32855 7.26351,-12.38318 13.17572,-15.47995 8.06395,-4.22166 14.98333,-6.14103 23.46766,-8.49933 7.60616,-2.84645 12.40656,-7.481 17.54116,-11.88306 14.13507,-16.99685 26.28579,-34.5603 38.20436,-52.19489 -21.46498,4.94478 -42.93205,13.29239 -64.39709,21.3682 -13.60244,5.07555 -25.80461,11.55853 -36.11418,21.60799 l -21.98602,21.87443 c -4.94006,3.81032 -7.43652,-0.10504 -10.21251,-3.14395 L 181.16824,690.3805 128.01552,638.98493 z m 111.54397,211.31071 17.93806,6.12803 16.0067,29.30802 -15.45108,28.6419 -14.78966,8.47268 c 0,0 -10.47352,-66.14462 -9.92147,-66.4226 0.55201,-0.27796 6.21745,-6.12803 6.21745,-6.12803 z m 99.77053,14.73394 13.38742,26.16406 2.88388,23.97927 -18.78476,22.64709 c 0,0 -12.9812,-13.84684 -12.59371,-14.62736 0.38762,-0.78052 10.08029,-56.99075 10.08029,-56.99075 l 5.02688,-1.17231 z"
       style="fill:#fff8eb;stroke:none"
       inkscape:connector-curvature="0" />
    <path
       sodipodi:type="arc"
       style="fill:#282629;fill-opacity:1;stroke:none"
       id="path3043"
       sodipodi:cx="1215.3397"
       sodipodi:cy="-39.79583"
       sodipodi:rx="7.1973367"
       sodipodi:ry="7.8286824"
       d="m 1222.5371,-39.79583 a 7.1973367,7.8286824 0 1 1 -14.3947,0 7.1973367,7.8286824 0 1 1 14.3947,0 z"
       transform="matrix(0.80573435,0,0,0.74818194,-790.47167,786.37928)" />
    <path
       style="fill:#fff8eb;fill-rule:evenodd;stroke:none"
       d="M 256 23.15625 C 127.39622 23.15625 23.15625 127.39622 23.15625 256 C 23.15625 384.60378 127.39622 488.84375 256 488.84375 C 384.60378 488.84375 488.84375 384.60378 488.84375 256 C 488.84375 127.39622 384.60378 23.15625 256 23.15625 z M 256 42.84375 C 373.71961 42.84375 469.15625 138.28039 469.15625 256 C 469.15625 373.71961 373.71961 469.15625 256 469.15625 C 138.28039 469.15625 42.84375 373.71961 42.84375 256 C 42.84375 138.28039 138.28039 42.84375 256 42.84375 z "
       transform="translate(0,540.36218)"
       id="path3830" />
  </g>
</svg>
