<?xml version="1.0" encoding="UTF-8" standalone="no"?>
<svg
   xmlns:dc="http://purl.org/dc/elements/1.1/"
   xmlns:cc="http://creativecommons.org/ns#"
   xmlns:rdf="http://www.w3.org/1999/02/22-rdf-syntax-ns#"
   xmlns:svg="http://www.w3.org/2000/svg"
   xmlns="http://www.w3.org/2000/svg"
   xmlns:xlink="http://www.w3.org/1999/xlink"
   xmlns:sodipodi="http://sodipodi.sourceforge.net/DTD/sodipodi-0.dtd"
   xmlns:inkscape="http://www.inkscape.org/namespaces/inkscape"
   id="svg2"
   viewBox="0 0 205.61 193.9"
   version="1.0"
   inkscape:version="0.48.4 r9939"
   width="100%"
   height="100%"
   sodipodi:docname="Wizard_s_Hat.svg"
   inkscape:export-filename="/home/adrie/Dropbox/BrouwHulp/Artwork/Wizard_s_Hat.png"
   inkscape:export-xdpi="9.2842159"
   inkscape:export-ydpi="9.2842159">
  <sodipodi:namedview
     pagecolor="#ffffff"
     bordercolor="#666666"
     borderopacity="1"
     objecttolerance="10"
     gridtolerance="10"
     guidetolerance="10"
     inkscape:pageopacity="0"
     inkscape:pageshadow="2"
     inkscape:window-width="640"
     inkscape:window-height="749"
     id="namedview28"
     showgrid="false"
     inkscape:zoom="1.2171222"
     inkscape:cx="102.805"
     inkscape:cy="33.518286"
     inkscape:window-x="393"
     inkscape:window-y="80"
     inkscape:window-maximized="0"
     inkscape:current-layer="svg2" />
  <defs
     id="defs4">
    <linearGradient
       id="linearGradient2225">
      <stop
         id="stop2227"
         stop-color="#000079"
         offset="0" />
      <stop
         id="stop2282"
         stop-color="#000079"
         offset="1" />
    </linearGradient>
    <linearGradient
       id="linearGradient2422"
       x1="101.58"
       xlink:href="#linearGradient2225"
       gradientUnits="userSpaceOnUse"
       y1="505.89"
       gradientTransform="matrix(.31234 0 0 .25489 -754.44 443.65)"
       x2="695.65"
       y2="535.71" />
    <linearGradient
       id="linearGradient2424"
       x1="160.36"
       gradientUnits="userSpaceOnUse"
       y1="586.87"
       gradientTransform="matrix(.31234 0 0 .18977 -754.44 492.38)"
       x2="585.08"
       y2="633.04">
      <stop
         id="stop2215"
         offset="0" />
      <stop
         id="stop2223"
         offset=".5" />
      <stop
         id="stop2217"
         offset="1" />
    </linearGradient>
    <linearGradient
       id="linearGradient2426"
       x1="431.39"
       xlink:href="#linearGradient2225"
       gradientUnits="userSpaceOnUse"
       y1="1015.8"
       gradientTransform="matrix(.31234 0 0 .36907 -754.84 368.47)"
       x2="477.51"
       y2="658.74" />
  </defs>
  <g
     id="layer1"
     transform="translate(741.3 -461.8)">
    <g
       id="g2411">
      <path
         id="path2183"
         d="m-700.02 622.52s35.1-116.67 68.34-150.35c13.84-14.02 30.89-9.12 35.68-5.55 13.87 10.31 18.98 25.17 26.49 37.73-22.01-5.32-14.63-15.61-38.86-13.48l14.39 132.23-106.04-0.58z"
         fill-rule="evenodd"
         stroke="#000"
         stroke-width="2"
         fill="url(#linearGradient2422)" />
      <path
         id="path2185"
         fill-rule="evenodd"
         fill="url(#linearGradient2424)"
         d="m-701.34 628.5l10.55-35.53c15.7-5.66 49.49-5.35 93.58 5.81l4.3 34.05-108.43-4.33z" />
      <path
         id="path2187"
         stroke="#000"
         fill-rule="evenodd"
         fill="#ffcd00"
         d="m-632.8 620.66l0.33-30.74 3.11-1.36c10.58 0.18 19.2 1.81 25.85 4.87l3.76 29.58-3.76 1.62-29.29-3.97zm9.66-26.81l1.14 18.84 13.54 2.04-1.07-6.19-10.97-5.05 9.73-1.92-0.86-5.82c-3.84-1.74-7.67-2.08-11.51-1.9z" />
      <path
         id="path2201"
         stroke="#000"
         fill-rule="evenodd"
         fill="#bc9500"
         d="m-632.45 590.01l3.35-1.43 0.65 30.51-4.22 1.61 0.22-30.69z" />
      <path
         id="path2203"
         stroke="#000"
         fill-rule="evenodd"
         fill="#bc9500"
         d="m-623.28 592.09l0.05 1.77c3.19-0.27 6.91-0.08 11.62 1.79l0.79 5.82 2.79-0.7-1.24-6.3c-5.32-2.42-9.7-2.67-14.01-2.38z" />
      <path
         id="path2205"
         stroke="#000"
         fill-rule="evenodd"
         fill="#bc9500"
         d="m-620.03 603.53l10.45 4.45 1.3 6.9 2.78 0.53-1.88-9.51-12.65-2.37z" />
      <path
         id="path1308"
         d="m-701.36 640.34c31.03 3.14 68.81-1.9 117.9 1.37 13.51 0.9 30.69 1.03 44.03-9.14 2.38-1.81 6.28-7.04-4.05-8.68-2.88-1.04-2.87 5.28-29.23 1.92-34.21-4.36-68.59-16.23-98.08-18.64-29.5-2.41-54.36-2.55-66.18 10.97-10.53 12.03 4.58 19.06 35.61 22.2z"
         fill-rule="evenodd"
         stroke="#000"
         stroke-width="2"
         fill="#377cff" />
      <path
         id="path2237"
         d="m-702.86 612.35c-9.67 0.34-19.66 0.63-28.76 4.78-3.31 1.4-5.84 4.47-7.17 8.28-1.99 4.31-1.6 10.12 1.56 13.55 5.52 6.28 13.3 8.49 20.52 10.6 23.7 6.33 48.22 4.42 72.34 3.72 21.03-0.78 42.11-0.63 63.09 1.41 26.26-1.11 36.13-6.74 42.59-22.55-17.11 6.21-19.27 10.51-50.75 4.34-25.62-6.45-50.31-17.84-76.37-21.8-12.27-1.55-24.68-2.5-37.05-2.33z"
         fill-rule="evenodd"
         stroke="#000"
         stroke-width="2"
         fill="url(#linearGradient2426)" />
      <path
         id="path5447"
         stroke="#000"
         stroke-width="2"
         fill="none"
         d="m-608.18 491.51c-1.24-3.43-2.7-6.9-1.35-8.76 1.75-2.41 5.96-3.4 4.04 2.98" />
    </g>
  </g>
  <metadata
     id="metadata26">
    <rdf:RDF>
      <cc:Work>
        <dc:format>image/svg+xml</dc:format>
        <dc:type
           rdf:resource="http://purl.org/dc/dcmitype/StillImage" />
        <cc:license
           rdf:resource="http://creativecommons.org/licenses/publicdomain/" />
        <dc:publisher>
          <cc:Agent
             rdf:about="http://openclipart.org/">
            <dc:title>Openclipart</dc:title>
          </cc:Agent>
        </dc:publisher>
        <dc:title></dc:title>
      </cc:Work>
      <cc:License
         rdf:about="http://creativecommons.org/licenses/publicdomain/">
        <cc:permits
           rdf:resource="http://creativecommons.org/ns#Reproduction" />
        <cc:permits
           rdf:resource="http://creativecommons.org/ns#Distribution" />
        <cc:permits
           rdf:resource="http://creativecommons.org/ns#DerivativeWorks" />
      </cc:License>
    </rdf:RDF>
  </metadata>
</svg>
